<svg width="115" height="18" viewBox="0 0 115 18" fill="none" xmlns="http://www.w3.org/2000/svg">
<g clip-path="url(#clip0_843_847)">
<mask id="mask0_843_847" style="mask-type:luminance" maskUnits="userSpaceOnUse" x="0" y="0" width="18" height="18">
<path d="M17.7079 0.229004H0.197632V17.6889H17.7079V0.229004Z" fill="white"/>
</mask>
<g mask="url(#mask0_843_847)">
<path d="M5.47431 9.86296H5.18331C4.76427 9.86296 4.42285 10.2005 4.42285 10.6234V10.9106C4.42285 11.3296 4.76427 11.671 5.18331 11.671H5.47431C5.89334 11.671 6.23477 11.3296 6.23477 10.9106V10.6234C6.23477 10.2044 5.89334 9.86296 5.47431 9.86296ZM5.47431 5.64932H5.18331C4.76427 5.64932 4.42285 5.99076 4.42285 6.40979V6.69691C4.42285 7.11594 4.76427 7.45738 5.18331 7.45738H5.47431C5.89334 7.45738 6.23477 7.11594 6.23477 6.69691V6.40979C6.23477 5.99076 5.89334 5.64932 5.47431 5.64932ZM14.2663 0.229004C16.1675 0.229004 17.7079 1.76547 17.7079 3.66277V14.259C17.7079 16.1563 16.1675 17.6927 14.2663 17.6927H8.62872C8.52396 17.6927 8.43861 17.6074 8.43861 17.5026C8.43861 17.4832 8.43861 17.4677 8.44637 17.4483L8.84214 16.0903C8.87706 15.97 8.98956 15.8847 9.1176 15.8847H14.2973C15.182 15.8847 15.9037 15.1708 15.9037 14.2822V3.63562C15.9037 2.92559 15.4342 2.3009 14.7513 2.09914L11.1313 14.4724C11.0964 14.5926 10.9839 14.678 10.8558 14.678H9.51337C9.40861 14.678 9.32325 14.5965 9.32325 14.4918C9.32325 14.4724 9.32321 14.453 9.33097 14.4374L13.4049 0.504484C13.4515 0.341526 13.6028 0.232882 13.7697 0.232882H14.2702L14.2663 0.229004Z" fill="white"/>
<path d="M9.5289 3.44552L5.88949 15.8847H3.61195C2.72732 15.8847 2.00564 15.1708 2.00564 14.2823V3.63565C2.00564 2.75102 2.72732 2.03321 3.61195 2.03709H11.531C11.659 2.03709 11.7715 1.95173 11.8064 1.83145L12.1983 0.473472C12.2255 0.372593 12.1673 0.267832 12.0664 0.240672C12.0509 0.236792 12.0315 0.23291 12.016 0.23291H3.63525C1.73407 0.23291 0.193726 1.76938 0.193726 3.66668V14.2629C0.193726 16.1563 1.73407 17.6928 3.63525 17.6928H6.88667C7.05739 17.6928 7.2048 17.5802 7.25136 17.4212L11.3292 3.48821C11.3564 3.38733 11.2982 3.28256 11.1973 3.25152C11.1818 3.24764 11.1624 3.24377 11.1469 3.24377H9.80441C9.67637 3.24377 9.5677 3.32913 9.53278 3.44941L9.5289 3.44552Z" fill="white"/>
</g>
<path fill-rule="evenodd" clip-rule="evenodd" d="M24.1565 3.13916V14.8023H26.5698V9.97178H31.2296V14.8023H33.643V3.13916H31.2258V7.90376H26.5659V3.13916H24.1526H24.1565ZM38.0933 14.8023V5.17226H34.71V3.13916H51.7469V5.17226H48.3636V14.8023H45.9502V5.17226H40.5105V14.8023H38.0972H38.0933ZM52.8178 14.8023V3.13916H58.242C58.9675 3.13916 59.5572 3.22839 60.0112 3.41075C60.4768 3.59311 60.8338 3.85307 61.0821 4.19063C61.3304 4.51654 61.5011 4.92006 61.5943 5.39342C61.6951 5.86678 61.7456 6.40609 61.7456 7.0036C61.7456 7.55844 61.699 8.07059 61.6098 8.54782C61.54 8.98626 61.3731 9.4053 61.117 9.77002C60.8687 10.1192 60.504 10.3908 60.0306 10.5848C59.565 10.7788 58.9481 10.8719 58.176 10.8719H55.235V14.8062H52.8217L52.8178 14.8023ZM55.2311 8.9009H57.2215C57.7104 8.9009 58.0945 8.87763 58.3778 8.83495C58.661 8.77675 58.8705 8.68362 59.0063 8.54782C59.1421 8.41202 59.2275 8.22191 59.2624 7.9736C59.309 7.72528 59.3284 7.40324 59.3284 7.00749C59.3284 6.61173 59.3051 6.28969 59.2624 6.04137C59.2275 5.79305 59.1421 5.59906 59.0063 5.46714C58.8821 5.3197 58.6843 5.22269 58.4127 5.18001C58.1411 5.12181 57.7686 5.09465 57.2914 5.09465H55.235V8.90867L55.2311 8.9009ZM69.0128 5.17226V14.8023H71.4261V5.17226H74.8094V3.13916H65.6294V5.17226H69.0128ZM92.5021 14.8023V3.14692H94.7641V14.8023H92.5021ZM96.5062 3.14692V14.8023H98.7527V11.3763H99.4666L101.93 14.8023H104.464L101.282 10.3093L104.41 6.15777H101.961L99.4627 9.56438H98.7488V3.14692H96.5023H96.5062ZM110.125 14.8023V7.96971H108.46V6.15777H110.125V3.64743H112.387V6.15777H114.358V7.96971H112.383V14.8023H110.121H110.125ZM105.306 14.8023V6.15777H107.568V14.8023H105.306ZM85.2233 14.8023C85.7238 14.8916 86.3446 14.9381 87.0934 14.9381C87.8422 14.9381 88.4591 14.8916 88.948 14.8023C89.4485 14.7131 89.8365 14.5657 90.1198 14.36C90.4147 14.1583 90.6242 13.8867 90.7483 13.5452C90.8841 13.2077 90.9695 12.7809 91.0044 12.2726C91.0509 11.7643 91.0704 11.159 91.0704 10.4607C91.0704 9.76226 91.0471 9.16086 91.0044 8.66423C90.9695 8.15595 90.8841 7.73304 90.7483 7.3916C90.6281 7.0618 90.4108 6.77468 90.1198 6.5768C89.8365 6.37505 89.4447 6.23149 88.948 6.15389C88.4591 6.06465 87.8422 6.01809 87.0934 6.01809C86.3446 6.01809 85.7238 6.06465 85.2233 6.15389C84.7227 6.23149 84.3347 6.37505 84.0515 6.5768C83.7683 6.78244 83.5471 7.06568 83.423 7.3916C83.2988 7.72916 83.2134 8.15595 83.1669 8.66423C83.1319 9.26174 83.1125 9.86314 83.1164 10.4607C83.1164 11.0659 83.1319 11.6712 83.1669 12.2726C83.2134 12.7809 83.2988 13.2038 83.423 13.5452C83.5588 13.8828 83.7683 14.1544 84.0515 14.36C84.3347 14.5618 84.7266 14.7092 85.2233 14.8023ZM88.0789 13.0408C87.8422 13.099 87.5124 13.1262 87.0934 13.1262C86.6744 13.1262 86.329 13.099 86.0885 13.0408C85.8518 12.9826 85.6811 12.8701 85.5802 12.7033C85.4793 12.5209 85.4172 12.2532 85.394 11.8885C85.3823 11.4151 85.3745 10.9379 85.3784 10.4645C85.3784 9.87865 85.3823 9.40919 85.394 9.05611C85.4172 8.69527 85.4793 8.42755 85.5802 8.26071C85.6811 8.07835 85.8518 7.96583 86.0885 7.92315C86.3252 7.86495 86.6627 7.83779 87.0934 7.83779C87.5241 7.83779 87.8422 7.86495 88.0789 7.92315C88.3272 7.96971 88.4979 8.08223 88.5872 8.26071C88.688 8.43143 88.7501 8.69527 88.7734 9.05611C88.7967 9.40531 88.8083 9.87477 88.8083 10.4645C88.8083 11.0543 88.7967 11.5276 88.7734 11.8885C88.7501 12.2493 88.688 12.5209 88.5872 12.7033C88.4979 12.874 88.3272 12.9865 88.0789 13.0408ZM78.0104 14.9381C77.2615 14.9381 76.6369 14.8916 76.1403 14.8023C75.6397 14.7131 75.2517 14.5657 74.9685 14.36C74.6853 14.1544 74.4641 13.8711 74.3399 13.5452C74.2158 13.2077 74.1304 12.7809 74.0838 12.2726C74.045 11.6673 74.0295 11.062 74.0334 10.4607C74.0334 9.75838 74.0489 9.16086 74.0838 8.66423C74.1304 8.15595 74.2158 7.73304 74.3399 7.3916C74.4757 7.05404 74.6853 6.78244 74.9685 6.5768C75.2517 6.37505 75.6436 6.23149 76.1403 6.15389C76.6369 6.06465 77.2615 6.01809 78.0104 6.01809C78.7592 6.01809 79.3761 6.06465 79.865 6.15389C80.3616 6.23149 80.7535 6.37505 81.0368 6.5768C81.3316 6.78244 81.5412 7.05016 81.6653 7.3916C81.8011 7.72916 81.8865 8.15595 81.9214 8.66423C81.968 9.16086 81.9912 9.75838 81.9912 10.4607C81.9912 11.1629 81.968 11.7643 81.9214 12.2726C81.8865 12.7809 81.8011 13.2038 81.6653 13.5452C81.545 13.875 81.3278 14.1621 81.0368 14.36C80.7535 14.5618 80.3616 14.7092 79.865 14.8023C79.3761 14.8916 78.7592 14.9381 78.0104 14.9381ZM78.0104 13.1223C78.4294 13.1223 78.7592 13.0951 78.9959 13.0369C79.2442 12.9787 79.4149 12.8662 79.508 12.6994C79.6089 12.517 79.671 12.2493 79.6943 11.8846C79.7176 11.5238 79.7292 11.0504 79.7292 10.4607C79.7292 9.8709 79.7176 9.4053 79.6943 9.05223C79.671 8.69139 79.6089 8.42366 79.508 8.25682C79.4188 8.07447 79.2481 7.96195 78.9959 7.91927C78.7592 7.86107 78.4294 7.83391 78.0104 7.83391C77.5913 7.83391 77.246 7.86107 77.0055 7.91927C76.7688 7.96583 76.5981 8.07835 76.4933 8.25682C76.3925 8.42754 76.3303 8.69139 76.3071 9.05223C76.2954 9.40142 76.2877 9.8709 76.2877 10.4607C76.2877 11.0504 76.2954 11.5238 76.3071 11.8846C76.3303 12.2454 76.3925 12.517 76.4933 12.6994C76.5942 12.8701 76.7649 12.9826 77.0055 13.0369C77.2422 13.0951 77.5758 13.1223 78.0104 13.1223Z" fill="white"/>
</g>
<defs>
<clipPath id="clip0_843_847">
<rect width="115" height="18" fill="white"/>
</clipPath>
</defs>
</svg>
