<?xml version="1.0" encoding="UTF-8" standalone="no"?>
<svg
   width="607.20776"
   height="148.66277"
   viewBox="0 0 607.20776 148.66276"
   fill="none"
   version="1.1"
   id="svg8"
   sodipodi:docname="logo-browserbase.svg"
   inkscape:version="1.3.2 (091e20ef0f, 2023-11-25, custom)"
   xmlns:inkscape="http://www.inkscape.org/namespaces/inkscape"
   xmlns:sodipodi="http://sodipodi.sourceforge.net/DTD/sodipodi-0.dtd"
   xmlns="http://www.w3.org/2000/svg"
   xmlns:svg="http://www.w3.org/2000/svg">
  <sodipodi:namedview
     id="namedview8"
     pagecolor="#ffffff"
     bordercolor="#666666"
     borderopacity="1.0"
     inkscape:showpageshadow="2"
     inkscape:pageopacity="0.0"
     inkscape:pagecheckerboard="0"
     inkscape:deskcolor="#d1d1d1"
     showgrid="false"
     inkscape:zoom="4"
     inkscape:cx="125.25"
     inkscape:cy="52.75"
     inkscape:window-width="2560"
     inkscape:window-height="1387"
     inkscape:window-x="0"
     inkscape:window-y="0"
     inkscape:window-maximized="0"
     inkscape:current-layer="svg8" />
  <rect
     style="display:none;fill:#000000;stroke-width:18.8976;stroke-linecap:round;paint-order:stroke fill markers"
     id="rect8"
     width="740"
     height="268"
     x="-64"
     y="-64"
     inkscape:label="bg" />
  <g
     id="g8"
     transform="translate(3.8023818,4.3313828)"
     inkscape:label="logo">
    <path
       d="m 177.04,57.272 h 18.936 c 4.464,0 7.896,0.336 10.296,1.008 2.448,0.624 4.176,1.656 5.184,3.096 1.008,1.392 1.512,3.36 1.512,5.904 v 5.76 c 0,1.296 -0.528,2.52 -1.584,3.672 -1.008,1.152 -2.208,1.944 -3.6,2.376 v 0.36 c 1.824,0.192 3.48,0.984 4.968,2.376 1.536,1.344 2.304,2.856 2.304,4.536 v 7.2 c 0,3.792 -1.512,6.48 -4.536,8.064 -3.024,1.584 -7.704,2.376 -14.04,2.376 h -19.44 z m 18.936,19.008 c 1.776,0 3.096,-0.144 3.96,-0.432 0.864,-0.288 1.44,-0.744 1.728,-1.368 0.336,-0.672 0.504,-1.632 0.504,-2.88 v -2.304 c 0,-1.104 -0.144,-1.92 -0.432,-2.448 -0.288,-0.576 -0.888,-0.984 -1.8,-1.224 -0.864,-0.24 -2.256,-0.36 -4.176,-0.36 h -7.488 V 76.28 Z m 0.288,19.728 c 2.736,0 4.68,-0.312 5.832,-0.936 1.152,-0.624 1.728,-1.632 1.728,-3.024 v -3.744 c 0,-1.728 -0.456,-2.952 -1.368,-3.672 -0.864,-0.72 -2.424,-1.08 -4.68,-1.08 h -9.504 v 12.456 z m 24.607,-26.856 h 10.008 v 6.12 c 0,-1.104 0.456,-2.184 1.368,-3.24 0.912,-1.056 2.064,-1.92 3.456,-2.592 1.44,-0.672 2.856,-1.008 4.248,-1.008 h 3.744 v 8.712 h -3.6 c -2.976,0 -5.184,0.456 -6.624,1.368 -1.392,0.912 -2.088,2.424 -2.088,4.536 V 104 h -10.512 z m 43.881,35.568 c -2.16,0 -3.936,-0.072 -5.328,-0.216 -1.392,-0.144 -2.88,-0.432 -4.464,-0.864 -1.728,-0.48 -3.12,-1.152 -4.176,-2.016 -1.056,-0.912 -1.944,-2.184 -2.664,-3.816 -0.72,-1.584 -1.08,-3.504 -1.08,-5.76 V 81.752 c 0,-2.304 0.36,-4.32 1.08,-6.048 0.72,-1.728 1.656,-3.072 2.808,-4.032 1.008,-0.816 2.328,-1.488 3.96,-2.016 1.68,-0.576 3.312,-0.936 4.896,-1.08 1.824,-0.096 3.48,-0.144 4.968,-0.144 2.208,0 3.96,0.072 5.256,0.216 1.344,0.096 2.808,0.384 4.392,0.864 1.728,0.528 3.12,1.248 4.176,2.16 1.104,0.912 2.04,2.208 2.808,3.888 0.72,1.728 1.08,3.792 1.08,6.192 v 10.296 c 0,2.16 -0.36,4.056 -1.08,5.688 -0.672,1.632 -1.56,2.904 -2.664,3.816 -0.96,0.816 -2.28,1.488 -3.96,2.016 -1.632,0.48 -3.24,0.792 -4.824,0.936 -1.44,0.144 -3.168,0.216 -5.184,0.216 z m 0,-6.552 c 1.968,0 3.456,-0.144 4.464,-0.432 1.008,-0.336 1.704,-0.84 2.088,-1.512 0.432,-0.672 0.648,-1.656 0.648,-2.952 V 80.096 c 0,-1.92 -0.504,-3.264 -1.512,-4.032 -1.008,-0.768 -2.904,-1.152 -5.688,-1.152 -2.784,0 -4.68,0.384 -5.688,1.152 -1.008,0.768 -1.512,2.112 -1.512,4.032 v 13.176 c 0,1.296 0.192,2.28 0.576,2.952 0.432,0.672 1.152,1.176 2.16,1.512 1.008,0.288 2.496,0.432 4.464,0.432 z m 20.434,-29.016 h 10.728 l 6.48,25.272 6.912,-25.272 h 10.296 l 7.2,25.272 6.192,-25.272 h 10.224 L 331.842,104 H 321.186 L 314.274,80.456 307.506,104 H 296.85 Z m 74.827,35.568 c -3.744,0 -8.328,-0.36 -13.752,-1.08 v -6.984 c 6.672,1.008 11.304,1.512 13.896,1.512 2.208,0 3.84,-0.216 4.896,-0.648 1.056,-0.432 1.584,-1.224 1.584,-2.376 v -2.16 c 0,-1.2 -0.336,-2.04 -1.008,-2.52 -0.672,-0.528 -1.992,-0.792 -3.96,-0.792 h -4.536 c -3.696,0 -6.552,-0.72 -8.568,-2.16 -2.016,-1.488 -3.024,-3.648 -3.024,-6.48 v -4.248 c 0,-3.024 1.44,-5.16 4.32,-6.408 2.88,-1.296 7.224,-1.944 13.032,-1.944 2.304,0 6.432,0.216 12.384,0.648 v 6.696 c -7.488,-0.576 -11.712,-0.864 -12.672,-0.864 -2.832,0 -4.68,0.192 -5.544,0.576 -0.768,0.432 -1.152,1.224 -1.152,2.376 v 1.872 c 0,0.624 0.312,1.176 0.936,1.656 0.624,0.432 1.536,0.648 2.736,0.648 h 4.608 c 8.544,0 12.816,2.784 12.816,8.352 v 4.392 c 0,1.68 -0.312,3.144 -0.936,4.392 -0.624,1.248 -1.44,2.232 -2.448,2.952 -0.96,0.672 -2.208,1.2 -3.744,1.584 -1.488,0.384 -3.048,0.648 -4.68,0.792 -1.488,0.144 -3.216,0.216 -5.184,0.216 z m 40.852,0 c -12.336,0 -18.504,-3.768 -18.504,-11.304 V 80.888 c 0,-4.368 1.392,-7.536 4.176,-9.504 2.832,-1.968 7.176,-2.952 13.032,-2.952 5.52,0 9.552,0.96 12.096,2.88 2.592,1.872 3.888,5.064 3.888,9.576 v 8.496 h -22.608 v 3.168 c 0,2.016 0.72,3.456 2.16,4.32 1.44,0.864 4.032,1.296 7.776,1.296 3.456,0 7.344,-0.504 11.664,-1.512 v 6.696 c -4.272,0.912 -8.832,1.368 -13.68,1.368 z m 4.68,-21.312 v -5.04 c 0,-1.152 -0.48,-2.016 -1.44,-2.592 -0.912,-0.576 -2.472,-0.864 -4.68,-0.864 -2.544,0 -4.248,0.288 -5.112,0.864 -0.912,0.624 -1.368,1.488 -1.368,2.592 v 5.04 z m 16.603,-14.256 h 10.008 v 6.12 c 0,-1.104 0.456,-2.184 1.368,-3.24 0.912,-1.056 2.064,-1.92 3.456,-2.592 1.44,-0.672 2.856,-1.008 4.248,-1.008 h 3.744 v 8.712 h -3.6 c -2.976,0 -5.184,0.456 -6.624,1.368 -1.392,0.912 -2.088,2.424 -2.088,4.536 V 104 h -10.512 z m 44.817,35.568 c -4.416,0 -7.92,-0.456 -10.512,-1.368 -2.544,-0.912 -4.368,-2.304 -5.472,-4.176 -1.104,-1.92 -1.656,-4.44 -1.656,-7.56 V 53.6 h 10.512 v 19.008 c 0.624,-1.584 1.776,-2.664 3.456,-3.24 1.68,-0.624 4.296,-0.936 7.848,-0.936 3.024,0 5.448,0.24 7.272,0.72 1.872,0.48 3.288,1.248 4.248,2.304 0.912,1.056 1.536,2.232 1.872,3.528 0.336,1.248 0.504,2.976 0.504,5.184 v 11.448 c 0,4.704 -1.416,8.064 -4.248,10.08 -2.832,2.016 -7.44,3.024 -13.824,3.024 z m 0.144,-6.552 c 2.064,0 3.624,-0.144 4.68,-0.432 1.056,-0.288 1.776,-0.792 2.16,-1.512 0.384,-0.72 0.576,-1.8 0.576,-3.24 V 80.096 c 0,-1.584 -0.168,-2.712 -0.504,-3.384 -0.336,-0.72 -1.008,-1.2 -2.016,-1.44 -1.008,-0.24 -2.664,-0.36 -4.968,-0.36 -1.968,0 -3.48,0.168 -4.536,0.504 -1.008,0.336 -1.704,0.864 -2.088,1.584 -0.384,0.72 -0.576,1.752 -0.576,3.096 v 12.888 c 0,1.44 0.168,2.52 0.504,3.24 0.384,0.72 1.08,1.224 2.088,1.512 1.056,0.288 2.616,0.432 4.68,0.432 z m 34.585,6.552 c -3.264,0 -5.712,-0.288 -7.344,-0.864 -1.584,-0.624 -2.712,-1.704 -3.384,-3.24 -0.624,-1.584 -0.936,-3.936 -0.936,-7.056 0,-2.784 0.336,-4.968 1.008,-6.552 0.72,-1.584 1.848,-2.712 3.384,-3.384 1.584,-0.72 3.744,-1.08 6.48,-1.08 h 11.808 v -2.376 c 0,-1.488 -0.216,-2.592 -0.648,-3.312 -0.384,-0.72 -1.128,-1.224 -2.232,-1.512 -1.056,-0.288 -2.664,-0.432 -4.824,-0.432 -2.976,0 -7.056,0.288 -12.24,0.864 v -6.624 c 3.792,-0.48 8.232,-0.72 13.32,-0.72 4.464,0 7.896,0.336 10.296,1.008 2.448,0.672 4.2,1.824 5.256,3.456 1.056,1.632 1.584,4.008 1.584,7.128 V 104 h -10.296 v -3.168 c -0.816,1.392 -1.92,2.376 -3.312,2.952 -1.392,0.624 -4.032,0.936 -7.92,0.936 z m 4.104,-6.552 c 2.112,0 3.624,-0.072 4.536,-0.216 0.672,-0.096 1.128,-0.24 1.368,-0.432 0.288,-0.192 0.528,-0.504 0.72,-0.936 0.192,-0.336 0.288,-0.84 0.288,-1.512 v -6.768 h -7.2 c -1.632,0 -2.784,0.12 -3.456,0.36 -0.672,0.192 -1.128,0.624 -1.368,1.296 -0.24,0.624 -0.36,1.752 -0.36,3.384 0,1.584 0.12,2.688 0.36,3.312 0.24,0.624 0.696,1.032 1.368,1.224 0.72,0.192 1.968,0.288 3.744,0.288 z m 38.265,6.552 c -3.744,0 -8.328,-0.36 -13.752,-1.08 v -6.984 c 6.672,1.008 11.304,1.512 13.896,1.512 2.208,0 3.84,-0.216 4.896,-0.648 1.056,-0.432 1.584,-1.224 1.584,-2.376 v -2.16 c 0,-1.2 -0.336,-2.04 -1.008,-2.52 -0.672,-0.528 -1.992,-0.792 -3.96,-0.792 h -4.536 c -3.696,0 -6.552,-0.72 -8.568,-2.16 -2.016,-1.488 -3.024,-3.648 -3.024,-6.48 v -4.248 c 0,-3.024 1.44,-5.16 4.32,-6.408 2.88,-1.296 7.224,-1.944 13.032,-1.944 2.304,0 6.432,0.216 12.384,0.648 v 6.696 c -7.488,-0.576 -11.712,-0.864 -12.672,-0.864 -2.832,0 -4.68,0.192 -5.544,0.576 -0.768,0.432 -1.152,1.224 -1.152,2.376 v 1.872 c 0,0.624 0.312,1.176 0.936,1.656 0.624,0.432 1.536,0.648 2.736,0.648 h 4.608 c 8.544,0 12.816,2.784 12.816,8.352 v 4.392 c 0,1.68 -0.312,3.144 -0.936,4.392 -0.624,1.248 -1.44,2.232 -2.448,2.952 -0.96,0.672 -2.208,1.2 -3.744,1.584 -1.488,0.384 -3.048,0.648 -4.68,0.792 -1.488,0.144 -3.216,0.216 -5.184,0.216 z m 40.852,0 c -12.336,0 -18.504,-3.768 -18.504,-11.304 V 80.888 c 0,-4.368 1.392,-7.536 4.176,-9.504 2.832,-1.968 7.176,-2.952 13.032,-2.952 5.52,0 9.552,0.96 12.096,2.88 2.592,1.872 3.888,5.064 3.888,9.576 v 8.496 h -22.608 v 3.168 c 0,2.016 0.72,3.456 2.16,4.32 1.44,0.864 4.032,1.296 7.776,1.296 3.456,0 7.344,-0.504 11.664,-1.512 v 6.696 c -4.272,0.912 -8.832,1.368 -13.68,1.368 z m 4.68,-21.312 v -5.04 c 0,-1.152 -0.48,-2.016 -1.44,-2.592 -0.912,-0.576 -2.472,-0.864 -4.68,-0.864 -2.544,0 -4.248,0.288 -5.112,0.864 -0.912,0.624 -1.368,1.488 -1.368,2.592 v 5.04 z"
       fill="#1E1C1C"
       id="path1"
       style="fill:#ffffff"
       inkscape:label="text" />
    <path
       id="rect2-5"
       style="display:inline;fill:#444444;fill-opacity:1"
       d="M 3.52575e-4,6.4845e-4 V 128.00065 l 16.000000425,12 H 144.00035 V 12.000648 l -16,-11.99999955 z"
       inkscape:label="front" />
    <path
       id="rect2"
       style="display:inline;fill:#555555;fill-opacity:1"
       d="M 3.52575e-4,6.4845e-4 V 128.00065 l 16.000000425,12 v -12 L 16,12 Z"
       sodipodi:nodetypes="cccccc"
       inkscape:label="left" />
    <path
       d="m 0,0 h 128 l 16,12 H 16 Z"
       fill="white"
       fill-opacity="0.4"
       id="path5"
       style="font-variation-settings:normal;display:inline;opacity:1;vector-effect:none;fill:#333333;fill-opacity:1;stroke-width:1;stroke-linecap:butt;stroke-linejoin:miter;stroke-miterlimit:4;stroke-dasharray:none;stroke-dashoffset:0;stroke-opacity:1;-inkscape-stroke:none;stop-color:#000000;stop-opacity:1"
       inkscape:label="top" />
    <path
       d="m 59,49 h 20.92 c 4.932,0 8.724,0.388 11.375,1.165 2.705,0.721 4.614,1.914 5.728,3.578 1.113,1.608 1.67,3.883 1.67,6.822 v 6.657 c 0,1.498 -0.583,2.912 -1.75,4.243 -1.113,1.332 -2.439,2.247 -3.977,2.746 v 0.416 c 2.015,0.222 3.845,1.137 5.489,2.746 1.697,1.553 2.545,3.3 2.545,5.242 v 8.32 c 0,4.382 -1.67,7.489 -5.011,9.319 C 92.648,102.085 87.477,103 80.477,103 H 59 Z m 20.92,21.966 c 1.963,0 3.421,-0.166 4.375,-0.499 0.955,-0.333 1.591,-0.86 1.91,-1.581 0.371,-0.777 0.556,-1.886 0.556,-3.328 v -2.663 c 0,-1.276 -0.159,-2.219 -0.477,-2.829 -0.318,-0.665 -0.981,-1.137 -1.989,-1.414 -0.954,-0.278 -2.492,-0.416 -4.613,-0.416 h -8.273 v 12.73 z m 0.319,22.798 c 3.022,0 5.17,-0.36 6.443,-1.081 1.273,-0.722 1.909,-1.886 1.909,-3.495 v -4.327 c 0,-1.997 -0.504,-3.411 -1.511,-4.243 -0.955,-0.832 -2.678,-1.248 -5.171,-1.248 h -10.5 v 14.394 z"
       fill="#ffffff"
       id="path3"
       inkscape:label="b" />
  </g>
  <defs
     id="defs8">
    <linearGradient
       id="paint0_linear_163_808"
       x1="144"
       y1="76"
       x2="144"
       y2="204"
       gradientUnits="userSpaceOnUse">
      <stop
         stop-color="#F21923"
         id="stop7"
         offset="0"
         style="stop-color:#000000;stop-opacity:1;" />
      <stop
         offset="1"
         stop-color="#F21923"
         id="stop8" />
    </linearGradient>
  </defs>
</svg>
