<?xml version="1.0" encoding="utf-8"?>
<!-- Generator: Adobe Illustrator 27.4.1, SVG Export Plug-In . SVG Version: 6.00 Build 0)  -->
<svg version="1.1" xmlns="http://www.w3.org/2000/svg" xmlns:xlink="http://www.w3.org/1999/xlink" x="0px" y="0px"
	 viewBox="0 0 874.4 430.6" style="enable-background:new 0 0 874.4 430.6;" xml:space="preserve">
<style type="text/css">
	.st0{fill-rule:evenodd;clip-rule:evenodd;fill:#FFFFFF;}
	.st1{fill-rule:evenodd;clip-rule:evenodd;fill:#2DDE74;}
	.st2{fill:#FFFFFF;}
</style>
<g id="Layer_1">
	<path d="M867.5,335.9c3.2-7,4.9-14.7,4.9-22.8v-14.7c0-5.6-0.8-11-2.4-16.1c0.7-3.4,1-7,1-10.6v-14.5c0-8.4-1.9-16.3-5.2-23.4
		c3.1-6.9,4.8-14.5,4.8-22.5v-14.5c0-4.2-0.5-8.3-1.4-12.3c1.2-4.5,1.9-9.3,1.9-14.2V56.9c0-30.4-24.6-55-55-55H791
		c-5.2,0-10.2,0.7-15,2.1c-4.8-1.3-9.8-2.1-14.9-2.1h-34.1c-3.1,0-6.1,0.3-9,0.8c-2.9-0.5-6-0.8-9-0.8h-83.9
		c-8.3,0-16.1,1.8-23.2,5.1c-10.7-3.4-22.3-5.1-34.5-5.1h-18.3h-7.6h-19.2c-8.4,0-16.3,1.9-23.4,5.2c-12.1-4.8-25.1-7.2-39-7.2
		c-20.2,0-38.8,5.1-55.1,15.1c-0.1,0.1-0.2,0.1-0.3,0.2c-5,3.1-9.7,6.7-14.1,10.6c-16.9-15.6-38.7-24.2-61.7-24.2H102.4
		c-23.5,0-45.8,8.9-62.8,25.2c-17,16.2-27,38.1-28.1,61.6l-11.4,246c-1.1,24.7,8,49.2,25.1,67c17.1,17.9,41.1,28.2,65.8,28.2h249.2
		c14.4,0,28.6-3.5,41.3-10c8.8,6,19.5,9.5,30.9,9.5h18c9.4,0,18.3-2.4,26-6.5c7.8,4.2,16.6,6.5,26,6.5h54.7c2,0,3.9-0.1,5.8-0.3
		c1.9,0.2,3.9,0.3,5.8,0.3h56.7c2,0,4-0.1,6-0.3c2,0.2,4,0.3,6,0.3h25.6c12.5,0,24.4-2.1,35.2-6.3c0.1-0.1,0.3-0.1,0.4-0.2
		c0.4-0.2,0.9-0.4,1.3-0.6c11.6,5.5,24.5,8.4,37.9,8.4c9.8,0,19-1.2,27.6-3.6c5,1.5,10.2,2.3,15.6,2.3h56.7c30.4,0,55-24.6,55-55
		v-14.7C872.9,351.1,871,343.1,867.5,335.9z"/>
</g>
<g id="Layer_2">
	<g>
		<path class="st0" d="M102.4,56.8c-19.2,0-35.1,15.1-35.9,34.3L55,337.1c-1,20.5,15.4,37.7,35.9,37.7h249.2
			c20.5,0,36.9-17.1,35.9-37.7l-11.4-246c-0.9-19.2-16.7-34.3-35.9-34.3H102.4z M128.5,67.2c-23.9,0-43.2,19.3-43.2,43.2v174
			c0,23.9,19.3,43.2,43.2,43.2h174c23.9,0,43.2-19.3,43.2-43.2v-174c0-23.9-19.3-43.2-43.2-43.2H128.5z"/>
	</g>
	<g>
		<polygon class="st0" points="184.3,113.9 291.2,174.3 203.3,174.3 139.4,174.3 139.4,149.2 195.4,149.2 		"/>
	</g>
	<g>
		<polygon class="st1" points="246.4,269.8 139.4,209.4 227.3,209.4 291.2,209.4 291.2,234.5 235.2,234.5 		"/>
	</g>
	<g>
		<g>
			<path class="st2" d="M525.5,200.1c-4.9-3.1-10.7-4.6-17.3-4.6c-6.6,0-12.4,1.5-17.4,4.6c-4.9,3.1-8.8,7.5-11.6,13.3
				c-2.7,5.8-4.1,12.7-4.1,20.8c0,8,1.4,14.9,4.1,20.7c2.8,5.8,6.7,10.3,11.6,13.4c5,3.1,10.8,4.6,17.4,4.6c6.6,0,12.3-1.5,17.3-4.6
				c4.9-3.1,8.8-7.6,11.5-13.4c2.8-5.8,4.2-12.7,4.2-20.7c0-8.2-1.4-15.1-4.2-20.8C534.3,207.6,530.4,203.1,525.5,200.1z M521,247.4
				c-1.3,3.6-3,6.3-5.3,8.3c-2.2,1.9-4.7,2.8-7.5,2.8c-2.8,0-5.3-0.9-7.6-2.8c-2.2-1.9-4-4.7-5.3-8.3c-1.3-3.6-1.9-8-1.9-13.2
				c0-5.2,0.6-9.5,1.9-13.1c1.3-3.6,3-6.4,5.3-8.3c2.3-1.9,4.8-2.9,7.6-2.9c2.8,0,5.3,0.9,7.5,2.8c2.2,1.9,4,4.6,5.3,8.3
				c1.3,3.6,1.9,8,1.9,13.2C522.9,239.3,522.3,243.7,521,247.4z"/>
		</g>
		<g>
			<path class="st2" d="M422.9,269.5c4.4,2.3,9.7,3.4,15.9,3.4c5.6,0,10.5-1,14.8-2.9c4.4-1.9,7.8-4.6,10.2-7.9
				c2.5-3.4,3.8-7.3,3.8-11.7s-0.7-7.9-2.1-10.7c-1.4-2.9-3.2-5.1-5.6-6.9c-2.3-1.7-4.8-3-7.6-4c-2.7-1-5.5-1.8-8.3-2.5
				c-2.7-0.6-5.3-1.3-7.6-1.9c-2.3-0.7-4.1-1.6-5.6-2.7c-1.4-1.1-2-2.5-2-4.4c0-2.4,0.9-4.3,2.8-5.5c1.9-1.3,4.1-1.9,6.8-1.9
				c1.9,0,3.6,0.4,5.3,1.2c1.7,0.8,3.1,2,4.2,3.5c1.1,1.6,1.8,3.6,1.9,6h17.7c-0.1-5.4-1.6-10-4.3-13.7c-2.7-3.7-6.3-6.5-10.6-8.5
				c-4.4-2-9.1-3-14.2-3c-5.6,0-10.4,1-14.6,3c-4.1,2-7.4,4.7-9.8,8c-2.3,3.4-3.4,7.2-3.4,11.4c0,4.1,0.7,7.4,2,10.1
				c1.4,2.6,3.3,4.8,5.6,6.4c2.4,1.6,4.9,3,7.6,4c2.8,1,5.5,1.9,8.3,2.6c2.8,0.6,5.3,1.4,7.6,2.1c2.4,0.7,4.2,1.6,5.6,2.8
				c1.4,1.1,2.1,2.6,2.1,4.5c0,2.6-1,4.6-2.9,6c-1.9,1.4-4.4,2-7.6,2c-4.1,0-7.1-1.2-9.1-3.5c-1.9-2.4-2.9-5.9-2.9-10.4h-17.4
				c0,5.8,1.1,10.8,3.4,15.1C415.1,263.8,418.5,267.1,422.9,269.5z"/>
		</g>
		<g>
			<path class="st2" d="M728.6,252.8c-1.1,1.9-2.5,3.3-4.3,4.3c-1.7,0.9-3.8,1.4-6.1,1.4c-2.8,0-5.3-0.9-7.5-2.8
				c-2.1-1.9-3.9-4.6-5.2-8.2c-1.3-3.6-1.9-8.1-1.9-13.3c0-5.3,0.6-9.7,1.9-13.3c1.4-3.6,3.2-6.4,5.5-8.2c2.4-1.9,5-2.8,7.8-2.8
				c3.4,0,6,1.1,7.9,3.3c1.9,2.1,3.1,5,3.4,8.7h19.3c-0.3-5.7-1.9-10.4-4.8-14.4c-2.9-3.9-6.5-6.9-11.1-9c-4.5-2.1-9.4-3.1-14.8-3.1
				c-6.9,0-12.8,1.6-17.8,4.8c-5,3.1-8.9,7.6-11.6,13.4c-2.7,5.8-4.1,12.6-4.1,20.5c0,7.8,1.3,14.6,4,20.5
				c2.7,5.8,6.5,10.3,11.4,13.5c4.9,3.1,10.8,4.7,17.5,4.7c6.2,0,11.6-1.1,16.1-3.2c4.5-2.2,8.1-5.3,10.7-9.3
				c2.7-4.1,4.4-8.9,4.9-14.4h-19.3C730.5,248.6,729.8,250.9,728.6,252.8z"/>
		</g>
		<g>
			<polygon class="st2" points="816.1,257.2 777.9,257.2 777.9,240.2 802.3,240.2 802.3,225.7 777.9,225.7 777.9,211.2 815.7,211.2 
				815.7,196.7 760.2,196.7 760.2,271.6 816.1,271.6 			"/>
		</g>
		<g>
			<path class="st2" d="M591,244.8c0,2.8-0.5,5.2-1.6,7.2c-1.1,2-2.6,3.6-4.5,4.7c-1.9,1.1-4.3,1.6-7,1.6c-2.6,0-5-0.5-7-1.6
				c-1.9-1.1-3.4-2.7-4.5-4.7s-1.6-4.4-1.6-7.2v-48.1h-17.7v48.1c0,5.7,1.2,10.6,3.6,14.8c2.4,4.2,5.9,7.5,10.5,9.9
				c4.6,2.3,10.1,3.4,16.6,3.4s12.1-1.1,16.6-3.4c4.6-2.4,8.1-5.7,10.5-9.9s3.6-9.2,3.6-14.8v-48.1H591V244.8z"/>
		</g>
		<g>
			<path class="st2" d="M637.2,243.6h6.9c0.5,0.3,0.9,0.6,1.4,1c3.2,2.4,5.9,5.2,8,8.2c2.2,2.9,3.9,6,5,9.3c1.1,3.2,1.7,6.4,1.7,9.6
				h18.2c0-3.3-0.5-6.7-1.5-10.1c-1-3.5-2.5-6.9-4.6-10.2c-2-3.3-4.5-6.4-7.6-9.2c-0.6-0.5-1.2-1-1.8-1.6c2.7-1.2,5-2.7,7-4.4
				c2.6-2.3,4.7-4.8,6-7.6c1.4-2.9,2.1-5.8,2.1-8.7c0-4.9-1.2-9-3.5-12.4c-2.4-3.4-5.7-6-9.9-7.8c-4.1-1.9-8.9-2.8-14.4-2.8h-13.1
				h-4.9h-12.8v74.9h17.7V243.6z M650.3,211.2c1.9,0,3.5,0.4,4.9,1.1c1.4,0.7,2.5,1.7,3.3,3c0.9,1.3,1.3,2.8,1.3,4.5
				c0,1.8-0.5,3.4-1.4,4.8c-0.9,1.4-2.1,2.5-3.8,3.3c-1.6,0.8-3.4,1.2-5.6,1.2h-11.9v-17.9H650.3z"/>
		</g>
		<g>
			<polygon class="st2" points="779.2,359.6 779.2,342.4 803.9,342.4 803.9,327.7 779.2,327.7 779.2,313 817.5,313 817.5,298.3 
				761.2,298.3 761.2,374.3 817.9,374.3 817.9,359.6 			"/>
		</g>
		<g>
			<path class="st2" d="M458.4,301.5c-4.5-2.1-9.8-3.2-15.8-3.2h-12.3h-5.1h-12.8v76h18v-23.8h12.3c6.1,0,11.4-1.1,15.8-3.3
				c4.5-2.2,8-5.2,10.4-9.1c2.5-4,3.7-8.6,3.7-13.9c0-5.2-1.2-9.8-3.7-13.6C466.4,306.6,462.9,303.6,458.4,301.5z M450.9,332.6
				c-2.1,2.1-4.9,3.2-8.4,3.2h-12.2V313h12.2c3.5,0,6.3,1,8.4,3c2.1,2,3.2,4.7,3.2,8.1C454.1,327.6,453,330.4,450.9,332.6z"/>
		</g>
		<g>
			<path class="st2" d="M710.7,314.7c2.4-2,5.1-2.9,8.2-2.9c3.3,0,5.8,1.2,7.7,3.5c2,2.3,3.1,5.2,3.4,8.6h19.7
				c-0.3-5.7-1.9-10.6-4.8-14.6c-2.9-4-6.6-7-11.1-9c-4.4-2.1-9.3-3.2-14.5-3.2c-7.2,0-13.4,1.6-18.6,4.9
				c-5.2,3.3-9.1,7.9-11.9,13.8c-2.8,5.9-4.1,12.7-4.1,20.6c0,7.8,1.4,14.7,4.1,20.6c2.8,5.9,6.6,10.5,11.5,13.8
				c5,3.3,10.9,4.9,17.6,4.9c7.5,0,13.8-1.3,18.9-3.8c5.2-2.5,9.5-6,12.7-10.4v-28h-27.2l-0.5,14.9l10.1-0.5v8.6
				c-1.7,1.5-3.6,2.7-5.4,3.5c-1.9,0.7-4.2,1.1-6.9,1.1c-3.3,0-6.2-0.9-8.7-2.8c-2.5-2-4.4-4.8-5.8-8.4c-1.4-3.7-2.1-8.2-2.1-13.4
				c0-5.3,0.7-9.8,2-13.4C706.5,319.3,708.4,316.6,710.7,314.7z"/>
		</g>
		<g>
			<path class="st2" d="M670.1,308.7c-3.2-3.3-7.1-5.9-11.6-7.6c-4.5-1.8-9.6-2.7-15.3-2.7h-25.6v76h25.6c5.7,0,10.8-0.9,15.3-2.6
				c4.6-1.8,8.5-4.4,11.6-7.7c3.2-3.4,5.6-7.4,7.3-12.1c1.7-4.7,2.5-10,2.5-15.8c0-5.7-0.8-10.9-2.5-15.6
				C675.8,315.9,673.3,311.9,670.1,308.7z M659.3,348.5c-1.4,3.6-3.4,6.3-6.2,8.3c-2.7,1.9-6,2.8-9.9,2.8h-7.6V313h7.6
				c3.9,0,7.2,0.9,9.9,2.8c2.8,1.9,4.8,4.6,6.2,8.1c1.5,3.4,2.2,7.5,2.2,12.2C661.4,340.8,660.7,345,659.3,348.5z"/>
		</g>
		<g>
			<polygon class="st2" points="500.4,298.3 482.4,298.3 482.4,374.3 537.2,374.3 537.2,359.6 500.4,359.6 			"/>
		</g>
		<g>
			<polygon class="st2" points="566.8,342.4 591.5,342.4 591.5,327.7 566.8,327.7 566.8,313 605.1,313 605.1,298.3 548.9,298.3 
				548.9,374.3 605.6,374.3 605.6,359.6 566.8,359.6 			"/>
		</g>
		<g>
			<polygon class="st2" points="709.6,148.3 651.9,148.3 651.9,122.7 688.7,122.7 688.7,100.8 651.9,100.8 651.9,78.9 709,78.9 
				709,56.9 625.1,56.9 625.1,170.2 709.6,170.2 			"/>
		</g>
		<g>
			<path class="st2" d="M590.9,61.7c-6.7-3.1-14.6-4.7-23.5-4.7h-18.3h-7.6h-19.2v113.3h26.8v-35.5h18.3c9.1,0,16.9-1.6,23.5-4.9
				c6.7-3.2,11.9-7.8,15.6-13.6c3.7-6,5.5-12.9,5.5-20.8c0-7.8-1.8-14.6-5.5-20.3C602.8,69.3,597.7,64.8,590.9,61.7z M579.7,108.1
				c-3.1,3.1-7.3,4.7-12.5,4.7h-18.2V78.9h18.2c5.2,0,9.4,1.5,12.5,4.5s4.7,7,4.7,12C584.4,100.6,582.9,104.8,579.7,108.1z"/>
		</g>
		<g>
			<path class="st2" d="M433.6,165.2c7.6,4.7,16.3,7,26.3,7c10,0,18.7-2.3,26.1-7c7.5-4.8,13.3-11.5,17.4-20.3
				c4.2-8.8,6.3-19.2,6.3-31.3c0-12.3-2.1-22.8-6.3-31.5c-4.1-8.8-9.9-15.5-17.4-20.1c-7.5-4.7-16.2-7-26.1-7c-10,0-18.7,2.3-26.3,7
				c-7.5,4.7-13.3,11.4-17.5,20.1c-4.1,8.8-6.2,19.3-6.2,31.5c0,12.1,2.1,22.6,6.2,31.3C420.3,153.7,426.1,160.4,433.6,165.2z
				 M440.4,93.8c1.9-5.5,4.6-9.7,8-12.5c3.5-2.9,7.3-4.4,11.5-4.4c4.2,0,8,1.4,11.4,4.2c3.4,2.8,6,7,8,12.5c1.9,5.4,2.9,12.1,2.9,20
				c0,7.8-1,14.4-2.9,20c-1.9,5.4-4.6,9.6-8,12.5c-3.4,2.8-7.1,4.2-11.4,4.2c-4.2,0-8.1-1.4-11.5-4.2c-3.4-2.9-6-7.1-8-12.5
				c-1.9-5.5-2.9-12.2-2.9-20S438.5,99.2,440.4,93.8z"/>
		</g>
		<g>
			<polygon class="st2" points="782.1,170.2 816.2,170.2 816.2,56.9 791,56.9 791,95.9 792.8,137.1 761.2,56.9 727.1,56.9 
				727.1,170.2 752.2,170.2 752.2,131.3 750.1,91.5 			"/>
		</g>
	</g>
</g>
</svg>
