<?xml version="1.0" encoding="UTF-8"?>
<svg width="388.67" height="151.33" data-name="Layer 2" version="1.1" viewBox="0 0 388.67 151.33" xmlns="http://www.w3.org/2000/svg"><defs><style>.cls-1 {
        fill: #ffffff;
      }</style></defs><path class="cls-1" d="m42.561 56.902c-10.08-7.62-20.29-13.53-20.29-22.13 0-5.16 4.55-10.45 10.82-10.45 11.31 0 17.95 11.8 24.47 26.56h4.06v-33.94h-28.28c-23.36 0-30.25 14.14-30.25 25.21 0 14.51 11.93 23.12 25.45 33.2 9.47 7.01 17.46 13.53 17.46 21.03 0 8.12-5.53 12.79-12.54 12.79-7.5 0-18.57-9.84-26.31-30.25h-4.06v37.63h32.34c19.92 0 29.88-15.74 30.25-28.41 0.49-14.76-12.17-22.99-23.12-31.23z"/><path class="cls-1" d="m130.6 104.86v-39.72c0-17.22-10.7-21.76-26.19-21.76h-27.54l0.12 28.04h4.55c4.8-11.93 11.68-20.66 19.06-20.66 6.39 0 9.22 5.53 9.22 11.31v5.41c-10.33 6.15-37.87 11.31-37.87 30 0 10.82 7.5 19.8 18.44 19.8 9.47 0 15.99-6.15 19.31-13.4 0.61 6.03 4.55 12.67 13.53 12.67h14.14v-5.41c-4.55 0-6.76-3.07-6.76-6.27zm-21.15-6.15c-1.97 2.83-5.04 6.03-8.73 6.03-5.16 0-8.48-3.93-8.48-11.8 0-8.98 12.05-14.76 17.22-19.06v24.84z"/><path class="cls-1" d="m240.65 35.752c7.87 0 12.79-5.53 12.79-12.67s-4.92-12.42-12.79-12.42-12.91 5.29-12.91 12.42 5.29 12.67 12.91 12.67z"/><path class="cls-1" d="m362.88 43.372v5.41c7.75 0 9.96 4.06 6.15 15l-9.22 24.96-11.8-30.37c-2.71-5.9-1.23-9.59 4.43-9.59v-5.41h-58.65v-24.59h-5.53c-1.6 8.36-10.33 24.59-25.21 24.59v5.41h9.59v50.54c0 8.48 2.83 18.08 19.31 18.08h25.58v-27.79h-4.55c-1.84 6.52-5.66 19.55-13.9 19.55-4.55 0-5.29-5.04-5.29-9.1v-48.94h23.49c2.83 0 5.78 0.37 7.25 3.81l24.96 61.73c-4.8 10.94-13.03 12.67-27.79 8.12v21.64c3.81 0 13.65 0.12 15.37-0.37 9.71-2.83 16.35-21.89 19.06-29.27l21.15-57.18c2.34-6.27 4.3-10.82 8.36-10.82v-5.41h-22.75z"/><path class="cls-1" d="m212.12 104.86v-41.93c0-13.16-6.27-21.03-18.69-21.03-10.94 0-17.28 7.59-22.13 14.65v-13.17h-28.04v5.41c4.8 0 6.89 2.95 6.89 6.39v49.68c0 3.32-2.46 6.27-6.89 6.27v5.41h34.92v-5.41c-4.43 0-6.89-2.95-6.89-6.27v-41.6c2.83-3.77 6.1-7.83 11.56-7.83 5.16 0 8.12 4.18 8.12 9.22v40.21c0 3.32-2.46 6.27-6.89 6.27v5.41h34.92v-5.41c-4.43 0-6.89-2.95-6.89-6.27z"/><path class="cls-1" d="m252.95 104.86v-61.48h-28.04v5.41c4.8 0 6.89 2.95 6.89 6.39v49.68c0 3.32-2.46 6.27-6.89 6.27v5.41h34.92v-5.41c-4.43 0-6.89-2.95-6.89-6.27z"/></svg>
