<?xml version="1.0" encoding="UTF-8" standalone="no"?>
<svg
   width="352"
   height="100"
   viewBox="0 0 352 100"
   fill="none"
   version="1.1"
   id="svg16"
   sodipodi:docname="sanity-horizontal-white-on-transparent.svg"
   inkscape:version="1.4 (e7c3feb100, 2024-10-09)"
   xmlns:inkscape="http://www.inkscape.org/namespaces/inkscape"
   xmlns:sodipodi="http://sodipodi.sourceforge.net/DTD/sodipodi-0.dtd"
   xmlns="http://www.w3.org/2000/svg"
   xmlns:svg="http://www.w3.org/2000/svg">
  <defs
     id="defs16" />
  <sodipodi:namedview
     id="namedview16"
     pagecolor="#000000"
     bordercolor="#666666"
     borderopacity="1.0"
     inkscape:showpageshadow="2"
     inkscape:pageopacity="0.0"
     inkscape:pagecheckerboard="0"
     inkscape:deskcolor="#d1d1d1"
     inkscape:zoom="6.1363636"
     inkscape:cx="182.35556"
     inkscape:cy="35.444444"
     inkscape:window-width="3840"
     inkscape:window-height="2127"
     inkscape:window-x="0"
     inkscape:window-y="0"
     inkscape:window-maximized="0"
     inkscape:current-layer="svg16" />
  <path
     d="M 327.17916,58.09657 V 83.579575 H 313.03052 V 58.09657"
     fill="#f9b1ab"
     id="path1"
     style="stroke-width:1;fill:#aaaaaa;fill-opacity:1" />
  <path
     d="m 313.03052,58.09657 23.9411,-41.672855 h 15.02839 L 327.17916,58.09657 Z"
     fill="#ffffff"
     id="path2"
     style="stroke-width:1" />
  <path
     d="M 313.03052,58.096682 288.42457,16.423715 h 15.47945 l 16.67035,28.557406 z"
     fill="#f9b1ab"
     id="path3"
     style="stroke-width:1;fill:#aaaaaa;fill-opacity:1" />
  <path
     d="M 263.04409,39.88443 V 83.579687 H 248.68167 V 47.34434 Z"
     fill="#f9b1ab"
     id="path4"
     style="stroke-width:1;fill:#aaaaaa;fill-opacity:1" />
  <path
     d="M 248.68167,47.307292 285.09251,28.674308 278.94103,18.270617 248.68167,33.057802 Z"
     fill="#f68b82"
     id="path5"
     style="stroke-width:1;fill:#666666;fill-opacity:1" />
  <path
     d="M 248.68167,28.674308 H 226.74069 V 16.423715 h 51.1057 l 7.24612,12.250593 h -22.04842 z"
     fill="#ffffff"
     id="path6"
     style="stroke-width:1" />
  <path
     d="m 218.50625,16.423715 h -14.25498 v 67.167613 h 14.25498 z"
     fill="#ffffff"
     id="path7"
     style="stroke-width:1" />
  <path
     d="M 146.13785,36.424443 V 83.579687 H 132.44139 V 16.423715 Z"
     fill="#f9b1ab"
     id="path8"
     style="stroke-width:1;fill:#aaaaaa;fill-opacity:1" />
  <path
     d="m 148.25551,16.423715 30.1631,45.881184 V 83.579687 L 132.44139,16.423715 Z"
     fill="#ffffff"
     id="path9"
     style="stroke-width:1" />
  <path
     d="M 178.41861,58.85644 V 16.423715 h 13.69646 v 67.155972 h -13.69646 z"
     fill="#f9b1ab"
     id="path10"
     style="stroke-width:1;fill:#aaaaaa;fill-opacity:1" />
  <path
     d="M 70.841236,84.678471 104.40266,67.130504 100.26473,56.41353 78.169631,66.717382 Z"
     fill="#f68b82"
     id="path11"
     style="stroke-width:1;fill:#666666;fill-opacity:1" />
  <path
     d="M 91.592655,33.817672 70.841124,84.678471 60.167801,75.490527 84.893623,16.423715 Z"
     fill="#f9b1ab"
     id="path12"
     style="stroke-width:1;fill:#aaaaaa;fill-opacity:1" />
  <path
     d="M 84.893847,16.423715 H 99.041371 L 125.20758,83.579687 H 110.72651 Z"
     fill="#ffffff"
     id="path13"
     style="stroke-width:1" />
  <path
     d="m 7.0630972,24.17385 c 0,9.351581 5.8780498,14.915789 17.6460148,17.849834 l 12.470081,2.840585 c 11.13737,2.513201 17.919676,8.755348 17.919676,18.925225 0.08663,4.430503 -1.379496,8.755572 -4.152702,12.25048 0,-10.146372 -5.342593,-15.628761 -18.229041,-18.925224 L 20.473137,54.379487 C 10.668477,52.181808 3.1007829,47.050196 3.1007829,36.003599 3.0491847,31.737739 4.4431188,27.576196 7.0630972,24.17385"
     fill="#ffffff"
     id="path14"
     style="stroke-width:1" />
  <path
     d="m 43.283335,61.299574 c 5.318865,3.343249 7.650968,8.018983 7.650968,14.72876 -4.402522,5.540815 -12.136875,8.650137 -21.227555,8.650137 -15.301936,0 -26.0109632,-7.399357 -28.390747,-20.257823 h 14.69507 c 1.892007,5.903234 6.901395,8.638497 13.588563,8.638497 8.162585,0 13.588563,-4.278283 13.695565,-11.782963"
     fill="#f9b1ab"
     id="path15"
     style="stroke-width:1;fill:#aaaaaa;fill-opacity:1" />
  <path
     d="M 14.702201,38.037529 C 12.273393,36.619531 10.280876,34.581907 8.9358534,32.141011 7.5908312,29.700115 6.9437834,26.946944 7.0630972,24.17385 11.311048,18.67982 18.70022,15.324932 27.707738,15.324932 c 15.587461,0 24.606844,8.08916 26.831945,19.474672 H 40.403799 c -1.558802,-4.488817 -5.461572,-7.98395 -12.577083,-7.98395 -7.603399,0 -12.79131,4.348573 -13.088811,11.221875"
     fill="#f9b1ab"
     id="path16"
     style="stroke-width:1;fill:#aaaaaa;fill-opacity:1" />
</svg>
