<?xml version="1.0" encoding="UTF-8"?>
<svg viewBox="0 0 294.74 36.25" xmlns="http://www.w3.org/2000/svg"><defs><style>.cls-1{fill:#fff;stroke-width:0px;}</style></defs><path class="cls-1" d="M55.87,25.92h-3.05v-15.64h4.57c2.04,0,3.14.33,4.1,1.2,1.03.91,1.62,2.27,1.62,3.78,0,1.34-.47,2.63-1.29,3.49-.87.94-2.13,1.38-3.99,1.38h-1.97v5.79ZM57.11,17.48c1.9,0,2.86-.77,2.86-2.25,0-.73-.3-1.43-.8-1.81-.47-.35-1.13-.49-2.25-.49h-1.06v4.55h1.24Z"/><path class="cls-1" d="M78.94,25.92h-3.75l-4.22-6.28h-.4v6.28h-3.05v-15.64h4.52c1.74,0,3.1.37,4.01,1.1.94.77,1.52,2.11,1.52,3.52,0,2.42-1.24,3.96-3.56,4.43l4.92,6.59ZM71.46,17.48c1.95,0,2.98-.82,2.98-2.39s-.98-2.34-2.93-2.34h-.94v4.74h.89Z"/><path class="cls-1" d="m86.22 25.92h-3.05v-15.64h3.05v15.64z"/><path class="cls-1" d="m97.75 20.79 4.22-10.5h3.31l-6.75 16.04h-1.64l-6.64-16.04h3.33l4.17 10.5z"/><path class="cls-1" d="m110.88 22.61-1.41 3.31h-3.24l6.78-15.97h2.3l6.56 15.97h-3.26l-1.34-3.31h-6.4zm3.26-8.08-2.27 5.63h4.45l-2.18-5.63z"/><path class="cls-1" d="m126.84 25.92v-12.99h-3.49v-2.65h10.06v2.65h-3.52v12.99h-3.05z"/><path class="cls-1" d="m140.59 12.93v3.47h5.39v2.65h-5.39v4.22h5.6v2.65h-8.65v-15.64h8.65v2.65h-5.6z"/><path class="cls-1" d="M162.74,25.92h-3.05v-15.64h4.57c2.04,0,3.14.33,4.1,1.2,1.03.91,1.62,2.27,1.62,3.78,0,1.34-.47,2.63-1.29,3.49-.87.94-2.13,1.38-3.99,1.38h-1.97v5.79ZM163.99,17.48c1.9,0,2.86-.77,2.86-2.25,0-.73-.3-1.43-.8-1.81-.47-.35-1.13-.49-2.25-.49h-1.06v4.55h1.24Z"/><path class="cls-1" d="m176.26 22.61-1.41 3.31h-3.24l6.78-15.97h2.3l6.56 15.97h-3.26l-1.34-3.31h-6.4zm3.25-8.08-2.27 5.63h4.45l-2.18-5.63z"/><path class="cls-1" d="M201.9,14.48c-1.27-1.27-2.34-1.76-3.82-1.76-2.91,0-5.11,2.34-5.11,5.44s2.18,5.32,5.18,5.32c1.5,0,2.51-.47,3.75-1.71v3.59c-1.41.66-2.49.91-3.85.91-4.6,0-8.23-3.56-8.23-8.09s3.66-8.25,8.25-8.25c1.41,0,2.46.26,3.82.96v3.59Z"/><path class="cls-1" d="M216.1,10.28h3.85l-6.61,7.22,6.96,8.42h-4.01l-5.56-7.03-.38.37v6.66h-3.05v-15.64h3.05v6.61l5.74-6.61Z"/><path class="cls-1" d="m228.21 22.61-1.41 3.31h-3.24l6.78-15.97h2.3l6.56 15.97h-3.26l-1.34-3.31h-6.4zm3.26-8.08-2.27 5.63h4.45l-2.18-5.63z"/><path class="cls-1" d="M257.61,17.55c-.02,2.46-.23,3.56-.89,4.83-1.34,2.53-3.68,3.89-6.73,3.89-4.78,0-8.21-3.38-8.21-8.09s3.47-8.25,8.28-8.25c2.95,0,5.25,1.27,6.73,3.68l-2.67,1.43c-.94-1.55-2.3-2.32-4.08-2.32-2.95,0-5.11,2.3-5.11,5.46s2.16,5.32,5.11,5.32c2.23,0,3.87-1.31,4.1-3.31h-3.68v-2.65h7.15Z"/><path class="cls-1" d="m265.76 25.92h-3.05v-15.64h3.05v15.64z"/><path class="cls-1" d="M279.14,13.85c-.8-.89-1.55-1.27-2.53-1.27-1.24,0-2.2.77-2.2,1.74,0,.84.54,1.29,2.37,1.97,1.74.63,2.42.96,3.12,1.57.91.77,1.38,1.88,1.38,3.28,0,3.07-2.2,5.16-5.44,5.16-2.27,0-3.96-.94-5.37-2.98l1.97-1.9c.7,1.36,1.88,2.09,3.28,2.09s2.42-.89,2.42-2.2c0-.68-.31-1.22-.91-1.62-.28-.19-.91-.47-2.11-.89-2.81-1.01-3.85-2.16-3.85-4.22,0-2.65,2.06-4.55,4.88-4.55,1.76,0,3.28.56,4.6,1.74l-1.59,2.09Z"/><path class="cls-1" d="m288.18 25.92v-12.99h-3.49v-2.65h10.06v2.65h-3.52v12.99h-3.05z"/><polygon class="cls-1" points="19.5 3.33 25.7 3.33 19.5 0"/><polygon class="cls-1" points="36.91 15.07 34.48 17.38 34.61 18.12 36.83 21.68 39.62 18.48 40.38 17.57 41.93 15.69"/><polygon class="cls-1" points="3.11 24.3 3.11 20.97 0 22.63"/><path class="cls-1" d="M27.91,34.93c.11,0,.2-.09.2-.2v-13.67l-2.02.95v12.92h1.83Z"/><path class="cls-1" d="M44.01,18.79c-.08-.16-.19-.35-.3-.56-.31-.58-.71-1.33-1.08-2.01l-1.01,1.22-.82.99,3.22.37Z"/><path class="cls-1" d="M10.65,21.1v-7.96l-5.87,3.3s-.03.05-.03.08c0,.04,0,.1.04.14l10.16,14.79h0s3.24,4.72,3.24,4.72c.04.06.1.09.16.09h6.7c.09,0,.16-.08.16-.16v-13.86l-13.5-.06c-.59-.01-1.06-.49-1.06-1.07Z"/><path class="cls-1" d="M31.79,7.78l-4.5-3.57h-8.75c-.07,0-.14,0-.21.04l-3.19,1.42,10.75,15.47,2.14-.99.62.15,7.34,1.68-2.22-3.62-.22-1.28h0s-1.54-8.94-1.54-8.94c-.03-.14-.1-.26-.21-.35Z"/><path class="cls-1" d="M10.65,9.46c0-.34.13-.67.37-.93l2.33-2.56h-1.18c-.09,0-.17.02-.25.07l-7.74,5.08c-.13.08-.2.21-.2.36v4.61s.04-.05.05-.08c.02-.03.03-.05.05-.08.07-.1.15-.19.25-.27l.14-.08,6.18-3.45v-2.68Z"/><path class="cls-1" d="M3.98,19.52v16.29c0,.24.2.43.43.43h4.61c.12,0,.23-.05.31-.13l4.6-4.6-9.88-14.37s-.06-.1-.08-.15v2.52Z"/><path class="cls-1" d="M11.73,21.29l13.25.06L14.44,6.2l-.6.52-2.18,2.4c-.09.1-.14.22-.14.34v11.64c0,.1.09.19.21.2Z"/></svg>
