<svg width="127" height="24" viewBox="0 0 127 24" fill="none" xmlns="http://www.w3.org/2000/svg">
<g clip-path="url(#clip0_843_838)">
<path fill-rule="evenodd" clip-rule="evenodd" d="M105.542 17.4523C102.085 17.4523 99.4896 14.7673 99.4896 11.1551C99.4896 7.54285 102.085 4.85791 105.542 4.85791C108.518 4.85791 110.582 6.59226 111.114 9.13363H108.639C108.173 8.1326 107.23 7.25573 105.542 7.25573C103.513 7.25573 101.93 8.90084 101.93 11.1551C101.93 13.4094 103.513 15.0545 105.542 15.0545C107.226 15.0545 108.173 14.1776 108.639 13.1766H111.114C110.582 15.7179 108.518 17.4523 105.542 17.4523ZM22.6468 17.1768V5.09071H28.0322C28.8936 5.09071 29.654 5.25367 30.3098 5.5757C30.9655 5.8861 31.4738 6.34006 31.8307 6.94145C32.1993 7.52733 32.3817 8.20632 32.3817 8.97843C32.3817 9.75055 32.1993 10.4683 31.8307 11.0659C31.4738 11.6517 30.9694 12.1057 30.3098 12.4316C29.654 12.7536 28.9014 12.9166 28.0478 12.9166H25.2154V17.1807H22.6429L22.6468 17.1768ZM27.586 10.771C28.0012 10.771 28.3698 10.7011 28.6918 10.5653C29.0138 10.414 29.2622 10.2084 29.4329 9.94455C29.6152 9.68071 29.7083 9.35867 29.7083 8.97843C29.7083 8.63312 29.6152 8.3266 29.4329 8.06276C29.2622 7.79892 29.0138 7.59717 28.6918 7.45749C28.3698 7.30617 28.0012 7.23245 27.586 7.23245H25.2192V10.771H27.586ZM54.9592 5.09071V17.1768H64.0577V15.0351H57.5316V12.0126H62.4708V9.90575H57.5316V7.22857H64.0577V5.08683H54.9592V5.09071ZM85.1376 17.1768V5.09071H94.2361V7.23245H87.71V9.90963H92.6492V12.0164H87.71V15.0389H94.2361V17.1807H85.1376V17.1768ZM119.689 17.1768V7.23245H115.545V5.09071H126.44V7.23245H122.281V17.1768H119.693H119.689ZM38.3762 5.09071V17.1768H40.9486V12.5674H43.1602C43.6685 12.5674 44.0798 12.6295 44.4018 12.7575C44.7239 12.8856 44.9721 13.0873 45.1429 13.3628C45.3175 13.6383 45.4378 14.0146 45.5037 14.4841L45.8645 17.1768H48.6271L48.1266 14.2746C48.0218 13.6771 47.8395 13.2037 47.5756 12.8584C47.3118 12.5131 46.9664 12.2648 46.5396 12.1173C46.1245 11.966 45.6007 11.8806 44.9683 11.8574V11.3064C45.5891 11.2482 46.1478 11.1357 46.6444 10.9611C47.141 10.7787 47.5601 10.4722 47.9054 10.0454C48.2507 9.60699 48.4215 9.02111 48.4215 8.28392C48.4215 7.65149 48.2546 7.09277 47.9209 6.60778C47.5989 6.12278 47.1255 5.7503 46.5047 5.48646C45.8839 5.22263 45.1506 5.09071 44.3125 5.09071H38.3723H38.3762ZM45.2127 10.0648C44.8674 10.3287 44.4018 10.4606 43.8159 10.4606H40.9486V7.23245H43.8159C44.4018 7.23245 44.8674 7.37213 45.2127 7.64761C45.558 7.92308 45.7287 8.32272 45.7287 8.83876C45.7287 9.35479 45.5542 9.78935 45.2127 10.0648ZM71.0029 17.3087V8.92411C71.0029 6.81341 72.7139 5.10235 74.8246 5.10235H79.1624V7.31393H74.9371C74.2349 7.31393 73.6645 7.88428 73.6645 8.58656V10.3131H78.0721V12.5441H73.6645V17.3087H71.0067H71.0029Z" fill="white"/>
<path d="M8.22121 15.974L0.798828 12.1367V19.8191H0.802665L8.22504 23.6563V15.974H8.22121Z" fill="white"/>
<path d="M0.798828 4.4618L8.22504 8.30296V15.9814L15.6474 12.1441V4.46568L8.22504 0.624512L0.798828 4.46568V4.4618Z" fill="white"/>
</g>
<defs>
<clipPath id="clip0_843_838">
<rect width="127" height="24" fill="white"/>
</clipPath>
</defs>
</svg>
