<?xml version="1.0" encoding="UTF-8" standalone="no"?>
<svg
   width="193.14954"
   height="221.16312"
   viewBox="0 0 193.14954 221.16312"
   fill="none"
   version="1.1"
   xmlns="http://www.w3.org/2000/svg"
   xmlns:svg="http://www.w3.org/2000/svg">
  <g clip-path="url(#blob-grad-dots-01_clip)">
    <mask
       id="blob-grad-dots-01_mask"
       maskUnits="userSpaceOnUse"
       x="0"
       y="0"
       width="194"
       height="222">
      <path
         d="m 134.63,17.0836 c 12.856,-1.8993 27.854,1.4245 40.233,10.4463 12.142,9.0218 21.664,23.7417 17.141,35.8499 -4.523,12.1082 -22.854,21.8423 -29.996,39.6482 -7.142,17.807 -2.857,44.16 -11.189,51.995 -8.332,8.072 -29.044,-2.137 -59.04,13.77 -29.7579,15.907 -69.0384,57.929 -80.4655,51.756 -11.665123,-5.935 4.2852,-60.303 7.38,-94.016 C 22.0264,92.8194 12.5038,79.2867 6.07609,62.4301 -0.351625,45.3362 -3.44645,24.6809 5.83803,12.5727 15.1225,0.464471 37.2624,-2.62194 55.3553,2.12639 73.2101,7.11213 87.2558,20.17 99.3971,23.019 111.538,26.1054 122.013,18.9829 134.63,17.0836 Z"
         fill="#ffffff" />
    </mask>
    <g mask="url(#blob-grad-dots-01_mask)" style="fill:url(#blob-grad-dots-01_gradient)">
      <path d="m -29.4885,-5.89686 c 0,1.62861 -1.3203,2.94885 -2.9489,2.94885 -1.6286,0 -2.9488,-1.32024 -2.9488,-2.94885 0,-1.6286 1.3202,-2.94884 2.9488,-2.94884 1.6286,0 2.9489,1.32024 2.9489,2.94884 z" />
      <path d="m -29.4885,5.89853 c 0,1.6286 -1.3203,2.94884 -2.9489,2.94884 -1.6286,0 -2.9488,-1.32024 -2.9488,-2.94884 0,-1.62861 1.3202,-2.94885 2.9488,-2.94885 1.6286,0 2.9489,1.32024 2.9489,2.94885 z" />
      <path d="m -29.4885,17.6939 c 0,1.6286 -1.3203,2.9489 -2.9489,2.9489 -1.6286,0 -2.9488,-1.3203 -2.9488,-2.9489 0,-1.6286 1.3202,-2.9488 2.9488,-2.9488 1.6286,0 2.9489,1.3202 2.9489,2.9488 z" />
      <path d="m -29.4885,29.4893 c 0,1.6286 -1.3203,2.9488 -2.9489,2.9488 -1.6286,0 -2.9488,-1.3202 -2.9488,-2.9488 0,-1.6286 1.3202,-2.9488 2.9488,-2.9488 1.6286,0 2.9489,1.3202 2.9489,2.9488 z" />
      <path d="m -29.4885,41.2847 c 0,1.6286 -1.3203,2.9488 -2.9489,2.9488 -1.6286,0 -2.9488,-1.3202 -2.9488,-2.9488 0,-1.6286 1.3202,-2.9489 2.9488,-2.9489 1.6286,0 2.9489,1.3203 2.9489,2.9489 z" />
      <path d="m -29.4885,53.0801 c 0,1.6286 -1.3203,2.9488 -2.9489,2.9488 -1.6286,0 -2.9488,-1.3202 -2.9488,-2.9488 0,-1.6286 1.3202,-2.9489 2.9488,-2.9489 1.6286,0 2.9489,1.3203 2.9489,2.9489 z" />
      <path d="m -29.4885,64.8754 c 0,1.6287 -1.3203,2.9489 -2.9489,2.9489 -1.6286,0 -2.9488,-1.3202 -2.9488,-2.9489 0,-1.6286 1.3202,-2.9488 2.9488,-2.9488 1.6286,0 2.9489,1.3202 2.9489,2.9488 z" />
      <path d="m -29.4885,76.6708 c 0,1.6286 -1.3203,2.9489 -2.9489,2.9489 -1.6286,0 -2.9488,-1.3203 -2.9488,-2.9489 0,-1.6286 1.3202,-2.9488 2.9488,-2.9488 1.6286,0 2.9489,1.3202 2.9489,2.9488 z" />
      <path d="m -29.4885,88.4662 c 0,1.6286 -1.3203,2.9489 -2.9489,2.9489 -1.6286,0 -2.9488,-1.3203 -2.9488,-2.9489 0,-1.6286 1.3202,-2.9488 2.9488,-2.9488 1.6286,0 2.9489,1.3202 2.9489,2.9488 z" />
      <path d="m -29.4885,100.262 c 0,1.628 -1.3203,2.948 -2.9489,2.948 -1.6286,0 -2.9488,-1.32 -2.9488,-2.948 0,-1.629 1.3202,-2.9492 2.9488,-2.9492 1.6286,0 2.9489,1.3202 2.9489,2.9492 z" />
      <path d="m -29.4885,112.057 c 0,1.629 -1.3203,2.949 -2.9489,2.949 -1.6286,0 -2.9488,-1.32 -2.9488,-2.949 0,-1.629 1.3202,-2.949 2.9488,-2.949 1.6286,0 2.9489,1.32 2.9489,2.949 z" />
      <path d="m -29.4885,123.852 c 0,1.629 -1.3203,2.949 -2.9489,2.949 -1.6286,0 -2.9488,-1.32 -2.9488,-2.949 0,-1.628 1.3202,-2.948 2.9488,-2.948 1.6286,0 2.9489,1.32 2.9489,2.948 z" />
      <path d="m -29.4885,135.648 c 0,1.628 -1.3203,2.949 -2.9489,2.949 -1.6286,0 -2.9488,-1.321 -2.9488,-2.949 0,-1.629 1.3202,-2.949 2.9488,-2.949 1.6286,0 2.9489,1.32 2.9489,2.949 z" />
      <path d="m -29.4885,147.443 c 0,1.629 -1.3203,2.949 -2.9489,2.949 -1.6286,0 -2.9488,-1.32 -2.9488,-2.949 0,-1.628 1.3202,-2.949 2.9488,-2.949 1.6286,0 2.9489,1.321 2.9489,2.949 z" />
      <path d="m -29.4885,159.239 c 0,1.628 -1.3203,2.948 -2.9489,2.948 -1.6286,0 -2.9488,-1.32 -2.9488,-2.948 0,-1.629 1.3202,-2.949 2.9488,-2.949 1.6286,0 2.9489,1.32 2.9489,2.949 z" />
      <path d="m -29.4885,171.034 c 0,1.629 -1.3203,2.949 -2.9489,2.949 -1.6286,0 -2.9488,-1.32 -2.9488,-2.949 0,-1.629 1.3202,-2.949 2.9488,-2.949 1.6286,0 2.9489,1.32 2.9489,2.949 z" />
      <path d="m -29.4885,182.829 c 0,1.629 -1.3203,2.949 -2.9489,2.949 -1.6286,0 -2.9488,-1.32 -2.9488,-2.949 0,-1.628 1.3202,-2.949 2.9488,-2.949 1.6286,0 2.9489,1.321 2.9489,2.949 z" />
      <path d="m -29.4885,194.625 c 0,1.628 -1.3203,2.949 -2.9489,2.949 -1.6286,0 -2.9488,-1.321 -2.9488,-2.949 0,-1.629 1.3202,-2.949 2.9488,-2.949 1.6286,0 2.9489,1.32 2.9489,2.949 z" />
      <path d="m -29.4885,206.42 c 0,1.629 -1.3203,2.949 -2.9489,2.949 -1.6286,0 -2.9488,-1.32 -2.9488,-2.949 0,-1.629 1.3202,-2.949 2.9488,-2.949 1.6286,0 2.9489,1.32 2.9489,2.949 z" />
      <path d="m -29.4885,218.215 c 0,1.629 -1.3203,2.949 -2.9489,2.949 -1.6286,0 -2.9488,-1.32 -2.9488,-2.949 0,-1.628 1.3202,-2.948 2.9488,-2.948 1.6286,0 2.9489,1.32 2.9489,2.948 z" />
      <path d="m -29.4885,230.011 c 0,1.628 -1.3203,2.949 -2.9489,2.949 -1.6286,0 -2.9488,-1.321 -2.9488,-2.949 0,-1.629 1.3202,-2.949 2.9488,-2.949 1.6286,0 2.9489,1.32 2.9489,2.949 z" />
      <path d="m -17.6932,-5.89686 c 0,1.62861 -1.3202,2.94885 -2.9488,2.94885 -1.6286,0 -2.9488,-1.32024 -2.9488,-2.94885 0,-1.6286 1.3202,-2.94884 2.9488,-2.94884 1.6286,0 2.9488,1.32024 2.9488,2.94884 z" />
      <path d="m -17.6932,5.89853 c 0,1.6286 -1.3202,2.94884 -2.9488,2.94884 -1.6286,0 -2.9488,-1.32024 -2.9488,-2.94884 0,-1.62861 1.3202,-2.94885 2.9488,-2.94885 1.6286,0 2.9488,1.32024 2.9488,2.94885 z" />
      <path d="m -17.6932,17.6939 c 0,1.6286 -1.3202,2.9489 -2.9488,2.9489 -1.6286,0 -2.9488,-1.3203 -2.9488,-2.9489 0,-1.6286 1.3202,-2.9488 2.9488,-2.9488 1.6286,0 2.9488,1.3202 2.9488,2.9488 z" />
      <path d="m -17.6932,29.4893 c 0,1.6286 -1.3202,2.9488 -2.9488,2.9488 -1.6286,0 -2.9488,-1.3202 -2.9488,-2.9488 0,-1.6286 1.3202,-2.9488 2.9488,-2.9488 1.6286,0 2.9488,1.3202 2.9488,2.9488 z" />
      <path d="m -17.6932,41.2847 c 0,1.6286 -1.3202,2.9488 -2.9488,2.9488 -1.6286,0 -2.9488,-1.3202 -2.9488,-2.9488 0,-1.6286 1.3202,-2.9489 2.9488,-2.9489 1.6286,0 2.9488,1.3203 2.9488,2.9489 z" />
      <path d="m -17.6932,53.0801 c 0,1.6286 -1.3202,2.9488 -2.9488,2.9488 -1.6286,0 -2.9488,-1.3202 -2.9488,-2.9488 0,-1.6286 1.3202,-2.9489 2.9488,-2.9489 1.6286,0 2.9488,1.3203 2.9488,2.9489 z" />
      <path d="m -17.6932,64.8754 c 0,1.6287 -1.3202,2.9489 -2.9488,2.9489 -1.6286,0 -2.9488,-1.3202 -2.9488,-2.9489 0,-1.6286 1.3202,-2.9488 2.9488,-2.9488 1.6286,0 2.9488,1.3202 2.9488,2.9488 z" />
      <path d="m -17.6932,76.6708 c 0,1.6286 -1.3202,2.9489 -2.9488,2.9489 -1.6286,0 -2.9488,-1.3203 -2.9488,-2.9489 0,-1.6286 1.3202,-2.9488 2.9488,-2.9488 1.6286,0 2.9488,1.3202 2.9488,2.9488 z" />
      <path d="m -17.6932,88.4662 c 0,1.6286 -1.3202,2.9489 -2.9488,2.9489 -1.6286,0 -2.9488,-1.3203 -2.9488,-2.9489 0,-1.6286 1.3202,-2.9488 2.9488,-2.9488 1.6286,0 2.9488,1.3202 2.9488,2.9488 z" />
      <path d="m -17.6932,100.262 c 0,1.628 -1.3202,2.948 -2.9488,2.948 -1.6286,0 -2.9488,-1.32 -2.9488,-2.948 0,-1.629 1.3202,-2.9492 2.9488,-2.9492 1.6286,0 2.9488,1.3202 2.9488,2.9492 z" />
      <path d="m -17.6932,112.057 c 0,1.629 -1.3202,2.949 -2.9488,2.949 -1.6286,0 -2.9488,-1.32 -2.9488,-2.949 0,-1.629 1.3202,-2.949 2.9488,-2.949 1.6286,0 2.9488,1.32 2.9488,2.949 z" />
      <path d="m -17.6932,123.852 c 0,1.629 -1.3202,2.949 -2.9488,2.949 -1.6286,0 -2.9488,-1.32 -2.9488,-2.949 0,-1.628 1.3202,-2.948 2.9488,-2.948 1.6286,0 2.9488,1.32 2.9488,2.948 z" />
      <path d="m -17.6932,135.648 c 0,1.628 -1.3202,2.949 -2.9488,2.949 -1.6286,0 -2.9488,-1.321 -2.9488,-2.949 0,-1.629 1.3202,-2.949 2.9488,-2.949 1.6286,0 2.9488,1.32 2.9488,2.949 z" />
      <path d="m -17.6932,147.443 c 0,1.629 -1.3202,2.949 -2.9488,2.949 -1.6286,0 -2.9488,-1.32 -2.9488,-2.949 0,-1.628 1.3202,-2.949 2.9488,-2.949 1.6286,0 2.9488,1.321 2.9488,2.949 z" />
      <path d="m -17.6932,159.239 c 0,1.628 -1.3202,2.948 -2.9488,2.948 -1.6286,0 -2.9488,-1.32 -2.9488,-2.948 0,-1.629 1.3202,-2.949 2.9488,-2.949 1.6286,0 2.9488,1.32 2.9488,2.949 z" />
      <path d="m -17.6932,171.034 c 0,1.629 -1.3202,2.949 -2.9488,2.949 -1.6286,0 -2.9488,-1.32 -2.9488,-2.949 0,-1.629 1.3202,-2.949 2.9488,-2.949 1.6286,0 2.9488,1.32 2.9488,2.949 z" />
      <path d="m -17.6932,182.829 c 0,1.629 -1.3202,2.949 -2.9488,2.949 -1.6286,0 -2.9488,-1.32 -2.9488,-2.949 0,-1.628 1.3202,-2.949 2.9488,-2.949 1.6286,0 2.9488,1.321 2.9488,2.949 z" />
      <path d="m -17.6932,194.625 c 0,1.628 -1.3202,2.949 -2.9488,2.949 -1.6286,0 -2.9488,-1.321 -2.9488,-2.949 0,-1.629 1.3202,-2.949 2.9488,-2.949 1.6286,0 2.9488,1.32 2.9488,2.949 z" />
      <path d="m -17.6932,206.42 c 0,1.629 -1.3202,2.949 -2.9488,2.949 -1.6286,0 -2.9488,-1.32 -2.9488,-2.949 0,-1.629 1.3202,-2.949 2.9488,-2.949 1.6286,0 2.9488,1.32 2.9488,2.949 z" />
      <path d="m -17.6932,218.215 c 0,1.629 -1.3202,2.949 -2.9488,2.949 -1.6286,0 -2.9488,-1.32 -2.9488,-2.949 0,-1.628 1.3202,-2.948 2.9488,-2.948 1.6286,0 2.9488,1.32 2.9488,2.948 z" />
      <path d="m -17.6932,230.011 c 0,1.628 -1.3202,2.949 -2.9488,2.949 -1.6286,0 -2.9488,-1.321 -2.9488,-2.949 0,-1.629 1.3202,-2.949 2.9488,-2.949 1.6286,0 2.9488,1.32 2.9488,2.949 z" />
      <path d="m -5.89777,-5.89686 c 0,1.62861 -1.32025,2.94885 -2.94885,2.94885 -1.62858,0 -2.94888,-1.32024 -2.94888,-2.94885 0,-1.6286 1.3203,-2.94884 2.94888,-2.94884 1.6286,0 2.94885,1.32024 2.94885,2.94884 z" />
      <path d="m -5.89777,5.89853 c 0,1.6286 -1.32025,2.94884 -2.94885,2.94884 -1.62858,0 -2.94888,-1.32024 -2.94888,-2.94884 0,-1.62861 1.3203,-2.94885 2.94888,-2.94885 1.6286,0 2.94885,1.32024 2.94885,2.94885 z" />
      <path d="m -5.89777,17.6939 c 0,1.6286 -1.32025,2.9489 -2.94885,2.9489 -1.62858,0 -2.94888,-1.3203 -2.94888,-2.9489 0,-1.6286 1.3203,-2.9488 2.94888,-2.9488 1.6286,0 2.94885,1.3202 2.94885,2.9488 z" />
      <path d="m -5.89777,29.4893 c 0,1.6286 -1.32025,2.9488 -2.94885,2.9488 -1.62858,0 -2.94888,-1.3202 -2.94888,-2.9488 0,-1.6286 1.3203,-2.9488 2.94888,-2.9488 1.6286,0 2.94885,1.3202 2.94885,2.9488 z" />
      <path d="m -5.89777,41.2847 c 0,1.6286 -1.32025,2.9488 -2.94885,2.9488 -1.62858,0 -2.94888,-1.3202 -2.94888,-2.9488 0,-1.6286 1.3203,-2.9489 2.94888,-2.9489 1.6286,0 2.94885,1.3203 2.94885,2.9489 z" />
      <path d="m -5.89777,53.0801 c 0,1.6286 -1.32025,2.9488 -2.94885,2.9488 -1.62858,0 -2.94888,-1.3202 -2.94888,-2.9488 0,-1.6286 1.3203,-2.9489 2.94888,-2.9489 1.6286,0 2.94885,1.3203 2.94885,2.9489 z" />
      <path d="m -5.89777,64.8754 c 0,1.6287 -1.32025,2.9489 -2.94885,2.9489 -1.62858,0 -2.94888,-1.3202 -2.94888,-2.9489 0,-1.6286 1.3203,-2.9488 2.94888,-2.9488 1.6286,0 2.94885,1.3202 2.94885,2.9488 z" />
      <path d="m -5.89777,76.6708 c 0,1.6286 -1.32025,2.9489 -2.94885,2.9489 -1.62858,0 -2.94888,-1.3203 -2.94888,-2.9489 0,-1.6286 1.3203,-2.9488 2.94888,-2.9488 1.6286,0 2.94885,1.3202 2.94885,2.9488 z" />
      <path d="m -5.89777,88.4662 c 0,1.6286 -1.32025,2.9489 -2.94885,2.9489 -1.62858,0 -2.94888,-1.3203 -2.94888,-2.9489 0,-1.6286 1.3203,-2.9488 2.94888,-2.9488 1.6286,0 2.94885,1.3202 2.94885,2.9488 z" />
      <path d="m -5.89777,100.262 c 0,1.628 -1.32025,2.948 -2.94885,2.948 -1.62858,0 -2.94888,-1.32 -2.94888,-2.948 0,-1.629 1.3203,-2.9492 2.94888,-2.9492 1.6286,0 2.94885,1.3202 2.94885,2.9492 z" />
      <path d="m -5.89777,112.057 c 0,1.629 -1.32025,2.949 -2.94885,2.949 -1.62858,0 -2.94888,-1.32 -2.94888,-2.949 0,-1.629 1.3203,-2.949 2.94888,-2.949 1.6286,0 2.94885,1.32 2.94885,2.949 z" />
      <path d="m -5.89777,123.852 c 0,1.629 -1.32025,2.949 -2.94885,2.949 -1.62858,0 -2.94888,-1.32 -2.94888,-2.949 0,-1.628 1.3203,-2.948 2.94888,-2.948 1.6286,0 2.94885,1.32 2.94885,2.948 z" />
      <path d="m -5.89777,135.648 c 0,1.628 -1.32025,2.949 -2.94885,2.949 -1.62858,0 -2.94888,-1.321 -2.94888,-2.949 0,-1.629 1.3203,-2.949 2.94888,-2.949 1.6286,0 2.94885,1.32 2.94885,2.949 z" />
      <path d="m -5.89777,147.443 c 0,1.629 -1.32025,2.949 -2.94885,2.949 -1.62858,0 -2.94888,-1.32 -2.94888,-2.949 0,-1.628 1.3203,-2.949 2.94888,-2.949 1.6286,0 2.94885,1.321 2.94885,2.949 z" />
      <path d="m -5.89777,159.239 c 0,1.628 -1.32025,2.948 -2.94885,2.948 -1.62858,0 -2.94888,-1.32 -2.94888,-2.948 0,-1.629 1.3203,-2.949 2.94888,-2.949 1.6286,0 2.94885,1.32 2.94885,2.949 z" />
      <path d="m -5.89777,171.034 c 0,1.629 -1.32025,2.949 -2.94885,2.949 -1.62858,0 -2.94888,-1.32 -2.94888,-2.949 0,-1.629 1.3203,-2.949 2.94888,-2.949 1.6286,0 2.94885,1.32 2.94885,2.949 z" />
      <path d="m -5.89777,182.829 c 0,1.629 -1.32025,2.949 -2.94885,2.949 -1.62858,0 -2.94888,-1.32 -2.94888,-2.949 0,-1.628 1.3203,-2.949 2.94888,-2.949 1.6286,0 2.94885,1.321 2.94885,2.949 z" />
      <path d="m -5.89777,194.625 c 0,1.628 -1.32025,2.949 -2.94885,2.949 -1.62858,0 -2.94888,-1.321 -2.94888,-2.949 0,-1.629 1.3203,-2.949 2.94888,-2.949 1.6286,0 2.94885,1.32 2.94885,2.949 z" />
      <path d="m -5.89777,206.42 c 0,1.629 -1.32025,2.949 -2.94885,2.949 -1.62858,0 -2.94888,-1.32 -2.94888,-2.949 0,-1.629 1.3203,-2.949 2.94888,-2.949 1.6286,0 2.94885,1.32 2.94885,2.949 z" />
      <path d="m -5.89777,218.215 c 0,1.629 -1.32025,2.949 -2.94885,2.949 -1.62858,0 -2.94888,-1.32 -2.94888,-2.949 0,-1.628 1.3203,-2.948 2.94888,-2.948 1.6286,0 2.94885,1.32 2.94885,2.948 z" />
      <path d="m -5.89777,230.011 c 0,1.628 -1.32025,2.949 -2.94885,2.949 -1.62858,0 -2.94888,-1.321 -2.94888,-2.949 0,-1.629 1.3203,-2.949 2.94888,-2.949 1.6286,0 2.94885,1.32 2.94885,2.949 z" />
      <path d="m 5.89761,-5.89686 c 0,1.62861 -1.32024,2.94885 -2.94884,2.94885 -1.62861,0 -2.9488501086,-1.32024 -2.9488501086,-2.94885 0,-1.6286 1.3202401086,-2.94884 2.9488501086,-2.94884 1.6286,0 2.94884,1.32024 2.94884,2.94884 z" />
      <path d="m 5.89761,5.89853 c 0,1.6286 -1.32024,2.94884 -2.94884,2.94884 -1.62861,0 -2.9488501086,-1.32024 -2.9488501086,-2.94884 0,-1.62861 1.3202401086,-2.94885 2.9488501086,-2.94885 1.6286,0 2.94884,1.32024 2.94884,2.94885 z" />
      <path d="m 5.89761,17.6939 c 0,1.6286 -1.32024,2.9489 -2.94884,2.9489 -1.62861,0 -2.9488501086,-1.3203 -2.9488501086,-2.9489 0,-1.6286 1.3202401086,-2.9488 2.9488501086,-2.9488 1.6286,0 2.94884,1.3202 2.94884,2.9488 z" />
      <path d="m 5.89761,29.4893 c 0,1.6286 -1.32024,2.9488 -2.94884,2.9488 -1.62861,0 -2.9488501086,-1.3202 -2.9488501086,-2.9488 0,-1.6286 1.3202401086,-2.9488 2.9488501086,-2.9488 1.6286,0 2.94884,1.3202 2.94884,2.9488 z" />
      <path d="m 5.89761,41.2847 c 0,1.6286 -1.32024,2.9488 -2.94884,2.9488 -1.62861,0 -2.9488501086,-1.3202 -2.9488501086,-2.9488 0,-1.6286 1.3202401086,-2.9489 2.9488501086,-2.9489 1.6286,0 2.94884,1.3203 2.94884,2.9489 z" />
      <path d="m 5.89761,53.0801 c 0,1.6286 -1.32024,2.9488 -2.94884,2.9488 -1.62861,0 -2.9488501086,-1.3202 -2.9488501086,-2.9488 0,-1.6286 1.3202401086,-2.9489 2.9488501086,-2.9489 1.6286,0 2.94884,1.3203 2.94884,2.9489 z" />
      <path d="m 5.89761,64.8754 c 0,1.6287 -1.32024,2.9489 -2.94884,2.9489 -1.62861,0 -2.9488501086,-1.3202 -2.9488501086,-2.9489 0,-1.6286 1.3202401086,-2.9488 2.9488501086,-2.9488 1.6286,0 2.94884,1.3202 2.94884,2.9488 z" />
      <path d="m 5.89761,76.6708 c 0,1.6286 -1.32024,2.9489 -2.94884,2.9489 -1.62861,0 -2.9488501086,-1.3203 -2.9488501086,-2.9489 0,-1.6286 1.3202401086,-2.9488 2.9488501086,-2.9488 1.6286,0 2.94884,1.3202 2.94884,2.9488 z" />
      <path d="m 5.89761,88.4662 c 0,1.6286 -1.32024,2.9489 -2.94884,2.9489 -1.62861,0 -2.9488501086,-1.3203 -2.9488501086,-2.9489 0,-1.6286 1.3202401086,-2.9488 2.9488501086,-2.9488 1.6286,0 2.94884,1.3202 2.94884,2.9488 z" />
      <path d="m 5.89761,100.262 c 0,1.628 -1.32024,2.948 -2.94884,2.948 -1.62861,0 -2.9488501086,-1.32 -2.9488501086,-2.948 0,-1.629 1.3202401086,-2.9492 2.9488501086,-2.9492 1.6286,0 2.94884,1.3202 2.94884,2.9492 z" />
      <path d="m 5.89761,112.057 c 0,1.629 -1.32024,2.949 -2.94884,2.949 -1.62861,0 -2.9488501086,-1.32 -2.9488501086,-2.949 0,-1.629 1.3202401086,-2.949 2.9488501086,-2.949 1.6286,0 2.94884,1.32 2.94884,2.949 z" />
      <path d="m 5.89761,123.852 c 0,1.629 -1.32024,2.949 -2.94884,2.949 -1.62861,0 -2.9488501086,-1.32 -2.9488501086,-2.949 0,-1.628 1.3202401086,-2.948 2.9488501086,-2.948 1.6286,0 2.94884,1.32 2.94884,2.948 z" />
      <path d="m 5.89761,135.648 c 0,1.628 -1.32024,2.949 -2.94884,2.949 -1.62861,0 -2.9488501086,-1.321 -2.9488501086,-2.949 0,-1.629 1.3202401086,-2.949 2.9488501086,-2.949 1.6286,0 2.94884,1.32 2.94884,2.949 z" />
      <path d="m 5.89761,147.443 c 0,1.629 -1.32024,2.949 -2.94884,2.949 -1.62861,0 -2.9488501086,-1.32 -2.9488501086,-2.949 0,-1.628 1.3202401086,-2.949 2.9488501086,-2.949 1.6286,0 2.94884,1.321 2.94884,2.949 z" />
      <path d="m 5.89761,159.239 c 0,1.628 -1.32024,2.948 -2.94884,2.948 -1.62861,0 -2.9488501086,-1.32 -2.9488501086,-2.948 0,-1.629 1.3202401086,-2.949 2.9488501086,-2.949 1.6286,0 2.94884,1.32 2.94884,2.949 z" />
      <path d="m 5.89761,171.034 c 0,1.629 -1.32024,2.949 -2.94884,2.949 -1.62861,0 -2.9488501086,-1.32 -2.9488501086,-2.949 0,-1.629 1.3202401086,-2.949 2.9488501086,-2.949 1.6286,0 2.94884,1.32 2.94884,2.949 z" />
      <path d="m 5.89761,182.829 c 0,1.629 -1.32024,2.949 -2.94884,2.949 -1.62861,0 -2.9488501086,-1.32 -2.9488501086,-2.949 0,-1.628 1.3202401086,-2.949 2.9488501086,-2.949 1.6286,0 2.94884,1.321 2.94884,2.949 z" />
      <path d="m 5.89761,194.625 c 0,1.628 -1.32024,2.949 -2.94884,2.949 -1.62861,0 -2.9488501086,-1.321 -2.9488501086,-2.949 0,-1.629 1.3202401086,-2.949 2.9488501086,-2.949 1.6286,0 2.94884,1.32 2.94884,2.949 z" />
      <path d="m 5.89761,206.42 c 0,1.629 -1.32024,2.949 -2.94884,2.949 -1.62861,0 -2.9488501086,-1.32 -2.9488501086,-2.949 0,-1.629 1.3202401086,-2.949 2.9488501086,-2.949 1.6286,0 2.94884,1.32 2.94884,2.949 z" />
      <path d="m 5.89761,218.215 c 0,1.629 -1.32024,2.949 -2.94884,2.949 -1.62861,0 -2.9488501086,-1.32 -2.9488501086,-2.949 0,-1.628 1.3202401086,-2.948 2.9488501086,-2.948 1.6286,0 2.94884,1.32 2.94884,2.948 z" />
      <path d="m 5.89761,230.011 c 0,1.628 -1.32024,2.949 -2.94884,2.949 -1.62861,0 -2.9488501086,-1.321 -2.9488501086,-2.949 0,-1.629 1.3202401086,-2.949 2.9488501086,-2.949 1.6286,0 2.94884,1.32 2.94884,2.949 z" />
      <path d="m 17.693,-5.89686 c 0,1.62861 -1.3202,2.94885 -2.9489,2.94885 -1.6286,0 -2.9488,-1.32024 -2.9488,-2.94885 0,-1.6286 1.3202,-2.94884 2.9488,-2.94884 1.6287,0 2.9489,1.32024 2.9489,2.94884 z" />
      <path d="m 17.693,5.89853 c 0,1.6286 -1.3202,2.94884 -2.9489,2.94884 -1.6286,0 -2.9488,-1.32024 -2.9488,-2.94884 0,-1.62861 1.3202,-2.94885 2.9488,-2.94885 1.6287,0 2.9489,1.32024 2.9489,2.94885 z" />
      <path d="m 17.693,17.6939 c 0,1.6286 -1.3202,2.9489 -2.9489,2.9489 -1.6286,0 -2.9488,-1.3203 -2.9488,-2.9489 0,-1.6286 1.3202,-2.9488 2.9488,-2.9488 1.6287,0 2.9489,1.3202 2.9489,2.9488 z" />
      <path d="m 17.693,29.4893 c 0,1.6286 -1.3202,2.9488 -2.9489,2.9488 -1.6286,0 -2.9488,-1.3202 -2.9488,-2.9488 0,-1.6286 1.3202,-2.9488 2.9488,-2.9488 1.6287,0 2.9489,1.3202 2.9489,2.9488 z" />
      <path d="m 17.693,41.2847 c 0,1.6286 -1.3202,2.9488 -2.9489,2.9488 -1.6286,0 -2.9488,-1.3202 -2.9488,-2.9488 0,-1.6286 1.3202,-2.9489 2.9488,-2.9489 1.6287,0 2.9489,1.3203 2.9489,2.9489 z" />
      <path d="m 17.693,53.0801 c 0,1.6286 -1.3202,2.9488 -2.9489,2.9488 -1.6286,0 -2.9488,-1.3202 -2.9488,-2.9488 0,-1.6286 1.3202,-2.9489 2.9488,-2.9489 1.6287,0 2.9489,1.3203 2.9489,2.9489 z" />
      <path d="m 17.693,64.8754 c 0,1.6287 -1.3202,2.9489 -2.9489,2.9489 -1.6286,0 -2.9488,-1.3202 -2.9488,-2.9489 0,-1.6286 1.3202,-2.9488 2.9488,-2.9488 1.6287,0 2.9489,1.3202 2.9489,2.9488 z" />
      <path d="m 17.693,76.6708 c 0,1.6286 -1.3202,2.9489 -2.9489,2.9489 -1.6286,0 -2.9488,-1.3203 -2.9488,-2.9489 0,-1.6286 1.3202,-2.9488 2.9488,-2.9488 1.6287,0 2.9489,1.3202 2.9489,2.9488 z" />
      <path d="m 17.693,88.4662 c 0,1.6286 -1.3202,2.9489 -2.9489,2.9489 -1.6286,0 -2.9488,-1.3203 -2.9488,-2.9489 0,-1.6286 1.3202,-2.9488 2.9488,-2.9488 1.6287,0 2.9489,1.3202 2.9489,2.9488 z" />
      <path d="m 17.693,100.262 c 0,1.628 -1.3202,2.948 -2.9489,2.948 -1.6286,0 -2.9488,-1.32 -2.9488,-2.948 0,-1.629 1.3202,-2.9492 2.9488,-2.9492 1.6287,0 2.9489,1.3202 2.9489,2.9492 z" />
      <path d="m 17.693,112.057 c 0,1.629 -1.3202,2.949 -2.9489,2.949 -1.6286,0 -2.9488,-1.32 -2.9488,-2.949 0,-1.629 1.3202,-2.949 2.9488,-2.949 1.6287,0 2.9489,1.32 2.9489,2.949 z" />
      <path d="m 17.693,123.852 c 0,1.629 -1.3202,2.949 -2.9489,2.949 -1.6286,0 -2.9488,-1.32 -2.9488,-2.949 0,-1.628 1.3202,-2.948 2.9488,-2.948 1.6287,0 2.9489,1.32 2.9489,2.948 z" />
      <path d="m 17.693,135.648 c 0,1.628 -1.3202,2.949 -2.9489,2.949 -1.6286,0 -2.9488,-1.321 -2.9488,-2.949 0,-1.629 1.3202,-2.949 2.9488,-2.949 1.6287,0 2.9489,1.32 2.9489,2.949 z" />
      <path d="m 17.693,147.443 c 0,1.629 -1.3202,2.949 -2.9489,2.949 -1.6286,0 -2.9488,-1.32 -2.9488,-2.949 0,-1.628 1.3202,-2.949 2.9488,-2.949 1.6287,0 2.9489,1.321 2.9489,2.949 z" />
      <path d="m 17.693,159.239 c 0,1.628 -1.3202,2.948 -2.9489,2.948 -1.6286,0 -2.9488,-1.32 -2.9488,-2.948 0,-1.629 1.3202,-2.949 2.9488,-2.949 1.6287,0 2.9489,1.32 2.9489,2.949 z" />
      <path d="m 17.693,171.034 c 0,1.629 -1.3202,2.949 -2.9489,2.949 -1.6286,0 -2.9488,-1.32 -2.9488,-2.949 0,-1.629 1.3202,-2.949 2.9488,-2.949 1.6287,0 2.9489,1.32 2.9489,2.949 z" />
      <path d="m 17.693,182.829 c 0,1.629 -1.3202,2.949 -2.9489,2.949 -1.6286,0 -2.9488,-1.32 -2.9488,-2.949 0,-1.628 1.3202,-2.949 2.9488,-2.949 1.6287,0 2.9489,1.321 2.9489,2.949 z" />
      <path d="m 17.693,194.625 c 0,1.628 -1.3202,2.949 -2.9489,2.949 -1.6286,0 -2.9488,-1.321 -2.9488,-2.949 0,-1.629 1.3202,-2.949 2.9488,-2.949 1.6287,0 2.9489,1.32 2.9489,2.949 z" />
      <path d="m 17.693,206.42 c 0,1.629 -1.3202,2.949 -2.9489,2.949 -1.6286,0 -2.9488,-1.32 -2.9488,-2.949 0,-1.629 1.3202,-2.949 2.9488,-2.949 1.6287,0 2.9489,1.32 2.9489,2.949 z" />
      <path d="m 17.693,218.215 c 0,1.629 -1.3202,2.949 -2.9489,2.949 -1.6286,0 -2.9488,-1.32 -2.9488,-2.949 0,-1.628 1.3202,-2.948 2.9488,-2.948 1.6287,0 2.9489,1.32 2.9489,2.948 z" />
      <path d="m 17.693,230.011 c 0,1.628 -1.3202,2.949 -2.9489,2.949 -1.6286,0 -2.9488,-1.321 -2.9488,-2.949 0,-1.629 1.3202,-2.949 2.9488,-2.949 1.6287,0 2.9489,1.32 2.9489,2.949 z" />
      <path d="m 29.4884,-5.89686 c 0,1.62861 -1.3203,2.94885 -2.9489,2.94885 -1.6286,0 -2.9488,-1.32024 -2.9488,-2.94885 0,-1.6286 1.3202,-2.94884 2.9488,-2.94884 1.6286,0 2.9489,1.32024 2.9489,2.94884 z" />
      <path d="m 29.4884,5.89853 c 0,1.6286 -1.3203,2.94884 -2.9489,2.94884 -1.6286,0 -2.9488,-1.32024 -2.9488,-2.94884 0,-1.62861 1.3202,-2.94885 2.9488,-2.94885 1.6286,0 2.9489,1.32024 2.9489,2.94885 z" />
      <path d="m 29.4884,17.6939 c 0,1.6286 -1.3203,2.9489 -2.9489,2.9489 -1.6286,0 -2.9488,-1.3203 -2.9488,-2.9489 0,-1.6286 1.3202,-2.9488 2.9488,-2.9488 1.6286,0 2.9489,1.3202 2.9489,2.9488 z" />
      <path d="m 29.4884,29.4893 c 0,1.6286 -1.3203,2.9488 -2.9489,2.9488 -1.6286,0 -2.9488,-1.3202 -2.9488,-2.9488 0,-1.6286 1.3202,-2.9488 2.9488,-2.9488 1.6286,0 2.9489,1.3202 2.9489,2.9488 z" />
      <path d="m 29.4884,41.2847 c 0,1.6286 -1.3203,2.9488 -2.9489,2.9488 -1.6286,0 -2.9488,-1.3202 -2.9488,-2.9488 0,-1.6286 1.3202,-2.9489 2.9488,-2.9489 1.6286,0 2.9489,1.3203 2.9489,2.9489 z" />
      <path d="m 29.4884,53.0801 c 0,1.6286 -1.3203,2.9488 -2.9489,2.9488 -1.6286,0 -2.9488,-1.3202 -2.9488,-2.9488 0,-1.6286 1.3202,-2.9489 2.9488,-2.9489 1.6286,0 2.9489,1.3203 2.9489,2.9489 z" />
      <path d="m 29.4884,64.8754 c 0,1.6287 -1.3203,2.9489 -2.9489,2.9489 -1.6286,0 -2.9488,-1.3202 -2.9488,-2.9489 0,-1.6286 1.3202,-2.9488 2.9488,-2.9488 1.6286,0 2.9489,1.3202 2.9489,2.9488 z" />
      <path d="m 29.4884,76.6708 c 0,1.6286 -1.3203,2.9489 -2.9489,2.9489 -1.6286,0 -2.9488,-1.3203 -2.9488,-2.9489 0,-1.6286 1.3202,-2.9488 2.9488,-2.9488 1.6286,0 2.9489,1.3202 2.9489,2.9488 z" />
      <path d="m 29.4884,88.4662 c 0,1.6286 -1.3203,2.9489 -2.9489,2.9489 -1.6286,0 -2.9488,-1.3203 -2.9488,-2.9489 0,-1.6286 1.3202,-2.9488 2.9488,-2.9488 1.6286,0 2.9489,1.3202 2.9489,2.9488 z" />
      <path d="m 29.4884,100.262 c 0,1.628 -1.3203,2.948 -2.9489,2.948 -1.6286,0 -2.9488,-1.32 -2.9488,-2.948 0,-1.629 1.3202,-2.9492 2.9488,-2.9492 1.6286,0 2.9489,1.3202 2.9489,2.9492 z" />
      <path d="m 29.4884,112.057 c 0,1.629 -1.3203,2.949 -2.9489,2.949 -1.6286,0 -2.9488,-1.32 -2.9488,-2.949 0,-1.629 1.3202,-2.949 2.9488,-2.949 1.6286,0 2.9489,1.32 2.9489,2.949 z" />
      <path d="m 29.4884,123.852 c 0,1.629 -1.3203,2.949 -2.9489,2.949 -1.6286,0 -2.9488,-1.32 -2.9488,-2.949 0,-1.628 1.3202,-2.948 2.9488,-2.948 1.6286,0 2.9489,1.32 2.9489,2.948 z" />
      <path d="m 29.4884,135.648 c 0,1.628 -1.3203,2.949 -2.9489,2.949 -1.6286,0 -2.9488,-1.321 -2.9488,-2.949 0,-1.629 1.3202,-2.949 2.9488,-2.949 1.6286,0 2.9489,1.32 2.9489,2.949 z" />
      <path d="m 29.4884,147.443 c 0,1.629 -1.3203,2.949 -2.9489,2.949 -1.6286,0 -2.9488,-1.32 -2.9488,-2.949 0,-1.628 1.3202,-2.949 2.9488,-2.949 1.6286,0 2.9489,1.321 2.9489,2.949 z" />
      <path d="m 29.4884,159.239 c 0,1.628 -1.3203,2.948 -2.9489,2.948 -1.6286,0 -2.9488,-1.32 -2.9488,-2.948 0,-1.629 1.3202,-2.949 2.9488,-2.949 1.6286,0 2.9489,1.32 2.9489,2.949 z" />
      <path d="m 29.4884,171.034 c 0,1.629 -1.3203,2.949 -2.9489,2.949 -1.6286,0 -2.9488,-1.32 -2.9488,-2.949 0,-1.629 1.3202,-2.949 2.9488,-2.949 1.6286,0 2.9489,1.32 2.9489,2.949 z" />
      <path d="m 29.4884,182.829 c 0,1.629 -1.3203,2.949 -2.9489,2.949 -1.6286,0 -2.9488,-1.32 -2.9488,-2.949 0,-1.628 1.3202,-2.949 2.9488,-2.949 1.6286,0 2.9489,1.321 2.9489,2.949 z" />
      <path d="m 29.4884,194.625 c 0,1.628 -1.3203,2.949 -2.9489,2.949 -1.6286,0 -2.9488,-1.321 -2.9488,-2.949 0,-1.629 1.3202,-2.949 2.9488,-2.949 1.6286,0 2.9489,1.32 2.9489,2.949 z" />
      <path d="m 29.4884,206.42 c 0,1.629 -1.3203,2.949 -2.9489,2.949 -1.6286,0 -2.9488,-1.32 -2.9488,-2.949 0,-1.629 1.3202,-2.949 2.9488,-2.949 1.6286,0 2.9489,1.32 2.9489,2.949 z" />
      <path d="m 29.4884,218.215 c 0,1.629 -1.3203,2.949 -2.9489,2.949 -1.6286,0 -2.9488,-1.32 -2.9488,-2.949 0,-1.628 1.3202,-2.948 2.9488,-2.948 1.6286,0 2.9489,1.32 2.9489,2.948 z" />
      <path d="m 29.4884,230.011 c 0,1.628 -1.3203,2.949 -2.9489,2.949 -1.6286,0 -2.9488,-1.321 -2.9488,-2.949 0,-1.629 1.3202,-2.949 2.9488,-2.949 1.6286,0 2.9489,1.32 2.9489,2.949 z" />
      <path d="m 41.2838,-5.89686 c 0,1.62861 -1.3203,2.94885 -2.9489,2.94885 -1.6286,0 -2.9488,-1.32024 -2.9488,-2.94885 0,-1.6286 1.3202,-2.94884 2.9488,-2.94884 1.6286,0 2.9489,1.32024 2.9489,2.94884 z" />
      <path d="m 41.2838,5.89853 c 0,1.6286 -1.3203,2.94884 -2.9489,2.94884 -1.6286,0 -2.9488,-1.32024 -2.9488,-2.94884 0,-1.62861 1.3202,-2.94885 2.9488,-2.94885 1.6286,0 2.9489,1.32024 2.9489,2.94885 z" />
      <path d="m 41.2838,17.6939 c 0,1.6286 -1.3203,2.9489 -2.9489,2.9489 -1.6286,0 -2.9488,-1.3203 -2.9488,-2.9489 0,-1.6286 1.3202,-2.9488 2.9488,-2.9488 1.6286,0 2.9489,1.3202 2.9489,2.9488 z" />
      <path d="m 41.2838,29.4893 c 0,1.6286 -1.3203,2.9488 -2.9489,2.9488 -1.6286,0 -2.9488,-1.3202 -2.9488,-2.9488 0,-1.6286 1.3202,-2.9488 2.9488,-2.9488 1.6286,0 2.9489,1.3202 2.9489,2.9488 z" />
      <path d="m 41.2838,41.2847 c 0,1.6286 -1.3203,2.9488 -2.9489,2.9488 -1.6286,0 -2.9488,-1.3202 -2.9488,-2.9488 0,-1.6286 1.3202,-2.9489 2.9488,-2.9489 1.6286,0 2.9489,1.3203 2.9489,2.9489 z" />
      <path d="m 41.2838,53.0801 c 0,1.6286 -1.3203,2.9488 -2.9489,2.9488 -1.6286,0 -2.9488,-1.3202 -2.9488,-2.9488 0,-1.6286 1.3202,-2.9489 2.9488,-2.9489 1.6286,0 2.9489,1.3203 2.9489,2.9489 z" />
      <path d="m 41.2838,64.8754 c 0,1.6287 -1.3203,2.9489 -2.9489,2.9489 -1.6286,0 -2.9488,-1.3202 -2.9488,-2.9489 0,-1.6286 1.3202,-2.9488 2.9488,-2.9488 1.6286,0 2.9489,1.3202 2.9489,2.9488 z" />
      <path d="m 41.2838,76.6708 c 0,1.6286 -1.3203,2.9489 -2.9489,2.9489 -1.6286,0 -2.9488,-1.3203 -2.9488,-2.9489 0,-1.6286 1.3202,-2.9488 2.9488,-2.9488 1.6286,0 2.9489,1.3202 2.9489,2.9488 z" />
      <path d="m 41.2838,88.4662 c 0,1.6286 -1.3203,2.9489 -2.9489,2.9489 -1.6286,0 -2.9488,-1.3203 -2.9488,-2.9489 0,-1.6286 1.3202,-2.9488 2.9488,-2.9488 1.6286,0 2.9489,1.3202 2.9489,2.9488 z" />
      <path d="m 41.2838,100.262 c 0,1.628 -1.3203,2.948 -2.9489,2.948 -1.6286,0 -2.9488,-1.32 -2.9488,-2.948 0,-1.629 1.3202,-2.9492 2.9488,-2.9492 1.6286,0 2.9489,1.3202 2.9489,2.9492 z" />
      <path d="m 41.2838,112.057 c 0,1.629 -1.3203,2.949 -2.9489,2.949 -1.6286,0 -2.9488,-1.32 -2.9488,-2.949 0,-1.629 1.3202,-2.949 2.9488,-2.949 1.6286,0 2.9489,1.32 2.9489,2.949 z" />
      <path d="m 41.2838,123.852 c 0,1.629 -1.3203,2.949 -2.9489,2.949 -1.6286,0 -2.9488,-1.32 -2.9488,-2.949 0,-1.628 1.3202,-2.948 2.9488,-2.948 1.6286,0 2.9489,1.32 2.9489,2.948 z" />
      <path d="m 41.2838,135.648 c 0,1.628 -1.3203,2.949 -2.9489,2.949 -1.6286,0 -2.9488,-1.321 -2.9488,-2.949 0,-1.629 1.3202,-2.949 2.9488,-2.949 1.6286,0 2.9489,1.32 2.9489,2.949 z" />
      <path d="m 41.2838,147.443 c 0,1.629 -1.3203,2.949 -2.9489,2.949 -1.6286,0 -2.9488,-1.32 -2.9488,-2.949 0,-1.628 1.3202,-2.949 2.9488,-2.949 1.6286,0 2.9489,1.321 2.9489,2.949 z" />
      <path d="m 41.2838,159.239 c 0,1.628 -1.3203,2.948 -2.9489,2.948 -1.6286,0 -2.9488,-1.32 -2.9488,-2.948 0,-1.629 1.3202,-2.949 2.9488,-2.949 1.6286,0 2.9489,1.32 2.9489,2.949 z" />
      <path d="m 41.2838,171.034 c 0,1.629 -1.3203,2.949 -2.9489,2.949 -1.6286,0 -2.9488,-1.32 -2.9488,-2.949 0,-1.629 1.3202,-2.949 2.9488,-2.949 1.6286,0 2.9489,1.32 2.9489,2.949 z" />
      <path d="m 41.2838,182.829 c 0,1.629 -1.3203,2.949 -2.9489,2.949 -1.6286,0 -2.9488,-1.32 -2.9488,-2.949 0,-1.628 1.3202,-2.949 2.9488,-2.949 1.6286,0 2.9489,1.321 2.9489,2.949 z" />
      <path d="m 41.2838,194.625 c 0,1.628 -1.3203,2.949 -2.9489,2.949 -1.6286,0 -2.9488,-1.321 -2.9488,-2.949 0,-1.629 1.3202,-2.949 2.9488,-2.949 1.6286,0 2.9489,1.32 2.9489,2.949 z" />
      <path d="m 41.2838,206.42 c 0,1.629 -1.3203,2.949 -2.9489,2.949 -1.6286,0 -2.9488,-1.32 -2.9488,-2.949 0,-1.629 1.3202,-2.949 2.9488,-2.949 1.6286,0 2.9489,1.32 2.9489,2.949 z" />
      <path d="m 41.2838,218.215 c 0,1.629 -1.3203,2.949 -2.9489,2.949 -1.6286,0 -2.9488,-1.32 -2.9488,-2.949 0,-1.628 1.3202,-2.948 2.9488,-2.948 1.6286,0 2.9489,1.32 2.9489,2.948 z" />
      <path d="m 41.2838,230.011 c 0,1.628 -1.3203,2.949 -2.9489,2.949 -1.6286,0 -2.9488,-1.321 -2.9488,-2.949 0,-1.629 1.3202,-2.949 2.9488,-2.949 1.6286,0 2.9489,1.32 2.9489,2.949 z" />
      <path d="m 53.0791,-5.89686 c 0,1.62861 -1.3202,2.94885 -2.9488,2.94885 -1.6286,0 -2.9488,-1.32024 -2.9488,-2.94885 0,-1.6286 1.3202,-2.94884 2.9488,-2.94884 1.6286,0 2.9488,1.32024 2.9488,2.94884 z" />
      <path d="m 53.0791,5.89853 c 0,1.6286 -1.3202,2.94884 -2.9488,2.94884 -1.6286,0 -2.9488,-1.32024 -2.9488,-2.94884 0,-1.62861 1.3202,-2.94885 2.9488,-2.94885 1.6286,0 2.9488,1.32024 2.9488,2.94885 z" />
      <path d="m 53.0791,17.6939 c 0,1.6286 -1.3202,2.9489 -2.9488,2.9489 -1.6286,0 -2.9488,-1.3203 -2.9488,-2.9489 0,-1.6286 1.3202,-2.9488 2.9488,-2.9488 1.6286,0 2.9488,1.3202 2.9488,2.9488 z" />
      <path d="m 53.0791,29.4893 c 0,1.6286 -1.3202,2.9488 -2.9488,2.9488 -1.6286,0 -2.9488,-1.3202 -2.9488,-2.9488 0,-1.6286 1.3202,-2.9488 2.9488,-2.9488 1.6286,0 2.9488,1.3202 2.9488,2.9488 z" />
      <path d="m 53.0791,41.2847 c 0,1.6286 -1.3202,2.9488 -2.9488,2.9488 -1.6286,0 -2.9488,-1.3202 -2.9488,-2.9488 0,-1.6286 1.3202,-2.9489 2.9488,-2.9489 1.6286,0 2.9488,1.3203 2.9488,2.9489 z" />
      <path d="m 53.0791,53.0801 c 0,1.6286 -1.3202,2.9488 -2.9488,2.9488 -1.6286,0 -2.9488,-1.3202 -2.9488,-2.9488 0,-1.6286 1.3202,-2.9489 2.9488,-2.9489 1.6286,0 2.9488,1.3203 2.9488,2.9489 z" />
      <path d="m 53.0791,64.8754 c 0,1.6287 -1.3202,2.9489 -2.9488,2.9489 -1.6286,0 -2.9488,-1.3202 -2.9488,-2.9489 0,-1.6286 1.3202,-2.9488 2.9488,-2.9488 1.6286,0 2.9488,1.3202 2.9488,2.9488 z" />
      <path d="m 53.0791,76.6708 c 0,1.6286 -1.3202,2.9489 -2.9488,2.9489 -1.6286,0 -2.9488,-1.3203 -2.9488,-2.9489 0,-1.6286 1.3202,-2.9488 2.9488,-2.9488 1.6286,0 2.9488,1.3202 2.9488,2.9488 z" />
      <path d="m 53.0791,88.4662 c 0,1.6286 -1.3202,2.9489 -2.9488,2.9489 -1.6286,0 -2.9488,-1.3203 -2.9488,-2.9489 0,-1.6286 1.3202,-2.9488 2.9488,-2.9488 1.6286,0 2.9488,1.3202 2.9488,2.9488 z" />
      <path d="m 53.0791,100.262 c 0,1.628 -1.3202,2.948 -2.9488,2.948 -1.6286,0 -2.9488,-1.32 -2.9488,-2.948 0,-1.629 1.3202,-2.9492 2.9488,-2.9492 1.6286,0 2.9488,1.3202 2.9488,2.9492 z" />
      <path d="m 53.0791,112.057 c 0,1.629 -1.3202,2.949 -2.9488,2.949 -1.6286,0 -2.9488,-1.32 -2.9488,-2.949 0,-1.629 1.3202,-2.949 2.9488,-2.949 1.6286,0 2.9488,1.32 2.9488,2.949 z" />
      <path d="m 53.0791,123.852 c 0,1.629 -1.3202,2.949 -2.9488,2.949 -1.6286,0 -2.9488,-1.32 -2.9488,-2.949 0,-1.628 1.3202,-2.948 2.9488,-2.948 1.6286,0 2.9488,1.32 2.9488,2.948 z" />
      <path d="m 53.0791,135.648 c 0,1.628 -1.3202,2.949 -2.9488,2.949 -1.6286,0 -2.9488,-1.321 -2.9488,-2.949 0,-1.629 1.3202,-2.949 2.9488,-2.949 1.6286,0 2.9488,1.32 2.9488,2.949 z" />
      <path d="m 53.0791,147.443 c 0,1.629 -1.3202,2.949 -2.9488,2.949 -1.6286,0 -2.9488,-1.32 -2.9488,-2.949 0,-1.628 1.3202,-2.949 2.9488,-2.949 1.6286,0 2.9488,1.321 2.9488,2.949 z" />
      <path d="m 53.0791,159.239 c 0,1.628 -1.3202,2.948 -2.9488,2.948 -1.6286,0 -2.9488,-1.32 -2.9488,-2.948 0,-1.629 1.3202,-2.949 2.9488,-2.949 1.6286,0 2.9488,1.32 2.9488,2.949 z" />
      <path d="m 53.0791,171.034 c 0,1.629 -1.3202,2.949 -2.9488,2.949 -1.6286,0 -2.9488,-1.32 -2.9488,-2.949 0,-1.629 1.3202,-2.949 2.9488,-2.949 1.6286,0 2.9488,1.32 2.9488,2.949 z" />
      <path d="m 53.0791,182.829 c 0,1.629 -1.3202,2.949 -2.9488,2.949 -1.6286,0 -2.9488,-1.32 -2.9488,-2.949 0,-1.628 1.3202,-2.949 2.9488,-2.949 1.6286,0 2.9488,1.321 2.9488,2.949 z" />
      <path d="m 53.0791,194.625 c 0,1.628 -1.3202,2.949 -2.9488,2.949 -1.6286,0 -2.9488,-1.321 -2.9488,-2.949 0,-1.629 1.3202,-2.949 2.9488,-2.949 1.6286,0 2.9488,1.32 2.9488,2.949 z" />
      <path d="m 53.0791,206.42 c 0,1.629 -1.3202,2.949 -2.9488,2.949 -1.6286,0 -2.9488,-1.32 -2.9488,-2.949 0,-1.629 1.3202,-2.949 2.9488,-2.949 1.6286,0 2.9488,1.32 2.9488,2.949 z" />
      <path d="m 53.0791,218.215 c 0,1.629 -1.3202,2.949 -2.9488,2.949 -1.6286,0 -2.9488,-1.32 -2.9488,-2.949 0,-1.628 1.3202,-2.948 2.9488,-2.948 1.6286,0 2.9488,1.32 2.9488,2.948 z" />
      <path d="m 53.0791,230.011 c 0,1.628 -1.3202,2.949 -2.9488,2.949 -1.6286,0 -2.9488,-1.321 -2.9488,-2.949 0,-1.629 1.3202,-2.949 2.9488,-2.949 1.6286,0 2.9488,1.32 2.9488,2.949 z" />
      <path d="m 64.8745,-5.89686 c 0,1.62861 -1.3202,2.94885 -2.9488,2.94885 -1.6286,0 -2.9489,-1.32024 -2.9489,-2.94885 0,-1.6286 1.3203,-2.94884 2.9489,-2.94884 1.6286,0 2.9488,1.32024 2.9488,2.94884 z" />
      <path d="m 64.8745,5.89853 c 0,1.6286 -1.3202,2.94884 -2.9488,2.94884 -1.6286,0 -2.9489,-1.32024 -2.9489,-2.94884 0,-1.62861 1.3203,-2.94885 2.9489,-2.94885 1.6286,0 2.9488,1.32024 2.9488,2.94885 z" />
      <path d="m 64.8745,17.6939 c 0,1.6286 -1.3202,2.9489 -2.9488,2.9489 -1.6286,0 -2.9489,-1.3203 -2.9489,-2.9489 0,-1.6286 1.3203,-2.9488 2.9489,-2.9488 1.6286,0 2.9488,1.3202 2.9488,2.9488 z" />
      <path d="m 64.8745,29.4893 c 0,1.6286 -1.3202,2.9488 -2.9488,2.9488 -1.6286,0 -2.9489,-1.3202 -2.9489,-2.9488 0,-1.6286 1.3203,-2.9488 2.9489,-2.9488 1.6286,0 2.9488,1.3202 2.9488,2.9488 z" />
      <path d="m 64.8745,41.2847 c 0,1.6286 -1.3202,2.9488 -2.9488,2.9488 -1.6286,0 -2.9489,-1.3202 -2.9489,-2.9488 0,-1.6286 1.3203,-2.9489 2.9489,-2.9489 1.6286,0 2.9488,1.3203 2.9488,2.9489 z" />
      <path d="m 64.8745,53.0801 c 0,1.6286 -1.3202,2.9488 -2.9488,2.9488 -1.6286,0 -2.9489,-1.3202 -2.9489,-2.9488 0,-1.6286 1.3203,-2.9489 2.9489,-2.9489 1.6286,0 2.9488,1.3203 2.9488,2.9489 z" />
      <path d="m 64.8745,64.8754 c 0,1.6287 -1.3202,2.9489 -2.9488,2.9489 -1.6286,0 -2.9489,-1.3202 -2.9489,-2.9489 0,-1.6286 1.3203,-2.9488 2.9489,-2.9488 1.6286,0 2.9488,1.3202 2.9488,2.9488 z" />
      <path d="m 64.8745,76.6708 c 0,1.6286 -1.3202,2.9489 -2.9488,2.9489 -1.6286,0 -2.9489,-1.3203 -2.9489,-2.9489 0,-1.6286 1.3203,-2.9488 2.9489,-2.9488 1.6286,0 2.9488,1.3202 2.9488,2.9488 z" />
      <path d="m 64.8745,88.4662 c 0,1.6286 -1.3202,2.9489 -2.9488,2.9489 -1.6286,0 -2.9489,-1.3203 -2.9489,-2.9489 0,-1.6286 1.3203,-2.9488 2.9489,-2.9488 1.6286,0 2.9488,1.3202 2.9488,2.9488 z" />
      <path d="m 64.8745,100.262 c 0,1.628 -1.3202,2.948 -2.9488,2.948 -1.6286,0 -2.9489,-1.32 -2.9489,-2.948 0,-1.629 1.3203,-2.9492 2.9489,-2.9492 1.6286,0 2.9488,1.3202 2.9488,2.9492 z" />
      <path d="m 64.8745,112.057 c 0,1.629 -1.3202,2.949 -2.9488,2.949 -1.6286,0 -2.9489,-1.32 -2.9489,-2.949 0,-1.629 1.3203,-2.949 2.9489,-2.949 1.6286,0 2.9488,1.32 2.9488,2.949 z" />
      <path d="m 64.8745,123.852 c 0,1.629 -1.3202,2.949 -2.9488,2.949 -1.6286,0 -2.9489,-1.32 -2.9489,-2.949 0,-1.628 1.3203,-2.948 2.9489,-2.948 1.6286,0 2.9488,1.32 2.9488,2.948 z" />
      <path d="m 64.8745,135.648 c 0,1.628 -1.3202,2.949 -2.9488,2.949 -1.6286,0 -2.9489,-1.321 -2.9489,-2.949 0,-1.629 1.3203,-2.949 2.9489,-2.949 1.6286,0 2.9488,1.32 2.9488,2.949 z" />
      <path d="m 64.8745,147.443 c 0,1.629 -1.3202,2.949 -2.9488,2.949 -1.6286,0 -2.9489,-1.32 -2.9489,-2.949 0,-1.628 1.3203,-2.949 2.9489,-2.949 1.6286,0 2.9488,1.321 2.9488,2.949 z" />
      <path d="m 64.8745,159.239 c 0,1.628 -1.3202,2.948 -2.9488,2.948 -1.6286,0 -2.9489,-1.32 -2.9489,-2.948 0,-1.629 1.3203,-2.949 2.9489,-2.949 1.6286,0 2.9488,1.32 2.9488,2.949 z" />
      <path d="m 64.8745,171.034 c 0,1.629 -1.3202,2.949 -2.9488,2.949 -1.6286,0 -2.9489,-1.32 -2.9489,-2.949 0,-1.629 1.3203,-2.949 2.9489,-2.949 1.6286,0 2.9488,1.32 2.9488,2.949 z" />
      <path d="m 64.8745,182.829 c 0,1.629 -1.3202,2.949 -2.9488,2.949 -1.6286,0 -2.9489,-1.32 -2.9489,-2.949 0,-1.628 1.3203,-2.949 2.9489,-2.949 1.6286,0 2.9488,1.321 2.9488,2.949 z" />
      <path d="m 64.8745,194.625 c 0,1.628 -1.3202,2.949 -2.9488,2.949 -1.6286,0 -2.9489,-1.321 -2.9489,-2.949 0,-1.629 1.3203,-2.949 2.9489,-2.949 1.6286,0 2.9488,1.32 2.9488,2.949 z" />
      <path d="m 64.8745,206.42 c 0,1.629 -1.3202,2.949 -2.9488,2.949 -1.6286,0 -2.9489,-1.32 -2.9489,-2.949 0,-1.629 1.3203,-2.949 2.9489,-2.949 1.6286,0 2.9488,1.32 2.9488,2.949 z" />
      <path d="m 64.8745,218.215 c 0,1.629 -1.3202,2.949 -2.9488,2.949 -1.6286,0 -2.9489,-1.32 -2.9489,-2.949 0,-1.628 1.3203,-2.948 2.9489,-2.948 1.6286,0 2.9488,1.32 2.9488,2.948 z" />
      <path d="m 64.8745,230.011 c 0,1.628 -1.3202,2.949 -2.9488,2.949 -1.6286,0 -2.9489,-1.321 -2.9489,-2.949 0,-1.629 1.3203,-2.949 2.9489,-2.949 1.6286,0 2.9488,1.32 2.9488,2.949 z" />
      <path d="m 76.6699,-5.89686 c 0,1.62861 -1.3202,2.94885 -2.9488,2.94885 -1.6286,0 -2.9489,-1.32024 -2.9489,-2.94885 0,-1.6286 1.3203,-2.94884 2.9489,-2.94884 1.6286,0 2.9488,1.32024 2.9488,2.94884 z" />
      <path d="m 76.6699,5.89853 c 0,1.6286 -1.3202,2.94884 -2.9488,2.94884 -1.6286,0 -2.9489,-1.32024 -2.9489,-2.94884 0,-1.62861 1.3203,-2.94885 2.9489,-2.94885 1.6286,0 2.9488,1.32024 2.9488,2.94885 z" />
      <path d="m 76.6699,17.6939 c 0,1.6286 -1.3202,2.9489 -2.9488,2.9489 -1.6286,0 -2.9489,-1.3203 -2.9489,-2.9489 0,-1.6286 1.3203,-2.9488 2.9489,-2.9488 1.6286,0 2.9488,1.3202 2.9488,2.9488 z" />
      <path d="m 76.6699,29.4893 c 0,1.6286 -1.3202,2.9488 -2.9488,2.9488 -1.6286,0 -2.9489,-1.3202 -2.9489,-2.9488 0,-1.6286 1.3203,-2.9488 2.9489,-2.9488 1.6286,0 2.9488,1.3202 2.9488,2.9488 z" />
      <path d="m 76.6699,41.2847 c 0,1.6286 -1.3202,2.9488 -2.9488,2.9488 -1.6286,0 -2.9489,-1.3202 -2.9489,-2.9488 0,-1.6286 1.3203,-2.9489 2.9489,-2.9489 1.6286,0 2.9488,1.3203 2.9488,2.9489 z" />
      <path d="m 76.6699,53.0801 c 0,1.6286 -1.3202,2.9488 -2.9488,2.9488 -1.6286,0 -2.9489,-1.3202 -2.9489,-2.9488 0,-1.6286 1.3203,-2.9489 2.9489,-2.9489 1.6286,0 2.9488,1.3203 2.9488,2.9489 z" />
      <path d="m 76.6699,64.8754 c 0,1.6287 -1.3202,2.9489 -2.9488,2.9489 -1.6286,0 -2.9489,-1.3202 -2.9489,-2.9489 0,-1.6286 1.3203,-2.9488 2.9489,-2.9488 1.6286,0 2.9488,1.3202 2.9488,2.9488 z" />
      <path d="m 76.6699,76.6708 c 0,1.6286 -1.3202,2.9489 -2.9488,2.9489 -1.6286,0 -2.9489,-1.3203 -2.9489,-2.9489 0,-1.6286 1.3203,-2.9488 2.9489,-2.9488 1.6286,0 2.9488,1.3202 2.9488,2.9488 z" />
      <path d="m 76.6699,88.4662 c 0,1.6286 -1.3202,2.9489 -2.9488,2.9489 -1.6286,0 -2.9489,-1.3203 -2.9489,-2.9489 0,-1.6286 1.3203,-2.9488 2.9489,-2.9488 1.6286,0 2.9488,1.3202 2.9488,2.9488 z" />
      <path d="m 76.6699,100.262 c 0,1.628 -1.3202,2.948 -2.9488,2.948 -1.6286,0 -2.9489,-1.32 -2.9489,-2.948 0,-1.629 1.3203,-2.9492 2.9489,-2.9492 1.6286,0 2.9488,1.3202 2.9488,2.9492 z" />
      <path d="m 76.6699,112.057 c 0,1.629 -1.3202,2.949 -2.9488,2.949 -1.6286,0 -2.9489,-1.32 -2.9489,-2.949 0,-1.629 1.3203,-2.949 2.9489,-2.949 1.6286,0 2.9488,1.32 2.9488,2.949 z" />
      <path d="m 76.6699,123.852 c 0,1.629 -1.3202,2.949 -2.9488,2.949 -1.6286,0 -2.9489,-1.32 -2.9489,-2.949 0,-1.628 1.3203,-2.948 2.9489,-2.948 1.6286,0 2.9488,1.32 2.9488,2.948 z" />
      <path d="m 76.6699,135.648 c 0,1.628 -1.3202,2.949 -2.9488,2.949 -1.6286,0 -2.9489,-1.321 -2.9489,-2.949 0,-1.629 1.3203,-2.949 2.9489,-2.949 1.6286,0 2.9488,1.32 2.9488,2.949 z" />
      <path d="m 76.6699,147.443 c 0,1.629 -1.3202,2.949 -2.9488,2.949 -1.6286,0 -2.9489,-1.32 -2.9489,-2.949 0,-1.628 1.3203,-2.949 2.9489,-2.949 1.6286,0 2.9488,1.321 2.9488,2.949 z" />
      <path d="m 76.6699,159.239 c 0,1.628 -1.3202,2.948 -2.9488,2.948 -1.6286,0 -2.9489,-1.32 -2.9489,-2.948 0,-1.629 1.3203,-2.949 2.9489,-2.949 1.6286,0 2.9488,1.32 2.9488,2.949 z" />
      <path d="m 76.6699,171.034 c 0,1.629 -1.3202,2.949 -2.9488,2.949 -1.6286,0 -2.9489,-1.32 -2.9489,-2.949 0,-1.629 1.3203,-2.949 2.9489,-2.949 1.6286,0 2.9488,1.32 2.9488,2.949 z" />
      <path d="m 76.6699,182.829 c 0,1.629 -1.3202,2.949 -2.9488,2.949 -1.6286,0 -2.9489,-1.32 -2.9489,-2.949 0,-1.628 1.3203,-2.949 2.9489,-2.949 1.6286,0 2.9488,1.321 2.9488,2.949 z" />
      <path d="m 76.6699,194.625 c 0,1.628 -1.3202,2.949 -2.9488,2.949 -1.6286,0 -2.9489,-1.321 -2.9489,-2.949 0,-1.629 1.3203,-2.949 2.9489,-2.949 1.6286,0 2.9488,1.32 2.9488,2.949 z" />
      <path d="m 76.6699,206.42 c 0,1.629 -1.3202,2.949 -2.9488,2.949 -1.6286,0 -2.9489,-1.32 -2.9489,-2.949 0,-1.629 1.3203,-2.949 2.9489,-2.949 1.6286,0 2.9488,1.32 2.9488,2.949 z" />
      <path d="m 76.6699,218.215 c 0,1.629 -1.3202,2.949 -2.9488,2.949 -1.6286,0 -2.9489,-1.32 -2.9489,-2.949 0,-1.628 1.3203,-2.948 2.9489,-2.948 1.6286,0 2.9488,1.32 2.9488,2.948 z" />
      <path d="m 76.6699,230.011 c 0,1.628 -1.3202,2.949 -2.9488,2.949 -1.6286,0 -2.9489,-1.321 -2.9489,-2.949 0,-1.629 1.3203,-2.949 2.9489,-2.949 1.6286,0 2.9488,1.32 2.9488,2.949 z" />
      <path d="m 88.4653,-5.89686 c 0,1.62861 -1.3202,2.94885 -2.9489,2.94885 -1.6286,0 -2.9488,-1.32024 -2.9488,-2.94885 0,-1.6286 1.3202,-2.94884 2.9488,-2.94884 1.6287,0 2.9489,1.32024 2.9489,2.94884 z" />
      <path d="m 88.4653,5.89853 c 0,1.6286 -1.3202,2.94884 -2.9489,2.94884 -1.6286,0 -2.9488,-1.32024 -2.9488,-2.94884 0,-1.62861 1.3202,-2.94885 2.9488,-2.94885 1.6287,0 2.9489,1.32024 2.9489,2.94885 z" />
      <path d="m 88.4653,17.6939 c 0,1.6286 -1.3202,2.9489 -2.9489,2.9489 -1.6286,0 -2.9488,-1.3203 -2.9488,-2.9489 0,-1.6286 1.3202,-2.9488 2.9488,-2.9488 1.6287,0 2.9489,1.3202 2.9489,2.9488 z" />
      <path d="m 88.4653,29.4893 c 0,1.6286 -1.3202,2.9488 -2.9489,2.9488 -1.6286,0 -2.9488,-1.3202 -2.9488,-2.9488 0,-1.6286 1.3202,-2.9488 2.9488,-2.9488 1.6287,0 2.9489,1.3202 2.9489,2.9488 z" />
      <path d="m 88.4653,41.2847 c 0,1.6286 -1.3202,2.9488 -2.9489,2.9488 -1.6286,0 -2.9488,-1.3202 -2.9488,-2.9488 0,-1.6286 1.3202,-2.9489 2.9488,-2.9489 1.6287,0 2.9489,1.3203 2.9489,2.9489 z" />
      <path d="m 88.4653,53.0801 c 0,1.6286 -1.3202,2.9488 -2.9489,2.9488 -1.6286,0 -2.9488,-1.3202 -2.9488,-2.9488 0,-1.6286 1.3202,-2.9489 2.9488,-2.9489 1.6287,0 2.9489,1.3203 2.9489,2.9489 z" />
      <path d="m 88.4653,64.8754 c 0,1.6287 -1.3202,2.9489 -2.9489,2.9489 -1.6286,0 -2.9488,-1.3202 -2.9488,-2.9489 0,-1.6286 1.3202,-2.9488 2.9488,-2.9488 1.6287,0 2.9489,1.3202 2.9489,2.9488 z" />
      <path d="m 88.4653,76.6708 c 0,1.6286 -1.3202,2.9489 -2.9489,2.9489 -1.6286,0 -2.9488,-1.3203 -2.9488,-2.9489 0,-1.6286 1.3202,-2.9488 2.9488,-2.9488 1.6287,0 2.9489,1.3202 2.9489,2.9488 z" />
      <path d="m 88.4653,88.4662 c 0,1.6286 -1.3202,2.9489 -2.9489,2.9489 -1.6286,0 -2.9488,-1.3203 -2.9488,-2.9489 0,-1.6286 1.3202,-2.9488 2.9488,-2.9488 1.6287,0 2.9489,1.3202 2.9489,2.9488 z" />
      <path d="m 88.4653,100.262 c 0,1.628 -1.3202,2.948 -2.9489,2.948 -1.6286,0 -2.9488,-1.32 -2.9488,-2.948 0,-1.629 1.3202,-2.9492 2.9488,-2.9492 1.6287,0 2.9489,1.3202 2.9489,2.9492 z" />
      <path d="m 88.4653,112.057 c 0,1.629 -1.3202,2.949 -2.9489,2.949 -1.6286,0 -2.9488,-1.32 -2.9488,-2.949 0,-1.629 1.3202,-2.949 2.9488,-2.949 1.6287,0 2.9489,1.32 2.9489,2.949 z" />
      <path d="m 88.4653,123.852 c 0,1.629 -1.3202,2.949 -2.9489,2.949 -1.6286,0 -2.9488,-1.32 -2.9488,-2.949 0,-1.628 1.3202,-2.948 2.9488,-2.948 1.6287,0 2.9489,1.32 2.9489,2.948 z" />
      <path d="m 88.4653,135.648 c 0,1.628 -1.3202,2.949 -2.9489,2.949 -1.6286,0 -2.9488,-1.321 -2.9488,-2.949 0,-1.629 1.3202,-2.949 2.9488,-2.949 1.6287,0 2.9489,1.32 2.9489,2.949 z" />
      <path d="m 88.4653,147.443 c 0,1.629 -1.3202,2.949 -2.9489,2.949 -1.6286,0 -2.9488,-1.32 -2.9488,-2.949 0,-1.628 1.3202,-2.949 2.9488,-2.949 1.6287,0 2.9489,1.321 2.9489,2.949 z" />
      <path d="m 88.4653,159.239 c 0,1.628 -1.3202,2.948 -2.9489,2.948 -1.6286,0 -2.9488,-1.32 -2.9488,-2.948 0,-1.629 1.3202,-2.949 2.9488,-2.949 1.6287,0 2.9489,1.32 2.9489,2.949 z" />
      <path d="m 88.4653,171.034 c 0,1.629 -1.3202,2.949 -2.9489,2.949 -1.6286,0 -2.9488,-1.32 -2.9488,-2.949 0,-1.629 1.3202,-2.949 2.9488,-2.949 1.6287,0 2.9489,1.32 2.9489,2.949 z" />
      <path d="m 88.4653,182.829 c 0,1.629 -1.3202,2.949 -2.9489,2.949 -1.6286,0 -2.9488,-1.32 -2.9488,-2.949 0,-1.628 1.3202,-2.949 2.9488,-2.949 1.6287,0 2.9489,1.321 2.9489,2.949 z" />
      <path d="m 88.4653,194.625 c 0,1.628 -1.3202,2.949 -2.9489,2.949 -1.6286,0 -2.9488,-1.321 -2.9488,-2.949 0,-1.629 1.3202,-2.949 2.9488,-2.949 1.6287,0 2.9489,1.32 2.9489,2.949 z" />
      <path d="m 88.4653,206.42 c 0,1.629 -1.3202,2.949 -2.9489,2.949 -1.6286,0 -2.9488,-1.32 -2.9488,-2.949 0,-1.629 1.3202,-2.949 2.9488,-2.949 1.6287,0 2.9489,1.32 2.9489,2.949 z" />
      <path d="m 88.4653,218.215 c 0,1.629 -1.3202,2.949 -2.9489,2.949 -1.6286,0 -2.9488,-1.32 -2.9488,-2.949 0,-1.628 1.3202,-2.948 2.9488,-2.948 1.6287,0 2.9489,1.32 2.9489,2.948 z" />
      <path d="m 88.4653,230.011 c 0,1.628 -1.3202,2.949 -2.9489,2.949 -1.6286,0 -2.9488,-1.321 -2.9488,-2.949 0,-1.629 1.3202,-2.949 2.9488,-2.949 1.6287,0 2.9489,1.32 2.9489,2.949 z" />
      <path d="m 100.261,-5.89686 c 0,1.62861 -1.3206,2.94885 -2.9492,2.94885 -1.6286,0 -2.9488,-1.32024 -2.9488,-2.94885 0,-1.6286 1.3202,-2.94884 2.9488,-2.94884 1.6286,0 2.9492,1.32024 2.9492,2.94884 z" />
      <path d="m 100.261,5.89853 c 0,1.6286 -1.3206,2.94884 -2.9492,2.94884 -1.6286,0 -2.9488,-1.32024 -2.9488,-2.94884 0,-1.62861 1.3202,-2.94885 2.9488,-2.94885 1.6286,0 2.9492,1.32024 2.9492,2.94885 z" />
      <path d="m 100.261,17.6939 c 0,1.6286 -1.3206,2.9489 -2.9492,2.9489 -1.6286,0 -2.9488,-1.3203 -2.9488,-2.9489 0,-1.6286 1.3202,-2.9488 2.9488,-2.9488 1.6286,0 2.9492,1.3202 2.9492,2.9488 z" />
      <path d="m 100.261,29.4893 c 0,1.6286 -1.3206,2.9488 -2.9492,2.9488 -1.6286,0 -2.9488,-1.3202 -2.9488,-2.9488 0,-1.6286 1.3202,-2.9488 2.9488,-2.9488 1.6286,0 2.9492,1.3202 2.9492,2.9488 z" />
      <path d="m 100.261,41.2847 c 0,1.6286 -1.3206,2.9488 -2.9492,2.9488 -1.6286,0 -2.9488,-1.3202 -2.9488,-2.9488 0,-1.6286 1.3202,-2.9489 2.9488,-2.9489 1.6286,0 2.9492,1.3203 2.9492,2.9489 z" />
      <path d="m 100.261,53.0801 c 0,1.6286 -1.3206,2.9488 -2.9492,2.9488 -1.6286,0 -2.9488,-1.3202 -2.9488,-2.9488 0,-1.6286 1.3202,-2.9489 2.9488,-2.9489 1.6286,0 2.9492,1.3203 2.9492,2.9489 z" />
      <path d="m 100.261,64.8754 c 0,1.6287 -1.3206,2.9489 -2.9492,2.9489 -1.6286,0 -2.9488,-1.3202 -2.9488,-2.9489 0,-1.6286 1.3202,-2.9488 2.9488,-2.9488 1.6286,0 2.9492,1.3202 2.9492,2.9488 z" />
      <path d="m 100.261,76.6708 c 0,1.6286 -1.3206,2.9489 -2.9492,2.9489 -1.6286,0 -2.9488,-1.3203 -2.9488,-2.9489 0,-1.6286 1.3202,-2.9488 2.9488,-2.9488 1.6286,0 2.9492,1.3202 2.9492,2.9488 z" />
      <path d="m 100.261,88.4662 c 0,1.6286 -1.3206,2.9489 -2.9492,2.9489 -1.6286,0 -2.9488,-1.3203 -2.9488,-2.9489 0,-1.6286 1.3202,-2.9488 2.9488,-2.9488 1.6286,0 2.9492,1.3202 2.9492,2.9488 z" />
      <path d="m 100.261,100.262 c 0,1.628 -1.3206,2.948 -2.9492,2.948 -1.6286,0 -2.9488,-1.32 -2.9488,-2.948 0,-1.629 1.3202,-2.9492 2.9488,-2.9492 1.6286,0 2.9492,1.3202 2.9492,2.9492 z" />
      <path d="m 100.261,112.057 c 0,1.629 -1.3206,2.949 -2.9492,2.949 -1.6286,0 -2.9488,-1.32 -2.9488,-2.949 0,-1.629 1.3202,-2.949 2.9488,-2.949 1.6286,0 2.9492,1.32 2.9492,2.949 z" />
      <path d="m 100.261,123.852 c 0,1.629 -1.3206,2.949 -2.9492,2.949 -1.6286,0 -2.9488,-1.32 -2.9488,-2.949 0,-1.628 1.3202,-2.948 2.9488,-2.948 1.6286,0 2.9492,1.32 2.9492,2.948 z" />
      <path d="m 100.261,135.648 c 0,1.628 -1.3206,2.949 -2.9492,2.949 -1.6286,0 -2.9488,-1.321 -2.9488,-2.949 0,-1.629 1.3202,-2.949 2.9488,-2.949 1.6286,0 2.9492,1.32 2.9492,2.949 z" />
      <path d="m 100.261,147.443 c 0,1.629 -1.3206,2.949 -2.9492,2.949 -1.6286,0 -2.9488,-1.32 -2.9488,-2.949 0,-1.628 1.3202,-2.949 2.9488,-2.949 1.6286,0 2.9492,1.321 2.9492,2.949 z" />
      <path d="m 100.261,159.239 c 0,1.628 -1.3206,2.948 -2.9492,2.948 -1.6286,0 -2.9488,-1.32 -2.9488,-2.948 0,-1.629 1.3202,-2.949 2.9488,-2.949 1.6286,0 2.9492,1.32 2.9492,2.949 z" />
      <path d="m 100.261,171.034 c 0,1.629 -1.3206,2.949 -2.9492,2.949 -1.6286,0 -2.9488,-1.32 -2.9488,-2.949 0,-1.629 1.3202,-2.949 2.9488,-2.949 1.6286,0 2.9492,1.32 2.9492,2.949 z" />
      <path d="m 100.261,182.829 c 0,1.629 -1.3206,2.949 -2.9492,2.949 -1.6286,0 -2.9488,-1.32 -2.9488,-2.949 0,-1.628 1.3202,-2.949 2.9488,-2.949 1.6286,0 2.9492,1.321 2.9492,2.949 z" />
      <path d="m 100.261,194.625 c 0,1.628 -1.3206,2.949 -2.9492,2.949 -1.6286,0 -2.9488,-1.321 -2.9488,-2.949 0,-1.629 1.3202,-2.949 2.9488,-2.949 1.6286,0 2.9492,1.32 2.9492,2.949 z" />
      <path d="m 100.261,206.42 c 0,1.629 -1.3206,2.949 -2.9492,2.949 -1.6286,0 -2.9488,-1.32 -2.9488,-2.949 0,-1.629 1.3202,-2.949 2.9488,-2.949 1.6286,0 2.9492,1.32 2.9492,2.949 z" />
      <path d="m 100.261,218.215 c 0,1.629 -1.3206,2.949 -2.9492,2.949 -1.6286,0 -2.9488,-1.32 -2.9488,-2.949 0,-1.628 1.3202,-2.948 2.9488,-2.948 1.6286,0 2.9492,1.32 2.9492,2.948 z" />
      <path d="m 100.261,230.011 c 0,1.628 -1.3206,2.949 -2.9492,2.949 -1.6286,0 -2.9488,-1.321 -2.9488,-2.949 0,-1.629 1.3202,-2.949 2.9488,-2.949 1.6286,0 2.9492,1.32 2.9492,2.949 z" />
      <path d="m 112.056,-5.89686 c 0,1.62861 -1.32,2.94885 -2.949,2.94885 -1.628,0 -2.949,-1.32024 -2.949,-2.94885 0,-1.6286 1.321,-2.94884 2.949,-2.94884 1.629,0 2.949,1.32024 2.949,2.94884 z" />
      <path d="m 112.056,5.89853 c 0,1.6286 -1.32,2.94884 -2.949,2.94884 -1.628,0 -2.949,-1.32024 -2.949,-2.94884 0,-1.62861 1.321,-2.94885 2.949,-2.94885 1.629,0 2.949,1.32024 2.949,2.94885 z" />
      <path d="m 112.056,17.6939 c 0,1.6286 -1.32,2.9489 -2.949,2.9489 -1.628,0 -2.949,-1.3203 -2.949,-2.9489 0,-1.6286 1.321,-2.9488 2.949,-2.9488 1.629,0 2.949,1.3202 2.949,2.9488 z" />
      <path d="m 112.056,29.4893 c 0,1.6286 -1.32,2.9488 -2.949,2.9488 -1.628,0 -2.949,-1.3202 -2.949,-2.9488 0,-1.6286 1.321,-2.9488 2.949,-2.9488 1.629,0 2.949,1.3202 2.949,2.9488 z" />
      <path d="m 112.056,41.2847 c 0,1.6286 -1.32,2.9488 -2.949,2.9488 -1.628,0 -2.949,-1.3202 -2.949,-2.9488 0,-1.6286 1.321,-2.9489 2.949,-2.9489 1.629,0 2.949,1.3203 2.949,2.9489 z" />
      <path d="m 112.056,53.0801 c 0,1.6286 -1.32,2.9488 -2.949,2.9488 -1.628,0 -2.949,-1.3202 -2.949,-2.9488 0,-1.6286 1.321,-2.9489 2.949,-2.9489 1.629,0 2.949,1.3203 2.949,2.9489 z" />
      <path d="m 112.056,64.8754 c 0,1.6287 -1.32,2.9489 -2.949,2.9489 -1.628,0 -2.949,-1.3202 -2.949,-2.9489 0,-1.6286 1.321,-2.9488 2.949,-2.9488 1.629,0 2.949,1.3202 2.949,2.9488 z" />
      <path d="m 112.056,76.6708 c 0,1.6286 -1.32,2.9489 -2.949,2.9489 -1.628,0 -2.949,-1.3203 -2.949,-2.9489 0,-1.6286 1.321,-2.9488 2.949,-2.9488 1.629,0 2.949,1.3202 2.949,2.9488 z" />
      <path d="m 112.056,88.4662 c 0,1.6286 -1.32,2.9489 -2.949,2.9489 -1.628,0 -2.949,-1.3203 -2.949,-2.9489 0,-1.6286 1.321,-2.9488 2.949,-2.9488 1.629,0 2.949,1.3202 2.949,2.9488 z" />
      <path d="m 112.056,100.262 c 0,1.628 -1.32,2.948 -2.949,2.948 -1.628,0 -2.949,-1.32 -2.949,-2.948 0,-1.629 1.321,-2.9492 2.949,-2.9492 1.629,0 2.949,1.3202 2.949,2.9492 z" />
      <path d="m 112.056,112.057 c 0,1.629 -1.32,2.949 -2.949,2.949 -1.628,0 -2.949,-1.32 -2.949,-2.949 0,-1.629 1.321,-2.949 2.949,-2.949 1.629,0 2.949,1.32 2.949,2.949 z" />
      <path d="m 112.056,123.852 c 0,1.629 -1.32,2.949 -2.949,2.949 -1.628,0 -2.949,-1.32 -2.949,-2.949 0,-1.628 1.321,-2.948 2.949,-2.948 1.629,0 2.949,1.32 2.949,2.948 z" />
      <path d="m 112.056,135.648 c 0,1.628 -1.32,2.949 -2.949,2.949 -1.628,0 -2.949,-1.321 -2.949,-2.949 0,-1.629 1.321,-2.949 2.949,-2.949 1.629,0 2.949,1.32 2.949,2.949 z" />
      <path d="m 112.056,147.443 c 0,1.629 -1.32,2.949 -2.949,2.949 -1.628,0 -2.949,-1.32 -2.949,-2.949 0,-1.628 1.321,-2.949 2.949,-2.949 1.629,0 2.949,1.321 2.949,2.949 z" />
      <path d="m 112.056,159.239 c 0,1.628 -1.32,2.948 -2.949,2.948 -1.628,0 -2.949,-1.32 -2.949,-2.948 0,-1.629 1.321,-2.949 2.949,-2.949 1.629,0 2.949,1.32 2.949,2.949 z" />
      <path d="m 112.056,171.034 c 0,1.629 -1.32,2.949 -2.949,2.949 -1.628,0 -2.949,-1.32 -2.949,-2.949 0,-1.629 1.321,-2.949 2.949,-2.949 1.629,0 2.949,1.32 2.949,2.949 z" />
      <path d="m 112.056,182.829 c 0,1.629 -1.32,2.949 -2.949,2.949 -1.628,0 -2.949,-1.32 -2.949,-2.949 0,-1.628 1.321,-2.949 2.949,-2.949 1.629,0 2.949,1.321 2.949,2.949 z" />
      <path d="m 112.056,194.625 c 0,1.628 -1.32,2.949 -2.949,2.949 -1.628,0 -2.949,-1.321 -2.949,-2.949 0,-1.629 1.321,-2.949 2.949,-2.949 1.629,0 2.949,1.32 2.949,2.949 z" />
      <path d="m 112.056,206.42 c 0,1.629 -1.32,2.949 -2.949,2.949 -1.628,0 -2.949,-1.32 -2.949,-2.949 0,-1.629 1.321,-2.949 2.949,-2.949 1.629,0 2.949,1.32 2.949,2.949 z" />
      <path d="m 112.056,218.215 c 0,1.629 -1.32,2.949 -2.949,2.949 -1.628,0 -2.949,-1.32 -2.949,-2.949 0,-1.628 1.321,-2.948 2.949,-2.948 1.629,0 2.949,1.32 2.949,2.948 z" />
      <path d="m 112.056,230.011 c 0,1.628 -1.32,2.949 -2.949,2.949 -1.628,0 -2.949,-1.321 -2.949,-2.949 0,-1.629 1.321,-2.949 2.949,-2.949 1.629,0 2.949,1.32 2.949,2.949 z" />
      <path d="m 123.851,-5.89686 c 0,1.62861 -1.32,2.94885 -2.948,2.94885 -1.629,0 -2.949,-1.32024 -2.949,-2.94885 0,-1.6286 1.32,-2.94884 2.949,-2.94884 1.628,0 2.948,1.32024 2.948,2.94884 z" />
      <path d="m 123.851,5.89853 c 0,1.6286 -1.32,2.94884 -2.948,2.94884 -1.629,0 -2.949,-1.32024 -2.949,-2.94884 0,-1.62861 1.32,-2.94885 2.949,-2.94885 1.628,0 2.948,1.32024 2.948,2.94885 z" />
      <path d="m 123.851,17.6939 c 0,1.6286 -1.32,2.9489 -2.948,2.9489 -1.629,0 -2.949,-1.3203 -2.949,-2.9489 0,-1.6286 1.32,-2.9488 2.949,-2.9488 1.628,0 2.948,1.3202 2.948,2.9488 z" />
      <path d="m 123.851,29.4893 c 0,1.6286 -1.32,2.9488 -2.948,2.9488 -1.629,0 -2.949,-1.3202 -2.949,-2.9488 0,-1.6286 1.32,-2.9488 2.949,-2.9488 1.628,0 2.948,1.3202 2.948,2.9488 z" />
      <path d="m 123.851,41.2847 c 0,1.6286 -1.32,2.9488 -2.948,2.9488 -1.629,0 -2.949,-1.3202 -2.949,-2.9488 0,-1.6286 1.32,-2.9489 2.949,-2.9489 1.628,0 2.948,1.3203 2.948,2.9489 z" />
      <path d="m 123.851,53.0801 c 0,1.6286 -1.32,2.9488 -2.948,2.9488 -1.629,0 -2.949,-1.3202 -2.949,-2.9488 0,-1.6286 1.32,-2.9489 2.949,-2.9489 1.628,0 2.948,1.3203 2.948,2.9489 z" />
      <path d="m 123.851,64.8754 c 0,1.6287 -1.32,2.9489 -2.948,2.9489 -1.629,0 -2.949,-1.3202 -2.949,-2.9489 0,-1.6286 1.32,-2.9488 2.949,-2.9488 1.628,0 2.948,1.3202 2.948,2.9488 z" />
      <path d="m 123.851,76.6708 c 0,1.6286 -1.32,2.9489 -2.948,2.9489 -1.629,0 -2.949,-1.3203 -2.949,-2.9489 0,-1.6286 1.32,-2.9488 2.949,-2.9488 1.628,0 2.948,1.3202 2.948,2.9488 z" />
      <path d="m 123.851,88.4662 c 0,1.6286 -1.32,2.9489 -2.948,2.9489 -1.629,0 -2.949,-1.3203 -2.949,-2.9489 0,-1.6286 1.32,-2.9488 2.949,-2.9488 1.628,0 2.948,1.3202 2.948,2.9488 z" />
      <path d="m 123.851,100.262 c 0,1.628 -1.32,2.948 -2.948,2.948 -1.629,0 -2.949,-1.32 -2.949,-2.948 0,-1.629 1.32,-2.9492 2.949,-2.9492 1.628,0 2.948,1.3202 2.948,2.9492 z" />
      <path d="m 123.851,112.057 c 0,1.629 -1.32,2.949 -2.948,2.949 -1.629,0 -2.949,-1.32 -2.949,-2.949 0,-1.629 1.32,-2.949 2.949,-2.949 1.628,0 2.948,1.32 2.948,2.949 z" />
      <path d="m 123.851,123.852 c 0,1.629 -1.32,2.949 -2.948,2.949 -1.629,0 -2.949,-1.32 -2.949,-2.949 0,-1.628 1.32,-2.948 2.949,-2.948 1.628,0 2.948,1.32 2.948,2.948 z" />
      <path d="m 123.851,135.648 c 0,1.628 -1.32,2.949 -2.948,2.949 -1.629,0 -2.949,-1.321 -2.949,-2.949 0,-1.629 1.32,-2.949 2.949,-2.949 1.628,0 2.948,1.32 2.948,2.949 z" />
      <path d="m 123.851,147.443 c 0,1.629 -1.32,2.949 -2.948,2.949 -1.629,0 -2.949,-1.32 -2.949,-2.949 0,-1.628 1.32,-2.949 2.949,-2.949 1.628,0 2.948,1.321 2.948,2.949 z" />
      <path d="m 123.851,159.239 c 0,1.628 -1.32,2.948 -2.948,2.948 -1.629,0 -2.949,-1.32 -2.949,-2.948 0,-1.629 1.32,-2.949 2.949,-2.949 1.628,0 2.948,1.32 2.948,2.949 z" />
      <path d="m 123.851,171.034 c 0,1.629 -1.32,2.949 -2.948,2.949 -1.629,0 -2.949,-1.32 -2.949,-2.949 0,-1.629 1.32,-2.949 2.949,-2.949 1.628,0 2.948,1.32 2.948,2.949 z" />
      <path d="m 123.851,182.829 c 0,1.629 -1.32,2.949 -2.948,2.949 -1.629,0 -2.949,-1.32 -2.949,-2.949 0,-1.628 1.32,-2.949 2.949,-2.949 1.628,0 2.948,1.321 2.948,2.949 z" />
      <path d="m 123.851,194.625 c 0,1.628 -1.32,2.949 -2.948,2.949 -1.629,0 -2.949,-1.321 -2.949,-2.949 0,-1.629 1.32,-2.949 2.949,-2.949 1.628,0 2.948,1.32 2.948,2.949 z" />
      <path d="m 123.851,206.42 c 0,1.629 -1.32,2.949 -2.948,2.949 -1.629,0 -2.949,-1.32 -2.949,-2.949 0,-1.629 1.32,-2.949 2.949,-2.949 1.628,0 2.948,1.32 2.948,2.949 z" />
      <path d="m 123.851,218.215 c 0,1.629 -1.32,2.949 -2.948,2.949 -1.629,0 -2.949,-1.32 -2.949,-2.949 0,-1.628 1.32,-2.948 2.949,-2.948 1.628,0 2.948,1.32 2.948,2.948 z" />
      <path d="m 123.851,230.011 c 0,1.628 -1.32,2.949 -2.948,2.949 -1.629,0 -2.949,-1.321 -2.949,-2.949 0,-1.629 1.32,-2.949 2.949,-2.949 1.628,0 2.948,1.32 2.948,2.949 z" />
      <path d="m 135.647,-5.89686 c 0,1.62861 -1.32,2.94885 -2.949,2.94885 -1.629,0 -2.949,-1.32024 -2.949,-2.94885 0,-1.6286 1.32,-2.94884 2.949,-2.94884 1.629,0 2.949,1.32024 2.949,2.94884 z" />
      <path d="m 135.647,5.89853 c 0,1.6286 -1.32,2.94884 -2.949,2.94884 -1.629,0 -2.949,-1.32024 -2.949,-2.94884 0,-1.62861 1.32,-2.94885 2.949,-2.94885 1.629,0 2.949,1.32024 2.949,2.94885 z" />
      <path d="m 135.647,17.6939 c 0,1.6286 -1.32,2.9489 -2.949,2.9489 -1.629,0 -2.949,-1.3203 -2.949,-2.9489 0,-1.6286 1.32,-2.9488 2.949,-2.9488 1.629,0 2.949,1.3202 2.949,2.9488 z" />
      <path d="m 135.647,29.4893 c 0,1.6286 -1.32,2.9488 -2.949,2.9488 -1.629,0 -2.949,-1.3202 -2.949,-2.9488 0,-1.6286 1.32,-2.9488 2.949,-2.9488 1.629,0 2.949,1.3202 2.949,2.9488 z" />
      <path d="m 135.647,41.2847 c 0,1.6286 -1.32,2.9488 -2.949,2.9488 -1.629,0 -2.949,-1.3202 -2.949,-2.9488 0,-1.6286 1.32,-2.9489 2.949,-2.9489 1.629,0 2.949,1.3203 2.949,2.9489 z" />
      <path d="m 135.647,53.0801 c 0,1.6286 -1.32,2.9488 -2.949,2.9488 -1.629,0 -2.949,-1.3202 -2.949,-2.9488 0,-1.6286 1.32,-2.9489 2.949,-2.9489 1.629,0 2.949,1.3203 2.949,2.9489 z" />
      <path d="m 135.647,64.8754 c 0,1.6287 -1.32,2.9489 -2.949,2.9489 -1.629,0 -2.949,-1.3202 -2.949,-2.9489 0,-1.6286 1.32,-2.9488 2.949,-2.9488 1.629,0 2.949,1.3202 2.949,2.9488 z" />
      <path d="m 135.647,76.6708 c 0,1.6286 -1.32,2.9489 -2.949,2.9489 -1.629,0 -2.949,-1.3203 -2.949,-2.9489 0,-1.6286 1.32,-2.9488 2.949,-2.9488 1.629,0 2.949,1.3202 2.949,2.9488 z" />
      <path d="m 135.647,88.4662 c 0,1.6286 -1.32,2.9489 -2.949,2.9489 -1.629,0 -2.949,-1.3203 -2.949,-2.9489 0,-1.6286 1.32,-2.9488 2.949,-2.9488 1.629,0 2.949,1.3202 2.949,2.9488 z" />
      <path d="m 135.647,100.262 c 0,1.628 -1.32,2.948 -2.949,2.948 -1.629,0 -2.949,-1.32 -2.949,-2.948 0,-1.629 1.32,-2.9492 2.949,-2.9492 1.629,0 2.949,1.3202 2.949,2.9492 z" />
      <path d="m 135.647,112.057 c 0,1.629 -1.32,2.949 -2.949,2.949 -1.629,0 -2.949,-1.32 -2.949,-2.949 0,-1.629 1.32,-2.949 2.949,-2.949 1.629,0 2.949,1.32 2.949,2.949 z" />
      <path d="m 135.647,123.852 c 0,1.629 -1.32,2.949 -2.949,2.949 -1.629,0 -2.949,-1.32 -2.949,-2.949 0,-1.628 1.32,-2.948 2.949,-2.948 1.629,0 2.949,1.32 2.949,2.948 z" />
      <path d="m 135.647,135.648 c 0,1.628 -1.32,2.949 -2.949,2.949 -1.629,0 -2.949,-1.321 -2.949,-2.949 0,-1.629 1.32,-2.949 2.949,-2.949 1.629,0 2.949,1.32 2.949,2.949 z" />
      <path d="m 135.647,147.443 c 0,1.629 -1.32,2.949 -2.949,2.949 -1.629,0 -2.949,-1.32 -2.949,-2.949 0,-1.628 1.32,-2.949 2.949,-2.949 1.629,0 2.949,1.321 2.949,2.949 z" />
      <path d="m 135.647,159.239 c 0,1.628 -1.32,2.948 -2.949,2.948 -1.629,0 -2.949,-1.32 -2.949,-2.948 0,-1.629 1.32,-2.949 2.949,-2.949 1.629,0 2.949,1.32 2.949,2.949 z" />
      <path d="m 135.647,171.034 c 0,1.629 -1.32,2.949 -2.949,2.949 -1.629,0 -2.949,-1.32 -2.949,-2.949 0,-1.629 1.32,-2.949 2.949,-2.949 1.629,0 2.949,1.32 2.949,2.949 z" />
      <path d="m 135.647,182.829 c 0,1.629 -1.32,2.949 -2.949,2.949 -1.629,0 -2.949,-1.32 -2.949,-2.949 0,-1.628 1.32,-2.949 2.949,-2.949 1.629,0 2.949,1.321 2.949,2.949 z" />
      <path d="m 135.647,194.625 c 0,1.628 -1.32,2.949 -2.949,2.949 -1.629,0 -2.949,-1.321 -2.949,-2.949 0,-1.629 1.32,-2.949 2.949,-2.949 1.629,0 2.949,1.32 2.949,2.949 z" />
      <path d="m 135.647,206.42 c 0,1.629 -1.32,2.949 -2.949,2.949 -1.629,0 -2.949,-1.32 -2.949,-2.949 0,-1.629 1.32,-2.949 2.949,-2.949 1.629,0 2.949,1.32 2.949,2.949 z" />
      <path d="m 135.647,218.215 c 0,1.629 -1.32,2.949 -2.949,2.949 -1.629,0 -2.949,-1.32 -2.949,-2.949 0,-1.628 1.32,-2.948 2.949,-2.948 1.629,0 2.949,1.32 2.949,2.948 z" />
      <path d="m 135.647,230.011 c 0,1.628 -1.32,2.949 -2.949,2.949 -1.629,0 -2.949,-1.321 -2.949,-2.949 0,-1.629 1.32,-2.949 2.949,-2.949 1.629,0 2.949,1.32 2.949,2.949 z" />
      <path d="m 147.442,-5.89686 c 0,1.62861 -1.32,2.94885 -2.949,2.94885 -1.628,0 -2.948,-1.32024 -2.948,-2.94885 0,-1.6286 1.32,-2.94884 2.948,-2.94884 1.629,0 2.949,1.32024 2.949,2.94884 z" />
      <path d="m 147.442,5.89853 c 0,1.6286 -1.32,2.94884 -2.949,2.94884 -1.628,0 -2.948,-1.32024 -2.948,-2.94884 0,-1.62861 1.32,-2.94885 2.948,-2.94885 1.629,0 2.949,1.32024 2.949,2.94885 z" />
      <path d="m 147.442,17.6939 c 0,1.6286 -1.32,2.9489 -2.949,2.9489 -1.628,0 -2.948,-1.3203 -2.948,-2.9489 0,-1.6286 1.32,-2.9488 2.948,-2.9488 1.629,0 2.949,1.3202 2.949,2.9488 z" />
      <path d="m 147.442,29.4893 c 0,1.6286 -1.32,2.9488 -2.949,2.9488 -1.628,0 -2.948,-1.3202 -2.948,-2.9488 0,-1.6286 1.32,-2.9488 2.948,-2.9488 1.629,0 2.949,1.3202 2.949,2.9488 z" />
      <path d="m 147.442,41.2847 c 0,1.6286 -1.32,2.9488 -2.949,2.9488 -1.628,0 -2.948,-1.3202 -2.948,-2.9488 0,-1.6286 1.32,-2.9489 2.948,-2.9489 1.629,0 2.949,1.3203 2.949,2.9489 z" />
      <path d="m 147.442,53.0801 c 0,1.6286 -1.32,2.9488 -2.949,2.9488 -1.628,0 -2.948,-1.3202 -2.948,-2.9488 0,-1.6286 1.32,-2.9489 2.948,-2.9489 1.629,0 2.949,1.3203 2.949,2.9489 z" />
      <path d="m 147.442,64.8754 c 0,1.6287 -1.32,2.9489 -2.949,2.9489 -1.628,0 -2.948,-1.3202 -2.948,-2.9489 0,-1.6286 1.32,-2.9488 2.948,-2.9488 1.629,0 2.949,1.3202 2.949,2.9488 z" />
      <path d="m 147.442,76.6708 c 0,1.6286 -1.32,2.9489 -2.949,2.9489 -1.628,0 -2.948,-1.3203 -2.948,-2.9489 0,-1.6286 1.32,-2.9488 2.948,-2.9488 1.629,0 2.949,1.3202 2.949,2.9488 z" />
      <path d="m 147.442,88.4662 c 0,1.6286 -1.32,2.9489 -2.949,2.9489 -1.628,0 -2.948,-1.3203 -2.948,-2.9489 0,-1.6286 1.32,-2.9488 2.948,-2.9488 1.629,0 2.949,1.3202 2.949,2.9488 z" />
      <path d="m 147.442,100.262 c 0,1.628 -1.32,2.948 -2.949,2.948 -1.628,0 -2.948,-1.32 -2.948,-2.948 0,-1.629 1.32,-2.9492 2.948,-2.9492 1.629,0 2.949,1.3202 2.949,2.9492 z" />
      <path d="m 147.442,112.057 c 0,1.629 -1.32,2.949 -2.949,2.949 -1.628,0 -2.948,-1.32 -2.948,-2.949 0,-1.629 1.32,-2.949 2.948,-2.949 1.629,0 2.949,1.32 2.949,2.949 z" />
      <path d="m 147.442,123.852 c 0,1.629 -1.32,2.949 -2.949,2.949 -1.628,0 -2.948,-1.32 -2.948,-2.949 0,-1.628 1.32,-2.948 2.948,-2.948 1.629,0 2.949,1.32 2.949,2.948 z" />
      <path d="m 147.442,135.648 c 0,1.628 -1.32,2.949 -2.949,2.949 -1.628,0 -2.948,-1.321 -2.948,-2.949 0,-1.629 1.32,-2.949 2.948,-2.949 1.629,0 2.949,1.32 2.949,2.949 z" />
      <path d="m 147.442,147.443 c 0,1.629 -1.32,2.949 -2.949,2.949 -1.628,0 -2.948,-1.32 -2.948,-2.949 0,-1.628 1.32,-2.949 2.948,-2.949 1.629,0 2.949,1.321 2.949,2.949 z" />
      <path d="m 147.442,159.239 c 0,1.628 -1.32,2.948 -2.949,2.948 -1.628,0 -2.948,-1.32 -2.948,-2.948 0,-1.629 1.32,-2.949 2.948,-2.949 1.629,0 2.949,1.32 2.949,2.949 z" />
      <path d="m 147.442,171.034 c 0,1.629 -1.32,2.949 -2.949,2.949 -1.628,0 -2.948,-1.32 -2.948,-2.949 0,-1.629 1.32,-2.949 2.948,-2.949 1.629,0 2.949,1.32 2.949,2.949 z" />
      <path d="m 147.442,182.829 c 0,1.629 -1.32,2.949 -2.949,2.949 -1.628,0 -2.948,-1.32 -2.948,-2.949 0,-1.628 1.32,-2.949 2.948,-2.949 1.629,0 2.949,1.321 2.949,2.949 z" />
      <path d="m 147.442,194.625 c 0,1.628 -1.32,2.949 -2.949,2.949 -1.628,0 -2.948,-1.321 -2.948,-2.949 0,-1.629 1.32,-2.949 2.948,-2.949 1.629,0 2.949,1.32 2.949,2.949 z" />
      <path d="m 147.442,206.42 c 0,1.629 -1.32,2.949 -2.949,2.949 -1.628,0 -2.948,-1.32 -2.948,-2.949 0,-1.629 1.32,-2.949 2.948,-2.949 1.629,0 2.949,1.32 2.949,2.949 z" />
      <path d="m 147.442,218.215 c 0,1.629 -1.32,2.949 -2.949,2.949 -1.628,0 -2.948,-1.32 -2.948,-2.949 0,-1.628 1.32,-2.948 2.948,-2.948 1.629,0 2.949,1.32 2.949,2.948 z" />
      <path d="m 147.442,230.011 c 0,1.628 -1.32,2.949 -2.949,2.949 -1.628,0 -2.948,-1.321 -2.948,-2.949 0,-1.629 1.32,-2.949 2.948,-2.949 1.629,0 2.949,1.32 2.949,2.949 z" />
      <path d="m 159.238,-5.89686 c 0,1.62861 -1.321,2.94885 -2.949,2.94885 -1.629,0 -2.949,-1.32024 -2.949,-2.94885 0,-1.6286 1.32,-2.94884 2.949,-2.94884 1.628,0 2.949,1.32024 2.949,2.94884 z" />
      <path d="m 159.238,5.89853 c 0,1.6286 -1.321,2.94884 -2.949,2.94884 -1.629,0 -2.949,-1.32024 -2.949,-2.94884 0,-1.62861 1.32,-2.94885 2.949,-2.94885 1.628,0 2.949,1.32024 2.949,2.94885 z" />
      <path d="m 159.238,17.6939 c 0,1.6286 -1.321,2.9489 -2.949,2.9489 -1.629,0 -2.949,-1.3203 -2.949,-2.9489 0,-1.6286 1.32,-2.9488 2.949,-2.9488 1.628,0 2.949,1.3202 2.949,2.9488 z" />
      <path d="m 159.238,29.4893 c 0,1.6286 -1.321,2.9488 -2.949,2.9488 -1.629,0 -2.949,-1.3202 -2.949,-2.9488 0,-1.6286 1.32,-2.9488 2.949,-2.9488 1.628,0 2.949,1.3202 2.949,2.9488 z" />
      <path d="m 159.238,41.2847 c 0,1.6286 -1.321,2.9488 -2.949,2.9488 -1.629,0 -2.949,-1.3202 -2.949,-2.9488 0,-1.6286 1.32,-2.9489 2.949,-2.9489 1.628,0 2.949,1.3203 2.949,2.9489 z" />
      <path d="m 159.238,53.0801 c 0,1.6286 -1.321,2.9488 -2.949,2.9488 -1.629,0 -2.949,-1.3202 -2.949,-2.9488 0,-1.6286 1.32,-2.9489 2.949,-2.9489 1.628,0 2.949,1.3203 2.949,2.9489 z" />
      <path d="m 159.238,64.8754 c 0,1.6287 -1.321,2.9489 -2.949,2.9489 -1.629,0 -2.949,-1.3202 -2.949,-2.9489 0,-1.6286 1.32,-2.9488 2.949,-2.9488 1.628,0 2.949,1.3202 2.949,2.9488 z" />
      <path d="m 159.238,76.6708 c 0,1.6286 -1.321,2.9489 -2.949,2.9489 -1.629,0 -2.949,-1.3203 -2.949,-2.9489 0,-1.6286 1.32,-2.9488 2.949,-2.9488 1.628,0 2.949,1.3202 2.949,2.9488 z" />
      <path d="m 159.238,88.4662 c 0,1.6286 -1.321,2.9489 -2.949,2.9489 -1.629,0 -2.949,-1.3203 -2.949,-2.9489 0,-1.6286 1.32,-2.9488 2.949,-2.9488 1.628,0 2.949,1.3202 2.949,2.9488 z" />
      <path d="m 159.238,100.262 c 0,1.628 -1.321,2.948 -2.949,2.948 -1.629,0 -2.949,-1.32 -2.949,-2.948 0,-1.629 1.32,-2.9492 2.949,-2.9492 1.628,0 2.949,1.3202 2.949,2.9492 z" />
      <path d="m 159.238,112.057 c 0,1.629 -1.321,2.949 -2.949,2.949 -1.629,0 -2.949,-1.32 -2.949,-2.949 0,-1.629 1.32,-2.949 2.949,-2.949 1.628,0 2.949,1.32 2.949,2.949 z" />
      <path d="m 159.238,123.852 c 0,1.629 -1.321,2.949 -2.949,2.949 -1.629,0 -2.949,-1.32 -2.949,-2.949 0,-1.628 1.32,-2.948 2.949,-2.948 1.628,0 2.949,1.32 2.949,2.948 z" />
      <path d="m 159.238,135.648 c 0,1.628 -1.321,2.949 -2.949,2.949 -1.629,0 -2.949,-1.321 -2.949,-2.949 0,-1.629 1.32,-2.949 2.949,-2.949 1.628,0 2.949,1.32 2.949,2.949 z" />
      <path d="m 159.238,147.443 c 0,1.629 -1.321,2.949 -2.949,2.949 -1.629,0 -2.949,-1.32 -2.949,-2.949 0,-1.628 1.32,-2.949 2.949,-2.949 1.628,0 2.949,1.321 2.949,2.949 z" />
      <path d="m 159.238,159.239 c 0,1.628 -1.321,2.948 -2.949,2.948 -1.629,0 -2.949,-1.32 -2.949,-2.948 0,-1.629 1.32,-2.949 2.949,-2.949 1.628,0 2.949,1.32 2.949,2.949 z" />
      <path d="m 159.238,171.034 c 0,1.629 -1.321,2.949 -2.949,2.949 -1.629,0 -2.949,-1.32 -2.949,-2.949 0,-1.629 1.32,-2.949 2.949,-2.949 1.628,0 2.949,1.32 2.949,2.949 z" />
      <path d="m 159.238,182.829 c 0,1.629 -1.321,2.949 -2.949,2.949 -1.629,0 -2.949,-1.32 -2.949,-2.949 0,-1.628 1.32,-2.949 2.949,-2.949 1.628,0 2.949,1.321 2.949,2.949 z" />
      <path d="m 159.238,194.625 c 0,1.628 -1.321,2.949 -2.949,2.949 -1.629,0 -2.949,-1.321 -2.949,-2.949 0,-1.629 1.32,-2.949 2.949,-2.949 1.628,0 2.949,1.32 2.949,2.949 z" />
      <path d="m 159.238,206.42 c 0,1.629 -1.321,2.949 -2.949,2.949 -1.629,0 -2.949,-1.32 -2.949,-2.949 0,-1.629 1.32,-2.949 2.949,-2.949 1.628,0 2.949,1.32 2.949,2.949 z" />
      <path d="m 159.238,218.215 c 0,1.629 -1.321,2.949 -2.949,2.949 -1.629,0 -2.949,-1.32 -2.949,-2.949 0,-1.628 1.32,-2.948 2.949,-2.948 1.628,0 2.949,1.32 2.949,2.948 z" />
      <path d="m 159.238,230.011 c 0,1.628 -1.321,2.949 -2.949,2.949 -1.629,0 -2.949,-1.321 -2.949,-2.949 0,-1.629 1.32,-2.949 2.949,-2.949 1.628,0 2.949,1.32 2.949,2.949 z" />
      <path d="m 171.033,-5.89686 c 0,1.62861 -1.32,2.94885 -2.949,2.94885 -1.628,0 -2.949,-1.32024 -2.949,-2.94885 0,-1.6286 1.321,-2.94884 2.949,-2.94884 1.629,0 2.949,1.32024 2.949,2.94884 z" />
      <path d="m 171.033,5.89853 c 0,1.6286 -1.32,2.94884 -2.949,2.94884 -1.628,0 -2.949,-1.32024 -2.949,-2.94884 0,-1.62861 1.321,-2.94885 2.949,-2.94885 1.629,0 2.949,1.32024 2.949,2.94885 z" />
      <path d="m 171.033,17.6939 c 0,1.6286 -1.32,2.9489 -2.949,2.9489 -1.628,0 -2.949,-1.3203 -2.949,-2.9489 0,-1.6286 1.321,-2.9488 2.949,-2.9488 1.629,0 2.949,1.3202 2.949,2.9488 z" />
      <path d="m 171.033,29.4893 c 0,1.6286 -1.32,2.9488 -2.949,2.9488 -1.628,0 -2.949,-1.3202 -2.949,-2.9488 0,-1.6286 1.321,-2.9488 2.949,-2.9488 1.629,0 2.949,1.3202 2.949,2.9488 z" />
      <path d="m 171.033,41.2847 c 0,1.6286 -1.32,2.9488 -2.949,2.9488 -1.628,0 -2.949,-1.3202 -2.949,-2.9488 0,-1.6286 1.321,-2.9489 2.949,-2.9489 1.629,0 2.949,1.3203 2.949,2.9489 z" />
      <path d="m 171.033,53.0801 c 0,1.6286 -1.32,2.9488 -2.949,2.9488 -1.628,0 -2.949,-1.3202 -2.949,-2.9488 0,-1.6286 1.321,-2.9489 2.949,-2.9489 1.629,0 2.949,1.3203 2.949,2.9489 z" />
      <path d="m 171.033,64.8754 c 0,1.6287 -1.32,2.9489 -2.949,2.9489 -1.628,0 -2.949,-1.3202 -2.949,-2.9489 0,-1.6286 1.321,-2.9488 2.949,-2.9488 1.629,0 2.949,1.3202 2.949,2.9488 z" />
      <path d="m 171.033,76.6708 c 0,1.6286 -1.32,2.9489 -2.949,2.9489 -1.628,0 -2.949,-1.3203 -2.949,-2.9489 0,-1.6286 1.321,-2.9488 2.949,-2.9488 1.629,0 2.949,1.3202 2.949,2.9488 z" />
      <path d="m 171.033,88.4662 c 0,1.6286 -1.32,2.9489 -2.949,2.9489 -1.628,0 -2.949,-1.3203 -2.949,-2.9489 0,-1.6286 1.321,-2.9488 2.949,-2.9488 1.629,0 2.949,1.3202 2.949,2.9488 z" />
      <path d="m 171.033,100.262 c 0,1.628 -1.32,2.948 -2.949,2.948 -1.628,0 -2.949,-1.32 -2.949,-2.948 0,-1.629 1.321,-2.9492 2.949,-2.9492 1.629,0 2.949,1.3202 2.949,2.9492 z" />
      <path d="m 171.033,112.057 c 0,1.629 -1.32,2.949 -2.949,2.949 -1.628,0 -2.949,-1.32 -2.949,-2.949 0,-1.629 1.321,-2.949 2.949,-2.949 1.629,0 2.949,1.32 2.949,2.949 z" />
      <path d="m 171.033,123.852 c 0,1.629 -1.32,2.949 -2.949,2.949 -1.628,0 -2.949,-1.32 -2.949,-2.949 0,-1.628 1.321,-2.948 2.949,-2.948 1.629,0 2.949,1.32 2.949,2.948 z" />
      <path d="m 171.033,135.648 c 0,1.628 -1.32,2.949 -2.949,2.949 -1.628,0 -2.949,-1.321 -2.949,-2.949 0,-1.629 1.321,-2.949 2.949,-2.949 1.629,0 2.949,1.32 2.949,2.949 z" />
      <path d="m 171.033,147.443 c 0,1.629 -1.32,2.949 -2.949,2.949 -1.628,0 -2.949,-1.32 -2.949,-2.949 0,-1.628 1.321,-2.949 2.949,-2.949 1.629,0 2.949,1.321 2.949,2.949 z" />
      <path d="m 171.033,159.239 c 0,1.628 -1.32,2.948 -2.949,2.948 -1.628,0 -2.949,-1.32 -2.949,-2.948 0,-1.629 1.321,-2.949 2.949,-2.949 1.629,0 2.949,1.32 2.949,2.949 z" />
      <path d="m 171.033,171.034 c 0,1.629 -1.32,2.949 -2.949,2.949 -1.628,0 -2.949,-1.32 -2.949,-2.949 0,-1.629 1.321,-2.949 2.949,-2.949 1.629,0 2.949,1.32 2.949,2.949 z" />
      <path d="m 171.033,182.829 c 0,1.629 -1.32,2.949 -2.949,2.949 -1.628,0 -2.949,-1.32 -2.949,-2.949 0,-1.628 1.321,-2.949 2.949,-2.949 1.629,0 2.949,1.321 2.949,2.949 z" />
      <path d="m 171.033,194.625 c 0,1.628 -1.32,2.949 -2.949,2.949 -1.628,0 -2.949,-1.321 -2.949,-2.949 0,-1.629 1.321,-2.949 2.949,-2.949 1.629,0 2.949,1.32 2.949,2.949 z" />
      <path d="m 171.033,206.42 c 0,1.629 -1.32,2.949 -2.949,2.949 -1.628,0 -2.949,-1.32 -2.949,-2.949 0,-1.629 1.321,-2.949 2.949,-2.949 1.629,0 2.949,1.32 2.949,2.949 z" />
      <path d="m 171.033,218.215 c 0,1.629 -1.32,2.949 -2.949,2.949 -1.628,0 -2.949,-1.32 -2.949,-2.949 0,-1.628 1.321,-2.948 2.949,-2.948 1.629,0 2.949,1.32 2.949,2.948 z" />
      <path d="m 171.033,230.011 c 0,1.628 -1.32,2.949 -2.949,2.949 -1.628,0 -2.949,-1.321 -2.949,-2.949 0,-1.629 1.321,-2.949 2.949,-2.949 1.629,0 2.949,1.32 2.949,2.949 z" />
      <path d="m 182.828,-5.89686 c 0,1.62861 -1.32,2.94885 -2.948,2.94885 -1.629,0 -2.949,-1.32024 -2.949,-2.94885 0,-1.6286 1.32,-2.94884 2.949,-2.94884 1.628,0 2.948,1.32024 2.948,2.94884 z" />
      <path d="m 182.828,5.89853 c 0,1.6286 -1.32,2.94884 -2.948,2.94884 -1.629,0 -2.949,-1.32024 -2.949,-2.94884 0,-1.62861 1.32,-2.94885 2.949,-2.94885 1.628,0 2.948,1.32024 2.948,2.94885 z" />
      <path d="m 182.828,17.6939 c 0,1.6286 -1.32,2.9489 -2.948,2.9489 -1.629,0 -2.949,-1.3203 -2.949,-2.9489 0,-1.6286 1.32,-2.9488 2.949,-2.9488 1.628,0 2.948,1.3202 2.948,2.9488 z" />
      <path d="m 182.828,29.4893 c 0,1.6286 -1.32,2.9488 -2.948,2.9488 -1.629,0 -2.949,-1.3202 -2.949,-2.9488 0,-1.6286 1.32,-2.9488 2.949,-2.9488 1.628,0 2.948,1.3202 2.948,2.9488 z" />
      <path d="m 182.828,41.2847 c 0,1.6286 -1.32,2.9488 -2.948,2.9488 -1.629,0 -2.949,-1.3202 -2.949,-2.9488 0,-1.6286 1.32,-2.9489 2.949,-2.9489 1.628,0 2.948,1.3203 2.948,2.9489 z" />
      <path d="m 182.828,53.0801 c 0,1.6286 -1.32,2.9488 -2.948,2.9488 -1.629,0 -2.949,-1.3202 -2.949,-2.9488 0,-1.6286 1.32,-2.9489 2.949,-2.9489 1.628,0 2.948,1.3203 2.948,2.9489 z" />
      <path d="m 182.828,64.8754 c 0,1.6287 -1.32,2.9489 -2.948,2.9489 -1.629,0 -2.949,-1.3202 -2.949,-2.9489 0,-1.6286 1.32,-2.9488 2.949,-2.9488 1.628,0 2.948,1.3202 2.948,2.9488 z" />
      <path d="m 182.828,76.6708 c 0,1.6286 -1.32,2.9489 -2.948,2.9489 -1.629,0 -2.949,-1.3203 -2.949,-2.9489 0,-1.6286 1.32,-2.9488 2.949,-2.9488 1.628,0 2.948,1.3202 2.948,2.9488 z" />
      <path d="m 182.828,88.4662 c 0,1.6286 -1.32,2.9489 -2.948,2.9489 -1.629,0 -2.949,-1.3203 -2.949,-2.9489 0,-1.6286 1.32,-2.9488 2.949,-2.9488 1.628,0 2.948,1.3202 2.948,2.9488 z" />
      <path d="m 182.828,100.262 c 0,1.628 -1.32,2.948 -2.948,2.948 -1.629,0 -2.949,-1.32 -2.949,-2.948 0,-1.629 1.32,-2.9492 2.949,-2.9492 1.628,0 2.948,1.3202 2.948,2.9492 z" />
      <path d="m 182.828,112.057 c 0,1.629 -1.32,2.949 -2.948,2.949 -1.629,0 -2.949,-1.32 -2.949,-2.949 0,-1.629 1.32,-2.949 2.949,-2.949 1.628,0 2.948,1.32 2.948,2.949 z" />
      <path d="m 182.828,123.852 c 0,1.629 -1.32,2.949 -2.948,2.949 -1.629,0 -2.949,-1.32 -2.949,-2.949 0,-1.628 1.32,-2.948 2.949,-2.948 1.628,0 2.948,1.32 2.948,2.948 z" />
      <path d="m 182.828,135.648 c 0,1.628 -1.32,2.949 -2.948,2.949 -1.629,0 -2.949,-1.321 -2.949,-2.949 0,-1.629 1.32,-2.949 2.949,-2.949 1.628,0 2.948,1.32 2.948,2.949 z" />
      <path d="m 182.828,147.443 c 0,1.629 -1.32,2.949 -2.948,2.949 -1.629,0 -2.949,-1.32 -2.949,-2.949 0,-1.628 1.32,-2.949 2.949,-2.949 1.628,0 2.948,1.321 2.948,2.949 z" />
      <path d="m 182.828,159.239 c 0,1.628 -1.32,2.948 -2.948,2.948 -1.629,0 -2.949,-1.32 -2.949,-2.948 0,-1.629 1.32,-2.949 2.949,-2.949 1.628,0 2.948,1.32 2.948,2.949 z" />
      <path d="m 182.828,171.034 c 0,1.629 -1.32,2.949 -2.948,2.949 -1.629,0 -2.949,-1.32 -2.949,-2.949 0,-1.629 1.32,-2.949 2.949,-2.949 1.628,0 2.948,1.32 2.948,2.949 z" />
      <path d="m 182.828,182.829 c 0,1.629 -1.32,2.949 -2.948,2.949 -1.629,0 -2.949,-1.32 -2.949,-2.949 0,-1.628 1.32,-2.949 2.949,-2.949 1.628,0 2.948,1.321 2.948,2.949 z" />
      <path d="m 182.828,194.625 c 0,1.628 -1.32,2.949 -2.948,2.949 -1.629,0 -2.949,-1.321 -2.949,-2.949 0,-1.629 1.32,-2.949 2.949,-2.949 1.628,0 2.948,1.32 2.948,2.949 z" />
      <path d="m 182.828,206.42 c 0,1.629 -1.32,2.949 -2.948,2.949 -1.629,0 -2.949,-1.32 -2.949,-2.949 0,-1.629 1.32,-2.949 2.949,-2.949 1.628,0 2.948,1.32 2.948,2.949 z" />
      <path d="m 182.828,218.215 c 0,1.629 -1.32,2.949 -2.948,2.949 -1.629,0 -2.949,-1.32 -2.949,-2.949 0,-1.628 1.32,-2.948 2.949,-2.948 1.628,0 2.948,1.32 2.948,2.948 z" />
      <path d="m 182.828,230.011 c 0,1.628 -1.32,2.949 -2.948,2.949 -1.629,0 -2.949,-1.321 -2.949,-2.949 0,-1.629 1.32,-2.949 2.949,-2.949 1.628,0 2.948,1.32 2.948,2.949 z" />
      <path d="m 194.624,-5.89686 c 0,1.62861 -1.32,2.94885 -2.949,2.94885 -1.629,0 -2.949,-1.32024 -2.949,-2.94885 0,-1.6286 1.32,-2.94884 2.949,-2.94884 1.629,0 2.949,1.32024 2.949,2.94884 z" />
      <path d="m 194.624,5.89853 c 0,1.6286 -1.32,2.94884 -2.949,2.94884 -1.629,0 -2.949,-1.32024 -2.949,-2.94884 0,-1.62861 1.32,-2.94885 2.949,-2.94885 1.629,0 2.949,1.32024 2.949,2.94885 z" />
      <path d="m 194.624,17.6939 c 0,1.6286 -1.32,2.9489 -2.949,2.9489 -1.629,0 -2.949,-1.3203 -2.949,-2.9489 0,-1.6286 1.32,-2.9488 2.949,-2.9488 1.629,0 2.949,1.3202 2.949,2.9488 z" />
      <path d="m 194.624,29.4893 c 0,1.6286 -1.32,2.9488 -2.949,2.9488 -1.629,0 -2.949,-1.3202 -2.949,-2.9488 0,-1.6286 1.32,-2.9488 2.949,-2.9488 1.629,0 2.949,1.3202 2.949,2.9488 z" />
      <path d="m 194.624,41.2847 c 0,1.6286 -1.32,2.9488 -2.949,2.9488 -1.629,0 -2.949,-1.3202 -2.949,-2.9488 0,-1.6286 1.32,-2.9489 2.949,-2.9489 1.629,0 2.949,1.3203 2.949,2.9489 z" />
      <path d="m 194.624,53.0801 c 0,1.6286 -1.32,2.9488 -2.949,2.9488 -1.629,0 -2.949,-1.3202 -2.949,-2.9488 0,-1.6286 1.32,-2.9489 2.949,-2.9489 1.629,0 2.949,1.3203 2.949,2.9489 z" />
      <path d="m 194.624,64.8754 c 0,1.6287 -1.32,2.9489 -2.949,2.9489 -1.629,0 -2.949,-1.3202 -2.949,-2.9489 0,-1.6286 1.32,-2.9488 2.949,-2.9488 1.629,0 2.949,1.3202 2.949,2.9488 z" />
      <path d="m 194.624,76.6708 c 0,1.6286 -1.32,2.9489 -2.949,2.9489 -1.629,0 -2.949,-1.3203 -2.949,-2.9489 0,-1.6286 1.32,-2.9488 2.949,-2.9488 1.629,0 2.949,1.3202 2.949,2.9488 z" />
      <path d="m 194.624,88.4662 c 0,1.6286 -1.32,2.9489 -2.949,2.9489 -1.629,0 -2.949,-1.3203 -2.949,-2.9489 0,-1.6286 1.32,-2.9488 2.949,-2.9488 1.629,0 2.949,1.3202 2.949,2.9488 z" />
      <path d="m 194.624,100.262 c 0,1.628 -1.32,2.948 -2.949,2.948 -1.629,0 -2.949,-1.32 -2.949,-2.948 0,-1.629 1.32,-2.9492 2.949,-2.9492 1.629,0 2.949,1.3202 2.949,2.9492 z" />
      <path d="m 194.624,112.057 c 0,1.629 -1.32,2.949 -2.949,2.949 -1.629,0 -2.949,-1.32 -2.949,-2.949 0,-1.629 1.32,-2.949 2.949,-2.949 1.629,0 2.949,1.32 2.949,2.949 z" />
      <path d="m 194.624,123.852 c 0,1.629 -1.32,2.949 -2.949,2.949 -1.629,0 -2.949,-1.32 -2.949,-2.949 0,-1.628 1.32,-2.948 2.949,-2.948 1.629,0 2.949,1.32 2.949,2.948 z" />
      <path d="m 194.624,135.648 c 0,1.628 -1.32,2.949 -2.949,2.949 -1.629,0 -2.949,-1.321 -2.949,-2.949 0,-1.629 1.32,-2.949 2.949,-2.949 1.629,0 2.949,1.32 2.949,2.949 z" />
      <path d="m 194.624,147.443 c 0,1.629 -1.32,2.949 -2.949,2.949 -1.629,0 -2.949,-1.32 -2.949,-2.949 0,-1.628 1.32,-2.949 2.949,-2.949 1.629,0 2.949,1.321 2.949,2.949 z" />
      <path d="m 194.624,159.239 c 0,1.628 -1.32,2.948 -2.949,2.948 -1.629,0 -2.949,-1.32 -2.949,-2.948 0,-1.629 1.32,-2.949 2.949,-2.949 1.629,0 2.949,1.32 2.949,2.949 z" />
      <path d="m 194.624,171.034 c 0,1.629 -1.32,2.949 -2.949,2.949 -1.629,0 -2.949,-1.32 -2.949,-2.949 0,-1.629 1.32,-2.949 2.949,-2.949 1.629,0 2.949,1.32 2.949,2.949 z" />
      <path d="m 194.624,182.829 c 0,1.629 -1.32,2.949 -2.949,2.949 -1.629,0 -2.949,-1.32 -2.949,-2.949 0,-1.628 1.32,-2.949 2.949,-2.949 1.629,0 2.949,1.321 2.949,2.949 z" />
      <path d="m 194.624,194.625 c 0,1.628 -1.32,2.949 -2.949,2.949 -1.629,0 -2.949,-1.321 -2.949,-2.949 0,-1.629 1.32,-2.949 2.949,-2.949 1.629,0 2.949,1.32 2.949,2.949 z" />
      <path d="m 194.624,206.42 c 0,1.629 -1.32,2.949 -2.949,2.949 -1.629,0 -2.949,-1.32 -2.949,-2.949 0,-1.629 1.32,-2.949 2.949,-2.949 1.629,0 2.949,1.32 2.949,2.949 z" />
      <path d="m 194.624,218.215 c 0,1.629 -1.32,2.949 -2.949,2.949 -1.629,0 -2.949,-1.32 -2.949,-2.949 0,-1.628 1.32,-2.948 2.949,-2.948 1.629,0 2.949,1.32 2.949,2.948 z" />
      <path d="m 194.624,230.011 c 0,1.628 -1.32,2.949 -2.949,2.949 -1.629,0 -2.949,-1.321 -2.949,-2.949 0,-1.629 1.32,-2.949 2.949,-2.949 1.629,0 2.949,1.32 2.949,2.949 z" />
      <path d="m 206.419,-5.89686 c 0,1.62861 -1.32,2.94885 -2.949,2.94885 -1.628,0 -2.949,-1.32024 -2.949,-2.94885 0,-1.6286 1.321,-2.94884 2.949,-2.94884 1.629,0 2.949,1.32024 2.949,2.94884 z" />
      <path d="m 206.419,5.89853 c 0,1.6286 -1.32,2.94884 -2.949,2.94884 -1.628,0 -2.949,-1.32024 -2.949,-2.94884 0,-1.62861 1.321,-2.94885 2.949,-2.94885 1.629,0 2.949,1.32024 2.949,2.94885 z" />
      <path d="m 206.419,17.6939 c 0,1.6286 -1.32,2.9489 -2.949,2.9489 -1.628,0 -2.949,-1.3203 -2.949,-2.9489 0,-1.6286 1.321,-2.9488 2.949,-2.9488 1.629,0 2.949,1.3202 2.949,2.9488 z" />
      <path d="m 206.419,29.4893 c 0,1.6286 -1.32,2.9488 -2.949,2.9488 -1.628,0 -2.949,-1.3202 -2.949,-2.9488 0,-1.6286 1.321,-2.9488 2.949,-2.9488 1.629,0 2.949,1.3202 2.949,2.9488 z" />
      <path d="m 206.419,41.2847 c 0,1.6286 -1.32,2.9488 -2.949,2.9488 -1.628,0 -2.949,-1.3202 -2.949,-2.9488 0,-1.6286 1.321,-2.9489 2.949,-2.9489 1.629,0 2.949,1.3203 2.949,2.9489 z" />
      <path d="m 206.419,53.0801 c 0,1.6286 -1.32,2.9488 -2.949,2.9488 -1.628,0 -2.949,-1.3202 -2.949,-2.9488 0,-1.6286 1.321,-2.9489 2.949,-2.9489 1.629,0 2.949,1.3203 2.949,2.9489 z" />
      <path d="m 206.419,64.8754 c 0,1.6287 -1.32,2.9489 -2.949,2.9489 -1.628,0 -2.949,-1.3202 -2.949,-2.9489 0,-1.6286 1.321,-2.9488 2.949,-2.9488 1.629,0 2.949,1.3202 2.949,2.9488 z" />
      <path d="m 206.419,76.6708 c 0,1.6286 -1.32,2.9489 -2.949,2.9489 -1.628,0 -2.949,-1.3203 -2.949,-2.9489 0,-1.6286 1.321,-2.9488 2.949,-2.9488 1.629,0 2.949,1.3202 2.949,2.9488 z" />
      <path d="m 206.419,88.4662 c 0,1.6286 -1.32,2.9489 -2.949,2.9489 -1.628,0 -2.949,-1.3203 -2.949,-2.9489 0,-1.6286 1.321,-2.9488 2.949,-2.9488 1.629,0 2.949,1.3202 2.949,2.9488 z" />
      <path d="m 206.419,100.262 c 0,1.628 -1.32,2.948 -2.949,2.948 -1.628,0 -2.949,-1.32 -2.949,-2.948 0,-1.629 1.321,-2.9492 2.949,-2.9492 1.629,0 2.949,1.3202 2.949,2.9492 z" />
      <path d="m 206.419,112.057 c 0,1.629 -1.32,2.949 -2.949,2.949 -1.628,0 -2.949,-1.32 -2.949,-2.949 0,-1.629 1.321,-2.949 2.949,-2.949 1.629,0 2.949,1.32 2.949,2.949 z" />
      <path d="m 206.419,123.852 c 0,1.629 -1.32,2.949 -2.949,2.949 -1.628,0 -2.949,-1.32 -2.949,-2.949 0,-1.628 1.321,-2.948 2.949,-2.948 1.629,0 2.949,1.32 2.949,2.948 z" />
      <path d="m 206.419,135.648 c 0,1.628 -1.32,2.949 -2.949,2.949 -1.628,0 -2.949,-1.321 -2.949,-2.949 0,-1.629 1.321,-2.949 2.949,-2.949 1.629,0 2.949,1.32 2.949,2.949 z" />
      <path d="m 206.419,147.443 c 0,1.629 -1.32,2.949 -2.949,2.949 -1.628,0 -2.949,-1.32 -2.949,-2.949 0,-1.628 1.321,-2.949 2.949,-2.949 1.629,0 2.949,1.321 2.949,2.949 z" />
      <path d="m 206.419,159.239 c 0,1.628 -1.32,2.948 -2.949,2.948 -1.628,0 -2.949,-1.32 -2.949,-2.948 0,-1.629 1.321,-2.949 2.949,-2.949 1.629,0 2.949,1.32 2.949,2.949 z" />
      <path d="m 206.419,171.034 c 0,1.629 -1.32,2.949 -2.949,2.949 -1.628,0 -2.949,-1.32 -2.949,-2.949 0,-1.629 1.321,-2.949 2.949,-2.949 1.629,0 2.949,1.32 2.949,2.949 z" />
      <path d="m 206.419,182.829 c 0,1.629 -1.32,2.949 -2.949,2.949 -1.628,0 -2.949,-1.32 -2.949,-2.949 0,-1.628 1.321,-2.949 2.949,-2.949 1.629,0 2.949,1.321 2.949,2.949 z" />
      <path d="m 206.419,194.625 c 0,1.628 -1.32,2.949 -2.949,2.949 -1.628,0 -2.949,-1.321 -2.949,-2.949 0,-1.629 1.321,-2.949 2.949,-2.949 1.629,0 2.949,1.32 2.949,2.949 z" />
      <path d="m 206.419,206.42 c 0,1.629 -1.32,2.949 -2.949,2.949 -1.628,0 -2.949,-1.32 -2.949,-2.949 0,-1.629 1.321,-2.949 2.949,-2.949 1.629,0 2.949,1.32 2.949,2.949 z" />
      <path d="m 206.419,218.215 c 0,1.629 -1.32,2.949 -2.949,2.949 -1.628,0 -2.949,-1.32 -2.949,-2.949 0,-1.628 1.321,-2.948 2.949,-2.948 1.629,0 2.949,1.32 2.949,2.948 z" />
      <path d="m 206.419,230.011 c 0,1.628 -1.32,2.949 -2.949,2.949 -1.628,0 -2.949,-1.321 -2.949,-2.949 0,-1.629 1.321,-2.949 2.949,-2.949 1.629,0 2.949,1.32 2.949,2.949 z" />
      <path d="m 218.215,-5.89686 c 0,1.62861 -1.321,2.94885 -2.949,2.94885 -1.629,0 -2.949,-1.32024 -2.949,-2.94885 0,-1.6286 1.32,-2.94884 2.949,-2.94884 1.628,0 2.949,1.32024 2.949,2.94884 z" />
      <path d="m 218.215,5.89853 c 0,1.6286 -1.321,2.94884 -2.949,2.94884 -1.629,0 -2.949,-1.32024 -2.949,-2.94884 0,-1.62861 1.32,-2.94885 2.949,-2.94885 1.628,0 2.949,1.32024 2.949,2.94885 z" />
      <path d="m 218.215,17.6939 c 0,1.6286 -1.321,2.9489 -2.949,2.9489 -1.629,0 -2.949,-1.3203 -2.949,-2.9489 0,-1.6286 1.32,-2.9488 2.949,-2.9488 1.628,0 2.949,1.3202 2.949,2.9488 z" />
      <path d="m 218.215,29.4893 c 0,1.6286 -1.321,2.9488 -2.949,2.9488 -1.629,0 -2.949,-1.3202 -2.949,-2.9488 0,-1.6286 1.32,-2.9488 2.949,-2.9488 1.628,0 2.949,1.3202 2.949,2.9488 z" />
      <path d="m 218.215,41.2847 c 0,1.6286 -1.321,2.9488 -2.949,2.9488 -1.629,0 -2.949,-1.3202 -2.949,-2.9488 0,-1.6286 1.32,-2.9489 2.949,-2.9489 1.628,0 2.949,1.3203 2.949,2.9489 z" />
      <path d="m 218.215,53.0801 c 0,1.6286 -1.321,2.9488 -2.949,2.9488 -1.629,0 -2.949,-1.3202 -2.949,-2.9488 0,-1.6286 1.32,-2.9489 2.949,-2.9489 1.628,0 2.949,1.3203 2.949,2.9489 z" />
      <path d="m 218.215,64.8754 c 0,1.6287 -1.321,2.9489 -2.949,2.9489 -1.629,0 -2.949,-1.3202 -2.949,-2.9489 0,-1.6286 1.32,-2.9488 2.949,-2.9488 1.628,0 2.949,1.3202 2.949,2.9488 z" />
      <path d="m 218.215,76.6708 c 0,1.6286 -1.321,2.9489 -2.949,2.9489 -1.629,0 -2.949,-1.3203 -2.949,-2.9489 0,-1.6286 1.32,-2.9488 2.949,-2.9488 1.628,0 2.949,1.3202 2.949,2.9488 z" />
      <path d="m 218.215,88.4662 c 0,1.6286 -1.321,2.9489 -2.949,2.9489 -1.629,0 -2.949,-1.3203 -2.949,-2.9489 0,-1.6286 1.32,-2.9488 2.949,-2.9488 1.628,0 2.949,1.3202 2.949,2.9488 z" />
      <path d="m 218.215,100.262 c 0,1.628 -1.321,2.948 -2.949,2.948 -1.629,0 -2.949,-1.32 -2.949,-2.948 0,-1.629 1.32,-2.9492 2.949,-2.9492 1.628,0 2.949,1.3202 2.949,2.9492 z" />
      <path d="m 218.215,112.057 c 0,1.629 -1.321,2.949 -2.949,2.949 -1.629,0 -2.949,-1.32 -2.949,-2.949 0,-1.629 1.32,-2.949 2.949,-2.949 1.628,0 2.949,1.32 2.949,2.949 z" />
      <path d="m 218.215,123.852 c 0,1.629 -1.321,2.949 -2.949,2.949 -1.629,0 -2.949,-1.32 -2.949,-2.949 0,-1.628 1.32,-2.948 2.949,-2.948 1.628,0 2.949,1.32 2.949,2.948 z" />
      <path d="m 218.215,135.648 c 0,1.628 -1.321,2.949 -2.949,2.949 -1.629,0 -2.949,-1.321 -2.949,-2.949 0,-1.629 1.32,-2.949 2.949,-2.949 1.628,0 2.949,1.32 2.949,2.949 z" />
      <path d="m 218.215,147.443 c 0,1.629 -1.321,2.949 -2.949,2.949 -1.629,0 -2.949,-1.32 -2.949,-2.949 0,-1.628 1.32,-2.949 2.949,-2.949 1.628,0 2.949,1.321 2.949,2.949 z" />
      <path d="m 218.215,159.239 c 0,1.628 -1.321,2.948 -2.949,2.948 -1.629,0 -2.949,-1.32 -2.949,-2.948 0,-1.629 1.32,-2.949 2.949,-2.949 1.628,0 2.949,1.32 2.949,2.949 z" />
      <path d="m 218.215,171.034 c 0,1.629 -1.321,2.949 -2.949,2.949 -1.629,0 -2.949,-1.32 -2.949,-2.949 0,-1.629 1.32,-2.949 2.949,-2.949 1.628,0 2.949,1.32 2.949,2.949 z" />
      <path d="m 218.215,182.829 c 0,1.629 -1.321,2.949 -2.949,2.949 -1.629,0 -2.949,-1.32 -2.949,-2.949 0,-1.628 1.32,-2.949 2.949,-2.949 1.628,0 2.949,1.321 2.949,2.949 z" />
      <path d="m 218.215,194.625 c 0,1.628 -1.321,2.949 -2.949,2.949 -1.629,0 -2.949,-1.321 -2.949,-2.949 0,-1.629 1.32,-2.949 2.949,-2.949 1.628,0 2.949,1.32 2.949,2.949 z" />
      <path d="m 218.215,206.42 c 0,1.629 -1.321,2.949 -2.949,2.949 -1.629,0 -2.949,-1.32 -2.949,-2.949 0,-1.629 1.32,-2.949 2.949,-2.949 1.628,0 2.949,1.32 2.949,2.949 z" />
      <path d="m 218.215,218.215 c 0,1.629 -1.321,2.949 -2.949,2.949 -1.629,0 -2.949,-1.32 -2.949,-2.949 0,-1.628 1.32,-2.948 2.949,-2.948 1.628,0 2.949,1.32 2.949,2.948 z" />
      <path d="m 218.215,230.011 c 0,1.628 -1.321,2.949 -2.949,2.949 -1.629,0 -2.949,-1.321 -2.949,-2.949 0,-1.629 1.32,-2.949 2.949,-2.949 1.628,0 2.949,1.32 2.949,2.949 z" />
    </g>
  </g>
  <defs>
    <clipPath id="blob-grad-dots-01_clip">
      <rect
         width="194"
         height="222"
         fill="#ffffff"
         x="0"
         y="0" />
    </clipPath>
    <linearGradient id="blob-grad-dots-01_gradient" x1="0%" y1="0%" x2="100%" y2="0%" gradientUnits="userSpaceOnUse">
      <stop offset="0%" style="stop-color:rgb(85,0,255);stop-opacity:1"/>
      <stop offset="33%" style="stop-color:rgb(156,133,241);stop-opacity:1"/>
      <stop offset="66%" style="stop-color:rgb(109,255,212);stop-opacity:1"/>
      <stop offset="100%" style="stop-color:rgb(16,243,16);stop-opacity:1"/>
    </linearGradient>
  </defs>
</svg>
