<?xml version="1.0" encoding="UTF-8" standalone="no"?>
<svg
   width="163"
   height="182"
   viewBox="0 0 163 182"
   fill="none"
   version="1.1"
   xmlns="http://www.w3.org/2000/svg"
   xmlns:svg="http://www.w3.org/2000/svg">
  <g clip-path="url(#blob-grad-dots-02_clip)">
    <mask
       id="blob-grad-dots-02_mask"
       maskUnits="userSpaceOnUse"
       x="0"
       y="0"
       width="163"
       height="182">
      <path
         d="m 138.752,34.7338 c 20.09,24.4427 30.135,57.5911 19.421,78.3512 -10.547,20.927 -42.022,29.8 -70.6499,42.858 C 58.8949,169.002 33.2803,186.58 17.878,180.051 2.64312,173.689 -2.54678,143.387 1.13637,121.623 4.65211,100.026 16.8735,87.135 27.923,64.7013 38.9724,42.1001 48.85,10.1236 68.7725,2.08761 88.695,-5.94836 118.663,10.1236 138.752,34.7338 Z"
         fill="#ffffff" />
    </mask>
    <g mask="url(#blob-grad-dots-02_mask)" style="fill:url(#blob-grad-dots-02_gradient)">
      <path d="m -55.2477,-43.5286 c 0,1.8492 -1.4991,3.3483 -3.3483,3.3483 -1.8492,0 -3.3483,-1.4991 -3.3483,-3.3483 0,-1.8493 1.4991,-3.3484 3.3483,-3.3484 1.8492,0 3.3483,1.4991 3.3483,3.3484 z" />
      <path d="m -55.2477,-30.1353 c 0,1.8492 -1.4991,3.3483 -3.3483,3.3483 -1.8492,0 -3.3483,-1.4991 -3.3483,-3.3483 0,-1.8493 1.4991,-3.3484 3.3483,-3.3484 1.8492,0 3.3483,1.4991 3.3483,3.3484 z" />
      <path d="m -55.2477,-16.742 c 0,1.8492 -1.4991,3.3483 -3.3483,3.3483 -1.8492,0 -3.3483,-1.4991 -3.3483,-3.3483 0,-1.8493 1.4991,-3.3484 3.3483,-3.3484 1.8492,0 3.3483,1.4991 3.3483,3.3484 z" />
      <path d="m -55.2477,-3.34876 c 0,1.84923 -1.4991,3.348327032 -3.3483,3.348327032 -1.8492,0 -3.3483,-1.499097032 -3.3483,-3.348327032 0,-1.84922 1.4991,-3.34832 3.3483,-3.34832 1.8492,0 3.3483,1.4991 3.3483,3.34832 z" />
      <path d="m -55.2477,10.0445 c 0,1.8493 -1.4991,3.3484 -3.3483,3.3484 -1.8492,0 -3.3483,-1.4991 -3.3483,-3.3484 0,-1.84919 1.4991,-3.34829 3.3483,-3.34829 1.8492,0 3.3483,1.4991 3.3483,3.34829 z" />
      <path d="m -55.2477,23.4378 c 0,1.8493 -1.4991,3.3483 -3.3483,3.3483 -1.8492,0 -3.3483,-1.499 -3.3483,-3.3483 0,-1.8492 1.4991,-3.3483 3.3483,-3.3483 1.8492,0 3.3483,1.4991 3.3483,3.3483 z" />
      <path d="m -55.2477,36.8311 c 0,1.8492 -1.4991,3.3483 -3.3483,3.3483 -1.8492,0 -3.3483,-1.4991 -3.3483,-3.3483 0,-1.8492 1.4991,-3.3483 3.3483,-3.3483 1.8492,0 3.3483,1.4991 3.3483,3.3483 z" />
      <path d="m -55.2477,50.2244 c 0,1.8492 -1.4991,3.3483 -3.3483,3.3483 -1.8492,0 -3.3483,-1.4991 -3.3483,-3.3483 0,-1.8492 1.4991,-3.3483 3.3483,-3.3483 1.8492,0 3.3483,1.4991 3.3483,3.3483 z" />
      <path d="m -55.2477,63.6177 c 0,1.8492 -1.4991,3.3483 -3.3483,3.3483 -1.8492,0 -3.3483,-1.4991 -3.3483,-3.3483 0,-1.8492 1.4991,-3.3483 3.3483,-3.3483 1.8492,0 3.3483,1.4991 3.3483,3.3483 z" />
      <path d="m -55.2477,77.011 c 0,1.8492 -1.4991,3.3483 -3.3483,3.3483 -1.8492,0 -3.3483,-1.4991 -3.3483,-3.3483 0,-1.8492 1.4991,-3.3483 3.3483,-3.3483 1.8492,0 3.3483,1.4991 3.3483,3.3483 z" />
      <path d="m -55.2477,90.4043 c 0,1.8492 -1.4991,3.3483 -3.3483,3.3483 -1.8492,0 -3.3483,-1.4991 -3.3483,-3.3483 0,-1.8492 1.4991,-3.3483 3.3483,-3.3483 1.8492,0 3.3483,1.4991 3.3483,3.3483 z" />
      <path d="m -55.2477,103.798 c 0,1.849 -1.4991,3.348 -3.3483,3.348 -1.8492,0 -3.3483,-1.499 -3.3483,-3.348 0,-1.85 1.4991,-3.349 3.3483,-3.349 1.8492,0 3.3483,1.499 3.3483,3.349 z" />
      <path d="m -55.2477,117.191 c 0,1.849 -1.4991,3.348 -3.3483,3.348 -1.8492,0 -3.3483,-1.499 -3.3483,-3.348 0,-1.849 1.4991,-3.348 3.3483,-3.348 1.8492,0 3.3483,1.499 3.3483,3.348 z" />
      <path d="m -55.2477,130.584 c 0,1.849 -1.4991,3.348 -3.3483,3.348 -1.8492,0 -3.3483,-1.499 -3.3483,-3.348 0,-1.849 1.4991,-3.348 3.3483,-3.348 1.8492,0 3.3483,1.499 3.3483,3.348 z" />
      <path d="m -55.2477,143.977 c 0,1.85 -1.4991,3.349 -3.3483,3.349 -1.8492,0 -3.3483,-1.499 -3.3483,-3.349 0,-1.849 1.4991,-3.348 3.3483,-3.348 1.8492,0 3.3483,1.499 3.3483,3.348 z" />
      <path d="m -55.2477,157.371 c 0,1.849 -1.4991,3.348 -3.3483,3.348 -1.8492,0 -3.3483,-1.499 -3.3483,-3.348 0,-1.849 1.4991,-3.349 3.3483,-3.349 1.8492,0 3.3483,1.5 3.3483,3.349 z" />
      <path d="m -55.2477,170.764 c 0,1.849 -1.4991,3.348 -3.3483,3.348 -1.8492,0 -3.3483,-1.499 -3.3483,-3.348 0,-1.849 1.4991,-3.348 3.3483,-3.348 1.8492,0 3.3483,1.499 3.3483,3.348 z" />
      <path d="m -55.2477,184.157 c 0,1.85 -1.4991,3.349 -3.3483,3.349 -1.8492,0 -3.3483,-1.499 -3.3483,-3.349 0,-1.849 1.4991,-3.348 3.3483,-3.348 1.8492,0 3.3483,1.499 3.3483,3.348 z" />
      <path d="m -55.2477,197.551 c 0,1.849 -1.4991,3.348 -3.3483,3.348 -1.8492,0 -3.3483,-1.499 -3.3483,-3.348 0,-1.85 1.4991,-3.349 3.3483,-3.349 1.8492,0 3.3483,1.499 3.3483,3.349 z" />
      <path d="m -55.2477,210.944 c 0,1.849 -1.4991,3.348 -3.3483,3.348 -1.8492,0 -3.3483,-1.499 -3.3483,-3.348 0,-1.849 1.4991,-3.348 3.3483,-3.348 1.8492,0 3.3483,1.499 3.3483,3.348 z" />
      <path d="m -55.2477,224.337 c 0,1.849 -1.4991,3.349 -3.3483,3.349 -1.8492,0 -3.3483,-1.5 -3.3483,-3.349 0,-1.849 1.4991,-3.348 3.3483,-3.348 1.8492,0 3.3483,1.499 3.3483,3.348 z" />
      <path d="m -41.8544,-43.5286 c 0,1.8492 -1.4991,3.3483 -3.3483,3.3483 -1.8492,0 -3.3483,-1.4991 -3.3483,-3.3483 0,-1.8493 1.4991,-3.3484 3.3483,-3.3484 1.8492,0 3.3483,1.4991 3.3483,3.3484 z" />
      <path d="m -41.8544,-30.1353 c 0,1.8492 -1.4991,3.3483 -3.3483,3.3483 -1.8492,0 -3.3483,-1.4991 -3.3483,-3.3483 0,-1.8493 1.4991,-3.3484 3.3483,-3.3484 1.8492,0 3.3483,1.4991 3.3483,3.3484 z" />
      <path d="m -41.8544,-16.742 c 0,1.8492 -1.4991,3.3483 -3.3483,3.3483 -1.8492,0 -3.3483,-1.4991 -3.3483,-3.3483 0,-1.8493 1.4991,-3.3484 3.3483,-3.3484 1.8492,0 3.3483,1.4991 3.3483,3.3484 z" />
      <path d="m -41.8544,-3.34876 c 0,1.84923 -1.4991,3.348327032 -3.3483,3.348327032 -1.8492,0 -3.3483,-1.499097032 -3.3483,-3.348327032 0,-1.84922 1.4991,-3.34832 3.3483,-3.34832 1.8492,0 3.3483,1.4991 3.3483,3.34832 z" />
      <path d="m -41.8544,10.0445 c 0,1.8493 -1.4991,3.3484 -3.3483,3.3484 -1.8492,0 -3.3483,-1.4991 -3.3483,-3.3484 0,-1.84919 1.4991,-3.34829 3.3483,-3.34829 1.8492,0 3.3483,1.4991 3.3483,3.34829 z" />
      <path d="m -41.8544,23.4378 c 0,1.8493 -1.4991,3.3483 -3.3483,3.3483 -1.8492,0 -3.3483,-1.499 -3.3483,-3.3483 0,-1.8492 1.4991,-3.3483 3.3483,-3.3483 1.8492,0 3.3483,1.4991 3.3483,3.3483 z" />
      <path d="m -41.8544,36.8311 c 0,1.8492 -1.4991,3.3483 -3.3483,3.3483 -1.8492,0 -3.3483,-1.4991 -3.3483,-3.3483 0,-1.8492 1.4991,-3.3483 3.3483,-3.3483 1.8492,0 3.3483,1.4991 3.3483,3.3483 z" />
      <path d="m -41.8544,50.2244 c 0,1.8492 -1.4991,3.3483 -3.3483,3.3483 -1.8492,0 -3.3483,-1.4991 -3.3483,-3.3483 0,-1.8492 1.4991,-3.3483 3.3483,-3.3483 1.8492,0 3.3483,1.4991 3.3483,3.3483 z" />
      <path d="m -41.8544,63.6177 c 0,1.8492 -1.4991,3.3483 -3.3483,3.3483 -1.8492,0 -3.3483,-1.4991 -3.3483,-3.3483 0,-1.8492 1.4991,-3.3483 3.3483,-3.3483 1.8492,0 3.3483,1.4991 3.3483,3.3483 z" />
      <path d="m -41.8544,77.011 c 0,1.8492 -1.4991,3.3483 -3.3483,3.3483 -1.8492,0 -3.3483,-1.4991 -3.3483,-3.3483 0,-1.8492 1.4991,-3.3483 3.3483,-3.3483 1.8492,0 3.3483,1.4991 3.3483,3.3483 z" />
      <path d="m -41.8544,90.4043 c 0,1.8492 -1.4991,3.3483 -3.3483,3.3483 -1.8492,0 -3.3483,-1.4991 -3.3483,-3.3483 0,-1.8492 1.4991,-3.3483 3.3483,-3.3483 1.8492,0 3.3483,1.4991 3.3483,3.3483 z" />
      <path d="m -41.8544,103.798 c 0,1.849 -1.4991,3.348 -3.3483,3.348 -1.8492,0 -3.3483,-1.499 -3.3483,-3.348 0,-1.85 1.4991,-3.349 3.3483,-3.349 1.8492,0 3.3483,1.499 3.3483,3.349 z" />
      <path d="m -41.8544,117.191 c 0,1.849 -1.4991,3.348 -3.3483,3.348 -1.8492,0 -3.3483,-1.499 -3.3483,-3.348 0,-1.849 1.4991,-3.348 3.3483,-3.348 1.8492,0 3.3483,1.499 3.3483,3.348 z" />
      <path d="m -41.8544,130.584 c 0,1.849 -1.4991,3.348 -3.3483,3.348 -1.8492,0 -3.3483,-1.499 -3.3483,-3.348 0,-1.849 1.4991,-3.348 3.3483,-3.348 1.8492,0 3.3483,1.499 3.3483,3.348 z" />
      <path d="m -41.8544,143.977 c 0,1.85 -1.4991,3.349 -3.3483,3.349 -1.8492,0 -3.3483,-1.499 -3.3483,-3.349 0,-1.849 1.4991,-3.348 3.3483,-3.348 1.8492,0 3.3483,1.499 3.3483,3.348 z" />
      <path d="m -41.8544,157.371 c 0,1.849 -1.4991,3.348 -3.3483,3.348 -1.8492,0 -3.3483,-1.499 -3.3483,-3.348 0,-1.849 1.4991,-3.349 3.3483,-3.349 1.8492,0 3.3483,1.5 3.3483,3.349 z" />
      <path d="m -41.8544,170.764 c 0,1.849 -1.4991,3.348 -3.3483,3.348 -1.8492,0 -3.3483,-1.499 -3.3483,-3.348 0,-1.849 1.4991,-3.348 3.3483,-3.348 1.8492,0 3.3483,1.499 3.3483,3.348 z" />
      <path d="m -41.8544,184.157 c 0,1.85 -1.4991,3.349 -3.3483,3.349 -1.8492,0 -3.3483,-1.499 -3.3483,-3.349 0,-1.849 1.4991,-3.348 3.3483,-3.348 1.8492,0 3.3483,1.499 3.3483,3.348 z" />
      <path d="m -41.8544,197.551 c 0,1.849 -1.4991,3.348 -3.3483,3.348 -1.8492,0 -3.3483,-1.499 -3.3483,-3.348 0,-1.85 1.4991,-3.349 3.3483,-3.349 1.8492,0 3.3483,1.499 3.3483,3.349 z" />
      <path d="m -41.8544,210.944 c 0,1.849 -1.4991,3.348 -3.3483,3.348 -1.8492,0 -3.3483,-1.499 -3.3483,-3.348 0,-1.849 1.4991,-3.348 3.3483,-3.348 1.8492,0 3.3483,1.499 3.3483,3.348 z" />
      <path d="m -41.8544,224.337 c 0,1.849 -1.4991,3.349 -3.3483,3.349 -1.8492,0 -3.3483,-1.5 -3.3483,-3.349 0,-1.849 1.4991,-3.348 3.3483,-3.348 1.8492,0 3.3483,1.499 3.3483,3.348 z" />
      <path d="m -28.4611,-43.5286 c 0,1.8492 -1.4991,3.3483 -3.3483,3.3483 -1.8493,0 -3.3484,-1.4991 -3.3484,-3.3483 0,-1.8493 1.4991,-3.3484 3.3484,-3.3484 1.8492,0 3.3483,1.4991 3.3483,3.3484 z" />
      <path d="m -28.4611,-30.1353 c 0,1.8492 -1.4991,3.3483 -3.3483,3.3483 -1.8493,0 -3.3484,-1.4991 -3.3484,-3.3483 0,-1.8493 1.4991,-3.3484 3.3484,-3.3484 1.8492,0 3.3483,1.4991 3.3483,3.3484 z" />
      <path d="m -28.4611,-16.742 c 0,1.8492 -1.4991,3.3483 -3.3483,3.3483 -1.8493,0 -3.3484,-1.4991 -3.3484,-3.3483 0,-1.8493 1.4991,-3.3484 3.3484,-3.3484 1.8492,0 3.3483,1.4991 3.3483,3.3484 z" />
      <path d="m -28.4611,-3.34876 c 0,1.84923 -1.4991,3.348327032 -3.3483,3.348327032 -1.8493,0 -3.3484,-1.499097032 -3.3484,-3.348327032 0,-1.84922 1.4991,-3.34832 3.3484,-3.34832 1.8492,0 3.3483,1.4991 3.3483,3.34832 z" />
      <path d="m -28.4611,10.0445 c 0,1.8493 -1.4991,3.3484 -3.3483,3.3484 -1.8493,0 -3.3484,-1.4991 -3.3484,-3.3484 0,-1.84919 1.4991,-3.34829 3.3484,-3.34829 1.8492,0 3.3483,1.4991 3.3483,3.34829 z" />
      <path d="m -28.4611,23.4378 c 0,1.8493 -1.4991,3.3483 -3.3483,3.3483 -1.8493,0 -3.3484,-1.499 -3.3484,-3.3483 0,-1.8492 1.4991,-3.3483 3.3484,-3.3483 1.8492,0 3.3483,1.4991 3.3483,3.3483 z" />
      <path d="m -28.4611,36.8311 c 0,1.8492 -1.4991,3.3483 -3.3483,3.3483 -1.8493,0 -3.3484,-1.4991 -3.3484,-3.3483 0,-1.8492 1.4991,-3.3483 3.3484,-3.3483 1.8492,0 3.3483,1.4991 3.3483,3.3483 z" />
      <path d="m -28.4611,50.2244 c 0,1.8492 -1.4991,3.3483 -3.3483,3.3483 -1.8493,0 -3.3484,-1.4991 -3.3484,-3.3483 0,-1.8492 1.4991,-3.3483 3.3484,-3.3483 1.8492,0 3.3483,1.4991 3.3483,3.3483 z" />
      <path d="m -28.4611,63.6177 c 0,1.8492 -1.4991,3.3483 -3.3483,3.3483 -1.8493,0 -3.3484,-1.4991 -3.3484,-3.3483 0,-1.8492 1.4991,-3.3483 3.3484,-3.3483 1.8492,0 3.3483,1.4991 3.3483,3.3483 z" />
      <path d="m -28.4611,77.011 c 0,1.8492 -1.4991,3.3483 -3.3483,3.3483 -1.8493,0 -3.3484,-1.4991 -3.3484,-3.3483 0,-1.8492 1.4991,-3.3483 3.3484,-3.3483 1.8492,0 3.3483,1.4991 3.3483,3.3483 z" />
      <path d="m -28.4611,90.4043 c 0,1.8492 -1.4991,3.3483 -3.3483,3.3483 -1.8493,0 -3.3484,-1.4991 -3.3484,-3.3483 0,-1.8492 1.4991,-3.3483 3.3484,-3.3483 1.8492,0 3.3483,1.4991 3.3483,3.3483 z" />
      <path d="m -28.4611,103.798 c 0,1.849 -1.4991,3.348 -3.3483,3.348 -1.8493,0 -3.3484,-1.499 -3.3484,-3.348 0,-1.85 1.4991,-3.349 3.3484,-3.349 1.8492,0 3.3483,1.499 3.3483,3.349 z" />
      <path d="m -28.4611,117.191 c 0,1.849 -1.4991,3.348 -3.3483,3.348 -1.8493,0 -3.3484,-1.499 -3.3484,-3.348 0,-1.849 1.4991,-3.348 3.3484,-3.348 1.8492,0 3.3483,1.499 3.3483,3.348 z" />
      <path d="m -28.4611,130.584 c 0,1.849 -1.4991,3.348 -3.3483,3.348 -1.8493,0 -3.3484,-1.499 -3.3484,-3.348 0,-1.849 1.4991,-3.348 3.3484,-3.348 1.8492,0 3.3483,1.499 3.3483,3.348 z" />
      <path d="m -28.4611,143.977 c 0,1.85 -1.4991,3.349 -3.3483,3.349 -1.8493,0 -3.3484,-1.499 -3.3484,-3.349 0,-1.849 1.4991,-3.348 3.3484,-3.348 1.8492,0 3.3483,1.499 3.3483,3.348 z" />
      <path d="m -28.4611,157.371 c 0,1.849 -1.4991,3.348 -3.3483,3.348 -1.8493,0 -3.3484,-1.499 -3.3484,-3.348 0,-1.849 1.4991,-3.349 3.3484,-3.349 1.8492,0 3.3483,1.5 3.3483,3.349 z" />
      <path d="m -28.4611,170.764 c 0,1.849 -1.4991,3.348 -3.3483,3.348 -1.8493,0 -3.3484,-1.499 -3.3484,-3.348 0,-1.849 1.4991,-3.348 3.3484,-3.348 1.8492,0 3.3483,1.499 3.3483,3.348 z" />
      <path d="m -28.4611,184.157 c 0,1.85 -1.4991,3.349 -3.3483,3.349 -1.8493,0 -3.3484,-1.499 -3.3484,-3.349 0,-1.849 1.4991,-3.348 3.3484,-3.348 1.8492,0 3.3483,1.499 3.3483,3.348 z" />
      <path d="m -28.4611,197.551 c 0,1.849 -1.4991,3.348 -3.3483,3.348 -1.8493,0 -3.3484,-1.499 -3.3484,-3.348 0,-1.85 1.4991,-3.349 3.3484,-3.349 1.8492,0 3.3483,1.499 3.3483,3.349 z" />
      <path d="m -28.4611,210.944 c 0,1.849 -1.4991,3.348 -3.3483,3.348 -1.8493,0 -3.3484,-1.499 -3.3484,-3.348 0,-1.849 1.4991,-3.348 3.3484,-3.348 1.8492,0 3.3483,1.499 3.3483,3.348 z" />
      <path d="m -28.4611,224.337 c 0,1.849 -1.4991,3.349 -3.3483,3.349 -1.8493,0 -3.3484,-1.5 -3.3484,-3.349 0,-1.849 1.4991,-3.348 3.3484,-3.348 1.8492,0 3.3483,1.499 3.3483,3.348 z" />
      <path d="m -15.0678,-43.5286 c 0,1.8492 -1.4991,3.3483 -3.3483,3.3483 -1.8493,0 -3.3484,-1.4991 -3.3484,-3.3483 0,-1.8493 1.4991,-3.3484 3.3484,-3.3484 1.8492,0 3.3483,1.4991 3.3483,3.3484 z" />
      <path d="m -15.0678,-30.1353 c 0,1.8492 -1.4991,3.3483 -3.3483,3.3483 -1.8493,0 -3.3484,-1.4991 -3.3484,-3.3483 0,-1.8493 1.4991,-3.3484 3.3484,-3.3484 1.8492,0 3.3483,1.4991 3.3483,3.3484 z" />
      <path d="m -15.0678,-16.742 c 0,1.8492 -1.4991,3.3483 -3.3483,3.3483 -1.8493,0 -3.3484,-1.4991 -3.3484,-3.3483 0,-1.8493 1.4991,-3.3484 3.3484,-3.3484 1.8492,0 3.3483,1.4991 3.3483,3.3484 z" />
      <path d="m -15.0678,-3.34876 c 0,1.84923 -1.4991,3.348327032 -3.3483,3.348327032 -1.8493,0 -3.3484,-1.499097032 -3.3484,-3.348327032 0,-1.84922 1.4991,-3.34832 3.3484,-3.34832 1.8492,0 3.3483,1.4991 3.3483,3.34832 z" />
      <path d="m -15.0678,10.0445 c 0,1.8493 -1.4991,3.3484 -3.3483,3.3484 -1.8493,0 -3.3484,-1.4991 -3.3484,-3.3484 0,-1.84919 1.4991,-3.34829 3.3484,-3.34829 1.8492,0 3.3483,1.4991 3.3483,3.34829 z" />
      <path d="m -15.0678,23.4378 c 0,1.8493 -1.4991,3.3483 -3.3483,3.3483 -1.8493,0 -3.3484,-1.499 -3.3484,-3.3483 0,-1.8492 1.4991,-3.3483 3.3484,-3.3483 1.8492,0 3.3483,1.4991 3.3483,3.3483 z" />
      <path d="m -15.0678,36.8311 c 0,1.8492 -1.4991,3.3483 -3.3483,3.3483 -1.8493,0 -3.3484,-1.4991 -3.3484,-3.3483 0,-1.8492 1.4991,-3.3483 3.3484,-3.3483 1.8492,0 3.3483,1.4991 3.3483,3.3483 z" />
      <path d="m -15.0678,50.2244 c 0,1.8492 -1.4991,3.3483 -3.3483,3.3483 -1.8493,0 -3.3484,-1.4991 -3.3484,-3.3483 0,-1.8492 1.4991,-3.3483 3.3484,-3.3483 1.8492,0 3.3483,1.4991 3.3483,3.3483 z" />
      <path d="m -15.0678,63.6177 c 0,1.8492 -1.4991,3.3483 -3.3483,3.3483 -1.8493,0 -3.3484,-1.4991 -3.3484,-3.3483 0,-1.8492 1.4991,-3.3483 3.3484,-3.3483 1.8492,0 3.3483,1.4991 3.3483,3.3483 z" />
      <path d="m -15.0678,77.011 c 0,1.8492 -1.4991,3.3483 -3.3483,3.3483 -1.8493,0 -3.3484,-1.4991 -3.3484,-3.3483 0,-1.8492 1.4991,-3.3483 3.3484,-3.3483 1.8492,0 3.3483,1.4991 3.3483,3.3483 z" />
      <path d="m -15.0678,90.4043 c 0,1.8492 -1.4991,3.3483 -3.3483,3.3483 -1.8493,0 -3.3484,-1.4991 -3.3484,-3.3483 0,-1.8492 1.4991,-3.3483 3.3484,-3.3483 1.8492,0 3.3483,1.4991 3.3483,3.3483 z" />
      <path d="m -15.0678,103.798 c 0,1.849 -1.4991,3.348 -3.3483,3.348 -1.8493,0 -3.3484,-1.499 -3.3484,-3.348 0,-1.85 1.4991,-3.349 3.3484,-3.349 1.8492,0 3.3483,1.499 3.3483,3.349 z" />
      <path d="m -15.0678,117.191 c 0,1.849 -1.4991,3.348 -3.3483,3.348 -1.8493,0 -3.3484,-1.499 -3.3484,-3.348 0,-1.849 1.4991,-3.348 3.3484,-3.348 1.8492,0 3.3483,1.499 3.3483,3.348 z" />
      <path d="m -15.0678,130.584 c 0,1.849 -1.4991,3.348 -3.3483,3.348 -1.8493,0 -3.3484,-1.499 -3.3484,-3.348 0,-1.849 1.4991,-3.348 3.3484,-3.348 1.8492,0 3.3483,1.499 3.3483,3.348 z" />
      <path d="m -15.0678,143.977 c 0,1.85 -1.4991,3.349 -3.3483,3.349 -1.8493,0 -3.3484,-1.499 -3.3484,-3.349 0,-1.849 1.4991,-3.348 3.3484,-3.348 1.8492,0 3.3483,1.499 3.3483,3.348 z" />
      <path d="m -15.0678,157.371 c 0,1.849 -1.4991,3.348 -3.3483,3.348 -1.8493,0 -3.3484,-1.499 -3.3484,-3.348 0,-1.849 1.4991,-3.349 3.3484,-3.349 1.8492,0 3.3483,1.5 3.3483,3.349 z" />
      <path d="m -15.0678,170.764 c 0,1.849 -1.4991,3.348 -3.3483,3.348 -1.8493,0 -3.3484,-1.499 -3.3484,-3.348 0,-1.849 1.4991,-3.348 3.3484,-3.348 1.8492,0 3.3483,1.499 3.3483,3.348 z" />
      <path d="m -15.0678,184.157 c 0,1.85 -1.4991,3.349 -3.3483,3.349 -1.8493,0 -3.3484,-1.499 -3.3484,-3.349 0,-1.849 1.4991,-3.348 3.3484,-3.348 1.8492,0 3.3483,1.499 3.3483,3.348 z" />
      <path d="m -15.0678,197.551 c 0,1.849 -1.4991,3.348 -3.3483,3.348 -1.8493,0 -3.3484,-1.499 -3.3484,-3.348 0,-1.85 1.4991,-3.349 3.3484,-3.349 1.8492,0 3.3483,1.499 3.3483,3.349 z" />
      <path d="m -15.0678,210.944 c 0,1.849 -1.4991,3.348 -3.3483,3.348 -1.8493,0 -3.3484,-1.499 -3.3484,-3.348 0,-1.849 1.4991,-3.348 3.3484,-3.348 1.8492,0 3.3483,1.499 3.3483,3.348 z" />
      <path d="m -15.0678,224.337 c 0,1.849 -1.4991,3.349 -3.3483,3.349 -1.8493,0 -3.3484,-1.5 -3.3484,-3.349 0,-1.849 1.4991,-3.348 3.3484,-3.348 1.8492,0 3.3483,1.499 3.3483,3.348 z" />
      <path d="m -1.67452,-43.5286 c 0,1.8492 -1.4991,3.3483 -3.34832,3.3483 -1.84923,0 -3.34833,-1.4991 -3.34833,-3.3483 0,-1.8493 1.4991,-3.3484 3.34833,-3.3484 1.84922,0 3.34832,1.4991 3.34832,3.3484 z" />
      <path d="m -1.67452,-30.1353 c 0,1.8492 -1.4991,3.3483 -3.34832,3.3483 -1.84923,0 -3.34833,-1.4991 -3.34833,-3.3483 0,-1.8493 1.4991,-3.3484 3.34833,-3.3484 1.84922,0 3.34832,1.4991 3.34832,3.3484 z" />
      <path d="m -1.67452,-16.742 c 0,1.8492 -1.4991,3.3483 -3.34832,3.3483 -1.84923,0 -3.34833,-1.4991 -3.34833,-3.3483 0,-1.8493 1.4991,-3.3484 3.34833,-3.3484 1.84922,0 3.34832,1.4991 3.34832,3.3484 z" />
      <path d="m -1.67452,-3.34876 c 0,1.84923 -1.4991,3.348327032 -3.34832,3.348327032 -1.84923,0 -3.34833,-1.499097032 -3.34833,-3.348327032 0,-1.84922 1.4991,-3.34832 3.34833,-3.34832 1.84922,0 3.34832,1.4991 3.34832,3.34832 z" />
      <path d="m -1.67452,10.0445 c 0,1.8493 -1.4991,3.3484 -3.34832,3.3484 -1.84923,0 -3.34833,-1.4991 -3.34833,-3.3484 0,-1.84919 1.4991,-3.34829 3.34833,-3.34829 1.84922,0 3.34832,1.4991 3.34832,3.34829 z" />
      <path d="m -1.67452,23.4378 c 0,1.8493 -1.4991,3.3483 -3.34832,3.3483 -1.84923,0 -3.34833,-1.499 -3.34833,-3.3483 0,-1.8492 1.4991,-3.3483 3.34833,-3.3483 1.84922,0 3.34832,1.4991 3.34832,3.3483 z" />
      <path d="m -1.67452,36.8311 c 0,1.8492 -1.4991,3.3483 -3.34832,3.3483 -1.84923,0 -3.34833,-1.4991 -3.34833,-3.3483 0,-1.8492 1.4991,-3.3483 3.34833,-3.3483 1.84922,0 3.34832,1.4991 3.34832,3.3483 z" />
      <path d="m -1.67452,50.2244 c 0,1.8492 -1.4991,3.3483 -3.34832,3.3483 -1.84923,0 -3.34833,-1.4991 -3.34833,-3.3483 0,-1.8492 1.4991,-3.3483 3.34833,-3.3483 1.84922,0 3.34832,1.4991 3.34832,3.3483 z" />
      <path d="m -1.67452,63.6177 c 0,1.8492 -1.4991,3.3483 -3.34832,3.3483 -1.84923,0 -3.34833,-1.4991 -3.34833,-3.3483 0,-1.8492 1.4991,-3.3483 3.34833,-3.3483 1.84922,0 3.34832,1.4991 3.34832,3.3483 z" />
      <path d="m -1.67452,77.011 c 0,1.8492 -1.4991,3.3483 -3.34832,3.3483 -1.84923,0 -3.34833,-1.4991 -3.34833,-3.3483 0,-1.8492 1.4991,-3.3483 3.34833,-3.3483 1.84922,0 3.34832,1.4991 3.34832,3.3483 z" />
      <path d="m -1.67452,90.4043 c 0,1.8492 -1.4991,3.3483 -3.34832,3.3483 -1.84923,0 -3.34833,-1.4991 -3.34833,-3.3483 0,-1.8492 1.4991,-3.3483 3.34833,-3.3483 1.84922,0 3.34832,1.4991 3.34832,3.3483 z" />
      <path d="m -1.67452,103.798 c 0,1.849 -1.4991,3.348 -3.34832,3.348 -1.84923,0 -3.34833,-1.499 -3.34833,-3.348 0,-1.85 1.4991,-3.349 3.34833,-3.349 1.84922,0 3.34832,1.499 3.34832,3.349 z" />
      <path d="m -1.67452,117.191 c 0,1.849 -1.4991,3.348 -3.34832,3.348 -1.84923,0 -3.34833,-1.499 -3.34833,-3.348 0,-1.849 1.4991,-3.348 3.34833,-3.348 1.84922,0 3.34832,1.499 3.34832,3.348 z" />
      <path d="m -1.67452,130.584 c 0,1.849 -1.4991,3.348 -3.34832,3.348 -1.84923,0 -3.34833,-1.499 -3.34833,-3.348 0,-1.849 1.4991,-3.348 3.34833,-3.348 1.84922,0 3.34832,1.499 3.34832,3.348 z" />
      <path d="m -1.67452,143.977 c 0,1.85 -1.4991,3.349 -3.34832,3.349 -1.84923,0 -3.34833,-1.499 -3.34833,-3.349 0,-1.849 1.4991,-3.348 3.34833,-3.348 1.84922,0 3.34832,1.499 3.34832,3.348 z" />
      <path d="m -1.67452,157.371 c 0,1.849 -1.4991,3.348 -3.34832,3.348 -1.84923,0 -3.34833,-1.499 -3.34833,-3.348 0,-1.849 1.4991,-3.349 3.34833,-3.349 1.84922,0 3.34832,1.5 3.34832,3.349 z" />
      <path d="m -1.67452,170.764 c 0,1.849 -1.4991,3.348 -3.34832,3.348 -1.84923,0 -3.34833,-1.499 -3.34833,-3.348 0,-1.849 1.4991,-3.348 3.34833,-3.348 1.84922,0 3.34832,1.499 3.34832,3.348 z" />
      <path d="m -1.67452,184.157 c 0,1.85 -1.4991,3.349 -3.34832,3.349 -1.84923,0 -3.34833,-1.499 -3.34833,-3.349 0,-1.849 1.4991,-3.348 3.34833,-3.348 1.84922,0 3.34832,1.499 3.34832,3.348 z" />
      <path d="m -1.67452,197.551 c 0,1.849 -1.4991,3.348 -3.34832,3.348 -1.84923,0 -3.34833,-1.499 -3.34833,-3.348 0,-1.85 1.4991,-3.349 3.34833,-3.349 1.84922,0 3.34832,1.499 3.34832,3.349 z" />
      <path d="m -1.67452,210.944 c 0,1.849 -1.4991,3.348 -3.34832,3.348 -1.84923,0 -3.34833,-1.499 -3.34833,-3.348 0,-1.849 1.4991,-3.348 3.34833,-3.348 1.84922,0 3.34832,1.499 3.34832,3.348 z" />
      <path d="m -1.67452,224.337 c 0,1.849 -1.4991,3.349 -3.34832,3.349 -1.84923,0 -3.34833,-1.5 -3.34833,-3.349 0,-1.849 1.4991,-3.348 3.34833,-3.348 1.84922,0 3.34832,1.499 3.34832,3.348 z" />
      <path d="m 11.7188,-43.5286 c 0,1.8492 -1.4991,3.3483 -3.34835,3.3483 -1.84923,0 -3.34832,-1.4991 -3.34832,-3.3483 0,-1.8493 1.49909,-3.3484 3.34832,-3.3484 1.84925,0 3.34835,1.4991 3.34835,3.3484 z" />
      <path d="m 11.7188,-30.1353 c 0,1.8492 -1.4991,3.3483 -3.34835,3.3483 -1.84923,0 -3.34832,-1.4991 -3.34832,-3.3483 0,-1.8493 1.49909,-3.3484 3.34832,-3.3484 1.84925,0 3.34835,1.4991 3.34835,3.3484 z" />
      <path d="m 11.7188,-16.742 c 0,1.8492 -1.4991,3.3483 -3.34835,3.3483 -1.84923,0 -3.34832,-1.4991 -3.34832,-3.3483 0,-1.8493 1.49909,-3.3484 3.34832,-3.3484 1.84925,0 3.34835,1.4991 3.34835,3.3484 z" />
      <path d="m 11.7188,-3.34876 c 0,1.84923 -1.4991,3.348327032 -3.34835,3.348327032 -1.84923,0 -3.34832,-1.499097032 -3.34832,-3.348327032 0,-1.84922 1.49909,-3.34832 3.34832,-3.34832 1.84925,0 3.34835,1.4991 3.34835,3.34832 z" />
      <path d="m 11.7188,10.0445 c 0,1.8493 -1.4991,3.3484 -3.34835,3.3484 -1.84923,0 -3.34832,-1.4991 -3.34832,-3.3484 0,-1.84919 1.49909,-3.34829 3.34832,-3.34829 1.84925,0 3.34835,1.4991 3.34835,3.34829 z" />
      <path d="m 11.7188,23.4378 c 0,1.8493 -1.4991,3.3483 -3.34835,3.3483 -1.84923,0 -3.34832,-1.499 -3.34832,-3.3483 0,-1.8492 1.49909,-3.3483 3.34832,-3.3483 1.84925,0 3.34835,1.4991 3.34835,3.3483 z" />
      <path d="m 11.7188,36.8311 c 0,1.8492 -1.4991,3.3483 -3.34835,3.3483 -1.84923,0 -3.34832,-1.4991 -3.34832,-3.3483 0,-1.8492 1.49909,-3.3483 3.34832,-3.3483 1.84925,0 3.34835,1.4991 3.34835,3.3483 z" />
      <path d="m 11.7188,50.2244 c 0,1.8492 -1.4991,3.3483 -3.34835,3.3483 -1.84923,0 -3.34832,-1.4991 -3.34832,-3.3483 0,-1.8492 1.49909,-3.3483 3.34832,-3.3483 1.84925,0 3.34835,1.4991 3.34835,3.3483 z" />
      <path d="m 11.7188,63.6177 c 0,1.8492 -1.4991,3.3483 -3.34835,3.3483 -1.84923,0 -3.34832,-1.4991 -3.34832,-3.3483 0,-1.8492 1.49909,-3.3483 3.34832,-3.3483 1.84925,0 3.34835,1.4991 3.34835,3.3483 z" />
      <path d="m 11.7188,77.011 c 0,1.8492 -1.4991,3.3483 -3.34835,3.3483 -1.84923,0 -3.34832,-1.4991 -3.34832,-3.3483 0,-1.8492 1.49909,-3.3483 3.34832,-3.3483 1.84925,0 3.34835,1.4991 3.34835,3.3483 z" />
      <path d="m 11.7188,90.4043 c 0,1.8492 -1.4991,3.3483 -3.34835,3.3483 -1.84923,0 -3.34832,-1.4991 -3.34832,-3.3483 0,-1.8492 1.49909,-3.3483 3.34832,-3.3483 1.84925,0 3.34835,1.4991 3.34835,3.3483 z" />
      <path d="m 11.7188,103.798 c 0,1.849 -1.4991,3.348 -3.34835,3.348 -1.84923,0 -3.34832,-1.499 -3.34832,-3.348 0,-1.85 1.49909,-3.349 3.34832,-3.349 1.84925,0 3.34835,1.499 3.34835,3.349 z" />
      <path d="m 11.7188,117.191 c 0,1.849 -1.4991,3.348 -3.34835,3.348 -1.84923,0 -3.34832,-1.499 -3.34832,-3.348 0,-1.849 1.49909,-3.348 3.34832,-3.348 1.84925,0 3.34835,1.499 3.34835,3.348 z" />
      <path d="m 11.7188,130.584 c 0,1.849 -1.4991,3.348 -3.34835,3.348 -1.84923,0 -3.34832,-1.499 -3.34832,-3.348 0,-1.849 1.49909,-3.348 3.34832,-3.348 1.84925,0 3.34835,1.499 3.34835,3.348 z" />
      <path d="m 11.7188,143.977 c 0,1.85 -1.4991,3.349 -3.34835,3.349 -1.84923,0 -3.34832,-1.499 -3.34832,-3.349 0,-1.849 1.49909,-3.348 3.34832,-3.348 1.84925,0 3.34835,1.499 3.34835,3.348 z" />
      <path d="m 11.7188,157.371 c 0,1.849 -1.4991,3.348 -3.34835,3.348 -1.84923,0 -3.34832,-1.499 -3.34832,-3.348 0,-1.849 1.49909,-3.349 3.34832,-3.349 1.84925,0 3.34835,1.5 3.34835,3.349 z" />
      <path d="m 11.7188,170.764 c 0,1.849 -1.4991,3.348 -3.34835,3.348 -1.84923,0 -3.34832,-1.499 -3.34832,-3.348 0,-1.849 1.49909,-3.348 3.34832,-3.348 1.84925,0 3.34835,1.499 3.34835,3.348 z" />
      <path d="m 11.7188,184.157 c 0,1.85 -1.4991,3.349 -3.34835,3.349 -1.84923,0 -3.34832,-1.499 -3.34832,-3.349 0,-1.849 1.49909,-3.348 3.34832,-3.348 1.84925,0 3.34835,1.499 3.34835,3.348 z" />
      <path d="m 11.7188,197.551 c 0,1.849 -1.4991,3.348 -3.34835,3.348 -1.84923,0 -3.34832,-1.499 -3.34832,-3.348 0,-1.85 1.49909,-3.349 3.34832,-3.349 1.84925,0 3.34835,1.499 3.34835,3.349 z" />
      <path d="m 11.7188,210.944 c 0,1.849 -1.4991,3.348 -3.34835,3.348 -1.84923,0 -3.34832,-1.499 -3.34832,-3.348 0,-1.849 1.49909,-3.348 3.34832,-3.348 1.84925,0 3.34835,1.499 3.34835,3.348 z" />
      <path d="m 11.7188,224.337 c 0,1.849 -1.4991,3.349 -3.34835,3.349 -1.84923,0 -3.34832,-1.5 -3.34832,-3.349 0,-1.849 1.49909,-3.348 3.34832,-3.348 1.84925,0 3.34835,1.499 3.34835,3.348 z" />
      <path d="m 25.1121,-43.5286 c 0,1.8492 -1.4991,3.3483 -3.3484,3.3483 -1.8492,0 -3.3483,-1.4991 -3.3483,-3.3483 0,-1.8493 1.4991,-3.3484 3.3483,-3.3484 1.8493,0 3.3484,1.4991 3.3484,3.3484 z" />
      <path d="m 25.1121,-30.1353 c 0,1.8492 -1.4991,3.3483 -3.3484,3.3483 -1.8492,0 -3.3483,-1.4991 -3.3483,-3.3483 0,-1.8493 1.4991,-3.3484 3.3483,-3.3484 1.8493,0 3.3484,1.4991 3.3484,3.3484 z" />
      <path d="m 25.1121,-16.742 c 0,1.8492 -1.4991,3.3483 -3.3484,3.3483 -1.8492,0 -3.3483,-1.4991 -3.3483,-3.3483 0,-1.8493 1.4991,-3.3484 3.3483,-3.3484 1.8493,0 3.3484,1.4991 3.3484,3.3484 z" />
      <path d="m 25.1121,-3.34876 c 0,1.84923 -1.4991,3.348327032 -3.3484,3.348327032 -1.8492,0 -3.3483,-1.499097032 -3.3483,-3.348327032 0,-1.84922 1.4991,-3.34832 3.3483,-3.34832 1.8493,0 3.3484,1.4991 3.3484,3.34832 z" />
      <path d="m 25.1121,10.0445 c 0,1.8493 -1.4991,3.3484 -3.3484,3.3484 -1.8492,0 -3.3483,-1.4991 -3.3483,-3.3484 0,-1.84919 1.4991,-3.34829 3.3483,-3.34829 1.8493,0 3.3484,1.4991 3.3484,3.34829 z" />
      <path d="m 25.1121,23.4378 c 0,1.8493 -1.4991,3.3483 -3.3484,3.3483 -1.8492,0 -3.3483,-1.499 -3.3483,-3.3483 0,-1.8492 1.4991,-3.3483 3.3483,-3.3483 1.8493,0 3.3484,1.4991 3.3484,3.3483 z" />
      <path d="m 25.1121,36.8311 c 0,1.8492 -1.4991,3.3483 -3.3484,3.3483 -1.8492,0 -3.3483,-1.4991 -3.3483,-3.3483 0,-1.8492 1.4991,-3.3483 3.3483,-3.3483 1.8493,0 3.3484,1.4991 3.3484,3.3483 z" />
      <path d="m 25.1121,50.2244 c 0,1.8492 -1.4991,3.3483 -3.3484,3.3483 -1.8492,0 -3.3483,-1.4991 -3.3483,-3.3483 0,-1.8492 1.4991,-3.3483 3.3483,-3.3483 1.8493,0 3.3484,1.4991 3.3484,3.3483 z" />
      <path d="m 25.1121,63.6177 c 0,1.8492 -1.4991,3.3483 -3.3484,3.3483 -1.8492,0 -3.3483,-1.4991 -3.3483,-3.3483 0,-1.8492 1.4991,-3.3483 3.3483,-3.3483 1.8493,0 3.3484,1.4991 3.3484,3.3483 z" />
      <path d="m 25.1121,77.011 c 0,1.8492 -1.4991,3.3483 -3.3484,3.3483 -1.8492,0 -3.3483,-1.4991 -3.3483,-3.3483 0,-1.8492 1.4991,-3.3483 3.3483,-3.3483 1.8493,0 3.3484,1.4991 3.3484,3.3483 z" />
      <path d="m 25.1121,90.4043 c 0,1.8492 -1.4991,3.3483 -3.3484,3.3483 -1.8492,0 -3.3483,-1.4991 -3.3483,-3.3483 0,-1.8492 1.4991,-3.3483 3.3483,-3.3483 1.8493,0 3.3484,1.4991 3.3484,3.3483 z" />
      <path d="m 25.1121,103.798 c 0,1.849 -1.4991,3.348 -3.3484,3.348 -1.8492,0 -3.3483,-1.499 -3.3483,-3.348 0,-1.85 1.4991,-3.349 3.3483,-3.349 1.8493,0 3.3484,1.499 3.3484,3.349 z" />
      <path d="m 25.1121,117.191 c 0,1.849 -1.4991,3.348 -3.3484,3.348 -1.8492,0 -3.3483,-1.499 -3.3483,-3.348 0,-1.849 1.4991,-3.348 3.3483,-3.348 1.8493,0 3.3484,1.499 3.3484,3.348 z" />
      <path d="m 25.1121,130.584 c 0,1.849 -1.4991,3.348 -3.3484,3.348 -1.8492,0 -3.3483,-1.499 -3.3483,-3.348 0,-1.849 1.4991,-3.348 3.3483,-3.348 1.8493,0 3.3484,1.499 3.3484,3.348 z" />
      <path d="m 25.1121,143.977 c 0,1.85 -1.4991,3.349 -3.3484,3.349 -1.8492,0 -3.3483,-1.499 -3.3483,-3.349 0,-1.849 1.4991,-3.348 3.3483,-3.348 1.8493,0 3.3484,1.499 3.3484,3.348 z" />
      <path d="m 25.1121,157.371 c 0,1.849 -1.4991,3.348 -3.3484,3.348 -1.8492,0 -3.3483,-1.499 -3.3483,-3.348 0,-1.849 1.4991,-3.349 3.3483,-3.349 1.8493,0 3.3484,1.5 3.3484,3.349 z" />
      <path d="m 25.1121,170.764 c 0,1.849 -1.4991,3.348 -3.3484,3.348 -1.8492,0 -3.3483,-1.499 -3.3483,-3.348 0,-1.849 1.4991,-3.348 3.3483,-3.348 1.8493,0 3.3484,1.499 3.3484,3.348 z" />
      <path d="m 25.1121,184.157 c 0,1.85 -1.4991,3.349 -3.3484,3.349 -1.8492,0 -3.3483,-1.499 -3.3483,-3.349 0,-1.849 1.4991,-3.348 3.3483,-3.348 1.8493,0 3.3484,1.499 3.3484,3.348 z" />
      <path d="m 25.1121,197.551 c 0,1.849 -1.4991,3.348 -3.3484,3.348 -1.8492,0 -3.3483,-1.499 -3.3483,-3.348 0,-1.85 1.4991,-3.349 3.3483,-3.349 1.8493,0 3.3484,1.499 3.3484,3.349 z" />
      <path d="m 25.1121,210.944 c 0,1.849 -1.4991,3.348 -3.3484,3.348 -1.8492,0 -3.3483,-1.499 -3.3483,-3.348 0,-1.849 1.4991,-3.348 3.3483,-3.348 1.8493,0 3.3484,1.499 3.3484,3.348 z" />
      <path d="m 25.1121,224.337 c 0,1.849 -1.4991,3.349 -3.3484,3.349 -1.8492,0 -3.3483,-1.5 -3.3483,-3.349 0,-1.849 1.4991,-3.348 3.3483,-3.348 1.8493,0 3.3484,1.499 3.3484,3.348 z" />
      <path d="m 38.5054,-43.5286 c 0,1.8492 -1.4991,3.3483 -3.3484,3.3483 -1.8492,0 -3.3483,-1.4991 -3.3483,-3.3483 0,-1.8493 1.4991,-3.3484 3.3483,-3.3484 1.8493,0 3.3484,1.4991 3.3484,3.3484 z" />
      <path d="m 38.5054,-30.1353 c 0,1.8492 -1.4991,3.3483 -3.3484,3.3483 -1.8492,0 -3.3483,-1.4991 -3.3483,-3.3483 0,-1.8493 1.4991,-3.3484 3.3483,-3.3484 1.8493,0 3.3484,1.4991 3.3484,3.3484 z" />
      <path d="m 38.5054,-16.742 c 0,1.8492 -1.4991,3.3483 -3.3484,3.3483 -1.8492,0 -3.3483,-1.4991 -3.3483,-3.3483 0,-1.8493 1.4991,-3.3484 3.3483,-3.3484 1.8493,0 3.3484,1.4991 3.3484,3.3484 z" />
      <path d="m 38.5054,-3.34876 c 0,1.84923 -1.4991,3.348327032 -3.3484,3.348327032 -1.8492,0 -3.3483,-1.499097032 -3.3483,-3.348327032 0,-1.84922 1.4991,-3.34832 3.3483,-3.34832 1.8493,0 3.3484,1.4991 3.3484,3.34832 z" />
      <path d="m 38.5054,10.0445 c 0,1.8493 -1.4991,3.3484 -3.3484,3.3484 -1.8492,0 -3.3483,-1.4991 -3.3483,-3.3484 0,-1.84919 1.4991,-3.34829 3.3483,-3.34829 1.8493,0 3.3484,1.4991 3.3484,3.34829 z" />
      <path d="m 38.5054,23.4378 c 0,1.8493 -1.4991,3.3483 -3.3484,3.3483 -1.8492,0 -3.3483,-1.499 -3.3483,-3.3483 0,-1.8492 1.4991,-3.3483 3.3483,-3.3483 1.8493,0 3.3484,1.4991 3.3484,3.3483 z" />
      <path d="m 38.5054,36.8311 c 0,1.8492 -1.4991,3.3483 -3.3484,3.3483 -1.8492,0 -3.3483,-1.4991 -3.3483,-3.3483 0,-1.8492 1.4991,-3.3483 3.3483,-3.3483 1.8493,0 3.3484,1.4991 3.3484,3.3483 z" />
      <path d="m 38.5054,50.2244 c 0,1.8492 -1.4991,3.3483 -3.3484,3.3483 -1.8492,0 -3.3483,-1.4991 -3.3483,-3.3483 0,-1.8492 1.4991,-3.3483 3.3483,-3.3483 1.8493,0 3.3484,1.4991 3.3484,3.3483 z" />
      <path d="m 38.5054,63.6177 c 0,1.8492 -1.4991,3.3483 -3.3484,3.3483 -1.8492,0 -3.3483,-1.4991 -3.3483,-3.3483 0,-1.8492 1.4991,-3.3483 3.3483,-3.3483 1.8493,0 3.3484,1.4991 3.3484,3.3483 z" />
      <path d="m 38.5054,77.011 c 0,1.8492 -1.4991,3.3483 -3.3484,3.3483 -1.8492,0 -3.3483,-1.4991 -3.3483,-3.3483 0,-1.8492 1.4991,-3.3483 3.3483,-3.3483 1.8493,0 3.3484,1.4991 3.3484,3.3483 z" />
      <path d="m 38.5054,90.4043 c 0,1.8492 -1.4991,3.3483 -3.3484,3.3483 -1.8492,0 -3.3483,-1.4991 -3.3483,-3.3483 0,-1.8492 1.4991,-3.3483 3.3483,-3.3483 1.8493,0 3.3484,1.4991 3.3484,3.3483 z" />
      <path d="m 38.5054,103.798 c 0,1.849 -1.4991,3.348 -3.3484,3.348 -1.8492,0 -3.3483,-1.499 -3.3483,-3.348 0,-1.85 1.4991,-3.349 3.3483,-3.349 1.8493,0 3.3484,1.499 3.3484,3.349 z" />
      <path d="m 38.5054,117.191 c 0,1.849 -1.4991,3.348 -3.3484,3.348 -1.8492,0 -3.3483,-1.499 -3.3483,-3.348 0,-1.849 1.4991,-3.348 3.3483,-3.348 1.8493,0 3.3484,1.499 3.3484,3.348 z" />
      <path d="m 38.5054,130.584 c 0,1.849 -1.4991,3.348 -3.3484,3.348 -1.8492,0 -3.3483,-1.499 -3.3483,-3.348 0,-1.849 1.4991,-3.348 3.3483,-3.348 1.8493,0 3.3484,1.499 3.3484,3.348 z" />
      <path d="m 38.5054,143.977 c 0,1.85 -1.4991,3.349 -3.3484,3.349 -1.8492,0 -3.3483,-1.499 -3.3483,-3.349 0,-1.849 1.4991,-3.348 3.3483,-3.348 1.8493,0 3.3484,1.499 3.3484,3.348 z" />
      <path d="m 38.5054,157.371 c 0,1.849 -1.4991,3.348 -3.3484,3.348 -1.8492,0 -3.3483,-1.499 -3.3483,-3.348 0,-1.849 1.4991,-3.349 3.3483,-3.349 1.8493,0 3.3484,1.5 3.3484,3.349 z" />
      <path d="m 38.5054,170.764 c 0,1.849 -1.4991,3.348 -3.3484,3.348 -1.8492,0 -3.3483,-1.499 -3.3483,-3.348 0,-1.849 1.4991,-3.348 3.3483,-3.348 1.8493,0 3.3484,1.499 3.3484,3.348 z" />
      <path d="m 38.5054,184.157 c 0,1.85 -1.4991,3.349 -3.3484,3.349 -1.8492,0 -3.3483,-1.499 -3.3483,-3.349 0,-1.849 1.4991,-3.348 3.3483,-3.348 1.8493,0 3.3484,1.499 3.3484,3.348 z" />
      <path d="m 38.5054,197.551 c 0,1.849 -1.4991,3.348 -3.3484,3.348 -1.8492,0 -3.3483,-1.499 -3.3483,-3.348 0,-1.85 1.4991,-3.349 3.3483,-3.349 1.8493,0 3.3484,1.499 3.3484,3.349 z" />
      <path d="m 38.5054,210.944 c 0,1.849 -1.4991,3.348 -3.3484,3.348 -1.8492,0 -3.3483,-1.499 -3.3483,-3.348 0,-1.849 1.4991,-3.348 3.3483,-3.348 1.8493,0 3.3484,1.499 3.3484,3.348 z" />
      <path d="m 38.5054,224.337 c 0,1.849 -1.4991,3.349 -3.3484,3.349 -1.8492,0 -3.3483,-1.5 -3.3483,-3.349 0,-1.849 1.4991,-3.348 3.3483,-3.348 1.8493,0 3.3484,1.499 3.3484,3.348 z" />
      <path d="m 51.8986,-43.5286 c 0,1.8492 -1.499,3.3483 -3.3483,3.3483 -1.8492,0 -3.3483,-1.4991 -3.3483,-3.3483 0,-1.8493 1.4991,-3.3484 3.3483,-3.3484 1.8493,0 3.3483,1.4991 3.3483,3.3484 z" />
      <path d="m 51.8986,-30.1353 c 0,1.8492 -1.499,3.3483 -3.3483,3.3483 -1.8492,0 -3.3483,-1.4991 -3.3483,-3.3483 0,-1.8493 1.4991,-3.3484 3.3483,-3.3484 1.8493,0 3.3483,1.4991 3.3483,3.3484 z" />
      <path d="m 51.8986,-16.742 c 0,1.8492 -1.499,3.3483 -3.3483,3.3483 -1.8492,0 -3.3483,-1.4991 -3.3483,-3.3483 0,-1.8493 1.4991,-3.3484 3.3483,-3.3484 1.8493,0 3.3483,1.4991 3.3483,3.3484 z" />
      <path d="m 51.8986,-3.34876 c 0,1.84923 -1.499,3.348327032 -3.3483,3.348327032 -1.8492,0 -3.3483,-1.499097032 -3.3483,-3.348327032 0,-1.84922 1.4991,-3.34832 3.3483,-3.34832 1.8493,0 3.3483,1.4991 3.3483,3.34832 z" />
      <path d="m 51.8986,10.0445 c 0,1.8493 -1.499,3.3484 -3.3483,3.3484 -1.8492,0 -3.3483,-1.4991 -3.3483,-3.3484 0,-1.84919 1.4991,-3.34829 3.3483,-3.34829 1.8493,0 3.3483,1.4991 3.3483,3.34829 z" />
      <path d="m 51.8986,23.4378 c 0,1.8493 -1.499,3.3483 -3.3483,3.3483 -1.8492,0 -3.3483,-1.499 -3.3483,-3.3483 0,-1.8492 1.4991,-3.3483 3.3483,-3.3483 1.8493,0 3.3483,1.4991 3.3483,3.3483 z" />
      <path d="m 51.8986,36.8311 c 0,1.8492 -1.499,3.3483 -3.3483,3.3483 -1.8492,0 -3.3483,-1.4991 -3.3483,-3.3483 0,-1.8492 1.4991,-3.3483 3.3483,-3.3483 1.8493,0 3.3483,1.4991 3.3483,3.3483 z" />
      <path d="m 51.8986,50.2244 c 0,1.8492 -1.499,3.3483 -3.3483,3.3483 -1.8492,0 -3.3483,-1.4991 -3.3483,-3.3483 0,-1.8492 1.4991,-3.3483 3.3483,-3.3483 1.8493,0 3.3483,1.4991 3.3483,3.3483 z" />
      <path d="m 51.8986,63.6177 c 0,1.8492 -1.499,3.3483 -3.3483,3.3483 -1.8492,0 -3.3483,-1.4991 -3.3483,-3.3483 0,-1.8492 1.4991,-3.3483 3.3483,-3.3483 1.8493,0 3.3483,1.4991 3.3483,3.3483 z" />
      <path d="m 51.8986,77.011 c 0,1.8492 -1.499,3.3483 -3.3483,3.3483 -1.8492,0 -3.3483,-1.4991 -3.3483,-3.3483 0,-1.8492 1.4991,-3.3483 3.3483,-3.3483 1.8493,0 3.3483,1.4991 3.3483,3.3483 z" />
      <path d="m 51.8986,90.4043 c 0,1.8492 -1.499,3.3483 -3.3483,3.3483 -1.8492,0 -3.3483,-1.4991 -3.3483,-3.3483 0,-1.8492 1.4991,-3.3483 3.3483,-3.3483 1.8493,0 3.3483,1.4991 3.3483,3.3483 z" />
      <path d="m 51.8986,103.798 c 0,1.849 -1.499,3.348 -3.3483,3.348 -1.8492,0 -3.3483,-1.499 -3.3483,-3.348 0,-1.85 1.4991,-3.349 3.3483,-3.349 1.8493,0 3.3483,1.499 3.3483,3.349 z" />
      <path d="m 51.8986,117.191 c 0,1.849 -1.499,3.348 -3.3483,3.348 -1.8492,0 -3.3483,-1.499 -3.3483,-3.348 0,-1.849 1.4991,-3.348 3.3483,-3.348 1.8493,0 3.3483,1.499 3.3483,3.348 z" />
      <path d="m 51.8986,130.584 c 0,1.849 -1.499,3.348 -3.3483,3.348 -1.8492,0 -3.3483,-1.499 -3.3483,-3.348 0,-1.849 1.4991,-3.348 3.3483,-3.348 1.8493,0 3.3483,1.499 3.3483,3.348 z" />
      <path d="m 51.8986,143.977 c 0,1.85 -1.499,3.349 -3.3483,3.349 -1.8492,0 -3.3483,-1.499 -3.3483,-3.349 0,-1.849 1.4991,-3.348 3.3483,-3.348 1.8493,0 3.3483,1.499 3.3483,3.348 z" />
      <path d="m 51.8986,157.371 c 0,1.849 -1.499,3.348 -3.3483,3.348 -1.8492,0 -3.3483,-1.499 -3.3483,-3.348 0,-1.849 1.4991,-3.349 3.3483,-3.349 1.8493,0 3.3483,1.5 3.3483,3.349 z" />
      <path d="m 51.8986,170.764 c 0,1.849 -1.499,3.348 -3.3483,3.348 -1.8492,0 -3.3483,-1.499 -3.3483,-3.348 0,-1.849 1.4991,-3.348 3.3483,-3.348 1.8493,0 3.3483,1.499 3.3483,3.348 z" />
      <path d="m 51.8986,184.157 c 0,1.85 -1.499,3.349 -3.3483,3.349 -1.8492,0 -3.3483,-1.499 -3.3483,-3.349 0,-1.849 1.4991,-3.348 3.3483,-3.348 1.8493,0 3.3483,1.499 3.3483,3.348 z" />
      <path d="m 51.8986,197.551 c 0,1.849 -1.499,3.348 -3.3483,3.348 -1.8492,0 -3.3483,-1.499 -3.3483,-3.348 0,-1.85 1.4991,-3.349 3.3483,-3.349 1.8493,0 3.3483,1.499 3.3483,3.349 z" />
      <path d="m 51.8986,210.944 c 0,1.849 -1.499,3.348 -3.3483,3.348 -1.8492,0 -3.3483,-1.499 -3.3483,-3.348 0,-1.849 1.4991,-3.348 3.3483,-3.348 1.8493,0 3.3483,1.499 3.3483,3.348 z" />
      <path d="m 51.8986,224.337 c 0,1.849 -1.499,3.349 -3.3483,3.349 -1.8492,0 -3.3483,-1.5 -3.3483,-3.349 0,-1.849 1.4991,-3.348 3.3483,-3.348 1.8493,0 3.3483,1.499 3.3483,3.348 z" />
      <path d="m 65.2919,-43.5286 c 0,1.8492 -1.4991,3.3483 -3.3483,3.3483 -1.8492,0 -3.3483,-1.4991 -3.3483,-3.3483 0,-1.8493 1.4991,-3.3484 3.3483,-3.3484 1.8492,0 3.3483,1.4991 3.3483,3.3484 z" />
      <path d="m 65.2919,-30.1353 c 0,1.8492 -1.4991,3.3483 -3.3483,3.3483 -1.8492,0 -3.3483,-1.4991 -3.3483,-3.3483 0,-1.8493 1.4991,-3.3484 3.3483,-3.3484 1.8492,0 3.3483,1.4991 3.3483,3.3484 z" />
      <path d="m 65.2919,-16.742 c 0,1.8492 -1.4991,3.3483 -3.3483,3.3483 -1.8492,0 -3.3483,-1.4991 -3.3483,-3.3483 0,-1.8493 1.4991,-3.3484 3.3483,-3.3484 1.8492,0 3.3483,1.4991 3.3483,3.3484 z" />
      <path d="m 65.2919,-3.34876 c 0,1.84923 -1.4991,3.348327032 -3.3483,3.348327032 -1.8492,0 -3.3483,-1.499097032 -3.3483,-3.348327032 0,-1.84922 1.4991,-3.34832 3.3483,-3.34832 1.8492,0 3.3483,1.4991 3.3483,3.34832 z" />
      <path d="m 65.2919,10.0445 c 0,1.8493 -1.4991,3.3484 -3.3483,3.3484 -1.8492,0 -3.3483,-1.4991 -3.3483,-3.3484 0,-1.84919 1.4991,-3.34829 3.3483,-3.34829 1.8492,0 3.3483,1.4991 3.3483,3.34829 z" />
      <path d="m 65.2919,23.4378 c 0,1.8493 -1.4991,3.3483 -3.3483,3.3483 -1.8492,0 -3.3483,-1.499 -3.3483,-3.3483 0,-1.8492 1.4991,-3.3483 3.3483,-3.3483 1.8492,0 3.3483,1.4991 3.3483,3.3483 z" />
      <path d="m 65.2919,36.8311 c 0,1.8492 -1.4991,3.3483 -3.3483,3.3483 -1.8492,0 -3.3483,-1.4991 -3.3483,-3.3483 0,-1.8492 1.4991,-3.3483 3.3483,-3.3483 1.8492,0 3.3483,1.4991 3.3483,3.3483 z" />
      <path d="m 65.2919,50.2244 c 0,1.8492 -1.4991,3.3483 -3.3483,3.3483 -1.8492,0 -3.3483,-1.4991 -3.3483,-3.3483 0,-1.8492 1.4991,-3.3483 3.3483,-3.3483 1.8492,0 3.3483,1.4991 3.3483,3.3483 z" />
      <path d="m 65.2919,63.6177 c 0,1.8492 -1.4991,3.3483 -3.3483,3.3483 -1.8492,0 -3.3483,-1.4991 -3.3483,-3.3483 0,-1.8492 1.4991,-3.3483 3.3483,-3.3483 1.8492,0 3.3483,1.4991 3.3483,3.3483 z" />
      <path d="m 65.2919,77.011 c 0,1.8492 -1.4991,3.3483 -3.3483,3.3483 -1.8492,0 -3.3483,-1.4991 -3.3483,-3.3483 0,-1.8492 1.4991,-3.3483 3.3483,-3.3483 1.8492,0 3.3483,1.4991 3.3483,3.3483 z" />
      <path d="m 65.2919,90.4043 c 0,1.8492 -1.4991,3.3483 -3.3483,3.3483 -1.8492,0 -3.3483,-1.4991 -3.3483,-3.3483 0,-1.8492 1.4991,-3.3483 3.3483,-3.3483 1.8492,0 3.3483,1.4991 3.3483,3.3483 z" />
      <path d="m 65.2919,103.798 c 0,1.849 -1.4991,3.348 -3.3483,3.348 -1.8492,0 -3.3483,-1.499 -3.3483,-3.348 0,-1.85 1.4991,-3.349 3.3483,-3.349 1.8492,0 3.3483,1.499 3.3483,3.349 z" />
      <path d="m 65.2919,117.191 c 0,1.849 -1.4991,3.348 -3.3483,3.348 -1.8492,0 -3.3483,-1.499 -3.3483,-3.348 0,-1.849 1.4991,-3.348 3.3483,-3.348 1.8492,0 3.3483,1.499 3.3483,3.348 z" />
      <path d="m 65.2919,130.584 c 0,1.849 -1.4991,3.348 -3.3483,3.348 -1.8492,0 -3.3483,-1.499 -3.3483,-3.348 0,-1.849 1.4991,-3.348 3.3483,-3.348 1.8492,0 3.3483,1.499 3.3483,3.348 z" />
      <path d="m 65.2919,143.977 c 0,1.85 -1.4991,3.349 -3.3483,3.349 -1.8492,0 -3.3483,-1.499 -3.3483,-3.349 0,-1.849 1.4991,-3.348 3.3483,-3.348 1.8492,0 3.3483,1.499 3.3483,3.348 z" />
      <path d="m 65.2919,157.371 c 0,1.849 -1.4991,3.348 -3.3483,3.348 -1.8492,0 -3.3483,-1.499 -3.3483,-3.348 0,-1.849 1.4991,-3.349 3.3483,-3.349 1.8492,0 3.3483,1.5 3.3483,3.349 z" />
      <path d="m 65.2919,170.764 c 0,1.849 -1.4991,3.348 -3.3483,3.348 -1.8492,0 -3.3483,-1.499 -3.3483,-3.348 0,-1.849 1.4991,-3.348 3.3483,-3.348 1.8492,0 3.3483,1.499 3.3483,3.348 z" />
      <path d="m 65.2919,184.157 c 0,1.85 -1.4991,3.349 -3.3483,3.349 -1.8492,0 -3.3483,-1.499 -3.3483,-3.349 0,-1.849 1.4991,-3.348 3.3483,-3.348 1.8492,0 3.3483,1.499 3.3483,3.348 z" />
      <path d="m 65.2919,197.551 c 0,1.849 -1.4991,3.348 -3.3483,3.348 -1.8492,0 -3.3483,-1.499 -3.3483,-3.348 0,-1.85 1.4991,-3.349 3.3483,-3.349 1.8492,0 3.3483,1.499 3.3483,3.349 z" />
      <path d="m 65.2919,210.944 c 0,1.849 -1.4991,3.348 -3.3483,3.348 -1.8492,0 -3.3483,-1.499 -3.3483,-3.348 0,-1.849 1.4991,-3.348 3.3483,-3.348 1.8492,0 3.3483,1.499 3.3483,3.348 z" />
      <path d="m 65.2919,224.337 c 0,1.849 -1.4991,3.349 -3.3483,3.349 -1.8492,0 -3.3483,-1.5 -3.3483,-3.349 0,-1.849 1.4991,-3.348 3.3483,-3.348 1.8492,0 3.3483,1.499 3.3483,3.348 z" />
      <path d="m 78.6852,-43.5286 c 0,1.8492 -1.4991,3.3483 -3.3483,3.3483 -1.8492,0 -3.3483,-1.4991 -3.3483,-3.3483 0,-1.8493 1.4991,-3.3484 3.3483,-3.3484 1.8492,0 3.3483,1.4991 3.3483,3.3484 z" />
      <path d="m 78.6852,-30.1353 c 0,1.8492 -1.4991,3.3483 -3.3483,3.3483 -1.8492,0 -3.3483,-1.4991 -3.3483,-3.3483 0,-1.8493 1.4991,-3.3484 3.3483,-3.3484 1.8492,0 3.3483,1.4991 3.3483,3.3484 z" />
      <path d="m 78.6852,-16.742 c 0,1.8492 -1.4991,3.3483 -3.3483,3.3483 -1.8492,0 -3.3483,-1.4991 -3.3483,-3.3483 0,-1.8493 1.4991,-3.3484 3.3483,-3.3484 1.8492,0 3.3483,1.4991 3.3483,3.3484 z" />
      <path d="m 78.6852,-3.34876 c 0,1.84923 -1.4991,3.348327032 -3.3483,3.348327032 -1.8492,0 -3.3483,-1.499097032 -3.3483,-3.348327032 0,-1.84922 1.4991,-3.34832 3.3483,-3.34832 1.8492,0 3.3483,1.4991 3.3483,3.34832 z" />
      <path d="m 78.6852,10.0445 c 0,1.8493 -1.4991,3.3484 -3.3483,3.3484 -1.8492,0 -3.3483,-1.4991 -3.3483,-3.3484 0,-1.84919 1.4991,-3.34829 3.3483,-3.34829 1.8492,0 3.3483,1.4991 3.3483,3.34829 z" />
      <path d="m 78.6852,23.4378 c 0,1.8493 -1.4991,3.3483 -3.3483,3.3483 -1.8492,0 -3.3483,-1.499 -3.3483,-3.3483 0,-1.8492 1.4991,-3.3483 3.3483,-3.3483 1.8492,0 3.3483,1.4991 3.3483,3.3483 z" />
      <path d="m 78.6852,36.8311 c 0,1.8492 -1.4991,3.3483 -3.3483,3.3483 -1.8492,0 -3.3483,-1.4991 -3.3483,-3.3483 0,-1.8492 1.4991,-3.3483 3.3483,-3.3483 1.8492,0 3.3483,1.4991 3.3483,3.3483 z" />
      <path d="m 78.6852,50.2244 c 0,1.8492 -1.4991,3.3483 -3.3483,3.3483 -1.8492,0 -3.3483,-1.4991 -3.3483,-3.3483 0,-1.8492 1.4991,-3.3483 3.3483,-3.3483 1.8492,0 3.3483,1.4991 3.3483,3.3483 z" />
      <path d="m 78.6852,63.6177 c 0,1.8492 -1.4991,3.3483 -3.3483,3.3483 -1.8492,0 -3.3483,-1.4991 -3.3483,-3.3483 0,-1.8492 1.4991,-3.3483 3.3483,-3.3483 1.8492,0 3.3483,1.4991 3.3483,3.3483 z" />
      <path d="m 78.6852,77.011 c 0,1.8492 -1.4991,3.3483 -3.3483,3.3483 -1.8492,0 -3.3483,-1.4991 -3.3483,-3.3483 0,-1.8492 1.4991,-3.3483 3.3483,-3.3483 1.8492,0 3.3483,1.4991 3.3483,3.3483 z" />
      <path d="m 78.6852,90.4043 c 0,1.8492 -1.4991,3.3483 -3.3483,3.3483 -1.8492,0 -3.3483,-1.4991 -3.3483,-3.3483 0,-1.8492 1.4991,-3.3483 3.3483,-3.3483 1.8492,0 3.3483,1.4991 3.3483,3.3483 z" />
      <path d="m 78.6852,103.798 c 0,1.849 -1.4991,3.348 -3.3483,3.348 -1.8492,0 -3.3483,-1.499 -3.3483,-3.348 0,-1.85 1.4991,-3.349 3.3483,-3.349 1.8492,0 3.3483,1.499 3.3483,3.349 z" />
      <path d="m 78.6852,117.191 c 0,1.849 -1.4991,3.348 -3.3483,3.348 -1.8492,0 -3.3483,-1.499 -3.3483,-3.348 0,-1.849 1.4991,-3.348 3.3483,-3.348 1.8492,0 3.3483,1.499 3.3483,3.348 z" />
      <path d="m 78.6852,130.584 c 0,1.849 -1.4991,3.348 -3.3483,3.348 -1.8492,0 -3.3483,-1.499 -3.3483,-3.348 0,-1.849 1.4991,-3.348 3.3483,-3.348 1.8492,0 3.3483,1.499 3.3483,3.348 z" />
      <path d="m 78.6852,143.977 c 0,1.85 -1.4991,3.349 -3.3483,3.349 -1.8492,0 -3.3483,-1.499 -3.3483,-3.349 0,-1.849 1.4991,-3.348 3.3483,-3.348 1.8492,0 3.3483,1.499 3.3483,3.348 z" />
      <path d="m 78.6852,157.371 c 0,1.849 -1.4991,3.348 -3.3483,3.348 -1.8492,0 -3.3483,-1.499 -3.3483,-3.348 0,-1.849 1.4991,-3.349 3.3483,-3.349 1.8492,0 3.3483,1.5 3.3483,3.349 z" />
      <path d="m 78.6852,170.764 c 0,1.849 -1.4991,3.348 -3.3483,3.348 -1.8492,0 -3.3483,-1.499 -3.3483,-3.348 0,-1.849 1.4991,-3.348 3.3483,-3.348 1.8492,0 3.3483,1.499 3.3483,3.348 z" />
      <path d="m 78.6852,184.157 c 0,1.85 -1.4991,3.349 -3.3483,3.349 -1.8492,0 -3.3483,-1.499 -3.3483,-3.349 0,-1.849 1.4991,-3.348 3.3483,-3.348 1.8492,0 3.3483,1.499 3.3483,3.348 z" />
      <path d="m 78.6852,197.551 c 0,1.849 -1.4991,3.348 -3.3483,3.348 -1.8492,0 -3.3483,-1.499 -3.3483,-3.348 0,-1.85 1.4991,-3.349 3.3483,-3.349 1.8492,0 3.3483,1.499 3.3483,3.349 z" />
      <path d="m 78.6852,210.944 c 0,1.849 -1.4991,3.348 -3.3483,3.348 -1.8492,0 -3.3483,-1.499 -3.3483,-3.348 0,-1.849 1.4991,-3.348 3.3483,-3.348 1.8492,0 3.3483,1.499 3.3483,3.348 z" />
      <path d="m 78.6852,224.337 c 0,1.849 -1.4991,3.349 -3.3483,3.349 -1.8492,0 -3.3483,-1.5 -3.3483,-3.349 0,-1.849 1.4991,-3.348 3.3483,-3.348 1.8492,0 3.3483,1.499 3.3483,3.348 z" />
      <path d="m 92.0785,-43.5286 c 0,1.8492 -1.4991,3.3483 -3.3483,3.3483 -1.8492,0 -3.3483,-1.4991 -3.3483,-3.3483 0,-1.8493 1.4991,-3.3484 3.3483,-3.3484 1.8492,0 3.3483,1.4991 3.3483,3.3484 z" />
      <path d="m 92.0785,-30.1353 c 0,1.8492 -1.4991,3.3483 -3.3483,3.3483 -1.8492,0 -3.3483,-1.4991 -3.3483,-3.3483 0,-1.8493 1.4991,-3.3484 3.3483,-3.3484 1.8492,0 3.3483,1.4991 3.3483,3.3484 z" />
      <path d="m 92.0785,-16.742 c 0,1.8492 -1.4991,3.3483 -3.3483,3.3483 -1.8492,0 -3.3483,-1.4991 -3.3483,-3.3483 0,-1.8493 1.4991,-3.3484 3.3483,-3.3484 1.8492,0 3.3483,1.4991 3.3483,3.3484 z" />
      <path d="m 92.0785,-3.34876 c 0,1.84923 -1.4991,3.348327032 -3.3483,3.348327032 -1.8492,0 -3.3483,-1.499097032 -3.3483,-3.348327032 0,-1.84922 1.4991,-3.34832 3.3483,-3.34832 1.8492,0 3.3483,1.4991 3.3483,3.34832 z" />
      <path d="m 92.0785,10.0445 c 0,1.8493 -1.4991,3.3484 -3.3483,3.3484 -1.8492,0 -3.3483,-1.4991 -3.3483,-3.3484 0,-1.84919 1.4991,-3.34829 3.3483,-3.34829 1.8492,0 3.3483,1.4991 3.3483,3.34829 z" />
      <path d="m 92.0785,23.4378 c 0,1.8493 -1.4991,3.3483 -3.3483,3.3483 -1.8492,0 -3.3483,-1.499 -3.3483,-3.3483 0,-1.8492 1.4991,-3.3483 3.3483,-3.3483 1.8492,0 3.3483,1.4991 3.3483,3.3483 z" />
      <path d="m 92.0785,36.8311 c 0,1.8492 -1.4991,3.3483 -3.3483,3.3483 -1.8492,0 -3.3483,-1.4991 -3.3483,-3.3483 0,-1.8492 1.4991,-3.3483 3.3483,-3.3483 1.8492,0 3.3483,1.4991 3.3483,3.3483 z" />
      <path d="m 92.0785,50.2244 c 0,1.8492 -1.4991,3.3483 -3.3483,3.3483 -1.8492,0 -3.3483,-1.4991 -3.3483,-3.3483 0,-1.8492 1.4991,-3.3483 3.3483,-3.3483 1.8492,0 3.3483,1.4991 3.3483,3.3483 z" />
      <path d="m 92.0785,63.6177 c 0,1.8492 -1.4991,3.3483 -3.3483,3.3483 -1.8492,0 -3.3483,-1.4991 -3.3483,-3.3483 0,-1.8492 1.4991,-3.3483 3.3483,-3.3483 1.8492,0 3.3483,1.4991 3.3483,3.3483 z" />
      <path d="m 92.0785,77.011 c 0,1.8492 -1.4991,3.3483 -3.3483,3.3483 -1.8492,0 -3.3483,-1.4991 -3.3483,-3.3483 0,-1.8492 1.4991,-3.3483 3.3483,-3.3483 1.8492,0 3.3483,1.4991 3.3483,3.3483 z" />
      <path d="m 92.0785,90.4043 c 0,1.8492 -1.4991,3.3483 -3.3483,3.3483 -1.8492,0 -3.3483,-1.4991 -3.3483,-3.3483 0,-1.8492 1.4991,-3.3483 3.3483,-3.3483 1.8492,0 3.3483,1.4991 3.3483,3.3483 z" />
      <path d="m 92.0785,103.798 c 0,1.849 -1.4991,3.348 -3.3483,3.348 -1.8492,0 -3.3483,-1.499 -3.3483,-3.348 0,-1.85 1.4991,-3.349 3.3483,-3.349 1.8492,0 3.3483,1.499 3.3483,3.349 z" />
      <path d="m 92.0785,117.191 c 0,1.849 -1.4991,3.348 -3.3483,3.348 -1.8492,0 -3.3483,-1.499 -3.3483,-3.348 0,-1.849 1.4991,-3.348 3.3483,-3.348 1.8492,0 3.3483,1.499 3.3483,3.348 z" />
      <path d="m 92.0785,130.584 c 0,1.849 -1.4991,3.348 -3.3483,3.348 -1.8492,0 -3.3483,-1.499 -3.3483,-3.348 0,-1.849 1.4991,-3.348 3.3483,-3.348 1.8492,0 3.3483,1.499 3.3483,3.348 z" />
      <path d="m 92.0785,143.977 c 0,1.85 -1.4991,3.349 -3.3483,3.349 -1.8492,0 -3.3483,-1.499 -3.3483,-3.349 0,-1.849 1.4991,-3.348 3.3483,-3.348 1.8492,0 3.3483,1.499 3.3483,3.348 z" />
      <path d="m 92.0785,157.371 c 0,1.849 -1.4991,3.348 -3.3483,3.348 -1.8492,0 -3.3483,-1.499 -3.3483,-3.348 0,-1.849 1.4991,-3.349 3.3483,-3.349 1.8492,0 3.3483,1.5 3.3483,3.349 z" />
      <path d="m 92.0785,170.764 c 0,1.849 -1.4991,3.348 -3.3483,3.348 -1.8492,0 -3.3483,-1.499 -3.3483,-3.348 0,-1.849 1.4991,-3.348 3.3483,-3.348 1.8492,0 3.3483,1.499 3.3483,3.348 z" />
      <path d="m 92.0785,184.157 c 0,1.85 -1.4991,3.349 -3.3483,3.349 -1.8492,0 -3.3483,-1.499 -3.3483,-3.349 0,-1.849 1.4991,-3.348 3.3483,-3.348 1.8492,0 3.3483,1.499 3.3483,3.348 z" />
      <path d="m 92.0785,197.551 c 0,1.849 -1.4991,3.348 -3.3483,3.348 -1.8492,0 -3.3483,-1.499 -3.3483,-3.348 0,-1.85 1.4991,-3.349 3.3483,-3.349 1.8492,0 3.3483,1.499 3.3483,3.349 z" />
      <path d="m 92.0785,210.944 c 0,1.849 -1.4991,3.348 -3.3483,3.348 -1.8492,0 -3.3483,-1.499 -3.3483,-3.348 0,-1.849 1.4991,-3.348 3.3483,-3.348 1.8492,0 3.3483,1.499 3.3483,3.348 z" />
      <path d="m 92.0785,224.337 c 0,1.849 -1.4991,3.349 -3.3483,3.349 -1.8492,0 -3.3483,-1.5 -3.3483,-3.349 0,-1.849 1.4991,-3.348 3.3483,-3.348 1.8492,0 3.3483,1.499 3.3483,3.348 z" />
      <path d="m 105.472,-43.5286 c 0,1.8492 -1.499,3.3483 -3.349,3.3483 -1.849,0 -3.3478,-1.4991 -3.3478,-3.3483 0,-1.8493 1.4988,-3.3484 3.3478,-3.3484 1.85,0 3.349,1.4991 3.349,3.3484 z" />
      <path d="m 105.472,-30.1353 c 0,1.8492 -1.499,3.3483 -3.349,3.3483 -1.849,0 -3.3478,-1.4991 -3.3478,-3.3483 0,-1.8493 1.4988,-3.3484 3.3478,-3.3484 1.85,0 3.349,1.4991 3.349,3.3484 z" />
      <path d="m 105.472,-16.742 c 0,1.8492 -1.499,3.3483 -3.349,3.3483 -1.849,0 -3.3478,-1.4991 -3.3478,-3.3483 0,-1.8493 1.4988,-3.3484 3.3478,-3.3484 1.85,0 3.349,1.4991 3.349,3.3484 z" />
      <path d="m 105.472,-3.34876 c 0,1.84923 -1.499,3.348327032 -3.349,3.348327032 -1.849,0 -3.3478,-1.499097032 -3.3478,-3.348327032 0,-1.84922 1.4988,-3.34832 3.3478,-3.34832 1.85,0 3.349,1.4991 3.349,3.34832 z" />
      <path d="m 105.472,10.0445 c 0,1.8493 -1.499,3.3484 -3.349,3.3484 -1.849,0 -3.3478,-1.4991 -3.3478,-3.3484 0,-1.84919 1.4988,-3.34829 3.3478,-3.34829 1.85,0 3.349,1.4991 3.349,3.34829 z" />
      <path d="m 105.472,23.4378 c 0,1.8493 -1.499,3.3483 -3.349,3.3483 -1.849,0 -3.3478,-1.499 -3.3478,-3.3483 0,-1.8492 1.4988,-3.3483 3.3478,-3.3483 1.85,0 3.349,1.4991 3.349,3.3483 z" />
      <path d="m 105.472,36.8311 c 0,1.8492 -1.499,3.3483 -3.349,3.3483 -1.849,0 -3.3478,-1.4991 -3.3478,-3.3483 0,-1.8492 1.4988,-3.3483 3.3478,-3.3483 1.85,0 3.349,1.4991 3.349,3.3483 z" />
      <path d="m 105.472,50.2244 c 0,1.8492 -1.499,3.3483 -3.349,3.3483 -1.849,0 -3.3478,-1.4991 -3.3478,-3.3483 0,-1.8492 1.4988,-3.3483 3.3478,-3.3483 1.85,0 3.349,1.4991 3.349,3.3483 z" />
      <path d="m 105.472,63.6177 c 0,1.8492 -1.499,3.3483 -3.349,3.3483 -1.849,0 -3.3478,-1.4991 -3.3478,-3.3483 0,-1.8492 1.4988,-3.3483 3.3478,-3.3483 1.85,0 3.349,1.4991 3.349,3.3483 z" />
      <path d="m 105.472,77.011 c 0,1.8492 -1.499,3.3483 -3.349,3.3483 -1.849,0 -3.3478,-1.4991 -3.3478,-3.3483 0,-1.8492 1.4988,-3.3483 3.3478,-3.3483 1.85,0 3.349,1.4991 3.349,3.3483 z" />
      <path d="m 105.472,90.4043 c 0,1.8492 -1.499,3.3483 -3.349,3.3483 -1.849,0 -3.3478,-1.4991 -3.3478,-3.3483 0,-1.8492 1.4988,-3.3483 3.3478,-3.3483 1.85,0 3.349,1.4991 3.349,3.3483 z" />
      <path d="m 105.472,103.798 c 0,1.849 -1.499,3.348 -3.349,3.348 -1.849,0 -3.3478,-1.499 -3.3478,-3.348 0,-1.85 1.4988,-3.349 3.3478,-3.349 1.85,0 3.349,1.499 3.349,3.349 z" />
      <path d="m 105.472,117.191 c 0,1.849 -1.499,3.348 -3.349,3.348 -1.849,0 -3.3478,-1.499 -3.3478,-3.348 0,-1.849 1.4988,-3.348 3.3478,-3.348 1.85,0 3.349,1.499 3.349,3.348 z" />
      <path d="m 105.472,130.584 c 0,1.849 -1.499,3.348 -3.349,3.348 -1.849,0 -3.3478,-1.499 -3.3478,-3.348 0,-1.849 1.4988,-3.348 3.3478,-3.348 1.85,0 3.349,1.499 3.349,3.348 z" />
      <path d="m 105.472,143.977 c 0,1.85 -1.499,3.349 -3.349,3.349 -1.849,0 -3.3478,-1.499 -3.3478,-3.349 0,-1.849 1.4988,-3.348 3.3478,-3.348 1.85,0 3.349,1.499 3.349,3.348 z" />
      <path d="m 105.472,157.371 c 0,1.849 -1.499,3.348 -3.349,3.348 -1.849,0 -3.3478,-1.499 -3.3478,-3.348 0,-1.849 1.4988,-3.349 3.3478,-3.349 1.85,0 3.349,1.5 3.349,3.349 z" />
      <path d="m 105.472,170.764 c 0,1.849 -1.499,3.348 -3.349,3.348 -1.849,0 -3.3478,-1.499 -3.3478,-3.348 0,-1.849 1.4988,-3.348 3.3478,-3.348 1.85,0 3.349,1.499 3.349,3.348 z" />
      <path d="m 105.472,184.157 c 0,1.85 -1.499,3.349 -3.349,3.349 -1.849,0 -3.3478,-1.499 -3.3478,-3.349 0,-1.849 1.4988,-3.348 3.3478,-3.348 1.85,0 3.349,1.499 3.349,3.348 z" />
      <path d="m 105.472,197.551 c 0,1.849 -1.499,3.348 -3.349,3.348 -1.849,0 -3.3478,-1.499 -3.3478,-3.348 0,-1.85 1.4988,-3.349 3.3478,-3.349 1.85,0 3.349,1.499 3.349,3.349 z" />
      <path d="m 105.472,210.944 c 0,1.849 -1.499,3.348 -3.349,3.348 -1.849,0 -3.3478,-1.499 -3.3478,-3.348 0,-1.849 1.4988,-3.348 3.3478,-3.348 1.85,0 3.349,1.499 3.349,3.348 z" />
      <path d="m 105.472,224.337 c 0,1.849 -1.499,3.349 -3.349,3.349 -1.849,0 -3.3478,-1.5 -3.3478,-3.349 0,-1.849 1.4988,-3.348 3.3478,-3.348 1.85,0 3.349,1.499 3.349,3.348 z" />
      <path d="m 118.865,-43.5286 c 0,1.8492 -1.499,3.3483 -3.348,3.3483 -1.849,0 -3.349,-1.4991 -3.349,-3.3483 0,-1.8493 1.5,-3.3484 3.349,-3.3484 1.849,0 3.348,1.4991 3.348,3.3484 z" />
      <path d="m 118.865,-30.1353 c 0,1.8492 -1.499,3.3483 -3.348,3.3483 -1.849,0 -3.349,-1.4991 -3.349,-3.3483 0,-1.8493 1.5,-3.3484 3.349,-3.3484 1.849,0 3.348,1.4991 3.348,3.3484 z" />
      <path d="m 118.865,-16.742 c 0,1.8492 -1.499,3.3483 -3.348,3.3483 -1.849,0 -3.349,-1.4991 -3.349,-3.3483 0,-1.8493 1.5,-3.3484 3.349,-3.3484 1.849,0 3.348,1.4991 3.348,3.3484 z" />
      <path d="m 118.865,-3.34876 c 0,1.84923 -1.499,3.348327032 -3.348,3.348327032 -1.849,0 -3.349,-1.499097032 -3.349,-3.348327032 0,-1.84922 1.5,-3.34832 3.349,-3.34832 1.849,0 3.348,1.4991 3.348,3.34832 z" />
      <path d="m 118.865,10.0445 c 0,1.8493 -1.499,3.3484 -3.348,3.3484 -1.849,0 -3.349,-1.4991 -3.349,-3.3484 0,-1.84919 1.5,-3.34829 3.349,-3.34829 1.849,0 3.348,1.4991 3.348,3.34829 z" />
      <path d="m 118.865,23.4378 c 0,1.8493 -1.499,3.3483 -3.348,3.3483 -1.849,0 -3.349,-1.499 -3.349,-3.3483 0,-1.8492 1.5,-3.3483 3.349,-3.3483 1.849,0 3.348,1.4991 3.348,3.3483 z" />
      <path d="m 118.865,36.8311 c 0,1.8492 -1.499,3.3483 -3.348,3.3483 -1.849,0 -3.349,-1.4991 -3.349,-3.3483 0,-1.8492 1.5,-3.3483 3.349,-3.3483 1.849,0 3.348,1.4991 3.348,3.3483 z" />
      <path d="m 118.865,50.2244 c 0,1.8492 -1.499,3.3483 -3.348,3.3483 -1.849,0 -3.349,-1.4991 -3.349,-3.3483 0,-1.8492 1.5,-3.3483 3.349,-3.3483 1.849,0 3.348,1.4991 3.348,3.3483 z" />
      <path d="m 118.865,63.6177 c 0,1.8492 -1.499,3.3483 -3.348,3.3483 -1.849,0 -3.349,-1.4991 -3.349,-3.3483 0,-1.8492 1.5,-3.3483 3.349,-3.3483 1.849,0 3.348,1.4991 3.348,3.3483 z" />
      <path d="m 118.865,77.011 c 0,1.8492 -1.499,3.3483 -3.348,3.3483 -1.849,0 -3.349,-1.4991 -3.349,-3.3483 0,-1.8492 1.5,-3.3483 3.349,-3.3483 1.849,0 3.348,1.4991 3.348,3.3483 z" />
      <path d="m 118.865,90.4043 c 0,1.8492 -1.499,3.3483 -3.348,3.3483 -1.849,0 -3.349,-1.4991 -3.349,-3.3483 0,-1.8492 1.5,-3.3483 3.349,-3.3483 1.849,0 3.348,1.4991 3.348,3.3483 z" />
      <path d="m 118.865,103.798 c 0,1.849 -1.499,3.348 -3.348,3.348 -1.849,0 -3.349,-1.499 -3.349,-3.348 0,-1.85 1.5,-3.349 3.349,-3.349 1.849,0 3.348,1.499 3.348,3.349 z" />
      <path d="m 118.865,117.191 c 0,1.849 -1.499,3.348 -3.348,3.348 -1.849,0 -3.349,-1.499 -3.349,-3.348 0,-1.849 1.5,-3.348 3.349,-3.348 1.849,0 3.348,1.499 3.348,3.348 z" />
      <path d="m 118.865,130.584 c 0,1.849 -1.499,3.348 -3.348,3.348 -1.849,0 -3.349,-1.499 -3.349,-3.348 0,-1.849 1.5,-3.348 3.349,-3.348 1.849,0 3.348,1.499 3.348,3.348 z" />
      <path d="m 118.865,143.977 c 0,1.85 -1.499,3.349 -3.348,3.349 -1.849,0 -3.349,-1.499 -3.349,-3.349 0,-1.849 1.5,-3.348 3.349,-3.348 1.849,0 3.348,1.499 3.348,3.348 z" />
      <path d="m 118.865,157.371 c 0,1.849 -1.499,3.348 -3.348,3.348 -1.849,0 -3.349,-1.499 -3.349,-3.348 0,-1.849 1.5,-3.349 3.349,-3.349 1.849,0 3.348,1.5 3.348,3.349 z" />
      <path d="m 118.865,170.764 c 0,1.849 -1.499,3.348 -3.348,3.348 -1.849,0 -3.349,-1.499 -3.349,-3.348 0,-1.849 1.5,-3.348 3.349,-3.348 1.849,0 3.348,1.499 3.348,3.348 z" />
      <path d="m 118.865,184.157 c 0,1.85 -1.499,3.349 -3.348,3.349 -1.849,0 -3.349,-1.499 -3.349,-3.349 0,-1.849 1.5,-3.348 3.349,-3.348 1.849,0 3.348,1.499 3.348,3.348 z" />
      <path d="m 118.865,197.551 c 0,1.849 -1.499,3.348 -3.348,3.348 -1.849,0 -3.349,-1.499 -3.349,-3.348 0,-1.85 1.5,-3.349 3.349,-3.349 1.849,0 3.348,1.499 3.348,3.349 z" />
      <path d="m 118.865,210.944 c 0,1.849 -1.499,3.348 -3.348,3.348 -1.849,0 -3.349,-1.499 -3.349,-3.348 0,-1.849 1.5,-3.348 3.349,-3.348 1.849,0 3.348,1.499 3.348,3.348 z" />
      <path d="m 118.865,224.337 c 0,1.849 -1.499,3.349 -3.348,3.349 -1.849,0 -3.349,-1.5 -3.349,-3.349 0,-1.849 1.5,-3.348 3.349,-3.348 1.849,0 3.348,1.499 3.348,3.348 z" />
      <path d="m 132.258,-43.5286 c 0,1.8492 -1.499,3.3483 -3.348,3.3483 -1.849,0 -3.348,-1.4991 -3.348,-3.3483 0,-1.8493 1.499,-3.3484 3.348,-3.3484 1.849,0 3.348,1.4991 3.348,3.3484 z" />
      <path d="m 132.258,-30.1353 c 0,1.8492 -1.499,3.3483 -3.348,3.3483 -1.849,0 -3.348,-1.4991 -3.348,-3.3483 0,-1.8493 1.499,-3.3484 3.348,-3.3484 1.849,0 3.348,1.4991 3.348,3.3484 z" />
      <path d="m 132.258,-16.742 c 0,1.8492 -1.499,3.3483 -3.348,3.3483 -1.849,0 -3.348,-1.4991 -3.348,-3.3483 0,-1.8493 1.499,-3.3484 3.348,-3.3484 1.849,0 3.348,1.4991 3.348,3.3484 z" />
      <path d="m 132.258,-3.34876 c 0,1.84923 -1.499,3.348327032 -3.348,3.348327032 -1.849,0 -3.348,-1.499097032 -3.348,-3.348327032 0,-1.84922 1.499,-3.34832 3.348,-3.34832 1.849,0 3.348,1.4991 3.348,3.34832 z" />
      <path d="m 132.258,10.0445 c 0,1.8493 -1.499,3.3484 -3.348,3.3484 -1.849,0 -3.348,-1.4991 -3.348,-3.3484 0,-1.84919 1.499,-3.34829 3.348,-3.34829 1.849,0 3.348,1.4991 3.348,3.34829 z" />
      <path d="m 132.258,23.4378 c 0,1.8493 -1.499,3.3483 -3.348,3.3483 -1.849,0 -3.348,-1.499 -3.348,-3.3483 0,-1.8492 1.499,-3.3483 3.348,-3.3483 1.849,0 3.348,1.4991 3.348,3.3483 z" />
      <path d="m 132.258,36.8311 c 0,1.8492 -1.499,3.3483 -3.348,3.3483 -1.849,0 -3.348,-1.4991 -3.348,-3.3483 0,-1.8492 1.499,-3.3483 3.348,-3.3483 1.849,0 3.348,1.4991 3.348,3.3483 z" />
      <path d="m 132.258,50.2244 c 0,1.8492 -1.499,3.3483 -3.348,3.3483 -1.849,0 -3.348,-1.4991 -3.348,-3.3483 0,-1.8492 1.499,-3.3483 3.348,-3.3483 1.849,0 3.348,1.4991 3.348,3.3483 z" />
      <path d="m 132.258,63.6177 c 0,1.8492 -1.499,3.3483 -3.348,3.3483 -1.849,0 -3.348,-1.4991 -3.348,-3.3483 0,-1.8492 1.499,-3.3483 3.348,-3.3483 1.849,0 3.348,1.4991 3.348,3.3483 z" />
      <path d="m 132.258,77.011 c 0,1.8492 -1.499,3.3483 -3.348,3.3483 -1.849,0 -3.348,-1.4991 -3.348,-3.3483 0,-1.8492 1.499,-3.3483 3.348,-3.3483 1.849,0 3.348,1.4991 3.348,3.3483 z" />
      <path d="m 132.258,90.4043 c 0,1.8492 -1.499,3.3483 -3.348,3.3483 -1.849,0 -3.348,-1.4991 -3.348,-3.3483 0,-1.8492 1.499,-3.3483 3.348,-3.3483 1.849,0 3.348,1.4991 3.348,3.3483 z" />
      <path d="m 132.258,103.798 c 0,1.849 -1.499,3.348 -3.348,3.348 -1.849,0 -3.348,-1.499 -3.348,-3.348 0,-1.85 1.499,-3.349 3.348,-3.349 1.849,0 3.348,1.499 3.348,3.349 z" />
      <path d="m 132.258,117.191 c 0,1.849 -1.499,3.348 -3.348,3.348 -1.849,0 -3.348,-1.499 -3.348,-3.348 0,-1.849 1.499,-3.348 3.348,-3.348 1.849,0 3.348,1.499 3.348,3.348 z" />
      <path d="m 132.258,130.584 c 0,1.849 -1.499,3.348 -3.348,3.348 -1.849,0 -3.348,-1.499 -3.348,-3.348 0,-1.849 1.499,-3.348 3.348,-3.348 1.849,0 3.348,1.499 3.348,3.348 z" />
      <path d="m 132.258,143.977 c 0,1.85 -1.499,3.349 -3.348,3.349 -1.849,0 -3.348,-1.499 -3.348,-3.349 0,-1.849 1.499,-3.348 3.348,-3.348 1.849,0 3.348,1.499 3.348,3.348 z" />
      <path d="m 132.258,157.371 c 0,1.849 -1.499,3.348 -3.348,3.348 -1.849,0 -3.348,-1.499 -3.348,-3.348 0,-1.849 1.499,-3.349 3.348,-3.349 1.849,0 3.348,1.5 3.348,3.349 z" />
      <path d="m 132.258,170.764 c 0,1.849 -1.499,3.348 -3.348,3.348 -1.849,0 -3.348,-1.499 -3.348,-3.348 0,-1.849 1.499,-3.348 3.348,-3.348 1.849,0 3.348,1.499 3.348,3.348 z" />
      <path d="m 132.258,184.157 c 0,1.85 -1.499,3.349 -3.348,3.349 -1.849,0 -3.348,-1.499 -3.348,-3.349 0,-1.849 1.499,-3.348 3.348,-3.348 1.849,0 3.348,1.499 3.348,3.348 z" />
      <path d="m 132.258,197.551 c 0,1.849 -1.499,3.348 -3.348,3.348 -1.849,0 -3.348,-1.499 -3.348,-3.348 0,-1.85 1.499,-3.349 3.348,-3.349 1.849,0 3.348,1.499 3.348,3.349 z" />
      <path d="m 132.258,210.944 c 0,1.849 -1.499,3.348 -3.348,3.348 -1.849,0 -3.348,-1.499 -3.348,-3.348 0,-1.849 1.499,-3.348 3.348,-3.348 1.849,0 3.348,1.499 3.348,3.348 z" />
      <path d="m 132.258,224.337 c 0,1.849 -1.499,3.349 -3.348,3.349 -1.849,0 -3.348,-1.5 -3.348,-3.349 0,-1.849 1.499,-3.348 3.348,-3.348 1.849,0 3.348,1.499 3.348,3.348 z" />
      <path d="m 145.652,-43.5286 c 0,1.8492 -1.499,3.3483 -3.349,3.3483 -1.849,0 -3.348,-1.4991 -3.348,-3.3483 0,-1.8493 1.499,-3.3484 3.348,-3.3484 1.85,0 3.349,1.4991 3.349,3.3484 z" />
      <path d="m 145.652,-30.1353 c 0,1.8492 -1.499,3.3483 -3.349,3.3483 -1.849,0 -3.348,-1.4991 -3.348,-3.3483 0,-1.8493 1.499,-3.3484 3.348,-3.3484 1.85,0 3.349,1.4991 3.349,3.3484 z" />
      <path d="m 145.652,-16.742 c 0,1.8492 -1.499,3.3483 -3.349,3.3483 -1.849,0 -3.348,-1.4991 -3.348,-3.3483 0,-1.8493 1.499,-3.3484 3.348,-3.3484 1.85,0 3.349,1.4991 3.349,3.3484 z" />
      <path d="m 145.652,-3.34876 c 0,1.84923 -1.499,3.348327032 -3.349,3.348327032 -1.849,0 -3.348,-1.499097032 -3.348,-3.348327032 0,-1.84922 1.499,-3.34832 3.348,-3.34832 1.85,0 3.349,1.4991 3.349,3.34832 z" />
      <path d="m 145.652,10.0445 c 0,1.8493 -1.499,3.3484 -3.349,3.3484 -1.849,0 -3.348,-1.4991 -3.348,-3.3484 0,-1.84919 1.499,-3.34829 3.348,-3.34829 1.85,0 3.349,1.4991 3.349,3.34829 z" />
      <path d="m 145.652,23.4378 c 0,1.8493 -1.499,3.3483 -3.349,3.3483 -1.849,0 -3.348,-1.499 -3.348,-3.3483 0,-1.8492 1.499,-3.3483 3.348,-3.3483 1.85,0 3.349,1.4991 3.349,3.3483 z" />
      <path d="m 145.652,36.8311 c 0,1.8492 -1.499,3.3483 -3.349,3.3483 -1.849,0 -3.348,-1.4991 -3.348,-3.3483 0,-1.8492 1.499,-3.3483 3.348,-3.3483 1.85,0 3.349,1.4991 3.349,3.3483 z" />
      <path d="m 145.652,50.2244 c 0,1.8492 -1.499,3.3483 -3.349,3.3483 -1.849,0 -3.348,-1.4991 -3.348,-3.3483 0,-1.8492 1.499,-3.3483 3.348,-3.3483 1.85,0 3.349,1.4991 3.349,3.3483 z" />
      <path d="m 145.652,63.6177 c 0,1.8492 -1.499,3.3483 -3.349,3.3483 -1.849,0 -3.348,-1.4991 -3.348,-3.3483 0,-1.8492 1.499,-3.3483 3.348,-3.3483 1.85,0 3.349,1.4991 3.349,3.3483 z" />
      <path d="m 145.652,77.011 c 0,1.8492 -1.499,3.3483 -3.349,3.3483 -1.849,0 -3.348,-1.4991 -3.348,-3.3483 0,-1.8492 1.499,-3.3483 3.348,-3.3483 1.85,0 3.349,1.4991 3.349,3.3483 z" />
      <path d="m 145.652,90.4043 c 0,1.8492 -1.499,3.3483 -3.349,3.3483 -1.849,0 -3.348,-1.4991 -3.348,-3.3483 0,-1.8492 1.499,-3.3483 3.348,-3.3483 1.85,0 3.349,1.4991 3.349,3.3483 z" />
      <path d="m 145.652,103.798 c 0,1.849 -1.499,3.348 -3.349,3.348 -1.849,0 -3.348,-1.499 -3.348,-3.348 0,-1.85 1.499,-3.349 3.348,-3.349 1.85,0 3.349,1.499 3.349,3.349 z" />
      <path d="m 145.652,117.191 c 0,1.849 -1.499,3.348 -3.349,3.348 -1.849,0 -3.348,-1.499 -3.348,-3.348 0,-1.849 1.499,-3.348 3.348,-3.348 1.85,0 3.349,1.499 3.349,3.348 z" />
      <path d="m 145.652,130.584 c 0,1.849 -1.499,3.348 -3.349,3.348 -1.849,0 -3.348,-1.499 -3.348,-3.348 0,-1.849 1.499,-3.348 3.348,-3.348 1.85,0 3.349,1.499 3.349,3.348 z" />
      <path d="m 145.652,143.977 c 0,1.85 -1.499,3.349 -3.349,3.349 -1.849,0 -3.348,-1.499 -3.348,-3.349 0,-1.849 1.499,-3.348 3.348,-3.348 1.85,0 3.349,1.499 3.349,3.348 z" />
      <path d="m 145.652,157.371 c 0,1.849 -1.499,3.348 -3.349,3.348 -1.849,0 -3.348,-1.499 -3.348,-3.348 0,-1.849 1.499,-3.349 3.348,-3.349 1.85,0 3.349,1.5 3.349,3.349 z" />
      <path d="m 145.652,170.764 c 0,1.849 -1.499,3.348 -3.349,3.348 -1.849,0 -3.348,-1.499 -3.348,-3.348 0,-1.849 1.499,-3.348 3.348,-3.348 1.85,0 3.349,1.499 3.349,3.348 z" />
      <path d="m 145.652,184.157 c 0,1.85 -1.499,3.349 -3.349,3.349 -1.849,0 -3.348,-1.499 -3.348,-3.349 0,-1.849 1.499,-3.348 3.348,-3.348 1.85,0 3.349,1.499 3.349,3.348 z" />
      <path d="m 145.652,197.551 c 0,1.849 -1.499,3.348 -3.349,3.348 -1.849,0 -3.348,-1.499 -3.348,-3.348 0,-1.85 1.499,-3.349 3.348,-3.349 1.85,0 3.349,1.499 3.349,3.349 z" />
      <path d="m 145.652,210.944 c 0,1.849 -1.499,3.348 -3.349,3.348 -1.849,0 -3.348,-1.499 -3.348,-3.348 0,-1.849 1.499,-3.348 3.348,-3.348 1.85,0 3.349,1.499 3.349,3.348 z" />
      <path d="m 145.652,224.337 c 0,1.849 -1.499,3.349 -3.349,3.349 -1.849,0 -3.348,-1.5 -3.348,-3.349 0,-1.849 1.499,-3.348 3.348,-3.348 1.85,0 3.349,1.499 3.349,3.348 z" />
      <path d="m 159.045,-43.5286 c 0,1.8492 -1.499,3.3483 -3.348,3.3483 -1.85,0 -3.349,-1.4991 -3.349,-3.3483 0,-1.8493 1.499,-3.3484 3.349,-3.3484 1.849,0 3.348,1.4991 3.348,3.3484 z" />
      <path d="m 159.045,-30.1353 c 0,1.8492 -1.499,3.3483 -3.348,3.3483 -1.85,0 -3.349,-1.4991 -3.349,-3.3483 0,-1.8493 1.499,-3.3484 3.349,-3.3484 1.849,0 3.348,1.4991 3.348,3.3484 z" />
      <path d="m 159.045,-16.742 c 0,1.8492 -1.499,3.3483 -3.348,3.3483 -1.85,0 -3.349,-1.4991 -3.349,-3.3483 0,-1.8493 1.499,-3.3484 3.349,-3.3484 1.849,0 3.348,1.4991 3.348,3.3484 z" />
      <path d="m 159.045,-3.34876 c 0,1.84923 -1.499,3.348327032 -3.348,3.348327032 -1.85,0 -3.349,-1.499097032 -3.349,-3.348327032 0,-1.84922 1.499,-3.34832 3.349,-3.34832 1.849,0 3.348,1.4991 3.348,3.34832 z" />
      <path d="m 159.045,10.0445 c 0,1.8493 -1.499,3.3484 -3.348,3.3484 -1.85,0 -3.349,-1.4991 -3.349,-3.3484 0,-1.84919 1.499,-3.34829 3.349,-3.34829 1.849,0 3.348,1.4991 3.348,3.34829 z" />
      <path d="m 159.045,23.4378 c 0,1.8493 -1.499,3.3483 -3.348,3.3483 -1.85,0 -3.349,-1.499 -3.349,-3.3483 0,-1.8492 1.499,-3.3483 3.349,-3.3483 1.849,0 3.348,1.4991 3.348,3.3483 z" />
      <path d="m 159.045,36.8311 c 0,1.8492 -1.499,3.3483 -3.348,3.3483 -1.85,0 -3.349,-1.4991 -3.349,-3.3483 0,-1.8492 1.499,-3.3483 3.349,-3.3483 1.849,0 3.348,1.4991 3.348,3.3483 z" />
      <path d="m 159.045,50.2244 c 0,1.8492 -1.499,3.3483 -3.348,3.3483 -1.85,0 -3.349,-1.4991 -3.349,-3.3483 0,-1.8492 1.499,-3.3483 3.349,-3.3483 1.849,0 3.348,1.4991 3.348,3.3483 z" />
      <path d="m 159.045,63.6177 c 0,1.8492 -1.499,3.3483 -3.348,3.3483 -1.85,0 -3.349,-1.4991 -3.349,-3.3483 0,-1.8492 1.499,-3.3483 3.349,-3.3483 1.849,0 3.348,1.4991 3.348,3.3483 z" />
      <path d="m 159.045,77.011 c 0,1.8492 -1.499,3.3483 -3.348,3.3483 -1.85,0 -3.349,-1.4991 -3.349,-3.3483 0,-1.8492 1.499,-3.3483 3.349,-3.3483 1.849,0 3.348,1.4991 3.348,3.3483 z" />
      <path d="m 159.045,90.4043 c 0,1.8492 -1.499,3.3483 -3.348,3.3483 -1.85,0 -3.349,-1.4991 -3.349,-3.3483 0,-1.8492 1.499,-3.3483 3.349,-3.3483 1.849,0 3.348,1.4991 3.348,3.3483 z" />
      <path d="m 159.045,103.798 c 0,1.849 -1.499,3.348 -3.348,3.348 -1.85,0 -3.349,-1.499 -3.349,-3.348 0,-1.85 1.499,-3.349 3.349,-3.349 1.849,0 3.348,1.499 3.348,3.349 z" />
      <path d="m 159.045,117.191 c 0,1.849 -1.499,3.348 -3.348,3.348 -1.85,0 -3.349,-1.499 -3.349,-3.348 0,-1.849 1.499,-3.348 3.349,-3.348 1.849,0 3.348,1.499 3.348,3.348 z" />
      <path d="m 159.045,130.584 c 0,1.849 -1.499,3.348 -3.348,3.348 -1.85,0 -3.349,-1.499 -3.349,-3.348 0,-1.849 1.499,-3.348 3.349,-3.348 1.849,0 3.348,1.499 3.348,3.348 z" />
      <path d="m 159.045,143.977 c 0,1.85 -1.499,3.349 -3.348,3.349 -1.85,0 -3.349,-1.499 -3.349,-3.349 0,-1.849 1.499,-3.348 3.349,-3.348 1.849,0 3.348,1.499 3.348,3.348 z" />
      <path d="m 159.045,157.371 c 0,1.849 -1.499,3.348 -3.348,3.348 -1.85,0 -3.349,-1.499 -3.349,-3.348 0,-1.849 1.499,-3.349 3.349,-3.349 1.849,0 3.348,1.5 3.348,3.349 z" />
      <path d="m 159.045,170.764 c 0,1.849 -1.499,3.348 -3.348,3.348 -1.85,0 -3.349,-1.499 -3.349,-3.348 0,-1.849 1.499,-3.348 3.349,-3.348 1.849,0 3.348,1.499 3.348,3.348 z" />
      <path d="m 159.045,184.157 c 0,1.85 -1.499,3.349 -3.348,3.349 -1.85,0 -3.349,-1.499 -3.349,-3.349 0,-1.849 1.499,-3.348 3.349,-3.348 1.849,0 3.348,1.499 3.348,3.348 z" />
      <path d="m 159.045,197.551 c 0,1.849 -1.499,3.348 -3.348,3.348 -1.85,0 -3.349,-1.499 -3.349,-3.348 0,-1.85 1.499,-3.349 3.349,-3.349 1.849,0 3.348,1.499 3.348,3.349 z" />
      <path d="m 159.045,210.944 c 0,1.849 -1.499,3.348 -3.348,3.348 -1.85,0 -3.349,-1.499 -3.349,-3.348 0,-1.849 1.499,-3.348 3.349,-3.348 1.849,0 3.348,1.499 3.348,3.348 z" />
      <path d="m 159.045,224.337 c 0,1.849 -1.499,3.349 -3.348,3.349 -1.85,0 -3.349,-1.5 -3.349,-3.349 0,-1.849 1.499,-3.348 3.349,-3.348 1.849,0 3.348,1.499 3.348,3.348 z" />
      <path d="m 172.438,-43.5286 c 0,1.8492 -1.499,3.3483 -3.348,3.3483 -1.849,0 -3.348,-1.4991 -3.348,-3.3483 0,-1.8493 1.499,-3.3484 3.348,-3.3484 1.849,0 3.348,1.4991 3.348,3.3484 z" />
      <path d="m 172.438,-30.1353 c 0,1.8492 -1.499,3.3483 -3.348,3.3483 -1.849,0 -3.348,-1.4991 -3.348,-3.3483 0,-1.8493 1.499,-3.3484 3.348,-3.3484 1.849,0 3.348,1.4991 3.348,3.3484 z" />
      <path d="m 172.438,-16.742 c 0,1.8492 -1.499,3.3483 -3.348,3.3483 -1.849,0 -3.348,-1.4991 -3.348,-3.3483 0,-1.8493 1.499,-3.3484 3.348,-3.3484 1.849,0 3.348,1.4991 3.348,3.3484 z" />
      <path d="m 172.438,-3.34876 c 0,1.84923 -1.499,3.348327032 -3.348,3.348327032 -1.849,0 -3.348,-1.499097032 -3.348,-3.348327032 0,-1.84922 1.499,-3.34832 3.348,-3.34832 1.849,0 3.348,1.4991 3.348,3.34832 z" />
      <path d="m 172.438,10.0445 c 0,1.8493 -1.499,3.3484 -3.348,3.3484 -1.849,0 -3.348,-1.4991 -3.348,-3.3484 0,-1.84919 1.499,-3.34829 3.348,-3.34829 1.849,0 3.348,1.4991 3.348,3.34829 z" />
      <path d="m 172.438,23.4378 c 0,1.8493 -1.499,3.3483 -3.348,3.3483 -1.849,0 -3.348,-1.499 -3.348,-3.3483 0,-1.8492 1.499,-3.3483 3.348,-3.3483 1.849,0 3.348,1.4991 3.348,3.3483 z" />
      <path d="m 172.438,36.8311 c 0,1.8492 -1.499,3.3483 -3.348,3.3483 -1.849,0 -3.348,-1.4991 -3.348,-3.3483 0,-1.8492 1.499,-3.3483 3.348,-3.3483 1.849,0 3.348,1.4991 3.348,3.3483 z" />
      <path d="m 172.438,50.2244 c 0,1.8492 -1.499,3.3483 -3.348,3.3483 -1.849,0 -3.348,-1.4991 -3.348,-3.3483 0,-1.8492 1.499,-3.3483 3.348,-3.3483 1.849,0 3.348,1.4991 3.348,3.3483 z" />
      <path d="m 172.438,63.6177 c 0,1.8492 -1.499,3.3483 -3.348,3.3483 -1.849,0 -3.348,-1.4991 -3.348,-3.3483 0,-1.8492 1.499,-3.3483 3.348,-3.3483 1.849,0 3.348,1.4991 3.348,3.3483 z" />
      <path d="m 172.438,77.011 c 0,1.8492 -1.499,3.3483 -3.348,3.3483 -1.849,0 -3.348,-1.4991 -3.348,-3.3483 0,-1.8492 1.499,-3.3483 3.348,-3.3483 1.849,0 3.348,1.4991 3.348,3.3483 z" />
      <path d="m 172.438,90.4043 c 0,1.8492 -1.499,3.3483 -3.348,3.3483 -1.849,0 -3.348,-1.4991 -3.348,-3.3483 0,-1.8492 1.499,-3.3483 3.348,-3.3483 1.849,0 3.348,1.4991 3.348,3.3483 z" />
      <path d="m 172.438,103.798 c 0,1.849 -1.499,3.348 -3.348,3.348 -1.849,0 -3.348,-1.499 -3.348,-3.348 0,-1.85 1.499,-3.349 3.348,-3.349 1.849,0 3.348,1.499 3.348,3.349 z" />
      <path d="m 172.438,117.191 c 0,1.849 -1.499,3.348 -3.348,3.348 -1.849,0 -3.348,-1.499 -3.348,-3.348 0,-1.849 1.499,-3.348 3.348,-3.348 1.849,0 3.348,1.499 3.348,3.348 z" />
      <path d="m 172.438,130.584 c 0,1.849 -1.499,3.348 -3.348,3.348 -1.849,0 -3.348,-1.499 -3.348,-3.348 0,-1.849 1.499,-3.348 3.348,-3.348 1.849,0 3.348,1.499 3.348,3.348 z" />
      <path d="m 172.438,143.977 c 0,1.85 -1.499,3.349 -3.348,3.349 -1.849,0 -3.348,-1.499 -3.348,-3.349 0,-1.849 1.499,-3.348 3.348,-3.348 1.849,0 3.348,1.499 3.348,3.348 z" />
      <path d="m 172.438,157.371 c 0,1.849 -1.499,3.348 -3.348,3.348 -1.849,0 -3.348,-1.499 -3.348,-3.348 0,-1.849 1.499,-3.349 3.348,-3.349 1.849,0 3.348,1.5 3.348,3.349 z" />
      <path d="m 172.438,170.764 c 0,1.849 -1.499,3.348 -3.348,3.348 -1.849,0 -3.348,-1.499 -3.348,-3.348 0,-1.849 1.499,-3.348 3.348,-3.348 1.849,0 3.348,1.499 3.348,3.348 z" />
      <path d="m 172.438,184.157 c 0,1.85 -1.499,3.349 -3.348,3.349 -1.849,0 -3.348,-1.499 -3.348,-3.349 0,-1.849 1.499,-3.348 3.348,-3.348 1.849,0 3.348,1.499 3.348,3.348 z" />
      <path d="m 172.438,197.551 c 0,1.849 -1.499,3.348 -3.348,3.348 -1.849,0 -3.348,-1.499 -3.348,-3.348 0,-1.85 1.499,-3.349 3.348,-3.349 1.849,0 3.348,1.499 3.348,3.349 z" />
      <path d="m 172.438,210.944 c 0,1.849 -1.499,3.348 -3.348,3.348 -1.849,0 -3.348,-1.499 -3.348,-3.348 0,-1.849 1.499,-3.348 3.348,-3.348 1.849,0 3.348,1.499 3.348,3.348 z" />
      <path d="m 172.438,224.337 c 0,1.849 -1.499,3.349 -3.348,3.349 -1.849,0 -3.348,-1.5 -3.348,-3.349 0,-1.849 1.499,-3.348 3.348,-3.348 1.849,0 3.348,1.499 3.348,3.348 z" />
      <path d="m 185.832,-43.5286 c 0,1.8492 -1.5,3.3483 -3.349,3.3483 -1.849,0 -3.348,-1.4991 -3.348,-3.3483 0,-1.8493 1.499,-3.3484 3.348,-3.3484 1.849,0 3.349,1.4991 3.349,3.3484 z" />
      <path d="m 185.832,-30.1353 c 0,1.8492 -1.5,3.3483 -3.349,3.3483 -1.849,0 -3.348,-1.4991 -3.348,-3.3483 0,-1.8493 1.499,-3.3484 3.348,-3.3484 1.849,0 3.349,1.4991 3.349,3.3484 z" />
      <path d="m 185.832,-16.742 c 0,1.8492 -1.5,3.3483 -3.349,3.3483 -1.849,0 -3.348,-1.4991 -3.348,-3.3483 0,-1.8493 1.499,-3.3484 3.348,-3.3484 1.849,0 3.349,1.4991 3.349,3.3484 z" />
      <path d="m 185.832,-3.34876 c 0,1.84923 -1.5,3.348327032 -3.349,3.348327032 -1.849,0 -3.348,-1.499097032 -3.348,-3.348327032 0,-1.84922 1.499,-3.34832 3.348,-3.34832 1.849,0 3.349,1.4991 3.349,3.34832 z" />
      <path d="m 185.832,10.0445 c 0,1.8493 -1.5,3.3484 -3.349,3.3484 -1.849,0 -3.348,-1.4991 -3.348,-3.3484 0,-1.84919 1.499,-3.34829 3.348,-3.34829 1.849,0 3.349,1.4991 3.349,3.34829 z" />
      <path d="m 185.832,23.4378 c 0,1.8493 -1.5,3.3483 -3.349,3.3483 -1.849,0 -3.348,-1.499 -3.348,-3.3483 0,-1.8492 1.499,-3.3483 3.348,-3.3483 1.849,0 3.349,1.4991 3.349,3.3483 z" />
      <path d="m 185.832,36.8311 c 0,1.8492 -1.5,3.3483 -3.349,3.3483 -1.849,0 -3.348,-1.4991 -3.348,-3.3483 0,-1.8492 1.499,-3.3483 3.348,-3.3483 1.849,0 3.349,1.4991 3.349,3.3483 z" />
      <path d="m 185.832,50.2244 c 0,1.8492 -1.5,3.3483 -3.349,3.3483 -1.849,0 -3.348,-1.4991 -3.348,-3.3483 0,-1.8492 1.499,-3.3483 3.348,-3.3483 1.849,0 3.349,1.4991 3.349,3.3483 z" />
      <path d="m 185.832,63.6177 c 0,1.8492 -1.5,3.3483 -3.349,3.3483 -1.849,0 -3.348,-1.4991 -3.348,-3.3483 0,-1.8492 1.499,-3.3483 3.348,-3.3483 1.849,0 3.349,1.4991 3.349,3.3483 z" />
      <path d="m 185.832,77.011 c 0,1.8492 -1.5,3.3483 -3.349,3.3483 -1.849,0 -3.348,-1.4991 -3.348,-3.3483 0,-1.8492 1.499,-3.3483 3.348,-3.3483 1.849,0 3.349,1.4991 3.349,3.3483 z" />
      <path d="m 185.832,90.4043 c 0,1.8492 -1.5,3.3483 -3.349,3.3483 -1.849,0 -3.348,-1.4991 -3.348,-3.3483 0,-1.8492 1.499,-3.3483 3.348,-3.3483 1.849,0 3.349,1.4991 3.349,3.3483 z" />
      <path d="m 185.832,103.798 c 0,1.849 -1.5,3.348 -3.349,3.348 -1.849,0 -3.348,-1.499 -3.348,-3.348 0,-1.85 1.499,-3.349 3.348,-3.349 1.849,0 3.349,1.499 3.349,3.349 z" />
      <path d="m 185.832,117.191 c 0,1.849 -1.5,3.348 -3.349,3.348 -1.849,0 -3.348,-1.499 -3.348,-3.348 0,-1.849 1.499,-3.348 3.348,-3.348 1.849,0 3.349,1.499 3.349,3.348 z" />
      <path d="m 185.832,130.584 c 0,1.849 -1.5,3.348 -3.349,3.348 -1.849,0 -3.348,-1.499 -3.348,-3.348 0,-1.849 1.499,-3.348 3.348,-3.348 1.849,0 3.349,1.499 3.349,3.348 z" />
      <path d="m 185.832,143.977 c 0,1.85 -1.5,3.349 -3.349,3.349 -1.849,0 -3.348,-1.499 -3.348,-3.349 0,-1.849 1.499,-3.348 3.348,-3.348 1.849,0 3.349,1.499 3.349,3.348 z" />
      <path d="m 185.832,157.371 c 0,1.849 -1.5,3.348 -3.349,3.348 -1.849,0 -3.348,-1.499 -3.348,-3.348 0,-1.849 1.499,-3.349 3.348,-3.349 1.849,0 3.349,1.5 3.349,3.349 z" />
      <path d="m 185.832,170.764 c 0,1.849 -1.5,3.348 -3.349,3.348 -1.849,0 -3.348,-1.499 -3.348,-3.348 0,-1.849 1.499,-3.348 3.348,-3.348 1.849,0 3.349,1.499 3.349,3.348 z" />
      <path d="m 185.832,184.157 c 0,1.85 -1.5,3.349 -3.349,3.349 -1.849,0 -3.348,-1.499 -3.348,-3.349 0,-1.849 1.499,-3.348 3.348,-3.348 1.849,0 3.349,1.499 3.349,3.348 z" />
      <path d="m 185.832,197.551 c 0,1.849 -1.5,3.348 -3.349,3.348 -1.849,0 -3.348,-1.499 -3.348,-3.348 0,-1.85 1.499,-3.349 3.348,-3.349 1.849,0 3.349,1.499 3.349,3.349 z" />
      <path d="m 185.832,210.944 c 0,1.849 -1.5,3.348 -3.349,3.348 -1.849,0 -3.348,-1.499 -3.348,-3.348 0,-1.849 1.499,-3.348 3.348,-3.348 1.849,0 3.349,1.499 3.349,3.348 z" />
      <path d="m 185.832,224.337 c 0,1.849 -1.5,3.349 -3.349,3.349 -1.849,0 -3.348,-1.5 -3.348,-3.349 0,-1.849 1.499,-3.348 3.348,-3.348 1.849,0 3.349,1.499 3.349,3.348 z" />
      <path d="m 199.225,-43.5286 c 0,1.8492 -1.499,3.3483 -3.348,3.3483 -1.85,0 -3.349,-1.4991 -3.349,-3.3483 0,-1.8493 1.499,-3.3484 3.349,-3.3484 1.849,0 3.348,1.4991 3.348,3.3484 z" />
      <path d="m 199.225,-30.1353 c 0,1.8492 -1.499,3.3483 -3.348,3.3483 -1.85,0 -3.349,-1.4991 -3.349,-3.3483 0,-1.8493 1.499,-3.3484 3.349,-3.3484 1.849,0 3.348,1.4991 3.348,3.3484 z" />
      <path d="m 199.225,-16.742 c 0,1.8492 -1.499,3.3483 -3.348,3.3483 -1.85,0 -3.349,-1.4991 -3.349,-3.3483 0,-1.8493 1.499,-3.3484 3.349,-3.3484 1.849,0 3.348,1.4991 3.348,3.3484 z" />
      <path d="m 199.225,-3.34876 c 0,1.84923 -1.499,3.348327032 -3.348,3.348327032 -1.85,0 -3.349,-1.499097032 -3.349,-3.348327032 0,-1.84922 1.499,-3.34832 3.349,-3.34832 1.849,0 3.348,1.4991 3.348,3.34832 z" />
      <path d="m 199.225,10.0445 c 0,1.8493 -1.499,3.3484 -3.348,3.3484 -1.85,0 -3.349,-1.4991 -3.349,-3.3484 0,-1.84919 1.499,-3.34829 3.349,-3.34829 1.849,0 3.348,1.4991 3.348,3.34829 z" />
      <path d="m 199.225,23.4378 c 0,1.8493 -1.499,3.3483 -3.348,3.3483 -1.85,0 -3.349,-1.499 -3.349,-3.3483 0,-1.8492 1.499,-3.3483 3.349,-3.3483 1.849,0 3.348,1.4991 3.348,3.3483 z" />
      <path d="m 199.225,36.8311 c 0,1.8492 -1.499,3.3483 -3.348,3.3483 -1.85,0 -3.349,-1.4991 -3.349,-3.3483 0,-1.8492 1.499,-3.3483 3.349,-3.3483 1.849,0 3.348,1.4991 3.348,3.3483 z" />
      <path d="m 199.225,50.2244 c 0,1.8492 -1.499,3.3483 -3.348,3.3483 -1.85,0 -3.349,-1.4991 -3.349,-3.3483 0,-1.8492 1.499,-3.3483 3.349,-3.3483 1.849,0 3.348,1.4991 3.348,3.3483 z" />
      <path d="m 199.225,63.6177 c 0,1.8492 -1.499,3.3483 -3.348,3.3483 -1.85,0 -3.349,-1.4991 -3.349,-3.3483 0,-1.8492 1.499,-3.3483 3.349,-3.3483 1.849,0 3.348,1.4991 3.348,3.3483 z" />
      <path d="m 199.225,77.011 c 0,1.8492 -1.499,3.3483 -3.348,3.3483 -1.85,0 -3.349,-1.4991 -3.349,-3.3483 0,-1.8492 1.499,-3.3483 3.349,-3.3483 1.849,0 3.348,1.4991 3.348,3.3483 z" />
      <path d="m 199.225,90.4043 c 0,1.8492 -1.499,3.3483 -3.348,3.3483 -1.85,0 -3.349,-1.4991 -3.349,-3.3483 0,-1.8492 1.499,-3.3483 3.349,-3.3483 1.849,0 3.348,1.4991 3.348,3.3483 z" />
      <path d="m 199.225,103.798 c 0,1.849 -1.499,3.348 -3.348,3.348 -1.85,0 -3.349,-1.499 -3.349,-3.348 0,-1.85 1.499,-3.349 3.349,-3.349 1.849,0 3.348,1.499 3.348,3.349 z" />
      <path d="m 199.225,117.191 c 0,1.849 -1.499,3.348 -3.348,3.348 -1.85,0 -3.349,-1.499 -3.349,-3.348 0,-1.849 1.499,-3.348 3.349,-3.348 1.849,0 3.348,1.499 3.348,3.348 z" />
      <path d="m 199.225,130.584 c 0,1.849 -1.499,3.348 -3.348,3.348 -1.85,0 -3.349,-1.499 -3.349,-3.348 0,-1.849 1.499,-3.348 3.349,-3.348 1.849,0 3.348,1.499 3.348,3.348 z" />
      <path d="m 199.225,143.977 c 0,1.85 -1.499,3.349 -3.348,3.349 -1.85,0 -3.349,-1.499 -3.349,-3.349 0,-1.849 1.499,-3.348 3.349,-3.348 1.849,0 3.348,1.499 3.348,3.348 z" />
      <path d="m 199.225,157.371 c 0,1.849 -1.499,3.348 -3.348,3.348 -1.85,0 -3.349,-1.499 -3.349,-3.348 0,-1.849 1.499,-3.349 3.349,-3.349 1.849,0 3.348,1.5 3.348,3.349 z" />
      <path d="m 199.225,170.764 c 0,1.849 -1.499,3.348 -3.348,3.348 -1.85,0 -3.349,-1.499 -3.349,-3.348 0,-1.849 1.499,-3.348 3.349,-3.348 1.849,0 3.348,1.499 3.348,3.348 z" />
      <path d="m 199.225,184.157 c 0,1.85 -1.499,3.349 -3.348,3.349 -1.85,0 -3.349,-1.499 -3.349,-3.349 0,-1.849 1.499,-3.348 3.349,-3.348 1.849,0 3.348,1.499 3.348,3.348 z" />
      <path d="m 199.225,197.551 c 0,1.849 -1.499,3.348 -3.348,3.348 -1.85,0 -3.349,-1.499 -3.349,-3.348 0,-1.85 1.499,-3.349 3.349,-3.349 1.849,0 3.348,1.499 3.348,3.349 z" />
      <path d="m 199.225,210.944 c 0,1.849 -1.499,3.348 -3.348,3.348 -1.85,0 -3.349,-1.499 -3.349,-3.348 0,-1.849 1.499,-3.348 3.349,-3.348 1.849,0 3.348,1.499 3.348,3.348 z" />
      <path d="m 199.225,224.337 c 0,1.849 -1.499,3.349 -3.348,3.349 -1.85,0 -3.349,-1.5 -3.349,-3.349 0,-1.849 1.499,-3.348 3.349,-3.348 1.849,0 3.348,1.499 3.348,3.348 z" />
      <path d="m 212.618,-43.5286 c 0,1.8492 -1.499,3.3483 -3.348,3.3483 -1.849,0 -3.348,-1.4991 -3.348,-3.3483 0,-1.8493 1.499,-3.3484 3.348,-3.3484 1.849,0 3.348,1.4991 3.348,3.3484 z" />
      <path d="m 212.618,-30.1353 c 0,1.8492 -1.499,3.3483 -3.348,3.3483 -1.849,0 -3.348,-1.4991 -3.348,-3.3483 0,-1.8493 1.499,-3.3484 3.348,-3.3484 1.849,0 3.348,1.4991 3.348,3.3484 z" />
      <path d="m 212.618,-16.742 c 0,1.8492 -1.499,3.3483 -3.348,3.3483 -1.849,0 -3.348,-1.4991 -3.348,-3.3483 0,-1.8493 1.499,-3.3484 3.348,-3.3484 1.849,0 3.348,1.4991 3.348,3.3484 z" />
      <path d="m 212.618,-3.34876 c 0,1.84923 -1.499,3.348327032 -3.348,3.348327032 -1.849,0 -3.348,-1.499097032 -3.348,-3.348327032 0,-1.84922 1.499,-3.34832 3.348,-3.34832 1.849,0 3.348,1.4991 3.348,3.34832 z" />
      <path d="m 212.618,10.0445 c 0,1.8493 -1.499,3.3484 -3.348,3.3484 -1.849,0 -3.348,-1.4991 -3.348,-3.3484 0,-1.84919 1.499,-3.34829 3.348,-3.34829 1.849,0 3.348,1.4991 3.348,3.34829 z" />
      <path d="m 212.618,23.4378 c 0,1.8493 -1.499,3.3483 -3.348,3.3483 -1.849,0 -3.348,-1.499 -3.348,-3.3483 0,-1.8492 1.499,-3.3483 3.348,-3.3483 1.849,0 3.348,1.4991 3.348,3.3483 z" />
      <path d="m 212.618,36.8311 c 0,1.8492 -1.499,3.3483 -3.348,3.3483 -1.849,0 -3.348,-1.4991 -3.348,-3.3483 0,-1.8492 1.499,-3.3483 3.348,-3.3483 1.849,0 3.348,1.4991 3.348,3.3483 z" />
      <path d="m 212.618,50.2244 c 0,1.8492 -1.499,3.3483 -3.348,3.3483 -1.849,0 -3.348,-1.4991 -3.348,-3.3483 0,-1.8492 1.499,-3.3483 3.348,-3.3483 1.849,0 3.348,1.4991 3.348,3.3483 z" />
      <path d="m 212.618,63.6177 c 0,1.8492 -1.499,3.3483 -3.348,3.3483 -1.849,0 -3.348,-1.4991 -3.348,-3.3483 0,-1.8492 1.499,-3.3483 3.348,-3.3483 1.849,0 3.348,1.4991 3.348,3.3483 z" />
      <path d="m 212.618,77.011 c 0,1.8492 -1.499,3.3483 -3.348,3.3483 -1.849,0 -3.348,-1.4991 -3.348,-3.3483 0,-1.8492 1.499,-3.3483 3.348,-3.3483 1.849,0 3.348,1.4991 3.348,3.3483 z" />
      <path d="m 212.618,90.4043 c 0,1.8492 -1.499,3.3483 -3.348,3.3483 -1.849,0 -3.348,-1.4991 -3.348,-3.3483 0,-1.8492 1.499,-3.3483 3.348,-3.3483 1.849,0 3.348,1.4991 3.348,3.3483 z" />
      <path d="m 212.618,103.798 c 0,1.849 -1.499,3.348 -3.348,3.348 -1.849,0 -3.348,-1.499 -3.348,-3.348 0,-1.85 1.499,-3.349 3.348,-3.349 1.849,0 3.348,1.499 3.348,3.349 z" />
      <path d="m 212.618,117.191 c 0,1.849 -1.499,3.348 -3.348,3.348 -1.849,0 -3.348,-1.499 -3.348,-3.348 0,-1.849 1.499,-3.348 3.348,-3.348 1.849,0 3.348,1.499 3.348,3.348 z" />
      <path d="m 212.618,130.584 c 0,1.849 -1.499,3.348 -3.348,3.348 -1.849,0 -3.348,-1.499 -3.348,-3.348 0,-1.849 1.499,-3.348 3.348,-3.348 1.849,0 3.348,1.499 3.348,3.348 z" />
      <path d="m 212.618,143.977 c 0,1.85 -1.499,3.349 -3.348,3.349 -1.849,0 -3.348,-1.499 -3.348,-3.349 0,-1.849 1.499,-3.348 3.348,-3.348 1.849,0 3.348,1.499 3.348,3.348 z" />
      <path d="m 212.618,157.371 c 0,1.849 -1.499,3.348 -3.348,3.348 -1.849,0 -3.348,-1.499 -3.348,-3.348 0,-1.849 1.499,-3.349 3.348,-3.349 1.849,0 3.348,1.5 3.348,3.349 z" />
      <path d="m 212.618,170.764 c 0,1.849 -1.499,3.348 -3.348,3.348 -1.849,0 -3.348,-1.499 -3.348,-3.348 0,-1.849 1.499,-3.348 3.348,-3.348 1.849,0 3.348,1.499 3.348,3.348 z" />
      <path d="m 212.618,184.157 c 0,1.85 -1.499,3.349 -3.348,3.349 -1.849,0 -3.348,-1.499 -3.348,-3.349 0,-1.849 1.499,-3.348 3.348,-3.348 1.849,0 3.348,1.499 3.348,3.348 z" />
      <path d="m 212.618,197.551 c 0,1.849 -1.499,3.348 -3.348,3.348 -1.849,0 -3.348,-1.499 -3.348,-3.348 0,-1.85 1.499,-3.349 3.348,-3.349 1.849,0 3.348,1.499 3.348,3.349 z" />
      <path d="m 212.618,210.944 c 0,1.849 -1.499,3.348 -3.348,3.348 -1.849,0 -3.348,-1.499 -3.348,-3.348 0,-1.849 1.499,-3.348 3.348,-3.348 1.849,0 3.348,1.499 3.348,3.348 z" />
      <path d="m 212.618,224.337 c 0,1.849 -1.499,3.349 -3.348,3.349 -1.849,0 -3.348,-1.5 -3.348,-3.349 0,-1.849 1.499,-3.348 3.348,-3.348 1.849,0 3.348,1.499 3.348,3.348 z" />
      <path d="m 226.011,-43.5286 c 0,1.8492 -1.499,3.3483 -3.348,3.3483 -1.849,0 -3.348,-1.4991 -3.348,-3.3483 0,-1.8493 1.499,-3.3484 3.348,-3.3484 1.849,0 3.348,1.4991 3.348,3.3484 z" />
      <path d="m 226.011,-30.1353 c 0,1.8492 -1.499,3.3483 -3.348,3.3483 -1.849,0 -3.348,-1.4991 -3.348,-3.3483 0,-1.8493 1.499,-3.3484 3.348,-3.3484 1.849,0 3.348,1.4991 3.348,3.3484 z" />
      <path d="m 226.011,-16.742 c 0,1.8492 -1.499,3.3483 -3.348,3.3483 -1.849,0 -3.348,-1.4991 -3.348,-3.3483 0,-1.8493 1.499,-3.3484 3.348,-3.3484 1.849,0 3.348,1.4991 3.348,3.3484 z" />
      <path d="m 226.011,-3.34876 c 0,1.84923 -1.499,3.348327032 -3.348,3.348327032 -1.849,0 -3.348,-1.499097032 -3.348,-3.348327032 0,-1.84922 1.499,-3.34832 3.348,-3.34832 1.849,0 3.348,1.4991 3.348,3.34832 z" />
      <path d="m 226.011,10.0445 c 0,1.8493 -1.499,3.3484 -3.348,3.3484 -1.849,0 -3.348,-1.4991 -3.348,-3.3484 0,-1.84919 1.499,-3.34829 3.348,-3.34829 1.849,0 3.348,1.4991 3.348,3.34829 z" />
      <path d="m 226.011,23.4378 c 0,1.8493 -1.499,3.3483 -3.348,3.3483 -1.849,0 -3.348,-1.499 -3.348,-3.3483 0,-1.8492 1.499,-3.3483 3.348,-3.3483 1.849,0 3.348,1.4991 3.348,3.3483 z" />
      <path d="m 226.011,36.8311 c 0,1.8492 -1.499,3.3483 -3.348,3.3483 -1.849,0 -3.348,-1.4991 -3.348,-3.3483 0,-1.8492 1.499,-3.3483 3.348,-3.3483 1.849,0 3.348,1.4991 3.348,3.3483 z" />
      <path d="m 226.011,50.2244 c 0,1.8492 -1.499,3.3483 -3.348,3.3483 -1.849,0 -3.348,-1.4991 -3.348,-3.3483 0,-1.8492 1.499,-3.3483 3.348,-3.3483 1.849,0 3.348,1.4991 3.348,3.3483 z" />
      <path d="m 226.011,63.6177 c 0,1.8492 -1.499,3.3483 -3.348,3.3483 -1.849,0 -3.348,-1.4991 -3.348,-3.3483 0,-1.8492 1.499,-3.3483 3.348,-3.3483 1.849,0 3.348,1.4991 3.348,3.3483 z" />
      <path d="m 226.011,77.011 c 0,1.8492 -1.499,3.3483 -3.348,3.3483 -1.849,0 -3.348,-1.4991 -3.348,-3.3483 0,-1.8492 1.499,-3.3483 3.348,-3.3483 1.849,0 3.348,1.4991 3.348,3.3483 z" />
      <path d="m 226.011,90.4043 c 0,1.8492 -1.499,3.3483 -3.348,3.3483 -1.849,0 -3.348,-1.4991 -3.348,-3.3483 0,-1.8492 1.499,-3.3483 3.348,-3.3483 1.849,0 3.348,1.4991 3.348,3.3483 z" />
      <path d="m 226.011,103.798 c 0,1.849 -1.499,3.348 -3.348,3.348 -1.849,0 -3.348,-1.499 -3.348,-3.348 0,-1.85 1.499,-3.349 3.348,-3.349 1.849,0 3.348,1.499 3.348,3.349 z" />
      <path d="m 226.011,117.191 c 0,1.849 -1.499,3.348 -3.348,3.348 -1.849,0 -3.348,-1.499 -3.348,-3.348 0,-1.849 1.499,-3.348 3.348,-3.348 1.849,0 3.348,1.499 3.348,3.348 z" />
      <path d="m 226.011,130.584 c 0,1.849 -1.499,3.348 -3.348,3.348 -1.849,0 -3.348,-1.499 -3.348,-3.348 0,-1.849 1.499,-3.348 3.348,-3.348 1.849,0 3.348,1.499 3.348,3.348 z" />
      <path d="m 226.011,143.977 c 0,1.85 -1.499,3.349 -3.348,3.349 -1.849,0 -3.348,-1.499 -3.348,-3.349 0,-1.849 1.499,-3.348 3.348,-3.348 1.849,0 3.348,1.499 3.348,3.348 z" />
      <path d="m 226.011,157.371 c 0,1.849 -1.499,3.348 -3.348,3.348 -1.849,0 -3.348,-1.499 -3.348,-3.348 0,-1.849 1.499,-3.349 3.348,-3.349 1.849,0 3.348,1.5 3.348,3.349 z" />
      <path d="m 226.011,170.764 c 0,1.849 -1.499,3.348 -3.348,3.348 -1.849,0 -3.348,-1.499 -3.348,-3.348 0,-1.849 1.499,-3.348 3.348,-3.348 1.849,0 3.348,1.499 3.348,3.348 z" />
      <path d="m 226.011,184.157 c 0,1.85 -1.499,3.349 -3.348,3.349 -1.849,0 -3.348,-1.499 -3.348,-3.349 0,-1.849 1.499,-3.348 3.348,-3.348 1.849,0 3.348,1.499 3.348,3.348 z" />
      <path d="m 226.011,197.551 c 0,1.849 -1.499,3.348 -3.348,3.348 -1.849,0 -3.348,-1.499 -3.348,-3.348 0,-1.85 1.499,-3.349 3.348,-3.349 1.849,0 3.348,1.499 3.348,3.349 z" />
      <path d="m 226.011,210.944 c 0,1.849 -1.499,3.348 -3.348,3.348 -1.849,0 -3.348,-1.499 -3.348,-3.348 0,-1.849 1.499,-3.348 3.348,-3.348 1.849,0 3.348,1.499 3.348,3.348 z" />
      <path d="m 226.011,224.337 c 0,1.849 -1.499,3.349 -3.348,3.349 -1.849,0 -3.348,-1.5 -3.348,-3.349 0,-1.849 1.499,-3.348 3.348,-3.348 1.849,0 3.348,1.499 3.348,3.348 z" />
    </g>
  </g>
  <defs>
    <clipPath id="blob-grad-dots-02_clip">
      <rect
         width="163"
         height="182"
         fill="#ffffff"
         x="0"
         y="0" />
    </clipPath>
    <linearGradient id="blob-grad-dots-02_gradient" x1="0%" y1="0%" x2="100%" y2="0%" gradientUnits="userSpaceOnUse">
      <stop offset="0%" style="stop-color:rgb(85,0,255);stop-opacity:1"/>
      <stop offset="33%" style="stop-color:rgb(156,133,241);stop-opacity:1"/>
      <stop offset="66%" style="stop-color:rgb(109,255,212);stop-opacity:1"/>
      <stop offset="100%" style="stop-color:rgb(16,243,16);stop-opacity:1"/>
    </linearGradient>
  </defs>
</svg>
