<?xml version="1.0" encoding="UTF-8" standalone="no"?>
<svg
   width="237.09435"
   height="246.923"
   viewBox="0 0 237.09435 246.923"
   fill="none"
   version="1.1"
   xmlns="http://www.w3.org/2000/svg"
   xmlns:svg="http://www.w3.org/2000/svg">
  <mask
     id="blob-grad-dots-06_mask"
     maskUnits="userSpaceOnUse"
     x="0"
     y="0"
     width="238"
     height="247">
    <path
       d="m 129.751,100.93 c 0.817,25.27 -0.818,30.193 22.725,33.147 23.542,2.953 72.262,3.938 83.052,11.158 10.79,7.384 -16.185,20.839 -33.842,34.131 -17.493,13.291 -25.668,26.254 -37.439,41.679 -11.608,15.425 -26.976,33.311 -36.131,22.809 -9.319,-10.502 -12.425,-49.392 -16.512,-69.083 -4.088,-19.855 -9.156,-20.675 -26.976,-23.465 C 66.8077,148.517 36.0719,143.758 18.4151,128.826 0.758316,113.729 -3.81937,88.6234 3.04715,66.7993 10.0772,45.1392 28.5514,26.761 50.2954,13.6337 72.0394,0.342321 97.0531,-7.69815 111.277,11.0083 125.5,29.8787 128.77,75.6602 129.751,100.93 Z"
       fill="#ffffff" />
  </mask>
  <g mask="url(#blob-grad-dots-06_mask)" style="fill:url(#blob-grad-dots-06_gradient)">
    <path d="m 239.762,-0.780043 c -1.629,1e-6 -2.949,-1.320247 -2.949,-2.948847 0,-1.6286 1.32,-2.94884 2.949,-2.94884 1.629,0 2.949,1.32024 2.949,2.94884 0,1.6286 -1.32,2.948847 -2.949,2.948847 z" />
    <path d="m 227.967,-0.780042 c -1.629,0 -2.949,-1.320248 -2.949,-2.948848 0,-1.6286 1.32,-2.94884 2.949,-2.94884 1.628,0 2.949,1.32024 2.949,2.94884 0,1.6286 -1.321,2.948848 -2.949,2.948848 z" />
    <path d="m 216.171,-0.780041 c -1.628,0 -2.949,-1.320239 -2.949,-2.948849 0,-1.6286 1.321,-2.94884 2.949,-2.94884 1.629,0 2.949,1.32024 2.949,2.94884 0,1.62861 -1.32,2.948848 -2.949,2.948849 z" />
    <path d="m 204.376,-0.780041 c -1.629,0 -2.949,-1.320239 -2.949,-2.948849 0,-1.6286 1.32,-2.94884 2.949,-2.94884 1.629,0 2.949,1.32024 2.949,2.94884 0,1.62861 -1.32,2.948849 -2.949,2.948849 z" />
    <path d="m 192.581,-0.78004 c -1.629,0 -2.949,-1.32024 -2.949,-2.94885 0,-1.6286 1.32,-2.94884 2.949,-2.94884 1.628,0 2.948,1.32024 2.948,2.94884 0,1.62861 -1.32,2.948849 -2.948,2.94885 z" />
    <path d="m 180.785,-0.78004 c -1.628,0 -2.949,-1.32024 -2.949,-2.94885 0,-1.6286 1.321,-2.94884 2.949,-2.94884 1.629,0 2.949,1.32024 2.949,2.94884 0,1.62861 -1.32,2.94885 -2.949,2.94885 z" />
    <path d="m 168.99,-0.780039 c -1.629,0 -2.949,-1.320241 -2.949,-2.948851 0,-1.6286 1.32,-2.94884 2.949,-2.94884 1.628,0 2.949,1.32024 2.949,2.94884 0,1.62861 -1.321,2.948851 -2.949,2.948851 z" />
    <path d="m 157.194,-0.780039 c -1.628,0 -2.948,-1.320241 -2.948,-2.948841 0,-1.62861 1.32,-2.94885 2.948,-2.94885 1.629,0 2.949,1.32024 2.949,2.94885 0,1.6286 -1.32,2.948841 -2.949,2.948841 z" />
    <path d="m 145.399,-0.780038 c -1.629,0 -2.949,-1.320242 -2.949,-2.948842 0,-1.62861 1.32,-2.94885 2.949,-2.94885 1.629,0 2.949,1.32024 2.949,2.94885 0,1.6286 -1.32,2.948842 -2.949,2.948842 z" />
    <path d="m 133.604,-0.780038 c -1.629,0 -2.949,-1.320242 -2.949,-2.948842 0,-1.62861 1.32,-2.94885 2.949,-2.94885 1.628,0 2.948,1.32024 2.948,2.94885 0,1.6286 -1.32,2.948842 -2.948,2.948842 z" />
    <path d="m 121.808,-0.780037 c -1.628,0 -2.949,-1.320243 -2.949,-2.948843 0,-1.62861 1.321,-2.94885 2.949,-2.94885 1.629,0 2.949,1.32024 2.949,2.94885 0,1.6286 -1.32,2.948843 -2.949,2.948843 z" />
    <path d="m 110.013,-0.780037 c -1.629,0 -2.949,-1.320243 -2.949,-2.948843 0,-1.62861 1.32,-2.94885 2.949,-2.94885 1.628,0 2.949,1.32024 2.949,2.94885 0,1.6286 -1.321,2.948843 -2.949,2.948843 z" />
    <path d="m 98.2175,-0.780036 c -1.6286,0 -2.9489,-1.320244 -2.9489,-2.948844 0,-1.6286 1.3203,-2.94885 2.9489,-2.94885 1.6286,0 2.9485,1.32024 2.9485,2.94885 0,1.6286 -1.3199,2.948844 -2.9485,2.948844 z" />
    <path d="m 86.4221,-0.780036 c -1.6286,0 -2.9489,-1.320244 -2.9489,-2.948844 0,-1.6286 1.3203,-2.94885 2.9489,-2.94885 1.6286,0 2.9488,1.32025 2.9488,2.94885 0,1.6286 -1.3202,2.948844 -2.9488,2.948844 z" />
    <path d="m 74.6267,-0.780035 c -1.6286,0 -2.9488,-1.320245 -2.9488,-2.948845 0,-1.6286 1.3202,-2.94885 2.9488,-2.94885 1.6286,0 2.9489,1.32025 2.9489,2.94885 0,1.6286 -1.3203,2.948845 -2.9489,2.948845 z" />
    <path d="m 62.8313,-0.780035 c -1.6286,0 -2.9488,-1.320245 -2.9488,-2.948845 0,-1.6286 1.3202,-2.94885 2.9488,-2.94885 1.6286,0 2.9489,1.32025 2.9489,2.94885 0,1.6286 -1.3203,2.948845 -2.9489,2.948845 z" />
    <path d="m 51.0359,-0.780034 c -1.6286,0 -2.9488,-1.320246 -2.9488,-2.948846 0,-1.6286 1.3202,-2.94885 2.9488,-2.94885 1.6286,0 2.9489,1.32025 2.9489,2.94885 0,1.6286 -1.3203,2.948846 -2.9489,2.948846 z" />
    <path d="m 39.2406,-0.780034 c -1.6286,0 -2.9489,-1.320246 -2.9489,-2.948846 0,-1.6286 1.3203,-2.94885 2.9489,-2.94885 1.6286,0 2.9488,1.32025 2.9488,2.94885 0,1.6286 -1.3202,2.948846 -2.9488,2.948846 z" />
    <path d="m 27.4452,-0.780033 c -1.6286,0 -2.9489,-1.320247 -2.9489,-2.948847 0,-1.6286 1.3203,-2.94884 2.9489,-2.94884 1.6286,-1e-5 2.9488,1.32024 2.9488,2.94884 0,1.6286 -1.3202,2.948847 -2.9488,2.948847 z" />
    <path d="m 15.6498,-0.780033 c -1.6286,0 -2.9489,-1.320247 -2.9489,-2.948847 0,-1.6286 1.3203,-2.94884 2.9489,-2.94884 1.6286,0 2.9488,1.32024 2.9488,2.94884 0,1.6286 -1.3202,2.948847 -2.9488,2.948847 z" />
    <path d="m 3.8544,-0.780032 c -1.6286,0 -2.948843,-1.320248 -2.948843,-2.948848 0,-1.6286 1.320243,-2.94884 2.948843,-2.94884 1.62861,0 2.94885,1.32024 2.94885,2.94884 0,1.6286 -1.32024,2.948848 -2.94885,2.948848 z" />
    <path d="m 239.762,11.0153 c -1.629,0 -2.949,-1.3202 -2.949,-2.9488 0,-1.62861 1.32,-2.94885 2.949,-2.94885 1.629,0 2.949,1.32024 2.949,2.94884 0,1.62861 -1.32,2.94881 -2.949,2.94881 z" />
    <path d="m 227.967,11.0153 c -1.629,0 -2.949,-1.3202 -2.949,-2.9488 0,-1.62861 1.32,-2.94885 2.949,-2.94885 1.628,0 2.949,1.32024 2.949,2.94885 0,1.6286 -1.321,2.9488 -2.949,2.9488 z" />
    <path d="m 216.171,11.0153 c -1.628,0 -2.949,-1.3202 -2.949,-2.9488 0,-1.62861 1.321,-2.94885 2.949,-2.94885 1.629,0 2.949,1.32024 2.949,2.94885 0,1.6286 -1.32,2.9488 -2.949,2.9488 z" />
    <path d="m 204.376,11.0153 c -1.629,0 -2.949,-1.3202 -2.949,-2.9488 0,-1.62861 1.32,-2.94885 2.949,-2.94885 1.629,0 2.949,1.32024 2.949,2.94885 0,1.6286 -1.32,2.9488 -2.949,2.9488 z" />
    <path d="m 192.581,11.0153 c -1.629,0 -2.949,-1.3202 -2.949,-2.9488 0,-1.62861 1.32,-2.94885 2.949,-2.94885 1.628,0 2.948,1.32024 2.948,2.94885 0,1.6286 -1.32,2.9488 -2.948,2.9488 z" />
    <path d="m 180.785,11.0153 c -1.628,0 -2.949,-1.3202 -2.949,-2.9488 0,-1.6286 1.321,-2.94885 2.949,-2.94885 1.629,0 2.949,1.32024 2.949,2.94885 0,1.6286 -1.32,2.9488 -2.949,2.9488 z" />
    <path d="m 168.99,11.0153 c -1.629,0 -2.949,-1.3202 -2.949,-2.9488 0,-1.6286 1.32,-2.94885 2.949,-2.94885 1.628,0 2.949,1.32025 2.949,2.94885 0,1.6286 -1.321,2.9488 -2.949,2.9488 z" />
    <path d="m 157.194,11.0153 c -1.628,0 -2.948,-1.3202 -2.948,-2.9488 0,-1.6286 1.32,-2.94885 2.948,-2.94885 1.629,0 2.949,1.32025 2.949,2.94885 0,1.6286 -1.32,2.9488 -2.949,2.9488 z" />
    <path d="m 145.399,11.0153 c -1.629,0 -2.949,-1.3202 -2.949,-2.9488 0,-1.6286 1.32,-2.94885 2.949,-2.94885 1.629,0 2.949,1.32025 2.949,2.94885 0,1.6286 -1.32,2.9488 -2.949,2.9488 z" />
    <path d="m 133.604,11.0153 c -1.629,0 -2.949,-1.3202 -2.949,-2.9488 0,-1.6286 1.32,-2.94885 2.949,-2.94885 1.628,0 2.948,1.32025 2.948,2.94885 0,1.6286 -1.32,2.9488 -2.948,2.9488 z" />
    <path d="m 121.808,11.0153 c -1.628,0 -2.949,-1.3202 -2.949,-2.9488 0,-1.6286 1.321,-2.94885 2.949,-2.94885 1.629,0 2.949,1.32025 2.949,2.94885 0,1.6286 -1.32,2.9488 -2.949,2.9488 z" />
    <path d="m 110.013,11.0153 c -1.629,0 -2.949,-1.3202 -2.949,-2.9488 0,-1.6286 1.32,-2.94885 2.949,-2.94885 1.628,0 2.949,1.32025 2.949,2.94885 0,1.6286 -1.321,2.9488 -2.949,2.9488 z" />
    <path d="m 98.2175,11.0153 c -1.6286,0 -2.9489,-1.3202 -2.9489,-2.9488 0,-1.6286 1.3203,-2.94884 2.9489,-2.94884 1.6286,0 2.9485,1.32024 2.9485,2.94884 0,1.6286 -1.3199,2.9488 -2.9485,2.9488 z" />
    <path d="m 86.4221,11.0153 c -1.6286,0 -2.9489,-1.3202 -2.9489,-2.9488 0,-1.6286 1.3203,-2.94884 2.9489,-2.94884 1.6286,0 2.9488,1.32024 2.9488,2.94884 0,1.6286 -1.3202,2.9488 -2.9488,2.9488 z" />
    <path d="m 74.6267,11.0153 c -1.6286,0 -2.9488,-1.32019 -2.9488,-2.9488 0,-1.6286 1.3202,-2.94884 2.9488,-2.94884 1.6286,0 2.9489,1.32024 2.9489,2.94884 0,1.6286 -1.3203,2.9488 -2.9489,2.9488 z" />
    <path d="m 62.8313,11.0153 c -1.6286,0 -2.9488,-1.32019 -2.9488,-2.9488 0,-1.6286 1.3202,-2.94884 2.9488,-2.94884 1.6286,0 2.9489,1.32024 2.9489,2.94884 0,1.62861 -1.3203,2.9488 -2.9489,2.9488 z" />
    <path d="m 51.0359,11.0153 c -1.6286,0 -2.9488,-1.32019 -2.9488,-2.9488 0,-1.6286 1.3202,-2.94884 2.9488,-2.94884 1.6286,0 2.9489,1.32024 2.9489,2.94884 0,1.62861 -1.3203,2.9488 -2.9489,2.9488 z" />
    <path d="m 39.2406,11.0153 c -1.6286,0 -2.9489,-1.32019 -2.9489,-2.9488 0,-1.6286 1.3203,-2.94884 2.9489,-2.94884 1.6286,0 2.9488,1.32024 2.9488,2.94884 0,1.62861 -1.3202,2.9488 -2.9488,2.9488 z" />
    <path d="m 27.4452,11.0154 c -1.6286,0 -2.9489,-1.32029 -2.9489,-2.9489 0,-1.6286 1.3203,-2.94884 2.9489,-2.94884 1.6286,0 2.9488,1.32024 2.9488,2.94884 0,1.62861 -1.3202,2.9489 -2.9488,2.9489 z" />
    <path d="m 15.6498,11.0154 c -1.6286,0 -2.9489,-1.32029 -2.9489,-2.9489 0,-1.6286 1.3203,-2.94884 2.9489,-2.94884 1.6286,0 2.9488,1.32024 2.9488,2.94884 0,1.62861 -1.3202,2.9489 -2.9488,2.9489 z" />
    <path d="m 3.8544,11.0154 c -1.6286,0 -2.948842,-1.32029 -2.948842,-2.94889 0,-1.62861 1.320242,-2.94885 2.948842,-2.94885 1.62861,0 2.94885,1.32024 2.94885,2.94885 0,1.6286 -1.32024,2.94889 -2.94885,2.94889 z" />
    <path d="m 239.762,22.8107 c -1.629,0 -2.949,-1.3202 -2.949,-2.9488 0,-1.6286 1.32,-2.9489 2.949,-2.9489 1.629,0 2.949,1.3203 2.949,2.9489 0,1.6286 -1.32,2.9488 -2.949,2.9488 z" />
    <path d="m 227.967,22.8107 c -1.629,0 -2.949,-1.3202 -2.949,-2.9488 0,-1.6286 1.32,-2.9489 2.949,-2.9489 1.628,0 2.949,1.3203 2.949,2.9489 0,1.6286 -1.321,2.9488 -2.949,2.9488 z" />
    <path d="m 216.171,22.8107 c -1.628,0 -2.949,-1.3202 -2.949,-2.9488 0,-1.6286 1.321,-2.9489 2.949,-2.9489 1.629,0 2.949,1.3203 2.949,2.9489 0,1.6286 -1.32,2.9488 -2.949,2.9488 z" />
    <path d="m 204.376,22.8107 c -1.629,0 -2.949,-1.3202 -2.949,-2.9488 0,-1.6286 1.32,-2.9489 2.949,-2.9489 1.629,0 2.949,1.3203 2.949,2.9489 0,1.6286 -1.32,2.9488 -2.949,2.9488 z" />
    <path d="m 192.581,22.8107 c -1.629,0 -2.949,-1.3202 -2.949,-2.9488 0,-1.6286 1.32,-2.9489 2.949,-2.9489 1.628,0 2.948,1.3203 2.948,2.9489 0,1.6286 -1.32,2.9488 -2.948,2.9488 z" />
    <path d="m 180.785,22.8107 c -1.628,0 -2.949,-1.3202 -2.949,-2.9488 0,-1.6286 1.321,-2.9489 2.949,-2.9489 1.629,0 2.949,1.3203 2.949,2.9489 0,1.6286 -1.32,2.9488 -2.949,2.9488 z" />
    <path d="m 168.99,22.8107 c -1.629,0 -2.949,-1.3202 -2.949,-2.9488 0,-1.6286 1.32,-2.9489 2.949,-2.9489 1.628,0 2.949,1.3203 2.949,2.9489 0,1.6286 -1.321,2.9488 -2.949,2.9488 z" />
    <path d="m 157.194,22.8107 c -1.628,0 -2.948,-1.3202 -2.948,-2.9488 0,-1.6286 1.32,-2.9489 2.948,-2.9489 1.629,0 2.949,1.3203 2.949,2.9489 0,1.6286 -1.32,2.9488 -2.949,2.9488 z" />
    <path d="m 145.399,22.8107 c -1.629,0 -2.949,-1.3202 -2.949,-2.9488 0,-1.6286 1.32,-2.9489 2.949,-2.9489 1.629,0 2.949,1.3203 2.949,2.9489 0,1.6286 -1.32,2.9488 -2.949,2.9488 z" />
    <path d="m 133.604,22.8107 c -1.629,0 -2.949,-1.3202 -2.949,-2.9488 0,-1.6286 1.32,-2.9489 2.949,-2.9489 1.628,0 2.948,1.3203 2.948,2.9489 0,1.6286 -1.32,2.9488 -2.948,2.9488 z" />
    <path d="m 121.808,22.8107 c -1.628,0 -2.949,-1.3202 -2.949,-2.9488 0,-1.6286 1.321,-2.9489 2.949,-2.9489 1.629,0 2.949,1.3203 2.949,2.9489 0,1.6286 -1.32,2.9488 -2.949,2.9488 z" />
    <path d="m 110.013,22.8107 c -1.629,0 -2.949,-1.3202 -2.949,-2.9488 0,-1.6286 1.32,-2.9489 2.949,-2.9489 1.628,0 2.949,1.3203 2.949,2.9489 0,1.6286 -1.321,2.9488 -2.949,2.9488 z" />
    <path d="m 98.2175,22.8107 c -1.6286,0 -2.9489,-1.3202 -2.9489,-2.9488 0,-1.6286 1.3203,-2.9489 2.9489,-2.9489 1.6286,0 2.9485,1.3203 2.9485,2.9489 0,1.6286 -1.3199,2.9488 -2.9485,2.9488 z" />
    <path d="m 86.4221,22.8107 c -1.6286,0 -2.9489,-1.3202 -2.9489,-2.9488 0,-1.6286 1.3203,-2.9489 2.9489,-2.9489 1.6286,0 2.9488,1.3203 2.9488,2.9489 0,1.6286 -1.3202,2.9488 -2.9488,2.9488 z" />
    <path d="m 74.6267,22.8107 c -1.6286,0 -2.9488,-1.3202 -2.9488,-2.9488 0,-1.6286 1.3202,-2.9489 2.9488,-2.9489 1.6286,0 2.9489,1.3203 2.9489,2.9489 0,1.6286 -1.3203,2.9488 -2.9489,2.9488 z" />
    <path d="m 62.8313,22.8107 c -1.6286,0 -2.9488,-1.3202 -2.9488,-2.9488 0,-1.6286 1.3202,-2.9489 2.9488,-2.9489 1.6286,0 2.9489,1.3203 2.9489,2.9489 0,1.6286 -1.3203,2.9488 -2.9489,2.9488 z" />
    <path d="m 51.0359,22.8107 c -1.6286,0 -2.9488,-1.3202 -2.9488,-2.9488 0,-1.6286 1.3202,-2.9489 2.9488,-2.9489 1.6286,0 2.9489,1.3203 2.9489,2.9489 0,1.6286 -1.3203,2.9488 -2.9489,2.9488 z" />
    <path d="m 39.2406,22.8107 c -1.6286,0 -2.9489,-1.3202 -2.9489,-2.9488 0,-1.6286 1.3203,-2.9489 2.9489,-2.9489 1.6286,0 2.9488,1.3203 2.9488,2.9489 0,1.6286 -1.3202,2.9488 -2.9488,2.9488 z" />
    <path d="m 27.4452,22.8107 c -1.6286,0 -2.9489,-1.3202 -2.9489,-2.9488 0,-1.6286 1.3203,-2.9489 2.9489,-2.9489 1.6286,0 2.9488,1.3203 2.9488,2.9489 0,1.6286 -1.3202,2.9488 -2.9488,2.9488 z" />
    <path d="m 15.6498,22.8107 c -1.6286,0 -2.9489,-1.3202 -2.9489,-2.9488 0,-1.6286 1.3203,-2.9489 2.9489,-2.9489 1.6286,0 2.9488,1.3203 2.9488,2.9489 0,1.6286 -1.3202,2.9488 -2.9488,2.9488 z" />
    <path d="m 3.8544,22.8107 c -1.6286,0 -2.948842,-1.3202 -2.948842,-2.9488 0,-1.6286 1.320242,-2.9489 2.948842,-2.9489 1.62861,0 2.94885,1.3203 2.94885,2.9489 0,1.6286 -1.32024,2.9488 -2.94885,2.9488 z" />
    <path d="m 239.762,34.6061 c -1.629,0 -2.949,-1.3202 -2.949,-2.9488 0,-1.6286 1.32,-2.9489 2.949,-2.9489 1.629,0 2.949,1.3203 2.949,2.9489 0,1.6286 -1.32,2.9488 -2.949,2.9488 z" />
    <path d="m 227.967,34.6061 c -1.629,0 -2.949,-1.3202 -2.949,-2.9488 0,-1.6286 1.32,-2.9489 2.949,-2.9489 1.628,0 2.949,1.3203 2.949,2.9489 0,1.6286 -1.321,2.9488 -2.949,2.9488 z" />
    <path d="m 216.171,34.6061 c -1.628,0 -2.949,-1.3202 -2.949,-2.9488 0,-1.6286 1.321,-2.9489 2.949,-2.9489 1.629,0 2.949,1.3203 2.949,2.9489 0,1.6286 -1.32,2.9488 -2.949,2.9488 z" />
    <path d="m 204.376,34.6061 c -1.629,0 -2.949,-1.3202 -2.949,-2.9488 0,-1.6286 1.32,-2.9489 2.949,-2.9489 1.629,0 2.949,1.3203 2.949,2.9489 0,1.6286 -1.32,2.9488 -2.949,2.9488 z" />
    <path d="m 192.581,34.6061 c -1.629,0 -2.949,-1.3202 -2.949,-2.9488 0,-1.6286 1.32,-2.9489 2.949,-2.9489 1.628,0 2.948,1.3203 2.948,2.9489 0,1.6286 -1.32,2.9488 -2.948,2.9488 z" />
    <path d="m 180.785,34.6061 c -1.628,0 -2.949,-1.3202 -2.949,-2.9488 0,-1.6286 1.321,-2.9489 2.949,-2.9489 1.629,0 2.949,1.3203 2.949,2.9489 0,1.6286 -1.32,2.9488 -2.949,2.9488 z" />
    <path d="m 168.99,34.6061 c -1.629,0 -2.949,-1.3202 -2.949,-2.9488 0,-1.6286 1.32,-2.9489 2.949,-2.9489 1.628,0 2.949,1.3203 2.949,2.9489 0,1.6286 -1.321,2.9488 -2.949,2.9488 z" />
    <path d="m 157.194,34.6061 c -1.628,0 -2.948,-1.3202 -2.948,-2.9488 0,-1.6286 1.32,-2.9489 2.948,-2.9489 1.629,0 2.949,1.3203 2.949,2.9489 0,1.6286 -1.32,2.9488 -2.949,2.9488 z" />
    <path d="m 145.399,34.6061 c -1.629,0 -2.949,-1.3202 -2.949,-2.9488 0,-1.6286 1.32,-2.9489 2.949,-2.9489 1.629,0 2.949,1.3203 2.949,2.9489 0,1.6286 -1.32,2.9488 -2.949,2.9488 z" />
    <path d="m 133.604,34.6061 c -1.629,0 -2.949,-1.3202 -2.949,-2.9488 0,-1.6286 1.32,-2.9489 2.949,-2.9489 1.628,0 2.948,1.3203 2.948,2.9489 0,1.6286 -1.32,2.9488 -2.948,2.9488 z" />
    <path d="m 121.808,34.6061 c -1.628,0 -2.949,-1.3202 -2.949,-2.9488 0,-1.6286 1.321,-2.9489 2.949,-2.9489 1.629,0 2.949,1.3203 2.949,2.9489 0,1.6286 -1.32,2.9488 -2.949,2.9488 z" />
    <path d="m 110.013,34.6061 c -1.629,0 -2.949,-1.3202 -2.949,-2.9488 0,-1.6286 1.32,-2.9489 2.949,-2.9489 1.628,0 2.949,1.3203 2.949,2.9489 0,1.6286 -1.321,2.9488 -2.949,2.9488 z" />
    <path d="m 98.2175,34.6061 c -1.6286,0 -2.9489,-1.3202 -2.9489,-2.9488 0,-1.6286 1.3203,-2.9489 2.9489,-2.9489 1.6286,0 2.9485,1.3203 2.9485,2.9489 0,1.6286 -1.3199,2.9488 -2.9485,2.9488 z" />
    <path d="m 86.4221,34.6061 c -1.6286,0 -2.9489,-1.3202 -2.9489,-2.9488 0,-1.6286 1.3203,-2.9489 2.9489,-2.9489 1.6286,0 2.9488,1.3203 2.9488,2.9489 0,1.6286 -1.3202,2.9488 -2.9488,2.9488 z" />
    <path d="m 74.6267,34.6061 c -1.6286,0 -2.9488,-1.3202 -2.9488,-2.9488 0,-1.6286 1.3202,-2.9489 2.9488,-2.9489 1.6286,0 2.9489,1.3203 2.9489,2.9489 0,1.6286 -1.3203,2.9488 -2.9489,2.9488 z" />
    <path d="m 62.8313,34.6061 c -1.6286,0 -2.9488,-1.3202 -2.9488,-2.9488 0,-1.6286 1.3202,-2.9489 2.9488,-2.9489 1.6286,0 2.9489,1.3203 2.9489,2.9489 0,1.6286 -1.3203,2.9488 -2.9489,2.9488 z" />
    <path d="m 51.0359,34.6061 c -1.6286,0 -2.9488,-1.3202 -2.9488,-2.9488 0,-1.6286 1.3202,-2.9489 2.9488,-2.9489 1.6286,0 2.9489,1.3203 2.9489,2.9489 0,1.6286 -1.3203,2.9488 -2.9489,2.9488 z" />
    <path d="m 39.2406,34.6061 c -1.6286,0 -2.9489,-1.3202 -2.9489,-2.9488 0,-1.6286 1.3203,-2.9489 2.9489,-2.9489 1.6286,0 2.9488,1.3203 2.9488,2.9489 0,1.6286 -1.3202,2.9488 -2.9488,2.9488 z" />
    <path d="m 27.4452,34.6061 c -1.6286,0 -2.9489,-1.3202 -2.9489,-2.9488 0,-1.6286 1.3203,-2.9489 2.9489,-2.9489 1.6286,0 2.9488,1.3203 2.9488,2.9489 0,1.6286 -1.3202,2.9488 -2.9488,2.9488 z" />
    <path d="m 15.6498,34.6061 c -1.6286,0 -2.9489,-1.3202 -2.9489,-2.9488 0,-1.6286 1.3203,-2.9489 2.9489,-2.9489 1.6286,0 2.9488,1.3203 2.9488,2.9489 0,1.6286 -1.3202,2.9488 -2.9488,2.9488 z" />
    <path d="m 3.85441,34.6061 c -1.62861,0 -2.948851,-1.3202 -2.948851,-2.9488 0,-1.6286 1.320241,-2.9489 2.948841,-2.9489 1.62861,0 2.94885,1.3203 2.94885,2.9489 0,1.6286 -1.32024,2.9488 -2.94884,2.9488 z" />
    <path d="m 239.762,46.4015 c -1.629,0 -2.949,-1.3203 -2.949,-2.9489 0,-1.6286 1.32,-2.9488 2.949,-2.9488 1.629,0 2.949,1.3202 2.949,2.9488 0,1.6286 -1.32,2.9489 -2.949,2.9489 z" />
    <path d="m 227.967,46.4015 c -1.629,0 -2.949,-1.3203 -2.949,-2.9489 0,-1.6286 1.32,-2.9488 2.949,-2.9488 1.628,0 2.949,1.3202 2.949,2.9488 0,1.6286 -1.321,2.9489 -2.949,2.9489 z" />
    <path d="m 216.171,46.4015 c -1.628,0 -2.949,-1.3203 -2.949,-2.9489 0,-1.6286 1.321,-2.9488 2.949,-2.9488 1.629,0 2.949,1.3202 2.949,2.9488 0,1.6286 -1.32,2.9489 -2.949,2.9489 z" />
    <path d="m 204.376,46.4015 c -1.629,0 -2.949,-1.3203 -2.949,-2.9489 0,-1.6286 1.32,-2.9488 2.949,-2.9488 1.629,0 2.949,1.3202 2.949,2.9488 0,1.6286 -1.32,2.9489 -2.949,2.9489 z" />
    <path d="m 192.581,46.4015 c -1.629,0 -2.949,-1.3202 -2.949,-2.9489 0,-1.6286 1.32,-2.9488 2.949,-2.9488 1.628,0 2.948,1.3202 2.948,2.9488 0,1.6287 -1.32,2.9489 -2.948,2.9489 z" />
    <path d="m 180.785,46.4015 c -1.628,0 -2.949,-1.3202 -2.949,-2.9489 0,-1.6286 1.321,-2.9488 2.949,-2.9488 1.629,0 2.949,1.3202 2.949,2.9488 0,1.6287 -1.32,2.9489 -2.949,2.9489 z" />
    <path d="m 168.99,46.4015 c -1.629,0 -2.949,-1.3202 -2.949,-2.9489 0,-1.6286 1.32,-2.9488 2.949,-2.9488 1.628,0 2.949,1.3202 2.949,2.9488 0,1.6287 -1.321,2.9489 -2.949,2.9489 z" />
    <path d="m 157.194,46.4015 c -1.628,0 -2.948,-1.3202 -2.948,-2.9489 0,-1.6286 1.32,-2.9488 2.948,-2.9488 1.629,0 2.949,1.3202 2.949,2.9488 0,1.6287 -1.32,2.9489 -2.949,2.9489 z" />
    <path d="m 145.399,46.4015 c -1.629,0 -2.949,-1.3202 -2.949,-2.9489 0,-1.6286 1.32,-2.9488 2.949,-2.9488 1.629,0 2.949,1.3202 2.949,2.9488 0,1.6287 -1.32,2.9489 -2.949,2.9489 z" />
    <path d="m 133.604,46.4015 c -1.629,0 -2.949,-1.3202 -2.949,-2.9488 0,-1.6287 1.32,-2.9489 2.949,-2.9489 1.628,0 2.948,1.3202 2.948,2.9488 0,1.6287 -1.32,2.9489 -2.948,2.9489 z" />
    <path d="m 121.808,46.4015 c -1.628,0 -2.949,-1.3202 -2.949,-2.9488 0,-1.6287 1.321,-2.9489 2.949,-2.9489 1.629,0 2.949,1.3202 2.949,2.9489 0,1.6286 -1.32,2.9488 -2.949,2.9488 z" />
    <path d="m 110.013,46.4015 c -1.629,0 -2.949,-1.3202 -2.949,-2.9488 0,-1.6287 1.32,-2.9489 2.949,-2.9489 1.628,0 2.949,1.3202 2.949,2.9489 0,1.6286 -1.321,2.9488 -2.949,2.9488 z" />
    <path d="m 98.2175,46.4015 c -1.6286,0 -2.9489,-1.3202 -2.9489,-2.9488 0,-1.6287 1.3203,-2.9489 2.9489,-2.9489 1.6286,0 2.9485,1.3202 2.9485,2.9489 0,1.6286 -1.3199,2.9488 -2.9485,2.9488 z" />
    <path d="m 86.4221,46.4015 c -1.6286,0 -2.9488,-1.3202 -2.9488,-2.9488 0,-1.6287 1.3202,-2.9489 2.9488,-2.9489 1.6286,0 2.9488,1.3202 2.9488,2.9489 0,1.6286 -1.3202,2.9488 -2.9488,2.9488 z" />
    <path d="m 74.6267,46.4015 c -1.6286,0 -2.9488,-1.3202 -2.9488,-2.9488 0,-1.6286 1.3202,-2.9489 2.9488,-2.9489 1.6286,0 2.9489,1.3202 2.9489,2.9489 0,1.6286 -1.3203,2.9488 -2.9489,2.9488 z" />
    <path d="m 62.8313,46.4015 c -1.6286,0 -2.9488,-1.3202 -2.9488,-2.9488 0,-1.6286 1.3202,-2.9489 2.9488,-2.9489 1.6286,0 2.9489,1.3203 2.9489,2.9489 0,1.6286 -1.3203,2.9488 -2.9489,2.9488 z" />
    <path d="m 51.0359,46.4015 c -1.6286,0 -2.9488,-1.3202 -2.9488,-2.9488 0,-1.6286 1.3202,-2.9489 2.9488,-2.9489 1.6286,0 2.9489,1.3203 2.9489,2.9489 0,1.6286 -1.3203,2.9488 -2.9489,2.9488 z" />
    <path d="m 39.2406,46.4015 c -1.6286,0 -2.9489,-1.3202 -2.9489,-2.9488 0,-1.6286 1.3203,-2.9489 2.9489,-2.9489 1.6286,0 2.9488,1.3203 2.9488,2.9489 0,1.6286 -1.3202,2.9488 -2.9488,2.9488 z" />
    <path d="m 27.4452,46.4015 c -1.6286,0 -2.9489,-1.3202 -2.9489,-2.9488 0,-1.6286 1.3203,-2.9489 2.9489,-2.9489 1.6286,0 2.9488,1.3203 2.9488,2.9489 0,1.6286 -1.3202,2.9488 -2.9488,2.9488 z" />
    <path d="m 15.6498,46.4015 c -1.6286,0 -2.9489,-1.3202 -2.9489,-2.9488 0,-1.6286 1.3203,-2.9489 2.9489,-2.9489 1.6286,0 2.9488,1.3203 2.9488,2.9489 0,1.6286 -1.3202,2.9488 -2.9488,2.9488 z" />
    <path d="m 3.85441,46.4015 c -1.62861,0 -2.948851,-1.3202 -2.948851,-2.9488 0,-1.6286 1.320241,-2.9489 2.948851,-2.9489 1.6286,0 2.94884,1.3203 2.94884,2.9489 0,1.6286 -1.32024,2.9488 -2.94884,2.9488 z" />
    <path d="m 239.762,58.1969 c -1.629,0 -2.949,-1.3203 -2.949,-2.9489 0,-1.6286 1.32,-2.9488 2.949,-2.9488 1.629,0 2.949,1.3202 2.949,2.9488 0,1.6286 -1.32,2.9489 -2.949,2.9489 z" />
    <path d="m 227.967,58.1969 c -1.629,0 -2.949,-1.3203 -2.949,-2.9489 0,-1.6286 1.32,-2.9488 2.949,-2.9488 1.628,0 2.949,1.3202 2.949,2.9488 0,1.6286 -1.321,2.9489 -2.949,2.9489 z" />
    <path d="m 216.171,58.1969 c -1.628,0 -2.949,-1.3203 -2.949,-2.9489 0,-1.6286 1.321,-2.9488 2.949,-2.9488 1.629,0 2.949,1.3202 2.949,2.9488 0,1.6286 -1.32,2.9489 -2.949,2.9489 z" />
    <path d="m 204.376,58.1969 c -1.629,0 -2.949,-1.3203 -2.949,-2.9489 0,-1.6286 1.32,-2.9488 2.949,-2.9488 1.629,0 2.949,1.3202 2.949,2.9488 0,1.6286 -1.32,2.9489 -2.949,2.9489 z" />
    <path d="m 192.581,58.1969 c -1.629,0 -2.949,-1.3203 -2.949,-2.9489 0,-1.6286 1.32,-2.9488 2.949,-2.9488 1.628,0 2.948,1.3202 2.948,2.9488 0,1.6286 -1.32,2.9489 -2.948,2.9489 z" />
    <path d="m 180.785,58.1969 c -1.628,0 -2.949,-1.3203 -2.949,-2.9489 0,-1.6286 1.321,-2.9488 2.949,-2.9488 1.629,0 2.949,1.3202 2.949,2.9488 0,1.6286 -1.32,2.9489 -2.949,2.9489 z" />
    <path d="m 168.99,58.1969 c -1.629,0 -2.949,-1.3203 -2.949,-2.9489 0,-1.6286 1.32,-2.9488 2.949,-2.9488 1.628,0 2.949,1.3202 2.949,2.9488 0,1.6286 -1.321,2.9489 -2.949,2.9489 z" />
    <path d="m 157.194,58.1969 c -1.628,0 -2.948,-1.3203 -2.948,-2.9489 0,-1.6286 1.32,-2.9488 2.948,-2.9488 1.629,0 2.949,1.3202 2.949,2.9488 0,1.6286 -1.32,2.9489 -2.949,2.9489 z" />
    <path d="m 145.399,58.1969 c -1.629,0 -2.949,-1.3203 -2.949,-2.9489 0,-1.6286 1.32,-2.9488 2.949,-2.9488 1.629,0 2.949,1.3202 2.949,2.9488 0,1.6286 -1.32,2.9489 -2.949,2.9489 z" />
    <path d="m 133.604,58.1969 c -1.629,0 -2.949,-1.3203 -2.949,-2.9489 0,-1.6286 1.32,-2.9488 2.949,-2.9488 1.628,0 2.948,1.3202 2.948,2.9488 0,1.6286 -1.32,2.9489 -2.948,2.9489 z" />
    <path d="m 121.808,58.1969 c -1.628,0 -2.949,-1.3203 -2.949,-2.9489 0,-1.6286 1.321,-2.9488 2.949,-2.9488 1.629,0 2.949,1.3202 2.949,2.9488 0,1.6286 -1.32,2.9489 -2.949,2.9489 z" />
    <path d="m 110.013,58.1969 c -1.629,0 -2.949,-1.3203 -2.949,-2.9489 0,-1.6286 1.32,-2.9488 2.949,-2.9488 1.628,0 2.949,1.3202 2.949,2.9488 0,1.6286 -1.321,2.9489 -2.949,2.9489 z" />
    <path d="m 98.2175,58.1969 c -1.6286,0 -2.9489,-1.3203 -2.9489,-2.9489 0,-1.6286 1.3203,-2.9488 2.9489,-2.9488 1.6286,0 2.9485,1.3202 2.9485,2.9488 0,1.6286 -1.3199,2.9489 -2.9485,2.9489 z" />
    <path d="m 86.4221,58.1969 c -1.6286,0 -2.9488,-1.3203 -2.9488,-2.9489 0,-1.6286 1.3202,-2.9488 2.9488,-2.9488 1.6286,0 2.9488,1.3202 2.9488,2.9488 0,1.6286 -1.3202,2.9489 -2.9488,2.9489 z" />
    <path d="m 74.6267,58.1969 c -1.6286,0 -2.9488,-1.3203 -2.9488,-2.9489 0,-1.6286 1.3202,-2.9488 2.9488,-2.9488 1.6286,0 2.9489,1.3202 2.9489,2.9488 0,1.6286 -1.3203,2.9489 -2.9489,2.9489 z" />
    <path d="m 62.8313,58.1969 c -1.6286,0 -2.9488,-1.3203 -2.9488,-2.9489 0,-1.6286 1.3202,-2.9488 2.9488,-2.9488 1.6286,0 2.9489,1.3202 2.9489,2.9488 0,1.6286 -1.3203,2.9489 -2.9489,2.9489 z" />
    <path d="m 51.0359,58.1969 c -1.6286,0 -2.9488,-1.3203 -2.9488,-2.9489 0,-1.6286 1.3202,-2.9488 2.9488,-2.9488 1.6286,0 2.9489,1.3202 2.9489,2.9488 0,1.6286 -1.3203,2.9489 -2.9489,2.9489 z" />
    <path d="m 39.2406,58.1969 c -1.6286,0 -2.9489,-1.3203 -2.9489,-2.9489 0,-1.6286 1.3203,-2.9488 2.9489,-2.9488 1.6286,0 2.9488,1.3202 2.9488,2.9488 0,1.6286 -1.3202,2.9489 -2.9488,2.9489 z" />
    <path d="m 27.4452,58.1969 c -1.6286,0 -2.9489,-1.3203 -2.9489,-2.9489 0,-1.6286 1.3203,-2.9488 2.9489,-2.9488 1.6286,0 2.9488,1.3202 2.9488,2.9488 0,1.6286 -1.3202,2.9489 -2.9488,2.9489 z" />
    <path d="m 15.6498,58.1969 c -1.6286,0 -2.9489,-1.3203 -2.9489,-2.9489 0,-1.6286 1.3203,-2.9488 2.9489,-2.9488 1.6286,0 2.9488,1.3202 2.9488,2.9488 0,1.6286 -1.3202,2.9489 -2.9488,2.9489 z" />
    <path d="m 3.85441,58.1969 c -1.62861,0 -2.94885,-1.3203 -2.94885,-2.9489 0,-1.6286 1.32024,-2.9488 2.94885,-2.9488 1.6286,0 2.94884,1.3202 2.94884,2.9488 0,1.6286 -1.32024,2.9489 -2.94884,2.9489 z" />
    <path d="m 239.762,69.9923 c -1.629,0 -2.949,-1.3203 -2.949,-2.9489 0,-1.6286 1.32,-2.9488 2.949,-2.9488 1.629,0 2.949,1.3202 2.949,2.9488 0,1.6286 -1.32,2.9489 -2.949,2.9489 z" />
    <path d="m 227.967,69.9923 c -1.629,0 -2.949,-1.3203 -2.949,-2.9489 0,-1.6286 1.32,-2.9488 2.949,-2.9488 1.628,0 2.949,1.3202 2.949,2.9488 0,1.6286 -1.321,2.9489 -2.949,2.9489 z" />
    <path d="m 216.171,69.9923 c -1.628,0 -2.949,-1.3203 -2.949,-2.9489 0,-1.6286 1.321,-2.9488 2.949,-2.9488 1.629,0 2.949,1.3202 2.949,2.9488 0,1.6286 -1.32,2.9489 -2.949,2.9489 z" />
    <path d="m 204.376,69.9923 c -1.629,0 -2.949,-1.3203 -2.949,-2.9489 0,-1.6286 1.32,-2.9488 2.949,-2.9488 1.629,0 2.949,1.3202 2.949,2.9488 0,1.6286 -1.32,2.9489 -2.949,2.9489 z" />
    <path d="m 192.581,69.9923 c -1.629,0 -2.949,-1.3203 -2.949,-2.9489 0,-1.6286 1.32,-2.9488 2.949,-2.9488 1.628,0 2.948,1.3202 2.948,2.9488 0,1.6286 -1.32,2.9489 -2.948,2.9489 z" />
    <path d="m 180.785,69.9923 c -1.628,0 -2.949,-1.3203 -2.949,-2.9489 0,-1.6286 1.321,-2.9488 2.949,-2.9488 1.629,0 2.949,1.3202 2.949,2.9488 0,1.6286 -1.32,2.9489 -2.949,2.9489 z" />
    <path d="m 168.99,69.9923 c -1.629,0 -2.949,-1.3203 -2.949,-2.9489 0,-1.6286 1.32,-2.9488 2.949,-2.9488 1.628,0 2.949,1.3202 2.949,2.9488 0,1.6286 -1.321,2.9489 -2.949,2.9489 z" />
    <path d="m 157.194,69.9923 c -1.628,0 -2.948,-1.3203 -2.948,-2.9489 0,-1.6286 1.32,-2.9488 2.948,-2.9488 1.629,0 2.949,1.3202 2.949,2.9488 0,1.6286 -1.32,2.9489 -2.949,2.9489 z" />
    <path d="m 145.399,69.9923 c -1.629,0 -2.949,-1.3203 -2.949,-2.9489 0,-1.6286 1.32,-2.9488 2.949,-2.9488 1.629,0 2.949,1.3202 2.949,2.9488 0,1.6286 -1.32,2.9489 -2.949,2.9489 z" />
    <path d="m 133.604,69.9923 c -1.629,0 -2.949,-1.3203 -2.949,-2.9489 0,-1.6286 1.32,-2.9488 2.949,-2.9488 1.628,0 2.948,1.3202 2.948,2.9488 0,1.6286 -1.32,2.9489 -2.948,2.9489 z" />
    <path d="m 121.808,69.9923 c -1.628,0 -2.949,-1.3203 -2.949,-2.9489 0,-1.6286 1.321,-2.9488 2.949,-2.9488 1.629,0 2.949,1.3202 2.949,2.9488 0,1.6286 -1.32,2.9489 -2.949,2.9489 z" />
    <path d="m 110.013,69.9923 c -1.629,0 -2.949,-1.3203 -2.949,-2.9489 0,-1.6286 1.32,-2.9488 2.949,-2.9488 1.628,0 2.949,1.3202 2.949,2.9488 0,1.6286 -1.321,2.9489 -2.949,2.9489 z" />
    <path d="m 98.2175,69.9923 c -1.6286,0 -2.9489,-1.3203 -2.9489,-2.9489 0,-1.6286 1.3203,-2.9488 2.9489,-2.9488 1.6286,0 2.9485,1.3202 2.9485,2.9488 0,1.6286 -1.3199,2.9489 -2.9485,2.9489 z" />
    <path d="m 86.4221,69.9923 c -1.6286,0 -2.9488,-1.3203 -2.9488,-2.9489 0,-1.6286 1.3202,-2.9488 2.9488,-2.9488 1.6286,0 2.9488,1.3202 2.9488,2.9488 0,1.6286 -1.3202,2.9489 -2.9488,2.9489 z" />
    <path d="m 74.6267,69.9923 c -1.6286,0 -2.9488,-1.3203 -2.9488,-2.9489 0,-1.6286 1.3202,-2.9488 2.9488,-2.9488 1.6286,0 2.9489,1.3202 2.9489,2.9488 0,1.6286 -1.3203,2.9489 -2.9489,2.9489 z" />
    <path d="m 62.8313,69.9923 c -1.6286,0 -2.9488,-1.3203 -2.9488,-2.9489 0,-1.6286 1.3202,-2.9488 2.9488,-2.9488 1.6286,0 2.9489,1.3202 2.9489,2.9488 0,1.6286 -1.3203,2.9489 -2.9489,2.9489 z" />
    <path d="m 51.0359,69.9923 c -1.6286,0 -2.9488,-1.3203 -2.9488,-2.9489 0,-1.6286 1.3202,-2.9488 2.9488,-2.9488 1.6286,0 2.9489,1.3202 2.9489,2.9488 0,1.6286 -1.3203,2.9489 -2.9489,2.9489 z" />
    <path d="m 39.2406,69.9923 c -1.6286,0 -2.9489,-1.3203 -2.9489,-2.9489 0,-1.6286 1.3203,-2.9488 2.9489,-2.9488 1.6286,0 2.9488,1.3202 2.9488,2.9488 0,1.6286 -1.3202,2.9489 -2.9488,2.9489 z" />
    <path d="m 27.4452,69.9923 c -1.6286,0 -2.9489,-1.3203 -2.9489,-2.9489 0,-1.6286 1.3203,-2.9488 2.9489,-2.9488 1.6286,0 2.9488,1.3202 2.9488,2.9488 0,1.6286 -1.3202,2.9489 -2.9488,2.9489 z" />
    <path d="m 15.6498,69.9923 c -1.6286,0 -2.9489,-1.3203 -2.9489,-2.9489 0,-1.6286 1.3203,-2.9488 2.9489,-2.9488 1.6286,0 2.9488,1.3202 2.9488,2.9488 0,1.6286 -1.3202,2.9489 -2.9488,2.9489 z" />
    <path d="m 3.85441,69.9923 c -1.62861,0 -2.94885,-1.3203 -2.94885,-2.9489 0,-1.6286 1.32024,-2.9488 2.94885,-2.9488 1.6286,0 2.94884,1.3202 2.94884,2.9488 0,1.6286 -1.32024,2.9489 -2.94884,2.9489 z" />
    <path d="m 239.762,81.7876 c -1.629,0 -2.949,-1.3202 -2.949,-2.9488 0,-1.6286 1.32,-2.9489 2.949,-2.9489 1.629,0 2.949,1.3203 2.949,2.9489 0,1.6286 -1.32,2.9488 -2.949,2.9488 z" />
    <path d="m 227.967,81.7876 c -1.629,0 -2.949,-1.3202 -2.949,-2.9488 0,-1.6286 1.32,-2.9488 2.949,-2.9488 1.628,0 2.949,1.3202 2.949,2.9488 0,1.6286 -1.321,2.9488 -2.949,2.9488 z" />
    <path d="m 216.171,81.7876 c -1.628,0 -2.949,-1.3202 -2.949,-2.9488 0,-1.6286 1.321,-2.9488 2.949,-2.9488 1.629,0 2.949,1.3202 2.949,2.9488 0,1.6286 -1.32,2.9488 -2.949,2.9488 z" />
    <path d="m 204.376,81.7876 c -1.629,0 -2.949,-1.3202 -2.949,-2.9488 0,-1.6286 1.32,-2.9488 2.949,-2.9488 1.629,0 2.949,1.3202 2.949,2.9488 0,1.6286 -1.32,2.9488 -2.949,2.9488 z" />
    <path d="m 192.581,81.7876 c -1.629,0 -2.949,-1.3202 -2.949,-2.9488 0,-1.6286 1.32,-2.9488 2.949,-2.9488 1.628,0 2.948,1.3202 2.948,2.9488 0,1.6286 -1.32,2.9488 -2.948,2.9488 z" />
    <path d="m 180.785,81.7876 c -1.628,0 -2.949,-1.3202 -2.949,-2.9488 0,-1.6286 1.321,-2.9488 2.949,-2.9488 1.629,0 2.949,1.3202 2.949,2.9488 0,1.6286 -1.32,2.9488 -2.949,2.9488 z" />
    <path d="m 168.99,81.7876 c -1.629,0 -2.949,-1.3202 -2.949,-2.9488 0,-1.6286 1.32,-2.9488 2.949,-2.9488 1.628,0 2.949,1.3202 2.949,2.9488 0,1.6286 -1.321,2.9488 -2.949,2.9488 z" />
    <path d="m 157.194,81.7876 c -1.628,0 -2.948,-1.3202 -2.948,-2.9488 0,-1.6286 1.32,-2.9488 2.948,-2.9488 1.629,0 2.949,1.3202 2.949,2.9488 0,1.6286 -1.32,2.9488 -2.949,2.9488 z" />
    <path d="m 145.399,81.7876 c -1.629,0 -2.949,-1.3202 -2.949,-2.9488 0,-1.6286 1.32,-2.9488 2.949,-2.9488 1.629,0 2.949,1.3202 2.949,2.9488 0,1.6286 -1.32,2.9488 -2.949,2.9488 z" />
    <path d="m 133.604,81.7876 c -1.629,0 -2.949,-1.3202 -2.949,-2.9488 0,-1.6286 1.32,-2.9488 2.949,-2.9488 1.628,0 2.948,1.3202 2.948,2.9488 0,1.6286 -1.32,2.9488 -2.948,2.9488 z" />
    <path d="m 121.808,81.7876 c -1.628,0 -2.949,-1.3202 -2.949,-2.9488 0,-1.6286 1.321,-2.9488 2.949,-2.9488 1.629,0 2.949,1.3202 2.949,2.9488 0,1.6286 -1.32,2.9488 -2.949,2.9488 z" />
    <path d="m 110.013,81.7876 c -1.629,0 -2.949,-1.3202 -2.949,-2.9488 0,-1.6286 1.32,-2.9488 2.949,-2.9488 1.628,0 2.949,1.3202 2.949,2.9488 0,1.6286 -1.321,2.9488 -2.949,2.9488 z" />
    <path d="m 98.2175,81.7876 c -1.6286,0 -2.9489,-1.3202 -2.9489,-2.9488 0,-1.6286 1.3203,-2.9488 2.9489,-2.9488 1.6286,0 2.9485,1.3202 2.9485,2.9488 0,1.6286 -1.3199,2.9488 -2.9485,2.9488 z" />
    <path d="m 86.4221,81.7876 c -1.6286,0 -2.9488,-1.3202 -2.9488,-2.9488 0,-1.6286 1.3202,-2.9488 2.9488,-2.9488 1.6286,0 2.9488,1.3202 2.9488,2.9488 0,1.6286 -1.3202,2.9488 -2.9488,2.9488 z" />
    <path d="m 74.6267,81.7876 c -1.6286,0 -2.9488,-1.3202 -2.9488,-2.9488 0,-1.6286 1.3202,-2.9488 2.9488,-2.9488 1.6286,0 2.9489,1.3202 2.9489,2.9488 0,1.6286 -1.3203,2.9488 -2.9489,2.9488 z" />
    <path d="m 62.8313,81.7876 c -1.6286,0 -2.9488,-1.3202 -2.9488,-2.9488 0,-1.6286 1.3202,-2.9488 2.9488,-2.9488 1.6286,0 2.9489,1.3202 2.9489,2.9488 0,1.6286 -1.3203,2.9488 -2.9489,2.9488 z" />
    <path d="m 51.0359,81.7876 c -1.6286,0 -2.9488,-1.3202 -2.9488,-2.9488 0,-1.6286 1.3202,-2.9488 2.9488,-2.9488 1.6286,0 2.9489,1.3202 2.9489,2.9488 0,1.6286 -1.3203,2.9488 -2.9489,2.9488 z" />
    <path d="m 39.2406,81.7877 c -1.6286,0 -2.9489,-1.3203 -2.9489,-2.9489 0,-1.6286 1.3203,-2.9488 2.9489,-2.9488 1.6286,0 2.9488,1.3202 2.9488,2.9488 0,1.6286 -1.3202,2.9489 -2.9488,2.9489 z" />
    <path d="m 27.4452,81.7877 c -1.6286,0 -2.9489,-1.3203 -2.9489,-2.9489 0,-1.6286 1.3203,-2.9488 2.9489,-2.9488 1.6286,0 2.9488,1.3202 2.9488,2.9488 0,1.6286 -1.3202,2.9489 -2.9488,2.9489 z" />
    <path d="m 15.6498,81.7877 c -1.6286,0 -2.9489,-1.3203 -2.9489,-2.9489 0,-1.6286 1.3203,-2.9488 2.9489,-2.9488 1.6286,0 2.9488,1.3202 2.9488,2.9488 0,1.6286 -1.3202,2.9489 -2.9488,2.9489 z" />
    <path d="m 3.85441,81.7877 c -1.62861,0 -2.948849,-1.3203 -2.948849,-2.9489 0,-1.6286 1.320239,-2.9488 2.948849,-2.9488 1.6286,0 2.94884,1.3202 2.94884,2.9488 0,1.6286 -1.32024,2.9489 -2.94884,2.9489 z" />
    <path d="m 239.762,93.583 c -1.629,0 -2.949,-1.3202 -2.949,-2.9488 0,-1.6286 1.32,-2.9489 2.949,-2.9489 1.629,0 2.949,1.3203 2.949,2.9489 0,1.6286 -1.32,2.9488 -2.949,2.9488 z" />
    <path d="m 227.967,93.583 c -1.629,0 -2.949,-1.3202 -2.949,-2.9488 0,-1.6286 1.32,-2.9489 2.949,-2.9489 1.628,0 2.949,1.3203 2.949,2.9489 0,1.6286 -1.321,2.9488 -2.949,2.9488 z" />
    <path d="m 216.171,93.583 c -1.628,0 -2.949,-1.3202 -2.949,-2.9488 0,-1.6286 1.321,-2.9489 2.949,-2.9489 1.629,0 2.949,1.3203 2.949,2.9489 0,1.6286 -1.32,2.9488 -2.949,2.9488 z" />
    <path d="m 204.376,93.583 c -1.629,0 -2.949,-1.3202 -2.949,-2.9488 0,-1.6286 1.32,-2.9489 2.949,-2.9489 1.629,0 2.949,1.3203 2.949,2.9489 0,1.6286 -1.32,2.9488 -2.949,2.9488 z" />
    <path d="m 192.581,93.583 c -1.629,0 -2.949,-1.3202 -2.949,-2.9488 0,-1.6286 1.32,-2.9489 2.949,-2.9489 1.628,0 2.948,1.3203 2.948,2.9489 0,1.6286 -1.32,2.9488 -2.948,2.9488 z" />
    <path d="m 180.785,93.583 c -1.628,0 -2.949,-1.3202 -2.949,-2.9488 0,-1.6286 1.321,-2.9489 2.949,-2.9489 1.629,0 2.949,1.3203 2.949,2.9489 0,1.6286 -1.32,2.9488 -2.949,2.9488 z" />
    <path d="m 168.99,93.583 c -1.629,0 -2.949,-1.3202 -2.949,-2.9488 0,-1.6286 1.32,-2.9489 2.949,-2.9489 1.628,0 2.949,1.3203 2.949,2.9489 0,1.6286 -1.321,2.9488 -2.949,2.9488 z" />
    <path d="m 157.194,93.583 c -1.628,0 -2.948,-1.3202 -2.948,-2.9488 0,-1.6286 1.32,-2.9489 2.948,-2.9489 1.629,0 2.949,1.3203 2.949,2.9489 0,1.6286 -1.32,2.9488 -2.949,2.9488 z" />
    <path d="m 145.399,93.583 c -1.629,0 -2.949,-1.3202 -2.949,-2.9488 0,-1.6286 1.32,-2.9489 2.949,-2.9489 1.629,0 2.949,1.3203 2.949,2.9489 0,1.6286 -1.32,2.9488 -2.949,2.9488 z" />
    <path d="m 133.604,93.583 c -1.629,0 -2.949,-1.3202 -2.949,-2.9488 0,-1.6286 1.32,-2.9489 2.949,-2.9489 1.628,0 2.948,1.3203 2.948,2.9489 0,1.6286 -1.32,2.9488 -2.948,2.9488 z" />
    <path d="m 121.808,93.583 c -1.628,0 -2.949,-1.3202 -2.949,-2.9488 0,-1.6286 1.321,-2.9489 2.949,-2.9489 1.629,0 2.949,1.3203 2.949,2.9489 0,1.6286 -1.32,2.9488 -2.949,2.9488 z" />
    <path d="m 110.013,93.583 c -1.629,0 -2.949,-1.3202 -2.949,-2.9488 0,-1.6286 1.32,-2.9489 2.949,-2.9489 1.628,0 2.949,1.3203 2.949,2.9489 0,1.6286 -1.321,2.9488 -2.949,2.9488 z" />
    <path d="m 98.2175,93.583 c -1.6286,0 -2.9489,-1.3202 -2.9489,-2.9488 0,-1.6286 1.3203,-2.9489 2.9489,-2.9489 1.6286,0 2.9485,1.3203 2.9485,2.9489 0,1.6286 -1.3199,2.9488 -2.9485,2.9488 z" />
    <path d="m 86.4221,93.583 c -1.6286,0 -2.9488,-1.3202 -2.9488,-2.9488 0,-1.6286 1.3202,-2.9489 2.9488,-2.9489 1.6286,0 2.9488,1.3203 2.9488,2.9489 0,1.6286 -1.3202,2.9488 -2.9488,2.9488 z" />
    <path d="m 74.6267,93.583 c -1.6286,0 -2.9488,-1.3202 -2.9488,-2.9488 0,-1.6286 1.3202,-2.9489 2.9488,-2.9489 1.6286,0 2.9489,1.3203 2.9489,2.9489 0,1.6286 -1.3203,2.9488 -2.9489,2.9488 z" />
    <path d="m 62.8313,93.583 c -1.6286,0 -2.9488,-1.3202 -2.9488,-2.9488 0,-1.6286 1.3202,-2.9489 2.9488,-2.9489 1.6286,0 2.9489,1.3203 2.9489,2.9489 0,1.6286 -1.3203,2.9488 -2.9489,2.9488 z" />
    <path d="m 51.0359,93.583 c -1.6286,0 -2.9488,-1.3202 -2.9488,-2.9488 0,-1.6286 1.3202,-2.9489 2.9488,-2.9489 1.6286,0 2.9489,1.3203 2.9489,2.9489 0,1.6286 -1.3203,2.9488 -2.9489,2.9488 z" />
    <path d="m 39.2406,93.583 c -1.6286,0 -2.9489,-1.3202 -2.9489,-2.9488 0,-1.6286 1.3203,-2.9489 2.9489,-2.9489 1.6286,0 2.9488,1.3203 2.9488,2.9489 0,1.6286 -1.3202,2.9488 -2.9488,2.9488 z" />
    <path d="m 27.4452,93.583 c -1.6286,0 -2.9489,-1.3202 -2.9489,-2.9488 0,-1.6286 1.3203,-2.9489 2.9489,-2.9489 1.6286,0 2.9488,1.3203 2.9488,2.9489 0,1.6286 -1.3202,2.9488 -2.9488,2.9488 z" />
    <path d="m 15.6498,93.583 c -1.6286,0 -2.9489,-1.3202 -2.9489,-2.9488 0,-1.6286 1.3203,-2.9489 2.9489,-2.9489 1.6286,0 2.9488,1.3203 2.9488,2.9489 0,1.6286 -1.3202,2.9488 -2.9488,2.9488 z" />
    <path d="m 3.85441,93.583 c -1.62861,0 -2.948849,-1.3202 -2.948849,-2.9488 0,-1.6286 1.320239,-2.9489 2.948849,-2.9489 1.6286,0 2.94884,1.3203 2.94884,2.9489 0,1.6286 -1.32024,2.9488 -2.94884,2.9488 z" />
    <path d="m 239.762,105.378 c -1.629,0 -2.949,-1.32 -2.949,-2.948 0,-1.629 1.32,-2.9493 2.949,-2.9493 1.629,0 2.949,1.3203 2.949,2.9493 0,1.628 -1.32,2.948 -2.949,2.948 z" />
    <path d="m 227.967,105.378 c -1.629,0 -2.949,-1.32 -2.949,-2.948 0,-1.629 1.32,-2.9493 2.949,-2.9493 1.628,0 2.949,1.3203 2.949,2.9493 0,1.628 -1.321,2.948 -2.949,2.948 z" />
    <path d="m 216.171,105.378 c -1.628,0 -2.949,-1.32 -2.949,-2.948 0,-1.629 1.321,-2.9493 2.949,-2.9493 1.629,0 2.949,1.3203 2.949,2.9493 0,1.628 -1.32,2.948 -2.949,2.948 z" />
    <path d="m 204.376,105.378 c -1.629,0 -2.949,-1.32 -2.949,-2.948 0,-1.629 1.32,-2.9493 2.949,-2.9493 1.629,0 2.949,1.3203 2.949,2.9493 0,1.628 -1.32,2.948 -2.949,2.948 z" />
    <path d="m 192.581,105.378 c -1.629,0 -2.949,-1.32 -2.949,-2.948 0,-1.629 1.32,-2.9493 2.949,-2.9493 1.628,0 2.948,1.3203 2.948,2.9493 0,1.628 -1.32,2.948 -2.948,2.948 z" />
    <path d="m 180.785,105.378 c -1.628,0 -2.949,-1.32 -2.949,-2.948 0,-1.629 1.321,-2.9493 2.949,-2.9493 1.629,0 2.949,1.3203 2.949,2.9493 0,1.628 -1.32,2.948 -2.949,2.948 z" />
    <path d="m 168.99,105.378 c -1.629,0 -2.949,-1.32 -2.949,-2.948 0,-1.629 1.32,-2.9493 2.949,-2.9493 1.628,0 2.949,1.3203 2.949,2.9493 0,1.628 -1.321,2.948 -2.949,2.948 z" />
    <path d="m 157.194,105.378 c -1.628,0 -2.948,-1.32 -2.948,-2.948 0,-1.629 1.32,-2.9493 2.948,-2.9493 1.629,0 2.949,1.3203 2.949,2.9493 0,1.628 -1.32,2.948 -2.949,2.948 z" />
    <path d="m 145.399,105.378 c -1.629,0 -2.949,-1.32 -2.949,-2.948 0,-1.629 1.32,-2.9493 2.949,-2.9493 1.629,0 2.949,1.3203 2.949,2.9493 0,1.628 -1.32,2.948 -2.949,2.948 z" />
    <path d="m 133.604,105.378 c -1.629,0 -2.949,-1.32 -2.949,-2.948 0,-1.629 1.32,-2.9493 2.949,-2.9493 1.628,0 2.948,1.3203 2.948,2.9493 0,1.628 -1.32,2.948 -2.948,2.948 z" />
    <path d="m 121.808,105.378 c -1.628,0 -2.949,-1.32 -2.949,-2.948 0,-1.629 1.321,-2.9493 2.949,-2.9493 1.629,0 2.949,1.3203 2.949,2.9493 0,1.628 -1.32,2.948 -2.949,2.948 z" />
    <path d="m 110.013,105.378 c -1.629,0 -2.949,-1.32 -2.949,-2.948 0,-1.629 1.32,-2.9493 2.949,-2.9493 1.628,0 2.949,1.3203 2.949,2.9493 0,1.628 -1.321,2.948 -2.949,2.948 z" />
    <path d="m 98.2175,105.378 c -1.6286,0 -2.9489,-1.32 -2.9489,-2.948 0,-1.629 1.3203,-2.9493 2.9489,-2.9493 1.6286,0 2.9485,1.3203 2.9485,2.9493 0,1.628 -1.3199,2.948 -2.9485,2.948 z" />
    <path d="m 86.4221,105.378 c -1.6286,0 -2.9488,-1.32 -2.9488,-2.948 0,-1.629 1.3202,-2.9493 2.9488,-2.9493 1.6286,0 2.9488,1.3203 2.9488,2.9493 0,1.628 -1.3202,2.948 -2.9488,2.948 z" />
    <path d="m 74.6267,105.378 c -1.6286,0 -2.9488,-1.32 -2.9488,-2.948 0,-1.629 1.3202,-2.9493 2.9488,-2.9493 1.6286,0 2.9489,1.3203 2.9489,2.9493 0,1.628 -1.3203,2.948 -2.9489,2.948 z" />
    <path d="m 62.8313,105.378 c -1.6286,0 -2.9488,-1.32 -2.9488,-2.948 0,-1.629 1.3202,-2.9493 2.9488,-2.9493 1.6286,0 2.9489,1.3203 2.9489,2.9493 0,1.628 -1.3203,2.948 -2.9489,2.948 z" />
    <path d="m 51.0359,105.378 c -1.6286,0 -2.9488,-1.32 -2.9488,-2.948 0,-1.629 1.3202,-2.9493 2.9488,-2.9493 1.6286,0 2.9489,1.3203 2.9489,2.9493 0,1.628 -1.3203,2.948 -2.9489,2.948 z" />
    <path d="m 39.2406,105.378 c -1.6286,0 -2.9489,-1.32 -2.9489,-2.948 0,-1.629 1.3203,-2.9493 2.9489,-2.9493 1.6286,0 2.9488,1.3203 2.9488,2.9493 0,1.628 -1.3202,2.948 -2.9488,2.948 z" />
    <path d="m 27.4452,105.378 c -1.6286,0 -2.9489,-1.32 -2.9489,-2.948 0,-1.629 1.3203,-2.9493 2.9489,-2.9493 1.6286,0 2.9488,1.3203 2.9488,2.9493 0,1.628 -1.3202,2.948 -2.9488,2.948 z" />
    <path d="m 15.6498,105.378 c -1.6286,0 -2.9489,-1.32 -2.9489,-2.948 0,-1.629 1.3203,-2.9493 2.9489,-2.9493 1.6286,0 2.9488,1.3203 2.9488,2.9493 0,1.628 -1.3202,2.948 -2.9488,2.948 z" />
    <path d="m 3.85441,105.378 c -1.6286,0 -2.948848,-1.32 -2.948848,-2.948 0,-1.629 1.320248,-2.9493 2.948848,-2.9493 1.6286,0 2.94884,1.3203 2.94884,2.9493 0,1.628 -1.32024,2.948 -2.94884,2.948 z" />
    <path d="m 239.762,117.174 c -1.629,0 -2.949,-1.32 -2.949,-2.949 0,-1.629 1.32,-2.949 2.949,-2.949 1.629,0 2.949,1.32 2.949,2.949 0,1.629 -1.32,2.949 -2.949,2.949 z" />
    <path d="m 227.967,117.174 c -1.629,0 -2.949,-1.32 -2.949,-2.949 0,-1.629 1.32,-2.949 2.949,-2.949 1.628,0 2.949,1.32 2.949,2.949 0,1.629 -1.321,2.949 -2.949,2.949 z" />
    <path d="m 216.171,117.174 c -1.628,0 -2.949,-1.32 -2.949,-2.949 0,-1.629 1.321,-2.949 2.949,-2.949 1.629,0 2.949,1.32 2.949,2.949 0,1.629 -1.32,2.949 -2.949,2.949 z" />
    <path d="m 204.376,117.174 c -1.629,0 -2.949,-1.32 -2.949,-2.949 0,-1.629 1.32,-2.949 2.949,-2.949 1.629,0 2.949,1.32 2.949,2.949 0,1.629 -1.32,2.949 -2.949,2.949 z" />
    <path d="m 192.581,117.174 c -1.629,0 -2.949,-1.32 -2.949,-2.949 0,-1.629 1.32,-2.949 2.949,-2.949 1.628,0 2.948,1.32 2.948,2.949 0,1.629 -1.32,2.949 -2.948,2.949 z" />
    <path d="m 180.785,117.174 c -1.628,0 -2.949,-1.32 -2.949,-2.949 0,-1.629 1.321,-2.949 2.949,-2.949 1.629,0 2.949,1.32 2.949,2.949 0,1.629 -1.32,2.949 -2.949,2.949 z" />
    <path d="m 168.99,117.174 c -1.629,0 -2.949,-1.32 -2.949,-2.949 0,-1.629 1.32,-2.949 2.949,-2.949 1.628,0 2.949,1.32 2.949,2.949 0,1.629 -1.321,2.949 -2.949,2.949 z" />
    <path d="m 157.194,117.174 c -1.628,0 -2.948,-1.32 -2.948,-2.949 0,-1.629 1.32,-2.949 2.948,-2.949 1.629,0 2.949,1.32 2.949,2.949 0,1.629 -1.32,2.949 -2.949,2.949 z" />
    <path d="m 145.399,117.174 c -1.629,0 -2.949,-1.32 -2.949,-2.949 0,-1.629 1.32,-2.949 2.949,-2.949 1.629,0 2.949,1.32 2.949,2.949 0,1.629 -1.32,2.949 -2.949,2.949 z" />
    <path d="m 133.604,117.174 c -1.629,0 -2.949,-1.32 -2.949,-2.949 0,-1.629 1.32,-2.949 2.949,-2.949 1.628,0 2.948,1.32 2.948,2.949 0,1.629 -1.32,2.949 -2.948,2.949 z" />
    <path d="m 121.808,117.174 c -1.628,0 -2.949,-1.32 -2.949,-2.949 0,-1.629 1.321,-2.949 2.949,-2.949 1.629,0 2.949,1.32 2.949,2.949 0,1.629 -1.32,2.949 -2.949,2.949 z" />
    <path d="m 110.013,117.174 c -1.629,0 -2.949,-1.32 -2.949,-2.949 0,-1.629 1.32,-2.949 2.949,-2.949 1.628,0 2.949,1.32 2.949,2.949 0,1.629 -1.321,2.949 -2.949,2.949 z" />
    <path d="m 98.2175,117.174 c -1.6286,0 -2.9489,-1.32 -2.9489,-2.949 0,-1.629 1.3203,-2.949 2.9489,-2.949 1.6286,0 2.9485,1.32 2.9485,2.949 0,1.629 -1.3199,2.949 -2.9485,2.949 z" />
    <path d="m 86.4221,117.174 c -1.6286,0 -2.9488,-1.32 -2.9488,-2.949 0,-1.629 1.3202,-2.949 2.9488,-2.949 1.6286,0 2.9488,1.32 2.9488,2.949 0,1.629 -1.3202,2.949 -2.9488,2.949 z" />
    <path d="m 74.6267,117.174 c -1.6286,0 -2.9488,-1.32 -2.9488,-2.949 0,-1.629 1.3202,-2.949 2.9488,-2.949 1.6286,0 2.9489,1.32 2.9489,2.949 0,1.629 -1.3203,2.949 -2.9489,2.949 z" />
    <path d="m 62.8313,117.174 c -1.6286,0 -2.9488,-1.32 -2.9488,-2.949 0,-1.629 1.3202,-2.949 2.9488,-2.949 1.6286,0 2.9489,1.32 2.9489,2.949 0,1.629 -1.3203,2.949 -2.9489,2.949 z" />
    <path d="m 51.0359,117.174 c -1.6286,0 -2.9488,-1.32 -2.9488,-2.949 0,-1.629 1.3202,-2.949 2.9488,-2.949 1.6286,0 2.9489,1.32 2.9489,2.949 0,1.629 -1.3203,2.949 -2.9489,2.949 z" />
    <path d="m 39.2406,117.174 c -1.6286,0 -2.9489,-1.32 -2.9489,-2.949 0,-1.629 1.3203,-2.949 2.9489,-2.949 1.6286,0 2.9488,1.32 2.9488,2.949 0,1.629 -1.3202,2.949 -2.9488,2.949 z" />
    <path d="m 27.4452,117.174 c -1.6286,0 -2.9489,-1.32 -2.9489,-2.949 0,-1.629 1.3203,-2.949 2.9489,-2.949 1.6286,0 2.9488,1.32 2.9488,2.949 0,1.629 -1.3202,2.949 -2.9488,2.949 z" />
    <path d="m 15.6498,117.174 c -1.6286,0 -2.9489,-1.32 -2.9489,-2.949 0,-1.629 1.3203,-2.949 2.9489,-2.949 1.6286,0 2.9488,1.32 2.9488,2.949 0,1.629 -1.3202,2.949 -2.9488,2.949 z" />
    <path d="m 3.85441,117.174 c -1.6286,0 -2.948847,-1.32 -2.948848,-2.949 0,-1.629 1.320248,-2.949 2.948848,-2.949 1.6286,0 2.94884,1.32 2.94884,2.949 0,1.629 -1.32024,2.949 -2.94884,2.949 z" />
    <path d="m 239.762,128.969 c -1.629,0 -2.949,-1.32 -2.949,-2.949 0,-1.628 1.32,-2.949 2.949,-2.949 1.629,0 2.949,1.321 2.949,2.949 0,1.629 -1.32,2.949 -2.949,2.949 z" />
    <path d="m 227.967,128.969 c -1.629,0 -2.949,-1.32 -2.949,-2.949 0,-1.628 1.32,-2.949 2.949,-2.949 1.628,0 2.949,1.321 2.949,2.949 0,1.629 -1.321,2.949 -2.949,2.949 z" />
    <path d="m 216.171,128.969 c -1.628,0 -2.949,-1.32 -2.949,-2.949 0,-1.628 1.321,-2.949 2.949,-2.949 1.629,0 2.949,1.321 2.949,2.949 0,1.629 -1.32,2.949 -2.949,2.949 z" />
    <path d="m 204.376,128.969 c -1.629,0 -2.949,-1.32 -2.949,-2.949 0,-1.628 1.32,-2.949 2.949,-2.949 1.629,0 2.949,1.321 2.949,2.949 0,1.629 -1.32,2.949 -2.949,2.949 z" />
    <path d="m 192.581,128.969 c -1.629,0 -2.949,-1.32 -2.949,-2.949 0,-1.628 1.32,-2.949 2.949,-2.949 1.628,0 2.948,1.321 2.948,2.949 0,1.629 -1.32,2.949 -2.948,2.949 z" />
    <path d="m 180.785,128.969 c -1.628,0 -2.949,-1.32 -2.949,-2.949 0,-1.628 1.321,-2.949 2.949,-2.949 1.629,0 2.949,1.321 2.949,2.949 0,1.629 -1.32,2.949 -2.949,2.949 z" />
    <path d="m 168.99,128.969 c -1.629,0 -2.949,-1.32 -2.949,-2.949 0,-1.628 1.32,-2.949 2.949,-2.949 1.628,0 2.949,1.321 2.949,2.949 0,1.629 -1.321,2.949 -2.949,2.949 z" />
    <path d="m 157.194,128.969 c -1.628,0 -2.948,-1.32 -2.948,-2.949 0,-1.628 1.32,-2.949 2.948,-2.949 1.629,0 2.949,1.321 2.949,2.949 0,1.629 -1.32,2.949 -2.949,2.949 z" />
    <path d="m 145.399,128.969 c -1.629,0 -2.949,-1.32 -2.949,-2.949 0,-1.628 1.32,-2.949 2.949,-2.949 1.629,0 2.949,1.321 2.949,2.949 0,1.629 -1.32,2.949 -2.949,2.949 z" />
    <path d="m 133.604,128.969 c -1.629,0 -2.949,-1.32 -2.949,-2.949 0,-1.628 1.32,-2.949 2.949,-2.949 1.628,0 2.948,1.321 2.948,2.949 0,1.629 -1.32,2.949 -2.948,2.949 z" />
    <path d="m 121.808,128.969 c -1.628,0 -2.949,-1.32 -2.949,-2.949 0,-1.628 1.321,-2.949 2.949,-2.949 1.629,0 2.949,1.321 2.949,2.949 0,1.629 -1.32,2.949 -2.949,2.949 z" />
    <path d="m 110.013,128.969 c -1.629,0 -2.949,-1.32 -2.949,-2.949 0,-1.628 1.32,-2.949 2.949,-2.949 1.628,0 2.949,1.321 2.949,2.949 0,1.629 -1.321,2.949 -2.949,2.949 z" />
    <path d="m 98.2175,128.969 c -1.6286,0 -2.9489,-1.32 -2.9489,-2.949 0,-1.628 1.3203,-2.949 2.9489,-2.949 1.6286,0 2.9485,1.321 2.9485,2.949 0,1.629 -1.3199,2.949 -2.9485,2.949 z" />
    <path d="m 86.4221,128.969 c -1.6286,0 -2.9488,-1.32 -2.9488,-2.949 0,-1.628 1.3202,-2.949 2.9488,-2.949 1.6286,0 2.9488,1.321 2.9488,2.949 0,1.629 -1.3202,2.949 -2.9488,2.949 z" />
    <path d="m 74.6267,128.969 c -1.6286,0 -2.9488,-1.32 -2.9488,-2.949 0,-1.628 1.3202,-2.949 2.9488,-2.949 1.6286,0 2.9489,1.321 2.9489,2.949 0,1.629 -1.3203,2.949 -2.9489,2.949 z" />
    <path d="m 62.8313,128.969 c -1.6286,0 -2.9488,-1.32 -2.9488,-2.949 0,-1.628 1.3202,-2.949 2.9488,-2.949 1.6286,0 2.9489,1.321 2.9489,2.949 0,1.629 -1.3203,2.949 -2.9489,2.949 z" />
    <path d="m 51.0359,128.969 c -1.6286,0 -2.9488,-1.32 -2.9488,-2.949 0,-1.628 1.3202,-2.949 2.9488,-2.949 1.6286,0 2.9489,1.321 2.9489,2.949 0,1.629 -1.3203,2.949 -2.9489,2.949 z" />
    <path d="m 39.2406,128.969 c -1.6286,0 -2.9489,-1.32 -2.9489,-2.949 0,-1.628 1.3203,-2.949 2.9489,-2.949 1.6286,0 2.9488,1.321 2.9488,2.949 0,1.629 -1.3202,2.949 -2.9488,2.949 z" />
    <path d="m 27.4452,128.969 c -1.6286,0 -2.9489,-1.32 -2.9489,-2.949 0,-1.628 1.3203,-2.949 2.9489,-2.949 1.6286,0 2.9488,1.321 2.9488,2.949 0,1.629 -1.3202,2.949 -2.9488,2.949 z" />
    <path d="m 15.6498,128.969 c -1.6286,0 -2.9489,-1.32 -2.9489,-2.949 0,-1.628 1.3203,-2.949 2.9489,-2.949 1.6286,0 2.9488,1.321 2.9488,2.949 0,1.629 -1.3202,2.949 -2.9488,2.949 z" />
    <path d="m 3.85441,128.969 c -1.6286,0 -2.948847,-1.32 -2.948847,-2.949 0,-1.628 1.320247,-2.949 2.948847,-2.949 1.6286,0 2.94885,1.321 2.94885,2.949 0,1.629 -1.32025,2.949 -2.94885,2.949 z" />
    <path d="m 239.762,140.765 c -1.629,0 -2.949,-1.321 -2.949,-2.949 0,-1.629 1.32,-2.949 2.949,-2.949 1.629,0 2.949,1.32 2.949,2.949 0,1.628 -1.32,2.949 -2.949,2.949 z" />
    <path d="m 227.967,140.765 c -1.629,0 -2.949,-1.321 -2.949,-2.949 0,-1.629 1.32,-2.949 2.949,-2.949 1.628,0 2.949,1.32 2.949,2.949 0,1.628 -1.321,2.949 -2.949,2.949 z" />
    <path d="m 216.171,140.765 c -1.628,0 -2.949,-1.321 -2.949,-2.949 0,-1.629 1.321,-2.949 2.949,-2.949 1.629,0 2.949,1.32 2.949,2.949 0,1.628 -1.32,2.949 -2.949,2.949 z" />
    <path d="m 204.376,140.765 c -1.629,0 -2.949,-1.321 -2.949,-2.949 0,-1.629 1.32,-2.949 2.949,-2.949 1.629,0 2.949,1.32 2.949,2.949 0,1.628 -1.32,2.949 -2.949,2.949 z" />
    <path d="m 192.581,140.765 c -1.629,0 -2.949,-1.321 -2.949,-2.949 0,-1.629 1.32,-2.949 2.949,-2.949 1.628,0 2.948,1.32 2.948,2.949 0,1.628 -1.32,2.949 -2.948,2.949 z" />
    <path d="m 180.785,140.765 c -1.628,0 -2.949,-1.321 -2.949,-2.949 0,-1.629 1.321,-2.949 2.949,-2.949 1.629,0 2.949,1.32 2.949,2.949 0,1.628 -1.32,2.949 -2.949,2.949 z" />
    <path d="m 168.99,140.765 c -1.629,0 -2.949,-1.321 -2.949,-2.949 0,-1.629 1.32,-2.949 2.949,-2.949 1.628,0 2.949,1.32 2.949,2.949 0,1.628 -1.321,2.949 -2.949,2.949 z" />
    <path d="m 157.194,140.765 c -1.628,0 -2.948,-1.321 -2.948,-2.949 0,-1.629 1.32,-2.949 2.948,-2.949 1.629,0 2.949,1.32 2.949,2.949 0,1.628 -1.32,2.949 -2.949,2.949 z" />
    <path d="m 145.399,140.765 c -1.629,0 -2.949,-1.321 -2.949,-2.949 0,-1.629 1.32,-2.949 2.949,-2.949 1.629,0 2.949,1.32 2.949,2.949 0,1.628 -1.32,2.949 -2.949,2.949 z" />
    <path d="m 133.604,140.765 c -1.629,0 -2.949,-1.321 -2.949,-2.949 0,-1.629 1.32,-2.949 2.949,-2.949 1.628,0 2.948,1.32 2.948,2.949 0,1.628 -1.32,2.949 -2.948,2.949 z" />
    <path d="m 121.808,140.765 c -1.628,0 -2.949,-1.321 -2.949,-2.949 0,-1.629 1.321,-2.949 2.949,-2.949 1.629,0 2.949,1.32 2.949,2.949 0,1.628 -1.32,2.949 -2.949,2.949 z" />
    <path d="m 110.013,140.765 c -1.629,0 -2.949,-1.321 -2.949,-2.949 0,-1.629 1.32,-2.949 2.949,-2.949 1.628,0 2.949,1.32 2.949,2.949 0,1.628 -1.321,2.949 -2.949,2.949 z" />
    <path d="m 98.2175,140.765 c -1.6286,0 -2.9489,-1.321 -2.9489,-2.949 0,-1.629 1.3203,-2.949 2.9489,-2.949 1.6286,0 2.9485,1.32 2.9485,2.949 0,1.628 -1.3199,2.949 -2.9485,2.949 z" />
    <path d="m 86.4221,140.765 c -1.6286,0 -2.9488,-1.321 -2.9488,-2.949 0,-1.629 1.3202,-2.949 2.9488,-2.949 1.6286,0 2.9488,1.32 2.9488,2.949 0,1.628 -1.3202,2.949 -2.9488,2.949 z" />
    <path d="m 74.6267,140.765 c -1.6286,0 -2.9488,-1.321 -2.9488,-2.949 0,-1.629 1.3202,-2.949 2.9488,-2.949 1.6286,0 2.9489,1.32 2.9489,2.949 0,1.628 -1.3203,2.949 -2.9489,2.949 z" />
    <path d="m 62.8313,140.765 c -1.6286,0 -2.9488,-1.321 -2.9488,-2.949 0,-1.629 1.3202,-2.949 2.9488,-2.949 1.6286,0 2.9489,1.32 2.9489,2.949 0,1.628 -1.3203,2.949 -2.9489,2.949 z" />
    <path d="m 51.0359,140.765 c -1.6286,0 -2.9488,-1.321 -2.9488,-2.949 0,-1.629 1.3202,-2.949 2.9488,-2.949 1.6286,0 2.9489,1.32 2.9489,2.949 0,1.628 -1.3202,2.949 -2.9489,2.949 z" />
    <path d="m 39.2406,140.765 c -1.6286,0 -2.9489,-1.321 -2.9489,-2.949 0,-1.629 1.3203,-2.949 2.9489,-2.949 1.6286,0 2.9488,1.32 2.9488,2.949 0,1.628 -1.3202,2.949 -2.9488,2.949 z" />
    <path d="m 27.4452,140.765 c -1.6286,0 -2.9489,-1.321 -2.9489,-2.949 0,-1.629 1.3203,-2.949 2.9489,-2.949 1.6286,0 2.9488,1.32 2.9488,2.949 0,1.628 -1.3202,2.949 -2.9488,2.949 z" />
    <path d="m 15.6498,140.765 c -1.6286,0 -2.9489,-1.321 -2.9489,-2.949 0,-1.629 1.3203,-2.949 2.9489,-2.949 1.6286,0 2.9488,1.32 2.9488,2.949 0,1.628 -1.3202,2.949 -2.9488,2.949 z" />
    <path d="m 3.85441,140.765 c -1.6286,0 -2.948846,-1.321 -2.948847,-2.949 0,-1.629 1.320247,-2.949 2.948847,-2.949 1.6286,0 2.94885,1.32 2.94885,2.949 0,1.628 -1.32025,2.949 -2.94885,2.949 z" />
    <path d="m 239.762,152.56 c -1.629,0 -2.949,-1.32 -2.949,-2.949 0,-1.629 1.32,-2.949 2.949,-2.949 1.629,0 2.949,1.32 2.949,2.949 0,1.629 -1.32,2.949 -2.949,2.949 z" />
    <path d="m 227.967,152.56 c -1.629,0 -2.949,-1.32 -2.949,-2.949 0,-1.629 1.32,-2.949 2.949,-2.949 1.628,0 2.949,1.32 2.949,2.949 0,1.629 -1.321,2.949 -2.949,2.949 z" />
    <path d="m 216.171,152.56 c -1.628,0 -2.949,-1.32 -2.949,-2.949 0,-1.629 1.321,-2.949 2.949,-2.949 1.629,0 2.949,1.32 2.949,2.949 0,1.629 -1.32,2.949 -2.949,2.949 z" />
    <path d="m 204.376,152.56 c -1.629,0 -2.949,-1.32 -2.949,-2.949 0,-1.629 1.32,-2.949 2.949,-2.949 1.629,0 2.949,1.32 2.949,2.949 0,1.629 -1.32,2.949 -2.949,2.949 z" />
    <path d="m 192.581,152.56 c -1.629,0 -2.949,-1.32 -2.949,-2.949 0,-1.629 1.32,-2.949 2.949,-2.949 1.628,0 2.948,1.32 2.948,2.949 0,1.629 -1.32,2.949 -2.948,2.949 z" />
    <path d="m 180.785,152.56 c -1.628,0 -2.949,-1.32 -2.949,-2.949 0,-1.629 1.321,-2.949 2.949,-2.949 1.629,0 2.949,1.32 2.949,2.949 0,1.629 -1.32,2.949 -2.949,2.949 z" />
    <path d="m 168.99,152.56 c -1.629,0 -2.949,-1.32 -2.949,-2.949 0,-1.629 1.32,-2.949 2.949,-2.949 1.628,0 2.949,1.32 2.949,2.949 0,1.629 -1.321,2.949 -2.949,2.949 z" />
    <path d="m 157.194,152.56 c -1.628,0 -2.948,-1.32 -2.948,-2.949 0,-1.629 1.32,-2.949 2.948,-2.949 1.629,0 2.949,1.32 2.949,2.949 0,1.629 -1.32,2.949 -2.949,2.949 z" />
    <path d="m 145.399,152.56 c -1.629,0 -2.949,-1.32 -2.949,-2.949 0,-1.629 1.32,-2.949 2.949,-2.949 1.629,0 2.949,1.32 2.949,2.949 0,1.629 -1.32,2.949 -2.949,2.949 z" />
    <path d="m 133.604,152.56 c -1.629,0 -2.949,-1.32 -2.949,-2.949 0,-1.629 1.32,-2.949 2.949,-2.949 1.628,0 2.948,1.32 2.948,2.949 0,1.629 -1.32,2.949 -2.948,2.949 z" />
    <path d="m 121.808,152.56 c -1.628,0 -2.949,-1.32 -2.949,-2.949 0,-1.629 1.321,-2.949 2.949,-2.949 1.629,0 2.949,1.32 2.949,2.949 0,1.629 -1.32,2.949 -2.949,2.949 z" />
    <path d="m 110.013,152.56 c -1.629,0 -2.949,-1.32 -2.949,-2.949 0,-1.629 1.32,-2.949 2.949,-2.949 1.628,0 2.949,1.32 2.949,2.949 0,1.629 -1.321,2.949 -2.949,2.949 z" />
    <path d="m 98.2175,152.56 c -1.6286,0 -2.9489,-1.32 -2.9489,-2.949 0,-1.628 1.3203,-2.949 2.9489,-2.949 1.6286,0 2.9485,1.32 2.9485,2.949 0,1.629 -1.3199,2.949 -2.9485,2.949 z" />
    <path d="m 86.4221,152.56 c -1.6286,0 -2.9488,-1.32 -2.9488,-2.949 0,-1.628 1.3202,-2.949 2.9488,-2.949 1.6286,0 2.9488,1.321 2.9488,2.949 0,1.629 -1.3202,2.949 -2.9488,2.949 z" />
    <path d="m 74.6267,152.56 c -1.6286,0 -2.9488,-1.32 -2.9488,-2.949 0,-1.628 1.3202,-2.949 2.9488,-2.949 1.6286,0 2.9489,1.321 2.9489,2.949 0,1.629 -1.3203,2.949 -2.9489,2.949 z" />
    <path d="m 62.8313,152.56 c -1.6286,0 -2.9488,-1.32 -2.9488,-2.949 0,-1.628 1.3202,-2.949 2.9488,-2.949 1.6286,0 2.9489,1.321 2.9489,2.949 0,1.629 -1.3203,2.949 -2.9489,2.949 z" />
    <path d="m 51.0359,152.56 c -1.6286,0 -2.9488,-1.32 -2.9488,-2.949 0,-1.628 1.3202,-2.949 2.9488,-2.949 1.6287,0 2.9489,1.321 2.9489,2.949 0,1.629 -1.3202,2.949 -2.9489,2.949 z" />
    <path d="m 39.2406,152.56 c -1.6286,0 -2.9489,-1.32 -2.9489,-2.949 0,-1.628 1.3203,-2.949 2.9489,-2.949 1.6286,0 2.9488,1.321 2.9488,2.949 0,1.629 -1.3202,2.949 -2.9488,2.949 z" />
    <path d="m 27.4452,152.56 c -1.6286,0 -2.9489,-1.32 -2.9489,-2.949 0,-1.628 1.3203,-2.949 2.9489,-2.949 1.6286,0 2.9488,1.321 2.9488,2.949 0,1.629 -1.3202,2.949 -2.9488,2.949 z" />
    <path d="m 15.6498,152.56 c -1.6286,0 -2.9489,-1.32 -2.9489,-2.949 0,-1.628 1.3203,-2.949 2.9489,-2.949 1.6286,0 2.9488,1.321 2.9488,2.949 0,1.629 -1.3202,2.949 -2.9488,2.949 z" />
    <path d="m 3.85441,152.56 c -1.6286,0 -2.948846,-1.32 -2.948846,-2.949 0,-1.628 1.320246,-2.949 2.948846,-2.949 1.6286,0 2.94885,1.321 2.94885,2.949 0,1.629 -1.32025,2.949 -2.94885,2.949 z" />
    <path d="m 239.762,164.355 c -1.629,0 -2.949,-1.32 -2.949,-2.949 0,-1.628 1.32,-2.948 2.949,-2.948 1.629,0 2.949,1.32 2.949,2.948 0,1.629 -1.32,2.949 -2.949,2.949 z" />
    <path d="m 227.967,164.355 c -1.629,0 -2.949,-1.32 -2.949,-2.949 0,-1.628 1.32,-2.948 2.949,-2.948 1.628,0 2.949,1.32 2.949,2.948 0,1.629 -1.321,2.949 -2.949,2.949 z" />
    <path d="m 216.171,164.355 c -1.628,0 -2.949,-1.32 -2.949,-2.949 0,-1.628 1.321,-2.948 2.949,-2.948 1.629,0 2.949,1.32 2.949,2.948 0,1.629 -1.32,2.949 -2.949,2.949 z" />
    <path d="m 204.376,164.355 c -1.629,0 -2.949,-1.32 -2.949,-2.949 0,-1.628 1.32,-2.948 2.949,-2.948 1.629,0 2.949,1.32 2.949,2.948 0,1.629 -1.32,2.949 -2.949,2.949 z" />
    <path d="m 192.581,164.355 c -1.629,0 -2.949,-1.32 -2.949,-2.949 0,-1.628 1.32,-2.948 2.949,-2.948 1.628,0 2.948,1.32 2.948,2.948 0,1.629 -1.32,2.949 -2.948,2.949 z" />
    <path d="m 180.785,164.355 c -1.628,0 -2.949,-1.32 -2.949,-2.949 0,-1.628 1.321,-2.948 2.949,-2.948 1.629,0 2.949,1.32 2.949,2.948 0,1.629 -1.32,2.949 -2.949,2.949 z" />
    <path d="m 168.99,164.355 c -1.629,0 -2.949,-1.32 -2.949,-2.949 0,-1.628 1.32,-2.948 2.949,-2.948 1.628,0 2.949,1.32 2.949,2.948 0,1.629 -1.321,2.949 -2.949,2.949 z" />
    <path d="m 157.194,164.355 c -1.628,0 -2.948,-1.32 -2.948,-2.949 0,-1.628 1.32,-2.948 2.948,-2.948 1.629,0 2.949,1.32 2.949,2.948 0,1.629 -1.32,2.949 -2.949,2.949 z" />
    <path d="m 145.399,164.355 c -1.629,0 -2.949,-1.32 -2.949,-2.949 0,-1.628 1.32,-2.948 2.949,-2.948 1.629,0 2.949,1.32 2.949,2.948 0,1.629 -1.32,2.949 -2.949,2.949 z" />
    <path d="m 133.604,164.355 c -1.629,0 -2.949,-1.32 -2.949,-2.949 0,-1.628 1.32,-2.948 2.949,-2.948 1.628,0 2.948,1.32 2.948,2.948 0,1.629 -1.32,2.949 -2.948,2.949 z" />
    <path d="m 121.808,164.355 c -1.628,0 -2.949,-1.32 -2.949,-2.949 0,-1.628 1.321,-2.948 2.949,-2.948 1.629,0 2.949,1.32 2.949,2.948 0,1.629 -1.32,2.949 -2.949,2.949 z" />
    <path d="m 110.013,164.355 c -1.629,0 -2.949,-1.32 -2.949,-2.949 0,-1.628 1.32,-2.948 2.949,-2.948 1.628,0 2.949,1.32 2.949,2.948 0,1.629 -1.321,2.949 -2.949,2.949 z" />
    <path d="m 98.2175,164.355 c -1.6286,0 -2.9489,-1.32 -2.9489,-2.949 0,-1.628 1.3203,-2.948 2.9489,-2.948 1.6286,0 2.9485,1.32 2.9485,2.948 0,1.629 -1.3199,2.949 -2.9485,2.949 z" />
    <path d="m 86.4221,164.355 c -1.6286,0 -2.9488,-1.32 -2.9488,-2.949 0,-1.628 1.3202,-2.948 2.9488,-2.948 1.6286,0 2.9488,1.32 2.9488,2.948 0,1.629 -1.3202,2.949 -2.9488,2.949 z" />
    <path d="m 74.6267,164.355 c -1.6286,0 -2.9488,-1.32 -2.9488,-2.949 0,-1.628 1.3202,-2.948 2.9488,-2.948 1.6286,0 2.9489,1.32 2.9489,2.948 0,1.629 -1.3203,2.949 -2.9489,2.949 z" />
    <path d="m 62.8313,164.355 c -1.6286,0 -2.9488,-1.32 -2.9488,-2.949 0,-1.628 1.3202,-2.948 2.9488,-2.948 1.6286,0 2.9489,1.32 2.9489,2.948 0,1.629 -1.3203,2.949 -2.9489,2.949 z" />
    <path d="m 51.0359,164.355 c -1.6286,0 -2.9488,-1.32 -2.9488,-2.949 0,-1.628 1.3202,-2.948 2.9488,-2.948 1.6287,0 2.9489,1.32 2.9489,2.948 0,1.629 -1.3202,2.949 -2.9489,2.949 z" />
    <path d="m 39.2406,164.355 c -1.6286,0 -2.9489,-1.32 -2.9489,-2.949 0,-1.628 1.3203,-2.948 2.9489,-2.948 1.6286,0 2.9488,1.32 2.9488,2.948 0,1.629 -1.3202,2.949 -2.9488,2.949 z" />
    <path d="m 27.4452,164.355 c -1.6286,0 -2.9489,-1.32 -2.9489,-2.949 0,-1.628 1.3203,-2.948 2.9489,-2.948 1.6286,0 2.9488,1.32 2.9488,2.948 0,1.629 -1.3202,2.949 -2.9488,2.949 z" />
    <path d="m 15.6498,164.355 c -1.6286,0 -2.9489,-1.32 -2.9489,-2.949 0,-1.628 1.3203,-2.948 2.9489,-2.948 1.6286,0 2.9488,1.32 2.9488,2.948 0,1.629 -1.3202,2.949 -2.9488,2.949 z" />
    <path d="m 3.85441,164.355 c -1.6286,0 -2.948845,-1.32 -2.948845,-2.949 -10e-7,-1.628 1.320245,-2.948 2.948845,-2.948 1.6286,0 2.94885,1.32 2.94885,2.948 0,1.629 -1.32025,2.949 -2.94885,2.949 z" />
    <path d="m 239.762,176.151 c -1.629,0 -2.949,-1.321 -2.949,-2.949 0,-1.629 1.32,-2.949 2.949,-2.949 1.629,0 2.949,1.32 2.949,2.949 0,1.628 -1.32,2.949 -2.949,2.949 z" />
    <path d="m 227.967,176.151 c -1.629,0 -2.949,-1.321 -2.949,-2.949 0,-1.629 1.32,-2.949 2.949,-2.949 1.628,0 2.949,1.32 2.949,2.949 0,1.628 -1.321,2.949 -2.949,2.949 z" />
    <path d="m 216.171,176.151 c -1.628,0 -2.949,-1.321 -2.949,-2.949 0,-1.629 1.321,-2.949 2.949,-2.949 1.629,0 2.949,1.32 2.949,2.949 0,1.628 -1.32,2.949 -2.949,2.949 z" />
    <path d="m 204.376,176.151 c -1.629,0 -2.949,-1.321 -2.949,-2.949 0,-1.629 1.32,-2.949 2.949,-2.949 1.629,0 2.949,1.32 2.949,2.949 0,1.628 -1.32,2.949 -2.949,2.949 z" />
    <path d="m 192.581,176.151 c -1.629,0 -2.949,-1.321 -2.949,-2.949 0,-1.629 1.32,-2.949 2.949,-2.949 1.628,0 2.948,1.32 2.948,2.949 0,1.628 -1.32,2.949 -2.948,2.949 z" />
    <path d="m 180.785,176.151 c -1.628,0 -2.949,-1.321 -2.949,-2.949 0,-1.629 1.321,-2.949 2.949,-2.949 1.629,0 2.949,1.32 2.949,2.949 0,1.628 -1.32,2.949 -2.949,2.949 z" />
    <path d="m 168.99,176.151 c -1.629,0 -2.949,-1.321 -2.949,-2.949 0,-1.629 1.32,-2.949 2.949,-2.949 1.628,0 2.949,1.32 2.949,2.949 0,1.628 -1.321,2.949 -2.949,2.949 z" />
    <path d="m 157.194,176.151 c -1.628,0 -2.948,-1.321 -2.948,-2.949 0,-1.629 1.32,-2.949 2.948,-2.949 1.629,0 2.949,1.32 2.949,2.949 0,1.628 -1.32,2.949 -2.949,2.949 z" />
    <path d="m 145.399,176.151 c -1.629,0 -2.949,-1.321 -2.949,-2.949 0,-1.629 1.32,-2.949 2.949,-2.949 1.629,0 2.949,1.32 2.949,2.949 0,1.628 -1.32,2.949 -2.949,2.949 z" />
    <path d="m 133.604,176.151 c -1.629,0 -2.949,-1.321 -2.949,-2.949 0,-1.629 1.32,-2.949 2.949,-2.949 1.628,0 2.948,1.32 2.948,2.949 0,1.628 -1.32,2.949 -2.948,2.949 z" />
    <path d="m 121.808,176.151 c -1.628,0 -2.949,-1.321 -2.949,-2.949 0,-1.629 1.321,-2.949 2.949,-2.949 1.629,0 2.949,1.32 2.949,2.949 0,1.628 -1.32,2.949 -2.949,2.949 z" />
    <path d="m 110.013,176.151 c -1.629,0 -2.949,-1.321 -2.949,-2.949 0,-1.629 1.32,-2.949 2.949,-2.949 1.628,0 2.949,1.32 2.949,2.949 0,1.628 -1.321,2.949 -2.949,2.949 z" />
    <path d="m 98.2175,176.151 c -1.6286,0 -2.9489,-1.321 -2.9489,-2.949 0,-1.629 1.3203,-2.949 2.9489,-2.949 1.6286,0 2.9485,1.32 2.9485,2.949 0,1.628 -1.3199,2.949 -2.9485,2.949 z" />
    <path d="m 86.4221,176.151 c -1.6286,0 -2.9488,-1.321 -2.9488,-2.949 0,-1.629 1.3202,-2.949 2.9488,-2.949 1.6286,0 2.9488,1.32 2.9488,2.949 0,1.628 -1.3202,2.949 -2.9488,2.949 z" />
    <path d="m 74.6267,176.151 c -1.6286,0 -2.9488,-1.321 -2.9488,-2.949 0,-1.629 1.3202,-2.949 2.9488,-2.949 1.6286,0 2.9489,1.32 2.9489,2.949 0,1.628 -1.3203,2.949 -2.9489,2.949 z" />
    <path d="m 62.8313,176.151 c -1.6286,0 -2.9488,-1.321 -2.9488,-2.949 0,-1.629 1.3202,-2.949 2.9488,-2.949 1.6286,0 2.9489,1.32 2.9489,2.949 0,1.628 -1.3203,2.949 -2.9489,2.949 z" />
    <path d="m 51.0359,176.151 c -1.6286,0 -2.9488,-1.321 -2.9488,-2.949 0,-1.629 1.3202,-2.949 2.9488,-2.949 1.6287,0 2.9489,1.32 2.9489,2.949 0,1.628 -1.3202,2.949 -2.9489,2.949 z" />
    <path d="m 39.2406,176.151 c -1.6286,0 -2.9489,-1.321 -2.9489,-2.949 0,-1.629 1.3203,-2.949 2.9489,-2.949 1.6286,0 2.9488,1.32 2.9488,2.949 0,1.628 -1.3202,2.949 -2.9488,2.949 z" />
    <path d="m 27.4452,176.151 c -1.6286,0 -2.9489,-1.321 -2.9489,-2.949 0,-1.629 1.3203,-2.949 2.9489,-2.949 1.6286,0 2.9488,1.32 2.9488,2.949 0,1.628 -1.3202,2.949 -2.9488,2.949 z" />
    <path d="m 15.6498,176.151 c -1.6286,0 -2.9489,-1.321 -2.9489,-2.949 0,-1.629 1.3203,-2.949 2.9489,-2.949 1.6286,0 2.9488,1.32 2.9488,2.949 0,1.628 -1.3202,2.949 -2.9488,2.949 z" />
    <path d="m 3.85441,176.151 c -1.6286,0 -2.948845,-1.321 -2.948845,-2.949 0,-1.629 1.320245,-2.949 2.948845,-2.949 1.6286,0 2.94885,1.32 2.94885,2.949 0,1.628 -1.32025,2.949 -2.94885,2.949 z" />
    <path d="m 239.762,187.946 c -1.629,0 -2.949,-1.32 -2.949,-2.949 0,-1.628 1.32,-2.949 2.949,-2.949 1.629,0 2.949,1.321 2.949,2.949 0,1.629 -1.32,2.949 -2.949,2.949 z" />
    <path d="m 227.967,187.946 c -1.629,0 -2.949,-1.32 -2.949,-2.949 0,-1.628 1.32,-2.949 2.949,-2.949 1.628,0 2.949,1.321 2.949,2.949 0,1.629 -1.321,2.949 -2.949,2.949 z" />
    <path d="m 216.171,187.946 c -1.628,0 -2.949,-1.32 -2.949,-2.949 0,-1.628 1.321,-2.949 2.949,-2.949 1.629,0 2.949,1.321 2.949,2.949 0,1.629 -1.32,2.949 -2.949,2.949 z" />
    <path d="m 204.376,187.946 c -1.629,0 -2.949,-1.32 -2.949,-2.949 0,-1.628 1.32,-2.949 2.949,-2.949 1.629,0 2.949,1.321 2.949,2.949 0,1.629 -1.32,2.949 -2.949,2.949 z" />
    <path d="m 192.581,187.946 c -1.629,0 -2.949,-1.32 -2.949,-2.949 0,-1.628 1.32,-2.949 2.949,-2.949 1.628,0 2.948,1.321 2.948,2.949 0,1.629 -1.32,2.949 -2.948,2.949 z" />
    <path d="m 180.785,187.946 c -1.628,0 -2.949,-1.32 -2.949,-2.949 0,-1.628 1.321,-2.949 2.949,-2.949 1.629,0 2.949,1.321 2.949,2.949 0,1.629 -1.32,2.949 -2.949,2.949 z" />
    <path d="m 168.99,187.946 c -1.629,0 -2.949,-1.32 -2.949,-2.949 0,-1.628 1.32,-2.949 2.949,-2.949 1.628,0 2.949,1.321 2.949,2.949 0,1.629 -1.321,2.949 -2.949,2.949 z" />
    <path d="m 157.194,187.946 c -1.628,0 -2.948,-1.32 -2.948,-2.949 0,-1.628 1.32,-2.949 2.948,-2.949 1.629,0 2.949,1.321 2.949,2.949 0,1.629 -1.32,2.949 -2.949,2.949 z" />
    <path d="m 145.399,187.946 c -1.629,0 -2.949,-1.32 -2.949,-2.949 0,-1.628 1.32,-2.949 2.949,-2.949 1.629,0 2.949,1.321 2.949,2.949 0,1.629 -1.32,2.949 -2.949,2.949 z" />
    <path d="m 133.604,187.946 c -1.629,0 -2.949,-1.32 -2.949,-2.949 0,-1.628 1.32,-2.949 2.949,-2.949 1.628,0 2.948,1.321 2.948,2.949 0,1.629 -1.32,2.949 -2.948,2.949 z" />
    <path d="m 121.808,187.946 c -1.628,0 -2.949,-1.32 -2.949,-2.949 0,-1.628 1.321,-2.949 2.949,-2.949 1.629,0 2.949,1.321 2.949,2.949 0,1.629 -1.32,2.949 -2.949,2.949 z" />
    <path d="m 110.013,187.946 c -1.629,0 -2.949,-1.32 -2.949,-2.949 0,-1.628 1.32,-2.949 2.949,-2.949 1.628,0 2.949,1.321 2.949,2.949 0,1.629 -1.321,2.949 -2.949,2.949 z" />
    <path d="m 98.2175,187.946 c -1.6286,0 -2.9489,-1.32 -2.9489,-2.949 0,-1.628 1.3203,-2.949 2.9489,-2.949 1.6286,0 2.9485,1.321 2.9485,2.949 0,1.629 -1.3199,2.949 -2.9485,2.949 z" />
    <path d="m 86.4221,187.946 c -1.6286,0 -2.9488,-1.32 -2.9488,-2.949 0,-1.628 1.3202,-2.949 2.9488,-2.949 1.6286,0 2.9488,1.321 2.9488,2.949 0,1.629 -1.3202,2.949 -2.9488,2.949 z" />
    <path d="m 74.6267,187.946 c -1.6286,0 -2.9488,-1.32 -2.9488,-2.949 0,-1.628 1.3202,-2.949 2.9488,-2.949 1.6286,0 2.9489,1.321 2.9489,2.949 0,1.629 -1.3203,2.949 -2.9489,2.949 z" />
    <path d="m 62.8313,187.946 c -1.6286,0 -2.9488,-1.32 -2.9488,-2.949 0,-1.628 1.3202,-2.949 2.9488,-2.949 1.6286,0 2.9489,1.321 2.9489,2.949 0,1.629 -1.3203,2.949 -2.9489,2.949 z" />
    <path d="m 51.0359,187.946 c -1.6286,0 -2.9488,-1.32 -2.9488,-2.949 0,-1.628 1.3202,-2.949 2.9488,-2.949 1.6287,0 2.9489,1.321 2.9489,2.949 0,1.629 -1.3202,2.949 -2.9489,2.949 z" />
    <path d="m 39.2406,187.946 c -1.6286,0 -2.9489,-1.32 -2.9489,-2.949 0,-1.628 1.3203,-2.949 2.9489,-2.949 1.6286,0 2.9488,1.321 2.9488,2.949 0,1.629 -1.3202,2.949 -2.9488,2.949 z" />
    <path d="m 27.4452,187.946 c -1.6286,0 -2.9489,-1.32 -2.9489,-2.949 0,-1.628 1.3203,-2.949 2.9489,-2.949 1.6286,0 2.9488,1.321 2.9488,2.949 0,1.629 -1.3202,2.949 -2.9488,2.949 z" />
    <path d="m 15.6498,187.946 c -1.6286,0 -2.9488,-1.32 -2.9489,-2.949 0,-1.628 1.3203,-2.949 2.9489,-2.949 1.6286,0 2.9488,1.321 2.9488,2.949 0,1.629 -1.3202,2.949 -2.9488,2.949 z" />
    <path d="m 3.85441,187.946 c -1.6286,0 -2.948844,-1.32 -2.948844,-2.949 -1e-6,-1.628 1.320244,-2.949 2.948844,-2.949 1.6286,0 2.94885,1.321 2.94885,2.949 0,1.629 -1.32025,2.949 -2.94885,2.949 z" />
    <path d="m 239.762,199.741 c -1.629,0 -2.949,-1.32 -2.949,-2.948 0,-1.629 1.32,-2.949 2.949,-2.949 1.629,0 2.949,1.32 2.949,2.949 0,1.628 -1.32,2.948 -2.949,2.948 z" />
    <path d="m 227.967,199.741 c -1.629,0 -2.949,-1.32 -2.949,-2.948 0,-1.629 1.32,-2.949 2.949,-2.949 1.628,0 2.949,1.32 2.949,2.949 0,1.628 -1.321,2.948 -2.949,2.948 z" />
    <path d="m 216.171,199.741 c -1.628,0 -2.949,-1.32 -2.949,-2.948 0,-1.629 1.321,-2.949 2.949,-2.949 1.629,0 2.949,1.32 2.949,2.949 0,1.628 -1.32,2.948 -2.949,2.948 z" />
    <path d="m 204.376,199.741 c -1.629,0 -2.949,-1.32 -2.949,-2.948 0,-1.629 1.32,-2.949 2.949,-2.949 1.629,0 2.949,1.32 2.949,2.949 0,1.628 -1.32,2.948 -2.949,2.948 z" />
    <path d="m 192.581,199.741 c -1.629,0 -2.949,-1.32 -2.949,-2.948 0,-1.629 1.32,-2.949 2.949,-2.949 1.628,0 2.948,1.32 2.948,2.949 0,1.628 -1.32,2.948 -2.948,2.948 z" />
    <path d="m 180.785,199.741 c -1.628,0 -2.949,-1.32 -2.949,-2.948 0,-1.629 1.321,-2.949 2.949,-2.949 1.629,0 2.949,1.32 2.949,2.949 0,1.628 -1.32,2.948 -2.949,2.948 z" />
    <path d="m 168.99,199.741 c -1.629,0 -2.949,-1.32 -2.949,-2.948 0,-1.629 1.32,-2.949 2.949,-2.949 1.628,0 2.949,1.32 2.949,2.949 0,1.628 -1.321,2.948 -2.949,2.948 z" />
    <path d="m 157.194,199.741 c -1.628,0 -2.948,-1.32 -2.948,-2.948 0,-1.629 1.32,-2.949 2.948,-2.949 1.629,0 2.949,1.32 2.949,2.949 0,1.628 -1.32,2.948 -2.949,2.948 z" />
    <path d="m 145.399,199.741 c -1.629,0 -2.949,-1.32 -2.949,-2.948 0,-1.629 1.32,-2.949 2.949,-2.949 1.629,0 2.949,1.32 2.949,2.949 0,1.628 -1.32,2.948 -2.949,2.948 z" />
    <path d="m 133.604,199.741 c -1.629,0 -2.949,-1.32 -2.949,-2.948 0,-1.629 1.32,-2.949 2.949,-2.949 1.628,0 2.948,1.32 2.948,2.949 0,1.628 -1.32,2.948 -2.948,2.948 z" />
    <path d="m 121.808,199.741 c -1.628,0 -2.949,-1.32 -2.949,-2.948 0,-1.629 1.321,-2.949 2.949,-2.949 1.629,0 2.949,1.32 2.949,2.949 0,1.628 -1.32,2.948 -2.949,2.948 z" />
    <path d="m 110.013,199.741 c -1.629,0 -2.949,-1.32 -2.949,-2.948 0,-1.629 1.32,-2.949 2.949,-2.949 1.628,0 2.949,1.32 2.949,2.949 0,1.628 -1.321,2.948 -2.949,2.948 z" />
    <path d="m 98.2175,199.741 c -1.6286,0 -2.9489,-1.32 -2.9489,-2.948 0,-1.629 1.3203,-2.949 2.9489,-2.949 1.6286,0 2.9485,1.32 2.9485,2.949 0,1.628 -1.3199,2.948 -2.9485,2.948 z" />
    <path d="m 86.4221,199.741 c -1.6286,0 -2.9488,-1.32 -2.9488,-2.948 0,-1.629 1.3202,-2.949 2.9488,-2.949 1.6286,0 2.9488,1.32 2.9488,2.949 0,1.628 -1.3202,2.948 -2.9488,2.948 z" />
    <path d="m 74.6267,199.741 c -1.6286,0 -2.9488,-1.32 -2.9488,-2.948 0,-1.629 1.3202,-2.949 2.9488,-2.949 1.6286,0 2.9489,1.32 2.9489,2.949 0,1.628 -1.3203,2.948 -2.9489,2.948 z" />
    <path d="m 62.8313,199.741 c -1.6286,0 -2.9488,-1.32 -2.9488,-2.948 0,-1.629 1.3202,-2.949 2.9488,-2.949 1.6286,0 2.9489,1.32 2.9489,2.949 0,1.628 -1.3203,2.948 -2.9489,2.948 z" />
    <path d="m 51.0359,199.741 c -1.6286,0 -2.9488,-1.32 -2.9488,-2.948 0,-1.629 1.3202,-2.949 2.9488,-2.949 1.6287,0 2.9489,1.32 2.9489,2.949 0,1.628 -1.3202,2.948 -2.9489,2.948 z" />
    <path d="m 39.2406,199.741 c -1.6286,0 -2.9489,-1.32 -2.9489,-2.948 0,-1.629 1.3203,-2.949 2.9489,-2.949 1.6286,0 2.9488,1.32 2.9488,2.949 0,1.628 -1.3202,2.948 -2.9488,2.948 z" />
    <path d="m 27.4452,199.741 c -1.6286,0 -2.9489,-1.32 -2.9489,-2.948 0,-1.629 1.3203,-2.949 2.9489,-2.949 1.6286,0 2.9488,1.32 2.9488,2.949 0,1.628 -1.3202,2.948 -2.9488,2.948 z" />
    <path d="m 15.6498,199.741 c -1.6286,0 -2.9488,-1.32 -2.9488,-2.948 0,-1.629 1.3202,-2.949 2.9488,-2.949 1.6286,0 2.9488,1.32 2.9488,2.949 0,1.628 -1.3202,2.948 -2.9488,2.948 z" />
    <path d="m 3.85441,199.741 c -1.6286,0 -2.948844,-1.32 -2.948844,-2.948 0,-1.629 1.320244,-2.949 2.948844,-2.949 1.6286,0 2.94885,1.32 2.94885,2.949 0,1.628 -1.32024,2.948 -2.94885,2.948 z" />
    <path d="m 239.762,211.537 c -1.629,0 -2.949,-1.32 -2.949,-2.949 0,-1.629 1.32,-2.949 2.949,-2.949 1.629,0 2.949,1.32 2.949,2.949 0,1.629 -1.32,2.949 -2.949,2.949 z" />
    <path d="m 227.967,211.537 c -1.629,0 -2.949,-1.32 -2.949,-2.949 0,-1.629 1.32,-2.949 2.949,-2.949 1.628,0 2.949,1.32 2.949,2.949 0,1.629 -1.321,2.949 -2.949,2.949 z" />
    <path d="m 216.171,211.537 c -1.628,0 -2.949,-1.32 -2.949,-2.949 0,-1.629 1.321,-2.949 2.949,-2.949 1.629,0 2.949,1.32 2.949,2.949 0,1.629 -1.32,2.949 -2.949,2.949 z" />
    <path d="m 204.376,211.537 c -1.629,0 -2.949,-1.32 -2.949,-2.949 0,-1.629 1.32,-2.949 2.949,-2.949 1.629,0 2.949,1.32 2.949,2.949 0,1.629 -1.32,2.949 -2.949,2.949 z" />
    <path d="m 192.581,211.537 c -1.629,0 -2.949,-1.32 -2.949,-2.949 0,-1.629 1.32,-2.949 2.949,-2.949 1.628,0 2.948,1.32 2.948,2.949 0,1.629 -1.32,2.949 -2.948,2.949 z" />
    <path d="m 180.785,211.537 c -1.628,0 -2.949,-1.32 -2.949,-2.949 0,-1.629 1.321,-2.949 2.949,-2.949 1.629,0 2.949,1.32 2.949,2.949 0,1.629 -1.32,2.949 -2.949,2.949 z" />
    <path d="m 168.99,211.537 c -1.629,0 -2.949,-1.32 -2.949,-2.949 0,-1.629 1.32,-2.949 2.949,-2.949 1.628,0 2.949,1.32 2.949,2.949 0,1.629 -1.321,2.949 -2.949,2.949 z" />
    <path d="m 157.194,211.537 c -1.628,0 -2.948,-1.32 -2.948,-2.949 0,-1.629 1.32,-2.949 2.948,-2.949 1.629,0 2.949,1.32 2.949,2.949 0,1.629 -1.32,2.949 -2.949,2.949 z" />
    <path d="m 145.399,211.537 c -1.629,0 -2.949,-1.32 -2.949,-2.949 0,-1.629 1.32,-2.949 2.949,-2.949 1.629,0 2.949,1.32 2.949,2.949 0,1.629 -1.32,2.949 -2.949,2.949 z" />
    <path d="m 133.604,211.537 c -1.629,0 -2.949,-1.32 -2.949,-2.949 0,-1.629 1.32,-2.949 2.949,-2.949 1.628,0 2.948,1.32 2.948,2.949 0,1.629 -1.32,2.949 -2.948,2.949 z" />
    <path d="m 121.808,211.537 c -1.628,0 -2.949,-1.32 -2.949,-2.949 0,-1.629 1.321,-2.949 2.949,-2.949 1.629,0 2.949,1.32 2.949,2.949 0,1.629 -1.32,2.949 -2.949,2.949 z" />
    <path d="m 110.013,211.537 c -1.629,0 -2.949,-1.32 -2.949,-2.949 0,-1.629 1.32,-2.949 2.949,-2.949 1.628,0 2.949,1.32 2.949,2.949 0,1.629 -1.321,2.949 -2.949,2.949 z" />
    <path d="m 98.2175,211.537 c -1.6286,0 -2.9489,-1.32 -2.9489,-2.949 0,-1.629 1.3203,-2.949 2.9489,-2.949 1.6286,0 2.9485,1.32 2.9485,2.949 0,1.629 -1.3199,2.949 -2.9485,2.949 z" />
    <path d="m 86.4221,211.537 c -1.6286,0 -2.9488,-1.32 -2.9488,-2.949 0,-1.629 1.3202,-2.949 2.9488,-2.949 1.6286,0 2.9488,1.32 2.9488,2.949 0,1.629 -1.3202,2.949 -2.9488,2.949 z" />
    <path d="m 74.6267,211.537 c -1.6286,0 -2.9488,-1.32 -2.9488,-2.949 0,-1.629 1.3202,-2.949 2.9488,-2.949 1.6286,0 2.9489,1.32 2.9489,2.949 0,1.629 -1.3203,2.949 -2.9489,2.949 z" />
    <path d="m 62.8313,211.537 c -1.6286,0 -2.9488,-1.32 -2.9488,-2.949 0,-1.629 1.3202,-2.949 2.9488,-2.949 1.6286,0 2.9489,1.32 2.9489,2.949 0,1.629 -1.3203,2.949 -2.9489,2.949 z" />
    <path d="m 51.036,211.537 c -1.6287,0 -2.9489,-1.32 -2.9489,-2.949 0,-1.629 1.3202,-2.949 2.9489,-2.949 1.6286,0 2.9488,1.32 2.9488,2.949 0,1.629 -1.3202,2.949 -2.9488,2.949 z" />
    <path d="m 39.2406,211.537 c -1.6286,0 -2.9489,-1.32 -2.9489,-2.949 0,-1.629 1.3203,-2.949 2.9489,-2.949 1.6286,0 2.9488,1.32 2.9488,2.949 0,1.629 -1.3202,2.949 -2.9488,2.949 z" />
    <path d="m 27.4452,211.537 c -1.6286,0 -2.9489,-1.32 -2.9489,-2.949 0,-1.629 1.3203,-2.949 2.9489,-2.949 1.6286,0 2.9488,1.32 2.9488,2.949 0,1.629 -1.3202,2.949 -2.9488,2.949 z" />
    <path d="m 15.6498,211.537 c -1.6286,0 -2.9488,-1.32 -2.9488,-2.949 0,-1.629 1.3202,-2.949 2.9488,-2.949 1.6286,0 2.9488,1.32 2.9488,2.949 0,1.629 -1.3202,2.949 -2.9488,2.949 z" />
    <path d="m 3.85441,211.537 c -1.6286,0 -2.948843,-1.32 -2.948843,-2.949 -1e-6,-1.629 1.320243,-2.949 2.948843,-2.949 1.62861,0 2.94885,1.32 2.94885,2.949 0,1.629 -1.32024,2.949 -2.94885,2.949 z" />
    <path d="m 239.762,223.332 c -1.629,0 -2.949,-1.32 -2.949,-2.949 0,-1.628 1.32,-2.948 2.949,-2.948 1.629,0 2.949,1.32 2.949,2.948 0,1.629 -1.32,2.949 -2.949,2.949 z" />
    <path d="m 227.967,223.332 c -1.629,0 -2.949,-1.32 -2.949,-2.949 0,-1.628 1.32,-2.948 2.949,-2.948 1.628,0 2.949,1.32 2.949,2.948 0,1.629 -1.321,2.949 -2.949,2.949 z" />
    <path d="m 216.171,223.332 c -1.628,0 -2.949,-1.32 -2.949,-2.949 0,-1.628 1.321,-2.948 2.949,-2.948 1.629,0 2.949,1.32 2.949,2.948 0,1.629 -1.32,2.949 -2.949,2.949 z" />
    <path d="m 204.376,223.332 c -1.629,0 -2.949,-1.32 -2.949,-2.949 0,-1.628 1.32,-2.948 2.949,-2.948 1.629,0 2.949,1.32 2.949,2.948 0,1.629 -1.32,2.949 -2.949,2.949 z" />
    <path d="m 192.581,223.332 c -1.629,0 -2.949,-1.32 -2.949,-2.949 0,-1.628 1.32,-2.948 2.949,-2.948 1.628,0 2.948,1.32 2.948,2.948 0,1.629 -1.32,2.949 -2.948,2.949 z" />
    <path d="m 180.785,223.332 c -1.628,0 -2.949,-1.32 -2.949,-2.949 0,-1.628 1.321,-2.948 2.949,-2.948 1.629,0 2.949,1.32 2.949,2.948 0,1.629 -1.32,2.949 -2.949,2.949 z" />
    <path d="m 168.99,223.332 c -1.629,0 -2.949,-1.32 -2.949,-2.949 0,-1.628 1.32,-2.948 2.949,-2.948 1.628,0 2.949,1.32 2.949,2.948 0,1.629 -1.321,2.949 -2.949,2.949 z" />
    <path d="m 157.194,223.332 c -1.628,0 -2.948,-1.32 -2.948,-2.949 0,-1.628 1.32,-2.948 2.948,-2.948 1.629,0 2.949,1.32 2.949,2.948 0,1.629 -1.32,2.949 -2.949,2.949 z" />
    <path d="m 145.399,223.332 c -1.629,0 -2.949,-1.32 -2.949,-2.949 0,-1.628 1.32,-2.948 2.949,-2.948 1.629,0 2.949,1.32 2.949,2.948 0,1.629 -1.32,2.949 -2.949,2.949 z" />
    <path d="m 133.604,223.332 c -1.629,0 -2.949,-1.32 -2.949,-2.949 0,-1.628 1.32,-2.948 2.949,-2.948 1.628,0 2.948,1.32 2.948,2.948 0,1.629 -1.32,2.949 -2.948,2.949 z" />
    <path d="m 121.808,223.332 c -1.628,0 -2.949,-1.32 -2.949,-2.949 0,-1.628 1.321,-2.948 2.949,-2.948 1.629,0 2.949,1.32 2.949,2.948 0,1.629 -1.32,2.949 -2.949,2.949 z" />
    <path d="m 110.013,223.332 c -1.629,0 -2.949,-1.32 -2.949,-2.949 0,-1.628 1.32,-2.948 2.949,-2.948 1.628,0 2.949,1.32 2.949,2.948 0,1.629 -1.321,2.949 -2.949,2.949 z" />
    <path d="m 98.2175,223.332 c -1.6286,0 -2.9489,-1.32 -2.9489,-2.949 0,-1.628 1.3203,-2.948 2.9489,-2.948 1.6286,0 2.9485,1.32 2.9485,2.948 0,1.629 -1.3199,2.949 -2.9485,2.949 z" />
    <path d="m 86.4221,223.332 c -1.6286,0 -2.9488,-1.32 -2.9488,-2.949 0,-1.628 1.3202,-2.948 2.9488,-2.948 1.6286,0 2.9489,1.32 2.9489,2.948 0,1.629 -1.3203,2.949 -2.9489,2.949 z" />
    <path d="m 74.6267,223.332 c -1.6286,0 -2.9488,-1.32 -2.9488,-2.949 0,-1.628 1.3202,-2.948 2.9488,-2.948 1.6286,0 2.9489,1.32 2.9489,2.948 0,1.629 -1.3203,2.949 -2.9489,2.949 z" />
    <path d="m 62.8313,223.332 c -1.6286,0 -2.9488,-1.32 -2.9488,-2.949 0,-1.628 1.3202,-2.948 2.9488,-2.948 1.6286,0 2.9489,1.32 2.9489,2.948 0,1.629 -1.3203,2.949 -2.9489,2.949 z" />
    <path d="m 51.036,223.332 c -1.6287,0 -2.9489,-1.32 -2.9489,-2.949 0,-1.628 1.3202,-2.948 2.9489,-2.948 1.6286,0 2.9488,1.32 2.9488,2.948 0,1.629 -1.3202,2.949 -2.9488,2.949 z" />
    <path d="m 39.2406,223.332 c -1.6286,0 -2.9489,-1.32 -2.9489,-2.949 0,-1.628 1.3203,-2.948 2.9489,-2.948 1.6286,0 2.9488,1.32 2.9488,2.948 0,1.629 -1.3202,2.949 -2.9488,2.949 z" />
    <path d="m 27.4452,223.332 c -1.6286,0 -2.9489,-1.32 -2.9489,-2.949 0,-1.628 1.3203,-2.948 2.9489,-2.948 1.6286,0 2.9488,1.32 2.9488,2.948 0,1.629 -1.3202,2.949 -2.9488,2.949 z" />
    <path d="m 15.6498,223.332 c -1.6286,0 -2.9488,-1.32 -2.9488,-2.949 0,-1.628 1.3202,-2.948 2.9488,-2.948 1.6286,0 2.9488,1.32 2.9488,2.948 0,1.629 -1.3202,2.949 -2.9488,2.949 z" />
    <path d="m 3.85441,223.332 c -1.6286,0 -2.948843,-1.32 -2.948843,-2.949 0,-1.628 1.320243,-2.948 2.948843,-2.948 1.62861,0 2.94885,1.32 2.94885,2.948 0,1.629 -1.32024,2.949 -2.94885,2.949 z" />
    <path d="m 239.762,235.128 c -1.629,0 -2.949,-1.321 -2.949,-2.949 0,-1.629 1.32,-2.949 2.949,-2.949 1.629,0 2.949,1.32 2.949,2.949 0,1.628 -1.32,2.949 -2.949,2.949 z" />
    <path d="m 227.967,235.128 c -1.629,0 -2.949,-1.321 -2.949,-2.949 0,-1.629 1.32,-2.949 2.949,-2.949 1.628,0 2.949,1.32 2.949,2.949 0,1.628 -1.321,2.949 -2.949,2.949 z" />
    <path d="m 216.171,235.128 c -1.628,0 -2.949,-1.321 -2.949,-2.949 0,-1.629 1.321,-2.949 2.949,-2.949 1.629,0 2.949,1.32 2.949,2.949 0,1.628 -1.32,2.949 -2.949,2.949 z" />
    <path d="m 204.376,235.128 c -1.629,0 -2.949,-1.321 -2.949,-2.949 0,-1.629 1.32,-2.949 2.949,-2.949 1.629,0 2.949,1.32 2.949,2.949 0,1.628 -1.32,2.949 -2.949,2.949 z" />
    <path d="m 192.581,235.128 c -1.629,0 -2.949,-1.321 -2.949,-2.949 0,-1.629 1.32,-2.949 2.949,-2.949 1.628,0 2.948,1.32 2.948,2.949 0,1.628 -1.32,2.949 -2.948,2.949 z" />
    <path d="m 180.785,235.128 c -1.628,0 -2.949,-1.321 -2.949,-2.949 0,-1.629 1.321,-2.949 2.949,-2.949 1.629,0 2.949,1.32 2.949,2.949 0,1.628 -1.32,2.949 -2.949,2.949 z" />
    <path d="m 168.99,235.128 c -1.629,0 -2.949,-1.321 -2.949,-2.949 0,-1.629 1.32,-2.949 2.949,-2.949 1.628,0 2.949,1.32 2.949,2.949 0,1.628 -1.321,2.949 -2.949,2.949 z" />
    <path d="m 157.194,235.128 c -1.628,0 -2.948,-1.321 -2.948,-2.949 0,-1.629 1.32,-2.949 2.948,-2.949 1.629,0 2.949,1.32 2.949,2.949 0,1.628 -1.32,2.949 -2.949,2.949 z" />
    <path d="m 145.399,235.128 c -1.629,0 -2.949,-1.321 -2.949,-2.949 0,-1.629 1.32,-2.949 2.949,-2.949 1.629,0 2.949,1.32 2.949,2.949 0,1.628 -1.32,2.949 -2.949,2.949 z" />
    <path d="m 133.604,235.128 c -1.629,0 -2.949,-1.321 -2.949,-2.949 0,-1.629 1.32,-2.949 2.949,-2.949 1.628,0 2.948,1.32 2.948,2.949 0,1.628 -1.32,2.949 -2.948,2.949 z" />
    <path d="m 121.808,235.128 c -1.628,0 -2.949,-1.321 -2.949,-2.949 0,-1.629 1.321,-2.949 2.949,-2.949 1.629,0 2.949,1.32 2.949,2.949 0,1.628 -1.32,2.949 -2.949,2.949 z" />
    <path d="m 110.013,235.128 c -1.629,0 -2.949,-1.321 -2.949,-2.949 0,-1.629 1.32,-2.949 2.949,-2.949 1.628,0 2.949,1.32 2.949,2.949 0,1.628 -1.321,2.949 -2.949,2.949 z" />
    <path d="m 98.2175,235.128 c -1.6286,0 -2.9489,-1.321 -2.9489,-2.949 0,-1.629 1.3203,-2.949 2.9489,-2.949 1.6286,0 2.9485,1.32 2.9485,2.949 0,1.628 -1.3199,2.949 -2.9485,2.949 z" />
    <path d="m 86.4221,235.128 c -1.6286,0 -2.9488,-1.321 -2.9488,-2.949 0,-1.629 1.3202,-2.949 2.9488,-2.949 1.6286,0 2.9489,1.32 2.9489,2.949 0,1.628 -1.3203,2.949 -2.9489,2.949 z" />
    <path d="m 74.6267,235.128 c -1.6286,0 -2.9488,-1.321 -2.9488,-2.949 0,-1.629 1.3202,-2.949 2.9488,-2.949 1.6286,0 2.9489,1.32 2.9489,2.949 0,1.628 -1.3203,2.949 -2.9489,2.949 z" />
    <path d="m 62.8313,235.128 c -1.6286,0 -2.9488,-1.321 -2.9488,-2.949 0,-1.629 1.3202,-2.949 2.9488,-2.949 1.6286,0 2.9489,1.32 2.9489,2.949 0,1.628 -1.3203,2.949 -2.9489,2.949 z" />
    <path d="m 51.036,235.128 c -1.6287,0 -2.9489,-1.321 -2.9489,-2.949 0,-1.629 1.3202,-2.949 2.9489,-2.949 1.6286,0 2.9488,1.32 2.9488,2.949 0,1.628 -1.3202,2.949 -2.9488,2.949 z" />
    <path d="m 39.2406,235.128 c -1.6286,0 -2.9489,-1.321 -2.9489,-2.949 0,-1.629 1.3203,-2.949 2.9489,-2.949 1.6286,0 2.9488,1.32 2.9488,2.949 0,1.628 -1.3202,2.949 -2.9488,2.949 z" />
    <path d="m 27.4452,235.128 c -1.6286,0 -2.9489,-1.321 -2.9489,-2.949 0,-1.629 1.3203,-2.949 2.9489,-2.949 1.6286,0 2.9488,1.32 2.9488,2.949 0,1.628 -1.3202,2.949 -2.9488,2.949 z" />
    <path d="m 15.6498,235.128 c -1.6286,0 -2.9488,-1.321 -2.9488,-2.949 0,-1.629 1.3202,-2.949 2.9488,-2.949 1.6286,0 2.9488,1.32 2.9488,2.949 0,1.628 -1.3202,2.949 -2.9488,2.949 z" />
    <path d="m 3.85441,235.128 c -1.6286,0 -2.948842,-1.321 -2.948842,-2.949 0,-1.629 1.320242,-2.949 2.948842,-2.949 1.62861,0 2.94885,1.32 2.94885,2.949 0,1.628 -1.32024,2.949 -2.94885,2.949 z" />
    <path d="m 239.762,246.923 c -1.629,0 -2.949,-1.32 -2.949,-2.949 0,-1.628 1.32,-2.949 2.949,-2.949 1.629,0 2.949,1.321 2.949,2.949 0,1.629 -1.32,2.949 -2.949,2.949 z" />
    <path d="m 227.967,246.923 c -1.629,0 -2.949,-1.32 -2.949,-2.949 0,-1.628 1.32,-2.949 2.949,-2.949 1.628,0 2.949,1.321 2.949,2.949 0,1.629 -1.321,2.949 -2.949,2.949 z" />
    <path d="m 216.171,246.923 c -1.628,0 -2.949,-1.32 -2.949,-2.949 0,-1.628 1.321,-2.949 2.949,-2.949 1.629,0 2.949,1.321 2.949,2.949 0,1.629 -1.32,2.949 -2.949,2.949 z" />
    <path d="m 204.376,246.923 c -1.629,0 -2.949,-1.32 -2.949,-2.949 0,-1.628 1.32,-2.949 2.949,-2.949 1.629,0 2.949,1.321 2.949,2.949 0,1.629 -1.32,2.949 -2.949,2.949 z" />
    <path d="m 192.581,246.923 c -1.629,0 -2.949,-1.32 -2.949,-2.949 0,-1.628 1.32,-2.949 2.949,-2.949 1.628,0 2.948,1.321 2.948,2.949 0,1.629 -1.32,2.949 -2.948,2.949 z" />
    <path d="m 180.785,246.923 c -1.628,0 -2.949,-1.32 -2.949,-2.949 0,-1.628 1.321,-2.949 2.949,-2.949 1.629,0 2.949,1.321 2.949,2.949 0,1.629 -1.32,2.949 -2.949,2.949 z" />
    <path d="m 168.99,246.923 c -1.629,0 -2.949,-1.32 -2.949,-2.949 0,-1.628 1.32,-2.949 2.949,-2.949 1.628,0 2.949,1.321 2.949,2.949 0,1.629 -1.321,2.949 -2.949,2.949 z" />
    <path d="m 157.194,246.923 c -1.628,0 -2.948,-1.32 -2.948,-2.949 0,-1.628 1.32,-2.949 2.948,-2.949 1.629,0 2.949,1.321 2.949,2.949 0,1.629 -1.32,2.949 -2.949,2.949 z" />
    <path d="m 145.399,246.923 c -1.629,0 -2.949,-1.32 -2.949,-2.949 0,-1.628 1.32,-2.949 2.949,-2.949 1.629,0 2.949,1.321 2.949,2.949 0,1.629 -1.32,2.949 -2.949,2.949 z" />
    <path d="m 133.604,246.923 c -1.629,0 -2.949,-1.32 -2.949,-2.949 0,-1.628 1.32,-2.949 2.949,-2.949 1.628,0 2.948,1.321 2.948,2.949 0,1.629 -1.32,2.949 -2.948,2.949 z" />
    <path d="m 121.808,246.923 c -1.628,0 -2.949,-1.32 -2.949,-2.949 0,-1.628 1.321,-2.949 2.949,-2.949 1.629,0 2.949,1.321 2.949,2.949 0,1.629 -1.32,2.949 -2.949,2.949 z" />
    <path d="m 110.013,246.923 c -1.629,0 -2.949,-1.32 -2.949,-2.949 0,-1.628 1.32,-2.949 2.949,-2.949 1.628,0 2.949,1.321 2.949,2.949 0,1.629 -1.321,2.949 -2.949,2.949 z" />
    <path d="m 98.2175,246.923 c -1.6286,0 -2.9489,-1.32 -2.9489,-2.949 0,-1.628 1.3203,-2.949 2.9489,-2.949 1.6286,0 2.9485,1.321 2.9485,2.949 0,1.629 -1.3199,2.949 -2.9485,2.949 z" />
    <path d="m 86.4221,246.923 c -1.6286,0 -2.9488,-1.32 -2.9488,-2.949 0,-1.628 1.3202,-2.949 2.9488,-2.949 1.6286,0 2.9489,1.321 2.9489,2.949 0,1.629 -1.3203,2.949 -2.9489,2.949 z" />
    <path d="m 74.6267,246.923 c -1.6286,0 -2.9488,-1.32 -2.9488,-2.949 0,-1.628 1.3202,-2.949 2.9488,-2.949 1.6286,0 2.9489,1.321 2.9489,2.949 0,1.629 -1.3203,2.949 -2.9489,2.949 z" />
    <path d="m 62.8313,246.923 c -1.6286,0 -2.9488,-1.32 -2.9488,-2.949 0,-1.628 1.3202,-2.949 2.9488,-2.949 1.6286,0 2.9489,1.321 2.9489,2.949 0,1.629 -1.3203,2.949 -2.9489,2.949 z" />
    <path d="m 51.036,246.923 c -1.6287,0 -2.9489,-1.32 -2.9489,-2.949 0,-1.628 1.3202,-2.949 2.9489,-2.949 1.6286,0 2.9488,1.321 2.9488,2.949 0,1.629 -1.3202,2.949 -2.9488,2.949 z" />
    <path d="m 39.2406,246.923 c -1.6286,0 -2.9489,-1.32 -2.9489,-2.949 0,-1.628 1.3203,-2.949 2.9489,-2.949 1.6286,0 2.9488,1.321 2.9488,2.949 0,1.629 -1.3202,2.949 -2.9488,2.949 z" />
    <path d="m 27.4452,246.923 c -1.6286,0 -2.9489,-1.32 -2.9489,-2.949 0,-1.628 1.3203,-2.949 2.9489,-2.949 1.6286,0 2.9488,1.321 2.9488,2.949 0,1.629 -1.3202,2.949 -2.9488,2.949 z" />
    <path d="m 15.6498,246.923 c -1.6286,0 -2.9488,-1.32 -2.9488,-2.949 0,-1.628 1.3202,-2.949 2.9488,-2.949 1.6286,0 2.9488,1.321 2.9488,2.949 0,1.629 -1.3202,2.949 -2.9488,2.949 z" />
    <path d="m 3.85441,246.923 c -1.6286,0 -2.948842,-1.32 -2.948842,-2.949 0,-1.628 1.320242,-2.949 2.948842,-2.949 1.62861,0 2.94885,1.321 2.94885,2.949 0,1.629 -1.32024,2.949 -2.94885,2.949 z" />
  </g>
  <defs>
    <linearGradient id="blob-grad-dots-06_gradient" x1="0%" y1="0%" x2="100%" y2="0%" gradientUnits="userSpaceOnUse">
      <stop offset="0%" style="stop-color:rgb(85,0,255);stop-opacity:1"/>
      <stop offset="33%" style="stop-color:rgb(156,133,241);stop-opacity:1"/>
      <stop offset="66%" style="stop-color:rgb(109,255,212);stop-opacity:1"/>
      <stop offset="100%" style="stop-color:rgb(16,243,16);stop-opacity:1"/>
    </linearGradient>
  </defs>
</svg>
