<?xml version="1.0" encoding="UTF-8" standalone="no"?>
<svg
   width="160"
   height="200"
   viewBox="0 0 160 200"
   fill="none"
   version="1.1"
   xmlns="http://www.w3.org/2000/svg"
   xmlns:svg="http://www.w3.org/2000/svg">
  <g clip-path="url(#blob-grad-dots-03_clip)">
    <mask
       id="blob-grad-dots-03_mask"
       maskUnits="userSpaceOnUse"
       x="0"
       y="0"
       width="160"
       height="200">
      <path
         d="M 50.0117,4.34421 C 86.281,-9.86361 142.7,12.8689 155.975,42.2317 169.25,71.8314 139.381,107.825 113.779,140.266 87.9404,172.944 66.1314,202.307 45.0336,198.755 23.6987,195.203 2.83791,158.736 0.230313,114.692 -2.14023,70.6474 13.7424,18.7888 50.0117,4.34421 Z"
         fill="#ffffff" />
    </mask>
    <g mask="url(#blob-grad-dots-03_mask)" style="fill:url(#blob-grad-dots-03_gradient)">
      <path d="m -36.8607,228.536 c 1.6286,0 2.9488,1.32 2.9488,2.949 0,1.628 -1.3202,2.949 -2.9488,2.949 -1.6286,0 -2.9489,-1.321 -2.9489,-2.949 0,-1.629 1.3203,-2.949 2.9489,-2.949 z" />
      <path d="m -25.0653,228.536 c 1.6286,0 2.9488,1.32 2.9488,2.949 0,1.628 -1.3202,2.949 -2.9488,2.949 -1.6286,0 -2.9489,-1.321 -2.9489,-2.949 0,-1.629 1.3203,-2.949 2.9489,-2.949 z" />
      <path d="m -13.27,228.536 c 1.6286,0 2.9489,1.32 2.9489,2.949 0,1.628 -1.3203,2.949 -2.9489,2.949 -1.6286,0 -2.9488,-1.321 -2.9488,-2.949 0,-1.629 1.3202,-2.949 2.9488,-2.949 z" />
      <path d="m -1.47457,228.536 c 1.628602,0 2.94884,1.32 2.94884,2.949 1e-5,1.628 -1.320238,2.949 -2.94884,2.949 -1.6286,0 -2.94885,-1.321 -2.94885,-2.949 0,-1.629 1.32025,-2.949 2.94885,-2.949 z" />
      <path d="m 10.3208,228.536 c 1.6286,0 2.9489,1.32 2.9489,2.949 0,1.628 -1.3203,2.949 -2.9489,2.949 -1.62859,0 -2.94883,-1.321 -2.94883,-2.949 0,-1.629 1.32024,-2.949 2.94883,-2.949 z" />
      <path d="m 22.1162,228.536 c 1.6286,0 2.9488,1.32 2.9488,2.949 0,1.628 -1.3202,2.949 -2.9488,2.949 -1.6286,0 -2.9488,-1.321 -2.9488,-2.949 0,-1.629 1.3202,-2.949 2.9488,-2.949 z" />
      <path d="m 33.9116,228.536 c 1.6286,0 2.9488,1.32 2.9488,2.949 0,1.628 -1.3202,2.949 -2.9488,2.949 -1.6286,0 -2.9489,-1.321 -2.9489,-2.949 0,-1.629 1.3203,-2.949 2.9489,-2.949 z" />
      <path d="m 45.707,228.536 c 1.6286,0 2.9488,1.32 2.9488,2.949 0,1.628 -1.3202,2.949 -2.9488,2.949 -1.6286,0 -2.9489,-1.321 -2.9489,-2.949 0,-1.629 1.3203,-2.949 2.9489,-2.949 z" />
      <path d="m 57.5024,228.536 c 1.6286,0 2.9488,1.32 2.9488,2.949 0,1.628 -1.3202,2.949 -2.9488,2.949 -1.6287,0 -2.9489,-1.321 -2.9489,-2.949 0,-1.629 1.3202,-2.949 2.9489,-2.949 z" />
      <path d="m 69.2977,228.536 c 1.6286,0 2.9489,1.32 2.9489,2.949 0,1.628 -1.3203,2.949 -2.9489,2.949 -1.6286,0 -2.9488,-1.321 -2.9488,-2.949 0,-1.629 1.3202,-2.949 2.9488,-2.949 z" />
      <path d="m 81.0931,228.536 c 1.6286,0 2.9489,1.32 2.9489,2.949 0,1.628 -1.3203,2.949 -2.9489,2.949 -1.6286,0 -2.9488,-1.321 -2.9488,-2.949 0,-1.629 1.3202,-2.949 2.9488,-2.949 z" />
      <path d="m 92.8885,228.536 c 1.6286,0 2.9489,1.32 2.9489,2.949 0,1.628 -1.3203,2.949 -2.9489,2.949 -1.6286,0 -2.9488,-1.321 -2.9488,-2.949 0,-1.629 1.3202,-2.949 2.9488,-2.949 z" />
      <path d="m 104.684,228.536 c 1.628,0 2.949,1.32 2.949,2.949 0,1.628 -1.321,2.949 -2.949,2.949 -1.629,0 -2.949,-1.321 -2.949,-2.949 0,-1.629 1.32,-2.949 2.949,-2.949 z" />
      <path d="m 116.479,228.536 c 1.629,0 2.949,1.32 2.949,2.949 0,1.628 -1.32,2.949 -2.949,2.949 -1.628,0 -2.949,-1.321 -2.949,-2.949 0,-1.629 1.321,-2.949 2.949,-2.949 z" />
      <path d="m 128.275,228.536 c 1.628,0 2.949,1.32 2.949,2.949 0,1.628 -1.321,2.949 -2.949,2.949 -1.629,0 -2.949,-1.321 -2.949,-2.949 0,-1.629 1.32,-2.949 2.949,-2.949 z" />
      <path d="m 140.07,228.536 c 1.629,0 2.949,1.32 2.949,2.949 0,1.628 -1.32,2.949 -2.949,2.949 -1.629,0 -2.949,-1.321 -2.949,-2.949 0,-1.629 1.32,-2.949 2.949,-2.949 z" />
      <path d="m 151.865,228.536 c 1.629,0 2.949,1.32 2.949,2.949 0,1.628 -1.32,2.949 -2.949,2.949 -1.628,0 -2.948,-1.321 -2.948,-2.949 0,-1.629 1.32,-2.949 2.948,-2.949 z" />
      <path d="m 163.661,228.536 c 1.628,0 2.949,1.32 2.949,2.949 0,1.628 -1.321,2.949 -2.949,2.949 -1.629,0 -2.949,-1.321 -2.949,-2.949 0,-1.629 1.32,-2.949 2.949,-2.949 z" />
      <path d="m 175.456,228.536 c 1.629,0 2.949,1.32 2.949,2.949 0,1.628 -1.32,2.949 -2.949,2.949 -1.628,0 -2.949,-1.321 -2.949,-2.949 0,-1.629 1.321,-2.949 2.949,-2.949 z" />
      <path d="m 187.252,228.536 c 1.628,0 2.948,1.32 2.948,2.949 0,1.628 -1.32,2.949 -2.948,2.949 -1.629,0 -2.949,-1.321 -2.949,-2.949 0,-1.629 1.32,-2.949 2.949,-2.949 z" />
      <path d="m 199.047,228.536 c 1.629,0 2.949,1.32 2.949,2.949 0,1.628 -1.32,2.949 -2.949,2.949 -1.629,0 -2.949,-1.321 -2.949,-2.949 0,-1.629 1.32,-2.949 2.949,-2.949 z" />
      <path d="m -36.8607,216.741 c 1.6286,0 2.9488,1.32 2.9488,2.948 0,1.629 -1.3202,2.949 -2.9488,2.949 -1.6286,0 -2.9489,-1.32 -2.9489,-2.949 0,-1.628 1.3203,-2.948 2.9489,-2.948 z" />
      <path d="m -25.0653,216.741 c 1.6286,0 2.9488,1.32 2.9488,2.948 0,1.629 -1.3202,2.949 -2.9488,2.949 -1.6286,0 -2.9489,-1.32 -2.9489,-2.949 0,-1.628 1.3203,-2.948 2.9489,-2.948 z" />
      <path d="m -13.27,216.741 c 1.6286,0 2.9489,1.32 2.9489,2.948 0,1.629 -1.3203,2.949 -2.9489,2.949 -1.6286,0 -2.9488,-1.32 -2.9488,-2.949 0,-1.628 1.3202,-2.948 2.9488,-2.948 z" />
      <path d="m -1.47457,216.741 c 1.628601,0 2.94884,1.32 2.94884,2.948 0,1.629 -1.320239,2.949 -2.94884,2.949 -1.6286,0 -2.94885,-1.32 -2.94885,-2.949 0,-1.628 1.32025,-2.948 2.94885,-2.948 z" />
      <path d="m 10.3208,216.741 c 1.6286,0 2.9489,1.32 2.9489,2.948 0,1.629 -1.3203,2.949 -2.9489,2.949 -1.62859,0 -2.94883,-1.32 -2.94883,-2.949 0,-1.628 1.32024,-2.948 2.94883,-2.948 z" />
      <path d="m 22.1162,216.741 c 1.6286,0 2.9488,1.32 2.9488,2.948 0,1.629 -1.3202,2.949 -2.9488,2.949 -1.6286,0 -2.9488,-1.32 -2.9488,-2.949 0,-1.628 1.3202,-2.948 2.9488,-2.948 z" />
      <path d="m 33.9116,216.741 c 1.6286,0 2.9488,1.32 2.9488,2.948 0,1.629 -1.3202,2.949 -2.9488,2.949 -1.6286,0 -2.9489,-1.32 -2.9489,-2.949 0,-1.628 1.3203,-2.948 2.9489,-2.948 z" />
      <path d="m 45.707,216.741 c 1.6286,0 2.9488,1.32 2.9488,2.948 0,1.629 -1.3202,2.949 -2.9488,2.949 -1.6286,0 -2.9489,-1.32 -2.9489,-2.949 0,-1.628 1.3203,-2.948 2.9489,-2.948 z" />
      <path d="m 57.5024,216.741 c 1.6286,0 2.9488,1.32 2.9488,2.948 0,1.629 -1.3202,2.949 -2.9488,2.949 -1.6287,0 -2.9489,-1.32 -2.9489,-2.949 0,-1.628 1.3202,-2.948 2.9489,-2.948 z" />
      <path d="m 69.2977,216.741 c 1.6286,0 2.9489,1.32 2.9489,2.948 0,1.629 -1.3203,2.949 -2.9489,2.949 -1.6286,0 -2.9488,-1.32 -2.9488,-2.949 0,-1.628 1.3202,-2.948 2.9488,-2.948 z" />
      <path d="m 81.0931,216.741 c 1.6286,0 2.9489,1.32 2.9489,2.948 0,1.629 -1.3203,2.949 -2.9489,2.949 -1.6286,0 -2.9488,-1.32 -2.9488,-2.949 0,-1.628 1.3202,-2.948 2.9488,-2.948 z" />
      <path d="m 92.8885,216.741 c 1.6286,0 2.9488,1.32 2.9488,2.948 0,1.629 -1.3202,2.949 -2.9488,2.949 -1.6286,0 -2.9488,-1.32 -2.9488,-2.949 0,-1.628 1.3202,-2.948 2.9488,-2.948 z" />
      <path d="m 104.684,216.741 c 1.628,0 2.949,1.32 2.949,2.948 0,1.629 -1.321,2.949 -2.949,2.949 -1.629,0 -2.949,-1.32 -2.949,-2.949 0,-1.628 1.32,-2.948 2.949,-2.948 z" />
      <path d="m 116.479,216.741 c 1.629,0 2.949,1.32 2.949,2.948 0,1.629 -1.32,2.949 -2.949,2.949 -1.628,0 -2.949,-1.32 -2.949,-2.949 0,-1.628 1.321,-2.948 2.949,-2.948 z" />
      <path d="m 128.275,216.741 c 1.628,0 2.949,1.32 2.949,2.948 0,1.629 -1.321,2.949 -2.949,2.949 -1.629,0 -2.949,-1.32 -2.949,-2.949 0,-1.628 1.32,-2.948 2.949,-2.948 z" />
      <path d="m 140.07,216.741 c 1.629,0 2.949,1.32 2.949,2.948 0,1.629 -1.32,2.949 -2.949,2.949 -1.629,0 -2.949,-1.32 -2.949,-2.949 0,-1.628 1.32,-2.948 2.949,-2.948 z" />
      <path d="m 151.865,216.741 c 1.629,0 2.949,1.32 2.949,2.948 0,1.629 -1.32,2.949 -2.949,2.949 -1.628,0 -2.948,-1.32 -2.948,-2.949 0,-1.628 1.32,-2.948 2.948,-2.948 z" />
      <path d="m 163.661,216.741 c 1.628,0 2.949,1.32 2.949,2.948 0,1.629 -1.321,2.949 -2.949,2.949 -1.629,0 -2.949,-1.32 -2.949,-2.949 0,-1.628 1.32,-2.948 2.949,-2.948 z" />
      <path d="m 175.456,216.741 c 1.629,0 2.949,1.32 2.949,2.948 0,1.629 -1.32,2.949 -2.949,2.949 -1.628,0 -2.949,-1.32 -2.949,-2.949 0,-1.628 1.321,-2.948 2.949,-2.948 z" />
      <path d="m 187.252,216.741 c 1.628,0 2.948,1.32 2.948,2.948 0,1.629 -1.32,2.949 -2.948,2.949 -1.629,0 -2.949,-1.32 -2.949,-2.949 0,-1.628 1.32,-2.948 2.949,-2.948 z" />
      <path d="m 199.047,216.741 c 1.629,0 2.949,1.32 2.949,2.948 0,1.629 -1.32,2.949 -2.949,2.949 -1.629,0 -2.949,-1.32 -2.949,-2.949 0,-1.628 1.32,-2.948 2.949,-2.948 z" />
      <path d="m -36.8607,204.945 c 1.6286,0 2.9488,1.32 2.9488,2.949 0,1.629 -1.3202,2.949 -2.9488,2.949 -1.6286,0 -2.9489,-1.32 -2.9489,-2.949 0,-1.629 1.3203,-2.949 2.9489,-2.949 z" />
      <path d="m -25.0653,204.945 c 1.6286,0 2.9488,1.32 2.9488,2.949 0,1.629 -1.3202,2.949 -2.9488,2.949 -1.6286,0 -2.9489,-1.32 -2.9489,-2.949 0,-1.629 1.3203,-2.949 2.9489,-2.949 z" />
      <path d="m -13.27,204.945 c 1.6286,0 2.9489,1.32 2.9489,2.949 0,1.629 -1.3203,2.949 -2.9489,2.949 -1.6286,0 -2.9488,-1.32 -2.9488,-2.949 0,-1.629 1.3202,-2.949 2.9488,-2.949 z" />
      <path d="m -1.47457,204.945 c 1.628601,0 2.94884,1.32 2.94884,2.949 0,1.629 -1.320239,2.949 -2.94884,2.949 -1.6286,0 -2.94885,-1.32 -2.94885,-2.949 0,-1.629 1.32024,-2.949 2.94885,-2.949 z" />
      <path d="m 10.3208,204.945 c 1.6286,0 2.9489,1.32 2.9489,2.949 0,1.629 -1.3203,2.949 -2.9489,2.949 -1.62859,0 -2.94883,-1.32 -2.94883,-2.949 0,-1.629 1.32024,-2.949 2.94883,-2.949 z" />
      <path d="m 22.1162,204.945 c 1.6286,0 2.9488,1.32 2.9488,2.949 0,1.629 -1.3202,2.949 -2.9488,2.949 -1.6286,0 -2.9488,-1.32 -2.9488,-2.949 0,-1.629 1.3202,-2.949 2.9488,-2.949 z" />
      <path d="m 33.9116,204.945 c 1.6286,0 2.9488,1.32 2.9488,2.949 0,1.629 -1.3202,2.949 -2.9488,2.949 -1.6286,0 -2.9489,-1.32 -2.9489,-2.949 0,-1.629 1.3203,-2.949 2.9489,-2.949 z" />
      <path d="m 45.707,204.945 c 1.6286,0 2.9488,1.32 2.9488,2.949 0,1.629 -1.3202,2.949 -2.9488,2.949 -1.6286,0 -2.9489,-1.32 -2.9489,-2.949 0,-1.629 1.3203,-2.949 2.9489,-2.949 z" />
      <path d="m 57.5023,204.945 c 1.6287,0 2.9489,1.32 2.9489,2.949 0,1.629 -1.3202,2.949 -2.9488,2.949 -1.6287,0 -2.9489,-1.32 -2.9489,-2.949 0,-1.629 1.3202,-2.949 2.9488,-2.949 z" />
      <path d="m 69.2977,204.945 c 1.6286,0 2.9489,1.32 2.9489,2.949 0,1.629 -1.3203,2.949 -2.9489,2.949 -1.6286,0 -2.9488,-1.32 -2.9488,-2.949 0,-1.629 1.3202,-2.949 2.9488,-2.949 z" />
      <path d="m 81.0931,204.945 c 1.6286,0 2.9489,1.32 2.9489,2.949 0,1.629 -1.3203,2.949 -2.9489,2.949 -1.6286,0 -2.9488,-1.32 -2.9488,-2.949 0,-1.629 1.3202,-2.949 2.9488,-2.949 z" />
      <path d="m 92.8885,204.945 c 1.6286,0 2.9488,1.32 2.9488,2.949 0,1.629 -1.3202,2.949 -2.9488,2.949 -1.6286,0 -2.9488,-1.32 -2.9488,-2.949 0,-1.629 1.3202,-2.949 2.9488,-2.949 z" />
      <path d="m 104.684,204.945 c 1.628,0 2.949,1.32 2.949,2.949 0,1.629 -1.321,2.949 -2.949,2.949 -1.629,0 -2.949,-1.32 -2.949,-2.949 0,-1.629 1.32,-2.949 2.949,-2.949 z" />
      <path d="m 116.479,204.945 c 1.629,0 2.949,1.32 2.949,2.949 0,1.629 -1.32,2.949 -2.949,2.949 -1.628,0 -2.949,-1.32 -2.949,-2.949 0,-1.629 1.321,-2.949 2.949,-2.949 z" />
      <path d="m 128.275,204.945 c 1.628,0 2.949,1.32 2.949,2.949 0,1.629 -1.321,2.949 -2.949,2.949 -1.629,0 -2.949,-1.32 -2.949,-2.949 0,-1.629 1.32,-2.949 2.949,-2.949 z" />
      <path d="m 140.07,204.945 c 1.629,0 2.949,1.32 2.949,2.949 0,1.629 -1.32,2.949 -2.949,2.949 -1.629,0 -2.949,-1.32 -2.949,-2.949 0,-1.629 1.32,-2.949 2.949,-2.949 z" />
      <path d="m 151.865,204.945 c 1.629,0 2.949,1.32 2.949,2.949 0,1.629 -1.32,2.949 -2.949,2.949 -1.628,0 -2.948,-1.32 -2.948,-2.949 0,-1.629 1.32,-2.949 2.948,-2.949 z" />
      <path d="m 163.661,204.945 c 1.628,0 2.949,1.32 2.949,2.949 0,1.629 -1.321,2.949 -2.949,2.949 -1.629,0 -2.949,-1.32 -2.949,-2.949 0,-1.629 1.32,-2.949 2.949,-2.949 z" />
      <path d="m 175.456,204.945 c 1.629,0 2.949,1.32 2.949,2.949 0,1.629 -1.32,2.949 -2.949,2.949 -1.628,0 -2.949,-1.32 -2.949,-2.949 0,-1.629 1.321,-2.949 2.949,-2.949 z" />
      <path d="m 187.252,204.945 c 1.628,0 2.948,1.32 2.948,2.949 0,1.629 -1.32,2.949 -2.948,2.949 -1.629,0 -2.949,-1.32 -2.949,-2.949 0,-1.629 1.32,-2.949 2.949,-2.949 z" />
      <path d="m 199.047,204.945 c 1.629,0 2.949,1.32 2.949,2.949 0,1.629 -1.32,2.949 -2.949,2.949 -1.629,0 -2.949,-1.32 -2.949,-2.949 0,-1.629 1.32,-2.949 2.949,-2.949 z" />
      <path d="m -36.8607,193.15 c 1.6286,0 2.9488,1.32 2.9488,2.949 0,1.628 -1.3202,2.948 -2.9488,2.948 -1.6286,0 -2.9489,-1.32 -2.9489,-2.948 0,-1.629 1.3203,-2.949 2.9489,-2.949 z" />
      <path d="m -25.0653,193.15 c 1.6286,0 2.9488,1.32 2.9488,2.949 0,1.628 -1.3202,2.948 -2.9488,2.948 -1.6286,0 -2.9489,-1.32 -2.9489,-2.948 0,-1.629 1.3203,-2.949 2.9489,-2.949 z" />
      <path d="m -13.27,193.15 c 1.6286,0 2.9489,1.32 2.9489,2.949 0,1.628 -1.3203,2.948 -2.9489,2.948 -1.6286,0 -2.9488,-1.32 -2.9488,-2.948 0,-1.629 1.3202,-2.949 2.9488,-2.949 z" />
      <path d="m -1.47457,193.15 c 1.6286,0 2.94884,1.32 2.94884,2.949 0,1.628 -1.32024,2.948 -2.94884,2.948 -1.62861,0 -2.94885,-1.32 -2.94885,-2.948 0,-1.629 1.32024,-2.949 2.94885,-2.949 z" />
      <path d="m 10.3208,193.15 c 1.6286,0 2.9489,1.32 2.9489,2.949 0,1.628 -1.3203,2.948 -2.9489,2.948 -1.62859,0 -2.94883,-1.32 -2.94883,-2.948 0,-1.629 1.32024,-2.949 2.94883,-2.949 z" />
      <path d="m 22.1162,193.15 c 1.6286,0 2.9488,1.32 2.9488,2.949 0,1.628 -1.3202,2.948 -2.9488,2.948 -1.6286,0 -2.9488,-1.32 -2.9488,-2.948 -10e-5,-1.629 1.3202,-2.949 2.9488,-2.949 z" />
      <path d="m 33.9116,193.15 c 1.6286,0 2.9488,1.32 2.9488,2.949 0,1.628 -1.3202,2.948 -2.9488,2.948 -1.6286,0 -2.9489,-1.32 -2.9489,-2.948 0,-1.629 1.3203,-2.949 2.9489,-2.949 z" />
      <path d="m 45.707,193.15 c 1.6286,0 2.9488,1.32 2.9488,2.949 0,1.628 -1.3202,2.948 -2.9488,2.948 -1.6286,0 -2.9489,-1.32 -2.9489,-2.948 0,-1.629 1.3203,-2.949 2.9489,-2.949 z" />
      <path d="m 57.5023,193.15 c 1.6287,0 2.9489,1.32 2.9489,2.949 0,1.628 -1.3202,2.948 -2.9489,2.948 -1.6286,0 -2.9488,-1.32 -2.9488,-2.948 0,-1.629 1.3202,-2.949 2.9488,-2.949 z" />
      <path d="m 69.2977,193.15 c 1.6286,0 2.9489,1.32 2.9489,2.949 0,1.628 -1.3203,2.948 -2.9489,2.948 -1.6286,0 -2.9488,-1.32 -2.9488,-2.948 0,-1.629 1.3202,-2.949 2.9488,-2.949 z" />
      <path d="m 81.0931,193.15 c 1.6286,0 2.9489,1.32 2.9489,2.949 0,1.628 -1.3203,2.948 -2.9489,2.948 -1.6286,0 -2.9488,-1.32 -2.9488,-2.948 0,-1.629 1.3202,-2.949 2.9488,-2.949 z" />
      <path d="m 92.8885,193.15 c 1.6286,0 2.9488,1.32 2.9488,2.949 0,1.628 -1.3202,2.948 -2.9488,2.948 -1.6286,0 -2.9488,-1.32 -2.9488,-2.948 0,-1.629 1.3202,-2.949 2.9488,-2.949 z" />
      <path d="m 104.684,193.15 c 1.628,0 2.949,1.32 2.949,2.949 0,1.628 -1.321,2.948 -2.949,2.948 -1.629,0 -2.949,-1.32 -2.949,-2.948 0,-1.629 1.32,-2.949 2.949,-2.949 z" />
      <path d="m 116.479,193.15 c 1.629,0 2.949,1.32 2.949,2.949 0,1.628 -1.32,2.948 -2.949,2.948 -1.628,0 -2.949,-1.32 -2.949,-2.948 0,-1.629 1.321,-2.949 2.949,-2.949 z" />
      <path d="m 128.275,193.15 c 1.628,0 2.949,1.32 2.949,2.949 0,1.628 -1.321,2.948 -2.949,2.948 -1.629,0 -2.949,-1.32 -2.949,-2.948 0,-1.629 1.32,-2.949 2.949,-2.949 z" />
      <path d="m 140.07,193.15 c 1.629,0 2.949,1.32 2.949,2.949 0,1.628 -1.32,2.948 -2.949,2.948 -1.629,0 -2.949,-1.32 -2.949,-2.948 0,-1.629 1.32,-2.949 2.949,-2.949 z" />
      <path d="m 151.865,193.15 c 1.629,0 2.949,1.32 2.949,2.949 0,1.628 -1.32,2.948 -2.949,2.948 -1.628,0 -2.948,-1.32 -2.948,-2.948 0,-1.629 1.32,-2.949 2.948,-2.949 z" />
      <path d="m 163.661,193.15 c 1.628,0 2.949,1.32 2.949,2.949 0,1.628 -1.321,2.948 -2.949,2.948 -1.629,0 -2.949,-1.32 -2.949,-2.948 0,-1.629 1.32,-2.949 2.949,-2.949 z" />
      <path d="m 175.456,193.15 c 1.629,0 2.949,1.32 2.949,2.949 0,1.628 -1.32,2.948 -2.949,2.948 -1.628,0 -2.949,-1.32 -2.949,-2.948 0,-1.629 1.321,-2.949 2.949,-2.949 z" />
      <path d="m 187.252,193.15 c 1.628,0 2.948,1.32 2.948,2.949 0,1.628 -1.32,2.948 -2.948,2.948 -1.629,0 -2.949,-1.32 -2.949,-2.948 0,-1.629 1.32,-2.949 2.949,-2.949 z" />
      <path d="m 199.047,193.15 c 1.629,0 2.949,1.32 2.949,2.949 0,1.628 -1.32,2.948 -2.949,2.948 -1.629,0 -2.949,-1.32 -2.949,-2.948 0,-1.629 1.32,-2.949 2.949,-2.949 z" />
      <path d="m -36.8607,181.354 c 1.6286,0 2.9488,1.321 2.9488,2.949 0,1.629 -1.3202,2.949 -2.9488,2.949 -1.6286,0 -2.9489,-1.32 -2.9489,-2.949 0,-1.628 1.3203,-2.949 2.9489,-2.949 z" />
      <path d="m -25.0653,181.354 c 1.6286,0 2.9488,1.321 2.9488,2.949 0,1.629 -1.3202,2.949 -2.9488,2.949 -1.6286,0 -2.9489,-1.32 -2.9489,-2.949 0,-1.628 1.3203,-2.949 2.9489,-2.949 z" />
      <path d="m -13.27,181.354 c 1.6286,0 2.9489,1.321 2.9489,2.949 0,1.629 -1.3203,2.949 -2.9489,2.949 -1.6286,0 -2.9488,-1.32 -2.9488,-2.949 0,-1.628 1.3202,-2.949 2.9488,-2.949 z" />
      <path d="m -1.47457,181.354 c 1.6286,0 2.94884,1.321 2.94884,2.949 0,1.629 -1.32024,2.949 -2.94884,2.949 -1.62861,0 -2.94885,-1.32 -2.94885,-2.949 0,-1.628 1.32024,-2.949 2.94885,-2.949 z" />
      <path d="m 10.3208,181.354 c 1.6286,0 2.9489,1.321 2.9489,2.949 0,1.629 -1.3203,2.949 -2.9489,2.949 -1.62859,0 -2.94883,-1.32 -2.94883,-2.949 0,-1.628 1.32024,-2.949 2.94883,-2.949 z" />
      <path d="m 22.1162,181.354 c 1.6286,0 2.9488,1.321 2.9488,2.949 0,1.629 -1.3202,2.949 -2.9488,2.949 -1.6286,0 -2.9489,-1.32 -2.9489,-2.949 0,-1.628 1.3203,-2.949 2.9489,-2.949 z" />
      <path d="m 33.9116,181.354 c 1.6286,0 2.9488,1.321 2.9488,2.949 0,1.629 -1.3202,2.949 -2.9488,2.949 -1.6286,0 -2.9489,-1.32 -2.9489,-2.949 0,-1.628 1.3203,-2.949 2.9489,-2.949 z" />
      <path d="m 45.707,181.354 c 1.6286,0 2.9488,1.321 2.9488,2.949 0,1.629 -1.3202,2.949 -2.9488,2.949 -1.6286,0 -2.9489,-1.32 -2.9489,-2.949 0,-1.628 1.3203,-2.949 2.9489,-2.949 z" />
      <path d="m 57.5023,181.354 c 1.6287,0 2.9489,1.321 2.9489,2.949 0,1.629 -1.3202,2.949 -2.9489,2.949 -1.6286,0 -2.9488,-1.32 -2.9488,-2.949 0,-1.628 1.3202,-2.949 2.9488,-2.949 z" />
      <path d="m 69.2977,181.354 c 1.6286,0 2.9489,1.321 2.9489,2.949 0,1.629 -1.3203,2.949 -2.9489,2.949 -1.6286,0 -2.9488,-1.32 -2.9488,-2.949 0,-1.628 1.3202,-2.949 2.9488,-2.949 z" />
      <path d="m 81.0931,181.354 c 1.6286,0 2.9489,1.321 2.9489,2.949 0,1.629 -1.3203,2.949 -2.9489,2.949 -1.6286,0 -2.9488,-1.32 -2.9488,-2.949 0,-1.628 1.3202,-2.949 2.9488,-2.949 z" />
      <path d="m 92.8885,181.354 c 1.6286,0 2.9488,1.321 2.9488,2.949 0,1.629 -1.3202,2.949 -2.9488,2.949 -1.6286,0 -2.9488,-1.32 -2.9488,-2.949 0,-1.628 1.3202,-2.949 2.9488,-2.949 z" />
      <path d="m 104.684,181.354 c 1.628,0 2.949,1.321 2.949,2.949 0,1.629 -1.321,2.949 -2.949,2.949 -1.629,0 -2.949,-1.32 -2.949,-2.949 0,-1.628 1.32,-2.949 2.949,-2.949 z" />
      <path d="m 116.479,181.354 c 1.629,0 2.949,1.321 2.949,2.949 0,1.629 -1.32,2.949 -2.949,2.949 -1.628,0 -2.949,-1.32 -2.949,-2.949 0,-1.628 1.321,-2.949 2.949,-2.949 z" />
      <path d="m 128.275,181.354 c 1.628,0 2.949,1.321 2.949,2.949 0,1.629 -1.321,2.949 -2.949,2.949 -1.629,0 -2.949,-1.32 -2.949,-2.949 0,-1.628 1.32,-2.949 2.949,-2.949 z" />
      <path d="m 140.07,181.354 c 1.629,0 2.949,1.321 2.949,2.949 0,1.629 -1.32,2.949 -2.949,2.949 -1.629,0 -2.949,-1.32 -2.949,-2.949 0,-1.628 1.32,-2.949 2.949,-2.949 z" />
      <path d="m 151.865,181.354 c 1.629,0 2.949,1.321 2.949,2.949 0,1.629 -1.32,2.949 -2.949,2.949 -1.628,0 -2.948,-1.32 -2.948,-2.949 0,-1.628 1.32,-2.949 2.948,-2.949 z" />
      <path d="m 163.661,181.354 c 1.628,0 2.949,1.321 2.949,2.949 0,1.629 -1.321,2.949 -2.949,2.949 -1.629,0 -2.949,-1.32 -2.949,-2.949 0,-1.628 1.32,-2.949 2.949,-2.949 z" />
      <path d="m 175.456,181.354 c 1.629,0 2.949,1.321 2.949,2.949 0,1.629 -1.32,2.949 -2.949,2.949 -1.628,0 -2.949,-1.32 -2.949,-2.949 0,-1.628 1.321,-2.949 2.949,-2.949 z" />
      <path d="m 187.252,181.354 c 1.628,0 2.948,1.321 2.948,2.949 0,1.629 -1.32,2.949 -2.948,2.949 -1.629,0 -2.949,-1.32 -2.949,-2.949 0,-1.628 1.32,-2.949 2.949,-2.949 z" />
      <path d="m 199.047,181.354 c 1.629,0 2.949,1.321 2.949,2.949 0,1.629 -1.32,2.949 -2.949,2.949 -1.629,0 -2.949,-1.32 -2.949,-2.949 0,-1.628 1.32,-2.949 2.949,-2.949 z" />
      <path d="m -36.8607,169.559 c 1.6286,0 2.9488,1.32 2.9488,2.949 0,1.628 -1.3202,2.949 -2.9488,2.949 -1.6286,0 -2.9489,-1.321 -2.9489,-2.949 0,-1.629 1.3203,-2.949 2.9489,-2.949 z" />
      <path d="m -25.0653,169.559 c 1.6286,0 2.9488,1.32 2.9488,2.949 0,1.628 -1.3202,2.949 -2.9488,2.949 -1.6286,0 -2.9489,-1.321 -2.9489,-2.949 0,-1.629 1.3203,-2.949 2.9489,-2.949 z" />
      <path d="m -13.27,169.559 c 1.6286,0 2.9489,1.32 2.9489,2.949 0,1.628 -1.3203,2.949 -2.9489,2.949 -1.6286,0 -2.9488,-1.321 -2.9488,-2.949 0,-1.629 1.3202,-2.949 2.9488,-2.949 z" />
      <path d="m -1.47457,169.559 c 1.628599,0 2.94884,1.32 2.94884,2.949 0,1.628 -1.320241,2.949 -2.94884,2.949 -1.62861,0 -2.94885,-1.321 -2.94885,-2.949 0,-1.629 1.32024,-2.949 2.94885,-2.949 z" />
      <path d="m 10.3208,169.559 c 1.6286,0 2.9489,1.32 2.9489,2.949 0,1.628 -1.3203,2.949 -2.9489,2.949 -1.62859,0 -2.94884,-1.321 -2.94884,-2.949 0,-1.629 1.32025,-2.949 2.94884,-2.949 z" />
      <path d="m 22.1162,169.559 c 1.6286,0 2.9488,1.32 2.9488,2.949 0,1.628 -1.3202,2.949 -2.9488,2.949 -1.6286,0 -2.9489,-1.321 -2.9489,-2.949 0,-1.629 1.3203,-2.949 2.9489,-2.949 z" />
      <path d="m 33.9116,169.559 c 1.6286,0 2.9488,1.32 2.9488,2.949 0,1.628 -1.3202,2.949 -2.9488,2.949 -1.6286,0 -2.9489,-1.321 -2.9489,-2.949 0,-1.629 1.3203,-2.949 2.9489,-2.949 z" />
      <path d="m 45.707,169.559 c 1.6286,0 2.9488,1.32 2.9488,2.949 0,1.628 -1.3202,2.949 -2.9488,2.949 -1.6286,0 -2.9489,-1.321 -2.9489,-2.949 0,-1.629 1.3203,-2.949 2.9489,-2.949 z" />
      <path d="m 57.5023,169.559 c 1.6287,0 2.9489,1.32 2.9489,2.949 0,1.628 -1.3202,2.949 -2.9489,2.949 -1.6286,0 -2.9488,-1.321 -2.9488,-2.949 0,-1.629 1.3202,-2.949 2.9488,-2.949 z" />
      <path d="m 69.2977,169.559 c 1.6286,0 2.9489,1.32 2.9489,2.949 0,1.628 -1.3203,2.949 -2.9489,2.949 -1.6286,0 -2.9488,-1.321 -2.9488,-2.949 0,-1.629 1.3202,-2.949 2.9488,-2.949 z" />
      <path d="m 81.0931,169.559 c 1.6286,0 2.9489,1.32 2.9489,2.949 0,1.628 -1.3203,2.949 -2.9489,2.949 -1.6286,0 -2.9488,-1.321 -2.9488,-2.949 0,-1.629 1.3202,-2.949 2.9488,-2.949 z" />
      <path d="m 92.8885,169.559 c 1.6286,0 2.9488,1.32 2.9488,2.949 0,1.628 -1.3202,2.949 -2.9488,2.949 -1.6286,0 -2.9488,-1.321 -2.9488,-2.949 0,-1.629 1.3202,-2.949 2.9488,-2.949 z" />
      <path d="m 104.684,169.559 c 1.628,0 2.949,1.32 2.949,2.949 0,1.628 -1.321,2.949 -2.949,2.949 -1.629,0 -2.949,-1.321 -2.949,-2.949 0,-1.629 1.32,-2.949 2.949,-2.949 z" />
      <path d="m 116.479,169.559 c 1.629,0 2.949,1.32 2.949,2.949 0,1.628 -1.32,2.949 -2.949,2.949 -1.628,0 -2.949,-1.321 -2.949,-2.949 0,-1.629 1.321,-2.949 2.949,-2.949 z" />
      <path d="m 128.275,169.559 c 1.628,0 2.949,1.32 2.949,2.949 0,1.628 -1.321,2.949 -2.949,2.949 -1.629,0 -2.949,-1.321 -2.949,-2.949 0,-1.629 1.32,-2.949 2.949,-2.949 z" />
      <path d="m 140.07,169.559 c 1.629,0 2.949,1.32 2.949,2.949 0,1.628 -1.32,2.949 -2.949,2.949 -1.629,0 -2.949,-1.321 -2.949,-2.949 0,-1.629 1.32,-2.949 2.949,-2.949 z" />
      <path d="m 151.865,169.559 c 1.629,0 2.949,1.32 2.949,2.949 0,1.628 -1.32,2.949 -2.949,2.949 -1.628,0 -2.948,-1.321 -2.948,-2.949 0,-1.629 1.32,-2.949 2.948,-2.949 z" />
      <path d="m 163.661,169.559 c 1.628,0 2.949,1.32 2.949,2.949 0,1.628 -1.321,2.949 -2.949,2.949 -1.629,0 -2.949,-1.321 -2.949,-2.949 0,-1.629 1.32,-2.949 2.949,-2.949 z" />
      <path d="m 175.456,169.559 c 1.629,0 2.949,1.32 2.949,2.949 0,1.628 -1.32,2.949 -2.949,2.949 -1.628,0 -2.949,-1.321 -2.949,-2.949 0,-1.629 1.321,-2.949 2.949,-2.949 z" />
      <path d="m 187.252,169.559 c 1.628,0 2.948,1.32 2.948,2.949 0,1.628 -1.32,2.949 -2.948,2.949 -1.629,0 -2.949,-1.321 -2.949,-2.949 0,-1.629 1.32,-2.949 2.949,-2.949 z" />
      <path d="m 199.047,169.559 c 1.629,0 2.949,1.32 2.949,2.949 0,1.628 -1.32,2.949 -2.949,2.949 -1.629,0 -2.949,-1.321 -2.949,-2.949 0,-1.629 1.32,-2.949 2.949,-2.949 z" />
      <path d="m -36.8607,157.764 c 1.6286,0 2.9488,1.32 2.9488,2.948 0,1.629 -1.3202,2.949 -2.9488,2.949 -1.6286,0 -2.9489,-1.32 -2.9489,-2.949 0,-1.628 1.3203,-2.948 2.9489,-2.948 z" />
      <path d="m -25.0653,157.764 c 1.6286,0 2.9488,1.32 2.9488,2.948 0,1.629 -1.3202,2.949 -2.9488,2.949 -1.6286,0 -2.9489,-1.32 -2.9489,-2.949 0,-1.628 1.3203,-2.948 2.9489,-2.948 z" />
      <path d="m -13.27,157.764 c 1.6286,0 2.9489,1.32 2.9489,2.948 0,1.629 -1.3203,2.949 -2.9489,2.949 -1.6286,0 -2.9488,-1.32 -2.9488,-2.949 0,-1.628 1.3202,-2.948 2.9488,-2.948 z" />
      <path d="m -1.47457,157.764 c 1.628598,0 2.94884,1.32 2.94884,2.948 0,1.629 -1.320241,2.949 -2.94884,2.949 -1.62861,0 -2.94885,-1.32 -2.94885,-2.949 0,-1.628 1.32024,-2.948 2.94885,-2.948 z" />
      <path d="m 10.3208,157.764 c 1.6286,0 2.9489,1.32 2.9489,2.948 0,1.629 -1.3203,2.949 -2.9489,2.949 -1.62859,0 -2.94884,-1.32 -2.94884,-2.949 0,-1.628 1.32025,-2.948 2.94884,-2.948 z" />
      <path d="m 22.1162,157.764 c 1.6286,0 2.9488,1.32 2.9488,2.948 0,1.629 -1.3202,2.949 -2.9488,2.949 -1.6286,0 -2.9489,-1.32 -2.9489,-2.949 0,-1.628 1.3203,-2.948 2.9489,-2.948 z" />
      <path d="m 33.9116,157.764 c 1.6286,0 2.9488,1.32 2.9488,2.948 0,1.629 -1.3202,2.949 -2.9488,2.949 -1.6286,0 -2.9489,-1.32 -2.9489,-2.949 0,-1.628 1.3203,-2.948 2.9489,-2.948 z" />
      <path d="m 45.707,157.764 c 1.6286,0 2.9488,1.32 2.9488,2.948 0,1.629 -1.3202,2.949 -2.9488,2.949 -1.6286,0 -2.9489,-1.32 -2.9489,-2.949 0,-1.628 1.3203,-2.948 2.9489,-2.948 z" />
      <path d="m 57.5023,157.764 c 1.6287,0 2.9489,1.32 2.9489,2.948 0,1.629 -1.3202,2.949 -2.9489,2.949 -1.6286,0 -2.9488,-1.32 -2.9488,-2.949 0,-1.628 1.3202,-2.948 2.9488,-2.948 z" />
      <path d="m 69.2977,157.764 c 1.6286,0 2.9489,1.32 2.9489,2.948 0,1.629 -1.3203,2.949 -2.9489,2.949 -1.6286,0 -2.9488,-1.32 -2.9488,-2.949 0,-1.628 1.3202,-2.948 2.9488,-2.948 z" />
      <path d="m 81.0931,157.764 c 1.6286,0 2.9489,1.32 2.9489,2.948 0,1.629 -1.3203,2.949 -2.9489,2.949 -1.6286,0 -2.9488,-1.32 -2.9488,-2.949 0,-1.628 1.3202,-2.948 2.9488,-2.948 z" />
      <path d="m 92.8885,157.764 c 1.6286,0 2.9488,1.32 2.9488,2.948 0,1.629 -1.3202,2.949 -2.9488,2.949 -1.6286,0 -2.9488,-1.32 -2.9488,-2.949 0,-1.628 1.3202,-2.948 2.9488,-2.948 z" />
      <path d="m 104.684,157.764 c 1.628,0 2.949,1.32 2.949,2.948 0,1.629 -1.321,2.949 -2.949,2.949 -1.629,0 -2.949,-1.32 -2.949,-2.949 0,-1.628 1.32,-2.948 2.949,-2.948 z" />
      <path d="m 116.479,157.764 c 1.629,0 2.949,1.32 2.949,2.948 0,1.629 -1.32,2.949 -2.949,2.949 -1.628,0 -2.949,-1.32 -2.949,-2.949 0,-1.628 1.321,-2.948 2.949,-2.948 z" />
      <path d="m 128.275,157.764 c 1.628,0 2.949,1.32 2.949,2.948 0,1.629 -1.321,2.949 -2.949,2.949 -1.629,0 -2.949,-1.32 -2.949,-2.949 0,-1.628 1.32,-2.948 2.949,-2.948 z" />
      <path d="m 140.07,157.764 c 1.629,0 2.949,1.32 2.949,2.948 0,1.629 -1.32,2.949 -2.949,2.949 -1.629,0 -2.949,-1.32 -2.949,-2.949 0,-1.628 1.32,-2.948 2.949,-2.948 z" />
      <path d="m 151.865,157.764 c 1.629,0 2.949,1.32 2.949,2.948 0,1.629 -1.32,2.949 -2.949,2.949 -1.628,0 -2.948,-1.32 -2.948,-2.949 0,-1.628 1.32,-2.948 2.948,-2.948 z" />
      <path d="m 163.661,157.764 c 1.628,0 2.949,1.32 2.949,2.948 0,1.629 -1.321,2.949 -2.949,2.949 -1.629,0 -2.949,-1.32 -2.949,-2.949 0,-1.628 1.32,-2.948 2.949,-2.948 z" />
      <path d="m 175.456,157.764 c 1.629,0 2.949,1.32 2.949,2.948 0,1.629 -1.32,2.949 -2.949,2.949 -1.628,0 -2.949,-1.32 -2.949,-2.949 0,-1.628 1.321,-2.948 2.949,-2.948 z" />
      <path d="m 187.252,157.764 c 1.628,0 2.948,1.32 2.948,2.948 0,1.629 -1.32,2.949 -2.948,2.949 -1.629,0 -2.949,-1.32 -2.949,-2.949 0,-1.628 1.32,-2.948 2.949,-2.948 z" />
      <path d="m 199.047,157.764 c 1.629,0 2.949,1.32 2.949,2.948 0,1.629 -1.32,2.949 -2.949,2.949 -1.629,0 -2.949,-1.32 -2.949,-2.949 0,-1.628 1.32,-2.948 2.949,-2.948 z" />
      <path d="m -36.8607,145.968 c 1.6286,0 2.9488,1.32 2.9488,2.949 0,1.629 -1.3202,2.949 -2.9488,2.949 -1.6286,0 -2.9489,-1.32 -2.9489,-2.949 0,-1.629 1.3203,-2.949 2.9489,-2.949 z" />
      <path d="m -25.0653,145.968 c 1.6286,0 2.9488,1.32 2.9488,2.949 0,1.629 -1.3202,2.949 -2.9488,2.949 -1.6286,0 -2.9489,-1.32 -2.9489,-2.949 0,-1.629 1.3203,-2.949 2.9489,-2.949 z" />
      <path d="m -13.27,145.968 c 1.6286,0 2.9489,1.32 2.9489,2.949 0,1.629 -1.3203,2.949 -2.9489,2.949 -1.6286,0 -2.9488,-1.32 -2.9488,-2.949 0,-1.629 1.3202,-2.949 2.9488,-2.949 z" />
      <path d="m -1.47457,145.968 c 1.628598,0 2.94884,1.32 2.94884,2.949 0,1.629 -1.320242,2.949 -2.94884,2.949 -1.62861,0 -2.94885,-1.32 -2.94885,-2.949 0,-1.629 1.32024,-2.949 2.94885,-2.949 z" />
      <path d="m 10.3208,145.968 c 1.6286,0 2.9489,1.32 2.9489,2.949 0,1.629 -1.3203,2.949 -2.9489,2.949 -1.62859,0 -2.94884,-1.32 -2.94884,-2.949 0,-1.629 1.32025,-2.949 2.94884,-2.949 z" />
      <path d="m 22.1162,145.968 c 1.6286,0 2.9488,1.32 2.9488,2.949 0,1.629 -1.3202,2.949 -2.9488,2.949 -1.6286,0 -2.9489,-1.32 -2.9489,-2.949 0,-1.629 1.3203,-2.949 2.9489,-2.949 z" />
      <path d="m 33.9116,145.968 c 1.6286,0 2.9488,1.32 2.9488,2.949 0,1.629 -1.3202,2.949 -2.9488,2.949 -1.6286,0 -2.9489,-1.32 -2.9489,-2.949 0,-1.629 1.3203,-2.949 2.9489,-2.949 z" />
      <path d="m 45.707,145.968 c 1.6286,0 2.9488,1.32 2.9488,2.949 0,1.629 -1.3202,2.949 -2.9488,2.949 -1.6286,0 -2.9489,-1.32 -2.9489,-2.949 0,-1.629 1.3203,-2.949 2.9489,-2.949 z" />
      <path d="m 57.5023,145.968 c 1.6286,0 2.9489,1.32 2.9489,2.949 0,1.629 -1.3202,2.949 -2.9489,2.949 -1.6286,0 -2.9488,-1.32 -2.9488,-2.949 0,-1.629 1.3202,-2.949 2.9488,-2.949 z" />
      <path d="m 69.2977,145.968 c 1.6286,0 2.9489,1.32 2.9489,2.949 0,1.629 -1.3203,2.949 -2.9489,2.949 -1.6286,0 -2.9488,-1.32 -2.9488,-2.949 0,-1.629 1.3202,-2.949 2.9488,-2.949 z" />
      <path d="m 81.0931,145.968 c 1.6286,0 2.9489,1.32 2.9489,2.949 0,1.629 -1.3203,2.949 -2.9489,2.949 -1.6286,0 -2.9488,-1.32 -2.9488,-2.949 0,-1.629 1.3202,-2.949 2.9488,-2.949 z" />
      <path d="m 92.8885,145.968 c 1.6286,0 2.9488,1.32 2.9488,2.949 0,1.629 -1.3202,2.949 -2.9488,2.949 -1.6286,0 -2.9488,-1.32 -2.9488,-2.949 0,-1.629 1.3202,-2.949 2.9488,-2.949 z" />
      <path d="m 104.684,145.968 c 1.628,0 2.949,1.32 2.949,2.949 0,1.629 -1.321,2.949 -2.949,2.949 -1.629,0 -2.949,-1.32 -2.949,-2.949 0,-1.629 1.32,-2.949 2.949,-2.949 z" />
      <path d="m 116.479,145.968 c 1.629,0 2.949,1.32 2.949,2.949 0,1.629 -1.32,2.949 -2.949,2.949 -1.628,0 -2.949,-1.32 -2.949,-2.949 0,-1.629 1.321,-2.949 2.949,-2.949 z" />
      <path d="m 128.275,145.968 c 1.628,0 2.948,1.32 2.948,2.949 0,1.629 -1.32,2.949 -2.948,2.949 -1.629,0 -2.949,-1.32 -2.949,-2.949 0,-1.629 1.32,-2.949 2.949,-2.949 z" />
      <path d="m 140.07,145.968 c 1.629,0 2.949,1.32 2.949,2.949 0,1.629 -1.32,2.949 -2.949,2.949 -1.629,0 -2.949,-1.32 -2.949,-2.949 0,-1.629 1.32,-2.949 2.949,-2.949 z" />
      <path d="m 151.865,145.968 c 1.629,0 2.949,1.32 2.949,2.949 0,1.629 -1.32,2.949 -2.949,2.949 -1.628,0 -2.948,-1.32 -2.948,-2.949 0,-1.629 1.32,-2.949 2.948,-2.949 z" />
      <path d="m 163.661,145.968 c 1.628,0 2.949,1.32 2.949,2.949 0,1.629 -1.321,2.949 -2.949,2.949 -1.629,0 -2.949,-1.32 -2.949,-2.949 0,-1.629 1.32,-2.949 2.949,-2.949 z" />
      <path d="m 175.456,145.968 c 1.629,0 2.949,1.32 2.949,2.949 0,1.629 -1.32,2.949 -2.949,2.949 -1.628,0 -2.949,-1.32 -2.949,-2.949 0,-1.629 1.321,-2.949 2.949,-2.949 z" />
      <path d="m 187.252,145.968 c 1.628,0 2.948,1.32 2.948,2.949 0,1.629 -1.32,2.949 -2.948,2.949 -1.629,0 -2.949,-1.32 -2.949,-2.949 0,-1.629 1.32,-2.949 2.949,-2.949 z" />
      <path d="m 199.047,145.968 c 1.629,0 2.949,1.32 2.949,2.949 0,1.629 -1.32,2.949 -2.949,2.949 -1.629,0 -2.949,-1.32 -2.949,-2.949 0,-1.629 1.32,-2.949 2.949,-2.949 z" />
      <path d="m -36.8607,134.173 c 1.6286,0 2.9488,1.32 2.9488,2.949 0,1.628 -1.3202,2.949 -2.9488,2.949 -1.6286,0 -2.9489,-1.321 -2.9489,-2.949 0,-1.629 1.3203,-2.949 2.9489,-2.949 z" />
      <path d="m -25.0653,134.173 c 1.6286,0 2.9488,1.32 2.9488,2.949 0,1.628 -1.3202,2.949 -2.9488,2.949 -1.6286,0 -2.9489,-1.321 -2.9489,-2.949 0,-1.629 1.3203,-2.949 2.9489,-2.949 z" />
      <path d="m -13.27,134.173 c 1.6286,0 2.9489,1.32 2.9489,2.949 0,1.628 -1.3203,2.949 -2.9489,2.949 -1.6286,0 -2.9488,-1.321 -2.9488,-2.949 0,-1.629 1.3202,-2.949 2.9488,-2.949 z" />
      <path d="m -1.47458,134.173 c 1.628607,0 2.94885,1.32 2.94885,2.949 0,1.628 -1.320242,2.949 -2.94885,2.949 -1.6286,0 -2.94884,-1.321 -2.94884,-2.949 0,-1.629 1.32024,-2.949 2.94884,-2.949 z" />
      <path d="m 10.3208,134.173 c 1.6286,0 2.9489,1.32 2.9489,2.949 0,1.628 -1.3203,2.949 -2.9489,2.949 -1.62859,0 -2.94884,-1.321 -2.94884,-2.949 0,-1.629 1.32025,-2.949 2.94884,-2.949 z" />
      <path d="m 22.1162,134.173 c 1.6286,0 2.9488,1.32 2.9488,2.949 0,1.628 -1.3202,2.949 -2.9488,2.949 -1.6286,0 -2.9489,-1.321 -2.9489,-2.949 0,-1.629 1.3203,-2.949 2.9489,-2.949 z" />
      <path d="m 33.9116,134.173 c 1.6286,0 2.9488,1.32 2.9488,2.949 0,1.628 -1.3202,2.949 -2.9488,2.949 -1.6286,0 -2.9489,-1.321 -2.9489,-2.949 0,-1.629 1.3203,-2.949 2.9489,-2.949 z" />
      <path d="m 45.707,134.173 c 1.6286,0 2.9488,1.32 2.9488,2.949 0,1.628 -1.3202,2.949 -2.9488,2.949 -1.6286,0 -2.9489,-1.321 -2.9489,-2.949 0,-1.629 1.3203,-2.949 2.9489,-2.949 z" />
      <path d="m 57.5023,134.173 c 1.6286,0 2.9489,1.32 2.9489,2.949 0,1.628 -1.3203,2.949 -2.9489,2.949 -1.6286,0 -2.9488,-1.321 -2.9488,-2.949 0,-1.629 1.3202,-2.949 2.9488,-2.949 z" />
      <path d="m 69.2977,134.173 c 1.6286,0 2.9489,1.32 2.9489,2.949 0,1.628 -1.3203,2.949 -2.9489,2.949 -1.6286,0 -2.9488,-1.321 -2.9488,-2.949 0,-1.629 1.3202,-2.949 2.9488,-2.949 z" />
      <path d="m 81.0931,134.173 c 1.6286,0 2.9489,1.32 2.9489,2.949 0,1.628 -1.3203,2.949 -2.9489,2.949 -1.6286,0 -2.9488,-1.321 -2.9488,-2.949 0,-1.629 1.3202,-2.949 2.9488,-2.949 z" />
      <path d="m 92.8885,134.173 c 1.6286,0 2.9488,1.32 2.9488,2.949 0,1.628 -1.3202,2.949 -2.9488,2.949 -1.6286,0 -2.9488,-1.321 -2.9488,-2.949 0,-1.629 1.3202,-2.949 2.9488,-2.949 z" />
      <path d="m 104.684,134.173 c 1.628,0 2.949,1.32 2.949,2.949 0,1.628 -1.321,2.949 -2.949,2.949 -1.629,0 -2.949,-1.321 -2.949,-2.949 0,-1.629 1.32,-2.949 2.949,-2.949 z" />
      <path d="m 116.479,134.173 c 1.629,0 2.949,1.32 2.949,2.949 0,1.628 -1.32,2.949 -2.949,2.949 -1.628,0 -2.949,-1.321 -2.949,-2.949 0,-1.629 1.321,-2.949 2.949,-2.949 z" />
      <path d="m 128.275,134.173 c 1.628,0 2.948,1.32 2.948,2.949 0,1.628 -1.32,2.949 -2.948,2.949 -1.629,0 -2.949,-1.321 -2.949,-2.949 0,-1.629 1.32,-2.949 2.949,-2.949 z" />
      <path d="m 140.07,134.173 c 1.629,0 2.949,1.32 2.949,2.949 0,1.628 -1.32,2.949 -2.949,2.949 -1.629,0 -2.949,-1.321 -2.949,-2.949 0,-1.629 1.32,-2.949 2.949,-2.949 z" />
      <path d="m 151.865,134.173 c 1.629,0 2.949,1.32 2.949,2.949 0,1.628 -1.32,2.949 -2.949,2.949 -1.628,0 -2.948,-1.321 -2.948,-2.949 0,-1.629 1.32,-2.949 2.948,-2.949 z" />
      <path d="m 163.661,134.173 c 1.628,0 2.949,1.32 2.949,2.949 0,1.628 -1.321,2.949 -2.949,2.949 -1.629,0 -2.949,-1.321 -2.949,-2.949 0,-1.629 1.32,-2.949 2.949,-2.949 z" />
      <path d="m 175.456,134.173 c 1.629,0 2.949,1.32 2.949,2.949 0,1.628 -1.32,2.949 -2.949,2.949 -1.628,0 -2.949,-1.321 -2.949,-2.949 0,-1.629 1.321,-2.949 2.949,-2.949 z" />
      <path d="m 187.252,134.173 c 1.628,0 2.948,1.32 2.948,2.949 0,1.628 -1.32,2.949 -2.948,2.949 -1.629,0 -2.949,-1.321 -2.949,-2.949 0,-1.629 1.32,-2.949 2.949,-2.949 z" />
      <path d="m 199.047,134.173 c 1.629,0 2.949,1.32 2.949,2.949 0,1.628 -1.32,2.949 -2.949,2.949 -1.629,0 -2.949,-1.321 -2.949,-2.949 0,-1.629 1.32,-2.949 2.949,-2.949 z" />
      <path d="m -36.8607,122.377 c 1.6286,0 2.9488,1.321 2.9488,2.949 0,1.629 -1.3202,2.949 -2.9488,2.949 -1.6286,0 -2.9489,-1.32 -2.9489,-2.949 0,-1.628 1.3203,-2.949 2.9489,-2.949 z" />
      <path d="m -25.0653,122.377 c 1.6286,0 2.9488,1.321 2.9488,2.949 0,1.629 -1.3202,2.949 -2.9488,2.949 -1.6286,0 -2.9489,-1.32 -2.9489,-2.949 0,-1.628 1.3203,-2.949 2.9489,-2.949 z" />
      <path d="m -13.27,122.377 c 1.6286,0 2.9489,1.321 2.9489,2.949 0,1.629 -1.3203,2.949 -2.9489,2.949 -1.6286,0 -2.9488,-1.32 -2.9488,-2.949 0,-1.628 1.3202,-2.949 2.9488,-2.949 z" />
      <path d="m -1.47458,122.377 c 1.628607,0 2.94885,1.321 2.94885,2.949 0,1.629 -1.320243,2.949 -2.94885,2.949 -1.6286,0 -2.94884,-1.32 -2.94884,-2.949 0,-1.628 1.32024,-2.949 2.94884,-2.949 z" />
      <path d="m 10.3208,122.377 c 1.6286,0 2.9489,1.321 2.9489,2.949 0,1.629 -1.3203,2.949 -2.9489,2.949 -1.62859,0 -2.94884,-1.32 -2.94884,-2.949 0,-1.628 1.32025,-2.949 2.94884,-2.949 z" />
      <path d="m 22.1162,122.377 c 1.6286,0 2.9488,1.321 2.9488,2.949 0,1.629 -1.3202,2.949 -2.9488,2.949 -1.6286,0 -2.9489,-1.32 -2.9489,-2.949 0,-1.628 1.3203,-2.949 2.9489,-2.949 z" />
      <path d="m 33.9116,122.377 c 1.6286,0 2.9488,1.321 2.9488,2.949 0,1.629 -1.3202,2.949 -2.9488,2.949 -1.6286,0 -2.9489,-1.32 -2.9489,-2.949 0,-1.628 1.3203,-2.949 2.9489,-2.949 z" />
      <path d="m 45.707,122.377 c 1.6286,0 2.9488,1.321 2.9488,2.949 0,1.629 -1.3202,2.949 -2.9488,2.949 -1.6286,0 -2.9489,-1.32 -2.9489,-2.949 0,-1.628 1.3203,-2.949 2.9489,-2.949 z" />
      <path d="m 57.5023,122.377 c 1.6286,0 2.9489,1.321 2.9489,2.949 0,1.629 -1.3203,2.949 -2.9489,2.949 -1.6286,0 -2.9488,-1.32 -2.9488,-2.949 0,-1.628 1.3202,-2.949 2.9488,-2.949 z" />
      <path d="m 69.2977,122.377 c 1.6286,0 2.9489,1.321 2.9489,2.949 0,1.629 -1.3203,2.949 -2.9489,2.949 -1.6286,0 -2.9488,-1.32 -2.9488,-2.949 0,-1.628 1.3202,-2.949 2.9488,-2.949 z" />
      <path d="m 81.0931,122.377 c 1.6286,0 2.9489,1.321 2.9489,2.949 0,1.629 -1.3203,2.949 -2.9489,2.949 -1.6286,0 -2.9488,-1.32 -2.9488,-2.949 0,-1.628 1.3202,-2.949 2.9488,-2.949 z" />
      <path d="m 92.8885,122.377 c 1.6286,0 2.9488,1.321 2.9488,2.949 0,1.629 -1.3202,2.949 -2.9488,2.949 -1.6286,0 -2.9488,-1.32 -2.9488,-2.949 0,-1.628 1.3202,-2.949 2.9488,-2.949 z" />
      <path d="m 104.684,122.377 c 1.628,0 2.949,1.321 2.949,2.949 0,1.629 -1.321,2.949 -2.949,2.949 -1.629,0 -2.949,-1.32 -2.949,-2.949 0,-1.628 1.32,-2.949 2.949,-2.949 z" />
      <path d="m 116.479,122.377 c 1.629,0 2.949,1.321 2.949,2.949 0,1.629 -1.32,2.949 -2.949,2.949 -1.628,0 -2.949,-1.32 -2.949,-2.949 0,-1.628 1.321,-2.949 2.949,-2.949 z" />
      <path d="m 128.275,122.377 c 1.628,0 2.948,1.321 2.948,2.949 0,1.629 -1.32,2.949 -2.948,2.949 -1.629,0 -2.949,-1.32 -2.949,-2.949 0,-1.628 1.32,-2.949 2.949,-2.949 z" />
      <path d="m 140.07,122.377 c 1.629,0 2.949,1.321 2.949,2.949 0,1.629 -1.32,2.949 -2.949,2.949 -1.629,0 -2.949,-1.32 -2.949,-2.949 0,-1.628 1.32,-2.949 2.949,-2.949 z" />
      <path d="m 151.865,122.377 c 1.629,0 2.949,1.321 2.949,2.949 0,1.629 -1.32,2.949 -2.949,2.949 -1.628,0 -2.948,-1.32 -2.948,-2.949 0,-1.628 1.32,-2.949 2.948,-2.949 z" />
      <path d="m 163.661,122.377 c 1.628,0 2.949,1.321 2.949,2.949 0,1.629 -1.321,2.949 -2.949,2.949 -1.629,0 -2.949,-1.32 -2.949,-2.949 0,-1.628 1.32,-2.949 2.949,-2.949 z" />
      <path d="m 175.456,122.377 c 1.629,0 2.949,1.321 2.949,2.949 0,1.629 -1.32,2.949 -2.949,2.949 -1.628,0 -2.949,-1.32 -2.949,-2.949 0,-1.628 1.321,-2.949 2.949,-2.949 z" />
      <path d="m 187.252,122.377 c 1.628,0 2.948,1.321 2.948,2.949 0,1.629 -1.32,2.949 -2.948,2.949 -1.629,0 -2.949,-1.32 -2.949,-2.949 0,-1.628 1.32,-2.949 2.949,-2.949 z" />
      <path d="m 199.047,122.377 c 1.629,0 2.949,1.321 2.949,2.949 0,1.629 -1.32,2.949 -2.949,2.949 -1.629,0 -2.949,-1.32 -2.949,-2.949 0,-1.628 1.32,-2.949 2.949,-2.949 z" />
      <path d="m -36.8607,110.582 c 1.6286,0 2.9488,1.32 2.9488,2.949 0,1.629 -1.3202,2.949 -2.9488,2.949 -1.6286,0 -2.9489,-1.32 -2.9489,-2.949 0,-1.629 1.3203,-2.949 2.9489,-2.949 z" />
      <path d="m -25.0653,110.582 c 1.6286,0 2.9488,1.32 2.9488,2.949 0,1.629 -1.3202,2.949 -2.9488,2.949 -1.6286,0 -2.9489,-1.32 -2.9489,-2.949 0,-1.629 1.3203,-2.949 2.9489,-2.949 z" />
      <path d="m -13.27,110.582 c 1.6286,0 2.9489,1.32 2.9489,2.949 0,1.629 -1.3203,2.949 -2.9489,2.949 -1.6286,0 -2.9488,-1.32 -2.9488,-2.949 0,-1.629 1.3202,-2.949 2.9488,-2.949 z" />
      <path d="m -1.47458,110.582 c 1.628606,0 2.94885,1.32 2.94885,2.949 0,1.629 -1.320243,2.949 -2.94885,2.949 -1.6286,0 -2.94884,-1.32 -2.94884,-2.949 0,-1.629 1.32024,-2.949 2.94884,-2.949 z" />
      <path d="m 10.3208,110.582 c 1.6286,0 2.9489,1.32 2.9489,2.949 0,1.629 -1.3203,2.949 -2.9489,2.949 -1.62859,0 -2.94884,-1.32 -2.94884,-2.949 0,-1.629 1.32025,-2.949 2.94884,-2.949 z" />
      <path d="m 22.1162,110.582 c 1.6286,0 2.9488,1.32 2.9488,2.949 0,1.629 -1.3202,2.949 -2.9488,2.949 -1.6286,0 -2.9489,-1.32 -2.9489,-2.949 0,-1.629 1.3203,-2.949 2.9489,-2.949 z" />
      <path d="m 33.9116,110.582 c 1.6286,0 2.9488,1.32 2.9488,2.949 0,1.629 -1.3202,2.949 -2.9488,2.949 -1.6286,0 -2.9489,-1.32 -2.9489,-2.949 0,-1.629 1.3203,-2.949 2.9489,-2.949 z" />
      <path d="m 45.707,110.582 c 1.6286,0 2.9488,1.32 2.9488,2.949 0,1.629 -1.3202,2.949 -2.9488,2.949 -1.6286,0 -2.9489,-1.32 -2.9489,-2.949 0,-1.629 1.3203,-2.949 2.9489,-2.949 z" />
      <path d="m 57.5023,110.582 c 1.6286,0 2.9489,1.32 2.9489,2.949 0,1.629 -1.3203,2.949 -2.9489,2.949 -1.6286,0 -2.9488,-1.32 -2.9488,-2.949 0,-1.629 1.3202,-2.949 2.9488,-2.949 z" />
      <path d="m 69.2977,110.582 c 1.6286,0 2.9489,1.32 2.9489,2.949 0,1.629 -1.3203,2.949 -2.9489,2.949 -1.6286,0 -2.9488,-1.32 -2.9488,-2.949 0,-1.629 1.3202,-2.949 2.9488,-2.949 z" />
      <path d="m 81.0931,110.582 c 1.6286,0 2.9489,1.32 2.9489,2.949 0,1.629 -1.3203,2.949 -2.9489,2.949 -1.6286,0 -2.9488,-1.32 -2.9488,-2.949 0,-1.629 1.3202,-2.949 2.9488,-2.949 z" />
      <path d="m 92.8885,110.582 c 1.6286,0 2.9488,1.32 2.9488,2.949 0,1.629 -1.3202,2.949 -2.9488,2.949 -1.6286,0 -2.9488,-1.32 -2.9488,-2.949 0,-1.629 1.3202,-2.949 2.9488,-2.949 z" />
      <path d="m 104.684,110.582 c 1.628,0 2.949,1.32 2.949,2.949 0,1.629 -1.321,2.949 -2.949,2.949 -1.629,0 -2.949,-1.32 -2.949,-2.949 0,-1.629 1.32,-2.949 2.949,-2.949 z" />
      <path d="m 116.479,110.582 c 1.629,0 2.949,1.32 2.949,2.949 0,1.629 -1.32,2.949 -2.949,2.949 -1.628,0 -2.949,-1.32 -2.949,-2.949 0,-1.629 1.321,-2.949 2.949,-2.949 z" />
      <path d="m 128.275,110.582 c 1.628,0 2.948,1.32 2.948,2.949 0,1.629 -1.32,2.949 -2.948,2.949 -1.629,0 -2.949,-1.32 -2.949,-2.949 0,-1.629 1.32,-2.949 2.949,-2.949 z" />
      <path d="m 140.07,110.582 c 1.629,0 2.949,1.32 2.949,2.949 0,1.629 -1.32,2.949 -2.949,2.949 -1.629,0 -2.949,-1.32 -2.949,-2.949 0,-1.629 1.32,-2.949 2.949,-2.949 z" />
      <path d="m 151.865,110.582 c 1.629,0 2.949,1.32 2.949,2.949 0,1.629 -1.32,2.949 -2.949,2.949 -1.628,0 -2.948,-1.32 -2.948,-2.949 0,-1.629 1.32,-2.949 2.948,-2.949 z" />
      <path d="m 163.661,110.582 c 1.628,0 2.949,1.32 2.949,2.949 0,1.629 -1.321,2.949 -2.949,2.949 -1.629,0 -2.949,-1.32 -2.949,-2.949 0,-1.629 1.32,-2.949 2.949,-2.949 z" />
      <path d="m 175.456,110.582 c 1.629,0 2.949,1.32 2.949,2.949 0,1.629 -1.32,2.949 -2.949,2.949 -1.628,0 -2.949,-1.32 -2.949,-2.949 0,-1.629 1.321,-2.949 2.949,-2.949 z" />
      <path d="m 187.252,110.582 c 1.628,0 2.948,1.32 2.948,2.949 0,1.629 -1.32,2.949 -2.948,2.949 -1.629,0 -2.949,-1.32 -2.949,-2.949 0,-1.629 1.32,-2.949 2.949,-2.949 z" />
      <path d="m 199.047,110.582 c 1.629,0 2.949,1.32 2.949,2.949 0,1.629 -1.32,2.949 -2.949,2.949 -1.629,0 -2.949,-1.32 -2.949,-2.949 0,-1.629 1.32,-2.949 2.949,-2.949 z" />
      <path d="m -36.8607,98.7867 c 1.6286,0 2.9488,1.3203 2.9488,2.9493 0,1.628 -1.3202,2.948 -2.9488,2.948 -1.6286,0 -2.9489,-1.32 -2.9489,-2.948 0,-1.629 1.3203,-2.9493 2.9489,-2.9493 z" />
      <path d="m -25.0653,98.7867 c 1.6286,0 2.9488,1.3203 2.9488,2.9493 0,1.628 -1.3202,2.948 -2.9488,2.948 -1.6286,0 -2.9489,-1.32 -2.9489,-2.948 0,-1.629 1.3203,-2.9493 2.9489,-2.9493 z" />
      <path d="m -13.27,98.7867 c 1.6286,0 2.9489,1.3203 2.9489,2.9493 0,1.628 -1.3203,2.948 -2.9489,2.948 -1.6286,0 -2.9488,-1.32 -2.9488,-2.948 0,-1.629 1.3202,-2.9493 2.9488,-2.9493 z" />
      <path d="m -1.47458,98.7867 c 1.628606,0 2.94885,1.3203 2.94885,2.9493 0,1.628 -1.320244,2.948 -2.94885,2.948 -1.6286,0 -2.94884,-1.32 -2.94884,-2.948 0,-1.629 1.32024,-2.9493 2.94884,-2.9493 z" />
      <path d="m 10.3208,98.7867 c 1.6286,0 2.9489,1.3203 2.9489,2.9493 0,1.628 -1.3203,2.948 -2.9489,2.948 -1.6286,0 -2.94884,-1.32 -2.94884,-2.948 0,-1.629 1.32024,-2.9493 2.94884,-2.9493 z" />
      <path d="m 22.1162,98.7867 c 1.6286,0 2.9488,1.3203 2.9488,2.9493 0,1.628 -1.3202,2.948 -2.9488,2.948 -1.6286,0 -2.9489,-1.32 -2.9489,-2.948 0,-1.629 1.3203,-2.9493 2.9489,-2.9493 z" />
      <path d="m 33.9116,98.7867 c 1.6286,0 2.9488,1.3203 2.9488,2.9493 0,1.628 -1.3202,2.948 -2.9488,2.948 -1.6286,0 -2.9489,-1.32 -2.9489,-2.948 0,-1.629 1.3203,-2.9493 2.9489,-2.9493 z" />
      <path d="m 45.707,98.7867 c 1.6286,0 2.9488,1.3203 2.9488,2.9493 0,1.628 -1.3202,2.948 -2.9488,2.948 -1.6286,0 -2.9489,-1.32 -2.9489,-2.948 0,-1.629 1.3203,-2.9493 2.9489,-2.9493 z" />
      <path d="m 57.5023,98.7867 c 1.6286,0 2.9489,1.3203 2.9489,2.9493 0,1.628 -1.3203,2.948 -2.9489,2.948 -1.6286,0 -2.9488,-1.32 -2.9488,-2.948 0,-1.629 1.3202,-2.9493 2.9488,-2.9493 z" />
      <path d="m 69.2977,98.7867 c 1.6286,0 2.9489,1.3203 2.9489,2.9493 0,1.628 -1.3203,2.948 -2.9489,2.948 -1.6286,0 -2.9488,-1.32 -2.9488,-2.948 0,-1.629 1.3202,-2.9493 2.9488,-2.9493 z" />
      <path d="m 81.0931,98.7867 c 1.6286,0 2.9489,1.3203 2.9489,2.9493 0,1.628 -1.3203,2.948 -2.9489,2.948 -1.6286,0 -2.9488,-1.32 -2.9488,-2.948 0,-1.629 1.3202,-2.9493 2.9488,-2.9493 z" />
      <path d="m 92.8885,98.7867 c 1.6286,0 2.9488,1.3203 2.9488,2.9493 0,1.628 -1.3202,2.948 -2.9488,2.948 -1.6286,0 -2.9488,-1.32 -2.9488,-2.948 0,-1.629 1.3202,-2.9493 2.9488,-2.9493 z" />
      <path d="m 104.684,98.7867 c 1.628,0 2.949,1.3203 2.949,2.9493 0,1.628 -1.321,2.948 -2.949,2.948 -1.629,0 -2.949,-1.32 -2.949,-2.948 0,-1.629 1.32,-2.9493 2.949,-2.9493 z" />
      <path d="m 116.479,98.7867 c 1.629,0 2.949,1.3203 2.949,2.9493 0,1.628 -1.32,2.948 -2.949,2.948 -1.628,0 -2.949,-1.32 -2.949,-2.948 0,-1.629 1.321,-2.9493 2.949,-2.9493 z" />
      <path d="m 128.275,98.7867 c 1.628,0 2.948,1.3203 2.948,2.9493 0,1.628 -1.32,2.948 -2.948,2.948 -1.629,0 -2.949,-1.32 -2.949,-2.948 0,-1.629 1.32,-2.9493 2.949,-2.9493 z" />
      <path d="m 140.07,98.7867 c 1.629,0 2.949,1.3203 2.949,2.9493 0,1.628 -1.32,2.948 -2.949,2.948 -1.629,0 -2.949,-1.32 -2.949,-2.948 0,-1.629 1.32,-2.9493 2.949,-2.9493 z" />
      <path d="m 151.865,98.7867 c 1.629,0 2.949,1.3203 2.949,2.9493 0,1.628 -1.32,2.948 -2.949,2.948 -1.628,0 -2.948,-1.32 -2.948,-2.948 0,-1.629 1.32,-2.9493 2.948,-2.9493 z" />
      <path d="m 163.661,98.7867 c 1.628,0 2.949,1.3203 2.949,2.9493 0,1.628 -1.321,2.948 -2.949,2.948 -1.629,0 -2.949,-1.32 -2.949,-2.948 0,-1.629 1.32,-2.9493 2.949,-2.9493 z" />
      <path d="m 175.456,98.7867 c 1.629,0 2.949,1.3203 2.949,2.9493 0,1.628 -1.32,2.948 -2.949,2.948 -1.628,0 -2.949,-1.32 -2.949,-2.948 0,-1.629 1.321,-2.9493 2.949,-2.9493 z" />
      <path d="m 187.252,98.7867 c 1.628,0 2.948,1.3203 2.948,2.9493 0,1.628 -1.32,2.948 -2.948,2.948 -1.629,0 -2.949,-1.32 -2.949,-2.948 0,-1.629 1.32,-2.9493 2.949,-2.9493 z" />
      <path d="m 199.047,98.7867 c 1.629,0 2.949,1.3203 2.949,2.9493 0,1.628 -1.32,2.948 -2.949,2.948 -1.629,0 -2.949,-1.32 -2.949,-2.948 0,-1.629 1.32,-2.9493 2.949,-2.9493 z" />
      <path d="m -36.8607,86.9913 c 1.6286,0 2.9488,1.3202 2.9488,2.9488 0,1.6286 -1.3202,2.9489 -2.9488,2.9489 -1.6286,0 -2.9489,-1.3203 -2.9489,-2.9489 0,-1.6286 1.3203,-2.9488 2.9489,-2.9488 z" />
      <path d="m -25.0653,86.9913 c 1.6286,0 2.9488,1.3202 2.9488,2.9488 0,1.6286 -1.3202,2.9489 -2.9488,2.9489 -1.6286,0 -2.9489,-1.3203 -2.9489,-2.9489 0,-1.6286 1.3203,-2.9488 2.9489,-2.9488 z" />
      <path d="m -13.27,86.9913 c 1.6286,0 2.9489,1.3202 2.9489,2.9488 0,1.6286 -1.3203,2.9489 -2.9489,2.9489 -1.6286,0 -2.9488,-1.3203 -2.9488,-2.9489 0,-1.6286 1.3202,-2.9488 2.9488,-2.9488 z" />
      <path d="m -1.47458,86.9913 c 1.628605,0 2.94885,1.3202 2.94885,2.9488 0,1.6286 -1.320244,2.9489 -2.94885,2.9489 -1.6286,0 -2.94884,-1.3203 -2.94884,-2.9489 0,-1.6286 1.32024,-2.9488 2.94884,-2.9488 z" />
      <path d="m 10.3208,86.9913 c 1.6286,0 2.9489,1.3202 2.9489,2.9488 0,1.6286 -1.3203,2.9489 -2.9489,2.9489 -1.6286,0 -2.94884,-1.3203 -2.94884,-2.9489 0,-1.6286 1.32024,-2.9488 2.94884,-2.9488 z" />
      <path d="m 22.1162,86.9913 c 1.6286,0 2.9488,1.3202 2.9488,2.9488 0,1.6286 -1.3202,2.9489 -2.9488,2.9489 -1.6286,0 -2.9489,-1.3203 -2.9489,-2.9489 0,-1.6286 1.3203,-2.9488 2.9489,-2.9488 z" />
      <path d="m 33.9116,86.9913 c 1.6286,0 2.9488,1.3202 2.9488,2.9488 0,1.6286 -1.3202,2.9489 -2.9488,2.9489 -1.6286,0 -2.9489,-1.3203 -2.9489,-2.9489 0,-1.6286 1.3203,-2.9488 2.9489,-2.9488 z" />
      <path d="m 45.707,86.9913 c 1.6286,0 2.9488,1.3202 2.9488,2.9488 0,1.6286 -1.3202,2.9489 -2.9488,2.9489 -1.6286,0 -2.9489,-1.3203 -2.9489,-2.9489 0,-1.6286 1.3203,-2.9488 2.9489,-2.9488 z" />
      <path d="m 57.5023,86.9913 c 1.6286,0 2.9489,1.3202 2.9489,2.9488 0,1.6286 -1.3203,2.9489 -2.9489,2.9489 -1.6286,0 -2.9488,-1.3203 -2.9488,-2.9489 0,-1.6286 1.3202,-2.9488 2.9488,-2.9488 z" />
      <path d="m 69.2977,86.9913 c 1.6286,0 2.9489,1.3202 2.9489,2.9488 0,1.6286 -1.3203,2.9489 -2.9489,2.9489 -1.6286,0 -2.9488,-1.3203 -2.9488,-2.9489 0,-1.6286 1.3202,-2.9488 2.9488,-2.9488 z" />
      <path d="m 81.0931,86.9913 c 1.6286,0 2.9489,1.3202 2.9489,2.9488 0,1.6286 -1.3203,2.9489 -2.9489,2.9489 -1.6286,0 -2.9488,-1.3203 -2.9488,-2.9489 0,-1.6286 1.3202,-2.9488 2.9488,-2.9488 z" />
      <path d="m 92.8885,86.9913 c 1.6286,0 2.9488,1.3202 2.9488,2.9488 0,1.6286 -1.3202,2.9489 -2.9488,2.9489 -1.6286,0 -2.9488,-1.3203 -2.9488,-2.9489 0,-1.6286 1.3202,-2.9488 2.9488,-2.9488 z" />
      <path d="m 104.684,86.9913 c 1.628,0 2.949,1.3202 2.949,2.9488 0,1.6286 -1.321,2.9489 -2.949,2.9489 -1.629,0 -2.949,-1.3203 -2.949,-2.9489 0,-1.6286 1.32,-2.9488 2.949,-2.9488 z" />
      <path d="m 116.479,86.9913 c 1.629,0 2.949,1.3202 2.949,2.9488 0,1.6286 -1.32,2.9489 -2.949,2.9489 -1.628,0 -2.949,-1.3203 -2.949,-2.9489 0,-1.6286 1.321,-2.9488 2.949,-2.9488 z" />
      <path d="m 128.275,86.9913 c 1.628,0 2.948,1.3202 2.948,2.9488 0,1.6286 -1.32,2.9489 -2.948,2.9489 -1.629,0 -2.949,-1.3203 -2.949,-2.9489 0,-1.6286 1.32,-2.9488 2.949,-2.9488 z" />
      <path d="m 140.07,86.9913 c 1.629,0 2.949,1.3202 2.949,2.9488 0,1.6286 -1.32,2.9489 -2.949,2.9489 -1.629,0 -2.949,-1.3203 -2.949,-2.9489 0,-1.6286 1.32,-2.9488 2.949,-2.9488 z" />
      <path d="m 151.865,86.9913 c 1.629,0 2.949,1.3202 2.949,2.9488 0,1.6286 -1.32,2.9489 -2.949,2.9489 -1.628,0 -2.948,-1.3203 -2.948,-2.9489 0,-1.6286 1.32,-2.9488 2.948,-2.9488 z" />
      <path d="m 163.661,86.9913 c 1.628,0 2.949,1.3202 2.949,2.9488 0,1.6286 -1.321,2.9489 -2.949,2.9489 -1.629,0 -2.949,-1.3203 -2.949,-2.9489 0,-1.6286 1.32,-2.9488 2.949,-2.9488 z" />
      <path d="m 175.456,86.9913 c 1.629,0 2.949,1.3202 2.949,2.9488 0,1.6286 -1.32,2.9489 -2.949,2.9489 -1.628,0 -2.949,-1.3203 -2.949,-2.9489 0,-1.6286 1.321,-2.9488 2.949,-2.9488 z" />
      <path d="m 187.252,86.9913 c 1.628,0 2.948,1.3202 2.948,2.9488 0,1.6286 -1.32,2.9489 -2.948,2.9489 -1.629,0 -2.949,-1.3203 -2.949,-2.9489 0,-1.6286 1.32,-2.9488 2.949,-2.9488 z" />
      <path d="m 199.047,86.9913 c 1.629,0 2.949,1.3202 2.949,2.9488 0,1.6286 -1.32,2.9489 -2.949,2.9489 -1.629,0 -2.949,-1.3203 -2.949,-2.9489 0,-1.6286 1.32,-2.9488 2.949,-2.9488 z" />
      <path d="m -36.8607,75.1959 c 1.6286,0 2.9488,1.3203 2.9488,2.9489 0,1.6286 -1.3202,2.9488 -2.9488,2.9488 -1.6286,0 -2.9489,-1.3202 -2.9489,-2.9488 0,-1.6286 1.3203,-2.9489 2.9489,-2.9489 z" />
      <path d="m -25.0653,75.1959 c 1.6286,0 2.9488,1.3203 2.9488,2.9489 0,1.6286 -1.3202,2.9488 -2.9488,2.9488 -1.6286,0 -2.9489,-1.3202 -2.9489,-2.9488 0,-1.6286 1.3203,-2.9489 2.9489,-2.9489 z" />
      <path d="m -13.27,75.1959 c 1.6286,0 2.9489,1.3203 2.9489,2.9489 0,1.6286 -1.3203,2.9488 -2.9489,2.9488 -1.6286,0 -2.9488,-1.3202 -2.9488,-2.9488 0,-1.6286 1.3202,-2.9489 2.9488,-2.9489 z" />
      <path d="m -1.47458,75.1959 c 1.628605,0 2.94885,1.3203 2.94885,2.9489 0,1.6286 -1.320245,2.9488 -2.94885,2.9488 -1.6286,0 -2.94884,-1.3202 -2.94884,-2.9488 0,-1.6286 1.32024,-2.9489 2.94884,-2.9489 z" />
      <path d="m 10.3208,75.1959 c 1.6286,0 2.9489,1.3203 2.9489,2.9489 0,1.6286 -1.3203,2.9488 -2.9489,2.9488 -1.6286,0 -2.94884,-1.3202 -2.94884,-2.9488 0,-1.6286 1.32024,-2.9489 2.94884,-2.9489 z" />
      <path d="m 22.1162,75.1959 c 1.6286,0 2.9488,1.3203 2.9488,2.9489 0,1.6286 -1.3202,2.9488 -2.9488,2.9488 -1.6286,0 -2.9489,-1.3202 -2.9489,-2.9488 0,-1.6286 1.3203,-2.9489 2.9489,-2.9489 z" />
      <path d="m 33.9116,75.1959 c 1.6286,0 2.9488,1.3203 2.9488,2.9489 0,1.6286 -1.3202,2.9488 -2.9488,2.9488 -1.6286,0 -2.9489,-1.3202 -2.9489,-2.9488 0,-1.6286 1.3203,-2.9489 2.9489,-2.9489 z" />
      <path d="m 45.707,75.1959 c 1.6286,0 2.9488,1.3203 2.9488,2.9489 0,1.6286 -1.3202,2.9488 -2.9488,2.9488 -1.6286,0 -2.9489,-1.3202 -2.9489,-2.9488 0,-1.6286 1.3203,-2.9489 2.9489,-2.9489 z" />
      <path d="m 57.5023,75.1959 c 1.6286,0 2.9489,1.3203 2.9489,2.9489 0,1.6286 -1.3203,2.9488 -2.9489,2.9488 -1.6286,0 -2.9488,-1.3202 -2.9488,-2.9488 0,-1.6286 1.3202,-2.9489 2.9488,-2.9489 z" />
      <path d="m 69.2977,75.1959 c 1.6286,0 2.9489,1.3203 2.9489,2.9489 0,1.6286 -1.3203,2.9488 -2.9489,2.9488 -1.6286,0 -2.9488,-1.3202 -2.9488,-2.9488 0,-1.6286 1.3202,-2.9489 2.9488,-2.9489 z" />
      <path d="m 81.0931,75.1959 c 1.6286,0 2.9489,1.3203 2.9489,2.9489 0,1.6286 -1.3203,2.9488 -2.9489,2.9488 -1.6286,0 -2.9488,-1.3202 -2.9488,-2.9488 0,-1.6286 1.3202,-2.9489 2.9488,-2.9489 z" />
      <path d="m 92.8885,75.1959 c 1.6286,0 2.9488,1.3203 2.9488,2.9489 0,1.6286 -1.3202,2.9488 -2.9488,2.9488 -1.6286,0 -2.9488,-1.3202 -2.9488,-2.9488 0,-1.6286 1.3202,-2.9489 2.9488,-2.9489 z" />
      <path d="m 104.684,75.1959 c 1.628,0 2.949,1.3203 2.949,2.9489 0,1.6286 -1.321,2.9488 -2.949,2.9488 -1.629,0 -2.949,-1.3202 -2.949,-2.9488 0,-1.6286 1.32,-2.9489 2.949,-2.9489 z" />
      <path d="m 116.479,75.1959 c 1.629,0 2.949,1.3203 2.949,2.9489 0,1.6286 -1.32,2.9488 -2.949,2.9488 -1.628,0 -2.949,-1.3202 -2.949,-2.9488 0,-1.6286 1.321,-2.9489 2.949,-2.9489 z" />
      <path d="m 128.275,75.1959 c 1.628,0 2.948,1.3203 2.948,2.9489 0,1.6286 -1.32,2.9488 -2.948,2.9488 -1.629,0 -2.949,-1.3202 -2.949,-2.9488 0,-1.6286 1.32,-2.9489 2.949,-2.9489 z" />
      <path d="m 140.07,75.1959 c 1.629,0 2.949,1.3203 2.949,2.9489 0,1.6286 -1.32,2.9488 -2.949,2.9488 -1.629,0 -2.949,-1.3202 -2.949,-2.9488 0,-1.6286 1.32,-2.9489 2.949,-2.9489 z" />
      <path d="m 151.865,75.1959 c 1.629,0 2.949,1.3203 2.949,2.9489 0,1.6286 -1.32,2.9488 -2.949,2.9488 -1.628,0 -2.948,-1.3202 -2.948,-2.9488 0,-1.6286 1.32,-2.9489 2.948,-2.9489 z" />
      <path d="m 163.661,75.1959 c 1.628,0 2.949,1.3203 2.949,2.9489 0,1.6286 -1.321,2.9488 -2.949,2.9488 -1.629,0 -2.949,-1.3202 -2.949,-2.9488 0,-1.6286 1.32,-2.9489 2.949,-2.9489 z" />
      <path d="m 175.456,75.1959 c 1.629,0 2.949,1.3203 2.949,2.9489 0,1.6286 -1.32,2.9488 -2.949,2.9488 -1.628,0 -2.949,-1.3202 -2.949,-2.9488 0,-1.6286 1.321,-2.9489 2.949,-2.9489 z" />
      <path d="m 187.252,75.1959 c 1.628,0 2.948,1.3203 2.948,2.9489 0,1.6286 -1.32,2.9488 -2.948,2.9488 -1.629,0 -2.949,-1.3202 -2.949,-2.9488 0,-1.6286 1.32,-2.9489 2.949,-2.9489 z" />
      <path d="m 199.047,75.1959 c 1.629,0 2.949,1.3202 2.949,2.9489 0,1.6286 -1.32,2.9488 -2.949,2.9488 -1.629,0 -2.949,-1.3202 -2.949,-2.9488 0,-1.6286 1.32,-2.9489 2.949,-2.9489 z" />
      <path d="m -36.8607,63.4005 c 1.6286,0 2.9488,1.3203 2.9488,2.9489 0,1.6286 -1.3202,2.9488 -2.9488,2.9488 -1.6286,0 -2.9489,-1.3202 -2.9489,-2.9488 0,-1.6286 1.3203,-2.9489 2.9489,-2.9489 z" />
      <path d="m -25.0653,63.4005 c 1.6286,0 2.9488,1.3203 2.9488,2.9489 0,1.6286 -1.3202,2.9488 -2.9488,2.9488 -1.6286,0 -2.9489,-1.3202 -2.9489,-2.9488 0,-1.6286 1.3202,-2.9489 2.9489,-2.9489 z" />
      <path d="m -13.27,63.4005 c 1.6286,0 2.9489,1.3203 2.9489,2.9489 0,1.6286 -1.3203,2.9488 -2.9489,2.9488 -1.6286,0 -2.9488,-1.3202 -2.9488,-2.9488 0,-1.6286 1.3202,-2.9489 2.9488,-2.9489 z" />
      <path d="m -1.47458,63.4005 c 1.628604,0 2.94885,1.3203 2.94885,2.9489 0,1.6286 -1.320245,2.9488 -2.94885,2.9488 -1.6286,0 -2.94884,-1.3202 -2.94884,-2.9488 0,-1.6286 1.32024,-2.9489 2.94884,-2.9489 z" />
      <path d="m 10.3208,63.4005 c 1.6286,0 2.9489,1.3203 2.9489,2.9489 0,1.6286 -1.3203,2.9488 -2.9489,2.9488 -1.6286,0 -2.94884,-1.3202 -2.94884,-2.9488 0,-1.6286 1.32024,-2.9489 2.94884,-2.9489 z" />
      <path d="m 22.1162,63.4005 c 1.6286,0 2.9488,1.3203 2.9488,2.9489 0,1.6286 -1.3202,2.9488 -2.9488,2.9488 -1.6286,0 -2.9489,-1.3202 -2.9489,-2.9488 0,-1.6286 1.3203,-2.9489 2.9489,-2.9489 z" />
      <path d="m 33.9116,63.4005 c 1.6286,0 2.9488,1.3203 2.9488,2.9489 0,1.6286 -1.3202,2.9488 -2.9488,2.9488 -1.6286,0 -2.9489,-1.3202 -2.9489,-2.9488 0,-1.6286 1.3203,-2.9489 2.9489,-2.9489 z" />
      <path d="m 45.707,63.4005 c 1.6286,0 2.9488,1.3203 2.9488,2.9489 0,1.6286 -1.3202,2.9488 -2.9488,2.9488 -1.6286,0 -2.9489,-1.3202 -2.9489,-2.9488 0,-1.6286 1.3203,-2.9489 2.9489,-2.9489 z" />
      <path d="m 57.5023,63.4005 c 1.6286,0 2.9489,1.3203 2.9489,2.9489 0,1.6286 -1.3203,2.9488 -2.9489,2.9488 -1.6286,0 -2.9488,-1.3202 -2.9488,-2.9488 0,-1.6286 1.3202,-2.9489 2.9488,-2.9489 z" />
      <path d="m 69.2977,63.4005 c 1.6286,0 2.9489,1.3203 2.9489,2.9489 0,1.6286 -1.3203,2.9488 -2.9489,2.9488 -1.6286,0 -2.9488,-1.3202 -2.9488,-2.9488 0,-1.6286 1.3202,-2.9489 2.9488,-2.9489 z" />
      <path d="m 81.0931,63.4005 c 1.6286,0 2.9489,1.3203 2.9489,2.9489 0,1.6286 -1.3203,2.9488 -2.9489,2.9488 -1.6286,0 -2.9488,-1.3202 -2.9488,-2.9488 0,-1.6286 1.3202,-2.9489 2.9488,-2.9489 z" />
      <path d="m 92.8885,63.4005 c 1.6286,0 2.9488,1.3203 2.9488,2.9489 0,1.6286 -1.3202,2.9488 -2.9488,2.9488 -1.6286,0 -2.9488,-1.3202 -2.9488,-2.9488 0,-1.6286 1.3202,-2.9489 2.9488,-2.9489 z" />
      <path d="m 104.684,63.4005 c 1.628,0 2.949,1.3203 2.949,2.9489 0,1.6286 -1.321,2.9488 -2.949,2.9488 -1.629,0 -2.949,-1.3202 -2.949,-2.9488 0,-1.6286 1.32,-2.9489 2.949,-2.9489 z" />
      <path d="m 116.479,63.4005 c 1.629,0 2.949,1.3203 2.949,2.9489 0,1.6286 -1.32,2.9488 -2.949,2.9488 -1.628,0 -2.949,-1.3202 -2.949,-2.9488 0,-1.6286 1.321,-2.9489 2.949,-2.9489 z" />
      <path d="m 128.275,63.4005 c 1.628,0 2.948,1.3203 2.948,2.9489 0,1.6286 -1.32,2.9488 -2.948,2.9488 -1.629,0 -2.949,-1.3202 -2.949,-2.9488 0,-1.6286 1.32,-2.9489 2.949,-2.9489 z" />
      <path d="m 140.07,63.4005 c 1.629,0 2.949,1.3203 2.949,2.9489 0,1.6286 -1.32,2.9488 -2.949,2.9488 -1.629,0 -2.949,-1.3202 -2.949,-2.9488 0,-1.6286 1.32,-2.9489 2.949,-2.9489 z" />
      <path d="m 151.865,63.4005 c 1.629,0 2.949,1.3203 2.949,2.9489 0,1.6286 -1.32,2.9488 -2.949,2.9488 -1.628,0 -2.948,-1.3202 -2.948,-2.9488 0,-1.6286 1.32,-2.9489 2.948,-2.9489 z" />
      <path d="m 163.661,63.4005 c 1.628,0 2.949,1.3203 2.949,2.9489 0,1.6286 -1.321,2.9488 -2.949,2.9488 -1.629,0 -2.949,-1.3202 -2.949,-2.9488 0,-1.6286 1.32,-2.9489 2.949,-2.9489 z" />
      <path d="m 175.456,63.4005 c 1.629,0 2.949,1.3203 2.949,2.9489 0,1.6286 -1.32,2.9488 -2.949,2.9488 -1.628,0 -2.949,-1.3202 -2.949,-2.9488 0,-1.6286 1.321,-2.9489 2.949,-2.9489 z" />
      <path d="m 187.252,63.4005 c 1.628,0 2.948,1.3203 2.948,2.9489 0,1.6286 -1.32,2.9488 -2.948,2.9488 -1.629,0 -2.949,-1.3202 -2.949,-2.9488 0,-1.6286 1.32,-2.9489 2.949,-2.9489 z" />
      <path d="m 199.047,63.4005 c 1.629,0 2.949,1.3203 2.949,2.9489 0,1.6286 -1.32,2.9488 -2.949,2.9488 -1.629,0 -2.949,-1.3202 -2.949,-2.9488 0,-1.6286 1.32,-2.9489 2.949,-2.9489 z" />
      <path d="m -36.8607,51.6052 c 1.6286,0 2.9488,1.3202 2.9488,2.9488 0,1.6286 -1.3202,2.9488 -2.9488,2.9488 -1.6286,0 -2.9489,-1.3202 -2.9489,-2.9488 0,-1.6286 1.3203,-2.9488 2.9489,-2.9488 z" />
      <path d="m -25.0653,51.6051 c 1.6286,0 2.9488,1.3203 2.9488,2.9489 0,1.6286 -1.3202,2.9488 -2.9488,2.9488 -1.6287,0 -2.9489,-1.3202 -2.9489,-2.9488 0,-1.6286 1.3202,-2.9489 2.9489,-2.9489 z" />
      <path d="m -13.27,51.6051 c 1.6286,0 2.9489,1.3203 2.9489,2.9489 0,1.6286 -1.3203,2.9488 -2.9489,2.9488 -1.6286,0 -2.9488,-1.3202 -2.9488,-2.9488 0,-1.6286 1.3202,-2.9489 2.9488,-2.9489 z" />
      <path d="m -1.47458,51.6051 c 1.628604,0 2.94885,1.3203 2.94885,2.9489 0,1.6286 -1.320246,2.9488 -2.94885,2.9488 -1.6286,0 -2.94884,-1.3202 -2.94884,-2.9488 -10e-6,-1.6286 1.32024,-2.9489 2.94884,-2.9489 z" />
      <path d="m 10.3208,51.6051 c 1.6286,0 2.9489,1.3203 2.9489,2.9489 0,1.6286 -1.3203,2.9488 -2.9489,2.9488 -1.6286,0 -2.94884,-1.3202 -2.94884,-2.9488 0,-1.6286 1.32024,-2.9489 2.94884,-2.9489 z" />
      <path d="m 22.1162,51.6051 c 1.6286,0 2.9488,1.3203 2.9488,2.9489 0,1.6286 -1.3202,2.9488 -2.9488,2.9488 -1.6286,0 -2.9489,-1.3202 -2.9489,-2.9488 0,-1.6286 1.3203,-2.9489 2.9489,-2.9489 z" />
      <path d="m 33.9116,51.6051 c 1.6286,0 2.9488,1.3203 2.9488,2.9489 0,1.6286 -1.3202,2.9488 -2.9488,2.9488 -1.6286,0 -2.9489,-1.3202 -2.9489,-2.9488 0,-1.6286 1.3203,-2.9489 2.9489,-2.9489 z" />
      <path d="m 45.707,51.6051 c 1.6286,0 2.9488,1.3203 2.9488,2.9489 0,1.6286 -1.3202,2.9488 -2.9488,2.9488 -1.6286,0 -2.9489,-1.3202 -2.9489,-2.9488 0,-1.6286 1.3203,-2.9489 2.9489,-2.9489 z" />
      <path d="m 57.5023,51.6051 c 1.6286,0 2.9489,1.3203 2.9489,2.9489 0,1.6286 -1.3203,2.9488 -2.9489,2.9488 -1.6286,0 -2.9488,-1.3202 -2.9488,-2.9488 0,-1.6286 1.3202,-2.9489 2.9488,-2.9489 z" />
      <path d="m 69.2977,51.6051 c 1.6286,0 2.9489,1.3203 2.9489,2.9489 0,1.6286 -1.3203,2.9488 -2.9489,2.9488 -1.6286,0 -2.9488,-1.3202 -2.9488,-2.9488 0,-1.6286 1.3202,-2.9489 2.9488,-2.9489 z" />
      <path d="m 81.0931,51.6051 c 1.6286,0 2.9489,1.3203 2.9489,2.9489 0,1.6286 -1.3203,2.9488 -2.9489,2.9488 -1.6286,0 -2.9488,-1.3202 -2.9488,-2.9488 0,-1.6286 1.3202,-2.9489 2.9488,-2.9489 z" />
      <path d="m 92.8885,51.6051 c 1.6286,0 2.9488,1.3203 2.9488,2.9489 0,1.6286 -1.3202,2.9488 -2.9488,2.9488 -1.6286,0 -2.9488,-1.3202 -2.9488,-2.9488 0,-1.6286 1.3202,-2.9489 2.9488,-2.9489 z" />
      <path d="m 104.684,51.6051 c 1.628,0 2.949,1.3203 2.949,2.9489 0,1.6286 -1.321,2.9488 -2.949,2.9488 -1.629,0 -2.949,-1.3202 -2.949,-2.9488 0,-1.6286 1.32,-2.9489 2.949,-2.9489 z" />
      <path d="m 116.479,51.6051 c 1.629,0 2.949,1.3203 2.949,2.9489 0,1.6286 -1.32,2.9488 -2.949,2.9488 -1.628,0 -2.949,-1.3202 -2.949,-2.9488 0,-1.6286 1.321,-2.9489 2.949,-2.9489 z" />
      <path d="m 128.275,51.6051 c 1.628,0 2.948,1.3203 2.948,2.9489 0,1.6286 -1.32,2.9488 -2.948,2.9488 -1.629,0 -2.949,-1.3202 -2.949,-2.9488 0,-1.6286 1.32,-2.9489 2.949,-2.9489 z" />
      <path d="m 140.07,51.6051 c 1.629,0 2.949,1.3203 2.949,2.9489 0,1.6286 -1.32,2.9488 -2.949,2.9488 -1.629,0 -2.949,-1.3202 -2.949,-2.9488 0,-1.6286 1.32,-2.9489 2.949,-2.9489 z" />
      <path d="m 151.865,51.6051 c 1.629,0 2.949,1.3203 2.949,2.9489 0,1.6286 -1.32,2.9488 -2.949,2.9488 -1.628,0 -2.948,-1.3202 -2.948,-2.9488 0,-1.6286 1.32,-2.9489 2.948,-2.9489 z" />
      <path d="m 163.661,51.6051 c 1.628,0 2.949,1.3203 2.949,2.9489 0,1.6286 -1.321,2.9488 -2.949,2.9488 -1.629,0 -2.949,-1.3202 -2.949,-2.9488 0,-1.6286 1.32,-2.9489 2.949,-2.9489 z" />
      <path d="m 175.456,51.6051 c 1.629,0 2.949,1.3203 2.949,2.9489 0,1.6286 -1.32,2.9488 -2.949,2.9488 -1.628,0 -2.949,-1.3202 -2.949,-2.9488 0,-1.6286 1.321,-2.9489 2.949,-2.9489 z" />
      <path d="m 187.252,51.6051 c 1.628,0 2.948,1.3203 2.948,2.9489 0,1.6286 -1.32,2.9488 -2.948,2.9488 -1.629,0 -2.949,-1.3202 -2.949,-2.9488 0,-1.6286 1.32,-2.9489 2.949,-2.9489 z" />
      <path d="m 199.047,51.6051 c 1.629,0 2.949,1.3203 2.949,2.9489 0,1.6286 -1.32,2.9488 -2.949,2.9488 -1.629,0 -2.949,-1.3202 -2.949,-2.9488 0,-1.6286 1.32,-2.9489 2.949,-2.9489 z" />
      <path d="m -36.8607,39.8098 c 1.6286,0 2.9488,1.3202 2.9488,2.9488 0,1.6286 -1.3202,2.9489 -2.9488,2.9489 -1.6286,0 -2.9489,-1.3203 -2.9489,-2.9489 0,-1.6286 1.3203,-2.9488 2.9489,-2.9488 z" />
      <path d="m -25.0653,39.8098 c 1.6286,0 2.9488,1.3202 2.9488,2.9488 0,1.6286 -1.3202,2.9489 -2.9488,2.9489 -1.6287,0 -2.9489,-1.3203 -2.9489,-2.9489 0,-1.6286 1.3202,-2.9488 2.9489,-2.9488 z" />
      <path d="m -13.27,39.8098 c 1.6286,0 2.9489,1.3202 2.9489,2.9488 0,1.6286 -1.3203,2.9489 -2.9489,2.9489 -1.6286,0 -2.9488,-1.3203 -2.9488,-2.9489 0,-1.6286 1.3202,-2.9488 2.9488,-2.9488 z" />
      <path d="m -1.47458,39.8098 c 1.628603,0 2.94885,1.3202 2.94885,2.9488 0,1.6286 -1.320246,2.9489 -2.94885,2.9489 -1.6286,0 -2.94885,-1.3203 -2.94885,-2.9489 0,-1.6286 1.32025,-2.9488 2.94885,-2.9488 z" />
      <path d="m 10.3208,39.8098 c 1.6286,0 2.9489,1.3202 2.9489,2.9488 0,1.6286 -1.3203,2.9489 -2.9489,2.9489 -1.6286,0 -2.94884,-1.3203 -2.94884,-2.9489 0,-1.6286 1.32024,-2.9488 2.94884,-2.9488 z" />
      <path d="m 22.1162,39.8098 c 1.6286,0 2.9488,1.3202 2.9488,2.9488 0,1.6286 -1.3202,2.9489 -2.9488,2.9489 -1.6286,0 -2.9489,-1.3203 -2.9489,-2.9489 0,-1.6286 1.3203,-2.9488 2.9489,-2.9488 z" />
      <path d="m 33.9116,39.8098 c 1.6286,0 2.9488,1.3202 2.9488,2.9488 0,1.6286 -1.3202,2.9489 -2.9488,2.9489 -1.6286,0 -2.9489,-1.3203 -2.9489,-2.9489 0,-1.6286 1.3203,-2.9488 2.9489,-2.9488 z" />
      <path d="m 45.707,39.8098 c 1.6286,0 2.9488,1.3202 2.9488,2.9488 0,1.6286 -1.3202,2.9489 -2.9488,2.9489 -1.6286,0 -2.9489,-1.3203 -2.9489,-2.9489 0,-1.6286 1.3203,-2.9488 2.9489,-2.9488 z" />
      <path d="m 57.5023,39.8098 c 1.6286,0 2.9489,1.3202 2.9489,2.9488 0,1.6286 -1.3203,2.9489 -2.9489,2.9489 -1.6286,0 -2.9488,-1.3203 -2.9488,-2.9489 0,-1.6286 1.3202,-2.9488 2.9488,-2.9488 z" />
      <path d="m 69.2977,39.8098 c 1.6286,0 2.9489,1.3202 2.9489,2.9488 0,1.6286 -1.3203,2.9489 -2.9489,2.9489 -1.6286,0 -2.9488,-1.3203 -2.9488,-2.9489 0,-1.6286 1.3202,-2.9488 2.9488,-2.9488 z" />
      <path d="m 81.0931,39.8098 c 1.6286,0 2.9489,1.3202 2.9489,2.9488 0,1.6286 -1.3203,2.9489 -2.9489,2.9489 -1.6286,0 -2.9488,-1.3203 -2.9488,-2.9489 0,-1.6286 1.3202,-2.9488 2.9488,-2.9488 z" />
      <path d="m 92.8885,39.8098 c 1.6286,0 2.9488,1.3202 2.9488,2.9488 0,1.6286 -1.3202,2.9489 -2.9488,2.9489 -1.6286,0 -2.9489,-1.3203 -2.9489,-2.9489 0,-1.6286 1.3203,-2.9488 2.9489,-2.9488 z" />
      <path d="m 104.684,39.8098 c 1.628,0 2.949,1.3202 2.949,2.9488 0,1.6286 -1.321,2.9489 -2.949,2.9489 -1.629,0 -2.949,-1.3203 -2.949,-2.9489 0,-1.6286 1.32,-2.9488 2.949,-2.9488 z" />
      <path d="m 116.479,39.8098 c 1.629,0 2.949,1.3202 2.949,2.9488 0,1.6286 -1.32,2.9489 -2.949,2.9489 -1.628,0 -2.949,-1.3203 -2.949,-2.9489 0,-1.6286 1.321,-2.9488 2.949,-2.9488 z" />
      <path d="m 128.275,39.8098 c 1.628,0 2.948,1.3202 2.948,2.9488 0,1.6286 -1.32,2.9489 -2.948,2.9489 -1.629,0 -2.949,-1.3203 -2.949,-2.9489 0,-1.6286 1.32,-2.9488 2.949,-2.9488 z" />
      <path d="m 140.07,39.8098 c 1.629,0 2.949,1.3202 2.949,2.9488 0,1.6286 -1.32,2.9489 -2.949,2.9489 -1.629,0 -2.949,-1.3203 -2.949,-2.9489 0,-1.6286 1.32,-2.9488 2.949,-2.9488 z" />
      <path d="m 151.865,39.8098 c 1.629,0 2.949,1.3202 2.949,2.9488 0,1.6286 -1.32,2.9489 -2.949,2.9489 -1.628,0 -2.948,-1.3203 -2.948,-2.9489 0,-1.6286 1.32,-2.9488 2.948,-2.9488 z" />
      <path d="m 163.661,39.8098 c 1.628,0 2.949,1.3202 2.949,2.9488 0,1.6286 -1.321,2.9488 -2.949,2.9488 -1.629,0 -2.949,-1.3202 -2.949,-2.9488 0,-1.6286 1.32,-2.9488 2.949,-2.9488 z" />
      <path d="m 175.456,39.8098 c 1.629,0 2.949,1.3202 2.949,2.9488 0,1.6286 -1.32,2.9488 -2.949,2.9488 -1.628,0 -2.949,-1.3202 -2.949,-2.9488 0,-1.6286 1.321,-2.9488 2.949,-2.9488 z" />
      <path d="m 187.252,39.8098 c 1.628,0 2.948,1.3202 2.948,2.9488 0,1.6286 -1.32,2.9488 -2.948,2.9488 -1.629,0 -2.949,-1.3202 -2.949,-2.9488 0,-1.6286 1.32,-2.9488 2.949,-2.9488 z" />
      <path d="m 199.047,39.8098 c 1.629,0 2.949,1.3202 2.949,2.9488 0,1.6286 -1.32,2.9488 -2.949,2.9488 -1.629,0 -2.949,-1.3202 -2.949,-2.9488 0,-1.6286 1.32,-2.9488 2.949,-2.9488 z" />
      <path d="m -36.8607,28.0144 c 1.6286,0 2.9488,1.3202 2.9488,2.9488 0,1.6286 -1.3202,2.9489 -2.9488,2.9489 -1.6286,0 -2.9489,-1.3203 -2.9489,-2.9489 0,-1.6286 1.3203,-2.9488 2.9489,-2.9488 z" />
      <path d="m -25.0653,28.0144 c 1.6286,0 2.9488,1.3202 2.9488,2.9488 0,1.6286 -1.3202,2.9489 -2.9488,2.9489 -1.6287,0 -2.9489,-1.3203 -2.9489,-2.9489 0,-1.6286 1.3202,-2.9488 2.9489,-2.9488 z" />
      <path d="m -13.27,28.0144 c 1.6286,0 2.9489,1.3202 2.9489,2.9488 0,1.6286 -1.3203,2.9489 -2.9489,2.9489 -1.6286,0 -2.9488,-1.3203 -2.9488,-2.9489 0,-1.6286 1.3202,-2.9488 2.9488,-2.9488 z" />
      <path d="m -1.47458,28.0144 c 1.628603,0 2.94885,1.3202 2.94885,2.9488 0,1.6286 -1.320247,2.9489 -2.94885,2.9489 -1.6286,0 -2.94885,-1.3203 -2.94885,-2.9489 0,-1.6286 1.32025,-2.9488 2.94885,-2.9488 z" />
      <path d="m 10.3208,28.0144 c 1.6286,0 2.9489,1.3202 2.9489,2.9488 0,1.6286 -1.3203,2.9489 -2.9489,2.9489 -1.6286,0 -2.94884,-1.3203 -2.94884,-2.9489 0,-1.6286 1.32024,-2.9488 2.94884,-2.9488 z" />
      <path d="m 22.1162,28.0144 c 1.6286,0 2.9488,1.3202 2.9488,2.9488 0,1.6286 -1.3202,2.9489 -2.9488,2.9489 -1.6286,0 -2.9489,-1.3203 -2.9489,-2.9489 0,-1.6286 1.3203,-2.9488 2.9489,-2.9488 z" />
      <path d="m 33.9116,28.0144 c 1.6286,0 2.9488,1.3202 2.9488,2.9488 0,1.6286 -1.3202,2.9489 -2.9488,2.9489 -1.6286,0 -2.9489,-1.3203 -2.9489,-2.9489 0,-1.6286 1.3203,-2.9488 2.9489,-2.9488 z" />
      <path d="m 45.707,28.0144 c 1.6286,0 2.9488,1.3202 2.9488,2.9488 0,1.6286 -1.3202,2.9489 -2.9488,2.9489 -1.6286,0 -2.9489,-1.3203 -2.9489,-2.9489 0,-1.6286 1.3203,-2.9488 2.9489,-2.9488 z" />
      <path d="m 57.5023,28.0144 c 1.6286,0 2.9489,1.3202 2.9489,2.9488 0,1.6286 -1.3203,2.9489 -2.9489,2.9489 -1.6286,0 -2.9488,-1.3203 -2.9488,-2.9489 0,-1.6286 1.3202,-2.9488 2.9488,-2.9488 z" />
      <path d="m 69.2977,28.0144 c 1.6286,0 2.9489,1.3202 2.9489,2.9488 0,1.6286 -1.3203,2.9489 -2.9489,2.9489 -1.6286,0 -2.9488,-1.3203 -2.9488,-2.9489 0,-1.6286 1.3202,-2.9488 2.9488,-2.9488 z" />
      <path d="m 81.0931,28.0144 c 1.6286,0 2.9489,1.3202 2.9489,2.9488 0,1.6286 -1.3203,2.9489 -2.9489,2.9489 -1.6286,0 -2.9488,-1.3203 -2.9488,-2.9489 0,-1.6286 1.3202,-2.9488 2.9488,-2.9488 z" />
      <path d="m 92.8885,28.0144 c 1.6286,0 2.9488,1.3202 2.9488,2.9488 0,1.6286 -1.3202,2.9489 -2.9488,2.9489 -1.6286,0 -2.9489,-1.3203 -2.9489,-2.9489 0,-1.6286 1.3203,-2.9488 2.9489,-2.9488 z" />
      <path d="m 104.684,28.0144 c 1.628,0 2.949,1.3202 2.949,2.9488 0,1.6286 -1.321,2.9489 -2.949,2.9489 -1.629,0 -2.949,-1.3203 -2.949,-2.9489 0,-1.6286 1.32,-2.9488 2.949,-2.9488 z" />
      <path d="m 116.479,28.0144 c 1.629,0 2.949,1.3202 2.949,2.9488 0,1.6286 -1.32,2.9489 -2.949,2.9489 -1.628,0 -2.949,-1.3203 -2.949,-2.9489 0,-1.6286 1.321,-2.9488 2.949,-2.9488 z" />
      <path d="m 128.275,28.0144 c 1.628,0 2.948,1.3202 2.948,2.9488 0,1.6286 -1.32,2.9489 -2.948,2.9489 -1.629,0 -2.949,-1.3203 -2.949,-2.9489 0,-1.6286 1.32,-2.9488 2.949,-2.9488 z" />
      <path d="m 140.07,28.0144 c 1.629,0 2.949,1.3202 2.949,2.9488 0,1.6286 -1.32,2.9489 -2.949,2.9489 -1.629,0 -2.949,-1.3203 -2.949,-2.9489 0,-1.6286 1.32,-2.9488 2.949,-2.9488 z" />
      <path d="m 151.865,28.0144 c 1.629,0 2.949,1.3202 2.949,2.9488 0,1.6286 -1.32,2.9489 -2.949,2.9489 -1.628,0 -2.948,-1.3203 -2.948,-2.9489 0,-1.6286 1.32,-2.9488 2.948,-2.9488 z" />
      <path d="m 163.661,28.0144 c 1.628,0 2.949,1.3202 2.949,2.9488 0,1.6286 -1.321,2.9489 -2.949,2.9489 -1.629,0 -2.949,-1.3203 -2.949,-2.9489 0,-1.6286 1.32,-2.9488 2.949,-2.9488 z" />
      <path d="m 175.456,28.0144 c 1.629,0 2.949,1.3202 2.949,2.9488 0,1.6286 -1.32,2.9489 -2.949,2.9489 -1.628,0 -2.949,-1.3203 -2.949,-2.9489 0,-1.6286 1.321,-2.9488 2.949,-2.9488 z" />
      <path d="m 187.252,28.0144 c 1.628,0 2.948,1.3202 2.948,2.9488 0,1.6286 -1.32,2.9489 -2.948,2.9489 -1.629,0 -2.949,-1.3203 -2.949,-2.9489 0,-1.6286 1.32,-2.9488 2.949,-2.9488 z" />
      <path d="m 199.047,28.0144 c 1.629,0 2.949,1.3202 2.949,2.9488 0,1.6286 -1.32,2.9489 -2.949,2.9489 -1.629,0 -2.949,-1.3203 -2.949,-2.9489 0,-1.6286 1.32,-2.9488 2.949,-2.9488 z" />
      <path d="m -36.8607,16.219 c 1.6286,0 2.9488,1.3202 2.9488,2.9488 0,1.6286 -1.3202,2.9489 -2.9488,2.9489 -1.6286,0 -2.9489,-1.3203 -2.9489,-2.9489 0,-1.6286 1.3203,-2.9488 2.9489,-2.9488 z" />
      <path d="m -25.0653,16.219 c 1.6286,0 2.9488,1.3202 2.9488,2.9488 0,1.6286 -1.3202,2.9489 -2.9488,2.9489 -1.6287,0 -2.9489,-1.3203 -2.9489,-2.9489 0,-1.6286 1.3202,-2.9488 2.9489,-2.9488 z" />
      <path d="m -13.27,16.219 c 1.6286,0 2.9489,1.3202 2.9489,2.9488 0,1.6286 -1.3203,2.9489 -2.9489,2.9489 -1.6286,0 -2.9488,-1.3203 -2.9488,-2.9489 0,-1.6286 1.3202,-2.9488 2.9488,-2.9488 z" />
      <path d="m -1.47458,16.219 c 1.628602,0 2.94885,1.3202 2.94885,2.9488 0,1.6286 -1.320247,2.9489 -2.94885,2.9489 -1.6286,0 -2.94885,-1.3203 -2.94885,-2.9489 0,-1.6286 1.32025,-2.9488 2.94885,-2.9488 z" />
      <path d="m 10.3208,16.219 c 1.6286,0 2.9489,1.3202 2.9489,2.9488 0,1.6286 -1.3203,2.9489 -2.9489,2.9489 -1.6286,0 -2.94884,-1.3203 -2.94884,-2.9489 0,-1.6286 1.32024,-2.9488 2.94884,-2.9488 z" />
      <path d="m 22.1162,16.219 c 1.6286,0 2.9488,1.3202 2.9488,2.9488 0,1.6286 -1.3202,2.9489 -2.9488,2.9489 -1.6286,0 -2.9489,-1.3203 -2.9489,-2.9489 0,-1.6286 1.3203,-2.9488 2.9489,-2.9488 z" />
      <path d="m 33.9116,16.219 c 1.6286,0 2.9488,1.3202 2.9488,2.9488 0,1.6286 -1.3202,2.9489 -2.9488,2.9489 -1.6286,0 -2.9489,-1.3203 -2.9489,-2.9489 0,-1.6286 1.3203,-2.9488 2.9489,-2.9488 z" />
      <path d="m 45.707,16.219 c 1.6286,0 2.9488,1.3202 2.9488,2.9488 0,1.6286 -1.3202,2.9489 -2.9488,2.9489 -1.6286,0 -2.9489,-1.3203 -2.9489,-2.9489 0,-1.6286 1.3203,-2.9488 2.9489,-2.9488 z" />
      <path d="m 57.5023,16.219 c 1.6286,0 2.9489,1.3202 2.9489,2.9488 0,1.6286 -1.3203,2.9489 -2.9489,2.9489 -1.6286,0 -2.9488,-1.3203 -2.9488,-2.9489 0,-1.6286 1.3202,-2.9488 2.9488,-2.9488 z" />
      <path d="m 69.2977,16.219 c 1.6286,0 2.9489,1.3202 2.9489,2.9488 0,1.6286 -1.3203,2.9489 -2.9489,2.9489 -1.6286,0 -2.9488,-1.3203 -2.9488,-2.9489 0,-1.6286 1.3202,-2.9488 2.9488,-2.9488 z" />
      <path d="m 81.0931,16.219 c 1.6286,0 2.9489,1.3202 2.9489,2.9488 0,1.6286 -1.3203,2.9489 -2.9489,2.9489 -1.6286,0 -2.9488,-1.3203 -2.9488,-2.9489 0,-1.6286 1.3202,-2.9488 2.9488,-2.9488 z" />
      <path d="m 92.8885,16.219 c 1.6286,0 2.9488,1.3202 2.9488,2.9488 0,1.6286 -1.3202,2.9489 -2.9488,2.9489 -1.6286,0 -2.9489,-1.3203 -2.9489,-2.9489 0,-1.6286 1.3203,-2.9488 2.9489,-2.9488 z" />
      <path d="m 104.684,16.219 c 1.628,0 2.949,1.3202 2.949,2.9488 0,1.6286 -1.321,2.9489 -2.949,2.9489 -1.629,0 -2.949,-1.3203 -2.949,-2.9489 0,-1.6286 1.32,-2.9488 2.949,-2.9488 z" />
      <path d="m 116.479,16.219 c 1.629,0 2.949,1.3202 2.949,2.9488 0,1.6286 -1.32,2.9489 -2.949,2.9489 -1.628,0 -2.949,-1.3203 -2.949,-2.9489 0,-1.6286 1.321,-2.9488 2.949,-2.9488 z" />
      <path d="m 128.275,16.219 c 1.628,0 2.948,1.3202 2.948,2.9488 0,1.6286 -1.32,2.9489 -2.948,2.9489 -1.629,0 -2.949,-1.3203 -2.949,-2.9489 0,-1.6286 1.32,-2.9488 2.949,-2.9488 z" />
      <path d="m 140.07,16.219 c 1.629,0 2.949,1.3202 2.949,2.9488 0,1.6286 -1.32,2.9489 -2.949,2.9489 -1.629,0 -2.949,-1.3203 -2.949,-2.9489 0,-1.6286 1.32,-2.9488 2.949,-2.9488 z" />
      <path d="m 151.865,16.219 c 1.629,0 2.949,1.3202 2.949,2.9488 0,1.6286 -1.32,2.9489 -2.949,2.9489 -1.628,0 -2.948,-1.3203 -2.948,-2.9489 0,-1.6286 1.32,-2.9488 2.948,-2.9488 z" />
      <path d="m 163.661,16.219 c 1.628,0 2.949,1.3202 2.949,2.9488 0,1.6286 -1.321,2.9489 -2.949,2.9489 -1.629,0 -2.949,-1.3203 -2.949,-2.9489 0,-1.6286 1.32,-2.9488 2.949,-2.9488 z" />
      <path d="m 175.456,16.219 c 1.629,0 2.949,1.3202 2.949,2.9488 0,1.6286 -1.32,2.9489 -2.949,2.9489 -1.628,0 -2.949,-1.3203 -2.949,-2.9489 0,-1.6286 1.321,-2.9488 2.949,-2.9488 z" />
      <path d="m 187.252,16.219 c 1.628,0 2.948,1.3202 2.948,2.9488 0,1.6286 -1.32,2.9489 -2.948,2.9489 -1.629,0 -2.949,-1.3203 -2.949,-2.9489 0,-1.6286 1.32,-2.9488 2.949,-2.9488 z" />
      <path d="m 199.047,16.219 c 1.629,0 2.949,1.3202 2.949,2.9488 0,1.6286 -1.32,2.9489 -2.949,2.9489 -1.629,0 -2.949,-1.3203 -2.949,-2.9489 0,-1.6286 1.32,-2.9488 2.949,-2.9488 z" />
      <path d="m -36.8607,4.42362 c 1.6286,0 2.9488,1.32024 2.9488,2.94884 0,1.6286 -1.3202,2.94884 -2.9488,2.94884 -1.6286,0 -2.9489,-1.32024 -2.9489,-2.94884 0,-1.6286 1.3203,-2.94884 2.9489,-2.94884 z" />
      <path d="m -25.0653,4.42362 c 1.6286,0 2.9488,1.32024 2.9488,2.94884 0,1.6286 -1.3202,2.94884 -2.9488,2.94884 -1.6287,0 -2.9489,-1.32024 -2.9489,-2.94884 0,-1.6286 1.3202,-2.94884 2.9489,-2.94884 z" />
      <path d="m -13.27,4.42362 c 1.6286,0 2.9489,1.32024 2.9489,2.94884 0,1.6286 -1.3203,2.94884 -2.9489,2.94884 -1.6286,0 -2.9488,-1.32024 -2.9488,-2.94884 0,-1.6286 1.3202,-2.94884 2.9488,-2.94884 z" />
      <path d="m -1.47458,4.42361 c 1.628602,0 2.94885,1.32025 2.94885,2.94885 0,1.6286 -1.320248,2.94884 -2.94885,2.94884 -1.6286,0 -2.94885,-1.32024 -2.94885,-2.94884 0,-1.6286 1.32025,-2.94885 2.94885,-2.94885 z" />
      <path d="m 10.3208,4.42361 c 1.6286,0 2.9488,1.32025 2.9488,2.94885 0,1.6286 -1.3202,2.94884 -2.9488,2.94884 -1.6286,0 -2.94884,-1.32024 -2.94884,-2.94884 0,-1.6286 1.32024,-2.94885 2.94884,-2.94885 z" />
      <path d="m 22.1162,4.42361 c 1.6286,0 2.9488,1.32025 2.9488,2.94885 0,1.6286 -1.3202,2.94884 -2.9488,2.94884 -1.6286,0 -2.9489,-1.32024 -2.9489,-2.94884 0,-1.6286 1.3203,-2.94885 2.9489,-2.94885 z" />
      <path d="m 33.9116,4.42361 c 1.6286,0 2.9488,1.32025 2.9488,2.94885 0,1.6286 -1.3202,2.94884 -2.9488,2.94884 -1.6286,0 -2.9489,-1.32024 -2.9489,-2.94884 0,-1.6286 1.3203,-2.94885 2.9489,-2.94885 z" />
      <path d="m 45.707,4.42361 c 1.6286,0 2.9488,1.32025 2.9488,2.94885 0,1.6286 -1.3202,2.94884 -2.9488,2.94884 -1.6286,0 -2.9489,-1.32024 -2.9489,-2.94884 0,-1.6286 1.3203,-2.94885 2.9489,-2.94885 z" />
      <path d="m 57.5023,4.42361 c 1.6286,0 2.9489,1.32025 2.9489,2.94885 0,1.6286 -1.3203,2.94884 -2.9489,2.94884 -1.6286,0 -2.9488,-1.32024 -2.9488,-2.94884 0,-1.6286 1.3202,-2.94885 2.9488,-2.94885 z" />
      <path d="m 69.2977,4.42361 c 1.6286,0 2.9489,1.32024 2.9489,2.94885 0,1.6286 -1.3203,2.94884 -2.9489,2.94884 -1.6286,0 -2.9488,-1.32024 -2.9488,-2.94884 0,-1.62861 1.3202,-2.94885 2.9488,-2.94885 z" />
      <path d="m 81.0931,4.42361 c 1.6286,0 2.9489,1.32024 2.9489,2.94885 0,1.6286 -1.3203,2.94884 -2.9489,2.94884 -1.6286,0 -2.9488,-1.32024 -2.9488,-2.94884 0,-1.62861 1.3202,-2.94885 2.9488,-2.94885 z" />
      <path d="m 92.8885,4.42361 c 1.6286,0 2.9488,1.32024 2.9488,2.94885 0,1.6286 -1.3202,2.94884 -2.9488,2.94884 -1.6286,0 -2.9489,-1.32024 -2.9489,-2.94884 0,-1.62861 1.3203,-2.94885 2.9489,-2.94885 z" />
      <path d="m 104.684,4.42361 c 1.628,0 2.949,1.32024 2.949,2.94885 0,1.6286 -1.321,2.94884 -2.949,2.94884 -1.629,0 -2.949,-1.32024 -2.949,-2.94884 0,-1.62861 1.32,-2.94885 2.949,-2.94885 z" />
      <path d="m 116.479,4.42361 c 1.629,0 2.949,1.32024 2.949,2.94885 0,1.6286 -1.32,2.94884 -2.949,2.94884 -1.628,0 -2.949,-1.32024 -2.949,-2.94884 0,-1.62861 1.321,-2.94885 2.949,-2.94885 z" />
      <path d="m 128.275,4.42361 c 1.628,0 2.948,1.32024 2.948,2.94884 0,1.62861 -1.32,2.94885 -2.948,2.94885 -1.629,0 -2.949,-1.32024 -2.949,-2.94884 0,-1.62861 1.32,-2.94885 2.949,-2.94885 z" />
      <path d="m 140.07,4.42361 c 1.629,0 2.949,1.32024 2.949,2.94884 0,1.62861 -1.32,2.94885 -2.949,2.94885 -1.629,0 -2.949,-1.32024 -2.949,-2.94885 0,-1.6286 1.32,-2.94884 2.949,-2.94884 z" />
      <path d="m 151.865,4.42361 c 1.629,0 2.949,1.32024 2.949,2.94884 0,1.62861 -1.32,2.94885 -2.949,2.94885 -1.628,0 -2.948,-1.32024 -2.948,-2.94885 0,-1.6286 1.32,-2.94884 2.948,-2.94884 z" />
      <path d="m 163.661,4.42361 c 1.628,0 2.949,1.32024 2.949,2.94884 0,1.62861 -1.321,2.94885 -2.949,2.94885 -1.629,0 -2.949,-1.32024 -2.949,-2.94885 0,-1.6286 1.32,-2.94884 2.949,-2.94884 z" />
      <path d="m 175.456,4.42361 c 1.629,0 2.949,1.32024 2.949,2.94884 0,1.62861 -1.32,2.94885 -2.949,2.94885 -1.628,0 -2.949,-1.32024 -2.949,-2.94885 0,-1.6286 1.321,-2.94884 2.949,-2.94884 z" />
      <path d="m 187.252,4.42361 c 1.628,0 2.948,1.32024 2.948,2.94884 0,1.6286 -1.32,2.94885 -2.948,2.94885 -1.629,0 -2.949,-1.32024 -2.949,-2.94885 0,-1.6286 1.32,-2.94884 2.949,-2.94884 z" />
      <path d="m 199.047,4.42361 c 1.629,0 2.949,1.32024 2.949,2.94884 0,1.6286 -1.32,2.94885 -2.949,2.94885 -1.629,0 -2.949,-1.32025 -2.949,-2.94885 0,-1.6286 1.32,-2.94884 2.949,-2.94884 z" />
      <path d="m -36.8607,-7.37177 c 1.6286,0 2.9488,1.32025 2.9488,2.94885 0,1.6286 -1.3202,2.94884 -2.9488,2.94884 -1.6286,0 -2.9489,-1.32024 -2.9489,-2.94884 0,-1.6286 1.3203,-2.94885 2.9489,-2.94885 z" />
      <path d="m -25.0654,-7.37177 c 1.6287,0 2.9489,1.32025 2.9489,2.94885 0,1.6286 -1.3202,2.94884 -2.9489,2.94884 -1.6286,0 -2.9488,-1.32024 -2.9488,-2.94884 0,-1.6286 1.3202,-2.94885 2.9488,-2.94885 z" />
      <path d="m -13.27,-7.37177 c 1.6286,0 2.9489,1.32024 2.9489,2.94885 0,1.6286 -1.3203,2.94884 -2.9489,2.94884 -1.6286,0 -2.9488,-1.32024 -2.9488,-2.94884 0,-1.6286 1.3202,-2.94885 2.9488,-2.94885 z" />
      <path d="m -1.47458,-7.37177 c 1.628601,0 2.94884,1.32024 2.94884,2.94885 0,1.6286 -1.320238,2.94884 -2.94884,2.94884 -1.6286,0 -2.94885,-1.32024 -2.94885,-2.94884 0,-1.62861 1.32025,-2.94885 2.94885,-2.94885 z" />
      <path d="m 10.3208,-7.37177 c 1.6286,0 2.9488,1.32024 2.9488,2.94885 0,1.6286 -1.3202,2.94884 -2.9488,2.94884 -1.6286,0 -2.94884,-1.32024 -2.94884,-2.94884 0,-1.62861 1.32024,-2.94885 2.94884,-2.94885 z" />
      <path d="m 22.1162,-7.37177 c 1.6286,0 2.9488,1.32024 2.9488,2.94885 0,1.6286 -1.3202,2.94884 -2.9488,2.94884 -1.6286,0 -2.9489,-1.32024 -2.9489,-2.94884 0,-1.62861 1.3203,-2.94885 2.9489,-2.94885 z" />
      <path d="m 33.9116,-7.37177 c 1.6286,0 2.9488,1.32024 2.9488,2.94885 0,1.6286 -1.3202,2.94884 -2.9488,2.94884 -1.6286,0 -2.9489,-1.32024 -2.9489,-2.94884 0,-1.62861 1.3203,-2.94885 2.9489,-2.94885 z" />
      <path d="m 45.707,-7.37177 c 1.6286,0 2.9488,1.32024 2.9488,2.94884 0,1.62861 -1.3202,2.94885 -2.9488,2.94885 -1.6286,0 -2.9489,-1.32024 -2.9489,-2.94884 0,-1.62861 1.3203,-2.94885 2.9489,-2.94885 z" />
      <path d="m 57.5023,-7.37177 c 1.6286,0 2.9489,1.32024 2.9489,2.94884 0,1.62861 -1.3203,2.94885 -2.9489,2.94885 -1.6286,0 -2.9488,-1.32024 -2.9488,-2.94885 0,-1.6286 1.3202,-2.94884 2.9488,-2.94884 z" />
      <path d="m 69.2977,-7.37177 c 1.6286,0 2.9489,1.32024 2.9489,2.94884 0,1.62861 -1.3203,2.94885 -2.9489,2.94885 -1.6286,0 -2.9488,-1.32024 -2.9488,-2.94885 0,-1.6286 1.3202,-2.94884 2.9488,-2.94884 z" />
      <path d="m 81.0931,-7.37177 c 1.6286,0 2.9489,1.32024 2.9489,2.94884 0,1.62861 -1.3203,2.94885 -2.9489,2.94885 -1.6286,0 -2.9488,-1.32024 -2.9488,-2.94885 0,-1.6286 1.3202,-2.94884 2.9488,-2.94884 z" />
      <path d="m 92.8885,-7.37177 c 1.6286,0 2.9488,1.32024 2.9488,2.94884 0,1.62861 -1.3202,2.94885 -2.9488,2.94885 -1.6286,0 -2.9489,-1.32024 -2.9489,-2.94885 0,-1.6286 1.3203,-2.94884 2.9489,-2.94884 z" />
      <path d="m 104.684,-7.37177 c 1.628,0 2.949,1.32024 2.949,2.94884 0,1.62861 -1.321,2.94885 -2.949,2.94885 -1.629,0 -2.949,-1.32024 -2.949,-2.94885 0,-1.6286 1.32,-2.94884 2.949,-2.94884 z" />
      <path d="m 116.479,-7.37177 c 1.629,0 2.949,1.32024 2.949,2.94884 0,1.6286 -1.32,2.94885 -2.949,2.94885 -1.628,0 -2.949,-1.32025 -2.949,-2.94885 0,-1.6286 1.321,-2.94884 2.949,-2.94884 z" />
      <path d="m 128.275,-7.37177 c 1.628,0 2.948,1.32024 2.948,2.94884 0,1.6286 -1.32,2.94885 -2.948,2.94885 -1.629,0 -2.949,-1.32025 -2.949,-2.94885 0,-1.6286 1.32,-2.94884 2.949,-2.94884 z" />
      <path d="m 140.07,-7.37177 c 1.629,0 2.949,1.32024 2.949,2.94884 0,1.6286 -1.32,2.94885 -2.949,2.94885 -1.629,0 -2.949,-1.32025 -2.949,-2.94885 0,-1.6286 1.32,-2.94884 2.949,-2.94884 z" />
      <path d="m 151.865,-7.37178 c 1.629,0 2.949,1.32025 2.949,2.94885 0,1.6286 -1.32,2.94885 -2.949,2.94885 -1.628,0 -2.948,-1.32025 -2.948,-2.94885 0,-1.6286 1.32,-2.94885 2.948,-2.94885 z" />
      <path d="m 163.661,-7.37178 c 1.628,0 2.949,1.32025 2.949,2.94885 0,1.6286 -1.321,2.94885 -2.949,2.94885 -1.629,0 -2.949,-1.32025 -2.949,-2.94885 0,-1.6286 1.32,-2.94885 2.949,-2.94885 z" />
      <path d="m 175.456,-7.37178 c 1.629,0 2.949,1.32025 2.949,2.94885 0,1.6286 -1.32,2.94885 -2.949,2.94885 -1.628,0 -2.949,-1.32025 -2.949,-2.94885 0,-1.6286 1.321,-2.94885 2.949,-2.94885 z" />
      <path d="m 187.252,-7.37178 c 1.628,0 2.948,1.32025 2.948,2.94885 0,1.6286 -1.32,2.94884 -2.948,2.94884 -1.629,0 -2.949,-1.32024 -2.949,-2.94884 0,-1.6286 1.32,-2.94885 2.949,-2.94885 z" />
      <path d="m 199.047,-7.37178 c 1.629,0 2.949,1.32025 2.949,2.94885 0,1.6286 -1.32,2.94884 -2.949,2.94884 -1.629,0 -2.949,-1.32024 -2.949,-2.94884 0,-1.6286 1.32,-2.94885 2.949,-2.94885 z" />
      <path d="m -36.8607,-19.1672 c 1.6286,0 2.9488,1.3203 2.9488,2.9489 0,1.6286 -1.3202,2.9488 -2.9488,2.9488 -1.6286,0 -2.9489,-1.3202 -2.9489,-2.9488 0,-1.6286 1.3203,-2.9489 2.9489,-2.9489 z" />
      <path d="m -25.0654,-19.1672 c 1.6287,0 2.9489,1.3203 2.9489,2.9489 0,1.6286 -1.3202,2.9488 -2.9489,2.9488 -1.6286,0 -2.9488,-1.3202 -2.9488,-2.9488 0,-1.6286 1.3202,-2.9489 2.9488,-2.9489 z" />
      <path d="m -13.27,-19.1672 c 1.6286,0 2.9489,1.3203 2.9489,2.9489 0,1.6286 -1.3203,2.9488 -2.9489,2.9488 -1.6286,0 -2.9488,-1.3202 -2.9488,-2.9488 0,-1.6286 1.3202,-2.9489 2.9488,-2.9489 z" />
      <path d="m -1.47458,-19.1672 c 1.628601,0 2.94884,1.3203 2.94884,2.9489 0,1.6286 -1.320239,2.9488 -2.94884,2.9488 -1.6286,0 -2.94885,-1.3202 -2.94885,-2.9488 0,-1.6286 1.32025,-2.9489 2.94885,-2.9489 z" />
      <path d="m 10.3208,-19.1672 c 1.6286,0 2.9488,1.3203 2.9488,2.9489 0,1.6286 -1.3202,2.9488 -2.9488,2.9488 -1.6286,0 -2.94884,-1.3202 -2.94884,-2.9488 0,-1.6286 1.32024,-2.9489 2.94884,-2.9489 z" />
      <path d="m 22.1162,-19.1672 c 1.6286,0 2.9488,1.3203 2.9488,2.9489 0,1.6286 -1.3202,2.9488 -2.9488,2.9488 -1.6286,0 -2.9489,-1.3202 -2.9489,-2.9488 0,-1.6286 1.3203,-2.9489 2.9489,-2.9489 z" />
      <path d="m 33.9116,-19.1672 c 1.6286,0 2.9488,1.3203 2.9488,2.9489 0,1.6286 -1.3202,2.9488 -2.9488,2.9488 -1.6286,0 -2.9489,-1.3202 -2.9489,-2.9488 0,-1.6286 1.3203,-2.9489 2.9489,-2.9489 z" />
      <path d="m 45.707,-19.1672 c 1.6286,0 2.9488,1.3203 2.9488,2.9489 0,1.6286 -1.3202,2.9488 -2.9488,2.9488 -1.6286,0 -2.9489,-1.3202 -2.9489,-2.9488 0,-1.6286 1.3203,-2.9489 2.9489,-2.9489 z" />
      <path d="m 57.5023,-19.1672 c 1.6286,0 2.9489,1.3203 2.9489,2.9489 0,1.6286 -1.3203,2.9488 -2.9489,2.9488 -1.6286,0 -2.9488,-1.3202 -2.9488,-2.9488 0,-1.6286 1.3202,-2.9489 2.9488,-2.9489 z" />
      <path d="m 69.2977,-19.1672 c 1.6286,0 2.9489,1.3203 2.9489,2.9489 0,1.6286 -1.3203,2.9488 -2.9489,2.9488 -1.6286,0 -2.9488,-1.3202 -2.9488,-2.9488 0,-1.6286 1.3202,-2.9489 2.9488,-2.9489 z" />
      <path d="m 81.0931,-19.1672 c 1.6286,0 2.9489,1.3203 2.9489,2.9489 0,1.6286 -1.3203,2.9488 -2.9489,2.9488 -1.6286,0 -2.9488,-1.3202 -2.9488,-2.9488 0,-1.6286 1.3202,-2.9489 2.9488,-2.9489 z" />
      <path d="m 92.8885,-19.1672 c 1.6286,0 2.9488,1.3203 2.9488,2.9489 0,1.6286 -1.3202,2.9488 -2.9488,2.9488 -1.6286,0 -2.9489,-1.3202 -2.9489,-2.9488 0,-1.6286 1.3203,-2.9489 2.9489,-2.9489 z" />
      <path d="m 104.684,-19.1672 c 1.628,0 2.949,1.3203 2.949,2.9489 0,1.6286 -1.321,2.9488 -2.949,2.9488 -1.629,0 -2.949,-1.3202 -2.949,-2.9488 0,-1.6286 1.32,-2.9489 2.949,-2.9489 z" />
      <path d="m 116.479,-19.1672 c 1.629,0 2.949,1.3203 2.949,2.9489 0,1.6286 -1.32,2.9488 -2.949,2.9488 -1.628,0 -2.949,-1.3202 -2.949,-2.9488 0,-1.6286 1.321,-2.9489 2.949,-2.9489 z" />
      <path d="m 128.275,-19.1672 c 1.628,0 2.948,1.3203 2.948,2.9489 0,1.6286 -1.32,2.9488 -2.948,2.9488 -1.629,0 -2.949,-1.3202 -2.949,-2.9488 0,-1.6286 1.32,-2.9489 2.949,-2.9489 z" />
      <path d="m 140.07,-19.1672 c 1.629,0 2.949,1.3203 2.949,2.9489 0,1.6286 -1.32,2.9488 -2.949,2.9488 -1.629,0 -2.949,-1.3202 -2.949,-2.9488 0,-1.6286 1.32,-2.9489 2.949,-2.9489 z" />
      <path d="m 151.865,-19.1672 c 1.629,0 2.949,1.3203 2.949,2.9489 0,1.6286 -1.32,2.9488 -2.949,2.9488 -1.628,0 -2.948,-1.3202 -2.948,-2.9488 0,-1.6286 1.32,-2.9489 2.948,-2.9489 z" />
      <path d="m 163.661,-19.1672 c 1.628,0 2.949,1.3203 2.949,2.9489 0,1.6286 -1.321,2.9488 -2.949,2.9488 -1.629,0 -2.949,-1.3202 -2.949,-2.9488 0,-1.6286 1.32,-2.9489 2.949,-2.9489 z" />
      <path d="m 175.456,-19.1672 c 1.629,0 2.949,1.3203 2.949,2.9489 0,1.6286 -1.32,2.9488 -2.949,2.9488 -1.628,0 -2.949,-1.3202 -2.949,-2.9488 0,-1.6286 1.321,-2.9489 2.949,-2.9489 z" />
      <path d="m 187.252,-19.1672 c 1.628,0 2.948,1.3203 2.948,2.9489 0,1.6286 -1.32,2.9488 -2.948,2.9488 -1.629,0 -2.949,-1.3202 -2.949,-2.9488 0,-1.6286 1.32,-2.9489 2.949,-2.9489 z" />
      <path d="m 199.047,-19.1672 c 1.629,0 2.949,1.3203 2.949,2.9489 0,1.6286 -1.32,2.9488 -2.949,2.9488 -1.629,0 -2.949,-1.3202 -2.949,-2.9488 0,-1.6286 1.32,-2.9489 2.949,-2.9489 z" />
    </g>
  </g>
  <defs>
    <clipPath id="blob-grad-dots-03_clip">
      <rect
         width="160"
         height="200"
         fill="#ffffff"
         x="0"
         y="0" />
    </clipPath>
    <linearGradient id="blob-grad-dots-03_gradient" x1="0%" y1="0%" x2="100%" y2="0%" gradientUnits="userSpaceOnUse">
      <stop offset="0%" style="stop-color:rgb(85,0,255);stop-opacity:1"/>
      <stop offset="33%" style="stop-color:rgb(156,133,241);stop-opacity:1"/>
      <stop offset="66%" style="stop-color:rgb(109,255,212);stop-opacity:1"/>
      <stop offset="100%" style="stop-color:rgb(16,243,16);stop-opacity:1"/>
    </linearGradient>
  </defs>
</svg>
