<?xml version="1.0" encoding="UTF-8" standalone="no"?>
<svg
   width="162.52618"
   height="181.45857"
   viewBox="0 0 162.52618 181.45857"
   fill="none"
   version="1.1"
   xmlns="http://www.w3.org/2000/svg"
   xmlns:svg="http://www.w3.org/2000/svg">
  <mask
     id="blob-grad-dots-04_mask"
     maskUnits="userSpaceOnUse"
     x="0"
     y="0"
     width="163"
     height="182">
    <path
       d="M 23.7734,34.7338 C 3.68349,59.1765 -6.36148,92.3249 4.35316,113.085 c 10.54724,20.927 42.02144,29.8 70.64964,42.858 28.6282,13.059 54.2432,30.637 69.6452,24.108 15.235,-6.362 20.425,-36.664 16.742,-58.428 C 157.874,100.026 145.652,87.135 134.603,64.7013 123.553,42.1001 113.676,10.1236 93.7534,2.08761 73.8309,-5.94836 43.8634,10.1236 23.7734,34.7338 Z"
       fill="#ffffff" />
  </mask>
  <g mask="url(#blob-grad-dots-04_mask)" style="fill:url(#blob-grad-dots-04_gradient)">
    <path d="m 217.774,-43.5286 c 0,1.8492 1.499,3.3483 3.348,3.3483 1.849,0 3.348,-1.4991 3.348,-3.3483 0,-1.8493 -1.499,-3.3484 -3.348,-3.3484 -1.849,0 -3.348,1.4991 -3.348,3.3484 z" />
    <path d="m 217.774,-30.1353 c 0,1.8492 1.499,3.3483 3.348,3.3483 1.849,0 3.348,-1.4991 3.348,-3.3483 0,-1.8493 -1.499,-3.3484 -3.348,-3.3484 -1.849,0 -3.348,1.4991 -3.348,3.3484 z" />
    <path d="m 217.774,-16.742 c 0,1.8492 1.499,3.3483 3.348,3.3483 1.849,0 3.348,-1.4991 3.348,-3.3483 0,-1.8493 -1.499,-3.3484 -3.348,-3.3484 -1.849,0 -3.348,1.4991 -3.348,3.3484 z" />
    <path d="m 217.774,-3.34876 c 0,1.84923 1.499,3.348327032 3.348,3.348327032 1.849,0 3.348,-1.499097032 3.348,-3.348327032 0,-1.84922 -1.499,-3.34832 -3.348,-3.34832 -1.849,0 -3.348,1.4991 -3.348,3.34832 z" />
    <path d="m 217.774,10.0445 c 0,1.8493 1.499,3.3484 3.348,3.3484 1.849,0 3.348,-1.4991 3.348,-3.3484 0,-1.84919 -1.499,-3.34829 -3.348,-3.34829 -1.849,0 -3.348,1.4991 -3.348,3.34829 z" />
    <path d="m 217.774,23.4378 c 0,1.8493 1.499,3.3483 3.348,3.3483 1.849,0 3.348,-1.499 3.348,-3.3483 0,-1.8492 -1.499,-3.3483 -3.348,-3.3483 -1.849,0 -3.348,1.4991 -3.348,3.3483 z" />
    <path d="m 217.774,36.8311 c 0,1.8492 1.499,3.3483 3.348,3.3483 1.849,0 3.348,-1.4991 3.348,-3.3483 0,-1.8492 -1.499,-3.3483 -3.348,-3.3483 -1.849,0 -3.348,1.4991 -3.348,3.3483 z" />
    <path d="m 217.774,50.2244 c 0,1.8492 1.499,3.3483 3.348,3.3483 1.849,0 3.348,-1.4991 3.348,-3.3483 0,-1.8492 -1.499,-3.3483 -3.348,-3.3483 -1.849,0 -3.348,1.4991 -3.348,3.3483 z" />
    <path d="m 217.774,63.6177 c 0,1.8492 1.499,3.3483 3.348,3.3483 1.849,0 3.348,-1.4991 3.348,-3.3483 0,-1.8492 -1.499,-3.3483 -3.348,-3.3483 -1.849,0 -3.348,1.4991 -3.348,3.3483 z" />
    <path d="m 217.774,77.011 c 0,1.8492 1.499,3.3483 3.348,3.3483 1.849,0 3.348,-1.4991 3.348,-3.3483 0,-1.8492 -1.499,-3.3483 -3.348,-3.3483 -1.849,0 -3.348,1.4991 -3.348,3.3483 z" />
    <path d="m 217.774,90.4043 c 0,1.8492 1.499,3.3483 3.348,3.3483 1.849,0 3.348,-1.4991 3.348,-3.3483 0,-1.8492 -1.499,-3.3483 -3.348,-3.3483 -1.849,0 -3.348,1.4991 -3.348,3.3483 z" />
    <path d="m 217.774,103.798 c 0,1.849 1.499,3.348 3.348,3.348 1.849,0 3.348,-1.499 3.348,-3.348 0,-1.85 -1.499,-3.349 -3.348,-3.349 -1.849,0 -3.348,1.499 -3.348,3.349 z" />
    <path d="m 217.774,117.191 c 0,1.849 1.499,3.348 3.348,3.348 1.849,0 3.348,-1.499 3.348,-3.348 0,-1.849 -1.499,-3.348 -3.348,-3.348 -1.849,0 -3.348,1.499 -3.348,3.348 z" />
    <path d="m 217.774,130.584 c 0,1.849 1.499,3.348 3.348,3.348 1.849,0 3.348,-1.499 3.348,-3.348 0,-1.849 -1.499,-3.348 -3.348,-3.348 -1.849,0 -3.348,1.499 -3.348,3.348 z" />
    <path d="m 217.774,143.977 c 0,1.85 1.499,3.349 3.348,3.349 1.849,0 3.348,-1.499 3.348,-3.349 0,-1.849 -1.499,-3.348 -3.348,-3.348 -1.849,0 -3.348,1.499 -3.348,3.348 z" />
    <path d="m 217.774,157.371 c 0,1.849 1.499,3.348 3.348,3.348 1.849,0 3.348,-1.499 3.348,-3.348 0,-1.849 -1.499,-3.349 -3.348,-3.349 -1.849,0 -3.348,1.5 -3.348,3.349 z" />
    <path d="m 217.774,170.764 c 0,1.849 1.499,3.348 3.348,3.348 1.849,0 3.348,-1.499 3.348,-3.348 0,-1.849 -1.499,-3.348 -3.348,-3.348 -1.849,0 -3.348,1.499 -3.348,3.348 z" />
    <path d="m 217.774,184.157 c 0,1.85 1.499,3.349 3.348,3.349 1.849,0 3.348,-1.499 3.348,-3.349 0,-1.849 -1.499,-3.348 -3.348,-3.348 -1.849,0 -3.348,1.499 -3.348,3.348 z" />
    <path d="m 217.774,197.551 c 0,1.849 1.499,3.348 3.348,3.348 1.849,0 3.348,-1.499 3.348,-3.348 0,-1.85 -1.499,-3.349 -3.348,-3.349 -1.849,0 -3.348,1.499 -3.348,3.349 z" />
    <path d="m 217.774,210.944 c 0,1.849 1.499,3.348 3.348,3.348 1.849,0 3.348,-1.499 3.348,-3.348 0,-1.849 -1.499,-3.348 -3.348,-3.348 -1.849,0 -3.348,1.499 -3.348,3.348 z" />
    <path d="m 217.774,224.337 c 0,1.849 1.499,3.349 3.348,3.349 1.849,0 3.348,-1.5 3.348,-3.349 0,-1.849 -1.499,-3.348 -3.348,-3.348 -1.849,0 -3.348,1.499 -3.348,3.348 z" />
    <path d="m 204.38,-43.5286 c 0,1.8492 1.499,3.3483 3.349,3.3483 1.849,0 3.348,-1.4991 3.348,-3.3483 0,-1.8493 -1.499,-3.3484 -3.348,-3.3484 -1.85,0 -3.349,1.4991 -3.349,3.3484 z" />
    <path d="m 204.38,-30.1353 c 0,1.8492 1.499,3.3483 3.349,3.3483 1.849,0 3.348,-1.4991 3.348,-3.3483 0,-1.8493 -1.499,-3.3484 -3.348,-3.3484 -1.85,0 -3.349,1.4991 -3.349,3.3484 z" />
    <path d="m 204.38,-16.742 c 0,1.8492 1.499,3.3483 3.349,3.3483 1.849,0 3.348,-1.4991 3.348,-3.3483 0,-1.8493 -1.499,-3.3484 -3.348,-3.3484 -1.85,0 -3.349,1.4991 -3.349,3.3484 z" />
    <path d="m 204.38,-3.34876 c 0,1.84923 1.499,3.348327032 3.349,3.348327032 1.849,0 3.348,-1.499097032 3.348,-3.348327032 0,-1.84922 -1.499,-3.34832 -3.348,-3.34832 -1.85,0 -3.349,1.4991 -3.349,3.34832 z" />
    <path d="m 204.38,10.0445 c 0,1.8493 1.499,3.3484 3.349,3.3484 1.849,0 3.348,-1.4991 3.348,-3.3484 0,-1.84919 -1.499,-3.34829 -3.348,-3.34829 -1.85,0 -3.349,1.4991 -3.349,3.34829 z" />
    <path d="m 204.38,23.4378 c 0,1.8493 1.499,3.3483 3.349,3.3483 1.849,0 3.348,-1.499 3.348,-3.3483 0,-1.8492 -1.499,-3.3483 -3.348,-3.3483 -1.85,0 -3.349,1.4991 -3.349,3.3483 z" />
    <path d="m 204.38,36.8311 c 0,1.8492 1.499,3.3483 3.349,3.3483 1.849,0 3.348,-1.4991 3.348,-3.3483 0,-1.8492 -1.499,-3.3483 -3.348,-3.3483 -1.85,0 -3.349,1.4991 -3.349,3.3483 z" />
    <path d="m 204.38,50.2244 c 0,1.8492 1.499,3.3483 3.349,3.3483 1.849,0 3.348,-1.4991 3.348,-3.3483 0,-1.8492 -1.499,-3.3483 -3.348,-3.3483 -1.85,0 -3.349,1.4991 -3.349,3.3483 z" />
    <path d="m 204.38,63.6177 c 0,1.8492 1.499,3.3483 3.349,3.3483 1.849,0 3.348,-1.4991 3.348,-3.3483 0,-1.8492 -1.499,-3.3483 -3.348,-3.3483 -1.85,0 -3.349,1.4991 -3.349,3.3483 z" />
    <path d="m 204.38,77.011 c 0,1.8492 1.499,3.3483 3.349,3.3483 1.849,0 3.348,-1.4991 3.348,-3.3483 0,-1.8492 -1.499,-3.3483 -3.348,-3.3483 -1.85,0 -3.349,1.4991 -3.349,3.3483 z" />
    <path d="m 204.38,90.4043 c 0,1.8492 1.499,3.3483 3.349,3.3483 1.849,0 3.348,-1.4991 3.348,-3.3483 0,-1.8492 -1.499,-3.3483 -3.348,-3.3483 -1.85,0 -3.349,1.4991 -3.349,3.3483 z" />
    <path d="m 204.38,103.798 c 0,1.849 1.499,3.348 3.349,3.348 1.849,0 3.348,-1.499 3.348,-3.348 0,-1.85 -1.499,-3.349 -3.348,-3.349 -1.85,0 -3.349,1.499 -3.349,3.349 z" />
    <path d="m 204.38,117.191 c 0,1.849 1.499,3.348 3.349,3.348 1.849,0 3.348,-1.499 3.348,-3.348 0,-1.849 -1.499,-3.348 -3.348,-3.348 -1.85,0 -3.349,1.499 -3.349,3.348 z" />
    <path d="m 204.38,130.584 c 0,1.849 1.499,3.348 3.349,3.348 1.849,0 3.348,-1.499 3.348,-3.348 0,-1.849 -1.499,-3.348 -3.348,-3.348 -1.85,0 -3.349,1.499 -3.349,3.348 z" />
    <path d="m 204.38,143.977 c 0,1.85 1.499,3.349 3.349,3.349 1.849,0 3.348,-1.499 3.348,-3.349 0,-1.849 -1.499,-3.348 -3.348,-3.348 -1.85,0 -3.349,1.499 -3.349,3.348 z" />
    <path d="m 204.38,157.371 c 0,1.849 1.499,3.348 3.349,3.348 1.849,0 3.348,-1.499 3.348,-3.348 0,-1.849 -1.499,-3.349 -3.348,-3.349 -1.85,0 -3.349,1.5 -3.349,3.349 z" />
    <path d="m 204.38,170.764 c 0,1.849 1.499,3.348 3.349,3.348 1.849,0 3.348,-1.499 3.348,-3.348 0,-1.849 -1.499,-3.348 -3.348,-3.348 -1.85,0 -3.349,1.499 -3.349,3.348 z" />
    <path d="m 204.38,184.157 c 0,1.85 1.499,3.349 3.349,3.349 1.849,0 3.348,-1.499 3.348,-3.349 0,-1.849 -1.499,-3.348 -3.348,-3.348 -1.85,0 -3.349,1.499 -3.349,3.348 z" />
    <path d="m 204.38,197.551 c 0,1.849 1.499,3.348 3.349,3.348 1.849,0 3.348,-1.499 3.348,-3.348 0,-1.85 -1.499,-3.349 -3.348,-3.349 -1.85,0 -3.349,1.499 -3.349,3.349 z" />
    <path d="m 204.38,210.944 c 0,1.849 1.499,3.348 3.349,3.348 1.849,0 3.348,-1.499 3.348,-3.348 0,-1.849 -1.499,-3.348 -3.348,-3.348 -1.85,0 -3.349,1.499 -3.349,3.348 z" />
    <path d="m 204.38,224.337 c 0,1.849 1.499,3.349 3.349,3.349 1.849,0 3.348,-1.5 3.348,-3.349 0,-1.849 -1.499,-3.348 -3.348,-3.348 -1.85,0 -3.349,1.499 -3.349,3.348 z" />
    <path d="m 190.987,-43.5286 c 0,1.8492 1.499,3.3483 3.348,3.3483 1.85,0 3.349,-1.4991 3.349,-3.3483 0,-1.8493 -1.499,-3.3484 -3.349,-3.3484 -1.849,0 -3.348,1.4991 -3.348,3.3484 z" />
    <path d="m 190.987,-30.1353 c 0,1.8492 1.499,3.3483 3.348,3.3483 1.85,0 3.349,-1.4991 3.349,-3.3483 0,-1.8493 -1.499,-3.3484 -3.349,-3.3484 -1.849,0 -3.348,1.4991 -3.348,3.3484 z" />
    <path d="m 190.987,-16.742 c 0,1.8492 1.499,3.3483 3.348,3.3483 1.85,0 3.349,-1.4991 3.349,-3.3483 0,-1.8493 -1.499,-3.3484 -3.349,-3.3484 -1.849,0 -3.348,1.4991 -3.348,3.3484 z" />
    <path d="m 190.987,-3.34876 c 0,1.84923 1.499,3.348327032 3.348,3.348327032 1.85,0 3.349,-1.499097032 3.349,-3.348327032 0,-1.84922 -1.499,-3.34832 -3.349,-3.34832 -1.849,0 -3.348,1.4991 -3.348,3.34832 z" />
    <path d="m 190.987,10.0445 c 0,1.8493 1.499,3.3484 3.348,3.3484 1.85,0 3.349,-1.4991 3.349,-3.3484 0,-1.84919 -1.499,-3.34829 -3.349,-3.34829 -1.849,0 -3.348,1.4991 -3.348,3.34829 z" />
    <path d="m 190.987,23.4378 c 0,1.8493 1.499,3.3483 3.348,3.3483 1.85,0 3.349,-1.499 3.349,-3.3483 0,-1.8492 -1.499,-3.3483 -3.349,-3.3483 -1.849,0 -3.348,1.4991 -3.348,3.3483 z" />
    <path d="m 190.987,36.8311 c 0,1.8492 1.499,3.3483 3.348,3.3483 1.85,0 3.349,-1.4991 3.349,-3.3483 0,-1.8492 -1.499,-3.3483 -3.349,-3.3483 -1.849,0 -3.348,1.4991 -3.348,3.3483 z" />
    <path d="m 190.987,50.2244 c 0,1.8492 1.499,3.3483 3.348,3.3483 1.85,0 3.349,-1.4991 3.349,-3.3483 0,-1.8492 -1.499,-3.3483 -3.349,-3.3483 -1.849,0 -3.348,1.4991 -3.348,3.3483 z" />
    <path d="m 190.987,63.6177 c 0,1.8492 1.499,3.3483 3.348,3.3483 1.85,0 3.349,-1.4991 3.349,-3.3483 0,-1.8492 -1.499,-3.3483 -3.349,-3.3483 -1.849,0 -3.348,1.4991 -3.348,3.3483 z" />
    <path d="m 190.987,77.011 c 0,1.8492 1.499,3.3483 3.348,3.3483 1.85,0 3.349,-1.4991 3.349,-3.3483 0,-1.8492 -1.499,-3.3483 -3.349,-3.3483 -1.849,0 -3.348,1.4991 -3.348,3.3483 z" />
    <path d="m 190.987,90.4043 c 0,1.8492 1.499,3.3483 3.348,3.3483 1.85,0 3.349,-1.4991 3.349,-3.3483 0,-1.8492 -1.499,-3.3483 -3.349,-3.3483 -1.849,0 -3.348,1.4991 -3.348,3.3483 z" />
    <path d="m 190.987,103.798 c 0,1.849 1.499,3.348 3.348,3.348 1.85,0 3.349,-1.499 3.349,-3.348 0,-1.85 -1.499,-3.349 -3.349,-3.349 -1.849,0 -3.348,1.499 -3.348,3.349 z" />
    <path d="m 190.987,117.191 c 0,1.849 1.499,3.348 3.348,3.348 1.85,0 3.349,-1.499 3.349,-3.348 0,-1.849 -1.499,-3.348 -3.349,-3.348 -1.849,0 -3.348,1.499 -3.348,3.348 z" />
    <path d="m 190.987,130.584 c 0,1.849 1.499,3.348 3.348,3.348 1.85,0 3.349,-1.499 3.349,-3.348 0,-1.849 -1.499,-3.348 -3.349,-3.348 -1.849,0 -3.348,1.499 -3.348,3.348 z" />
    <path d="m 190.987,143.977 c 0,1.85 1.499,3.349 3.348,3.349 1.85,0 3.349,-1.499 3.349,-3.349 0,-1.849 -1.499,-3.348 -3.349,-3.348 -1.849,0 -3.348,1.499 -3.348,3.348 z" />
    <path d="m 190.987,157.371 c 0,1.849 1.499,3.348 3.348,3.348 1.85,0 3.349,-1.499 3.349,-3.348 0,-1.849 -1.499,-3.349 -3.349,-3.349 -1.849,0 -3.348,1.5 -3.348,3.349 z" />
    <path d="m 190.987,170.764 c 0,1.849 1.499,3.348 3.348,3.348 1.85,0 3.349,-1.499 3.349,-3.348 0,-1.849 -1.499,-3.348 -3.349,-3.348 -1.849,0 -3.348,1.499 -3.348,3.348 z" />
    <path d="m 190.987,184.157 c 0,1.85 1.499,3.349 3.348,3.349 1.85,0 3.349,-1.499 3.349,-3.349 0,-1.849 -1.499,-3.348 -3.349,-3.348 -1.849,0 -3.348,1.499 -3.348,3.348 z" />
    <path d="m 190.987,197.551 c 0,1.849 1.499,3.348 3.348,3.348 1.85,0 3.349,-1.499 3.349,-3.348 0,-1.85 -1.499,-3.349 -3.349,-3.349 -1.849,0 -3.348,1.499 -3.348,3.349 z" />
    <path d="m 190.987,210.944 c 0,1.849 1.499,3.348 3.348,3.348 1.85,0 3.349,-1.499 3.349,-3.348 0,-1.849 -1.499,-3.348 -3.349,-3.348 -1.849,0 -3.348,1.499 -3.348,3.348 z" />
    <path d="m 190.987,224.337 c 0,1.849 1.499,3.349 3.348,3.349 1.85,0 3.349,-1.5 3.349,-3.349 0,-1.849 -1.499,-3.348 -3.349,-3.348 -1.849,0 -3.348,1.499 -3.348,3.348 z" />
    <path d="m 177.594,-43.5286 c 0,1.8492 1.499,3.3483 3.348,3.3483 1.849,0 3.348,-1.4991 3.348,-3.3483 0,-1.8493 -1.499,-3.3484 -3.348,-3.3484 -1.849,0 -3.348,1.4991 -3.348,3.3484 z" />
    <path d="m 177.594,-30.1353 c 0,1.8492 1.499,3.3483 3.348,3.3483 1.849,0 3.348,-1.4991 3.348,-3.3483 0,-1.8493 -1.499,-3.3484 -3.348,-3.3484 -1.849,0 -3.348,1.4991 -3.348,3.3484 z" />
    <path d="m 177.594,-16.742 c 0,1.8492 1.499,3.3483 3.348,3.3483 1.849,0 3.348,-1.4991 3.348,-3.3483 0,-1.8493 -1.499,-3.3484 -3.348,-3.3484 -1.849,0 -3.348,1.4991 -3.348,3.3484 z" />
    <path d="m 177.594,-3.34876 c 0,1.84923 1.499,3.348327032 3.348,3.348327032 1.849,0 3.348,-1.499097032 3.348,-3.348327032 0,-1.84922 -1.499,-3.34832 -3.348,-3.34832 -1.849,0 -3.348,1.4991 -3.348,3.34832 z" />
    <path d="m 177.594,10.0445 c 0,1.8493 1.499,3.3484 3.348,3.3484 1.849,0 3.348,-1.4991 3.348,-3.3484 0,-1.84919 -1.499,-3.34829 -3.348,-3.34829 -1.849,0 -3.348,1.4991 -3.348,3.34829 z" />
    <path d="m 177.594,23.4378 c 0,1.8493 1.499,3.3483 3.348,3.3483 1.849,0 3.348,-1.499 3.348,-3.3483 0,-1.8492 -1.499,-3.3483 -3.348,-3.3483 -1.849,0 -3.348,1.4991 -3.348,3.3483 z" />
    <path d="m 177.594,36.8311 c 0,1.8492 1.499,3.3483 3.348,3.3483 1.849,0 3.348,-1.4991 3.348,-3.3483 0,-1.8492 -1.499,-3.3483 -3.348,-3.3483 -1.849,0 -3.348,1.4991 -3.348,3.3483 z" />
    <path d="m 177.594,50.2244 c 0,1.8492 1.499,3.3483 3.348,3.3483 1.849,0 3.348,-1.4991 3.348,-3.3483 0,-1.8492 -1.499,-3.3483 -3.348,-3.3483 -1.849,0 -3.348,1.4991 -3.348,3.3483 z" />
    <path d="m 177.594,63.6177 c 0,1.8492 1.499,3.3483 3.348,3.3483 1.849,0 3.348,-1.4991 3.348,-3.3483 0,-1.8492 -1.499,-3.3483 -3.348,-3.3483 -1.849,0 -3.348,1.4991 -3.348,3.3483 z" />
    <path d="m 177.594,77.011 c 0,1.8492 1.499,3.3483 3.348,3.3483 1.849,0 3.348,-1.4991 3.348,-3.3483 0,-1.8492 -1.499,-3.3483 -3.348,-3.3483 -1.849,0 -3.348,1.4991 -3.348,3.3483 z" />
    <path d="m 177.594,90.4043 c 0,1.8492 1.499,3.3483 3.348,3.3483 1.849,0 3.348,-1.4991 3.348,-3.3483 0,-1.8492 -1.499,-3.3483 -3.348,-3.3483 -1.849,0 -3.348,1.4991 -3.348,3.3483 z" />
    <path d="m 177.594,103.798 c 0,1.849 1.499,3.348 3.348,3.348 1.849,0 3.348,-1.499 3.348,-3.348 0,-1.85 -1.499,-3.349 -3.348,-3.349 -1.849,0 -3.348,1.499 -3.348,3.349 z" />
    <path d="m 177.594,117.191 c 0,1.849 1.499,3.348 3.348,3.348 1.849,0 3.348,-1.499 3.348,-3.348 0,-1.849 -1.499,-3.348 -3.348,-3.348 -1.849,0 -3.348,1.499 -3.348,3.348 z" />
    <path d="m 177.594,130.584 c 0,1.849 1.499,3.348 3.348,3.348 1.849,0 3.348,-1.499 3.348,-3.348 0,-1.849 -1.499,-3.348 -3.348,-3.348 -1.849,0 -3.348,1.499 -3.348,3.348 z" />
    <path d="m 177.594,143.977 c 0,1.85 1.499,3.349 3.348,3.349 1.849,0 3.348,-1.499 3.348,-3.349 0,-1.849 -1.499,-3.348 -3.348,-3.348 -1.849,0 -3.348,1.499 -3.348,3.348 z" />
    <path d="m 177.594,157.371 c 0,1.849 1.499,3.348 3.348,3.348 1.849,0 3.348,-1.499 3.348,-3.348 0,-1.849 -1.499,-3.349 -3.348,-3.349 -1.849,0 -3.348,1.5 -3.348,3.349 z" />
    <path d="m 177.594,170.764 c 0,1.849 1.499,3.348 3.348,3.348 1.849,0 3.348,-1.499 3.348,-3.348 0,-1.849 -1.499,-3.348 -3.348,-3.348 -1.849,0 -3.348,1.499 -3.348,3.348 z" />
    <path d="m 177.594,184.157 c 0,1.85 1.499,3.349 3.348,3.349 1.849,0 3.348,-1.499 3.348,-3.349 0,-1.849 -1.499,-3.348 -3.348,-3.348 -1.849,0 -3.348,1.499 -3.348,3.348 z" />
    <path d="m 177.594,197.551 c 0,1.849 1.499,3.348 3.348,3.348 1.849,0 3.348,-1.499 3.348,-3.348 0,-1.85 -1.499,-3.349 -3.348,-3.349 -1.849,0 -3.348,1.499 -3.348,3.349 z" />
    <path d="m 177.594,210.944 c 0,1.849 1.499,3.348 3.348,3.348 1.849,0 3.348,-1.499 3.348,-3.348 0,-1.849 -1.499,-3.348 -3.348,-3.348 -1.849,0 -3.348,1.499 -3.348,3.348 z" />
    <path d="m 177.594,224.337 c 0,1.849 1.499,3.349 3.348,3.349 1.849,0 3.348,-1.5 3.348,-3.349 0,-1.849 -1.499,-3.348 -3.348,-3.348 -1.849,0 -3.348,1.499 -3.348,3.348 z" />
    <path d="m 164.2,-43.5286 c 0,1.8492 1.499,3.3483 3.349,3.3483 1.849,0 3.348,-1.4991 3.348,-3.3483 0,-1.8493 -1.499,-3.3484 -3.348,-3.3484 -1.85,0 -3.349,1.4991 -3.349,3.3484 z" />
    <path d="m 164.2,-30.1353 c 0,1.8492 1.499,3.3483 3.349,3.3483 1.849,0 3.348,-1.4991 3.348,-3.3483 0,-1.8493 -1.499,-3.3484 -3.348,-3.3484 -1.85,0 -3.349,1.4991 -3.349,3.3484 z" />
    <path d="m 164.2,-16.742 c 0,1.8492 1.499,3.3483 3.349,3.3483 1.849,0 3.348,-1.4991 3.348,-3.3483 0,-1.8493 -1.499,-3.3484 -3.348,-3.3484 -1.85,0 -3.349,1.4991 -3.349,3.3484 z" />
    <path d="m 164.2,-3.34876 c 0,1.84923 1.499,3.348327032 3.349,3.348327032 1.849,0 3.348,-1.499097032 3.348,-3.348327032 0,-1.84922 -1.499,-3.34832 -3.348,-3.34832 -1.85,0 -3.349,1.4991 -3.349,3.34832 z" />
    <path d="m 164.2,10.0445 c 0,1.8493 1.499,3.3484 3.349,3.3484 1.849,0 3.348,-1.4991 3.348,-3.3484 0,-1.84919 -1.499,-3.34829 -3.348,-3.34829 -1.85,0 -3.349,1.4991 -3.349,3.34829 z" />
    <path d="m 164.2,23.4378 c 0,1.8493 1.499,3.3483 3.349,3.3483 1.849,0 3.348,-1.499 3.348,-3.3483 0,-1.8492 -1.499,-3.3483 -3.348,-3.3483 -1.85,0 -3.349,1.4991 -3.349,3.3483 z" />
    <path d="m 164.2,36.8311 c 0,1.8492 1.499,3.3483 3.349,3.3483 1.849,0 3.348,-1.4991 3.348,-3.3483 0,-1.8492 -1.499,-3.3483 -3.348,-3.3483 -1.85,0 -3.349,1.4991 -3.349,3.3483 z" />
    <path d="m 164.2,50.2244 c 0,1.8492 1.499,3.3483 3.349,3.3483 1.849,0 3.348,-1.4991 3.348,-3.3483 0,-1.8492 -1.499,-3.3483 -3.348,-3.3483 -1.85,0 -3.349,1.4991 -3.349,3.3483 z" />
    <path d="m 164.2,63.6177 c 0,1.8492 1.499,3.3483 3.349,3.3483 1.849,0 3.348,-1.4991 3.348,-3.3483 0,-1.8492 -1.499,-3.3483 -3.348,-3.3483 -1.85,0 -3.349,1.4991 -3.349,3.3483 z" />
    <path d="m 164.2,77.011 c 0,1.8492 1.499,3.3483 3.349,3.3483 1.849,0 3.348,-1.4991 3.348,-3.3483 0,-1.8492 -1.499,-3.3483 -3.348,-3.3483 -1.85,0 -3.349,1.4991 -3.349,3.3483 z" />
    <path d="m 164.2,90.4043 c 0,1.8492 1.499,3.3483 3.349,3.3483 1.849,0 3.348,-1.4991 3.348,-3.3483 0,-1.8492 -1.499,-3.3483 -3.348,-3.3483 -1.85,0 -3.349,1.4991 -3.349,3.3483 z" />
    <path d="m 164.2,103.798 c 0,1.849 1.499,3.348 3.349,3.348 1.849,0 3.348,-1.499 3.348,-3.348 0,-1.85 -1.499,-3.349 -3.348,-3.349 -1.85,0 -3.349,1.499 -3.349,3.349 z" />
    <path d="m 164.2,117.191 c 0,1.849 1.499,3.348 3.349,3.348 1.849,0 3.348,-1.499 3.348,-3.348 0,-1.849 -1.499,-3.348 -3.348,-3.348 -1.85,0 -3.349,1.499 -3.349,3.348 z" />
    <path d="m 164.2,130.584 c 0,1.849 1.499,3.348 3.349,3.348 1.849,0 3.348,-1.499 3.348,-3.348 0,-1.849 -1.499,-3.348 -3.348,-3.348 -1.85,0 -3.349,1.499 -3.349,3.348 z" />
    <path d="m 164.2,143.977 c 0,1.85 1.499,3.349 3.349,3.349 1.849,0 3.348,-1.499 3.348,-3.349 0,-1.849 -1.499,-3.348 -3.348,-3.348 -1.85,0 -3.349,1.499 -3.349,3.348 z" />
    <path d="m 164.2,157.371 c 0,1.849 1.499,3.348 3.349,3.348 1.849,0 3.348,-1.499 3.348,-3.348 0,-1.849 -1.499,-3.349 -3.348,-3.349 -1.85,0 -3.349,1.5 -3.349,3.349 z" />
    <path d="m 164.2,170.764 c 0,1.849 1.499,3.348 3.349,3.348 1.849,0 3.348,-1.499 3.348,-3.348 0,-1.849 -1.499,-3.348 -3.348,-3.348 -1.85,0 -3.349,1.499 -3.349,3.348 z" />
    <path d="m 164.2,184.157 c 0,1.85 1.499,3.349 3.349,3.349 1.849,0 3.348,-1.499 3.348,-3.349 0,-1.849 -1.499,-3.348 -3.348,-3.348 -1.85,0 -3.349,1.499 -3.349,3.348 z" />
    <path d="m 164.2,197.551 c 0,1.849 1.499,3.348 3.349,3.348 1.849,0 3.348,-1.499 3.348,-3.348 0,-1.85 -1.499,-3.349 -3.348,-3.349 -1.85,0 -3.349,1.499 -3.349,3.349 z" />
    <path d="m 164.2,210.944 c 0,1.849 1.499,3.348 3.349,3.348 1.849,0 3.348,-1.499 3.348,-3.348 0,-1.849 -1.499,-3.348 -3.348,-3.348 -1.85,0 -3.349,1.499 -3.349,3.348 z" />
    <path d="m 164.2,224.337 c 0,1.849 1.499,3.349 3.349,3.349 1.849,0 3.348,-1.5 3.348,-3.349 0,-1.849 -1.499,-3.348 -3.348,-3.348 -1.85,0 -3.349,1.499 -3.349,3.348 z" />
    <path d="m 150.807,-43.5286 c 0,1.8492 1.499,3.3483 3.348,3.3483 1.85,0 3.349,-1.4991 3.349,-3.3483 0,-1.8493 -1.499,-3.3484 -3.349,-3.3484 -1.849,0 -3.348,1.4991 -3.348,3.3484 z" />
    <path d="m 150.807,-30.1353 c 0,1.8492 1.499,3.3483 3.348,3.3483 1.85,0 3.349,-1.4991 3.349,-3.3483 0,-1.8493 -1.499,-3.3484 -3.349,-3.3484 -1.849,0 -3.348,1.4991 -3.348,3.3484 z" />
    <path d="m 150.807,-16.742 c 0,1.8492 1.499,3.3483 3.348,3.3483 1.85,0 3.349,-1.4991 3.349,-3.3483 0,-1.8493 -1.499,-3.3484 -3.349,-3.3484 -1.849,0 -3.348,1.4991 -3.348,3.3484 z" />
    <path d="m 150.807,-3.34876 c 0,1.84923 1.499,3.348327032 3.348,3.348327032 1.85,0 3.349,-1.499097032 3.349,-3.348327032 0,-1.84922 -1.499,-3.34832 -3.349,-3.34832 -1.849,0 -3.348,1.4991 -3.348,3.34832 z" />
    <path d="m 150.807,10.0445 c 0,1.8493 1.499,3.3484 3.348,3.3484 1.85,0 3.349,-1.4991 3.349,-3.3484 0,-1.84919 -1.499,-3.34829 -3.349,-3.34829 -1.849,0 -3.348,1.4991 -3.348,3.34829 z" />
    <path d="m 150.807,23.4378 c 0,1.8493 1.499,3.3483 3.348,3.3483 1.85,0 3.349,-1.499 3.349,-3.3483 0,-1.8492 -1.499,-3.3483 -3.349,-3.3483 -1.849,0 -3.348,1.4991 -3.348,3.3483 z" />
    <path d="m 150.807,36.8311 c 0,1.8492 1.499,3.3483 3.348,3.3483 1.85,0 3.349,-1.4991 3.349,-3.3483 0,-1.8492 -1.499,-3.3483 -3.349,-3.3483 -1.849,0 -3.348,1.4991 -3.348,3.3483 z" />
    <path d="m 150.807,50.2244 c 0,1.8492 1.499,3.3483 3.348,3.3483 1.85,0 3.349,-1.4991 3.349,-3.3483 0,-1.8492 -1.499,-3.3483 -3.349,-3.3483 -1.849,0 -3.348,1.4991 -3.348,3.3483 z" />
    <path d="m 150.807,63.6177 c 0,1.8492 1.499,3.3483 3.348,3.3483 1.85,0 3.349,-1.4991 3.349,-3.3483 0,-1.8492 -1.499,-3.3483 -3.349,-3.3483 -1.849,0 -3.348,1.4991 -3.348,3.3483 z" />
    <path d="m 150.807,77.011 c 0,1.8492 1.499,3.3483 3.348,3.3483 1.85,0 3.349,-1.4991 3.349,-3.3483 0,-1.8492 -1.499,-3.3483 -3.349,-3.3483 -1.849,0 -3.348,1.4991 -3.348,3.3483 z" />
    <path d="m 150.807,90.4043 c 0,1.8492 1.499,3.3483 3.348,3.3483 1.85,0 3.349,-1.4991 3.349,-3.3483 0,-1.8492 -1.499,-3.3483 -3.349,-3.3483 -1.849,0 -3.348,1.4991 -3.348,3.3483 z" />
    <path d="m 150.807,103.798 c 0,1.849 1.499,3.348 3.348,3.348 1.85,0 3.349,-1.499 3.349,-3.348 0,-1.85 -1.499,-3.349 -3.349,-3.349 -1.849,0 -3.348,1.499 -3.348,3.349 z" />
    <path d="m 150.807,117.191 c 0,1.849 1.499,3.348 3.348,3.348 1.85,0 3.349,-1.499 3.349,-3.348 0,-1.849 -1.499,-3.348 -3.349,-3.348 -1.849,0 -3.348,1.499 -3.348,3.348 z" />
    <path d="m 150.807,130.584 c 0,1.849 1.499,3.348 3.348,3.348 1.85,0 3.349,-1.499 3.349,-3.348 0,-1.849 -1.499,-3.348 -3.349,-3.348 -1.849,0 -3.348,1.499 -3.348,3.348 z" />
    <path d="m 150.807,143.977 c 0,1.85 1.499,3.349 3.348,3.349 1.85,0 3.349,-1.499 3.349,-3.349 0,-1.849 -1.499,-3.348 -3.349,-3.348 -1.849,0 -3.348,1.499 -3.348,3.348 z" />
    <path d="m 150.807,157.371 c 0,1.849 1.499,3.348 3.348,3.348 1.85,0 3.349,-1.499 3.349,-3.348 0,-1.849 -1.499,-3.349 -3.349,-3.349 -1.849,0 -3.348,1.5 -3.348,3.349 z" />
    <path d="m 150.807,170.764 c 0,1.849 1.499,3.348 3.348,3.348 1.85,0 3.349,-1.499 3.349,-3.348 0,-1.849 -1.499,-3.348 -3.349,-3.348 -1.849,0 -3.348,1.499 -3.348,3.348 z" />
    <path d="m 150.807,184.157 c 0,1.85 1.499,3.349 3.348,3.349 1.85,0 3.349,-1.499 3.349,-3.349 0,-1.849 -1.499,-3.348 -3.349,-3.348 -1.849,0 -3.348,1.499 -3.348,3.348 z" />
    <path d="m 150.807,197.551 c 0,1.849 1.499,3.348 3.348,3.348 1.85,0 3.349,-1.499 3.349,-3.348 0,-1.85 -1.499,-3.349 -3.349,-3.349 -1.849,0 -3.348,1.499 -3.348,3.349 z" />
    <path d="m 150.807,210.944 c 0,1.849 1.499,3.348 3.348,3.348 1.85,0 3.349,-1.499 3.349,-3.348 0,-1.849 -1.499,-3.348 -3.349,-3.348 -1.849,0 -3.348,1.499 -3.348,3.348 z" />
    <path d="m 150.807,224.337 c 0,1.849 1.499,3.349 3.348,3.349 1.85,0 3.349,-1.5 3.349,-3.349 0,-1.849 -1.499,-3.348 -3.349,-3.348 -1.849,0 -3.348,1.499 -3.348,3.348 z" />
    <path d="m 137.414,-43.5286 c 0,1.8492 1.499,3.3483 3.348,3.3483 1.849,0 3.348,-1.4991 3.348,-3.3483 0,-1.8493 -1.499,-3.3484 -3.348,-3.3484 -1.849,0 -3.348,1.4991 -3.348,3.3484 z" />
    <path d="m 137.414,-30.1353 c 0,1.8492 1.499,3.3483 3.348,3.3483 1.849,0 3.348,-1.4991 3.348,-3.3483 0,-1.8493 -1.499,-3.3484 -3.348,-3.3484 -1.849,0 -3.348,1.4991 -3.348,3.3484 z" />
    <path d="m 137.414,-16.742 c 0,1.8492 1.499,3.3483 3.348,3.3483 1.849,0 3.348,-1.4991 3.348,-3.3483 0,-1.8493 -1.499,-3.3484 -3.348,-3.3484 -1.849,0 -3.348,1.4991 -3.348,3.3484 z" />
    <path d="m 137.414,-3.34876 c 0,1.84923 1.499,3.348327032 3.348,3.348327032 1.849,0 3.348,-1.499097032 3.348,-3.348327032 0,-1.84922 -1.499,-3.34832 -3.348,-3.34832 -1.849,0 -3.348,1.4991 -3.348,3.34832 z" />
    <path d="m 137.414,10.0445 c 0,1.8493 1.499,3.3484 3.348,3.3484 1.849,0 3.348,-1.4991 3.348,-3.3484 0,-1.84919 -1.499,-3.34829 -3.348,-3.34829 -1.849,0 -3.348,1.4991 -3.348,3.34829 z" />
    <path d="m 137.414,23.4378 c 0,1.8493 1.499,3.3483 3.348,3.3483 1.849,0 3.348,-1.499 3.348,-3.3483 0,-1.8492 -1.499,-3.3483 -3.348,-3.3483 -1.849,0 -3.348,1.4991 -3.348,3.3483 z" />
    <path d="m 137.414,36.8311 c 0,1.8492 1.499,3.3483 3.348,3.3483 1.849,0 3.348,-1.4991 3.348,-3.3483 0,-1.8492 -1.499,-3.3483 -3.348,-3.3483 -1.849,0 -3.348,1.4991 -3.348,3.3483 z" />
    <path d="m 137.414,50.2244 c 0,1.8492 1.499,3.3483 3.348,3.3483 1.849,0 3.348,-1.4991 3.348,-3.3483 0,-1.8492 -1.499,-3.3483 -3.348,-3.3483 -1.849,0 -3.348,1.4991 -3.348,3.3483 z" />
    <path d="m 137.414,63.6177 c 0,1.8492 1.499,3.3483 3.348,3.3483 1.849,0 3.348,-1.4991 3.348,-3.3483 0,-1.8492 -1.499,-3.3483 -3.348,-3.3483 -1.849,0 -3.348,1.4991 -3.348,3.3483 z" />
    <path d="m 137.414,77.011 c 0,1.8492 1.499,3.3483 3.348,3.3483 1.849,0 3.348,-1.4991 3.348,-3.3483 0,-1.8492 -1.499,-3.3483 -3.348,-3.3483 -1.849,0 -3.348,1.4991 -3.348,3.3483 z" />
    <path d="m 137.414,90.4043 c 0,1.8492 1.499,3.3483 3.348,3.3483 1.849,0 3.348,-1.4991 3.348,-3.3483 0,-1.8492 -1.499,-3.3483 -3.348,-3.3483 -1.849,0 -3.348,1.4991 -3.348,3.3483 z" />
    <path d="m 137.414,103.798 c 0,1.849 1.499,3.348 3.348,3.348 1.849,0 3.348,-1.499 3.348,-3.348 0,-1.85 -1.499,-3.349 -3.348,-3.349 -1.849,0 -3.348,1.499 -3.348,3.349 z" />
    <path d="m 137.414,117.191 c 0,1.849 1.499,3.348 3.348,3.348 1.849,0 3.348,-1.499 3.348,-3.348 0,-1.849 -1.499,-3.348 -3.348,-3.348 -1.849,0 -3.348,1.499 -3.348,3.348 z" />
    <path d="m 137.414,130.584 c 0,1.849 1.499,3.348 3.348,3.348 1.849,0 3.348,-1.499 3.348,-3.348 0,-1.849 -1.499,-3.348 -3.348,-3.348 -1.849,0 -3.348,1.499 -3.348,3.348 z" />
    <path d="m 137.414,143.977 c 0,1.85 1.499,3.349 3.348,3.349 1.849,0 3.348,-1.499 3.348,-3.349 0,-1.849 -1.499,-3.348 -3.348,-3.348 -1.849,0 -3.348,1.499 -3.348,3.348 z" />
    <path d="m 137.414,157.371 c 0,1.849 1.499,3.348 3.348,3.348 1.849,0 3.348,-1.499 3.348,-3.348 0,-1.849 -1.499,-3.349 -3.348,-3.349 -1.849,0 -3.348,1.5 -3.348,3.349 z" />
    <path d="m 137.414,170.764 c 0,1.849 1.499,3.348 3.348,3.348 1.849,0 3.348,-1.499 3.348,-3.348 0,-1.849 -1.499,-3.348 -3.348,-3.348 -1.849,0 -3.348,1.499 -3.348,3.348 z" />
    <path d="m 137.414,184.157 c 0,1.85 1.499,3.349 3.348,3.349 1.849,0 3.348,-1.499 3.348,-3.349 0,-1.849 -1.499,-3.348 -3.348,-3.348 -1.849,0 -3.348,1.499 -3.348,3.348 z" />
    <path d="m 137.414,197.551 c 0,1.849 1.499,3.348 3.348,3.348 1.849,0 3.348,-1.499 3.348,-3.348 0,-1.85 -1.499,-3.349 -3.348,-3.349 -1.849,0 -3.348,1.499 -3.348,3.349 z" />
    <path d="m 137.414,210.944 c 0,1.849 1.499,3.348 3.348,3.348 1.849,0 3.348,-1.499 3.348,-3.348 0,-1.849 -1.499,-3.348 -3.348,-3.348 -1.849,0 -3.348,1.499 -3.348,3.348 z" />
    <path d="m 137.414,224.337 c 0,1.849 1.499,3.349 3.348,3.349 1.849,0 3.348,-1.5 3.348,-3.349 0,-1.849 -1.499,-3.348 -3.348,-3.348 -1.849,0 -3.348,1.499 -3.348,3.348 z" />
    <path d="m 124.021,-43.5286 c 0,1.8492 1.499,3.3483 3.348,3.3483 1.849,0 3.348,-1.4991 3.348,-3.3483 0,-1.8493 -1.499,-3.3484 -3.348,-3.3484 -1.849,0 -3.348,1.4991 -3.348,3.3484 z" />
    <path d="m 124.021,-30.1353 c 0,1.8492 1.499,3.3483 3.348,3.3483 1.849,0 3.348,-1.4991 3.348,-3.3483 0,-1.8493 -1.499,-3.3484 -3.348,-3.3484 -1.849,0 -3.348,1.4991 -3.348,3.3484 z" />
    <path d="m 124.021,-16.742 c 0,1.8492 1.499,3.3483 3.348,3.3483 1.849,0 3.348,-1.4991 3.348,-3.3483 0,-1.8493 -1.499,-3.3484 -3.348,-3.3484 -1.849,0 -3.348,1.4991 -3.348,3.3484 z" />
    <path d="m 124.021,-3.34876 c 0,1.84923 1.499,3.348327032 3.348,3.348327032 1.849,0 3.348,-1.499097032 3.348,-3.348327032 0,-1.84922 -1.499,-3.34832 -3.348,-3.34832 -1.849,0 -3.348,1.4991 -3.348,3.34832 z" />
    <path d="m 124.021,10.0445 c 0,1.8493 1.499,3.3484 3.348,3.3484 1.849,0 3.348,-1.4991 3.348,-3.3484 0,-1.84919 -1.499,-3.34829 -3.348,-3.34829 -1.849,0 -3.348,1.4991 -3.348,3.34829 z" />
    <path d="m 124.021,23.4378 c 0,1.8493 1.499,3.3483 3.348,3.3483 1.849,0 3.348,-1.499 3.348,-3.3483 0,-1.8492 -1.499,-3.3483 -3.348,-3.3483 -1.849,0 -3.348,1.4991 -3.348,3.3483 z" />
    <path d="m 124.021,36.8311 c 0,1.8492 1.499,3.3483 3.348,3.3483 1.849,0 3.348,-1.4991 3.348,-3.3483 0,-1.8492 -1.499,-3.3483 -3.348,-3.3483 -1.849,0 -3.348,1.4991 -3.348,3.3483 z" />
    <path d="m 124.021,50.2244 c 0,1.8492 1.499,3.3483 3.348,3.3483 1.849,0 3.348,-1.4991 3.348,-3.3483 0,-1.8492 -1.499,-3.3483 -3.348,-3.3483 -1.849,0 -3.348,1.4991 -3.348,3.3483 z" />
    <path d="m 124.021,63.6177 c 0,1.8492 1.499,3.3483 3.348,3.3483 1.849,0 3.348,-1.4991 3.348,-3.3483 0,-1.8492 -1.499,-3.3483 -3.348,-3.3483 -1.849,0 -3.348,1.4991 -3.348,3.3483 z" />
    <path d="m 124.021,77.011 c 0,1.8492 1.499,3.3483 3.348,3.3483 1.849,0 3.348,-1.4991 3.348,-3.3483 0,-1.8492 -1.499,-3.3483 -3.348,-3.3483 -1.849,0 -3.348,1.4991 -3.348,3.3483 z" />
    <path d="m 124.021,90.4043 c 0,1.8492 1.499,3.3483 3.348,3.3483 1.849,0 3.348,-1.4991 3.348,-3.3483 0,-1.8492 -1.499,-3.3483 -3.348,-3.3483 -1.849,0 -3.348,1.4991 -3.348,3.3483 z" />
    <path d="m 124.021,103.798 c 0,1.849 1.499,3.348 3.348,3.348 1.849,0 3.348,-1.499 3.348,-3.348 0,-1.85 -1.499,-3.349 -3.348,-3.349 -1.849,0 -3.348,1.499 -3.348,3.349 z" />
    <path d="m 124.021,117.191 c 0,1.849 1.499,3.348 3.348,3.348 1.849,0 3.348,-1.499 3.348,-3.348 0,-1.849 -1.499,-3.348 -3.348,-3.348 -1.849,0 -3.348,1.499 -3.348,3.348 z" />
    <path d="m 124.021,130.584 c 0,1.849 1.499,3.348 3.348,3.348 1.849,0 3.348,-1.499 3.348,-3.348 0,-1.849 -1.499,-3.348 -3.348,-3.348 -1.849,0 -3.348,1.499 -3.348,3.348 z" />
    <path d="m 124.021,143.977 c 0,1.85 1.499,3.349 3.348,3.349 1.849,0 3.348,-1.499 3.348,-3.349 0,-1.849 -1.499,-3.348 -3.348,-3.348 -1.849,0 -3.348,1.499 -3.348,3.348 z" />
    <path d="m 124.021,157.371 c 0,1.849 1.499,3.348 3.348,3.348 1.849,0 3.348,-1.499 3.348,-3.348 0,-1.849 -1.499,-3.349 -3.348,-3.349 -1.849,0 -3.348,1.5 -3.348,3.349 z" />
    <path d="m 124.021,170.764 c 0,1.849 1.499,3.348 3.348,3.348 1.849,0 3.348,-1.499 3.348,-3.348 0,-1.849 -1.499,-3.348 -3.348,-3.348 -1.849,0 -3.348,1.499 -3.348,3.348 z" />
    <path d="m 124.021,184.157 c 0,1.85 1.499,3.349 3.348,3.349 1.849,0 3.348,-1.499 3.348,-3.349 0,-1.849 -1.499,-3.348 -3.348,-3.348 -1.849,0 -3.348,1.499 -3.348,3.348 z" />
    <path d="m 124.021,197.551 c 0,1.849 1.499,3.348 3.348,3.348 1.849,0 3.348,-1.499 3.348,-3.348 0,-1.85 -1.499,-3.349 -3.348,-3.349 -1.849,0 -3.348,1.499 -3.348,3.349 z" />
    <path d="m 124.021,210.944 c 0,1.849 1.499,3.348 3.348,3.348 1.849,0 3.348,-1.499 3.348,-3.348 0,-1.849 -1.499,-3.348 -3.348,-3.348 -1.849,0 -3.348,1.499 -3.348,3.348 z" />
    <path d="m 124.021,224.337 c 0,1.849 1.499,3.349 3.348,3.349 1.849,0 3.348,-1.5 3.348,-3.349 0,-1.849 -1.499,-3.348 -3.348,-3.348 -1.849,0 -3.348,1.499 -3.348,3.348 z" />
    <path d="m 110.627,-43.5286 c 0,1.8492 1.499,3.3483 3.349,3.3483 1.849,0 3.348,-1.4991 3.348,-3.3483 0,-1.8493 -1.499,-3.3484 -3.348,-3.3484 -1.85,0 -3.349,1.4991 -3.349,3.3484 z" />
    <path d="m 110.627,-30.1353 c 0,1.8492 1.499,3.3483 3.349,3.3483 1.849,0 3.348,-1.4991 3.348,-3.3483 0,-1.8493 -1.499,-3.3484 -3.348,-3.3484 -1.85,0 -3.349,1.4991 -3.349,3.3484 z" />
    <path d="m 110.627,-16.742 c 0,1.8492 1.499,3.3483 3.349,3.3483 1.849,0 3.348,-1.4991 3.348,-3.3483 0,-1.8493 -1.499,-3.3484 -3.348,-3.3484 -1.85,0 -3.349,1.4991 -3.349,3.3484 z" />
    <path d="m 110.627,-3.34876 c 0,1.84923 1.499,3.348327032 3.349,3.348327032 1.849,0 3.348,-1.499097032 3.348,-3.348327032 0,-1.84922 -1.499,-3.34832 -3.348,-3.34832 -1.85,0 -3.349,1.4991 -3.349,3.34832 z" />
    <path d="m 110.627,10.0445 c 0,1.8493 1.499,3.3484 3.349,3.3484 1.849,0 3.348,-1.4991 3.348,-3.3484 0,-1.84919 -1.499,-3.34829 -3.348,-3.34829 -1.85,0 -3.349,1.4991 -3.349,3.34829 z" />
    <path d="m 110.627,23.4378 c 0,1.8493 1.499,3.3483 3.349,3.3483 1.849,0 3.348,-1.499 3.348,-3.3483 0,-1.8492 -1.499,-3.3483 -3.348,-3.3483 -1.85,0 -3.349,1.4991 -3.349,3.3483 z" />
    <path d="m 110.627,36.8311 c 0,1.8492 1.499,3.3483 3.349,3.3483 1.849,0 3.348,-1.4991 3.348,-3.3483 0,-1.8492 -1.499,-3.3483 -3.348,-3.3483 -1.85,0 -3.349,1.4991 -3.349,3.3483 z" />
    <path d="m 110.627,50.2244 c 0,1.8492 1.499,3.3483 3.349,3.3483 1.849,0 3.348,-1.4991 3.348,-3.3483 0,-1.8492 -1.499,-3.3483 -3.348,-3.3483 -1.85,0 -3.349,1.4991 -3.349,3.3483 z" />
    <path d="m 110.627,63.6177 c 0,1.8492 1.499,3.3483 3.349,3.3483 1.849,0 3.348,-1.4991 3.348,-3.3483 0,-1.8492 -1.499,-3.3483 -3.348,-3.3483 -1.85,0 -3.349,1.4991 -3.349,3.3483 z" />
    <path d="m 110.627,77.011 c 0,1.8492 1.499,3.3483 3.349,3.3483 1.849,0 3.348,-1.4991 3.348,-3.3483 0,-1.8492 -1.499,-3.3483 -3.348,-3.3483 -1.85,0 -3.349,1.4991 -3.349,3.3483 z" />
    <path d="m 110.627,90.4043 c 0,1.8492 1.499,3.3483 3.349,3.3483 1.849,0 3.348,-1.4991 3.348,-3.3483 0,-1.8492 -1.499,-3.3483 -3.348,-3.3483 -1.85,0 -3.349,1.4991 -3.349,3.3483 z" />
    <path d="m 110.627,103.798 c 0,1.849 1.499,3.348 3.349,3.348 1.849,0 3.348,-1.499 3.348,-3.348 0,-1.85 -1.499,-3.349 -3.348,-3.349 -1.85,0 -3.349,1.499 -3.349,3.349 z" />
    <path d="m 110.627,117.191 c 0,1.849 1.499,3.348 3.349,3.348 1.849,0 3.348,-1.499 3.348,-3.348 0,-1.849 -1.499,-3.348 -3.348,-3.348 -1.85,0 -3.349,1.499 -3.349,3.348 z" />
    <path d="m 110.627,130.584 c 0,1.849 1.499,3.348 3.349,3.348 1.849,0 3.348,-1.499 3.348,-3.348 0,-1.849 -1.499,-3.348 -3.348,-3.348 -1.85,0 -3.349,1.499 -3.349,3.348 z" />
    <path d="m 110.627,143.977 c 0,1.85 1.499,3.349 3.349,3.349 1.849,0 3.348,-1.499 3.348,-3.349 0,-1.849 -1.499,-3.348 -3.348,-3.348 -1.85,0 -3.349,1.499 -3.349,3.348 z" />
    <path d="m 110.627,157.371 c 0,1.849 1.499,3.348 3.349,3.348 1.849,0 3.348,-1.499 3.348,-3.348 0,-1.849 -1.499,-3.349 -3.348,-3.349 -1.85,0 -3.349,1.5 -3.349,3.349 z" />
    <path d="m 110.627,170.764 c 0,1.849 1.499,3.348 3.349,3.348 1.849,0 3.348,-1.499 3.348,-3.348 0,-1.849 -1.499,-3.348 -3.348,-3.348 -1.85,0 -3.349,1.499 -3.349,3.348 z" />
    <path d="m 110.627,184.157 c 0,1.85 1.499,3.349 3.349,3.349 1.849,0 3.348,-1.499 3.348,-3.349 0,-1.849 -1.499,-3.348 -3.348,-3.348 -1.85,0 -3.349,1.499 -3.349,3.348 z" />
    <path d="m 110.627,197.551 c 0,1.849 1.499,3.348 3.349,3.348 1.849,0 3.348,-1.499 3.348,-3.348 0,-1.85 -1.499,-3.349 -3.348,-3.349 -1.85,0 -3.349,1.499 -3.349,3.349 z" />
    <path d="m 110.627,210.944 c 0,1.849 1.499,3.348 3.349,3.348 1.849,0 3.348,-1.499 3.348,-3.348 0,-1.849 -1.499,-3.348 -3.348,-3.348 -1.85,0 -3.349,1.499 -3.349,3.348 z" />
    <path d="m 110.627,224.337 c 0,1.849 1.499,3.349 3.349,3.349 1.849,0 3.348,-1.5 3.348,-3.349 0,-1.849 -1.499,-3.348 -3.348,-3.348 -1.85,0 -3.349,1.499 -3.349,3.348 z" />
    <path d="m 97.2339,-43.5286 c 0,1.8492 1.4991,3.3483 3.3481,3.3483 1.849,0 3.349,-1.4991 3.349,-3.3483 0,-1.8493 -1.5,-3.3484 -3.349,-3.3484 -1.849,0 -3.3481,1.4991 -3.3481,3.3484 z" />
    <path d="m 97.2339,-30.1353 c 0,1.8492 1.4991,3.3483 3.3481,3.3483 1.849,0 3.349,-1.4991 3.349,-3.3483 0,-1.8493 -1.5,-3.3484 -3.349,-3.3484 -1.849,0 -3.3481,1.4991 -3.3481,3.3484 z" />
    <path d="m 97.2339,-16.742 c 0,1.8492 1.4991,3.3483 3.3481,3.3483 1.849,0 3.349,-1.4991 3.349,-3.3483 0,-1.8493 -1.5,-3.3484 -3.349,-3.3484 -1.849,0 -3.3481,1.4991 -3.3481,3.3484 z" />
    <path d="m 97.2339,-3.34876 c 0,1.84923 1.4991,3.348327032 3.3481,3.348327032 1.849,0 3.349,-1.499097032 3.349,-3.348327032 0,-1.84922 -1.5,-3.34832 -3.349,-3.34832 -1.849,0 -3.3481,1.4991 -3.3481,3.34832 z" />
    <path d="m 97.2339,10.0445 c 0,1.8493 1.4991,3.3484 3.3481,3.3484 1.849,0 3.349,-1.4991 3.349,-3.3484 0,-1.84919 -1.5,-3.34829 -3.349,-3.34829 -1.849,0 -3.3481,1.4991 -3.3481,3.34829 z" />
    <path d="m 97.2339,23.4378 c 0,1.8493 1.4991,3.3483 3.3481,3.3483 1.849,0 3.349,-1.499 3.349,-3.3483 0,-1.8492 -1.5,-3.3483 -3.349,-3.3483 -1.849,0 -3.3481,1.4991 -3.3481,3.3483 z" />
    <path d="m 97.2339,36.8311 c 0,1.8492 1.4991,3.3483 3.3481,3.3483 1.849,0 3.349,-1.4991 3.349,-3.3483 0,-1.8492 -1.5,-3.3483 -3.349,-3.3483 -1.849,0 -3.3481,1.4991 -3.3481,3.3483 z" />
    <path d="m 97.2339,50.2244 c 0,1.8492 1.4991,3.3483 3.3481,3.3483 1.849,0 3.349,-1.4991 3.349,-3.3483 0,-1.8492 -1.5,-3.3483 -3.349,-3.3483 -1.849,0 -3.3481,1.4991 -3.3481,3.3483 z" />
    <path d="m 97.2339,63.6177 c 0,1.8492 1.4991,3.3483 3.3481,3.3483 1.849,0 3.349,-1.4991 3.349,-3.3483 0,-1.8492 -1.5,-3.3483 -3.349,-3.3483 -1.849,0 -3.3481,1.4991 -3.3481,3.3483 z" />
    <path d="m 97.2339,77.011 c 0,1.8492 1.4991,3.3483 3.3481,3.3483 1.849,0 3.349,-1.4991 3.349,-3.3483 0,-1.8492 -1.5,-3.3483 -3.349,-3.3483 -1.849,0 -3.3481,1.4991 -3.3481,3.3483 z" />
    <path d="m 97.2339,90.4043 c 0,1.8492 1.4991,3.3483 3.3481,3.3483 1.849,0 3.349,-1.4991 3.349,-3.3483 0,-1.8492 -1.5,-3.3483 -3.349,-3.3483 -1.849,0 -3.3481,1.4991 -3.3481,3.3483 z" />
    <path d="m 97.2339,103.798 c 0,1.849 1.4991,3.348 3.3481,3.348 1.849,0 3.349,-1.499 3.349,-3.348 0,-1.85 -1.5,-3.349 -3.349,-3.349 -1.849,0 -3.3481,1.499 -3.3481,3.349 z" />
    <path d="m 97.2339,117.191 c 0,1.849 1.4991,3.348 3.3481,3.348 1.849,0 3.349,-1.499 3.349,-3.348 0,-1.849 -1.5,-3.348 -3.349,-3.348 -1.849,0 -3.3481,1.499 -3.3481,3.348 z" />
    <path d="m 97.2339,130.584 c 0,1.849 1.4991,3.348 3.3481,3.348 1.849,0 3.349,-1.499 3.349,-3.348 0,-1.849 -1.5,-3.348 -3.349,-3.348 -1.849,0 -3.3481,1.499 -3.3481,3.348 z" />
    <path d="m 97.2339,143.977 c 0,1.85 1.4991,3.349 3.3481,3.349 1.849,0 3.349,-1.499 3.349,-3.349 0,-1.849 -1.5,-3.348 -3.349,-3.348 -1.849,0 -3.3481,1.499 -3.3481,3.348 z" />
    <path d="m 97.2339,157.371 c 0,1.849 1.4991,3.348 3.3481,3.348 1.849,0 3.349,-1.499 3.349,-3.348 0,-1.849 -1.5,-3.349 -3.349,-3.349 -1.849,0 -3.3481,1.5 -3.3481,3.349 z" />
    <path d="m 97.2339,170.764 c 0,1.849 1.4991,3.348 3.3481,3.348 1.849,0 3.349,-1.499 3.349,-3.348 0,-1.849 -1.5,-3.348 -3.349,-3.348 -1.849,0 -3.3481,1.499 -3.3481,3.348 z" />
    <path d="m 97.2339,184.157 c 0,1.85 1.4991,3.349 3.3481,3.349 1.849,0 3.349,-1.499 3.349,-3.349 0,-1.849 -1.5,-3.348 -3.349,-3.348 -1.849,0 -3.3481,1.499 -3.3481,3.348 z" />
    <path d="m 97.2339,197.551 c 0,1.849 1.4991,3.348 3.3481,3.348 1.849,0 3.349,-1.499 3.349,-3.348 0,-1.85 -1.5,-3.349 -3.349,-3.349 -1.849,0 -3.3481,1.499 -3.3481,3.349 z" />
    <path d="m 97.2339,210.944 c 0,1.849 1.4991,3.348 3.3481,3.348 1.849,0 3.349,-1.499 3.349,-3.348 0,-1.849 -1.5,-3.348 -3.349,-3.348 -1.849,0 -3.3481,1.499 -3.3481,3.348 z" />
    <path d="m 97.2339,224.337 c 0,1.849 1.4991,3.349 3.3481,3.349 1.849,0 3.349,-1.5 3.349,-3.349 0,-1.849 -1.5,-3.348 -3.349,-3.348 -1.849,0 -3.3481,1.499 -3.3481,3.348 z" />
    <path d="m 83.8406,-43.5286 c 0,1.8492 1.4991,3.3483 3.3484,3.3483 1.8492,0 3.3483,-1.4991 3.3483,-3.3483 0,-1.8493 -1.4991,-3.3484 -3.3483,-3.3484 -1.8493,0 -3.3484,1.4991 -3.3484,3.3484 z" />
    <path d="m 83.8406,-30.1353 c 0,1.8492 1.4991,3.3483 3.3484,3.3483 1.8492,0 3.3483,-1.4991 3.3483,-3.3483 0,-1.8493 -1.4991,-3.3484 -3.3483,-3.3484 -1.8493,0 -3.3484,1.4991 -3.3484,3.3484 z" />
    <path d="m 83.8406,-16.742 c 0,1.8492 1.4991,3.3483 3.3484,3.3483 1.8492,0 3.3483,-1.4991 3.3483,-3.3483 0,-1.8493 -1.4991,-3.3484 -3.3483,-3.3484 -1.8493,0 -3.3484,1.4991 -3.3484,3.3484 z" />
    <path d="m 83.8406,-3.34876 c 0,1.84923 1.4991,3.348327032 3.3484,3.348327032 1.8492,0 3.3483,-1.499097032 3.3483,-3.348327032 0,-1.84922 -1.4991,-3.34832 -3.3483,-3.34832 -1.8493,0 -3.3484,1.4991 -3.3484,3.34832 z" />
    <path d="m 83.8406,10.0445 c 0,1.8493 1.4991,3.3484 3.3484,3.3484 1.8492,0 3.3483,-1.4991 3.3483,-3.3484 0,-1.84919 -1.4991,-3.34829 -3.3483,-3.34829 -1.8493,0 -3.3484,1.4991 -3.3484,3.34829 z" />
    <path d="m 83.8406,23.4378 c 0,1.8493 1.4991,3.3483 3.3484,3.3483 1.8492,0 3.3483,-1.499 3.3483,-3.3483 0,-1.8492 -1.4991,-3.3483 -3.3483,-3.3483 -1.8493,0 -3.3484,1.4991 -3.3484,3.3483 z" />
    <path d="m 83.8406,36.8311 c 0,1.8492 1.4991,3.3483 3.3484,3.3483 1.8492,0 3.3483,-1.4991 3.3483,-3.3483 0,-1.8492 -1.4991,-3.3483 -3.3483,-3.3483 -1.8493,0 -3.3484,1.4991 -3.3484,3.3483 z" />
    <path d="m 83.8406,50.2244 c 0,1.8492 1.4991,3.3483 3.3484,3.3483 1.8492,0 3.3483,-1.4991 3.3483,-3.3483 0,-1.8492 -1.4991,-3.3483 -3.3483,-3.3483 -1.8493,0 -3.3484,1.4991 -3.3484,3.3483 z" />
    <path d="m 83.8406,63.6177 c 0,1.8492 1.4991,3.3483 3.3484,3.3483 1.8492,0 3.3483,-1.4991 3.3483,-3.3483 0,-1.8492 -1.4991,-3.3483 -3.3483,-3.3483 -1.8493,0 -3.3484,1.4991 -3.3484,3.3483 z" />
    <path d="m 83.8406,77.011 c 0,1.8492 1.4991,3.3483 3.3484,3.3483 1.8492,0 3.3483,-1.4991 3.3483,-3.3483 0,-1.8492 -1.4991,-3.3483 -3.3483,-3.3483 -1.8493,0 -3.3484,1.4991 -3.3484,3.3483 z" />
    <path d="m 83.8406,90.4043 c 0,1.8492 1.4991,3.3483 3.3484,3.3483 1.8492,0 3.3483,-1.4991 3.3483,-3.3483 0,-1.8492 -1.4991,-3.3483 -3.3483,-3.3483 -1.8493,0 -3.3484,1.4991 -3.3484,3.3483 z" />
    <path d="m 83.8406,103.798 c 0,1.849 1.4991,3.348 3.3484,3.348 1.8492,0 3.3483,-1.499 3.3483,-3.348 0,-1.85 -1.4991,-3.349 -3.3483,-3.349 -1.8493,0 -3.3484,1.499 -3.3484,3.349 z" />
    <path d="m 83.8406,117.191 c 0,1.849 1.4991,3.348 3.3484,3.348 1.8492,0 3.3483,-1.499 3.3483,-3.348 0,-1.849 -1.4991,-3.348 -3.3483,-3.348 -1.8493,0 -3.3484,1.499 -3.3484,3.348 z" />
    <path d="m 83.8406,130.584 c 0,1.849 1.4991,3.348 3.3484,3.348 1.8492,0 3.3483,-1.499 3.3483,-3.348 0,-1.849 -1.4991,-3.348 -3.3483,-3.348 -1.8493,0 -3.3484,1.499 -3.3484,3.348 z" />
    <path d="m 83.8406,143.977 c 0,1.85 1.4991,3.349 3.3484,3.349 1.8492,0 3.3483,-1.499 3.3483,-3.349 0,-1.849 -1.4991,-3.348 -3.3483,-3.348 -1.8493,0 -3.3484,1.499 -3.3484,3.348 z" />
    <path d="m 83.8406,157.371 c 0,1.849 1.4991,3.348 3.3484,3.348 1.8492,0 3.3483,-1.499 3.3483,-3.348 0,-1.849 -1.4991,-3.349 -3.3483,-3.349 -1.8493,0 -3.3484,1.5 -3.3484,3.349 z" />
    <path d="m 83.8406,170.764 c 0,1.849 1.4991,3.348 3.3484,3.348 1.8492,0 3.3483,-1.499 3.3483,-3.348 0,-1.849 -1.4991,-3.348 -3.3483,-3.348 -1.8493,0 -3.3484,1.499 -3.3484,3.348 z" />
    <path d="m 83.8406,184.157 c 0,1.85 1.4991,3.349 3.3484,3.349 1.8492,0 3.3483,-1.499 3.3483,-3.349 0,-1.849 -1.4991,-3.348 -3.3483,-3.348 -1.8493,0 -3.3484,1.499 -3.3484,3.348 z" />
    <path d="m 83.8406,197.551 c 0,1.849 1.4991,3.348 3.3484,3.348 1.8492,0 3.3483,-1.499 3.3483,-3.348 0,-1.85 -1.4991,-3.349 -3.3483,-3.349 -1.8493,0 -3.3484,1.499 -3.3484,3.349 z" />
    <path d="m 83.8406,210.944 c 0,1.849 1.4991,3.348 3.3484,3.348 1.8492,0 3.3483,-1.499 3.3483,-3.348 0,-1.849 -1.4991,-3.348 -3.3483,-3.348 -1.8493,0 -3.3484,1.499 -3.3484,3.348 z" />
    <path d="m 83.8406,224.337 c 0,1.849 1.4991,3.349 3.3484,3.349 1.8492,0 3.3483,-1.5 3.3483,-3.349 0,-1.849 -1.4991,-3.348 -3.3483,-3.348 -1.8493,0 -3.3484,1.499 -3.3484,3.348 z" />
    <path d="m 70.4474,-43.5286 c 0,1.8492 1.499,3.3483 3.3483,3.3483 1.8492,0 3.3483,-1.4991 3.3483,-3.3483 0,-1.8493 -1.4991,-3.3484 -3.3483,-3.3484 -1.8493,0 -3.3483,1.4991 -3.3483,3.3484 z" />
    <path d="m 70.4474,-30.1353 c 0,1.8492 1.499,3.3483 3.3483,3.3483 1.8492,0 3.3483,-1.4991 3.3483,-3.3483 0,-1.8493 -1.4991,-3.3484 -3.3483,-3.3484 -1.8493,0 -3.3483,1.4991 -3.3483,3.3484 z" />
    <path d="m 70.4474,-16.742 c 0,1.8492 1.499,3.3483 3.3483,3.3483 1.8492,0 3.3483,-1.4991 3.3483,-3.3483 0,-1.8493 -1.4991,-3.3484 -3.3483,-3.3484 -1.8493,0 -3.3483,1.4991 -3.3483,3.3484 z" />
    <path d="m 70.4474,-3.34876 c 0,1.84923 1.499,3.348327032 3.3483,3.348327032 1.8492,0 3.3483,-1.499097032 3.3483,-3.348327032 0,-1.84922 -1.4991,-3.34832 -3.3483,-3.34832 -1.8493,0 -3.3483,1.4991 -3.3483,3.34832 z" />
    <path d="m 70.4474,10.0445 c 0,1.8493 1.499,3.3484 3.3483,3.3484 1.8492,0 3.3483,-1.4991 3.3483,-3.3484 0,-1.84919 -1.4991,-3.34829 -3.3483,-3.34829 -1.8493,0 -3.3483,1.4991 -3.3483,3.34829 z" />
    <path d="m 70.4474,23.4378 c 0,1.8493 1.499,3.3483 3.3483,3.3483 1.8492,0 3.3483,-1.499 3.3483,-3.3483 0,-1.8492 -1.4991,-3.3483 -3.3483,-3.3483 -1.8493,0 -3.3483,1.4991 -3.3483,3.3483 z" />
    <path d="m 70.4474,36.8311 c 0,1.8492 1.499,3.3483 3.3483,3.3483 1.8492,0 3.3483,-1.4991 3.3483,-3.3483 0,-1.8492 -1.4991,-3.3483 -3.3483,-3.3483 -1.8493,0 -3.3483,1.4991 -3.3483,3.3483 z" />
    <path d="m 70.4474,50.2244 c 0,1.8492 1.499,3.3483 3.3483,3.3483 1.8492,0 3.3483,-1.4991 3.3483,-3.3483 0,-1.8492 -1.4991,-3.3483 -3.3483,-3.3483 -1.8493,0 -3.3483,1.4991 -3.3483,3.3483 z" />
    <path d="m 70.4474,63.6177 c 0,1.8492 1.499,3.3483 3.3483,3.3483 1.8492,0 3.3483,-1.4991 3.3483,-3.3483 0,-1.8492 -1.4991,-3.3483 -3.3483,-3.3483 -1.8493,0 -3.3483,1.4991 -3.3483,3.3483 z" />
    <path d="m 70.4474,77.011 c 0,1.8492 1.499,3.3483 3.3483,3.3483 1.8492,0 3.3483,-1.4991 3.3483,-3.3483 0,-1.8492 -1.4991,-3.3483 -3.3483,-3.3483 -1.8493,0 -3.3483,1.4991 -3.3483,3.3483 z" />
    <path d="m 70.4474,90.4043 c 0,1.8492 1.499,3.3483 3.3483,3.3483 1.8492,0 3.3483,-1.4991 3.3483,-3.3483 0,-1.8492 -1.4991,-3.3483 -3.3483,-3.3483 -1.8493,0 -3.3483,1.4991 -3.3483,3.3483 z" />
    <path d="m 70.4474,103.798 c 0,1.849 1.499,3.348 3.3483,3.348 1.8492,0 3.3483,-1.499 3.3483,-3.348 0,-1.85 -1.4991,-3.349 -3.3483,-3.349 -1.8493,0 -3.3483,1.499 -3.3483,3.349 z" />
    <path d="m 70.4474,117.191 c 0,1.849 1.499,3.348 3.3483,3.348 1.8492,0 3.3483,-1.499 3.3483,-3.348 0,-1.849 -1.4991,-3.348 -3.3483,-3.348 -1.8493,0 -3.3483,1.499 -3.3483,3.348 z" />
    <path d="m 70.4474,130.584 c 0,1.849 1.499,3.348 3.3483,3.348 1.8492,0 3.3483,-1.499 3.3483,-3.348 0,-1.849 -1.4991,-3.348 -3.3483,-3.348 -1.8493,0 -3.3483,1.499 -3.3483,3.348 z" />
    <path d="m 70.4474,143.977 c 0,1.85 1.499,3.349 3.3483,3.349 1.8492,0 3.3483,-1.499 3.3483,-3.349 0,-1.849 -1.4991,-3.348 -3.3483,-3.348 -1.8493,0 -3.3483,1.499 -3.3483,3.348 z" />
    <path d="m 70.4474,157.371 c 0,1.849 1.499,3.348 3.3483,3.348 1.8492,0 3.3483,-1.499 3.3483,-3.348 0,-1.849 -1.4991,-3.349 -3.3483,-3.349 -1.8493,0 -3.3483,1.5 -3.3483,3.349 z" />
    <path d="m 70.4474,170.764 c 0,1.849 1.499,3.348 3.3483,3.348 1.8492,0 3.3483,-1.499 3.3483,-3.348 0,-1.849 -1.4991,-3.348 -3.3483,-3.348 -1.8493,0 -3.3483,1.499 -3.3483,3.348 z" />
    <path d="m 70.4474,184.157 c 0,1.85 1.499,3.349 3.3483,3.349 1.8492,0 3.3483,-1.499 3.3483,-3.349 0,-1.849 -1.4991,-3.348 -3.3483,-3.348 -1.8493,0 -3.3483,1.499 -3.3483,3.348 z" />
    <path d="m 70.4474,197.551 c 0,1.849 1.499,3.348 3.3483,3.348 1.8492,0 3.3483,-1.499 3.3483,-3.348 0,-1.85 -1.4991,-3.349 -3.3483,-3.349 -1.8493,0 -3.3483,1.499 -3.3483,3.349 z" />
    <path d="m 70.4474,210.944 c 0,1.849 1.499,3.348 3.3483,3.348 1.8492,0 3.3483,-1.499 3.3483,-3.348 0,-1.849 -1.4991,-3.348 -3.3483,-3.348 -1.8493,0 -3.3483,1.499 -3.3483,3.348 z" />
    <path d="m 70.4474,224.337 c 0,1.849 1.499,3.349 3.3483,3.349 1.8492,0 3.3483,-1.5 3.3483,-3.349 0,-1.849 -1.4991,-3.348 -3.3483,-3.348 -1.8493,0 -3.3483,1.499 -3.3483,3.348 z" />
    <path d="m 57.0541,-43.5286 c 0,1.8492 1.4991,3.3483 3.3483,3.3483 1.8492,0 3.3483,-1.4991 3.3483,-3.3483 0,-1.8493 -1.4991,-3.3484 -3.3483,-3.3484 -1.8492,0 -3.3483,1.4991 -3.3483,3.3484 z" />
    <path d="m 57.0541,-30.1353 c 0,1.8492 1.4991,3.3483 3.3483,3.3483 1.8492,0 3.3483,-1.4991 3.3483,-3.3483 0,-1.8493 -1.4991,-3.3484 -3.3483,-3.3484 -1.8492,0 -3.3483,1.4991 -3.3483,3.3484 z" />
    <path d="m 57.0541,-16.742 c 0,1.8492 1.4991,3.3483 3.3483,3.3483 1.8492,0 3.3483,-1.4991 3.3483,-3.3483 0,-1.8493 -1.4991,-3.3484 -3.3483,-3.3484 -1.8492,0 -3.3483,1.4991 -3.3483,3.3484 z" />
    <path d="m 57.0541,-3.34876 c 0,1.84923 1.4991,3.348327032 3.3483,3.348327032 1.8492,0 3.3483,-1.499097032 3.3483,-3.348327032 0,-1.84922 -1.4991,-3.34832 -3.3483,-3.34832 -1.8492,0 -3.3483,1.4991 -3.3483,3.34832 z" />
    <path d="m 57.0541,10.0445 c 0,1.8493 1.4991,3.3484 3.3483,3.3484 1.8492,0 3.3483,-1.4991 3.3483,-3.3484 0,-1.84919 -1.4991,-3.34829 -3.3483,-3.34829 -1.8492,0 -3.3483,1.4991 -3.3483,3.34829 z" />
    <path d="m 57.0541,23.4378 c 0,1.8493 1.4991,3.3483 3.3483,3.3483 1.8492,0 3.3483,-1.499 3.3483,-3.3483 0,-1.8492 -1.4991,-3.3483 -3.3483,-3.3483 -1.8492,0 -3.3483,1.4991 -3.3483,3.3483 z" />
    <path d="m 57.0541,36.8311 c 0,1.8492 1.4991,3.3483 3.3483,3.3483 1.8492,0 3.3483,-1.4991 3.3483,-3.3483 0,-1.8492 -1.4991,-3.3483 -3.3483,-3.3483 -1.8492,0 -3.3483,1.4991 -3.3483,3.3483 z" />
    <path d="m 57.0541,50.2244 c 0,1.8492 1.4991,3.3483 3.3483,3.3483 1.8492,0 3.3483,-1.4991 3.3483,-3.3483 0,-1.8492 -1.4991,-3.3483 -3.3483,-3.3483 -1.8492,0 -3.3483,1.4991 -3.3483,3.3483 z" />
    <path d="m 57.0541,63.6177 c 0,1.8492 1.4991,3.3483 3.3483,3.3483 1.8492,0 3.3483,-1.4991 3.3483,-3.3483 0,-1.8492 -1.4991,-3.3483 -3.3483,-3.3483 -1.8492,0 -3.3483,1.4991 -3.3483,3.3483 z" />
    <path d="m 57.0541,77.011 c 0,1.8492 1.4991,3.3483 3.3483,3.3483 1.8492,0 3.3483,-1.4991 3.3483,-3.3483 0,-1.8492 -1.4991,-3.3483 -3.3483,-3.3483 -1.8492,0 -3.3483,1.4991 -3.3483,3.3483 z" />
    <path d="m 57.0541,90.4043 c 0,1.8492 1.4991,3.3483 3.3483,3.3483 1.8492,0 3.3483,-1.4991 3.3483,-3.3483 0,-1.8492 -1.4991,-3.3483 -3.3483,-3.3483 -1.8492,0 -3.3483,1.4991 -3.3483,3.3483 z" />
    <path d="m 57.0541,103.798 c 0,1.849 1.4991,3.348 3.3483,3.348 1.8492,0 3.3483,-1.499 3.3483,-3.348 0,-1.85 -1.4991,-3.349 -3.3483,-3.349 -1.8492,0 -3.3483,1.499 -3.3483,3.349 z" />
    <path d="m 57.0541,117.191 c 0,1.849 1.4991,3.348 3.3483,3.348 1.8492,0 3.3483,-1.499 3.3483,-3.348 0,-1.849 -1.4991,-3.348 -3.3483,-3.348 -1.8492,0 -3.3483,1.499 -3.3483,3.348 z" />
    <path d="m 57.0541,130.584 c 0,1.849 1.4991,3.348 3.3483,3.348 1.8492,0 3.3483,-1.499 3.3483,-3.348 0,-1.849 -1.4991,-3.348 -3.3483,-3.348 -1.8492,0 -3.3483,1.499 -3.3483,3.348 z" />
    <path d="m 57.0541,143.977 c 0,1.85 1.4991,3.349 3.3483,3.349 1.8492,0 3.3483,-1.499 3.3483,-3.349 0,-1.849 -1.4991,-3.348 -3.3483,-3.348 -1.8492,0 -3.3483,1.499 -3.3483,3.348 z" />
    <path d="m 57.0541,157.371 c 0,1.849 1.4991,3.348 3.3483,3.348 1.8492,0 3.3483,-1.499 3.3483,-3.348 0,-1.849 -1.4991,-3.349 -3.3483,-3.349 -1.8492,0 -3.3483,1.5 -3.3483,3.349 z" />
    <path d="m 57.0541,170.764 c 0,1.849 1.4991,3.348 3.3483,3.348 1.8492,0 3.3483,-1.499 3.3483,-3.348 0,-1.849 -1.4991,-3.348 -3.3483,-3.348 -1.8492,0 -3.3483,1.499 -3.3483,3.348 z" />
    <path d="m 57.0541,184.157 c 0,1.85 1.4991,3.349 3.3483,3.349 1.8492,0 3.3483,-1.499 3.3483,-3.349 0,-1.849 -1.4991,-3.348 -3.3483,-3.348 -1.8492,0 -3.3483,1.499 -3.3483,3.348 z" />
    <path d="m 57.0541,197.551 c 0,1.849 1.4991,3.348 3.3483,3.348 1.8492,0 3.3483,-1.499 3.3483,-3.348 0,-1.85 -1.4991,-3.349 -3.3483,-3.349 -1.8492,0 -3.3483,1.499 -3.3483,3.349 z" />
    <path d="m 57.0541,210.944 c 0,1.849 1.4991,3.348 3.3483,3.348 1.8492,0 3.3483,-1.499 3.3483,-3.348 0,-1.849 -1.4991,-3.348 -3.3483,-3.348 -1.8492,0 -3.3483,1.499 -3.3483,3.348 z" />
    <path d="m 57.0541,224.337 c 0,1.849 1.4991,3.349 3.3483,3.349 1.8492,0 3.3483,-1.5 3.3483,-3.349 0,-1.849 -1.4991,-3.348 -3.3483,-3.348 -1.8492,0 -3.3483,1.499 -3.3483,3.348 z" />
    <path d="m 43.6608,-43.5286 c 0,1.8492 1.4991,3.3483 3.3483,3.3483 1.8492,0 3.3483,-1.4991 3.3483,-3.3483 0,-1.8493 -1.4991,-3.3484 -3.3483,-3.3484 -1.8492,0 -3.3483,1.4991 -3.3483,3.3484 z" />
    <path d="m 43.6608,-30.1353 c 0,1.8492 1.4991,3.3483 3.3483,3.3483 1.8492,0 3.3483,-1.4991 3.3483,-3.3483 0,-1.8493 -1.4991,-3.3484 -3.3483,-3.3484 -1.8492,0 -3.3483,1.4991 -3.3483,3.3484 z" />
    <path d="m 43.6608,-16.742 c 0,1.8492 1.4991,3.3483 3.3483,3.3483 1.8492,0 3.3483,-1.4991 3.3483,-3.3483 0,-1.8493 -1.4991,-3.3484 -3.3483,-3.3484 -1.8492,0 -3.3483,1.4991 -3.3483,3.3484 z" />
    <path d="m 43.6608,-3.34876 c 0,1.84923 1.4991,3.348327032 3.3483,3.348327032 1.8492,0 3.3483,-1.499097032 3.3483,-3.348327032 0,-1.84922 -1.4991,-3.34832 -3.3483,-3.34832 -1.8492,0 -3.3483,1.4991 -3.3483,3.34832 z" />
    <path d="m 43.6608,10.0445 c 0,1.8493 1.4991,3.3484 3.3483,3.3484 1.8492,0 3.3483,-1.4991 3.3483,-3.3484 0,-1.84919 -1.4991,-3.34829 -3.3483,-3.34829 -1.8492,0 -3.3483,1.4991 -3.3483,3.34829 z" />
    <path d="m 43.6608,23.4378 c 0,1.8493 1.4991,3.3483 3.3483,3.3483 1.8492,0 3.3483,-1.499 3.3483,-3.3483 0,-1.8492 -1.4991,-3.3483 -3.3483,-3.3483 -1.8492,0 -3.3483,1.4991 -3.3483,3.3483 z" />
    <path d="m 43.6608,36.8311 c 0,1.8492 1.4991,3.3483 3.3483,3.3483 1.8492,0 3.3483,-1.4991 3.3483,-3.3483 0,-1.8492 -1.4991,-3.3483 -3.3483,-3.3483 -1.8492,0 -3.3483,1.4991 -3.3483,3.3483 z" />
    <path d="m 43.6608,50.2244 c 0,1.8492 1.4991,3.3483 3.3483,3.3483 1.8492,0 3.3483,-1.4991 3.3483,-3.3483 0,-1.8492 -1.4991,-3.3483 -3.3483,-3.3483 -1.8492,0 -3.3483,1.4991 -3.3483,3.3483 z" />
    <path d="m 43.6608,63.6177 c 0,1.8492 1.4991,3.3483 3.3483,3.3483 1.8492,0 3.3483,-1.4991 3.3483,-3.3483 0,-1.8492 -1.4991,-3.3483 -3.3483,-3.3483 -1.8492,0 -3.3483,1.4991 -3.3483,3.3483 z" />
    <path d="m 43.6608,77.011 c 0,1.8492 1.4991,3.3483 3.3483,3.3483 1.8492,0 3.3483,-1.4991 3.3483,-3.3483 0,-1.8492 -1.4991,-3.3483 -3.3483,-3.3483 -1.8492,0 -3.3483,1.4991 -3.3483,3.3483 z" />
    <path d="m 43.6608,90.4043 c 0,1.8492 1.4991,3.3483 3.3483,3.3483 1.8492,0 3.3483,-1.4991 3.3483,-3.3483 0,-1.8492 -1.4991,-3.3483 -3.3483,-3.3483 -1.8492,0 -3.3483,1.4991 -3.3483,3.3483 z" />
    <path d="m 43.6608,103.798 c 0,1.849 1.4991,3.348 3.3483,3.348 1.8492,0 3.3483,-1.499 3.3483,-3.348 0,-1.85 -1.4991,-3.349 -3.3483,-3.349 -1.8492,0 -3.3483,1.499 -3.3483,3.349 z" />
    <path d="m 43.6608,117.191 c 0,1.849 1.4991,3.348 3.3483,3.348 1.8492,0 3.3483,-1.499 3.3483,-3.348 0,-1.849 -1.4991,-3.348 -3.3483,-3.348 -1.8492,0 -3.3483,1.499 -3.3483,3.348 z" />
    <path d="m 43.6608,130.584 c 0,1.849 1.4991,3.348 3.3483,3.348 1.8492,0 3.3483,-1.499 3.3483,-3.348 0,-1.849 -1.4991,-3.348 -3.3483,-3.348 -1.8492,0 -3.3483,1.499 -3.3483,3.348 z" />
    <path d="m 43.6608,143.977 c 0,1.85 1.4991,3.349 3.3483,3.349 1.8492,0 3.3483,-1.499 3.3483,-3.349 0,-1.849 -1.4991,-3.348 -3.3483,-3.348 -1.8492,0 -3.3483,1.499 -3.3483,3.348 z" />
    <path d="m 43.6608,157.371 c 0,1.849 1.4991,3.348 3.3483,3.348 1.8492,0 3.3483,-1.499 3.3483,-3.348 0,-1.849 -1.4991,-3.349 -3.3483,-3.349 -1.8492,0 -3.3483,1.5 -3.3483,3.349 z" />
    <path d="m 43.6608,170.764 c 0,1.849 1.4991,3.348 3.3483,3.348 1.8492,0 3.3483,-1.499 3.3483,-3.348 0,-1.849 -1.4991,-3.348 -3.3483,-3.348 -1.8492,0 -3.3483,1.499 -3.3483,3.348 z" />
    <path d="m 43.6608,184.157 c 0,1.85 1.4991,3.349 3.3483,3.349 1.8492,0 3.3483,-1.499 3.3483,-3.349 0,-1.849 -1.4991,-3.348 -3.3483,-3.348 -1.8492,0 -3.3483,1.499 -3.3483,3.348 z" />
    <path d="m 43.6608,197.551 c 0,1.849 1.4991,3.348 3.3483,3.348 1.8492,0 3.3483,-1.499 3.3483,-3.348 0,-1.85 -1.4991,-3.349 -3.3483,-3.349 -1.8492,0 -3.3483,1.499 -3.3483,3.349 z" />
    <path d="m 43.6608,210.944 c 0,1.849 1.4991,3.348 3.3483,3.348 1.8492,0 3.3483,-1.499 3.3483,-3.348 0,-1.849 -1.4991,-3.348 -3.3483,-3.348 -1.8492,0 -3.3483,1.499 -3.3483,3.348 z" />
    <path d="m 43.6608,224.337 c 0,1.849 1.4991,3.349 3.3483,3.349 1.8492,0 3.3483,-1.5 3.3483,-3.349 0,-1.849 -1.4991,-3.348 -3.3483,-3.348 -1.8492,0 -3.3483,1.499 -3.3483,3.348 z" />
    <path d="m 30.2675,-43.5286 c 0,1.8492 1.4991,3.3483 3.3483,3.3483 1.8492,0 3.3483,-1.4991 3.3483,-3.3483 0,-1.8493 -1.4991,-3.3484 -3.3483,-3.3484 -1.8492,0 -3.3483,1.4991 -3.3483,3.3484 z" />
    <path d="m 30.2675,-30.1353 c 0,1.8492 1.4991,3.3483 3.3483,3.3483 1.8492,0 3.3483,-1.4991 3.3483,-3.3483 0,-1.8493 -1.4991,-3.3484 -3.3483,-3.3484 -1.8492,0 -3.3483,1.4991 -3.3483,3.3484 z" />
    <path d="m 30.2675,-16.742 c 0,1.8492 1.4991,3.3483 3.3483,3.3483 1.8492,0 3.3483,-1.4991 3.3483,-3.3483 0,-1.8493 -1.4991,-3.3484 -3.3483,-3.3484 -1.8492,0 -3.3483,1.4991 -3.3483,3.3484 z" />
    <path d="m 30.2675,-3.34876 c 0,1.84923 1.4991,3.348327032 3.3483,3.348327032 1.8492,0 3.3483,-1.499097032 3.3483,-3.348327032 0,-1.84922 -1.4991,-3.34832 -3.3483,-3.34832 -1.8492,0 -3.3483,1.4991 -3.3483,3.34832 z" />
    <path d="m 30.2675,10.0445 c 0,1.8493 1.4991,3.3484 3.3483,3.3484 1.8492,0 3.3483,-1.4991 3.3483,-3.3484 0,-1.84919 -1.4991,-3.34829 -3.3483,-3.34829 -1.8492,0 -3.3483,1.4991 -3.3483,3.34829 z" />
    <path d="m 30.2675,23.4378 c 0,1.8493 1.4991,3.3483 3.3483,3.3483 1.8492,0 3.3483,-1.499 3.3483,-3.3483 0,-1.8492 -1.4991,-3.3483 -3.3483,-3.3483 -1.8492,0 -3.3483,1.4991 -3.3483,3.3483 z" />
    <path d="m 30.2675,36.8311 c 0,1.8492 1.4991,3.3483 3.3483,3.3483 1.8492,0 3.3483,-1.4991 3.3483,-3.3483 0,-1.8492 -1.4991,-3.3483 -3.3483,-3.3483 -1.8492,0 -3.3483,1.4991 -3.3483,3.3483 z" />
    <path d="m 30.2675,50.2244 c 0,1.8492 1.4991,3.3483 3.3483,3.3483 1.8492,0 3.3483,-1.4991 3.3483,-3.3483 0,-1.8492 -1.4991,-3.3483 -3.3483,-3.3483 -1.8492,0 -3.3483,1.4991 -3.3483,3.3483 z" />
    <path d="m 30.2675,63.6177 c 0,1.8492 1.4991,3.3483 3.3483,3.3483 1.8492,0 3.3483,-1.4991 3.3483,-3.3483 0,-1.8492 -1.4991,-3.3483 -3.3483,-3.3483 -1.8492,0 -3.3483,1.4991 -3.3483,3.3483 z" />
    <path d="m 30.2675,77.011 c 0,1.8492 1.4991,3.3483 3.3483,3.3483 1.8492,0 3.3483,-1.4991 3.3483,-3.3483 0,-1.8492 -1.4991,-3.3483 -3.3483,-3.3483 -1.8492,0 -3.3483,1.4991 -3.3483,3.3483 z" />
    <path d="m 30.2675,90.4043 c 0,1.8492 1.4991,3.3483 3.3483,3.3483 1.8492,0 3.3483,-1.4991 3.3483,-3.3483 0,-1.8492 -1.4991,-3.3483 -3.3483,-3.3483 -1.8492,0 -3.3483,1.4991 -3.3483,3.3483 z" />
    <path d="m 30.2675,103.798 c 0,1.849 1.4991,3.348 3.3483,3.348 1.8492,0 3.3483,-1.499 3.3483,-3.348 0,-1.85 -1.4991,-3.349 -3.3483,-3.349 -1.8492,0 -3.3483,1.499 -3.3483,3.349 z" />
    <path d="m 30.2675,117.191 c 0,1.849 1.4991,3.348 3.3483,3.348 1.8492,0 3.3483,-1.499 3.3483,-3.348 0,-1.849 -1.4991,-3.348 -3.3483,-3.348 -1.8492,0 -3.3483,1.499 -3.3483,3.348 z" />
    <path d="m 30.2675,130.584 c 0,1.849 1.4991,3.348 3.3483,3.348 1.8492,0 3.3483,-1.499 3.3483,-3.348 0,-1.849 -1.4991,-3.348 -3.3483,-3.348 -1.8492,0 -3.3483,1.499 -3.3483,3.348 z" />
    <path d="m 30.2675,143.977 c 0,1.85 1.4991,3.349 3.3483,3.349 1.8492,0 3.3483,-1.499 3.3483,-3.349 0,-1.849 -1.4991,-3.348 -3.3483,-3.348 -1.8492,0 -3.3483,1.499 -3.3483,3.348 z" />
    <path d="m 30.2675,157.371 c 0,1.849 1.4991,3.348 3.3483,3.348 1.8492,0 3.3483,-1.499 3.3483,-3.348 0,-1.849 -1.4991,-3.349 -3.3483,-3.349 -1.8492,0 -3.3483,1.5 -3.3483,3.349 z" />
    <path d="m 30.2675,170.764 c 0,1.849 1.4991,3.348 3.3483,3.348 1.8492,0 3.3483,-1.499 3.3483,-3.348 0,-1.849 -1.4991,-3.348 -3.3483,-3.348 -1.8492,0 -3.3483,1.499 -3.3483,3.348 z" />
    <path d="m 30.2675,184.157 c 0,1.85 1.4991,3.349 3.3483,3.349 1.8492,0 3.3483,-1.499 3.3483,-3.349 0,-1.849 -1.4991,-3.348 -3.3483,-3.348 -1.8492,0 -3.3483,1.499 -3.3483,3.348 z" />
    <path d="m 30.2675,197.551 c 0,1.849 1.4991,3.348 3.3483,3.348 1.8492,0 3.3483,-1.499 3.3483,-3.348 0,-1.85 -1.4991,-3.349 -3.3483,-3.349 -1.8492,0 -3.3483,1.499 -3.3483,3.349 z" />
    <path d="m 30.2675,210.944 c 0,1.849 1.4991,3.348 3.3483,3.348 1.8492,0 3.3483,-1.499 3.3483,-3.348 0,-1.849 -1.4991,-3.348 -3.3483,-3.348 -1.8492,0 -3.3483,1.499 -3.3483,3.348 z" />
    <path d="m 30.2675,224.337 c 0,1.849 1.4991,3.349 3.3483,3.349 1.8492,0 3.3483,-1.5 3.3483,-3.349 0,-1.849 -1.4991,-3.348 -3.3483,-3.348 -1.8492,0 -3.3483,1.499 -3.3483,3.348 z" />
    <path d="m 16.8742,-43.5286 c 0,1.8492 1.4991,3.3483 3.3483,3.3483 1.8492,0 3.3483,-1.4991 3.3483,-3.3483 0,-1.8493 -1.4991,-3.3484 -3.3483,-3.3484 -1.8492,0 -3.3483,1.4991 -3.3483,3.3484 z" />
    <path d="m 16.8742,-30.1353 c 0,1.8492 1.4991,3.3483 3.3483,3.3483 1.8492,0 3.3483,-1.4991 3.3483,-3.3483 0,-1.8493 -1.4991,-3.3484 -3.3483,-3.3484 -1.8492,0 -3.3483,1.4991 -3.3483,3.3484 z" />
    <path d="m 16.8742,-16.742 c 0,1.8492 1.4991,3.3483 3.3483,3.3483 1.8492,0 3.3483,-1.4991 3.3483,-3.3483 0,-1.8493 -1.4991,-3.3484 -3.3483,-3.3484 -1.8492,0 -3.3483,1.4991 -3.3483,3.3484 z" />
    <path d="m 16.8742,-3.34876 c 0,1.84923 1.4991,3.348327032 3.3483,3.348327032 1.8492,0 3.3483,-1.499097032 3.3483,-3.348327032 0,-1.84922 -1.4991,-3.34832 -3.3483,-3.34832 -1.8492,0 -3.3483,1.4991 -3.3483,3.34832 z" />
    <path d="m 16.8742,10.0445 c 0,1.8493 1.4991,3.3484 3.3483,3.3484 1.8492,0 3.3483,-1.4991 3.3483,-3.3484 0,-1.84919 -1.4991,-3.34829 -3.3483,-3.34829 -1.8492,0 -3.3483,1.4991 -3.3483,3.34829 z" />
    <path d="m 16.8742,23.4378 c 0,1.8493 1.4991,3.3483 3.3483,3.3483 1.8492,0 3.3483,-1.499 3.3483,-3.3483 0,-1.8492 -1.4991,-3.3483 -3.3483,-3.3483 -1.8492,0 -3.3483,1.4991 -3.3483,3.3483 z" />
    <path d="m 16.8742,36.8311 c 0,1.8492 1.4991,3.3483 3.3483,3.3483 1.8492,0 3.3483,-1.4991 3.3483,-3.3483 0,-1.8492 -1.4991,-3.3483 -3.3483,-3.3483 -1.8492,0 -3.3483,1.4991 -3.3483,3.3483 z" />
    <path d="m 16.8742,50.2244 c 0,1.8492 1.4991,3.3483 3.3483,3.3483 1.8492,0 3.3483,-1.4991 3.3483,-3.3483 0,-1.8492 -1.4991,-3.3483 -3.3483,-3.3483 -1.8492,0 -3.3483,1.4991 -3.3483,3.3483 z" />
    <path d="m 16.8742,63.6177 c 0,1.8492 1.4991,3.3483 3.3483,3.3483 1.8492,0 3.3483,-1.4991 3.3483,-3.3483 0,-1.8492 -1.4991,-3.3483 -3.3483,-3.3483 -1.8492,0 -3.3483,1.4991 -3.3483,3.3483 z" />
    <path d="m 16.8742,77.011 c 0,1.8492 1.4991,3.3483 3.3483,3.3483 1.8492,0 3.3483,-1.4991 3.3483,-3.3483 0,-1.8492 -1.4991,-3.3483 -3.3483,-3.3483 -1.8492,0 -3.3483,1.4991 -3.3483,3.3483 z" />
    <path d="m 16.8742,90.4043 c 0,1.8492 1.4991,3.3483 3.3483,3.3483 1.8492,0 3.3483,-1.4991 3.3483,-3.3483 0,-1.8492 -1.4991,-3.3483 -3.3483,-3.3483 -1.8492,0 -3.3483,1.4991 -3.3483,3.3483 z" />
    <path d="m 16.8742,103.798 c 0,1.849 1.4991,3.348 3.3483,3.348 1.8492,0 3.3483,-1.499 3.3483,-3.348 0,-1.85 -1.4991,-3.349 -3.3483,-3.349 -1.8492,0 -3.3483,1.499 -3.3483,3.349 z" />
    <path d="m 16.8742,117.191 c 0,1.849 1.4991,3.348 3.3483,3.348 1.8492,0 3.3483,-1.499 3.3483,-3.348 0,-1.849 -1.4991,-3.348 -3.3483,-3.348 -1.8492,0 -3.3483,1.499 -3.3483,3.348 z" />
    <path d="m 16.8742,130.584 c 0,1.849 1.4991,3.348 3.3483,3.348 1.8492,0 3.3483,-1.499 3.3483,-3.348 0,-1.849 -1.4991,-3.348 -3.3483,-3.348 -1.8492,0 -3.3483,1.499 -3.3483,3.348 z" />
    <path d="m 16.8742,143.977 c 0,1.85 1.4991,3.349 3.3483,3.349 1.8492,0 3.3483,-1.499 3.3483,-3.349 0,-1.849 -1.4991,-3.348 -3.3483,-3.348 -1.8492,0 -3.3483,1.499 -3.3483,3.348 z" />
    <path d="m 16.8742,157.371 c 0,1.849 1.4991,3.348 3.3483,3.348 1.8492,0 3.3483,-1.499 3.3483,-3.348 0,-1.849 -1.4991,-3.349 -3.3483,-3.349 -1.8492,0 -3.3483,1.5 -3.3483,3.349 z" />
    <path d="m 16.8742,170.764 c 0,1.849 1.4991,3.348 3.3483,3.348 1.8492,0 3.3483,-1.499 3.3483,-3.348 0,-1.849 -1.4991,-3.348 -3.3483,-3.348 -1.8492,0 -3.3483,1.499 -3.3483,3.348 z" />
    <path d="m 16.8742,184.157 c 0,1.85 1.4991,3.349 3.3483,3.349 1.8492,0 3.3483,-1.499 3.3483,-3.349 0,-1.849 -1.4991,-3.348 -3.3483,-3.348 -1.8492,0 -3.3483,1.499 -3.3483,3.348 z" />
    <path d="m 16.8742,197.551 c 0,1.849 1.4991,3.348 3.3483,3.348 1.8492,0 3.3483,-1.499 3.3483,-3.348 0,-1.85 -1.4991,-3.349 -3.3483,-3.349 -1.8492,0 -3.3483,1.499 -3.3483,3.349 z" />
    <path d="m 16.8742,210.944 c 0,1.849 1.4991,3.348 3.3483,3.348 1.8492,0 3.3483,-1.499 3.3483,-3.348 0,-1.849 -1.4991,-3.348 -3.3483,-3.348 -1.8492,0 -3.3483,1.499 -3.3483,3.348 z" />
    <path d="m 16.8742,224.337 c 0,1.849 1.4991,3.349 3.3483,3.349 1.8492,0 3.3483,-1.5 3.3483,-3.349 0,-1.849 -1.4991,-3.348 -3.3483,-3.348 -1.8492,0 -3.3483,1.499 -3.3483,3.348 z" />
    <path d="m 3.48089,-43.5286 c 0,1.8492 1.4991,3.3483 3.34832,3.3483 1.84923,0 3.34829,-1.4991 3.34829,-3.3483 0,-1.8493 -1.49906,-3.3484 -3.34829,-3.3484 -1.84922,0 -3.34832,1.4991 -3.34832,3.3484 z" />
    <path d="m 3.48089,-30.1353 c 0,1.8492 1.4991,3.3483 3.34832,3.3483 1.84923,0 3.34829,-1.4991 3.34829,-3.3483 0,-1.8493 -1.49906,-3.3484 -3.34829,-3.3484 -1.84922,0 -3.34832,1.4991 -3.34832,3.3484 z" />
    <path d="m 3.48089,-16.742 c 0,1.8492 1.4991,3.3483 3.34832,3.3483 1.84923,0 3.34829,-1.4991 3.34829,-3.3483 0,-1.8493 -1.49906,-3.3484 -3.34829,-3.3484 -1.84922,0 -3.34832,1.4991 -3.34832,3.3484 z" />
    <path d="m 3.48089,-3.34876 c 0,1.84923 1.4991,3.348327032 3.34832,3.348327032 1.84923,0 3.34829,-1.499097032 3.34829,-3.348327032 0,-1.84922 -1.49906,-3.34832 -3.34829,-3.34832 -1.84922,0 -3.34832,1.4991 -3.34832,3.34832 z" />
    <path d="m 3.48089,10.0445 c 0,1.8493 1.4991,3.3484 3.34832,3.3484 1.84923,0 3.34829,-1.4991 3.34829,-3.3484 0,-1.84919 -1.49906,-3.34829 -3.34829,-3.34829 -1.84922,0 -3.34832,1.4991 -3.34832,3.34829 z" />
    <path d="m 3.48089,23.4378 c 0,1.8493 1.4991,3.3483 3.34832,3.3483 1.84923,0 3.34829,-1.499 3.34829,-3.3483 0,-1.8492 -1.49906,-3.3483 -3.34829,-3.3483 -1.84922,0 -3.34832,1.4991 -3.34832,3.3483 z" />
    <path d="m 3.48089,36.8311 c 0,1.8492 1.4991,3.3483 3.34832,3.3483 1.84923,0 3.34829,-1.4991 3.34829,-3.3483 0,-1.8492 -1.49906,-3.3483 -3.34829,-3.3483 -1.84922,0 -3.34832,1.4991 -3.34832,3.3483 z" />
    <path d="m 3.48089,50.2244 c 0,1.8492 1.4991,3.3483 3.34832,3.3483 1.84923,0 3.34829,-1.4991 3.34829,-3.3483 0,-1.8492 -1.49906,-3.3483 -3.34829,-3.3483 -1.84922,0 -3.34832,1.4991 -3.34832,3.3483 z" />
    <path d="m 3.48089,63.6177 c 0,1.8492 1.4991,3.3483 3.34832,3.3483 1.84923,0 3.34829,-1.4991 3.34829,-3.3483 0,-1.8492 -1.49906,-3.3483 -3.34829,-3.3483 -1.84922,0 -3.34832,1.4991 -3.34832,3.3483 z" />
    <path d="m 3.48089,77.011 c 0,1.8492 1.4991,3.3483 3.34832,3.3483 1.84923,0 3.34829,-1.4991 3.34829,-3.3483 0,-1.8492 -1.49906,-3.3483 -3.34829,-3.3483 -1.84922,0 -3.34832,1.4991 -3.34832,3.3483 z" />
    <path d="m 3.48089,90.4043 c 0,1.8492 1.4991,3.3483 3.34832,3.3483 1.84923,0 3.34829,-1.4991 3.34829,-3.3483 0,-1.8492 -1.49906,-3.3483 -3.34829,-3.3483 -1.84922,0 -3.34832,1.4991 -3.34832,3.3483 z" />
    <path d="m 3.48089,103.798 c 0,1.849 1.4991,3.348 3.34832,3.348 1.84923,0 3.34829,-1.499 3.34829,-3.348 0,-1.85 -1.49906,-3.349 -3.34829,-3.349 -1.84922,0 -3.34832,1.499 -3.34832,3.349 z" />
    <path d="m 3.48089,117.191 c 0,1.849 1.4991,3.348 3.34832,3.348 1.84923,0 3.34829,-1.499 3.34829,-3.348 0,-1.849 -1.49906,-3.348 -3.34829,-3.348 -1.84922,0 -3.34832,1.499 -3.34832,3.348 z" />
    <path d="m 3.48089,130.584 c 0,1.849 1.4991,3.348 3.34832,3.348 1.84923,0 3.34829,-1.499 3.34829,-3.348 0,-1.849 -1.49906,-3.348 -3.34829,-3.348 -1.84922,0 -3.34832,1.499 -3.34832,3.348 z" />
    <path d="m 3.48089,143.977 c 0,1.85 1.4991,3.349 3.34832,3.349 1.84923,0 3.34829,-1.499 3.34829,-3.349 0,-1.849 -1.49906,-3.348 -3.34829,-3.348 -1.84922,0 -3.34832,1.499 -3.34832,3.348 z" />
    <path d="m 3.48089,157.371 c 0,1.849 1.4991,3.348 3.34832,3.348 1.84923,0 3.34829,-1.499 3.34829,-3.348 0,-1.849 -1.49906,-3.349 -3.34829,-3.349 -1.84922,0 -3.34832,1.5 -3.34832,3.349 z" />
    <path d="m 3.48089,170.764 c 0,1.849 1.4991,3.348 3.34832,3.348 1.84923,0 3.34829,-1.499 3.34829,-3.348 0,-1.849 -1.49906,-3.348 -3.34829,-3.348 -1.84922,0 -3.34832,1.499 -3.34832,3.348 z" />
    <path d="m 3.48089,184.157 c 0,1.85 1.4991,3.349 3.34832,3.349 1.84923,0 3.34829,-1.499 3.34829,-3.349 0,-1.849 -1.49906,-3.348 -3.34829,-3.348 -1.84922,0 -3.34832,1.499 -3.34832,3.348 z" />
    <path d="m 3.48089,197.551 c 0,1.849 1.4991,3.348 3.34832,3.348 1.84923,0 3.34829,-1.499 3.34829,-3.348 0,-1.85 -1.49906,-3.349 -3.34829,-3.349 -1.84922,0 -3.34832,1.499 -3.34832,3.349 z" />
    <path d="m 3.48089,210.944 c 0,1.849 1.4991,3.348 3.34832,3.348 1.84923,0 3.34829,-1.499 3.34829,-3.348 0,-1.849 -1.49906,-3.348 -3.34829,-3.348 -1.84922,0 -3.34832,1.499 -3.34832,3.348 z" />
    <path d="m 3.48089,224.337 c 0,1.849 1.4991,3.349 3.34832,3.349 1.84923,0 3.34829,-1.5 3.34829,-3.349 0,-1.849 -1.49906,-3.348 -3.34829,-3.348 -1.84922,0 -3.34832,1.499 -3.34832,3.348 z" />
    <path d="m -9.9124,-43.5286 c 0,1.8492 1.49909,3.3483 3.34832,3.3483 1.84923,0 3.34832,-1.4991 3.34832,-3.3483 0,-1.8493 -1.49909,-3.3484 -3.34832,-3.3484 -1.84923,0 -3.34832,1.4991 -3.34832,3.3484 z" />
    <path d="m -9.9124,-30.1353 c 0,1.8492 1.49909,3.3483 3.34832,3.3483 1.84923,0 3.34832,-1.4991 3.34832,-3.3483 0,-1.8493 -1.49909,-3.3484 -3.34832,-3.3484 -1.84923,0 -3.34832,1.4991 -3.34832,3.3484 z" />
    <path d="m -9.9124,-16.742 c 0,1.8492 1.49909,3.3483 3.34832,3.3483 1.84923,0 3.34832,-1.4991 3.34832,-3.3483 0,-1.8493 -1.49909,-3.3484 -3.34832,-3.3484 -1.84923,0 -3.34832,1.4991 -3.34832,3.3484 z" />
    <path d="m -9.9124,-3.34876 c 0,1.84923 1.49909,3.348327032 3.34832,3.348327032 1.84923,0 3.34832,-1.499097032 3.34832,-3.348327032 0,-1.84922 -1.49909,-3.34832 -3.34832,-3.34832 -1.84923,0 -3.34832,1.4991 -3.34832,3.34832 z" />
    <path d="m -9.9124,10.0445 c 0,1.8493 1.49909,3.3484 3.34832,3.3484 1.84923,0 3.34832,-1.4991 3.34832,-3.3484 0,-1.84919 -1.49909,-3.34829 -3.34832,-3.34829 -1.84923,0 -3.34832,1.4991 -3.34832,3.34829 z" />
    <path d="m -9.9124,23.4378 c 0,1.8493 1.49909,3.3483 3.34832,3.3483 1.84923,0 3.34832,-1.499 3.34832,-3.3483 0,-1.8492 -1.49909,-3.3483 -3.34832,-3.3483 -1.84923,0 -3.34832,1.4991 -3.34832,3.3483 z" />
    <path d="m -9.9124,36.8311 c 0,1.8492 1.49909,3.3483 3.34832,3.3483 1.84923,0 3.34832,-1.4991 3.34832,-3.3483 0,-1.8492 -1.49909,-3.3483 -3.34832,-3.3483 -1.84923,0 -3.34832,1.4991 -3.34832,3.3483 z" />
    <path d="m -9.9124,50.2244 c 0,1.8492 1.49909,3.3483 3.34832,3.3483 1.84923,0 3.34832,-1.4991 3.34832,-3.3483 0,-1.8492 -1.49909,-3.3483 -3.34832,-3.3483 -1.84923,0 -3.34832,1.4991 -3.34832,3.3483 z" />
    <path d="m -9.9124,63.6177 c 0,1.8492 1.49909,3.3483 3.34832,3.3483 1.84923,0 3.34832,-1.4991 3.34832,-3.3483 0,-1.8492 -1.49909,-3.3483 -3.34832,-3.3483 -1.84923,0 -3.34832,1.4991 -3.34832,3.3483 z" />
    <path d="m -9.9124,77.011 c 0,1.8492 1.49909,3.3483 3.34832,3.3483 1.84923,0 3.34832,-1.4991 3.34832,-3.3483 0,-1.8492 -1.49909,-3.3483 -3.34832,-3.3483 -1.84923,0 -3.34832,1.4991 -3.34832,3.3483 z" />
    <path d="m -9.9124,90.4043 c 0,1.8492 1.49909,3.3483 3.34832,3.3483 1.84923,0 3.34832,-1.4991 3.34832,-3.3483 0,-1.8492 -1.49909,-3.3483 -3.34832,-3.3483 -1.84923,0 -3.34832,1.4991 -3.34832,3.3483 z" />
    <path d="m -9.9124,103.798 c 0,1.849 1.49909,3.348 3.34832,3.348 1.84923,0 3.34832,-1.499 3.34832,-3.348 0,-1.85 -1.49909,-3.349 -3.34832,-3.349 -1.84923,0 -3.34832,1.499 -3.34832,3.349 z" />
    <path d="m -9.9124,117.191 c 0,1.849 1.49909,3.348 3.34832,3.348 1.84923,0 3.34832,-1.499 3.34832,-3.348 0,-1.849 -1.49909,-3.348 -3.34832,-3.348 -1.84923,0 -3.34832,1.499 -3.34832,3.348 z" />
    <path d="m -9.9124,130.584 c 0,1.849 1.49909,3.348 3.34832,3.348 1.84923,0 3.34832,-1.499 3.34832,-3.348 0,-1.849 -1.49909,-3.348 -3.34832,-3.348 -1.84923,0 -3.34832,1.499 -3.34832,3.348 z" />
    <path d="m -9.9124,143.977 c 0,1.85 1.49909,3.349 3.34832,3.349 1.84923,0 3.34832,-1.499 3.34832,-3.349 0,-1.849 -1.49909,-3.348 -3.34832,-3.348 -1.84923,0 -3.34832,1.499 -3.34832,3.348 z" />
    <path d="m -9.9124,157.371 c 0,1.849 1.49909,3.348 3.34832,3.348 1.84923,0 3.34832,-1.499 3.34832,-3.348 0,-1.849 -1.49909,-3.349 -3.34832,-3.349 -1.84923,0 -3.34832,1.5 -3.34832,3.349 z" />
    <path d="m -9.9124,170.764 c 0,1.849 1.49909,3.348 3.34832,3.348 1.84923,0 3.34832,-1.499 3.34832,-3.348 0,-1.849 -1.49909,-3.348 -3.34832,-3.348 -1.84923,0 -3.34832,1.499 -3.34832,3.348 z" />
    <path d="m -9.9124,184.157 c 0,1.85 1.49909,3.349 3.34832,3.349 1.84923,0 3.34832,-1.499 3.34832,-3.349 0,-1.849 -1.49909,-3.348 -3.34832,-3.348 -1.84923,0 -3.34832,1.499 -3.34832,3.348 z" />
    <path d="m -9.9124,197.551 c 0,1.849 1.49909,3.348 3.34832,3.348 1.84923,0 3.34832,-1.499 3.34832,-3.348 0,-1.85 -1.49909,-3.349 -3.34832,-3.349 -1.84923,0 -3.34832,1.499 -3.34832,3.349 z" />
    <path d="m -9.9124,210.944 c 0,1.849 1.49909,3.348 3.34832,3.348 1.84923,0 3.34832,-1.499 3.34832,-3.348 0,-1.849 -1.49909,-3.348 -3.34832,-3.348 -1.84923,0 -3.34832,1.499 -3.34832,3.348 z" />
    <path d="m -9.9124,224.337 c 0,1.849 1.49909,3.349 3.34832,3.349 1.84923,0 3.34832,-1.5 3.34832,-3.349 0,-1.849 -1.49909,-3.348 -3.34832,-3.348 -1.84923,0 -3.34832,1.499 -3.34832,3.348 z" />
    <path d="m -23.3057,-43.5286 c 0,1.8492 1.4991,3.3483 3.3483,3.3483 1.8493,0 3.3484,-1.4991 3.3484,-3.3483 0,-1.8493 -1.4991,-3.3484 -3.3484,-3.3484 -1.8492,0 -3.3483,1.4991 -3.3483,3.3484 z" />
    <path d="m -23.3057,-30.1353 c 0,1.8492 1.4991,3.3483 3.3483,3.3483 1.8493,0 3.3484,-1.4991 3.3484,-3.3483 0,-1.8493 -1.4991,-3.3484 -3.3484,-3.3484 -1.8492,0 -3.3483,1.4991 -3.3483,3.3484 z" />
    <path d="m -23.3057,-16.742 c 0,1.8492 1.4991,3.3483 3.3483,3.3483 1.8493,0 3.3484,-1.4991 3.3484,-3.3483 0,-1.8493 -1.4991,-3.3484 -3.3484,-3.3484 -1.8492,0 -3.3483,1.4991 -3.3483,3.3484 z" />
    <path d="m -23.3057,-3.34876 c 0,1.84923 1.4991,3.348327032 3.3483,3.348327032 1.8493,0 3.3484,-1.499097032 3.3484,-3.348327032 0,-1.84922 -1.4991,-3.34832 -3.3484,-3.34832 -1.8492,0 -3.3483,1.4991 -3.3483,3.34832 z" />
    <path d="m -23.3057,10.0445 c 0,1.8493 1.4991,3.3484 3.3483,3.3484 1.8493,0 3.3484,-1.4991 3.3484,-3.3484 0,-1.84919 -1.4991,-3.34829 -3.3484,-3.34829 -1.8492,0 -3.3483,1.4991 -3.3483,3.34829 z" />
    <path d="m -23.3057,23.4378 c 0,1.8493 1.4991,3.3483 3.3483,3.3483 1.8493,0 3.3484,-1.499 3.3484,-3.3483 0,-1.8492 -1.4991,-3.3483 -3.3484,-3.3483 -1.8492,0 -3.3483,1.4991 -3.3483,3.3483 z" />
    <path d="m -23.3057,36.8311 c 0,1.8492 1.4991,3.3483 3.3483,3.3483 1.8493,0 3.3484,-1.4991 3.3484,-3.3483 0,-1.8492 -1.4991,-3.3483 -3.3484,-3.3483 -1.8492,0 -3.3483,1.4991 -3.3483,3.3483 z" />
    <path d="m -23.3057,50.2244 c 0,1.8492 1.4991,3.3483 3.3483,3.3483 1.8493,0 3.3484,-1.4991 3.3484,-3.3483 0,-1.8492 -1.4991,-3.3483 -3.3484,-3.3483 -1.8492,0 -3.3483,1.4991 -3.3483,3.3483 z" />
    <path d="m -23.3057,63.6177 c 0,1.8492 1.4991,3.3483 3.3483,3.3483 1.8493,0 3.3484,-1.4991 3.3484,-3.3483 0,-1.8492 -1.4991,-3.3483 -3.3484,-3.3483 -1.8492,0 -3.3483,1.4991 -3.3483,3.3483 z" />
    <path d="m -23.3057,77.011 c 0,1.8492 1.4991,3.3483 3.3483,3.3483 1.8493,0 3.3484,-1.4991 3.3484,-3.3483 0,-1.8492 -1.4991,-3.3483 -3.3484,-3.3483 -1.8492,0 -3.3483,1.4991 -3.3483,3.3483 z" />
    <path d="m -23.3057,90.4043 c 0,1.8492 1.4991,3.3483 3.3483,3.3483 1.8493,0 3.3484,-1.4991 3.3484,-3.3483 0,-1.8492 -1.4991,-3.3483 -3.3484,-3.3483 -1.8492,0 -3.3483,1.4991 -3.3483,3.3483 z" />
    <path d="m -23.3057,103.798 c 0,1.849 1.4991,3.348 3.3483,3.348 1.8493,0 3.3484,-1.499 3.3484,-3.348 0,-1.85 -1.4991,-3.349 -3.3484,-3.349 -1.8492,0 -3.3483,1.499 -3.3483,3.349 z" />
    <path d="m -23.3057,117.191 c 0,1.849 1.4991,3.348 3.3483,3.348 1.8493,0 3.3484,-1.499 3.3484,-3.348 0,-1.849 -1.4991,-3.348 -3.3484,-3.348 -1.8492,0 -3.3483,1.499 -3.3483,3.348 z" />
    <path d="m -23.3057,130.584 c 0,1.849 1.4991,3.348 3.3483,3.348 1.8493,0 3.3484,-1.499 3.3484,-3.348 0,-1.849 -1.4991,-3.348 -3.3484,-3.348 -1.8492,0 -3.3483,1.499 -3.3483,3.348 z" />
    <path d="m -23.3057,143.977 c 0,1.85 1.4991,3.349 3.3483,3.349 1.8493,0 3.3484,-1.499 3.3484,-3.349 0,-1.849 -1.4991,-3.348 -3.3484,-3.348 -1.8492,0 -3.3483,1.499 -3.3483,3.348 z" />
    <path d="m -23.3057,157.371 c 0,1.849 1.4991,3.348 3.3483,3.348 1.8493,0 3.3484,-1.499 3.3484,-3.348 0,-1.849 -1.4991,-3.349 -3.3484,-3.349 -1.8492,0 -3.3483,1.5 -3.3483,3.349 z" />
    <path d="m -23.3057,170.764 c 0,1.849 1.4991,3.348 3.3483,3.348 1.8493,0 3.3484,-1.499 3.3484,-3.348 0,-1.849 -1.4991,-3.348 -3.3484,-3.348 -1.8492,0 -3.3483,1.499 -3.3483,3.348 z" />
    <path d="m -23.3057,184.157 c 0,1.85 1.4991,3.349 3.3483,3.349 1.8493,0 3.3484,-1.499 3.3484,-3.349 0,-1.849 -1.4991,-3.348 -3.3484,-3.348 -1.8492,0 -3.3483,1.499 -3.3483,3.348 z" />
    <path d="m -23.3057,197.551 c 0,1.849 1.4991,3.348 3.3483,3.348 1.8493,0 3.3484,-1.499 3.3484,-3.348 0,-1.85 -1.4991,-3.349 -3.3484,-3.349 -1.8492,0 -3.3483,1.499 -3.3483,3.349 z" />
    <path d="m -23.3057,210.944 c 0,1.849 1.4991,3.348 3.3483,3.348 1.8493,0 3.3484,-1.499 3.3484,-3.348 0,-1.849 -1.4991,-3.348 -3.3484,-3.348 -1.8492,0 -3.3483,1.499 -3.3483,3.348 z" />
    <path d="m -23.3057,224.337 c 0,1.849 1.4991,3.349 3.3483,3.349 1.8493,0 3.3484,-1.5 3.3484,-3.349 0,-1.849 -1.4991,-3.348 -3.3484,-3.348 -1.8492,0 -3.3483,1.499 -3.3483,3.348 z" />
    <path d="m -36.699,-43.5286 c 0,1.8492 1.4991,3.3483 3.3483,3.3483 1.8493,0 3.3484,-1.4991 3.3484,-3.3483 0,-1.8493 -1.4991,-3.3484 -3.3484,-3.3484 -1.8492,0 -3.3483,1.4991 -3.3483,3.3484 z" />
    <path d="m -36.699,-30.1353 c 0,1.8492 1.4991,3.3483 3.3483,3.3483 1.8493,0 3.3484,-1.4991 3.3484,-3.3483 0,-1.8493 -1.4991,-3.3484 -3.3484,-3.3484 -1.8492,0 -3.3483,1.4991 -3.3483,3.3484 z" />
    <path d="m -36.699,-16.742 c 0,1.8492 1.4991,3.3483 3.3483,3.3483 1.8493,0 3.3484,-1.4991 3.3484,-3.3483 0,-1.8493 -1.4991,-3.3484 -3.3484,-3.3484 -1.8492,0 -3.3483,1.4991 -3.3483,3.3484 z" />
    <path d="m -36.699,-3.34876 c 0,1.84923 1.4991,3.348327032 3.3483,3.348327032 1.8493,0 3.3484,-1.499097032 3.3484,-3.348327032 0,-1.84922 -1.4991,-3.34832 -3.3484,-3.34832 -1.8492,0 -3.3483,1.4991 -3.3483,3.34832 z" />
    <path d="m -36.699,10.0445 c 0,1.8493 1.4991,3.3484 3.3483,3.3484 1.8493,0 3.3484,-1.4991 3.3484,-3.3484 0,-1.84919 -1.4991,-3.34829 -3.3484,-3.34829 -1.8492,0 -3.3483,1.4991 -3.3483,3.34829 z" />
    <path d="m -36.699,23.4378 c 0,1.8493 1.4991,3.3483 3.3483,3.3483 1.8493,0 3.3484,-1.499 3.3484,-3.3483 0,-1.8492 -1.4991,-3.3483 -3.3484,-3.3483 -1.8492,0 -3.3483,1.4991 -3.3483,3.3483 z" />
    <path d="m -36.699,36.8311 c 0,1.8492 1.4991,3.3483 3.3483,3.3483 1.8493,0 3.3484,-1.4991 3.3484,-3.3483 0,-1.8492 -1.4991,-3.3483 -3.3484,-3.3483 -1.8492,0 -3.3483,1.4991 -3.3483,3.3483 z" />
    <path d="m -36.699,50.2244 c 0,1.8492 1.4991,3.3483 3.3483,3.3483 1.8493,0 3.3484,-1.4991 3.3484,-3.3483 0,-1.8492 -1.4991,-3.3483 -3.3484,-3.3483 -1.8492,0 -3.3483,1.4991 -3.3483,3.3483 z" />
    <path d="m -36.699,63.6177 c 0,1.8492 1.4991,3.3483 3.3483,3.3483 1.8493,0 3.3484,-1.4991 3.3484,-3.3483 0,-1.8492 -1.4991,-3.3483 -3.3484,-3.3483 -1.8492,0 -3.3483,1.4991 -3.3483,3.3483 z" />
    <path d="m -36.699,77.011 c 0,1.8492 1.4991,3.3483 3.3483,3.3483 1.8493,0 3.3484,-1.4991 3.3484,-3.3483 0,-1.8492 -1.4991,-3.3483 -3.3484,-3.3483 -1.8492,0 -3.3483,1.4991 -3.3483,3.3483 z" />
    <path d="m -36.699,90.4043 c 0,1.8492 1.4991,3.3483 3.3483,3.3483 1.8493,0 3.3484,-1.4991 3.3484,-3.3483 0,-1.8492 -1.4991,-3.3483 -3.3484,-3.3483 -1.8492,0 -3.3483,1.4991 -3.3483,3.3483 z" />
    <path d="m -36.699,103.798 c 0,1.849 1.4991,3.348 3.3483,3.348 1.8493,0 3.3484,-1.499 3.3484,-3.348 0,-1.85 -1.4991,-3.349 -3.3484,-3.349 -1.8492,0 -3.3483,1.499 -3.3483,3.349 z" />
    <path d="m -36.699,117.191 c 0,1.849 1.4991,3.348 3.3483,3.348 1.8493,0 3.3484,-1.499 3.3484,-3.348 0,-1.849 -1.4991,-3.348 -3.3484,-3.348 -1.8492,0 -3.3483,1.499 -3.3483,3.348 z" />
    <path d="m -36.699,130.584 c 0,1.849 1.4991,3.348 3.3483,3.348 1.8493,0 3.3484,-1.499 3.3484,-3.348 0,-1.849 -1.4991,-3.348 -3.3484,-3.348 -1.8492,0 -3.3483,1.499 -3.3483,3.348 z" />
    <path d="m -36.699,143.977 c 0,1.85 1.4991,3.349 3.3483,3.349 1.8493,0 3.3484,-1.499 3.3484,-3.349 0,-1.849 -1.4991,-3.348 -3.3484,-3.348 -1.8492,0 -3.3483,1.499 -3.3483,3.348 z" />
    <path d="m -36.699,157.371 c 0,1.849 1.4991,3.348 3.3483,3.348 1.8493,0 3.3484,-1.499 3.3484,-3.348 0,-1.849 -1.4991,-3.349 -3.3484,-3.349 -1.8492,0 -3.3483,1.5 -3.3483,3.349 z" />
    <path d="m -36.699,170.764 c 0,1.849 1.4991,3.348 3.3483,3.348 1.8493,0 3.3484,-1.499 3.3484,-3.348 0,-1.849 -1.4991,-3.348 -3.3484,-3.348 -1.8492,0 -3.3483,1.499 -3.3483,3.348 z" />
    <path d="m -36.699,184.157 c 0,1.85 1.4991,3.349 3.3483,3.349 1.8493,0 3.3484,-1.499 3.3484,-3.349 0,-1.849 -1.4991,-3.348 -3.3484,-3.348 -1.8492,0 -3.3483,1.499 -3.3483,3.348 z" />
    <path d="m -36.699,197.551 c 0,1.849 1.4991,3.348 3.3483,3.348 1.8493,0 3.3484,-1.499 3.3484,-3.348 0,-1.85 -1.4991,-3.349 -3.3484,-3.349 -1.8492,0 -3.3483,1.499 -3.3483,3.349 z" />
    <path d="m -36.699,210.944 c 0,1.849 1.4991,3.348 3.3483,3.348 1.8493,0 3.3484,-1.499 3.3484,-3.348 0,-1.849 -1.4991,-3.348 -3.3484,-3.348 -1.8492,0 -3.3483,1.499 -3.3483,3.348 z" />
    <path d="m -36.699,224.337 c 0,1.849 1.4991,3.349 3.3483,3.349 1.8493,0 3.3484,-1.5 3.3484,-3.349 0,-1.849 -1.4991,-3.348 -3.3484,-3.348 -1.8492,0 -3.3483,1.499 -3.3483,3.348 z" />
    <path d="m -50.0923,-43.5286 c 0,1.8492 1.4991,3.3483 3.3483,3.3483 1.8493,0 3.3484,-1.4991 3.3484,-3.3483 0,-1.8493 -1.4991,-3.3484 -3.3484,-3.3484 -1.8492,0 -3.3483,1.4991 -3.3483,3.3484 z" />
    <path d="m -50.0923,-30.1353 c 0,1.8492 1.4991,3.3483 3.3483,3.3483 1.8493,0 3.3484,-1.4991 3.3484,-3.3483 0,-1.8493 -1.4991,-3.3484 -3.3484,-3.3484 -1.8492,0 -3.3483,1.4991 -3.3483,3.3484 z" />
    <path d="m -50.0923,-16.742 c 0,1.8492 1.4991,3.3483 3.3483,3.3483 1.8493,0 3.3484,-1.4991 3.3484,-3.3483 0,-1.8493 -1.4991,-3.3484 -3.3484,-3.3484 -1.8492,0 -3.3483,1.4991 -3.3483,3.3484 z" />
    <path d="m -50.0923,-3.34876 c 0,1.84923 1.4991,3.348327032 3.3483,3.348327032 1.8493,0 3.3484,-1.499097032 3.3484,-3.348327032 0,-1.84922 -1.4991,-3.34832 -3.3484,-3.34832 -1.8492,0 -3.3483,1.4991 -3.3483,3.34832 z" />
    <path d="m -50.0923,10.0445 c 0,1.8493 1.4991,3.3484 3.3483,3.3484 1.8493,0 3.3484,-1.4991 3.3484,-3.3484 0,-1.84919 -1.4991,-3.34829 -3.3484,-3.34829 -1.8492,0 -3.3483,1.4991 -3.3483,3.34829 z" />
    <path d="m -50.0923,23.4378 c 0,1.8493 1.4991,3.3483 3.3483,3.3483 1.8493,0 3.3484,-1.499 3.3484,-3.3483 0,-1.8492 -1.4991,-3.3483 -3.3484,-3.3483 -1.8492,0 -3.3483,1.4991 -3.3483,3.3483 z" />
    <path d="m -50.0923,36.8311 c 0,1.8492 1.4991,3.3483 3.3483,3.3483 1.8493,0 3.3484,-1.4991 3.3484,-3.3483 0,-1.8492 -1.4991,-3.3483 -3.3484,-3.3483 -1.8492,0 -3.3483,1.4991 -3.3483,3.3483 z" />
    <path d="m -50.0923,50.2244 c 0,1.8492 1.4991,3.3483 3.3483,3.3483 1.8493,0 3.3484,-1.4991 3.3484,-3.3483 0,-1.8492 -1.4991,-3.3483 -3.3484,-3.3483 -1.8492,0 -3.3483,1.4991 -3.3483,3.3483 z" />
    <path d="m -50.0923,63.6177 c 0,1.8492 1.4991,3.3483 3.3483,3.3483 1.8493,0 3.3484,-1.4991 3.3484,-3.3483 0,-1.8492 -1.4991,-3.3483 -3.3484,-3.3483 -1.8492,0 -3.3483,1.4991 -3.3483,3.3483 z" />
    <path d="m -50.0923,77.011 c 0,1.8492 1.4991,3.3483 3.3483,3.3483 1.8493,0 3.3484,-1.4991 3.3484,-3.3483 0,-1.8492 -1.4991,-3.3483 -3.3484,-3.3483 -1.8492,0 -3.3483,1.4991 -3.3483,3.3483 z" />
    <path d="m -50.0923,90.4043 c 0,1.8492 1.4991,3.3483 3.3483,3.3483 1.8493,0 3.3484,-1.4991 3.3484,-3.3483 0,-1.8492 -1.4991,-3.3483 -3.3484,-3.3483 -1.8492,0 -3.3483,1.4991 -3.3483,3.3483 z" />
    <path d="m -50.0923,103.798 c 0,1.849 1.4991,3.348 3.3483,3.348 1.8493,0 3.3484,-1.499 3.3484,-3.348 0,-1.85 -1.4991,-3.349 -3.3484,-3.349 -1.8492,0 -3.3483,1.499 -3.3483,3.349 z" />
    <path d="m -50.0923,117.191 c 0,1.849 1.4991,3.348 3.3483,3.348 1.8493,0 3.3484,-1.499 3.3484,-3.348 0,-1.849 -1.4991,-3.348 -3.3484,-3.348 -1.8492,0 -3.3483,1.499 -3.3483,3.348 z" />
    <path d="m -50.0923,130.584 c 0,1.849 1.4991,3.348 3.3483,3.348 1.8493,0 3.3484,-1.499 3.3484,-3.348 0,-1.849 -1.4991,-3.348 -3.3484,-3.348 -1.8492,0 -3.3483,1.499 -3.3483,3.348 z" />
    <path d="m -50.0923,143.977 c 0,1.85 1.4991,3.349 3.3483,3.349 1.8493,0 3.3484,-1.499 3.3484,-3.349 0,-1.849 -1.4991,-3.348 -3.3484,-3.348 -1.8492,0 -3.3483,1.499 -3.3483,3.348 z" />
    <path d="m -50.0923,157.371 c 0,1.849 1.4991,3.348 3.3483,3.348 1.8493,0 3.3484,-1.499 3.3484,-3.348 0,-1.849 -1.4991,-3.349 -3.3484,-3.349 -1.8492,0 -3.3483,1.5 -3.3483,3.349 z" />
    <path d="m -50.0923,170.764 c 0,1.849 1.4991,3.348 3.3483,3.348 1.8493,0 3.3484,-1.499 3.3484,-3.348 0,-1.849 -1.4991,-3.348 -3.3484,-3.348 -1.8492,0 -3.3483,1.499 -3.3483,3.348 z" />
    <path d="m -50.0923,184.157 c 0,1.85 1.4991,3.349 3.3483,3.349 1.8493,0 3.3484,-1.499 3.3484,-3.349 0,-1.849 -1.4991,-3.348 -3.3484,-3.348 -1.8492,0 -3.3483,1.499 -3.3483,3.348 z" />
    <path d="m -50.0923,197.551 c 0,1.849 1.4991,3.348 3.3483,3.348 1.8493,0 3.3484,-1.499 3.3484,-3.348 0,-1.85 -1.4991,-3.349 -3.3484,-3.349 -1.8492,0 -3.3483,1.499 -3.3483,3.349 z" />
    <path d="m -50.0923,210.944 c 0,1.849 1.4991,3.348 3.3483,3.348 1.8493,0 3.3484,-1.499 3.3484,-3.348 0,-1.849 -1.4991,-3.348 -3.3484,-3.348 -1.8492,0 -3.3483,1.499 -3.3483,3.348 z" />
    <path d="m -50.0923,224.337 c 0,1.849 1.4991,3.349 3.3483,3.349 1.8493,0 3.3484,-1.5 3.3484,-3.349 0,-1.849 -1.4991,-3.348 -3.3484,-3.348 -1.8492,0 -3.3483,1.499 -3.3483,3.348 z" />
    <path d="m -63.4856,-43.5286 c 0,1.8492 1.4991,3.3483 3.3484,3.3483 1.8492,0 3.3483,-1.4991 3.3483,-3.3483 0,-1.8493 -1.4991,-3.3484 -3.3483,-3.3484 -1.8493,0 -3.3484,1.4991 -3.3484,3.3484 z" />
    <path d="m -63.4856,-30.1353 c 0,1.8492 1.4991,3.3483 3.3484,3.3483 1.8492,0 3.3483,-1.4991 3.3483,-3.3483 0,-1.8493 -1.4991,-3.3484 -3.3483,-3.3484 -1.8493,0 -3.3484,1.4991 -3.3484,3.3484 z" />
    <path d="m -63.4856,-16.742 c 0,1.8492 1.4991,3.3483 3.3484,3.3483 1.8492,0 3.3483,-1.4991 3.3483,-3.3483 0,-1.8493 -1.4991,-3.3484 -3.3483,-3.3484 -1.8493,0 -3.3484,1.4991 -3.3484,3.3484 z" />
    <path d="m -63.4856,-3.34876 c 0,1.84923 1.4991,3.348327032 3.3484,3.348327032 1.8492,0 3.3483,-1.499097032 3.3483,-3.348327032 0,-1.84922 -1.4991,-3.34832 -3.3483,-3.34832 -1.8493,0 -3.3484,1.4991 -3.3484,3.34832 z" />
    <path d="m -63.4856,10.0445 c 0,1.8493 1.4991,3.3484 3.3484,3.3484 1.8492,0 3.3483,-1.4991 3.3483,-3.3484 0,-1.84919 -1.4991,-3.34829 -3.3483,-3.34829 -1.8493,0 -3.3484,1.4991 -3.3484,3.34829 z" />
    <path d="m -63.4856,23.4378 c 0,1.8493 1.4991,3.3483 3.3484,3.3483 1.8492,0 3.3483,-1.499 3.3483,-3.3483 0,-1.8492 -1.4991,-3.3483 -3.3483,-3.3483 -1.8493,0 -3.3484,1.4991 -3.3484,3.3483 z" />
    <path d="m -63.4856,36.8311 c 0,1.8492 1.4991,3.3483 3.3484,3.3483 1.8492,0 3.3483,-1.4991 3.3483,-3.3483 0,-1.8492 -1.4991,-3.3483 -3.3483,-3.3483 -1.8493,0 -3.3484,1.4991 -3.3484,3.3483 z" />
    <path d="m -63.4856,50.2244 c 0,1.8492 1.4991,3.3483 3.3484,3.3483 1.8492,0 3.3483,-1.4991 3.3483,-3.3483 0,-1.8492 -1.4991,-3.3483 -3.3483,-3.3483 -1.8493,0 -3.3484,1.4991 -3.3484,3.3483 z" />
    <path d="m -63.4856,63.6177 c 0,1.8492 1.4991,3.3483 3.3484,3.3483 1.8492,0 3.3483,-1.4991 3.3483,-3.3483 0,-1.8492 -1.4991,-3.3483 -3.3483,-3.3483 -1.8493,0 -3.3484,1.4991 -3.3484,3.3483 z" />
    <path d="m -63.4856,77.011 c 0,1.8492 1.4991,3.3483 3.3484,3.3483 1.8492,0 3.3483,-1.4991 3.3483,-3.3483 0,-1.8492 -1.4991,-3.3483 -3.3483,-3.3483 -1.8493,0 -3.3484,1.4991 -3.3484,3.3483 z" />
    <path d="m -63.4856,90.4043 c 0,1.8492 1.4991,3.3483 3.3484,3.3483 1.8492,0 3.3483,-1.4991 3.3483,-3.3483 0,-1.8492 -1.4991,-3.3483 -3.3483,-3.3483 -1.8493,0 -3.3484,1.4991 -3.3484,3.3483 z" />
    <path d="m -63.4856,103.798 c 0,1.849 1.4991,3.348 3.3484,3.348 1.8492,0 3.3483,-1.499 3.3483,-3.348 0,-1.85 -1.4991,-3.349 -3.3483,-3.349 -1.8493,0 -3.3484,1.499 -3.3484,3.349 z" />
    <path d="m -63.4856,117.191 c 0,1.849 1.4991,3.348 3.3484,3.348 1.8492,0 3.3483,-1.499 3.3483,-3.348 0,-1.849 -1.4991,-3.348 -3.3483,-3.348 -1.8493,0 -3.3484,1.499 -3.3484,3.348 z" />
    <path d="m -63.4856,130.584 c 0,1.849 1.4991,3.348 3.3484,3.348 1.8492,0 3.3483,-1.499 3.3483,-3.348 0,-1.849 -1.4991,-3.348 -3.3483,-3.348 -1.8493,0 -3.3484,1.499 -3.3484,3.348 z" />
    <path d="m -63.4856,143.977 c 0,1.85 1.4991,3.349 3.3484,3.349 1.8492,0 3.3483,-1.499 3.3483,-3.349 0,-1.849 -1.4991,-3.348 -3.3483,-3.348 -1.8493,0 -3.3484,1.499 -3.3484,3.348 z" />
    <path d="m -63.4856,157.371 c 0,1.849 1.4991,3.348 3.3484,3.348 1.8492,0 3.3483,-1.499 3.3483,-3.348 0,-1.849 -1.4991,-3.349 -3.3483,-3.349 -1.8493,0 -3.3484,1.5 -3.3484,3.349 z" />
    <path d="m -63.4856,170.764 c 0,1.849 1.4991,3.348 3.3484,3.348 1.8492,0 3.3483,-1.499 3.3483,-3.348 0,-1.849 -1.4991,-3.348 -3.3483,-3.348 -1.8493,0 -3.3484,1.499 -3.3484,3.348 z" />
    <path d="m -63.4856,184.157 c 0,1.85 1.4991,3.349 3.3484,3.349 1.8492,0 3.3483,-1.499 3.3483,-3.349 0,-1.849 -1.4991,-3.348 -3.3483,-3.348 -1.8493,0 -3.3484,1.499 -3.3484,3.348 z" />
    <path d="m -63.4856,197.551 c 0,1.849 1.4991,3.348 3.3484,3.348 1.8492,0 3.3483,-1.499 3.3483,-3.348 0,-1.85 -1.4991,-3.349 -3.3483,-3.349 -1.8493,0 -3.3484,1.499 -3.3484,3.349 z" />
    <path d="m -63.4856,210.944 c 0,1.849 1.4991,3.348 3.3484,3.348 1.8492,0 3.3483,-1.499 3.3483,-3.348 0,-1.849 -1.4991,-3.348 -3.3483,-3.348 -1.8493,0 -3.3484,1.499 -3.3484,3.348 z" />
    <path d="m -63.4856,224.337 c 0,1.849 1.4991,3.349 3.3484,3.349 1.8492,0 3.3483,-1.5 3.3483,-3.349 0,-1.849 -1.4991,-3.348 -3.3483,-3.348 -1.8493,0 -3.3484,1.499 -3.3484,3.348 z" />
  </g>
  <defs>
    <linearGradient id="blob-grad-dots-04_gradient" x1="0%" y1="0%" x2="100%" y2="0%" gradientUnits="userSpaceOnUse">
      <stop offset="0%" style="stop-color:rgb(85,0,255);stop-opacity:1"/>
      <stop offset="33%" style="stop-color:rgb(156,133,241);stop-opacity:1"/>
      <stop offset="66%" style="stop-color:rgb(109,255,212);stop-opacity:1"/>
      <stop offset="100%" style="stop-color:rgb(16,243,16);stop-opacity:1"/>
    </linearGradient>
  </defs>
</svg>
