<svg width="211" height="363" viewBox="0 0 211 363" fill="none" xmlns="http://www.w3.org/2000/svg">
<g clip-path="url(#clip0_677_39)">
<path d="M187.561 145.073C184.847 175.261 190.112 189.257 196.162 206.699C202.32 223.953 209.532 245.056 210.691 271.954C211.743 299.041 206.742 331.924 188.611 348.827C170.777 365.648 139.542 366.085 115.726 353.508C91.7206 340.824 75.1334 315.126 68.5385 291.626C62.1321 268.234 65.4218 247.12 49.1701 233.108C33.026 218.908 -1.55419e-05 245.553 0 205.829C5.55812 167.027 43.9334 195.389 51.6045 167.027C59.5717 138.584 33.7473 86.1313 37.3466 52.1998C40.8647 17.9722 73.5104 2.34709 107.463 0.210911C141.308 -1.73666 176.271 9.69718 188.58 38.9535C200.809 67.9138 190.195 114.589 187.561 145.073Z" fill="#16212D"/>
</g>
<defs>
<clipPath id="clip0_677_39">
<rect width="211" height="363" fill="white"/>
</clipPath>
</defs>
</svg>
