<svg width="176" height="156" viewBox="0 0 176 156" fill="none" xmlns="http://www.w3.org/2000/svg">
<g clip-path="url(#clip0_677_40)">
<path d="M21.616 152.4C16.8164 143.317 26.9345 115.157 24.3402 98.2878C21.7458 81.4183 6.56861 76.0979 1.769 67.9226C-3.03062 59.7474 2.80675 48.847 8.90356 38.2062C15.0004 27.4357 21.4863 16.9247 30.9559 9.52801C40.4254 2.13135 52.7487 -2.28068 62.9965 1.22299C73.3741 4.85644 81.6761 16.2758 96.3344 20.5581C110.993 24.9701 132.267 22.3748 147.833 29.5119C163.399 36.6491 173.517 53.6484 175.593 71.8156C177.668 89.9828 171.701 109.448 160.156 123.722C148.611 137.866 131.488 146.95 114.754 148.896C97.891 150.973 81.5464 145.912 63.5154 148.507C45.6141 151.103 26.2859 161.354 21.616 152.4Z" fill="#16212D"/>
</g>
<defs>
<clipPath id="clip0_677_40">
<rect width="176" height="156" fill="white"/>
</clipPath>
</defs>
</svg>
