<?xml version="1.0" encoding="UTF-8" standalone="no"?>
<svg
   width="160"
   height="200"
   viewBox="0 0 160 200"
   fill="none"
   version="1.1"
   xmlns="http://www.w3.org/2000/svg"
   xmlns:svg="http://www.w3.org/2000/svg">
  <g clip-path="url(#blob-grad-dots-05_clip)">
    <mask
       id="blob-grad-dots-05_mask"
       maskUnits="userSpaceOnUse"
       x="0"
       y="0"
       width="160"
       height="200">
      <path
         d="M 109.226,194.703 C 72.9568,208.91 16.5378,186.178 3.26278,156.815 -10.0123,127.216 19.8566,91.2224 45.4584,58.7812 71.2974,26.1032 93.1064,-3.25965 114.204,0.292308 135.539,3.84426 156.4,40.311 159.007,84.3552 161.378,128.399 145.495,180.258 109.226,194.703 Z"
         fill="#ffffff" />
    </mask>
    <g mask="url(#blob-grad-dots-05_mask)" style="fill:url(#blob-grad-dots-05_gradient)">
      <path d="m 196.099,-29.489 c -1.629,0 -2.949,-1.3203 -2.949,-2.9489 0,-1.6286 1.32,-2.9488 2.949,-2.9488 1.628,0 2.948,1.3202 2.948,2.9488 0,1.6286 -1.32,2.9489 -2.948,2.9489 z" />
      <path d="m 184.303,-29.489 c -1.628,0 -2.949,-1.3203 -2.949,-2.9489 0,-1.6286 1.321,-2.9488 2.949,-2.9488 1.629,0 2.949,1.3202 2.949,2.9488 0,1.6286 -1.32,2.9489 -2.949,2.9489 z" />
      <path d="m 172.508,-29.489 c -1.629,0 -2.949,-1.3203 -2.949,-2.9489 0,-1.6286 1.32,-2.9488 2.949,-2.9488 1.628,0 2.949,1.3202 2.949,2.9488 0,1.6286 -1.321,2.9489 -2.949,2.9489 z" />
      <path d="m 160.712,-29.489 c -1.628,0 -2.948,-1.3203 -2.948,-2.9489 0,-1.6286 1.32,-2.9488 2.948,-2.9488 1.629,0 2.949,1.3202 2.949,2.9488 0,1.6286 -1.32,2.9489 -2.949,2.9489 z" />
      <path d="m 148.917,-29.489 c -1.629,0 -2.949,-1.3203 -2.949,-2.9489 0,-1.6286 1.32,-2.9488 2.949,-2.9488 1.629,0 2.949,1.3202 2.949,2.9488 0,1.6286 -1.32,2.9489 -2.949,2.9489 z" />
      <path d="m 137.122,-29.489 c -1.629,0 -2.949,-1.3203 -2.949,-2.9489 0,-1.6286 1.32,-2.9488 2.949,-2.9488 1.628,0 2.948,1.3202 2.948,2.9488 0,1.6286 -1.32,2.9489 -2.948,2.9489 z" />
      <path d="m 125.326,-29.489 c -1.628,0 -2.949,-1.3203 -2.949,-2.9489 0,-1.6286 1.321,-2.9488 2.949,-2.9488 1.629,0 2.949,1.3202 2.949,2.9488 0,1.6286 -1.32,2.9489 -2.949,2.9489 z" />
      <path d="m 113.531,-29.489 c -1.629,0 -2.949,-1.3203 -2.949,-2.9489 0,-1.6286 1.32,-2.9488 2.949,-2.9488 1.628,0 2.949,1.3202 2.949,2.9488 0,1.6286 -1.321,2.9489 -2.949,2.9489 z" />
      <path d="m 101.735,-29.489 c -1.628,0 -2.9484,-1.3203 -2.9484,-2.9489 0,-1.6286 1.3204,-2.9488 2.9484,-2.9488 1.629,0 2.949,1.3202 2.949,2.9488 0,1.6286 -1.32,2.9489 -2.949,2.9489 z" />
      <path d="m 89.9401,-29.489 c -1.6286,0 -2.9489,-1.3203 -2.9489,-2.9489 0,-1.6286 1.3203,-2.9488 2.9489,-2.9488 1.6286,0 2.9488,1.3202 2.9488,2.9488 0,1.6286 -1.3202,2.9489 -2.9488,2.9489 z" />
      <path d="m 78.1447,-29.489 c -1.6286,0 -2.9489,-1.3203 -2.9489,-2.9489 0,-1.6286 1.3203,-2.9488 2.9489,-2.9488 1.6286,0 2.9488,1.3202 2.9488,2.9488 0,1.6286 -1.3202,2.9489 -2.9488,2.9489 z" />
      <path d="m 66.3493,-29.489 c -1.6286,0 -2.9489,-1.3203 -2.9489,-2.9489 0,-1.6286 1.3203,-2.9488 2.9489,-2.9488 1.6286,0 2.9488,1.3202 2.9488,2.9488 0,1.6286 -1.3202,2.9489 -2.9488,2.9489 z" />
      <path d="m 54.5539,-29.489 c -1.6286,0 -2.9488,-1.3203 -2.9488,-2.9489 0,-1.6286 1.3202,-2.9488 2.9488,-2.9488 1.6286,0 2.9489,1.3202 2.9489,2.9488 0,1.6286 -1.3203,2.9489 -2.9489,2.9489 z" />
      <path d="m 42.7585,-29.489 c -1.6286,0 -2.9488,-1.3203 -2.9488,-2.9489 0,-1.6286 1.3202,-2.9488 2.9488,-2.9488 1.6286,0 2.9489,1.3202 2.9489,2.9488 0,1.6286 -1.3203,2.9489 -2.9489,2.9489 z" />
      <path d="m 30.9631,-29.489 c -1.6286,0 -2.9488,-1.3203 -2.9488,-2.9489 0,-1.6286 1.3202,-2.9488 2.9488,-2.9488 1.6286,0 2.9489,1.3202 2.9489,2.9488 0,1.6286 -1.3203,2.9489 -2.9489,2.9489 z" />
      <path d="m 19.1678,-29.489 c -1.6287,0 -2.9489,-1.3203 -2.9489,-2.9489 0,-1.6286 1.3202,-2.9488 2.9489,-2.9488 1.6286,0 2.9488,1.3202 2.9488,2.9488 0,1.6286 -1.3202,2.9489 -2.9488,2.9489 z" />
      <path d="m 7.37237,-29.489 c -1.62861,0 -2.94885,-1.3203 -2.94885,-2.9489 0,-1.6286 1.32024,-2.9488 2.94885,-2.9488 1.6286,0 2.94883,1.3202 2.94883,2.9488 0,1.6286 -1.32023,2.9489 -2.94883,2.9489 z" />
      <path d="m -4.42302,-29.489 c -1.6286,0 -2.94884,-1.3203 -2.94884,-2.9489 0,-1.6286 1.32024,-2.9488 2.94884,-2.9488 1.62861,0 2.94885,1.3202 2.94885,2.9488 0,1.6286 -1.32024,2.9489 -2.94885,2.9489 z" />
      <path d="m -16.2184,-29.489 c -1.6286,0 -2.9488,-1.3203 -2.9488,-2.9489 0,-1.6286 1.3202,-2.9488 2.9488,-2.9488 1.6286,0 2.9488,1.3202 2.9488,2.9488 0,1.6286 -1.3202,2.9489 -2.9488,2.9489 z" />
      <path d="m -28.0138,-29.489 c -1.6286,0 -2.9488,-1.3203 -2.9488,-2.9489 0,-1.6286 1.3202,-2.9488 2.9488,-2.9488 1.6286,0 2.9489,1.3202 2.9489,2.9488 0,1.6286 -1.3203,2.9489 -2.9489,2.9489 z" />
      <path d="m -39.8092,-29.489 c -1.6286,0 -2.9488,-1.3203 -2.9488,-2.9489 0,-1.6286 1.3202,-2.9488 2.9488,-2.9488 1.6286,0 2.9489,1.3202 2.9489,2.9488 0,1.6286 -1.3203,2.9489 -2.9489,2.9489 z" />
      <path d="m 196.099,-17.6936 c -1.629,0 -2.949,-1.3203 -2.949,-2.9489 0,-1.6286 1.32,-2.9488 2.949,-2.9488 1.628,0 2.948,1.3202 2.948,2.9488 0,1.6286 -1.32,2.9489 -2.948,2.9489 z" />
      <path d="m 184.303,-17.6936 c -1.628,0 -2.949,-1.3203 -2.949,-2.9489 0,-1.6286 1.321,-2.9488 2.949,-2.9488 1.629,0 2.949,1.3202 2.949,2.9488 0,1.6286 -1.32,2.9489 -2.949,2.9489 z" />
      <path d="m 172.508,-17.6936 c -1.629,0 -2.949,-1.3203 -2.949,-2.9489 0,-1.6286 1.32,-2.9488 2.949,-2.9488 1.628,0 2.949,1.3202 2.949,2.9488 0,1.6286 -1.321,2.9489 -2.949,2.9489 z" />
      <path d="m 160.712,-17.6936 c -1.628,0 -2.948,-1.3203 -2.948,-2.9489 0,-1.6286 1.32,-2.9488 2.948,-2.9488 1.629,0 2.949,1.3202 2.949,2.9488 0,1.6286 -1.32,2.9489 -2.949,2.9489 z" />
      <path d="m 148.917,-17.6936 c -1.629,0 -2.949,-1.3203 -2.949,-2.9489 0,-1.6286 1.32,-2.9488 2.949,-2.9488 1.629,0 2.949,1.3202 2.949,2.9488 0,1.6286 -1.32,2.9489 -2.949,2.9489 z" />
      <path d="m 137.122,-17.6936 c -1.629,0 -2.949,-1.3203 -2.949,-2.9489 0,-1.6286 1.32,-2.9488 2.949,-2.9488 1.628,0 2.948,1.3202 2.948,2.9488 0,1.6286 -1.32,2.9489 -2.948,2.9489 z" />
      <path d="m 125.326,-17.6936 c -1.628,0 -2.949,-1.3203 -2.949,-2.9489 0,-1.6286 1.321,-2.9488 2.949,-2.9488 1.629,0 2.949,1.3202 2.949,2.9488 0,1.6286 -1.32,2.9489 -2.949,2.9489 z" />
      <path d="m 113.531,-17.6936 c -1.629,0 -2.949,-1.3203 -2.949,-2.9489 0,-1.6286 1.32,-2.9488 2.949,-2.9488 1.628,0 2.949,1.3202 2.949,2.9488 0,1.6286 -1.321,2.9489 -2.949,2.9489 z" />
      <path d="m 101.735,-17.6936 c -1.628,0 -2.9484,-1.3203 -2.9484,-2.9489 0,-1.6286 1.3204,-2.9488 2.9484,-2.9488 1.629,0 2.949,1.3202 2.949,2.9488 0,1.6286 -1.32,2.9489 -2.949,2.9489 z" />
      <path d="m 89.9401,-17.6936 c -1.6286,0 -2.9489,-1.3203 -2.9489,-2.9489 0,-1.6286 1.3203,-2.9488 2.9489,-2.9488 1.6286,0 2.9488,1.3202 2.9488,2.9488 0,1.6286 -1.3202,2.9489 -2.9488,2.9489 z" />
      <path d="m 78.1447,-17.6936 c -1.6286,0 -2.9489,-1.3203 -2.9489,-2.9489 0,-1.6286 1.3203,-2.9488 2.9489,-2.9488 1.6286,0 2.9488,1.3202 2.9488,2.9488 0,1.6286 -1.3202,2.9489 -2.9488,2.9489 z" />
      <path d="m 66.3493,-17.6936 c -1.6286,0 -2.9489,-1.3203 -2.9489,-2.9489 0,-1.6286 1.3203,-2.9488 2.9489,-2.9488 1.6286,0 2.9488,1.3202 2.9488,2.9488 0,1.6286 -1.3202,2.9489 -2.9488,2.9489 z" />
      <path d="m 54.5539,-17.6936 c -1.6286,0 -2.9488,-1.3203 -2.9488,-2.9489 0,-1.6286 1.3202,-2.9488 2.9488,-2.9488 1.6286,0 2.9489,1.3202 2.9489,2.9488 0,1.6286 -1.3203,2.9489 -2.9489,2.9489 z" />
      <path d="m 42.7585,-17.6936 c -1.6286,0 -2.9488,-1.3203 -2.9488,-2.9489 0,-1.6286 1.3202,-2.9488 2.9488,-2.9488 1.6286,0 2.9489,1.3202 2.9489,2.9488 0,1.6286 -1.3203,2.9489 -2.9489,2.9489 z" />
      <path d="m 30.9631,-17.6936 c -1.6286,0 -2.9488,-1.3203 -2.9488,-2.9489 0,-1.6286 1.3202,-2.9488 2.9488,-2.9488 1.6286,0 2.9489,1.3202 2.9489,2.9488 0,1.6286 -1.3203,2.9489 -2.9489,2.9489 z" />
      <path d="m 19.1678,-17.6936 c -1.6287,0 -2.9489,-1.3203 -2.9489,-2.9489 0,-1.6286 1.3202,-2.9488 2.9489,-2.9488 1.6286,0 2.9488,1.3202 2.9488,2.9488 0,1.6286 -1.3202,2.9489 -2.9488,2.9489 z" />
      <path d="m 7.37237,-17.6936 c -1.62861,0 -2.94885,-1.3203 -2.94885,-2.9489 0,-1.6286 1.32024,-2.9488 2.94885,-2.9488 1.6286,0 2.94883,1.3202 2.94883,2.9488 0,1.6286 -1.32023,2.9489 -2.94883,2.9489 z" />
      <path d="m -4.42302,-17.6936 c -1.6286,0 -2.94884,-1.3203 -2.94884,-2.9489 0,-1.6286 1.32024,-2.9488 2.94884,-2.9488 1.62861,0 2.94885,1.3202 2.94885,2.9488 0,1.6286 -1.32024,2.9489 -2.94885,2.9489 z" />
      <path d="m -16.2184,-17.6936 c -1.6286,0 -2.9488,-1.3203 -2.9488,-2.9489 0,-1.6286 1.3202,-2.9488 2.9488,-2.9488 1.6286,0 2.9488,1.3202 2.9488,2.9488 0,1.6286 -1.3202,2.9489 -2.9488,2.9489 z" />
      <path d="m -28.0138,-17.6936 c -1.6286,0 -2.9488,-1.3203 -2.9488,-2.9489 0,-1.6286 1.3202,-2.9488 2.9488,-2.9488 1.6286,0 2.9489,1.3202 2.9489,2.9488 0,1.6286 -1.3203,2.9489 -2.9489,2.9489 z" />
      <path d="m -39.8092,-17.6936 c -1.6286,0 -2.9488,-1.3203 -2.9488,-2.9489 0,-1.6286 1.3202,-2.9488 2.9488,-2.9488 1.6286,0 2.9489,1.3202 2.9489,2.9488 0,1.6286 -1.3203,2.9489 -2.9489,2.9489 z" />
      <path d="m 196.099,-5.89826 c -1.629,0 -2.949,-1.32024 -2.949,-2.94885 0,-1.62859 1.32,-2.94889 2.949,-2.94889 1.628,0 2.948,1.3203 2.948,2.94889 0,1.62861 -1.32,2.94885 -2.948,2.94885 z" />
      <path d="m 184.303,-5.89826 c -1.628,0 -2.949,-1.32024 -2.949,-2.94885 0,-1.62859 1.321,-2.94889 2.949,-2.94889 1.629,0 2.949,1.3203 2.949,2.94889 0,1.62861 -1.32,2.94885 -2.949,2.94885 z" />
      <path d="m 172.508,-5.89826 c -1.629,0 -2.949,-1.32024 -2.949,-2.94884 0,-1.6286 1.32,-2.9489 2.949,-2.9489 1.628,0 2.949,1.3203 2.949,2.9489 0,1.6286 -1.321,2.94884 -2.949,2.94884 z" />
      <path d="m 160.712,-5.89826 c -1.628,0 -2.948,-1.32024 -2.948,-2.94884 0,-1.6286 1.32,-2.9489 2.948,-2.9489 1.629,0 2.949,1.3203 2.949,2.9489 0,1.6286 -1.32,2.94884 -2.949,2.94884 z" />
      <path d="m 148.917,-5.89826 c -1.629,0 -2.949,-1.32024 -2.949,-2.94884 0,-1.6286 1.32,-2.9488 2.949,-2.9488 1.629,0 2.949,1.3202 2.949,2.9488 0,1.6286 -1.32,2.94884 -2.949,2.94884 z" />
      <path d="m 137.122,-5.89826 c -1.629,0 -2.949,-1.32024 -2.949,-2.94884 0,-1.6286 1.32,-2.9488 2.949,-2.9488 1.628,0 2.948,1.3202 2.948,2.9488 0,1.6286 -1.32,2.94884 -2.948,2.94884 z" />
      <path d="m 125.326,-5.89826 c -1.628,0 -2.949,-1.32024 -2.949,-2.94884 0,-1.6286 1.321,-2.9488 2.949,-2.9488 1.629,0 2.949,1.3202 2.949,2.9488 0,1.6286 -1.32,2.94884 -2.949,2.94884 z" />
      <path d="m 113.531,-5.89826 c -1.629,0 -2.949,-1.32024 -2.949,-2.94884 0,-1.6286 1.32,-2.9488 2.949,-2.9488 1.628,0 2.949,1.3202 2.949,2.9488 0,1.6286 -1.321,2.94884 -2.949,2.94884 z" />
      <path d="m 101.735,-5.89826 c -1.628,0 -2.9484,-1.32024 -2.9484,-2.94884 0,-1.6286 1.3204,-2.9488 2.9484,-2.9488 1.629,0 2.949,1.3202 2.949,2.9488 0,1.6286 -1.32,2.94884 -2.949,2.94884 z" />
      <path d="m 89.9401,-5.89826 c -1.6286,0 -2.9489,-1.32024 -2.9489,-2.94884 0,-1.6286 1.3203,-2.9488 2.9489,-2.9488 1.6286,0 2.9488,1.3202 2.9488,2.9488 0,1.6286 -1.3202,2.94884 -2.9488,2.94884 z" />
      <path d="m 78.1447,-5.89825 c -1.6286,0 -2.9489,-1.32025 -2.9489,-2.94885 0,-1.6286 1.3203,-2.9488 2.9489,-2.9488 1.6286,0 2.9488,1.3202 2.9488,2.9488 0,1.6286 -1.3202,2.94885 -2.9488,2.94885 z" />
      <path d="m 66.3493,-5.89825 c -1.6286,0 -2.9489,-1.32025 -2.9489,-2.94885 0,-1.6286 1.3203,-2.9488 2.9489,-2.9488 1.6286,0 2.9488,1.3202 2.9488,2.9488 0,1.6286 -1.3202,2.94885 -2.9488,2.94885 z" />
      <path d="m 54.5539,-5.89825 c -1.6286,0 -2.9488,-1.32025 -2.9488,-2.94885 0,-1.6286 1.3202,-2.9488 2.9488,-2.9488 1.6286,0 2.9489,1.3202 2.9489,2.9488 0,1.6286 -1.3203,2.94885 -2.9489,2.94885 z" />
      <path d="m 42.7585,-5.89825 c -1.6286,0 -2.9488,-1.32025 -2.9488,-2.94885 0,-1.6286 1.3202,-2.9488 2.9488,-2.9488 1.6286,0 2.9489,1.3202 2.9489,2.9488 0,1.6286 -1.3203,2.94885 -2.9489,2.94885 z" />
      <path d="m 30.9631,-5.89825 c -1.6286,0 -2.9488,-1.32025 -2.9488,-2.94885 0,-1.6286 1.3202,-2.9488 2.9488,-2.9488 1.6286,0 2.9489,1.3202 2.9489,2.9488 0,1.6286 -1.3203,2.94885 -2.9489,2.94885 z" />
      <path d="m 19.1678,-5.89825 c -1.6287,0 -2.9489,-1.32025 -2.9489,-2.94885 0,-1.6286 1.3202,-2.9488 2.9489,-2.9488 1.6286,0 2.9488,1.3202 2.9488,2.9488 0,1.6286 -1.3202,2.94885 -2.9488,2.94885 z" />
      <path d="m 7.37237,-5.89825 c -1.6286,0 -2.94885,-1.32024 -2.94885,-2.94885 0,-1.6286 1.32024,-2.9488 2.94885,-2.9488 1.6286,0 2.94883,1.3202 2.94883,2.9488 0,1.6286 -1.32023,2.94885 -2.94883,2.94885 z" />
      <path d="m -4.42302,-5.89825 c -1.6286,0 -2.94884,-1.32024 -2.94884,-2.94885 0,-1.6286 1.32024,-2.9488 2.94884,-2.9488 1.62861,0 2.94885,1.3202 2.94885,2.9488 0,1.62861 -1.32024,2.94885 -2.94885,2.94885 z" />
      <path d="m -16.2184,-5.89825 c -1.6286,0 -2.9488,-1.32024 -2.9488,-2.94885 0,-1.6286 1.3202,-2.9488 2.9488,-2.9488 1.6286,0 2.9488,1.3202 2.9488,2.9488 0,1.62861 -1.3202,2.94885 -2.9488,2.94885 z" />
      <path d="m -28.0138,-5.89825 c -1.6286,0 -2.9488,-1.32024 -2.9488,-2.94885 0,-1.6286 1.3202,-2.9488 2.9488,-2.9488 1.6286,0 2.9489,1.3202 2.9489,2.9488 0,1.62861 -1.3203,2.94885 -2.9489,2.94885 z" />
      <path d="m -39.8092,-5.89825 c -1.6286,0 -2.9488,-1.32024 -2.9488,-2.94885 0,-1.6286 1.3202,-2.9488 2.9488,-2.9488 1.6286,0 2.9489,1.3202 2.9489,2.9488 0,1.62861 -1.3203,2.94885 -2.9489,2.94885 z" />
      <path d="m 196.099,5.89712 c -1.629,0 -2.949,-1.32024 -2.949,-2.94884 0,-1.6286 1.32,-2.94884819 2.949,-2.948848261 1.628,-7.1e-8 2.948,1.320238261 2.948,2.948848261 0,1.6286 -1.32,2.94884 -2.948,2.94884 z" />
      <path d="m 184.303,5.89712 c -1.628,0 -2.949,-1.32024 -2.949,-2.94884 0,-1.6286 1.321,-2.948847674 2.949,-2.948847745 1.629,-7.2e-8 2.949,1.320247745 2.949,2.948847745 0,1.6286 -1.32,2.94884 -2.949,2.94884 z" />
      <path d="m 172.508,5.89712 c -1.629,0 -2.949,-1.32024 -2.949,-2.94884 0,-1.6286 1.32,-2.948847159 2.949,-2.94884723 1.628,-7.1e-8 2.949,1.32024723 2.949,2.94884723 0,1.6286 -1.321,2.94884 -2.949,2.94884 z" />
      <path d="m 160.712,5.89713 c -1.628,0 -2.948,-1.32025 -2.948,-2.94885 0,-1.6286 1.32,-2.948846643 2.948,-2.948846714 1.629,-7.1e-8 2.949,1.320246714 2.949,2.948846714 0,1.6286 -1.32,2.94884 -2.949,2.94885 z" />
      <path d="m 148.917,5.89713 c -1.629,0 -2.949,-1.32025 -2.949,-2.94885 0,-1.6286 1.32,-2.948846127 2.949,-2.948846199 1.629,-7.1e-8 2.949,1.320246199 2.949,2.948846199 0,1.6286 -1.32,2.94885 -2.949,2.94885 z" />
      <path d="m 137.122,5.89713 c -1.629,0 -2.949,-1.32025 -2.949,-2.94885 0,-1.6286 1.32,-2.948845612 2.949,-2.948845683 1.628,-7.1e-8 2.948,1.320245683 2.948,2.948845683 0,1.6286 -1.32,2.94885 -2.948,2.94885 z" />
      <path d="m 125.326,5.89713 c -1.628,0 -2.949,-1.32025 -2.949,-2.94885 0,-1.6286 1.321,-2.948845096 2.949,-2.948845167 1.629,-7.2e-8 2.949,1.320245167 2.949,2.948845167 0,1.6286 -1.32,2.94885 -2.949,2.94885 z" />
      <path d="m 113.531,5.89713 c -1.629,0 -2.949,-1.32025 -2.949,-2.94885 0,-1.6286 1.32,-2.948844581 2.949,-2.948844652 1.628,-7.1e-8 2.949,1.320244652 2.949,2.948844652 0,1.6286 -1.321,2.94885 -2.949,2.94885 z" />
      <path d="m 101.735,5.89713 c -1.628,0 -2.9484,-1.32025 -2.9484,-2.94885 0,-1.6286 1.3204,-2.948844065 2.9484,-2.948844136 1.629,-7.1e-8 2.949,1.320244136 2.949,2.948844136 0,1.6286 -1.32,2.94885 -2.949,2.94885 z" />
      <path d="m 89.9401,5.89713 c -1.6286,0 -2.9489,-1.32024 -2.9489,-2.94885 0,-1.6286 1.3203,-2.948843549 2.9489,-2.948843621 1.6286,-7.1e-8 2.9488,1.320243621 2.9488,2.948843621 0,1.6286 -1.3202,2.94885 -2.9488,2.94885 z" />
      <path d="m 78.1447,5.89713 c -1.6286,0 -2.9489,-1.32024 -2.9489,-2.94885 0,-1.6286 1.3203,-2.948843034 2.9489,-2.948843105 1.6286,-7.1e-8 2.9488,1.320243105 2.9488,2.948843105 0,1.62861 -1.3202,2.94885 -2.9488,2.94885 z" />
      <path d="m 66.3493,5.89713 c -1.6286,0 -2.9489,-1.32024 -2.9489,-2.94885 0,-1.6286 1.3203,-2.948842518 2.9489,-2.948842589 1.6286,-7.2e-8 2.9488,1.320242589 2.9488,2.948842589 0,1.62861 -1.3202,2.94885 -2.9488,2.94885 z" />
      <path d="m 54.5539,5.89713 c -1.6286,0 -2.9488,-1.32024 -2.9488,-2.94885 0,-1.6286 1.3202,-2.948842003 2.9488,-2.948842074 1.6286,-7.1e-8 2.9489,1.320242074 2.9489,2.948842074 0,1.62861 -1.3203,2.94885 -2.9489,2.94885 z" />
      <path d="m 42.7585,5.89713 c -1.6286,0 -2.9488,-1.32024 -2.9488,-2.94885 0,-1.6286 1.3202,-2.948841487 2.9488,-2.948841558 1.6286,-7.1e-8 2.9489,1.320241558 2.9489,2.948841558 0,1.62861 -1.3203,2.94885 -2.9489,2.94885 z" />
      <path d="m 30.9631,5.89713 c -1.6286,0 -2.9488,-1.32024 -2.9488,-2.94885 0,-1.6286 1.3202,-2.948840972 2.9488,-2.948841043 1.6286,-7.1e-8 2.9489,1.320241043 2.9489,2.948841043 0,1.62861 -1.3203,2.94885 -2.9489,2.94885 z" />
      <path d="m 19.1678,5.89713 c -1.6286,0 -2.9489,-1.32024 -2.9489,-2.94884 0,-1.62861 1.3202,-2.948850456 2.9489,-2.948850527 1.6286,-7.1e-8 2.9488,1.320240527 2.9488,2.948850527 0,1.6286 -1.3202,2.94884 -2.9488,2.94884 z" />
      <path d="m 7.37237,5.89713 c -1.6286,0 -2.94885,-1.32024 -2.94885,-2.94884 0,-1.62861 1.32025,-2.94884994 2.94885,-2.948850012 1.6286,-7.1e-8 2.94883,1.320240012 2.94883,2.948850012 0,1.6286 -1.32023,2.94884 -2.94883,2.94884 z" />
      <path d="m -4.42302,5.89713 c -1.6286,0 -2.94884,-1.32024 -2.94884,-2.94884 0,-1.62861 1.32024,-2.948849425 2.94884,-2.948849496 1.62861,-7.1e-8 2.94885,1.320239496 2.94885,2.948849496 0,1.6286 -1.32024,2.94884 -2.94885,2.94884 z" />
      <path d="m -16.2184,5.89713 c -1.6286,0 -2.9488,-1.32024 -2.9488,-2.94884 0,-1.62861 1.3202,-2.948848909 2.9488,-2.94884898 1.6286,-7.2e-8 2.9488,1.32023898 2.9488,2.94884898 0,1.6286 -1.3202,2.94884 -2.9488,2.94884 z" />
      <path d="m -28.0138,5.89713 c -1.6286,0 -2.9488,-1.32024 -2.9488,-2.94884 0,-1.62861 1.3202,-2.948848394 2.9488,-2.948848465 1.6286,-7.1e-8 2.9489,1.320238465 2.9489,2.948848465 0,1.6286 -1.3203,2.94884 -2.9489,2.94884 z" />
      <path d="m -39.8092,5.89713 c -1.6286,0 -2.9488,-1.32024 -2.9488,-2.94884 0,-1.6286 1.3202,-2.948847878 2.9488,-2.948847949 1.6286,-7.1e-8 2.9489,1.320247949 2.9489,2.948847949 0,1.6286 -1.3203,2.94884 -2.9489,2.94884 z" />
      <path d="m 196.099,17.6925 c -1.629,0 -2.949,-1.3202 -2.949,-2.9488 0,-1.6286 1.32,-2.9489 2.949,-2.9489 1.628,0 2.948,1.3203 2.948,2.9489 0,1.6286 -1.32,2.9488 -2.948,2.9488 z" />
      <path d="m 184.303,17.6925 c -1.628,0 -2.949,-1.3202 -2.949,-2.9488 0,-1.6286 1.321,-2.9489 2.949,-2.9489 1.629,0 2.949,1.3203 2.949,2.9489 0,1.6286 -1.32,2.9488 -2.949,2.9488 z" />
      <path d="m 172.508,17.6925 c -1.629,0 -2.949,-1.3202 -2.949,-2.9488 0,-1.6286 1.32,-2.9489 2.949,-2.9489 1.628,0 2.949,1.3203 2.949,2.9489 0,1.6286 -1.321,2.9488 -2.949,2.9488 z" />
      <path d="m 160.712,17.6925 c -1.628,0 -2.948,-1.3202 -2.948,-2.9488 0,-1.6286 1.32,-2.9489 2.948,-2.9489 1.629,0 2.949,1.3203 2.949,2.9489 0,1.6286 -1.32,2.9488 -2.949,2.9488 z" />
      <path d="m 148.917,17.6925 c -1.629,0 -2.949,-1.3202 -2.949,-2.9488 0,-1.6286 1.32,-2.9489 2.949,-2.9489 1.629,0 2.949,1.3203 2.949,2.9489 0,1.6286 -1.32,2.9488 -2.949,2.9488 z" />
      <path d="m 137.122,17.6925 c -1.629,0 -2.949,-1.3202 -2.949,-2.9488 0,-1.6286 1.32,-2.9489 2.949,-2.9489 1.628,0 2.948,1.3203 2.948,2.9489 0,1.6286 -1.32,2.9488 -2.948,2.9488 z" />
      <path d="m 125.326,17.6925 c -1.628,0 -2.949,-1.3202 -2.949,-2.9488 0,-1.6286 1.321,-2.9489 2.949,-2.9489 1.629,0 2.949,1.3203 2.949,2.9489 0,1.6286 -1.32,2.9488 -2.949,2.9488 z" />
      <path d="m 113.531,17.6925 c -1.629,0 -2.949,-1.3202 -2.949,-2.9488 0,-1.6286 1.32,-2.9489 2.949,-2.9489 1.628,0 2.949,1.3203 2.949,2.9489 0,1.6286 -1.321,2.9488 -2.949,2.9488 z" />
      <path d="m 101.735,17.6925 c -1.628,0 -2.9484,-1.3202 -2.9484,-2.9488 0,-1.6286 1.3204,-2.9489 2.9484,-2.9489 1.629,0 2.949,1.3203 2.949,2.9489 0,1.6286 -1.32,2.9488 -2.949,2.9488 z" />
      <path d="m 89.9401,17.6925 c -1.6286,0 -2.9489,-1.3202 -2.9489,-2.9488 0,-1.6286 1.3203,-2.9489 2.9489,-2.9489 1.6286,0 2.9488,1.3203 2.9488,2.9489 0,1.6286 -1.3202,2.9488 -2.9488,2.9488 z" />
      <path d="m 78.1447,17.6925 c -1.6286,0 -2.9489,-1.3202 -2.9489,-2.9488 0,-1.6286 1.3203,-2.9489 2.9489,-2.9489 1.6286,0 2.9488,1.3203 2.9488,2.9489 0,1.6286 -1.3202,2.9488 -2.9488,2.9488 z" />
      <path d="m 66.3493,17.6925 c -1.6286,0 -2.9489,-1.3202 -2.9489,-2.9488 0,-1.6286 1.3203,-2.9489 2.9489,-2.9489 1.6286,0 2.9488,1.3203 2.9488,2.9489 0,1.6286 -1.3202,2.9488 -2.9488,2.9488 z" />
      <path d="m 54.5539,17.6925 c -1.6286,0 -2.9488,-1.3202 -2.9488,-2.9488 0,-1.6286 1.3202,-2.9489 2.9488,-2.9489 1.6286,0 2.9489,1.3203 2.9489,2.9489 0,1.6286 -1.3203,2.9488 -2.9489,2.9488 z" />
      <path d="m 42.7585,17.6925 c -1.6286,0 -2.9488,-1.3202 -2.9488,-2.9488 0,-1.6286 1.3202,-2.9489 2.9488,-2.9489 1.6286,0 2.9489,1.3203 2.9489,2.9489 0,1.6286 -1.3203,2.9488 -2.9489,2.9488 z" />
      <path d="m 30.9631,17.6925 c -1.6286,0 -2.9488,-1.3202 -2.9488,-2.9488 0,-1.6286 1.3202,-2.9489 2.9488,-2.9489 1.6286,0 2.9489,1.3203 2.9489,2.9489 0,1.6286 -1.3203,2.9488 -2.9489,2.9488 z" />
      <path d="m 19.1678,17.6925 c -1.6286,0 -2.9489,-1.3202 -2.9489,-2.9488 0,-1.6286 1.3203,-2.9489 2.9489,-2.9489 1.6286,0 2.9488,1.3203 2.9488,2.9489 0,1.6286 -1.3202,2.9488 -2.9488,2.9488 z" />
      <path d="m 7.37237,17.6925 c -1.6286,0 -2.94885,-1.3202 -2.94885,-2.9488 0,-1.6286 1.32025,-2.9489 2.94885,-2.9489 1.6286,0 2.94883,1.3203 2.94883,2.9489 0,1.6286 -1.32023,2.9488 -2.94883,2.9488 z" />
      <path d="m -4.42302,17.6925 c -1.6286,0 -2.94884,-1.3202 -2.94884,-2.9488 0,-1.6286 1.32024,-2.9489 2.94884,-2.9489 1.62861,0 2.94885,1.3203 2.94885,2.9489 0,1.6286 -1.32024,2.9488 -2.94885,2.9488 z" />
      <path d="m -16.2184,17.6925 c -1.6286,0 -2.9488,-1.3202 -2.9488,-2.9488 0,-1.6286 1.3202,-2.9489 2.9488,-2.9489 1.6286,0 2.9488,1.3203 2.9488,2.9489 0,1.6286 -1.3202,2.9488 -2.9488,2.9488 z" />
      <path d="m -28.0138,17.6925 c -1.6286,0 -2.9488,-1.3202 -2.9488,-2.9488 0,-1.6286 1.3202,-2.9489 2.9488,-2.9489 1.6286,0 2.9489,1.3203 2.9489,2.9489 0,1.6286 -1.3203,2.9488 -2.9489,2.9488 z" />
      <path d="m -39.8092,17.6925 c -1.6286,0 -2.9488,-1.3202 -2.9488,-2.9488 0,-1.6286 1.3202,-2.9489 2.9488,-2.9489 1.6286,0 2.9489,1.3203 2.9489,2.9489 0,1.6286 -1.3203,2.9488 -2.9489,2.9488 z" />
      <path d="m 196.099,29.4879 c -1.629,0 -2.949,-1.3203 -2.949,-2.9489 0,-1.6286 1.32,-2.9488 2.949,-2.9488 1.628,0 2.948,1.3202 2.948,2.9488 0,1.6286 -1.32,2.9489 -2.948,2.9489 z" />
      <path d="m 184.303,29.4879 c -1.628,0 -2.949,-1.3203 -2.949,-2.9489 0,-1.6286 1.321,-2.9488 2.949,-2.9488 1.629,0 2.949,1.3202 2.949,2.9488 0,1.6286 -1.32,2.9489 -2.949,2.9489 z" />
      <path d="m 172.508,29.4879 c -1.629,0 -2.949,-1.3203 -2.949,-2.9489 0,-1.6286 1.32,-2.9488 2.949,-2.9488 1.628,0 2.949,1.3202 2.949,2.9488 0,1.6286 -1.321,2.9489 -2.949,2.9489 z" />
      <path d="m 160.712,29.4879 c -1.628,0 -2.948,-1.3203 -2.948,-2.9489 0,-1.6286 1.32,-2.9488 2.948,-2.9488 1.629,0 2.949,1.3202 2.949,2.9488 0,1.6286 -1.32,2.9489 -2.949,2.9489 z" />
      <path d="m 148.917,29.4879 c -1.629,0 -2.949,-1.3203 -2.949,-2.9489 0,-1.6286 1.32,-2.9488 2.949,-2.9488 1.629,0 2.949,1.3202 2.949,2.9488 0,1.6286 -1.32,2.9489 -2.949,2.9489 z" />
      <path d="m 137.122,29.4879 c -1.629,0 -2.949,-1.3203 -2.949,-2.9489 0,-1.6286 1.32,-2.9488 2.949,-2.9488 1.628,0 2.948,1.3202 2.948,2.9488 0,1.6286 -1.32,2.9489 -2.948,2.9489 z" />
      <path d="m 125.326,29.4879 c -1.628,0 -2.949,-1.3202 -2.949,-2.9489 0,-1.6286 1.321,-2.9488 2.949,-2.9488 1.629,0 2.949,1.3202 2.949,2.9488 0,1.6287 -1.32,2.9489 -2.949,2.9489 z" />
      <path d="m 113.531,29.4879 c -1.629,0 -2.949,-1.3202 -2.949,-2.9489 0,-1.6286 1.32,-2.9488 2.949,-2.9488 1.628,0 2.949,1.3202 2.949,2.9488 0,1.6287 -1.321,2.9489 -2.949,2.9489 z" />
      <path d="m 101.735,29.4879 c -1.628,0 -2.9484,-1.3202 -2.9484,-2.9489 0,-1.6286 1.3204,-2.9488 2.9484,-2.9488 1.629,0 2.949,1.3202 2.949,2.9488 0,1.6287 -1.32,2.9489 -2.949,2.9489 z" />
      <path d="m 89.9401,29.4879 c -1.6286,0 -2.9489,-1.3202 -2.9489,-2.9489 0,-1.6286 1.3203,-2.9488 2.9489,-2.9488 1.6286,0 2.9488,1.3202 2.9488,2.9488 0,1.6287 -1.3202,2.9489 -2.9488,2.9489 z" />
      <path d="m 78.1447,29.4879 c -1.6286,0 -2.9489,-1.3202 -2.9489,-2.9489 0,-1.6286 1.3203,-2.9488 2.9489,-2.9488 1.6286,0 2.9488,1.3202 2.9488,2.9488 0,1.6287 -1.3202,2.9489 -2.9488,2.9489 z" />
      <path d="m 66.3493,29.4879 c -1.6286,0 -2.9489,-1.3202 -2.9489,-2.9488 0,-1.6287 1.3203,-2.9489 2.9489,-2.9489 1.6286,0 2.9488,1.3202 2.9488,2.9489 0,1.6286 -1.3202,2.9488 -2.9488,2.9488 z" />
      <path d="m 54.5539,29.4879 c -1.6286,0 -2.9488,-1.3202 -2.9488,-2.9488 0,-1.6287 1.3202,-2.9489 2.9488,-2.9489 1.6286,0 2.9489,1.3202 2.9489,2.9489 0,1.6286 -1.3203,2.9488 -2.9489,2.9488 z" />
      <path d="m 42.7585,29.4879 c -1.6286,0 -2.9488,-1.3202 -2.9488,-2.9488 0,-1.6287 1.3202,-2.9489 2.9488,-2.9489 1.6286,0 2.9489,1.3202 2.9489,2.9489 0,1.6286 -1.3203,2.9488 -2.9489,2.9488 z" />
      <path d="m 30.9631,29.4879 c -1.6286,0 -2.9488,-1.3202 -2.9488,-2.9488 0,-1.6287 1.3202,-2.9489 2.9488,-2.9489 1.6286,0 2.9489,1.3202 2.9489,2.9489 0,1.6286 -1.3203,2.9488 -2.9489,2.9488 z" />
      <path d="m 19.1678,29.4879 c -1.6286,0 -2.9489,-1.3202 -2.9489,-2.9488 0,-1.6287 1.3203,-2.9489 2.9489,-2.9489 1.6286,0 2.9488,1.3202 2.9488,2.9489 0,1.6286 -1.3202,2.9488 -2.9488,2.9488 z" />
      <path d="m 7.37237,29.4879 c -1.6286,0 -2.94885,-1.3202 -2.94885,-2.9488 0,-1.6286 1.32025,-2.9489 2.94885,-2.9489 1.6286,0 2.94883,1.3202 2.94883,2.9489 0,1.6286 -1.32023,2.9488 -2.94883,2.9488 z" />
      <path d="m -4.42301,29.4879 c -1.62861,0 -2.94885,-1.3202 -2.94885,-2.9488 0,-1.6286 1.32024,-2.9489 2.94884,-2.9489 1.62861,0 2.94885,1.3203 2.94885,2.9489 0,1.6286 -1.32024,2.9488 -2.94884,2.9488 z" />
      <path d="m -16.2184,29.4879 c -1.6286,0 -2.9488,-1.3202 -2.9488,-2.9488 0,-1.6286 1.3202,-2.9489 2.9488,-2.9489 1.6286,0 2.9488,1.3203 2.9488,2.9489 0,1.6286 -1.3202,2.9488 -2.9488,2.9488 z" />
      <path d="m -28.0138,29.4879 c -1.6286,0 -2.9488,-1.3202 -2.9488,-2.9488 0,-1.6286 1.3202,-2.9489 2.9488,-2.9489 1.6286,0 2.9489,1.3203 2.9489,2.9489 0,1.6286 -1.3203,2.9488 -2.9489,2.9488 z" />
      <path d="m -39.8092,29.4879 c -1.6286,0 -2.9488,-1.3202 -2.9488,-2.9488 0,-1.6286 1.3202,-2.9489 2.9488,-2.9489 1.6286,0 2.9489,1.3203 2.9489,2.9489 0,1.6286 -1.3203,2.9488 -2.9489,2.9488 z" />
      <path d="m 196.099,41.2833 c -1.629,0 -2.949,-1.3203 -2.949,-2.9489 0,-1.6286 1.32,-2.9488 2.949,-2.9488 1.628,0 2.948,1.3202 2.948,2.9488 0,1.6286 -1.32,2.9489 -2.948,2.9489 z" />
      <path d="m 184.303,41.2833 c -1.628,0 -2.949,-1.3203 -2.949,-2.9489 0,-1.6286 1.321,-2.9488 2.949,-2.9488 1.629,0 2.949,1.3202 2.949,2.9488 0,1.6286 -1.32,2.9489 -2.949,2.9489 z" />
      <path d="m 172.508,41.2833 c -1.629,0 -2.949,-1.3203 -2.949,-2.9489 0,-1.6286 1.32,-2.9488 2.949,-2.9488 1.628,0 2.949,1.3202 2.949,2.9488 0,1.6286 -1.321,2.9489 -2.949,2.9489 z" />
      <path d="m 160.712,41.2833 c -1.628,0 -2.948,-1.3203 -2.948,-2.9489 0,-1.6286 1.32,-2.9488 2.948,-2.9488 1.629,0 2.949,1.3202 2.949,2.9488 0,1.6286 -1.32,2.9489 -2.949,2.9489 z" />
      <path d="m 148.917,41.2833 c -1.629,0 -2.949,-1.3203 -2.949,-2.9489 0,-1.6286 1.32,-2.9488 2.949,-2.9488 1.629,0 2.949,1.3202 2.949,2.9488 0,1.6286 -1.32,2.9489 -2.949,2.9489 z" />
      <path d="m 137.122,41.2833 c -1.629,0 -2.949,-1.3203 -2.949,-2.9489 0,-1.6286 1.32,-2.9488 2.949,-2.9488 1.628,0 2.948,1.3202 2.948,2.9488 0,1.6286 -1.32,2.9489 -2.948,2.9489 z" />
      <path d="m 125.326,41.2833 c -1.628,0 -2.949,-1.3203 -2.949,-2.9489 0,-1.6286 1.321,-2.9488 2.949,-2.9488 1.629,0 2.949,1.3202 2.949,2.9488 0,1.6286 -1.32,2.9489 -2.949,2.9489 z" />
      <path d="m 113.531,41.2833 c -1.629,0 -2.949,-1.3203 -2.949,-2.9489 0,-1.6286 1.32,-2.9488 2.949,-2.9488 1.628,0 2.949,1.3202 2.949,2.9488 0,1.6286 -1.321,2.9489 -2.949,2.9489 z" />
      <path d="m 101.735,41.2833 c -1.628,0 -2.9484,-1.3203 -2.9484,-2.9489 0,-1.6286 1.3204,-2.9488 2.9484,-2.9488 1.629,0 2.949,1.3202 2.949,2.9488 0,1.6286 -1.32,2.9489 -2.949,2.9489 z" />
      <path d="m 89.9401,41.2833 c -1.6286,0 -2.9489,-1.3203 -2.9489,-2.9489 0,-1.6286 1.3203,-2.9488 2.9489,-2.9488 1.6286,0 2.9488,1.3202 2.9488,2.9488 0,1.6286 -1.3202,2.9489 -2.9488,2.9489 z" />
      <path d="m 78.1447,41.2833 c -1.6286,0 -2.9489,-1.3203 -2.9489,-2.9489 0,-1.6286 1.3203,-2.9488 2.9489,-2.9488 1.6286,0 2.9488,1.3202 2.9488,2.9488 0,1.6286 -1.3202,2.9489 -2.9488,2.9489 z" />
      <path d="m 66.3493,41.2833 c -1.6286,0 -2.9489,-1.3203 -2.9489,-2.9489 0,-1.6286 1.3203,-2.9488 2.9489,-2.9488 1.6286,0 2.9488,1.3202 2.9488,2.9488 0,1.6286 -1.3202,2.9489 -2.9488,2.9489 z" />
      <path d="m 54.5539,41.2833 c -1.6286,0 -2.9488,-1.3203 -2.9488,-2.9489 0,-1.6286 1.3202,-2.9488 2.9488,-2.9488 1.6286,0 2.9489,1.3202 2.9489,2.9488 0,1.6286 -1.3203,2.9489 -2.9489,2.9489 z" />
      <path d="m 42.7585,41.2833 c -1.6286,0 -2.9488,-1.3203 -2.9488,-2.9489 0,-1.6286 1.3202,-2.9488 2.9488,-2.9488 1.6286,0 2.9489,1.3202 2.9489,2.9488 0,1.6286 -1.3203,2.9489 -2.9489,2.9489 z" />
      <path d="m 30.9631,41.2833 c -1.6286,0 -2.9488,-1.3203 -2.9488,-2.9489 0,-1.6286 1.3202,-2.9488 2.9488,-2.9488 1.6286,0 2.9489,1.3202 2.9489,2.9488 0,1.6286 -1.3203,2.9489 -2.9489,2.9489 z" />
      <path d="m 19.1678,41.2833 c -1.6286,0 -2.9489,-1.3203 -2.9489,-2.9489 0,-1.6286 1.3203,-2.9488 2.9489,-2.9488 1.6286,0 2.9488,1.3202 2.9488,2.9488 0,1.6286 -1.3202,2.9489 -2.9488,2.9489 z" />
      <path d="m 7.37237,41.2833 c -1.6286,0 -2.94885,-1.3203 -2.94885,-2.9489 0,-1.6286 1.32025,-2.9488 2.94885,-2.9488 1.6286,0 2.94883,1.3202 2.94883,2.9488 0,1.6286 -1.32023,2.9489 -2.94883,2.9489 z" />
      <path d="m -4.42301,41.2833 c -1.62861,0 -2.94885,-1.3203 -2.94885,-2.9489 0,-1.6286 1.32024,-2.9488 2.94885,-2.9488 1.6286,0 2.94884,1.3202 2.94884,2.9488 0,1.6286 -1.32024,2.9489 -2.94884,2.9489 z" />
      <path d="m -16.2184,41.2833 c -1.6286,0 -2.9488,-1.3203 -2.9488,-2.9489 0,-1.6286 1.3202,-2.9488 2.9488,-2.9488 1.6286,0 2.9488,1.3202 2.9488,2.9488 0,1.6286 -1.3202,2.9489 -2.9488,2.9489 z" />
      <path d="m -28.0138,41.2833 c -1.6286,0 -2.9488,-1.3203 -2.9488,-2.9489 0,-1.6286 1.3202,-2.9488 2.9488,-2.9488 1.6286,0 2.9489,1.3202 2.9489,2.9488 0,1.6286 -1.3203,2.9489 -2.9489,2.9489 z" />
      <path d="m -39.8092,41.2833 c -1.6286,0 -2.9488,-1.3203 -2.9488,-2.9489 0,-1.6286 1.3202,-2.9488 2.9488,-2.9488 1.6286,0 2.9489,1.3202 2.9489,2.9488 0,1.6286 -1.3203,2.9489 -2.9489,2.9489 z" />
      <path d="m 196.099,53.0787 c -1.629,0 -2.949,-1.3203 -2.949,-2.9489 0,-1.6286 1.32,-2.9488 2.949,-2.9488 1.628,0 2.948,1.3202 2.948,2.9488 0,1.6286 -1.32,2.9489 -2.948,2.9489 z" />
      <path d="m 184.303,53.0787 c -1.628,0 -2.949,-1.3203 -2.949,-2.9489 0,-1.6286 1.321,-2.9488 2.949,-2.9488 1.629,0 2.949,1.3202 2.949,2.9488 0,1.6286 -1.32,2.9489 -2.949,2.9489 z" />
      <path d="m 172.508,53.0787 c -1.629,0 -2.949,-1.3203 -2.949,-2.9489 0,-1.6286 1.32,-2.9488 2.949,-2.9488 1.628,0 2.949,1.3202 2.949,2.9488 0,1.6286 -1.321,2.9489 -2.949,2.9489 z" />
      <path d="m 160.712,53.0787 c -1.628,0 -2.948,-1.3203 -2.948,-2.9489 0,-1.6286 1.32,-2.9488 2.948,-2.9488 1.629,0 2.949,1.3202 2.949,2.9488 0,1.6286 -1.32,2.9489 -2.949,2.9489 z" />
      <path d="m 148.917,53.0787 c -1.629,0 -2.949,-1.3203 -2.949,-2.9489 0,-1.6286 1.32,-2.9488 2.949,-2.9488 1.629,0 2.949,1.3202 2.949,2.9488 0,1.6286 -1.32,2.9489 -2.949,2.9489 z" />
      <path d="m 137.122,53.0787 c -1.629,0 -2.949,-1.3203 -2.949,-2.9489 0,-1.6286 1.32,-2.9488 2.949,-2.9488 1.628,0 2.948,1.3202 2.948,2.9488 0,1.6286 -1.32,2.9489 -2.948,2.9489 z" />
      <path d="m 125.326,53.0787 c -1.628,0 -2.949,-1.3203 -2.949,-2.9489 0,-1.6286 1.321,-2.9488 2.949,-2.9488 1.629,0 2.949,1.3202 2.949,2.9488 0,1.6286 -1.32,2.9489 -2.949,2.9489 z" />
      <path d="m 113.531,53.0787 c -1.629,0 -2.949,-1.3203 -2.949,-2.9489 0,-1.6286 1.32,-2.9488 2.949,-2.9488 1.628,0 2.949,1.3202 2.949,2.9488 0,1.6286 -1.321,2.9489 -2.949,2.9489 z" />
      <path d="m 101.735,53.0787 c -1.628,0 -2.9484,-1.3203 -2.9484,-2.9489 0,-1.6286 1.3204,-2.9488 2.9484,-2.9488 1.629,0 2.949,1.3202 2.949,2.9488 0,1.6286 -1.32,2.9489 -2.949,2.9489 z" />
      <path d="m 89.9401,53.0787 c -1.6286,0 -2.9489,-1.3203 -2.9489,-2.9489 0,-1.6286 1.3203,-2.9488 2.9489,-2.9488 1.6286,0 2.9488,1.3202 2.9488,2.9488 0,1.6286 -1.3202,2.9489 -2.9488,2.9489 z" />
      <path d="m 78.1447,53.0787 c -1.6286,0 -2.9489,-1.3203 -2.9489,-2.9489 0,-1.6286 1.3203,-2.9488 2.9489,-2.9488 1.6286,0 2.9488,1.3202 2.9488,2.9488 0,1.6286 -1.3202,2.9489 -2.9488,2.9489 z" />
      <path d="m 66.3493,53.0787 c -1.6286,0 -2.9489,-1.3203 -2.9489,-2.9489 0,-1.6286 1.3203,-2.9488 2.9489,-2.9488 1.6286,0 2.9488,1.3202 2.9488,2.9488 0,1.6286 -1.3202,2.9489 -2.9488,2.9489 z" />
      <path d="m 54.5539,53.0787 c -1.6286,0 -2.9488,-1.3203 -2.9488,-2.9489 0,-1.6286 1.3202,-2.9488 2.9488,-2.9488 1.6286,0 2.9489,1.3202 2.9489,2.9488 0,1.6286 -1.3203,2.9489 -2.9489,2.9489 z" />
      <path d="m 42.7585,53.0787 c -1.6286,0 -2.9488,-1.3203 -2.9488,-2.9489 0,-1.6286 1.3202,-2.9488 2.9488,-2.9488 1.6286,0 2.9489,1.3202 2.9489,2.9488 0,1.6286 -1.3203,2.9489 -2.9489,2.9489 z" />
      <path d="m 30.9631,53.0787 c -1.6286,0 -2.9488,-1.3203 -2.9488,-2.9489 0,-1.6286 1.3202,-2.9488 2.9488,-2.9488 1.6286,0 2.9489,1.3202 2.9489,2.9488 0,1.6286 -1.3203,2.9489 -2.9489,2.9489 z" />
      <path d="m 19.1678,53.0787 c -1.6286,0 -2.9489,-1.3203 -2.9489,-2.9489 0,-1.6286 1.3203,-2.9488 2.9489,-2.9488 1.6286,0 2.9488,1.3202 2.9488,2.9488 0,1.6286 -1.3202,2.9489 -2.9488,2.9489 z" />
      <path d="m 7.37237,53.0787 c -1.6286,0 -2.94885,-1.3203 -2.94885,-2.9489 0,-1.6286 1.32025,-2.9488 2.94885,-2.9488 1.6286,0 2.94883,1.3202 2.94883,2.9488 0,1.6286 -1.32023,2.9489 -2.94883,2.9489 z" />
      <path d="m -4.42301,53.0787 c -1.62861,0 -2.94885,-1.3203 -2.94885,-2.9489 0,-1.6286 1.32024,-2.9488 2.94885,-2.9488 1.6286,0 2.94884,1.3202 2.94884,2.9488 0,1.6286 -1.32024,2.9489 -2.94884,2.9489 z" />
      <path d="m -16.2184,53.0787 c -1.6286,0 -2.9488,-1.3203 -2.9488,-2.9489 0,-1.6286 1.3202,-2.9488 2.9488,-2.9488 1.6286,0 2.9488,1.3202 2.9488,2.9488 0,1.6286 -1.3202,2.9489 -2.9488,2.9489 z" />
      <path d="m -28.0138,53.0787 c -1.6286,0 -2.9488,-1.3203 -2.9488,-2.9489 0,-1.6286 1.3202,-2.9488 2.9488,-2.9488 1.6286,0 2.9489,1.3202 2.9489,2.9488 0,1.6286 -1.3203,2.9489 -2.9489,2.9489 z" />
      <path d="m -39.8092,53.0787 c -1.6286,0 -2.9488,-1.3203 -2.9488,-2.9489 0,-1.6286 1.3202,-2.9488 2.9488,-2.9488 1.6286,0 2.9489,1.3202 2.9489,2.9488 0,1.6286 -1.3203,2.9489 -2.9489,2.9489 z" />
      <path d="m 196.099,64.874 c -1.629,0 -2.949,-1.3202 -2.949,-2.9488 0,-1.6286 1.32,-2.9489 2.949,-2.9489 1.628,0 2.948,1.3203 2.948,2.9489 0,1.6286 -1.32,2.9488 -2.948,2.9488 z" />
      <path d="m 184.303,64.874 c -1.628,0 -2.949,-1.3202 -2.949,-2.9488 0,-1.6286 1.321,-2.9489 2.949,-2.9489 1.629,0 2.949,1.3203 2.949,2.9489 0,1.6286 -1.32,2.9488 -2.949,2.9488 z" />
      <path d="m 172.508,64.874 c -1.629,0 -2.949,-1.3202 -2.949,-2.9488 0,-1.6286 1.32,-2.9488 2.949,-2.9488 1.628,-10e-5 2.949,1.3202 2.949,2.9488 0,1.6286 -1.321,2.9488 -2.949,2.9488 z" />
      <path d="m 160.712,64.874 c -1.628,0 -2.948,-1.3202 -2.948,-2.9488 0,-1.6286 1.32,-2.9488 2.948,-2.9488 1.629,0 2.949,1.3202 2.949,2.9488 0,1.6286 -1.32,2.9488 -2.949,2.9488 z" />
      <path d="m 148.917,64.874 c -1.629,0 -2.949,-1.3202 -2.949,-2.9488 0,-1.6286 1.32,-2.9488 2.949,-2.9488 1.629,0 2.949,1.3202 2.949,2.9488 0,1.6286 -1.32,2.9488 -2.949,2.9488 z" />
      <path d="m 137.122,64.874 c -1.629,0 -2.949,-1.3202 -2.949,-2.9488 0,-1.6286 1.32,-2.9488 2.949,-2.9488 1.628,0 2.948,1.3202 2.948,2.9488 0,1.6286 -1.32,2.9488 -2.948,2.9488 z" />
      <path d="m 125.326,64.874 c -1.628,0 -2.949,-1.3202 -2.949,-2.9488 0,-1.6286 1.321,-2.9488 2.949,-2.9488 1.629,0 2.949,1.3202 2.949,2.9488 0,1.6286 -1.32,2.9488 -2.949,2.9488 z" />
      <path d="m 113.531,64.874 c -1.629,0 -2.949,-1.3202 -2.949,-2.9488 0,-1.6286 1.32,-2.9488 2.949,-2.9488 1.628,0 2.949,1.3202 2.949,2.9488 0,1.6286 -1.321,2.9488 -2.949,2.9488 z" />
      <path d="m 101.735,64.874 c -1.628,0 -2.9484,-1.3202 -2.9484,-2.9488 0,-1.6286 1.3204,-2.9488 2.9484,-2.9488 1.629,0 2.949,1.3202 2.949,2.9488 0,1.6286 -1.32,2.9488 -2.949,2.9488 z" />
      <path d="m 89.9401,64.874 c -1.6286,0 -2.9489,-1.3202 -2.9489,-2.9488 0,-1.6286 1.3203,-2.9488 2.9489,-2.9488 1.6286,0 2.9488,1.3202 2.9488,2.9488 0,1.6286 -1.3202,2.9488 -2.9488,2.9488 z" />
      <path d="m 78.1447,64.874 c -1.6286,0 -2.9489,-1.3202 -2.9489,-2.9488 0,-1.6286 1.3203,-2.9488 2.9489,-2.9488 1.6286,0 2.9488,1.3202 2.9488,2.9488 0,1.6286 -1.3202,2.9488 -2.9488,2.9488 z" />
      <path d="m 66.3493,64.874 c -1.6286,0 -2.9489,-1.3202 -2.9489,-2.9488 0,-1.6286 1.3203,-2.9488 2.9489,-2.9488 1.6286,0 2.9488,1.3202 2.9488,2.9488 0,1.6286 -1.3202,2.9488 -2.9488,2.9488 z" />
      <path d="m 54.5539,64.874 c -1.6286,0 -2.9488,-1.3202 -2.9488,-2.9488 0,-1.6286 1.3202,-2.9488 2.9488,-2.9488 1.6286,0 2.9489,1.3202 2.9489,2.9488 0,1.6286 -1.3203,2.9488 -2.9489,2.9488 z" />
      <path d="m 42.7585,64.874 c -1.6286,0 -2.9488,-1.3202 -2.9488,-2.9488 0,-1.6286 1.3202,-2.9488 2.9488,-2.9488 1.6286,0 2.9489,1.3202 2.9489,2.9488 0,1.6286 -1.3203,2.9488 -2.9489,2.9488 z" />
      <path d="m 30.9631,64.874 c -1.6286,0 -2.9488,-1.3202 -2.9488,-2.9488 0,-1.6286 1.3202,-2.9488 2.9488,-2.9488 1.6286,0 2.9489,1.3202 2.9489,2.9488 0,1.6286 -1.3203,2.9488 -2.9489,2.9488 z" />
      <path d="m 19.1678,64.874 c -1.6286,0 -2.9489,-1.3202 -2.9489,-2.9488 0,-1.6286 1.3203,-2.9488 2.9489,-2.9488 1.6286,0 2.9488,1.3202 2.9488,2.9488 0,1.6286 -1.3202,2.9488 -2.9488,2.9488 z" />
      <path d="m 7.37237,64.874 c -1.6286,0 -2.94885,-1.3202 -2.94885,-2.9488 0,-1.6286 1.32025,-2.9488 2.94885,-2.9488 1.6286,0 2.94883,1.3202 2.94883,2.9488 0,1.6286 -1.32023,2.9488 -2.94883,2.9488 z" />
      <path d="m -4.42301,64.874 c -1.62861,0 -2.94885,-1.3202 -2.94885,-2.9488 0,-1.6286 1.32024,-2.9488 2.94885,-2.9488 1.6286,0 2.94884,1.3202 2.94884,2.9488 0,1.6286 -1.32024,2.9488 -2.94884,2.9488 z" />
      <path d="m -16.2184,64.8741 c -1.6286,0 -2.9488,-1.3203 -2.9488,-2.9489 0,-1.6286 1.3202,-2.9488 2.9488,-2.9488 1.6286,0 2.9488,1.3202 2.9488,2.9488 0,1.6286 -1.3202,2.9488 -2.9488,2.9489 z" />
      <path d="m -28.0138,64.8741 c -1.6286,0 -2.9488,-1.3203 -2.9488,-2.9489 0,-1.6286 1.3202,-2.9488 2.9488,-2.9488 1.6286,0 2.9489,1.3202 2.9489,2.9488 0,1.6286 -1.3203,2.9489 -2.9489,2.9489 z" />
      <path d="m -39.8092,64.8741 c -1.6286,0 -2.9488,-1.3203 -2.9488,-2.9489 0,-1.6286 1.3202,-2.9488 2.9488,-2.9488 1.6286,0 2.9489,1.3202 2.9489,2.9488 0,1.6286 -1.3203,2.9489 -2.9489,2.9489 z" />
      <path d="m 196.099,76.6694 c -1.629,0 -2.949,-1.3202 -2.949,-2.9488 0,-1.6286 1.32,-2.9489 2.949,-2.9489 1.628,0 2.948,1.3203 2.948,2.9489 0,1.6286 -1.32,2.9488 -2.948,2.9488 z" />
      <path d="m 184.303,76.6694 c -1.628,0 -2.949,-1.3202 -2.949,-2.9488 0,-1.6286 1.321,-2.9489 2.949,-2.9489 1.629,0 2.949,1.3203 2.949,2.9489 0,1.6286 -1.32,2.9488 -2.949,2.9488 z" />
      <path d="m 172.508,76.6694 c -1.629,0 -2.949,-1.3202 -2.949,-2.9488 0,-1.6286 1.32,-2.9489 2.949,-2.9489 1.628,0 2.949,1.3203 2.949,2.9489 0,1.6286 -1.321,2.9488 -2.949,2.9488 z" />
      <path d="m 160.712,76.6694 c -1.628,0 -2.948,-1.3202 -2.948,-2.9488 0,-1.6286 1.32,-2.9489 2.948,-2.9489 1.629,0 2.949,1.3203 2.949,2.9489 0,1.6286 -1.32,2.9488 -2.949,2.9488 z" />
      <path d="m 148.917,76.6694 c -1.629,0 -2.949,-1.3202 -2.949,-2.9488 0,-1.6286 1.32,-2.9489 2.949,-2.9489 1.629,0 2.949,1.3203 2.949,2.9489 0,1.6286 -1.32,2.9488 -2.949,2.9488 z" />
      <path d="m 137.122,76.6694 c -1.629,0 -2.949,-1.3202 -2.949,-2.9488 0,-1.6286 1.32,-2.9489 2.949,-2.9489 1.628,0 2.948,1.3203 2.948,2.9489 0,1.6286 -1.32,2.9488 -2.948,2.9488 z" />
      <path d="m 125.326,76.6694 c -1.628,0 -2.949,-1.3202 -2.949,-2.9488 0,-1.6286 1.321,-2.9489 2.949,-2.9489 1.629,0 2.949,1.3203 2.949,2.9489 0,1.6286 -1.32,2.9488 -2.949,2.9488 z" />
      <path d="m 113.531,76.6694 c -1.629,0 -2.949,-1.3202 -2.949,-2.9488 0,-1.6286 1.32,-2.9489 2.949,-2.9489 1.628,0 2.949,1.3203 2.949,2.9489 0,1.6286 -1.321,2.9488 -2.949,2.9488 z" />
      <path d="m 101.735,76.6694 c -1.628,0 -2.9484,-1.3202 -2.9484,-2.9488 0,-1.6286 1.3204,-2.9489 2.9484,-2.9489 1.629,0 2.949,1.3203 2.949,2.9489 0,1.6286 -1.32,2.9488 -2.949,2.9488 z" />
      <path d="m 89.9401,76.6694 c -1.6286,0 -2.9489,-1.3202 -2.9489,-2.9488 0,-1.6286 1.3203,-2.9489 2.9489,-2.9489 1.6286,0 2.9488,1.3203 2.9488,2.9489 0,1.6286 -1.3202,2.9488 -2.9488,2.9488 z" />
      <path d="m 78.1447,76.6694 c -1.6286,0 -2.9489,-1.3202 -2.9489,-2.9488 0,-1.6286 1.3203,-2.9489 2.9489,-2.9489 1.6286,0 2.9488,1.3203 2.9488,2.9489 0,1.6286 -1.3202,2.9488 -2.9488,2.9488 z" />
      <path d="m 66.3493,76.6694 c -1.6286,0 -2.9489,-1.3202 -2.9489,-2.9488 0,-1.6286 1.3203,-2.9489 2.9489,-2.9489 1.6286,0 2.9488,1.3203 2.9488,2.9489 0,1.6286 -1.3202,2.9488 -2.9488,2.9488 z" />
      <path d="m 54.5539,76.6694 c -1.6286,0 -2.9488,-1.3202 -2.9488,-2.9488 0,-1.6286 1.3202,-2.9489 2.9488,-2.9489 1.6286,0 2.9489,1.3203 2.9489,2.9489 0,1.6286 -1.3203,2.9488 -2.9489,2.9488 z" />
      <path d="m 42.7585,76.6694 c -1.6286,0 -2.9488,-1.3202 -2.9488,-2.9488 0,-1.6286 1.3202,-2.9489 2.9488,-2.9489 1.6286,0 2.9489,1.3203 2.9489,2.9489 0,1.6286 -1.3203,2.9488 -2.9489,2.9488 z" />
      <path d="m 30.9631,76.6694 c -1.6286,0 -2.9488,-1.3202 -2.9488,-2.9488 0,-1.6286 1.3202,-2.9489 2.9488,-2.9489 1.6286,0 2.9489,1.3203 2.9489,2.9489 0,1.6286 -1.3203,2.9488 -2.9489,2.9488 z" />
      <path d="m 19.1678,76.6694 c -1.6286,0 -2.9489,-1.3202 -2.9489,-2.9488 0,-1.6286 1.3203,-2.9489 2.9489,-2.9489 1.6286,0 2.9488,1.3203 2.9488,2.9489 0,1.6286 -1.3202,2.9488 -2.9488,2.9488 z" />
      <path d="m 7.37237,76.6694 c -1.6286,0 -2.94884,-1.3202 -2.94884,-2.9488 0,-1.6286 1.32024,-2.9489 2.94884,-2.9489 1.6286,0 2.94883,1.3203 2.94883,2.9489 0,1.6286 -1.32023,2.9488 -2.94883,2.9488 z" />
      <path d="m -4.42301,76.6694 c -1.62861,0 -2.94885,-1.3202 -2.94885,-2.9488 0,-1.6286 1.32024,-2.9489 2.94885,-2.9489 1.6286,0 2.94884,1.3203 2.94884,2.9489 0,1.6286 -1.32024,2.9488 -2.94884,2.9488 z" />
      <path d="m -16.2184,76.6694 c -1.6286,0 -2.9488,-1.3202 -2.9488,-2.9488 0,-1.6286 1.3202,-2.9489 2.9488,-2.9489 1.6286,0 2.9488,1.3203 2.9488,2.9489 0,1.6286 -1.3202,2.9488 -2.9488,2.9488 z" />
      <path d="m -28.0138,76.6694 c -1.6286,0 -2.9488,-1.3202 -2.9488,-2.9488 0,-1.6286 1.3202,-2.9489 2.9488,-2.9489 1.6286,0 2.9489,1.3203 2.9489,2.9489 0,1.6286 -1.3203,2.9488 -2.9489,2.9488 z" />
      <path d="m -39.8092,76.6694 c -1.6286,0 -2.9488,-1.3202 -2.9488,-2.9488 0,-1.6286 1.3202,-2.9489 2.9488,-2.9489 1.6286,0 2.9489,1.3203 2.9489,2.9489 0,1.6286 -1.3203,2.9488 -2.9489,2.9488 z" />
      <path d="m 196.099,88.4648 c -1.629,0 -2.949,-1.3202 -2.949,-2.9488 0,-1.6286 1.32,-2.9489 2.949,-2.9489 1.628,0 2.948,1.3203 2.948,2.9489 0,1.6286 -1.32,2.9488 -2.948,2.9488 z" />
      <path d="m 184.303,88.4648 c -1.628,0 -2.949,-1.3202 -2.949,-2.9488 0,-1.6286 1.321,-2.9489 2.949,-2.9489 1.629,0 2.949,1.3203 2.949,2.9489 0,1.6286 -1.32,2.9488 -2.949,2.9488 z" />
      <path d="m 172.508,88.4648 c -1.629,0 -2.949,-1.3202 -2.949,-2.9488 0,-1.6286 1.32,-2.9489 2.949,-2.9489 1.628,0 2.949,1.3203 2.949,2.9489 0,1.6286 -1.321,2.9488 -2.949,2.9488 z" />
      <path d="m 160.712,88.4648 c -1.628,0 -2.948,-1.3202 -2.948,-2.9488 0,-1.6286 1.32,-2.9489 2.948,-2.9489 1.629,0 2.949,1.3203 2.949,2.9489 0,1.6286 -1.32,2.9488 -2.949,2.9488 z" />
      <path d="m 148.917,88.4648 c -1.629,0 -2.949,-1.3202 -2.949,-2.9488 0,-1.6286 1.32,-2.9489 2.949,-2.9489 1.629,0 2.949,1.3203 2.949,2.9489 0,1.6286 -1.32,2.9488 -2.949,2.9488 z" />
      <path d="m 137.122,88.4648 c -1.629,0 -2.949,-1.3202 -2.949,-2.9488 0,-1.6286 1.32,-2.9489 2.949,-2.9489 1.628,0 2.948,1.3203 2.948,2.9489 0,1.6286 -1.32,2.9488 -2.948,2.9488 z" />
      <path d="m 125.326,88.4648 c -1.628,0 -2.949,-1.3202 -2.949,-2.9488 0,-1.6286 1.321,-2.9489 2.949,-2.9489 1.629,0 2.949,1.3203 2.949,2.9489 0,1.6286 -1.32,2.9488 -2.949,2.9488 z" />
      <path d="m 113.531,88.4648 c -1.629,0 -2.949,-1.3202 -2.949,-2.9488 0,-1.6286 1.32,-2.9489 2.949,-2.9489 1.628,0 2.949,1.3203 2.949,2.9489 0,1.6286 -1.321,2.9488 -2.949,2.9488 z" />
      <path d="m 101.735,88.4648 c -1.628,0 -2.9484,-1.3202 -2.9484,-2.9488 0,-1.6286 1.3204,-2.9489 2.9484,-2.9489 1.629,0 2.949,1.3203 2.949,2.9489 0,1.6286 -1.32,2.9488 -2.949,2.9488 z" />
      <path d="m 89.9401,88.4648 c -1.6286,0 -2.9489,-1.3202 -2.9489,-2.9488 0,-1.6286 1.3203,-2.9489 2.9489,-2.9489 1.6286,0 2.9488,1.3203 2.9488,2.9489 0,1.6286 -1.3202,2.9488 -2.9488,2.9488 z" />
      <path d="m 78.1447,88.4648 c -1.6286,0 -2.9489,-1.3202 -2.9489,-2.9488 0,-1.6286 1.3203,-2.9489 2.9489,-2.9489 1.6286,0 2.9488,1.3203 2.9488,2.9489 0,1.6286 -1.3202,2.9488 -2.9488,2.9488 z" />
      <path d="m 66.3493,88.4648 c -1.6286,0 -2.9489,-1.3202 -2.9489,-2.9488 0,-1.6286 1.3203,-2.9489 2.9489,-2.9489 1.6286,0 2.9488,1.3203 2.9488,2.9489 0,1.6286 -1.3202,2.9488 -2.9488,2.9488 z" />
      <path d="m 54.5539,88.4648 c -1.6286,0 -2.9488,-1.3202 -2.9488,-2.9488 0,-1.6286 1.3202,-2.9489 2.9488,-2.9489 1.6286,0 2.9489,1.3203 2.9489,2.9489 0,1.6286 -1.3203,2.9488 -2.9489,2.9488 z" />
      <path d="m 42.7585,88.4648 c -1.6286,0 -2.9488,-1.3202 -2.9488,-2.9488 0,-1.6286 1.3202,-2.9489 2.9488,-2.9489 1.6286,0 2.9489,1.3203 2.9489,2.9489 0,1.6286 -1.3203,2.9488 -2.9489,2.9488 z" />
      <path d="m 30.9631,88.4648 c -1.6286,0 -2.9488,-1.3202 -2.9488,-2.9488 0,-1.6286 1.3202,-2.9489 2.9488,-2.9489 1.6286,0 2.9489,1.3203 2.9489,2.9489 0,1.6286 -1.3203,2.9488 -2.9489,2.9488 z" />
      <path d="m 19.1678,88.4648 c -1.6286,0 -2.9489,-1.3202 -2.9489,-2.9488 0,-1.6286 1.3203,-2.9489 2.9489,-2.9489 1.6286,0 2.9488,1.3203 2.9488,2.9489 0,1.6286 -1.3202,2.9488 -2.9488,2.9488 z" />
      <path d="m 7.37237,88.4648 c -1.6286,0 -2.94884,-1.3202 -2.94884,-2.9488 0,-1.6286 1.32024,-2.9489 2.94884,-2.9489 1.6286,0 2.94883,1.3203 2.94883,2.9489 0,1.6286 -1.32023,2.9488 -2.94883,2.9488 z" />
      <path d="m -4.42301,88.4648 c -1.62861,0 -2.94885,-1.3202 -2.94885,-2.9488 0,-1.6286 1.32024,-2.9489 2.94885,-2.9489 1.6286,0 2.94884,1.3203 2.94884,2.9489 0,1.6286 -1.32024,2.9488 -2.94884,2.9488 z" />
      <path d="m -16.2184,88.4648 c -1.6286,0 -2.9488,-1.3202 -2.9488,-2.9488 0,-1.6286 1.3202,-2.9489 2.9488,-2.9489 1.6286,0 2.9488,1.3203 2.9488,2.9489 0,1.6286 -1.3202,2.9488 -2.9488,2.9488 z" />
      <path d="m -28.0138,88.4648 c -1.6286,0 -2.9488,-1.3202 -2.9488,-2.9488 0,-1.6286 1.3202,-2.9489 2.9488,-2.9489 1.6286,0 2.9489,1.3203 2.9489,2.9489 0,1.6286 -1.3203,2.9488 -2.9489,2.9488 z" />
      <path d="m -39.8092,88.4648 c -1.6286,0 -2.9488,-1.3202 -2.9488,-2.9488 0,-1.6286 1.3202,-2.9489 2.9488,-2.9489 1.6286,0 2.9489,1.3203 2.9489,2.9489 0,1.6286 -1.3203,2.9488 -2.9489,2.9488 z" />
      <path d="m 196.099,100.26 c -1.629,0 -2.949,-1.3201 -2.949,-2.9487 0,-1.6286 1.32,-2.9488 2.949,-2.9488 1.628,0 2.948,1.3202 2.948,2.9488 0,1.6286 -1.32,2.9487 -2.948,2.9487 z" />
      <path d="m 184.303,100.26 c -1.628,0 -2.949,-1.3201 -2.949,-2.9487 0,-1.6286 1.321,-2.9488 2.949,-2.9488 1.629,0 2.949,1.3202 2.949,2.9488 0,1.6286 -1.32,2.9487 -2.949,2.9487 z" />
      <path d="m 172.508,100.26 c -1.629,0 -2.949,-1.3201 -2.949,-2.9487 0,-1.6286 1.32,-2.9488 2.949,-2.9488 1.628,0 2.949,1.3202 2.949,2.9488 0,1.6286 -1.321,2.9487 -2.949,2.9487 z" />
      <path d="m 160.712,100.26 c -1.628,0 -2.948,-1.3201 -2.948,-2.9487 0,-1.6286 1.32,-2.9488 2.948,-2.9488 1.629,0 2.949,1.3202 2.949,2.9488 0,1.6286 -1.32,2.9487 -2.949,2.9487 z" />
      <path d="m 148.917,100.26 c -1.629,0 -2.949,-1.32 -2.949,-2.9487 0,-1.6286 1.32,-2.9488 2.949,-2.9488 1.629,0 2.949,1.3202 2.949,2.9488 0,1.6286 -1.32,2.9487 -2.949,2.9487 z" />
      <path d="m 137.122,100.26 c -1.629,0 -2.949,-1.32 -2.949,-2.9487 0,-1.6286 1.32,-2.9488 2.949,-2.9488 1.628,0 2.948,1.3202 2.948,2.9488 0,1.6287 -1.32,2.9487 -2.948,2.9487 z" />
      <path d="m 125.326,100.26 c -1.628,0 -2.949,-1.32 -2.949,-2.9487 0,-1.6286 1.321,-2.9488 2.949,-2.9488 1.629,0 2.949,1.3202 2.949,2.9488 0,1.6287 -1.32,2.9487 -2.949,2.9487 z" />
      <path d="m 113.531,100.26 c -1.629,0 -2.949,-1.32 -2.949,-2.9487 0,-1.6286 1.32,-2.9488 2.949,-2.9488 1.628,0 2.949,1.3202 2.949,2.9488 0,1.6287 -1.321,2.9487 -2.949,2.9487 z" />
      <path d="m 101.735,100.26 c -1.628,0 -2.9484,-1.32 -2.9484,-2.9487 0,-1.6286 1.3204,-2.9488 2.9484,-2.9488 1.629,0 2.949,1.3202 2.949,2.9488 0,1.6287 -1.32,2.9487 -2.949,2.9487 z" />
      <path d="m 89.9401,100.26 c -1.6286,0 -2.9489,-1.32 -2.9489,-2.9487 0,-1.6286 1.3203,-2.9488 2.9489,-2.9488 1.6286,0 2.9488,1.3202 2.9488,2.9488 0,1.6287 -1.3202,2.9487 -2.9488,2.9487 z" />
      <path d="m 78.1447,100.26 c -1.6286,0 -2.9489,-1.32 -2.9489,-2.9486 0,-1.6287 1.3203,-2.9489 2.9489,-2.9489 1.6286,0 2.9488,1.3202 2.9488,2.9489 0,1.6286 -1.3202,2.9486 -2.9488,2.9486 z" />
      <path d="m 66.3493,100.26 c -1.6286,0 -2.9489,-1.32 -2.9489,-2.9486 0,-1.6287 1.3203,-2.9489 2.9489,-2.9489 1.6286,0 2.9488,1.3202 2.9488,2.9489 0,1.6286 -1.3202,2.9486 -2.9488,2.9486 z" />
      <path d="m 54.5539,100.26 c -1.6286,0 -2.9488,-1.32 -2.9488,-2.9486 0,-1.6287 1.3202,-2.9489 2.9488,-2.9489 1.6286,0 2.9489,1.3202 2.9489,2.9489 0,1.6286 -1.3203,2.9486 -2.9489,2.9486 z" />
      <path d="m 42.7585,100.26 c -1.6286,0 -2.9488,-1.32 -2.9488,-2.9486 0,-1.6287 1.3202,-2.9489 2.9488,-2.9489 1.6286,0 2.9489,1.3202 2.9489,2.9489 0,1.6286 -1.3203,2.9486 -2.9489,2.9486 z" />
      <path d="m 30.9631,100.26 c -1.6286,0 -2.9488,-1.32 -2.9488,-2.9486 0,-1.6287 1.3202,-2.9489 2.9488,-2.9489 1.6286,0 2.9489,1.3202 2.9489,2.9489 0,1.6286 -1.3203,2.9486 -2.9489,2.9486 z" />
      <path d="m 19.1678,100.26 c -1.6286,0 -2.9489,-1.32 -2.9489,-2.9486 0,-1.6286 1.3203,-2.9489 2.9489,-2.9489 1.6286,0 2.9488,1.3203 2.9488,2.9489 0,1.6286 -1.3202,2.9486 -2.9488,2.9486 z" />
      <path d="m 7.37237,100.26 c -1.6286,0 -2.94884,-1.32 -2.94884,-2.9486 0,-1.6286 1.32024,-2.9489 2.94884,-2.9489 1.62861,0 2.94883,1.3203 2.94883,2.9489 0,1.6286 -1.32022,2.9486 -2.94883,2.9486 z" />
      <path d="m -4.42301,100.26 c -1.6286,0 -2.94885,-1.32 -2.94885,-2.9486 0,-1.6286 1.32025,-2.9489 2.94885,-2.9489 1.6286,0 2.94884,1.3203 2.94884,2.9489 0,1.6286 -1.32024,2.9486 -2.94884,2.9486 z" />
      <path d="m -16.2184,100.26 c -1.6286,0 -2.9488,-1.32 -2.9488,-2.9486 0,-1.6286 1.3202,-2.9489 2.9488,-2.9489 1.6286,0 2.9488,1.3203 2.9488,2.9489 0,1.6286 -1.3202,2.9486 -2.9488,2.9486 z" />
      <path d="m -28.0138,100.26 c -1.6286,0 -2.9488,-1.32 -2.9488,-2.9486 0,-1.6286 1.3202,-2.9489 2.9488,-2.9489 1.6286,0 2.9489,1.3203 2.9489,2.9489 0,1.6286 -1.3203,2.9486 -2.9489,2.9486 z" />
      <path d="m -39.8092,100.26 c -1.6286,0 -2.9488,-1.32 -2.9488,-2.9486 0,-1.6286 1.3202,-2.9489 2.9488,-2.9489 1.6286,0 2.9489,1.3203 2.9489,2.9489 0,1.6286 -1.3203,2.9486 -2.9489,2.9486 z" />
      <path d="m 196.099,112.056 c -1.629,0 -2.949,-1.321 -2.949,-2.949 0,-1.629 1.32,-2.949 2.949,-2.949 1.628,0 2.948,1.32 2.948,2.949 0,1.628 -1.32,2.949 -2.948,2.949 z" />
      <path d="m 184.303,112.056 c -1.628,0 -2.949,-1.321 -2.949,-2.949 0,-1.629 1.321,-2.949 2.949,-2.949 1.629,0 2.949,1.32 2.949,2.949 0,1.628 -1.32,2.949 -2.949,2.949 z" />
      <path d="m 172.508,112.056 c -1.629,0 -2.949,-1.321 -2.949,-2.949 0,-1.629 1.32,-2.949 2.949,-2.949 1.628,0 2.949,1.32 2.949,2.949 0,1.628 -1.321,2.949 -2.949,2.949 z" />
      <path d="m 160.712,112.056 c -1.628,0 -2.948,-1.321 -2.948,-2.949 0,-1.629 1.32,-2.949 2.948,-2.949 1.629,0 2.949,1.32 2.949,2.949 0,1.628 -1.32,2.949 -2.949,2.949 z" />
      <path d="m 148.917,112.056 c -1.629,0 -2.949,-1.321 -2.949,-2.949 0,-1.629 1.32,-2.949 2.949,-2.949 1.629,0 2.949,1.32 2.949,2.949 0,1.628 -1.32,2.949 -2.949,2.949 z" />
      <path d="m 137.122,112.056 c -1.629,0 -2.949,-1.321 -2.949,-2.949 0,-1.629 1.32,-2.949 2.949,-2.949 1.628,0 2.948,1.32 2.948,2.949 0,1.628 -1.32,2.949 -2.948,2.949 z" />
      <path d="m 125.326,112.056 c -1.628,0 -2.949,-1.321 -2.949,-2.949 0,-1.629 1.321,-2.949 2.949,-2.949 1.629,0 2.949,1.32 2.949,2.949 0,1.628 -1.32,2.949 -2.949,2.949 z" />
      <path d="m 113.531,112.056 c -1.629,0 -2.949,-1.321 -2.949,-2.949 0,-1.629 1.32,-2.949 2.949,-2.949 1.628,0 2.949,1.32 2.949,2.949 0,1.628 -1.321,2.949 -2.949,2.949 z" />
      <path d="m 101.735,112.056 c -1.628,0 -2.9484,-1.321 -2.9484,-2.949 0,-1.629 1.3204,-2.949 2.9484,-2.949 1.629,0 2.949,1.32 2.949,2.949 0,1.628 -1.32,2.949 -2.949,2.949 z" />
      <path d="m 89.9401,112.056 c -1.6286,0 -2.9489,-1.321 -2.9489,-2.949 0,-1.629 1.3203,-2.949 2.9489,-2.949 1.6286,0 2.9488,1.32 2.9488,2.949 0,1.628 -1.3202,2.949 -2.9488,2.949 z" />
      <path d="m 78.1447,112.056 c -1.6286,0 -2.9489,-1.321 -2.9489,-2.949 0,-1.629 1.3203,-2.949 2.9489,-2.949 1.6286,0 2.9488,1.32 2.9488,2.949 0,1.628 -1.3202,2.949 -2.9488,2.949 z" />
      <path d="m 66.3493,112.056 c -1.6286,0 -2.9489,-1.321 -2.9489,-2.949 0,-1.629 1.3203,-2.949 2.9489,-2.949 1.6286,0 2.9488,1.32 2.9488,2.949 0,1.628 -1.3202,2.949 -2.9488,2.949 z" />
      <path d="m 54.5539,112.056 c -1.6286,0 -2.9488,-1.321 -2.9488,-2.949 0,-1.629 1.3202,-2.949 2.9488,-2.949 1.6286,0 2.9489,1.32 2.9489,2.949 0,1.628 -1.3203,2.949 -2.9489,2.949 z" />
      <path d="m 42.7585,112.056 c -1.6286,0 -2.9488,-1.321 -2.9488,-2.949 0,-1.629 1.3202,-2.949 2.9488,-2.949 1.6286,0 2.9489,1.32 2.9489,2.949 0,1.628 -1.3203,2.949 -2.9489,2.949 z" />
      <path d="m 30.9631,112.056 c -1.6286,0 -2.9488,-1.321 -2.9488,-2.949 0,-1.629 1.3202,-2.949 2.9488,-2.949 1.6286,0 2.9489,1.32 2.9489,2.949 0,1.628 -1.3203,2.949 -2.9489,2.949 z" />
      <path d="m 19.1678,112.056 c -1.6286,0 -2.9489,-1.321 -2.9489,-2.949 0,-1.629 1.3203,-2.949 2.9489,-2.949 1.6286,0 2.9488,1.32 2.9488,2.949 0,1.628 -1.3202,2.949 -2.9488,2.949 z" />
      <path d="m 7.37237,112.056 c -1.6286,0 -2.94884,-1.321 -2.94884,-2.949 0,-1.629 1.32024,-2.949 2.94884,-2.949 1.62861,0 2.94883,1.32 2.94883,2.949 0,1.628 -1.32022,2.949 -2.94883,2.949 z" />
      <path d="m -4.42301,112.056 c -1.6286,0 -2.94885,-1.321 -2.94885,-2.949 0,-1.629 1.32025,-2.949 2.94885,-2.949 1.6286,0 2.94884,1.32 2.94884,2.949 0,1.628 -1.32024,2.949 -2.94884,2.949 z" />
      <path d="m -16.2184,112.056 c -1.6286,0 -2.9488,-1.321 -2.9488,-2.949 0,-1.629 1.3202,-2.949 2.9488,-2.949 1.6286,0 2.9489,1.32 2.9489,2.949 0,1.628 -1.3203,2.949 -2.9489,2.949 z" />
      <path d="m -28.0138,112.056 c -1.6286,0 -2.9488,-1.321 -2.9488,-2.949 0,-1.629 1.3202,-2.949 2.9488,-2.949 1.6286,0 2.9489,1.32 2.9489,2.949 0,1.628 -1.3203,2.949 -2.9489,2.949 z" />
      <path d="m -39.8092,112.056 c -1.6286,0 -2.9488,-1.321 -2.9488,-2.949 0,-1.629 1.3202,-2.949 2.9488,-2.949 1.6286,0 2.9489,1.32 2.9489,2.949 0,1.628 -1.3203,2.949 -2.9489,2.949 z" />
      <path d="m 196.099,123.851 c -1.629,0 -2.949,-1.32 -2.949,-2.949 0,-1.628 1.32,-2.949 2.949,-2.949 1.628,0 2.948,1.321 2.948,2.949 0,1.629 -1.32,2.949 -2.948,2.949 z" />
      <path d="m 184.303,123.851 c -1.628,0 -2.949,-1.32 -2.949,-2.949 0,-1.628 1.321,-2.949 2.949,-2.949 1.629,0 2.949,1.321 2.949,2.949 0,1.629 -1.32,2.949 -2.949,2.949 z" />
      <path d="m 172.508,123.851 c -1.629,0 -2.949,-1.32 -2.949,-2.949 0,-1.628 1.32,-2.949 2.949,-2.949 1.628,0 2.949,1.321 2.949,2.949 0,1.629 -1.321,2.949 -2.949,2.949 z" />
      <path d="m 160.712,123.851 c -1.628,0 -2.948,-1.32 -2.948,-2.949 0,-1.628 1.32,-2.949 2.948,-2.949 1.629,0 2.949,1.321 2.949,2.949 0,1.629 -1.32,2.949 -2.949,2.949 z" />
      <path d="m 148.917,123.851 c -1.629,0 -2.949,-1.32 -2.949,-2.949 0,-1.628 1.32,-2.949 2.949,-2.949 1.629,0 2.949,1.321 2.949,2.949 0,1.629 -1.32,2.949 -2.949,2.949 z" />
      <path d="m 137.122,123.851 c -1.629,0 -2.949,-1.32 -2.949,-2.949 0,-1.628 1.32,-2.949 2.949,-2.949 1.628,0 2.948,1.321 2.948,2.949 0,1.629 -1.32,2.949 -2.948,2.949 z" />
      <path d="m 125.326,123.851 c -1.628,0 -2.949,-1.32 -2.949,-2.949 0,-1.628 1.321,-2.949 2.949,-2.949 1.629,0 2.949,1.321 2.949,2.949 0,1.629 -1.32,2.949 -2.949,2.949 z" />
      <path d="m 113.531,123.851 c -1.629,0 -2.949,-1.32 -2.949,-2.949 0,-1.628 1.32,-2.949 2.949,-2.949 1.628,0 2.949,1.321 2.949,2.949 0,1.629 -1.321,2.949 -2.949,2.949 z" />
      <path d="m 101.735,123.851 c -1.628,0 -2.9484,-1.32 -2.9484,-2.949 0,-1.628 1.3204,-2.949 2.9484,-2.949 1.629,0 2.949,1.321 2.949,2.949 0,1.629 -1.32,2.949 -2.949,2.949 z" />
      <path d="m 89.9401,123.851 c -1.6286,0 -2.9489,-1.32 -2.9489,-2.949 0,-1.628 1.3203,-2.949 2.9489,-2.949 1.6286,0 2.9488,1.321 2.9488,2.949 0,1.629 -1.3202,2.949 -2.9488,2.949 z" />
      <path d="m 78.1447,123.851 c -1.6286,0 -2.9489,-1.32 -2.9489,-2.949 0,-1.628 1.3203,-2.949 2.9489,-2.949 1.6286,0 2.9488,1.321 2.9488,2.949 0,1.629 -1.3202,2.949 -2.9488,2.949 z" />
      <path d="m 66.3493,123.851 c -1.6286,0 -2.9489,-1.32 -2.9489,-2.949 0,-1.628 1.3203,-2.949 2.9489,-2.949 1.6286,0 2.9488,1.321 2.9488,2.949 0,1.629 -1.3202,2.949 -2.9488,2.949 z" />
      <path d="m 54.5539,123.851 c -1.6286,0 -2.9488,-1.32 -2.9488,-2.949 0,-1.628 1.3202,-2.949 2.9488,-2.949 1.6286,0 2.9489,1.321 2.9489,2.949 0,1.629 -1.3203,2.949 -2.9489,2.949 z" />
      <path d="m 42.7585,123.851 c -1.6286,0 -2.9488,-1.32 -2.9488,-2.949 0,-1.628 1.3202,-2.949 2.9488,-2.949 1.6286,0 2.9489,1.321 2.9489,2.949 0,1.629 -1.3203,2.949 -2.9489,2.949 z" />
      <path d="m 30.9631,123.851 c -1.6286,0 -2.9488,-1.32 -2.9488,-2.949 0,-1.628 1.3202,-2.949 2.9488,-2.949 1.6286,0 2.9489,1.321 2.9489,2.949 0,1.629 -1.3203,2.949 -2.9489,2.949 z" />
      <path d="m 19.1678,123.851 c -1.6286,0 -2.9489,-1.32 -2.9489,-2.949 0,-1.628 1.3203,-2.949 2.9489,-2.949 1.6286,0 2.9488,1.321 2.9488,2.949 0,1.629 -1.3202,2.949 -2.9488,2.949 z" />
      <path d="m 7.37237,123.851 c -1.6286,0 -2.94884,-1.32 -2.94884,-2.949 0,-1.628 1.32024,-2.949 2.94884,-2.949 1.62861,0 2.94883,1.321 2.94883,2.949 0,1.629 -1.32022,2.949 -2.94883,2.949 z" />
      <path d="m -4.42301,123.851 c -1.6286,0 -2.94885,-1.32 -2.94885,-2.949 0,-1.628 1.32025,-2.949 2.94885,-2.949 1.6286,0 2.94885,1.321 2.94885,2.949 0,1.629 -1.32025,2.949 -2.94885,2.949 z" />
      <path d="m -16.2184,123.851 c -1.6286,0 -2.9488,-1.32 -2.9488,-2.949 0,-1.628 1.3202,-2.949 2.9488,-2.949 1.6286,0 2.9489,1.321 2.9489,2.949 0,1.629 -1.3203,2.949 -2.9489,2.949 z" />
      <path d="m -28.0138,123.851 c -1.6286,0 -2.9488,-1.32 -2.9488,-2.949 0,-1.628 1.3202,-2.949 2.9488,-2.949 1.6286,0 2.9489,1.321 2.9489,2.949 0,1.629 -1.3203,2.949 -2.9489,2.949 z" />
      <path d="m -39.8092,123.851 c -1.6286,0 -2.9488,-1.32 -2.9488,-2.949 0,-1.628 1.3202,-2.949 2.9488,-2.949 1.6286,0 2.9489,1.321 2.9489,2.949 0,1.629 -1.3203,2.949 -2.9489,2.949 z" />
      <path d="m 196.099,135.646 c -1.629,0 -2.949,-1.32 -2.949,-2.949 0,-1.628 1.32,-2.948 2.949,-2.948 1.628,0 2.948,1.32 2.948,2.948 0,1.629 -1.32,2.949 -2.948,2.949 z" />
      <path d="m 184.303,135.646 c -1.628,0 -2.949,-1.32 -2.949,-2.949 0,-1.628 1.321,-2.948 2.949,-2.948 1.629,0 2.949,1.32 2.949,2.948 0,1.629 -1.32,2.949 -2.949,2.949 z" />
      <path d="m 172.508,135.646 c -1.629,0 -2.949,-1.32 -2.949,-2.949 0,-1.628 1.32,-2.948 2.949,-2.948 1.628,0 2.949,1.32 2.949,2.948 0,1.629 -1.321,2.949 -2.949,2.949 z" />
      <path d="m 160.712,135.646 c -1.628,0 -2.948,-1.32 -2.948,-2.949 0,-1.628 1.32,-2.948 2.948,-2.948 1.629,0 2.949,1.32 2.949,2.948 0,1.629 -1.32,2.949 -2.949,2.949 z" />
      <path d="m 148.917,135.646 c -1.629,0 -2.949,-1.32 -2.949,-2.949 0,-1.628 1.32,-2.948 2.949,-2.948 1.629,0 2.949,1.32 2.949,2.948 0,1.629 -1.32,2.949 -2.949,2.949 z" />
      <path d="m 137.122,135.646 c -1.629,0 -2.949,-1.32 -2.949,-2.949 0,-1.628 1.32,-2.948 2.949,-2.948 1.628,0 2.948,1.32 2.948,2.948 0,1.629 -1.32,2.949 -2.948,2.949 z" />
      <path d="m 125.326,135.646 c -1.628,0 -2.949,-1.32 -2.949,-2.949 0,-1.628 1.321,-2.948 2.949,-2.948 1.629,0 2.949,1.32 2.949,2.948 0,1.629 -1.32,2.949 -2.949,2.949 z" />
      <path d="m 113.531,135.646 c -1.629,0 -2.949,-1.32 -2.949,-2.949 0,-1.628 1.32,-2.948 2.949,-2.948 1.628,0 2.949,1.32 2.949,2.948 0,1.629 -1.321,2.949 -2.949,2.949 z" />
      <path d="m 101.735,135.646 c -1.628,0 -2.9484,-1.32 -2.9484,-2.949 0,-1.628 1.3204,-2.948 2.9484,-2.948 1.629,0 2.949,1.32 2.949,2.948 0,1.629 -1.32,2.949 -2.949,2.949 z" />
      <path d="m 89.9401,135.646 c -1.6286,0 -2.9489,-1.32 -2.9489,-2.948 0,-1.629 1.3203,-2.949 2.9489,-2.949 1.6286,0 2.9488,1.32 2.9488,2.949 0,1.628 -1.3202,2.948 -2.9488,2.948 z" />
      <path d="m 78.1447,135.646 c -1.6286,0 -2.9489,-1.32 -2.9489,-2.948 0,-1.629 1.3203,-2.949 2.9489,-2.949 1.6286,0 2.9488,1.32 2.9488,2.949 0,1.628 -1.3202,2.948 -2.9488,2.948 z" />
      <path d="m 66.3493,135.646 c -1.6286,0 -2.9488,-1.32 -2.9489,-2.948 0,-1.629 1.3203,-2.949 2.9489,-2.949 1.6286,0 2.9488,1.32 2.9488,2.949 0,1.628 -1.3202,2.948 -2.9488,2.948 z" />
      <path d="m 54.5539,135.646 c -1.6286,0 -2.9488,-1.32 -2.9488,-2.948 0,-1.629 1.3202,-2.949 2.9488,-2.949 1.6286,0 2.9489,1.32 2.9489,2.949 0,1.628 -1.3203,2.948 -2.9489,2.948 z" />
      <path d="m 42.7585,135.646 c -1.6286,0 -2.9488,-1.32 -2.9488,-2.948 0,-1.629 1.3202,-2.949 2.9488,-2.949 1.6286,0 2.9489,1.32 2.9489,2.949 0,1.628 -1.3203,2.948 -2.9489,2.948 z" />
      <path d="m 30.9631,135.646 c -1.6286,0 -2.9488,-1.32 -2.9488,-2.948 0,-1.629 1.3202,-2.949 2.9488,-2.949 1.6286,0 2.9489,1.32 2.9489,2.949 0,1.628 -1.3203,2.948 -2.9489,2.948 z" />
      <path d="m 19.1678,135.646 c -1.6286,0 -2.9489,-1.32 -2.9489,-2.948 0,-1.629 1.3203,-2.949 2.9489,-2.949 1.6286,0 2.9488,1.32 2.9488,2.949 0,1.628 -1.3202,2.948 -2.9488,2.948 z" />
      <path d="m 7.37237,135.646 c -1.6286,0 -2.94884,-1.32 -2.94884,-2.948 0,-1.629 1.32024,-2.949 2.94884,-2.949 1.62861,0 2.94883,1.32 2.94883,2.949 0,1.628 -1.32022,2.948 -2.94883,2.948 z" />
      <path d="m -4.42301,135.646 c -1.6286,0 -2.94885,-1.32 -2.94885,-2.948 0,-1.629 1.32025,-2.949 2.94885,-2.949 1.6286,0 2.94885,1.32 2.94885,2.949 0,1.628 -1.32025,2.948 -2.94885,2.948 z" />
      <path d="m -16.2184,135.646 c -1.6286,0 -2.9488,-1.32 -2.9488,-2.948 0,-1.629 1.3202,-2.949 2.9488,-2.949 1.6286,0 2.9489,1.32 2.9489,2.949 0,1.628 -1.3203,2.948 -2.9489,2.948 z" />
      <path d="m -28.0138,135.646 c -1.6286,0 -2.9488,-1.32 -2.9488,-2.948 0,-1.629 1.3202,-2.949 2.9488,-2.949 1.6286,0 2.9489,1.32 2.9489,2.949 0,1.628 -1.3203,2.948 -2.9489,2.948 z" />
      <path d="m -39.8092,135.646 c -1.6286,0 -2.9488,-1.32 -2.9488,-2.948 0,-1.629 1.3202,-2.949 2.9488,-2.949 1.6286,0 2.9489,1.32 2.9489,2.949 0,1.628 -1.3203,2.948 -2.9489,2.948 z" />
      <path d="m 196.099,147.442 c -1.629,0 -2.949,-1.321 -2.949,-2.949 0,-1.629 1.32,-2.949 2.949,-2.949 1.628,0 2.948,1.32 2.948,2.949 0,1.628 -1.32,2.949 -2.948,2.949 z" />
      <path d="m 184.303,147.442 c -1.628,0 -2.949,-1.321 -2.949,-2.949 0,-1.629 1.321,-2.949 2.949,-2.949 1.629,0 2.949,1.32 2.949,2.949 0,1.628 -1.32,2.949 -2.949,2.949 z" />
      <path d="m 172.508,147.442 c -1.629,0 -2.949,-1.321 -2.949,-2.949 0,-1.629 1.32,-2.949 2.949,-2.949 1.628,0 2.949,1.32 2.949,2.949 0,1.628 -1.321,2.949 -2.949,2.949 z" />
      <path d="m 160.712,147.442 c -1.628,0 -2.948,-1.321 -2.948,-2.949 0,-1.629 1.32,-2.949 2.948,-2.949 1.629,0 2.949,1.32 2.949,2.949 0,1.628 -1.32,2.949 -2.949,2.949 z" />
      <path d="m 148.917,147.442 c -1.629,0 -2.949,-1.321 -2.949,-2.949 0,-1.629 1.32,-2.949 2.949,-2.949 1.629,0 2.949,1.32 2.949,2.949 0,1.628 -1.32,2.949 -2.949,2.949 z" />
      <path d="m 137.122,147.442 c -1.629,0 -2.949,-1.321 -2.949,-2.949 0,-1.629 1.32,-2.949 2.949,-2.949 1.628,0 2.948,1.32 2.948,2.949 0,1.628 -1.32,2.949 -2.948,2.949 z" />
      <path d="m 125.326,147.442 c -1.628,0 -2.949,-1.321 -2.949,-2.949 0,-1.629 1.321,-2.949 2.949,-2.949 1.629,0 2.949,1.32 2.949,2.949 0,1.628 -1.32,2.949 -2.949,2.949 z" />
      <path d="m 113.531,147.442 c -1.629,0 -2.949,-1.321 -2.949,-2.949 0,-1.629 1.32,-2.949 2.949,-2.949 1.628,0 2.949,1.32 2.949,2.949 0,1.628 -1.321,2.949 -2.949,2.949 z" />
      <path d="m 101.735,147.442 c -1.628,0 -2.9484,-1.321 -2.9484,-2.949 0,-1.629 1.3204,-2.949 2.9484,-2.949 1.629,0 2.949,1.32 2.949,2.949 0,1.628 -1.32,2.949 -2.949,2.949 z" />
      <path d="m 89.9401,147.442 c -1.6286,0 -2.9489,-1.321 -2.9489,-2.949 0,-1.629 1.3203,-2.949 2.9489,-2.949 1.6286,0 2.9488,1.32 2.9488,2.949 0,1.628 -1.3202,2.949 -2.9488,2.949 z" />
      <path d="m 78.1447,147.442 c -1.6286,0 -2.9489,-1.321 -2.9489,-2.949 0,-1.629 1.3203,-2.949 2.9489,-2.949 1.6286,0 2.9488,1.32 2.9488,2.949 0,1.628 -1.3202,2.949 -2.9488,2.949 z" />
      <path d="m 66.3493,147.442 c -1.6286,0 -2.9488,-1.321 -2.9488,-2.949 0,-1.629 1.3202,-2.949 2.9488,-2.949 1.6286,0 2.9488,1.32 2.9488,2.949 0,1.628 -1.3202,2.949 -2.9488,2.949 z" />
      <path d="m 54.5539,147.442 c -1.6286,0 -2.9488,-1.321 -2.9488,-2.949 0,-1.629 1.3202,-2.949 2.9488,-2.949 1.6286,0 2.9489,1.32 2.9489,2.949 0,1.628 -1.3203,2.949 -2.9489,2.949 z" />
      <path d="m 42.7585,147.442 c -1.6286,0 -2.9488,-1.321 -2.9488,-2.949 0,-1.629 1.3202,-2.949 2.9488,-2.949 1.6286,0 2.9489,1.32 2.9489,2.949 0,1.628 -1.3203,2.949 -2.9489,2.949 z" />
      <path d="m 30.9631,147.442 c -1.6286,0 -2.9488,-1.321 -2.9488,-2.949 0,-1.629 1.3202,-2.949 2.9488,-2.949 1.6286,0 2.9489,1.32 2.9489,2.949 0,1.628 -1.3203,2.949 -2.9489,2.949 z" />
      <path d="m 19.1678,147.442 c -1.6286,0 -2.9489,-1.321 -2.9489,-2.949 0,-1.629 1.3203,-2.949 2.9489,-2.949 1.6286,0 2.9488,1.32 2.9488,2.949 0,1.628 -1.3202,2.949 -2.9488,2.949 z" />
      <path d="m 7.37237,147.442 c -1.6286,0 -2.94884,-1.321 -2.94884,-2.949 0,-1.629 1.32024,-2.949 2.94884,-2.949 1.62861,0 2.94883,1.32 2.94883,2.949 0,1.628 -1.32022,2.949 -2.94883,2.949 z" />
      <path d="m -4.42301,147.442 c -1.6286,0 -2.94885,-1.321 -2.94885,-2.949 0,-1.629 1.32025,-2.949 2.94885,-2.949 1.6286,0 2.94885,1.32 2.94885,2.949 0,1.628 -1.32025,2.949 -2.94885,2.949 z" />
      <path d="m -16.2184,147.442 c -1.6286,0 -2.9488,-1.321 -2.9488,-2.949 0,-1.629 1.3202,-2.949 2.9488,-2.949 1.6286,0 2.9489,1.32 2.9489,2.949 0,1.628 -1.3203,2.949 -2.9489,2.949 z" />
      <path d="m -28.0138,147.442 c -1.6286,0 -2.9488,-1.321 -2.9488,-2.949 0,-1.629 1.3202,-2.949 2.9488,-2.949 1.6286,0 2.9489,1.32 2.9489,2.949 0,1.628 -1.3203,2.949 -2.9489,2.949 z" />
      <path d="m -39.8092,147.442 c -1.6286,0 -2.9488,-1.321 -2.9488,-2.949 0,-1.629 1.3202,-2.949 2.9488,-2.949 1.6286,0 2.9489,1.32 2.9489,2.949 0,1.628 -1.3203,2.949 -2.9489,2.949 z" />
      <path d="m 196.099,159.237 c -1.629,0 -2.949,-1.32 -2.949,-2.949 0,-1.628 1.32,-2.949 2.949,-2.949 1.628,0 2.948,1.321 2.948,2.949 0,1.629 -1.32,2.949 -2.948,2.949 z" />
      <path d="m 184.303,159.237 c -1.628,0 -2.949,-1.32 -2.949,-2.949 0,-1.628 1.321,-2.949 2.949,-2.949 1.629,0 2.949,1.321 2.949,2.949 0,1.629 -1.32,2.949 -2.949,2.949 z" />
      <path d="m 172.508,159.237 c -1.629,0 -2.949,-1.32 -2.949,-2.949 0,-1.628 1.32,-2.949 2.949,-2.949 1.628,0 2.949,1.321 2.949,2.949 0,1.629 -1.321,2.949 -2.949,2.949 z" />
      <path d="m 160.712,159.237 c -1.628,0 -2.948,-1.32 -2.948,-2.949 0,-1.628 1.32,-2.949 2.948,-2.949 1.629,0 2.949,1.321 2.949,2.949 0,1.629 -1.32,2.949 -2.949,2.949 z" />
      <path d="m 148.917,159.237 c -1.629,0 -2.949,-1.32 -2.949,-2.949 0,-1.628 1.32,-2.949 2.949,-2.949 1.629,0 2.949,1.321 2.949,2.949 0,1.629 -1.32,2.949 -2.949,2.949 z" />
      <path d="m 137.122,159.237 c -1.629,0 -2.949,-1.32 -2.949,-2.949 0,-1.628 1.32,-2.949 2.949,-2.949 1.628,0 2.948,1.321 2.948,2.949 0,1.629 -1.32,2.949 -2.948,2.949 z" />
      <path d="m 125.326,159.237 c -1.628,0 -2.949,-1.32 -2.949,-2.949 0,-1.628 1.321,-2.949 2.949,-2.949 1.629,0 2.949,1.321 2.949,2.949 0,1.629 -1.32,2.949 -2.949,2.949 z" />
      <path d="m 113.531,159.237 c -1.629,0 -2.949,-1.32 -2.949,-2.949 0,-1.628 1.32,-2.949 2.949,-2.949 1.628,0 2.949,1.321 2.949,2.949 0,1.629 -1.321,2.949 -2.949,2.949 z" />
      <path d="m 101.735,159.237 c -1.628,0 -2.9484,-1.32 -2.9484,-2.949 0,-1.628 1.3204,-2.949 2.9484,-2.949 1.629,0 2.949,1.321 2.949,2.949 0,1.629 -1.32,2.949 -2.949,2.949 z" />
      <path d="m 89.9401,159.237 c -1.6286,0 -2.9489,-1.32 -2.9489,-2.949 0,-1.628 1.3203,-2.949 2.9489,-2.949 1.6286,0 2.9488,1.321 2.9488,2.949 0,1.629 -1.3202,2.949 -2.9488,2.949 z" />
      <path d="m 78.1447,159.237 c -1.6286,0 -2.9489,-1.32 -2.9489,-2.949 0,-1.628 1.3203,-2.949 2.9489,-2.949 1.6286,0 2.9488,1.321 2.9488,2.949 0,1.629 -1.3202,2.949 -2.9488,2.949 z" />
      <path d="m 66.3493,159.237 c -1.6286,0 -2.9488,-1.32 -2.9488,-2.949 0,-1.628 1.3202,-2.949 2.9488,-2.949 1.6286,0 2.9488,1.321 2.9488,2.949 0,1.629 -1.3202,2.949 -2.9488,2.949 z" />
      <path d="m 54.5539,159.237 c -1.6286,0 -2.9488,-1.32 -2.9488,-2.949 0,-1.628 1.3202,-2.949 2.9488,-2.949 1.6286,0 2.9489,1.321 2.9489,2.949 0,1.629 -1.3203,2.949 -2.9489,2.949 z" />
      <path d="m 42.7585,159.237 c -1.6286,0 -2.9488,-1.32 -2.9488,-2.949 0,-1.628 1.3202,-2.949 2.9488,-2.949 1.6286,0 2.9489,1.321 2.9489,2.949 0,1.629 -1.3203,2.949 -2.9489,2.949 z" />
      <path d="m 30.9631,159.237 c -1.6286,0 -2.9488,-1.32 -2.9488,-2.949 0,-1.628 1.3202,-2.949 2.9488,-2.949 1.6286,0 2.9489,1.321 2.9489,2.949 0,1.629 -1.3203,2.949 -2.9489,2.949 z" />
      <path d="m 19.1678,159.237 c -1.6286,0 -2.9489,-1.32 -2.9489,-2.949 0,-1.628 1.3203,-2.949 2.9489,-2.949 1.6286,0 2.9488,1.321 2.9488,2.949 0,1.629 -1.3202,2.949 -2.9488,2.949 z" />
      <path d="m 7.37238,159.237 c -1.62861,0 -2.94885,-1.32 -2.94885,-2.949 0,-1.628 1.32024,-2.949 2.94884,-2.949 1.62861,0 2.94883,1.321 2.94883,2.949 0,1.629 -1.32022,2.949 -2.94882,2.949 z" />
      <path d="m -4.42301,159.237 c -1.6286,0 -2.94885,-1.32 -2.94885,-2.949 0,-1.628 1.32025,-2.949 2.94885,-2.949 1.6286,0 2.94885,1.321 2.94885,2.949 0,1.629 -1.32025,2.949 -2.94885,2.949 z" />
      <path d="m -16.2184,159.237 c -1.6286,0 -2.9488,-1.32 -2.9488,-2.949 0,-1.628 1.3202,-2.949 2.9488,-2.949 1.6286,0 2.9489,1.321 2.9489,2.949 0,1.629 -1.3203,2.949 -2.9489,2.949 z" />
      <path d="m -28.0138,159.237 c -1.6286,0 -2.9488,-1.32 -2.9488,-2.949 0,-1.628 1.3202,-2.949 2.9488,-2.949 1.6286,0 2.9489,1.321 2.9489,2.949 0,1.629 -1.3203,2.949 -2.9489,2.949 z" />
      <path d="m -39.8092,159.237 c -1.6286,0 -2.9488,-1.32 -2.9488,-2.949 0,-1.628 1.3202,-2.949 2.9488,-2.949 1.6286,0 2.9489,1.321 2.9489,2.949 0,1.629 -1.3203,2.949 -2.9489,2.949 z" />
      <path d="m 196.099,171.032 c -1.629,0 -2.949,-1.32 -2.949,-2.948 0,-1.629 1.32,-2.949 2.949,-2.949 1.628,0 2.948,1.32 2.948,2.949 0,1.628 -1.32,2.948 -2.948,2.948 z" />
      <path d="m 184.303,171.032 c -1.628,0 -2.949,-1.32 -2.949,-2.948 0,-1.629 1.321,-2.949 2.949,-2.949 1.629,0 2.949,1.32 2.949,2.949 0,1.628 -1.32,2.948 -2.949,2.948 z" />
      <path d="m 172.508,171.032 c -1.629,0 -2.949,-1.32 -2.949,-2.948 0,-1.629 1.32,-2.949 2.949,-2.949 1.628,0 2.949,1.32 2.949,2.949 0,1.628 -1.321,2.948 -2.949,2.948 z" />
      <path d="m 160.712,171.032 c -1.628,0 -2.948,-1.32 -2.948,-2.948 0,-1.629 1.32,-2.949 2.948,-2.949 1.629,0 2.949,1.32 2.949,2.949 0,1.628 -1.32,2.948 -2.949,2.948 z" />
      <path d="m 148.917,171.032 c -1.629,0 -2.949,-1.32 -2.949,-2.948 0,-1.629 1.32,-2.949 2.949,-2.949 1.629,0 2.949,1.32 2.949,2.949 0,1.628 -1.32,2.948 -2.949,2.948 z" />
      <path d="m 137.122,171.032 c -1.629,0 -2.949,-1.32 -2.949,-2.948 0,-1.629 1.32,-2.949 2.949,-2.949 1.628,0 2.948,1.32 2.948,2.949 0,1.628 -1.32,2.948 -2.948,2.948 z" />
      <path d="m 125.326,171.032 c -1.628,0 -2.949,-1.32 -2.949,-2.948 0,-1.629 1.321,-2.949 2.949,-2.949 1.629,0 2.949,1.32 2.949,2.949 0,1.628 -1.32,2.948 -2.949,2.948 z" />
      <path d="m 113.531,171.032 c -1.629,0 -2.949,-1.32 -2.949,-2.948 0,-1.629 1.32,-2.949 2.949,-2.949 1.628,0 2.949,1.32 2.949,2.949 0,1.628 -1.321,2.948 -2.949,2.948 z" />
      <path d="m 101.735,171.032 c -1.628,0 -2.9484,-1.32 -2.9484,-2.948 0,-1.629 1.3204,-2.949 2.9484,-2.949 1.629,0 2.949,1.32 2.949,2.949 0,1.628 -1.32,2.948 -2.949,2.948 z" />
      <path d="m 89.9401,171.032 c -1.6286,0 -2.9489,-1.32 -2.9489,-2.948 0,-1.629 1.3203,-2.949 2.9489,-2.949 1.6286,0 2.9488,1.32 2.9488,2.949 0,1.628 -1.3202,2.948 -2.9488,2.948 z" />
      <path d="m 78.1447,171.032 c -1.6286,0 -2.9489,-1.32 -2.9489,-2.948 0,-1.629 1.3203,-2.949 2.9489,-2.949 1.6286,0 2.9488,1.32 2.9488,2.949 0,1.628 -1.3202,2.948 -2.9488,2.948 z" />
      <path d="m 66.3493,171.032 c -1.6286,0 -2.9488,-1.32 -2.9488,-2.948 0,-1.629 1.3202,-2.949 2.9488,-2.949 1.6286,0 2.9488,1.32 2.9488,2.949 0,1.628 -1.3202,2.948 -2.9488,2.948 z" />
      <path d="m 54.5539,171.032 c -1.6286,0 -2.9488,-1.32 -2.9488,-2.948 0,-1.629 1.3202,-2.949 2.9488,-2.949 1.6286,0 2.9489,1.32 2.9489,2.949 0,1.628 -1.3203,2.948 -2.9489,2.948 z" />
      <path d="m 42.7585,171.032 c -1.6286,0 -2.9488,-1.32 -2.9488,-2.948 0,-1.629 1.3202,-2.949 2.9488,-2.949 1.6286,0 2.9489,1.32 2.9489,2.949 0,1.628 -1.3203,2.948 -2.9489,2.948 z" />
      <path d="m 30.9631,171.032 c -1.6286,0 -2.9488,-1.32 -2.9488,-2.948 0,-1.629 1.3202,-2.949 2.9488,-2.949 1.6286,0 2.9489,1.32 2.9489,2.949 0,1.628 -1.3203,2.948 -2.9489,2.948 z" />
      <path d="m 19.1678,171.032 c -1.6286,0 -2.9489,-1.32 -2.9489,-2.948 0,-1.629 1.3203,-2.949 2.9489,-2.949 1.6286,0 2.9488,1.32 2.9488,2.949 0,1.628 -1.3202,2.948 -2.9488,2.948 z" />
      <path d="m 7.37238,171.033 c -1.62861,0 -2.94885,-1.321 -2.94885,-2.949 0,-1.629 1.32024,-2.949 2.94885,-2.949 1.6286,0 2.94882,1.32 2.94882,2.949 0,1.628 -1.32022,2.948 -2.94882,2.949 z" />
      <path d="m -4.42301,171.033 c -1.6286,0 -2.94884,-1.321 -2.94884,-2.949 -10e-6,-1.629 1.32024,-2.949 2.94884,-2.949 1.6286,0 2.94885,1.32 2.94885,2.949 0,1.628 -1.32025,2.949 -2.94885,2.949 z" />
      <path d="m -16.2184,171.033 c -1.6286,0 -2.9488,-1.321 -2.9488,-2.949 0,-1.629 1.3202,-2.949 2.9488,-2.949 1.6286,0 2.9489,1.32 2.9489,2.949 0,1.628 -1.3203,2.949 -2.9489,2.949 z" />
      <path d="m -28.0138,171.033 c -1.6286,0 -2.9488,-1.321 -2.9488,-2.949 0,-1.629 1.3202,-2.949 2.9488,-2.949 1.6286,0 2.9489,1.32 2.9489,2.949 0,1.628 -1.3203,2.949 -2.9489,2.949 z" />
      <path d="m -39.8092,171.033 c -1.6286,0 -2.9488,-1.321 -2.9488,-2.949 0,-1.629 1.3202,-2.949 2.9488,-2.949 1.6286,0 2.9489,1.32 2.9489,2.949 0,1.628 -1.3203,2.949 -2.9489,2.949 z" />
      <path d="m 196.099,182.828 c -1.629,0 -2.949,-1.32 -2.949,-2.949 0,-1.629 1.32,-2.949 2.949,-2.949 1.628,0 2.948,1.32 2.948,2.949 0,1.629 -1.32,2.949 -2.948,2.949 z" />
      <path d="m 184.303,182.828 c -1.628,0 -2.949,-1.32 -2.949,-2.949 0,-1.629 1.321,-2.949 2.949,-2.949 1.629,0 2.949,1.32 2.949,2.949 0,1.629 -1.32,2.949 -2.949,2.949 z" />
      <path d="m 172.508,182.828 c -1.629,0 -2.949,-1.32 -2.949,-2.949 0,-1.629 1.32,-2.949 2.949,-2.949 1.628,0 2.949,1.32 2.949,2.949 0,1.629 -1.321,2.949 -2.949,2.949 z" />
      <path d="m 160.712,182.828 c -1.628,0 -2.948,-1.32 -2.948,-2.949 0,-1.629 1.32,-2.949 2.948,-2.949 1.629,0 2.949,1.32 2.949,2.949 0,1.629 -1.32,2.949 -2.949,2.949 z" />
      <path d="m 148.917,182.828 c -1.629,0 -2.949,-1.32 -2.949,-2.949 0,-1.629 1.32,-2.949 2.949,-2.949 1.629,0 2.949,1.32 2.949,2.949 0,1.629 -1.32,2.949 -2.949,2.949 z" />
      <path d="m 137.122,182.828 c -1.629,0 -2.949,-1.32 -2.949,-2.949 0,-1.629 1.32,-2.949 2.949,-2.949 1.628,0 2.948,1.32 2.948,2.949 0,1.629 -1.32,2.949 -2.948,2.949 z" />
      <path d="m 125.326,182.828 c -1.628,0 -2.949,-1.32 -2.949,-2.949 0,-1.629 1.321,-2.949 2.949,-2.949 1.629,0 2.949,1.32 2.949,2.949 0,1.629 -1.32,2.949 -2.949,2.949 z" />
      <path d="m 113.531,182.828 c -1.629,0 -2.949,-1.32 -2.949,-2.949 0,-1.629 1.32,-2.949 2.949,-2.949 1.628,0 2.949,1.32 2.949,2.949 0,1.629 -1.321,2.949 -2.949,2.949 z" />
      <path d="m 101.735,182.828 c -1.628,0 -2.9484,-1.32 -2.9484,-2.949 0,-1.629 1.3204,-2.949 2.9484,-2.949 1.629,0 2.949,1.32 2.949,2.949 0,1.629 -1.32,2.949 -2.949,2.949 z" />
      <path d="m 89.9401,182.828 c -1.6286,0 -2.9489,-1.32 -2.9489,-2.949 0,-1.629 1.3203,-2.949 2.9489,-2.949 1.6286,0 2.9488,1.32 2.9488,2.949 0,1.629 -1.3202,2.949 -2.9488,2.949 z" />
      <path d="m 78.1447,182.828 c -1.6286,0 -2.9489,-1.32 -2.9489,-2.949 0,-1.629 1.3203,-2.949 2.9489,-2.949 1.6286,0 2.9488,1.32 2.9488,2.949 0,1.629 -1.3202,2.949 -2.9488,2.949 z" />
      <path d="m 66.3493,182.828 c -1.6286,0 -2.9488,-1.32 -2.9488,-2.949 0,-1.629 1.3202,-2.949 2.9488,-2.949 1.6286,0 2.9488,1.32 2.9488,2.949 0,1.629 -1.3202,2.949 -2.9488,2.949 z" />
      <path d="m 54.5539,182.828 c -1.6286,0 -2.9488,-1.32 -2.9488,-2.949 0,-1.629 1.3202,-2.949 2.9488,-2.949 1.6286,0 2.9489,1.32 2.9489,2.949 0,1.629 -1.3203,2.949 -2.9489,2.949 z" />
      <path d="m 42.7585,182.828 c -1.6286,0 -2.9488,-1.32 -2.9488,-2.949 0,-1.629 1.3202,-2.949 2.9488,-2.949 1.6286,0 2.9489,1.32 2.9489,2.949 0,1.629 -1.3203,2.949 -2.9489,2.949 z" />
      <path d="m 30.9631,182.828 c -1.6286,0 -2.9488,-1.32 -2.9488,-2.949 0,-1.629 1.3202,-2.949 2.9488,-2.949 1.6286,0 2.9489,1.32 2.9489,2.949 0,1.629 -1.3203,2.949 -2.9489,2.949 z" />
      <path d="m 19.1678,182.828 c -1.6286,0 -2.9489,-1.32 -2.9489,-2.949 0,-1.629 1.3203,-2.949 2.9489,-2.949 1.6286,0 2.9488,1.32 2.9488,2.949 0,1.629 -1.3202,2.949 -2.9488,2.949 z" />
      <path d="m 7.37238,182.828 c -1.62861,0 -2.94885,-1.32 -2.94885,-2.949 0,-1.629 1.32024,-2.949 2.94885,-2.949 1.6286,0 2.94882,1.32 2.94882,2.949 0,1.629 -1.32022,2.949 -2.94882,2.949 z" />
      <path d="m -4.42301,182.828 c -1.6286,0 -2.94884,-1.32 -2.94884,-2.949 0,-1.629 1.32024,-2.949 2.94884,-2.949 1.6286,0 2.94885,1.32 2.94885,2.949 0,1.629 -1.32025,2.949 -2.94885,2.949 z" />
      <path d="m -16.2184,182.828 c -1.6286,0 -2.9488,-1.32 -2.9488,-2.949 0,-1.629 1.3202,-2.949 2.9488,-2.949 1.6286,0 2.9489,1.32 2.9489,2.949 0,1.629 -1.3203,2.949 -2.9489,2.949 z" />
      <path d="m -28.0138,182.828 c -1.6286,0 -2.9488,-1.32 -2.9488,-2.949 0,-1.629 1.3202,-2.949 2.9488,-2.949 1.6286,0 2.9489,1.32 2.9489,2.949 0,1.629 -1.3203,2.949 -2.9489,2.949 z" />
      <path d="m -39.8092,182.828 c -1.6286,0 -2.9488,-1.32 -2.9488,-2.949 0,-1.629 1.3202,-2.949 2.9488,-2.949 1.6286,0 2.9489,1.32 2.9489,2.949 0,1.629 -1.3203,2.949 -2.9489,2.949 z" />
      <path d="m 196.099,194.623 c -1.629,0 -2.949,-1.32 -2.949,-2.949 0,-1.628 1.32,-2.948 2.949,-2.948 1.628,0 2.948,1.32 2.948,2.948 0,1.629 -1.32,2.949 -2.948,2.949 z" />
      <path d="m 184.303,194.623 c -1.628,0 -2.949,-1.32 -2.949,-2.949 0,-1.628 1.321,-2.948 2.949,-2.948 1.629,0 2.949,1.32 2.949,2.948 0,1.629 -1.32,2.949 -2.949,2.949 z" />
      <path d="m 172.508,194.623 c -1.629,0 -2.949,-1.32 -2.949,-2.949 0,-1.628 1.32,-2.948 2.949,-2.948 1.628,0 2.949,1.32 2.949,2.948 0,1.629 -1.321,2.949 -2.949,2.949 z" />
      <path d="m 160.712,194.623 c -1.628,0 -2.948,-1.32 -2.948,-2.949 0,-1.628 1.32,-2.948 2.948,-2.948 1.629,0 2.949,1.32 2.949,2.948 0,1.629 -1.32,2.949 -2.949,2.949 z" />
      <path d="m 148.917,194.623 c -1.629,0 -2.949,-1.32 -2.949,-2.949 0,-1.628 1.32,-2.948 2.949,-2.948 1.629,0 2.949,1.32 2.949,2.948 0,1.629 -1.32,2.949 -2.949,2.949 z" />
      <path d="m 137.122,194.623 c -1.629,0 -2.949,-1.32 -2.949,-2.949 0,-1.628 1.32,-2.948 2.949,-2.948 1.628,0 2.948,1.32 2.948,2.948 0,1.629 -1.32,2.949 -2.948,2.949 z" />
      <path d="m 125.326,194.623 c -1.628,0 -2.949,-1.32 -2.949,-2.949 0,-1.628 1.321,-2.948 2.949,-2.948 1.629,0 2.949,1.32 2.949,2.948 0,1.629 -1.32,2.949 -2.949,2.949 z" />
      <path d="m 113.531,194.623 c -1.629,0 -2.949,-1.32 -2.949,-2.949 0,-1.628 1.32,-2.948 2.949,-2.948 1.628,0 2.949,1.32 2.949,2.948 0,1.629 -1.321,2.949 -2.949,2.949 z" />
      <path d="m 101.735,194.623 c -1.628,0 -2.9484,-1.32 -2.9484,-2.949 0,-1.628 1.3204,-2.948 2.9484,-2.948 1.629,0 2.949,1.32 2.949,2.948 0,1.629 -1.32,2.949 -2.949,2.949 z" />
      <path d="m 89.9401,194.623 c -1.6286,0 -2.9489,-1.32 -2.9489,-2.949 0,-1.628 1.3203,-2.948 2.9489,-2.948 1.6286,0 2.9488,1.32 2.9488,2.948 0,1.629 -1.3202,2.949 -2.9488,2.949 z" />
      <path d="m 78.1447,194.623 c -1.6286,0 -2.9489,-1.32 -2.9489,-2.949 0,-1.628 1.3203,-2.948 2.9489,-2.948 1.6286,0 2.9488,1.32 2.9488,2.948 0,1.629 -1.3202,2.949 -2.9488,2.949 z" />
      <path d="m 66.3493,194.623 c -1.6286,0 -2.9488,-1.32 -2.9488,-2.949 0,-1.628 1.3202,-2.948 2.9488,-2.948 1.6286,0 2.9488,1.32 2.9488,2.948 0,1.629 -1.3202,2.949 -2.9488,2.949 z" />
      <path d="m 54.5539,194.623 c -1.6286,0 -2.9488,-1.32 -2.9488,-2.949 0,-1.628 1.3202,-2.948 2.9488,-2.948 1.6286,0 2.9489,1.32 2.9489,2.948 0,1.629 -1.3203,2.949 -2.9489,2.949 z" />
      <path d="m 42.7585,194.623 c -1.6286,0 -2.9488,-1.32 -2.9488,-2.949 0,-1.628 1.3202,-2.948 2.9488,-2.948 1.6286,0 2.9489,1.32 2.9489,2.948 0,1.629 -1.3203,2.949 -2.9489,2.949 z" />
      <path d="m 30.9631,194.623 c -1.6286,0 -2.9488,-1.32 -2.9488,-2.949 0,-1.628 1.3202,-2.948 2.9488,-2.948 1.6286,0 2.9489,1.32 2.9489,2.948 0,1.629 -1.3203,2.949 -2.9489,2.949 z" />
      <path d="m 19.1678,194.623 c -1.6286,0 -2.9489,-1.32 -2.9489,-2.949 0,-1.628 1.3203,-2.948 2.9489,-2.948 1.6286,0 2.9488,1.32 2.9488,2.948 0,1.629 -1.3202,2.949 -2.9488,2.949 z" />
      <path d="m 7.37238,194.623 c -1.62861,0 -2.94885,-1.32 -2.94885,-2.949 0,-1.628 1.32024,-2.948 2.94885,-2.948 1.6286,0 2.94882,1.32 2.94882,2.948 0,1.629 -1.32022,2.949 -2.94882,2.949 z" />
      <path d="m -4.42301,194.623 c -1.6286,0 -2.94884,-1.32 -2.94884,-2.949 0,-1.628 1.32024,-2.948 2.94884,-2.948 1.6286,0 2.94885,1.32 2.94885,2.948 0,1.629 -1.32024,2.949 -2.94885,2.949 z" />
      <path d="m -16.2184,194.623 c -1.6286,0 -2.9488,-1.32 -2.9488,-2.949 0,-1.628 1.3202,-2.948 2.9488,-2.948 1.6286,0 2.9489,1.32 2.9489,2.948 0,1.629 -1.3203,2.949 -2.9489,2.949 z" />
      <path d="m -28.0138,194.623 c -1.6286,0 -2.9488,-1.32 -2.9488,-2.949 0,-1.628 1.3202,-2.948 2.9488,-2.948 1.6286,0 2.9489,1.32 2.9489,2.948 0,1.629 -1.3203,2.949 -2.9489,2.949 z" />
      <path d="m -39.8092,194.623 c -1.6286,0 -2.9488,-1.32 -2.9488,-2.949 0,-1.628 1.3202,-2.948 2.9488,-2.948 1.6286,0 2.9489,1.32 2.9489,2.948 0,1.629 -1.3203,2.949 -2.9489,2.949 z" />
      <path d="m 196.099,206.419 c -1.629,0 -2.949,-1.321 -2.949,-2.949 0,-1.629 1.32,-2.949 2.949,-2.949 1.628,0 2.948,1.32 2.948,2.949 0,1.628 -1.32,2.949 -2.948,2.949 z" />
      <path d="m 184.303,206.419 c -1.628,0 -2.949,-1.321 -2.949,-2.949 0,-1.629 1.321,-2.949 2.949,-2.949 1.629,0 2.949,1.32 2.949,2.949 0,1.628 -1.32,2.949 -2.949,2.949 z" />
      <path d="m 172.508,206.419 c -1.629,0 -2.949,-1.321 -2.949,-2.949 0,-1.629 1.32,-2.949 2.949,-2.949 1.628,0 2.949,1.32 2.949,2.949 0,1.628 -1.321,2.949 -2.949,2.949 z" />
      <path d="m 160.712,206.419 c -1.628,0 -2.948,-1.321 -2.948,-2.949 0,-1.629 1.32,-2.949 2.948,-2.949 1.629,0 2.949,1.32 2.949,2.949 0,1.628 -1.32,2.949 -2.949,2.949 z" />
      <path d="m 148.917,206.419 c -1.629,0 -2.949,-1.321 -2.949,-2.949 0,-1.629 1.32,-2.949 2.949,-2.949 1.629,0 2.949,1.32 2.949,2.949 0,1.628 -1.32,2.949 -2.949,2.949 z" />
      <path d="m 137.122,206.419 c -1.629,0 -2.949,-1.321 -2.949,-2.949 0,-1.629 1.32,-2.949 2.949,-2.949 1.628,0 2.948,1.32 2.948,2.949 0,1.628 -1.32,2.949 -2.948,2.949 z" />
      <path d="m 125.326,206.419 c -1.628,0 -2.949,-1.321 -2.949,-2.949 0,-1.629 1.321,-2.949 2.949,-2.949 1.629,0 2.949,1.32 2.949,2.949 0,1.628 -1.32,2.949 -2.949,2.949 z" />
      <path d="m 113.531,206.419 c -1.629,0 -2.949,-1.321 -2.949,-2.949 0,-1.629 1.32,-2.949 2.949,-2.949 1.628,0 2.949,1.32 2.949,2.949 0,1.628 -1.321,2.949 -2.949,2.949 z" />
      <path d="m 101.735,206.419 c -1.628,0 -2.9484,-1.321 -2.9484,-2.949 0,-1.629 1.3204,-2.949 2.9484,-2.949 1.629,0 2.949,1.32 2.949,2.949 0,1.628 -1.32,2.949 -2.949,2.949 z" />
      <path d="m 89.9401,206.419 c -1.6286,0 -2.9489,-1.321 -2.9489,-2.949 0,-1.629 1.3203,-2.949 2.9489,-2.949 1.6286,0 2.9488,1.32 2.9488,2.949 0,1.628 -1.3202,2.949 -2.9488,2.949 z" />
      <path d="m 78.1447,206.419 c -1.6286,0 -2.9489,-1.321 -2.9489,-2.949 0,-1.629 1.3203,-2.949 2.9489,-2.949 1.6286,0 2.9488,1.32 2.9488,2.949 0,1.628 -1.3202,2.949 -2.9488,2.949 z" />
      <path d="m 66.3493,206.419 c -1.6286,0 -2.9488,-1.321 -2.9488,-2.949 0,-1.629 1.3202,-2.949 2.9488,-2.949 1.6286,0 2.9488,1.32 2.9488,2.949 0,1.628 -1.3202,2.949 -2.9488,2.949 z" />
      <path d="m 54.5539,206.419 c -1.6286,0 -2.9488,-1.321 -2.9488,-2.949 0,-1.629 1.3202,-2.949 2.9488,-2.949 1.6286,0 2.9489,1.32 2.9489,2.949 0,1.628 -1.3203,2.949 -2.9489,2.949 z" />
      <path d="m 42.7585,206.419 c -1.6286,0 -2.9488,-1.321 -2.9488,-2.949 0,-1.629 1.3202,-2.949 2.9488,-2.949 1.6286,0 2.9489,1.32 2.9489,2.949 0,1.628 -1.3203,2.949 -2.9489,2.949 z" />
      <path d="m 30.9631,206.419 c -1.6286,0 -2.9488,-1.321 -2.9488,-2.949 0,-1.629 1.3202,-2.949 2.9488,-2.949 1.6286,0 2.9489,1.32 2.9489,2.949 0,1.628 -1.3203,2.949 -2.9489,2.949 z" />
      <path d="m 19.1678,206.419 c -1.6286,0 -2.9489,-1.321 -2.9489,-2.949 0,-1.629 1.3203,-2.949 2.9489,-2.949 1.6286,0 2.9488,1.32 2.9488,2.949 0,1.628 -1.3202,2.949 -2.9488,2.949 z" />
      <path d="m 7.37238,206.419 c -1.62861,0 -2.94885,-1.321 -2.94885,-2.949 0,-1.629 1.32024,-2.949 2.94885,-2.949 1.6286,0 2.94882,1.32 2.94882,2.949 0,1.628 -1.32022,2.949 -2.94882,2.949 z" />
      <path d="m -4.42301,206.419 c -1.6286,0 -2.94884,-1.321 -2.94884,-2.949 0,-1.629 1.32024,-2.949 2.94884,-2.949 1.62861,0 2.94885,1.32 2.94885,2.949 0,1.628 -1.32024,2.949 -2.94885,2.949 z" />
      <path d="m -16.2184,206.419 c -1.6286,0 -2.9488,-1.321 -2.9488,-2.949 0,-1.629 1.3202,-2.949 2.9488,-2.949 1.6286,0 2.9489,1.32 2.9489,2.949 0,1.628 -1.3203,2.949 -2.9489,2.949 z" />
      <path d="m -28.0138,206.419 c -1.6286,0 -2.9488,-1.321 -2.9488,-2.949 0,-1.629 1.3202,-2.949 2.9488,-2.949 1.6286,0 2.9489,1.32 2.9489,2.949 0,1.628 -1.3203,2.949 -2.9489,2.949 z" />
      <path d="m -39.8092,206.419 c -1.6286,0 -2.9488,-1.321 -2.9488,-2.949 0,-1.629 1.3202,-2.949 2.9488,-2.949 1.6286,0 2.9489,1.32 2.9489,2.949 0,1.628 -1.3203,2.949 -2.9489,2.949 z" />
      <path d="m 196.099,218.214 c -1.629,0 -2.949,-1.32 -2.949,-2.949 0,-1.628 1.32,-2.949 2.949,-2.949 1.628,0 2.948,1.321 2.948,2.949 0,1.629 -1.32,2.949 -2.948,2.949 z" />
      <path d="m 184.303,218.214 c -1.628,0 -2.949,-1.32 -2.949,-2.949 0,-1.628 1.321,-2.949 2.949,-2.949 1.629,0 2.949,1.321 2.949,2.949 0,1.629 -1.32,2.949 -2.949,2.949 z" />
      <path d="m 172.508,218.214 c -1.629,0 -2.949,-1.32 -2.949,-2.949 0,-1.628 1.32,-2.949 2.949,-2.949 1.628,0 2.949,1.321 2.949,2.949 0,1.629 -1.321,2.949 -2.949,2.949 z" />
      <path d="m 160.712,218.214 c -1.628,0 -2.948,-1.32 -2.948,-2.949 0,-1.628 1.32,-2.949 2.948,-2.949 1.629,0 2.949,1.321 2.949,2.949 0,1.629 -1.32,2.949 -2.949,2.949 z" />
      <path d="m 148.917,218.214 c -1.629,0 -2.949,-1.32 -2.949,-2.949 0,-1.628 1.32,-2.949 2.949,-2.949 1.629,0 2.949,1.321 2.949,2.949 0,1.629 -1.32,2.949 -2.949,2.949 z" />
      <path d="m 137.122,218.214 c -1.629,0 -2.949,-1.32 -2.949,-2.949 0,-1.628 1.32,-2.949 2.949,-2.949 1.628,0 2.948,1.321 2.948,2.949 0,1.629 -1.32,2.949 -2.948,2.949 z" />
      <path d="m 125.326,218.214 c -1.628,0 -2.949,-1.32 -2.949,-2.949 0,-1.628 1.321,-2.949 2.949,-2.949 1.629,0 2.949,1.321 2.949,2.949 0,1.629 -1.32,2.949 -2.949,2.949 z" />
      <path d="m 113.531,218.214 c -1.629,0 -2.949,-1.32 -2.949,-2.949 0,-1.628 1.32,-2.949 2.949,-2.949 1.628,0 2.949,1.321 2.949,2.949 0,1.629 -1.321,2.949 -2.949,2.949 z" />
      <path d="m 101.735,218.214 c -1.628,0 -2.9484,-1.32 -2.9484,-2.949 0,-1.628 1.3204,-2.949 2.9484,-2.949 1.629,0 2.949,1.321 2.949,2.949 0,1.629 -1.32,2.949 -2.949,2.949 z" />
      <path d="m 89.9401,218.214 c -1.6286,0 -2.9489,-1.32 -2.9489,-2.949 0,-1.628 1.3203,-2.949 2.9489,-2.949 1.6286,0 2.9488,1.321 2.9488,2.949 0,1.629 -1.3202,2.949 -2.9488,2.949 z" />
      <path d="m 78.1447,218.214 c -1.6286,0 -2.9489,-1.32 -2.9489,-2.949 0,-1.628 1.3203,-2.949 2.9489,-2.949 1.6286,0 2.9488,1.321 2.9488,2.949 0,1.629 -1.3202,2.949 -2.9488,2.949 z" />
      <path d="m 66.3493,218.214 c -1.6286,0 -2.9488,-1.32 -2.9488,-2.949 0,-1.628 1.3202,-2.949 2.9488,-2.949 1.6286,0 2.9488,1.321 2.9488,2.949 0,1.629 -1.3202,2.949 -2.9488,2.949 z" />
      <path d="m 54.5539,218.214 c -1.6286,0 -2.9488,-1.32 -2.9488,-2.949 0,-1.628 1.3202,-2.949 2.9488,-2.949 1.6286,0 2.9489,1.321 2.9489,2.949 0,1.629 -1.3203,2.949 -2.9489,2.949 z" />
      <path d="m 42.7585,218.214 c -1.6286,0 -2.9488,-1.32 -2.9488,-2.949 0,-1.628 1.3202,-2.949 2.9488,-2.949 1.6286,0 2.9489,1.321 2.9489,2.949 0,1.629 -1.3203,2.949 -2.9489,2.949 z" />
      <path d="m 30.9631,218.214 c -1.6286,0 -2.9488,-1.32 -2.9488,-2.949 0,-1.628 1.3202,-2.949 2.9488,-2.949 1.6286,0 2.9489,1.321 2.9489,2.949 0,1.629 -1.3203,2.949 -2.9489,2.949 z" />
      <path d="m 19.1678,218.214 c -1.6286,0 -2.9489,-1.32 -2.9489,-2.949 0,-1.628 1.3203,-2.949 2.9489,-2.949 1.6286,0 2.9488,1.321 2.9488,2.949 0,1.629 -1.3202,2.949 -2.9488,2.949 z" />
      <path d="m 7.37238,218.214 c -1.62861,0 -2.94885,-1.32 -2.94885,-2.949 0,-1.628 1.32024,-2.949 2.94885,-2.949 1.6286,0 2.94882,1.321 2.94882,2.949 0,1.629 -1.32022,2.949 -2.94882,2.949 z" />
      <path d="m -4.42301,218.214 c -1.6286,0 -2.94884,-1.32 -2.94884,-2.949 0,-1.628 1.32024,-2.949 2.94884,-2.949 1.62861,0 2.94885,1.321 2.94885,2.949 0,1.629 -1.32024,2.949 -2.94885,2.949 z" />
      <path d="m -16.2184,218.214 c -1.6286,0 -2.9488,-1.32 -2.9488,-2.949 0,-1.628 1.3202,-2.949 2.9488,-2.949 1.6286,0 2.9489,1.321 2.9489,2.949 0,1.629 -1.3203,2.949 -2.9489,2.949 z" />
      <path d="m -28.0138,218.214 c -1.6286,0 -2.9488,-1.32 -2.9488,-2.949 0,-1.628 1.3202,-2.949 2.9488,-2.949 1.6286,0 2.9489,1.321 2.9489,2.949 0,1.629 -1.3203,2.949 -2.9489,2.949 z" />
      <path d="m -39.8092,218.214 c -1.6286,0 -2.9488,-1.32 -2.9488,-2.949 0,-1.628 1.3202,-2.949 2.9488,-2.949 1.6286,0 2.9489,1.321 2.9489,2.949 0,1.629 -1.3203,2.949 -2.9489,2.949 z" />
    </g>
  </g>
  <defs>
    <clipPath id="blob-grad-dots-05_clip">
      <rect
         width="160"
         height="200"
         fill="#ffffff"
         x="0"
         y="0" />
    </clipPath>
    <linearGradient id="blob-grad-dots-05_gradient" x1="0%" y1="0%" x2="100%" y2="0%" gradientUnits="userSpaceOnUse">
      <stop offset="0%" style="stop-color:rgb(85,0,255);stop-opacity:1"/>
      <stop offset="33%" style="stop-color:rgb(156,133,241);stop-opacity:1"/>
      <stop offset="66%" style="stop-color:rgb(109,255,212);stop-opacity:1"/>
      <stop offset="100%" style="stop-color:rgb(16,243,16);stop-opacity:1"/>
    </linearGradient>
  </defs>
</svg>
