<svg width="353" height="405" viewBox="0 0 353 405" fill="none" xmlns="http://www.w3.org/2000/svg">
<g clip-path="url(#clip0_677_37)">
<path d="M93.5417 238.953C91.3754 196.825 76.5859 179.079 52.8536 147.562C29.1214 116.046 -3.43933 70.4873 0.294556 39.7396C4.37652 8.85341 44.753 -7.22211 81.4809 3.13949C117.975 13.369 150.706 50.3063 172.248 68.5149C193.904 86.4527 204.37 85.6619 227.363 79.2087C250.236 72.3529 285.286 59.9734 293.738 70.1137C302.303 79.9834 284.269 112.373 297.221 149.532C309.939 186.56 353.643 228.357 352.993 251.124C352.462 274.294 307.926 278.295 275.399 301.825C242.987 325.083 222.699 367.599 191.555 389.227C160.296 411.126 118.416 412.269 102.122 379.592C86.0617 347.046 96.0561 280.943 93.5417 238.953Z" fill="#16212D"/>
</g>
<defs>
<clipPath id="clip0_677_37">
<rect width="353" height="405" fill="white"/>
</clipPath>
</defs>
</svg>
