<?xml version="1.0" encoding="UTF-8" standalone="no"?>
<svg
   width="162.52618"
   height="181.45857"
   viewBox="0 0 162.52618 181.45857"
   fill="none"
   version="1.1"
   id="svg466"
   xmlns="http://www.w3.org/2000/svg"
   xmlns:svg="http://www.w3.org/2000/svg">
  <mask
     id="blob-grad-dots-04_mask"
     maskUnits="userSpaceOnUse"
     x="0"
     y="0"
     width="163"
     height="182">
    <path
       d="M 23.7734,34.7338 C 3.68349,59.1765 -6.36148,92.3249 4.35316,113.085 c 10.54724,20.927 42.02144,29.8 70.64964,42.858 28.6282,13.059 54.2432,30.637 69.6452,24.108 15.235,-6.362 20.425,-36.664 16.742,-58.428 C 157.874,100.026 145.652,87.135 134.603,64.7013 123.553,42.1001 113.676,10.1236 93.7534,2.08761 73.8309,-5.94836 43.8634,10.1236 23.7734,34.7338 Z"
       fill="#ffffff"
       id="path1" />
  </mask>
  <g
     mask="url(#blob-grad-dots-04_mask)"
     style="fill:url(#blob-grad-dots-04_gradient)"
     id="g463">
    <path
       d="m 217.774,-43.5286 c 0,1.8492 1.499,3.3483 3.348,3.3483 1.849,0 3.348,-1.4991 3.348,-3.3483 0,-1.8493 -1.499,-3.3484 -3.348,-3.3484 -1.849,0 -3.348,1.4991 -3.348,3.3484 z"
       id="path2" />
    <path
       d="m 217.774,-30.1353 c 0,1.8492 1.499,3.3483 3.348,3.3483 1.849,0 3.348,-1.4991 3.348,-3.3483 0,-1.8493 -1.499,-3.3484 -3.348,-3.3484 -1.849,0 -3.348,1.4991 -3.348,3.3484 z"
       id="path3" />
    <path
       d="m 217.774,-16.742 c 0,1.8492 1.499,3.3483 3.348,3.3483 1.849,0 3.348,-1.4991 3.348,-3.3483 0,-1.8493 -1.499,-3.3484 -3.348,-3.3484 -1.849,0 -3.348,1.4991 -3.348,3.3484 z"
       id="path4" />
    <path
       d="m 217.774,-3.34876 c 0,1.84923 1.499,3.348327032 3.348,3.348327032 1.849,0 3.348,-1.499097032 3.348,-3.348327032 0,-1.84922 -1.499,-3.34832 -3.348,-3.34832 -1.849,0 -3.348,1.4991 -3.348,3.34832 z"
       id="path5" />
    <path
       d="m 217.774,10.0445 c 0,1.8493 1.499,3.3484 3.348,3.3484 1.849,0 3.348,-1.4991 3.348,-3.3484 0,-1.84919 -1.499,-3.34829 -3.348,-3.34829 -1.849,0 -3.348,1.4991 -3.348,3.34829 z"
       id="path6" />
    <path
       d="m 217.774,23.4378 c 0,1.8493 1.499,3.3483 3.348,3.3483 1.849,0 3.348,-1.499 3.348,-3.3483 0,-1.8492 -1.499,-3.3483 -3.348,-3.3483 -1.849,0 -3.348,1.4991 -3.348,3.3483 z"
       id="path7" />
    <path
       d="m 217.774,36.8311 c 0,1.8492 1.499,3.3483 3.348,3.3483 1.849,0 3.348,-1.4991 3.348,-3.3483 0,-1.8492 -1.499,-3.3483 -3.348,-3.3483 -1.849,0 -3.348,1.4991 -3.348,3.3483 z"
       id="path8" />
    <path
       d="m 217.774,50.2244 c 0,1.8492 1.499,3.3483 3.348,3.3483 1.849,0 3.348,-1.4991 3.348,-3.3483 0,-1.8492 -1.499,-3.3483 -3.348,-3.3483 -1.849,0 -3.348,1.4991 -3.348,3.3483 z"
       id="path9" />
    <path
       d="m 217.774,63.6177 c 0,1.8492 1.499,3.3483 3.348,3.3483 1.849,0 3.348,-1.4991 3.348,-3.3483 0,-1.8492 -1.499,-3.3483 -3.348,-3.3483 -1.849,0 -3.348,1.4991 -3.348,3.3483 z"
       id="path10" />
    <path
       d="m 217.774,77.011 c 0,1.8492 1.499,3.3483 3.348,3.3483 1.849,0 3.348,-1.4991 3.348,-3.3483 0,-1.8492 -1.499,-3.3483 -3.348,-3.3483 -1.849,0 -3.348,1.4991 -3.348,3.3483 z"
       id="path11" />
    <path
       d="m 217.774,90.4043 c 0,1.8492 1.499,3.3483 3.348,3.3483 1.849,0 3.348,-1.4991 3.348,-3.3483 0,-1.8492 -1.499,-3.3483 -3.348,-3.3483 -1.849,0 -3.348,1.4991 -3.348,3.3483 z"
       id="path12" />
    <path
       d="m 217.774,103.798 c 0,1.849 1.499,3.348 3.348,3.348 1.849,0 3.348,-1.499 3.348,-3.348 0,-1.85 -1.499,-3.349 -3.348,-3.349 -1.849,0 -3.348,1.499 -3.348,3.349 z"
       id="path13" />
    <path
       d="m 217.774,117.191 c 0,1.849 1.499,3.348 3.348,3.348 1.849,0 3.348,-1.499 3.348,-3.348 0,-1.849 -1.499,-3.348 -3.348,-3.348 -1.849,0 -3.348,1.499 -3.348,3.348 z"
       id="path14" />
    <path
       d="m 217.774,130.584 c 0,1.849 1.499,3.348 3.348,3.348 1.849,0 3.348,-1.499 3.348,-3.348 0,-1.849 -1.499,-3.348 -3.348,-3.348 -1.849,0 -3.348,1.499 -3.348,3.348 z"
       id="path15" />
    <path
       d="m 217.774,143.977 c 0,1.85 1.499,3.349 3.348,3.349 1.849,0 3.348,-1.499 3.348,-3.349 0,-1.849 -1.499,-3.348 -3.348,-3.348 -1.849,0 -3.348,1.499 -3.348,3.348 z"
       id="path16" />
    <path
       d="m 217.774,157.371 c 0,1.849 1.499,3.348 3.348,3.348 1.849,0 3.348,-1.499 3.348,-3.348 0,-1.849 -1.499,-3.349 -3.348,-3.349 -1.849,0 -3.348,1.5 -3.348,3.349 z"
       id="path17" />
    <path
       d="m 217.774,170.764 c 0,1.849 1.499,3.348 3.348,3.348 1.849,0 3.348,-1.499 3.348,-3.348 0,-1.849 -1.499,-3.348 -3.348,-3.348 -1.849,0 -3.348,1.499 -3.348,3.348 z"
       id="path18" />
    <path
       d="m 217.774,184.157 c 0,1.85 1.499,3.349 3.348,3.349 1.849,0 3.348,-1.499 3.348,-3.349 0,-1.849 -1.499,-3.348 -3.348,-3.348 -1.849,0 -3.348,1.499 -3.348,3.348 z"
       id="path19" />
    <path
       d="m 217.774,197.551 c 0,1.849 1.499,3.348 3.348,3.348 1.849,0 3.348,-1.499 3.348,-3.348 0,-1.85 -1.499,-3.349 -3.348,-3.349 -1.849,0 -3.348,1.499 -3.348,3.349 z"
       id="path20" />
    <path
       d="m 217.774,210.944 c 0,1.849 1.499,3.348 3.348,3.348 1.849,0 3.348,-1.499 3.348,-3.348 0,-1.849 -1.499,-3.348 -3.348,-3.348 -1.849,0 -3.348,1.499 -3.348,3.348 z"
       id="path21" />
    <path
       d="m 217.774,224.337 c 0,1.849 1.499,3.349 3.348,3.349 1.849,0 3.348,-1.5 3.348,-3.349 0,-1.849 -1.499,-3.348 -3.348,-3.348 -1.849,0 -3.348,1.499 -3.348,3.348 z"
       id="path22" />
    <path
       d="m 204.38,-43.5286 c 0,1.8492 1.499,3.3483 3.349,3.3483 1.849,0 3.348,-1.4991 3.348,-3.3483 0,-1.8493 -1.499,-3.3484 -3.348,-3.3484 -1.85,0 -3.349,1.4991 -3.349,3.3484 z"
       id="path23" />
    <path
       d="m 204.38,-30.1353 c 0,1.8492 1.499,3.3483 3.349,3.3483 1.849,0 3.348,-1.4991 3.348,-3.3483 0,-1.8493 -1.499,-3.3484 -3.348,-3.3484 -1.85,0 -3.349,1.4991 -3.349,3.3484 z"
       id="path24" />
    <path
       d="m 204.38,-16.742 c 0,1.8492 1.499,3.3483 3.349,3.3483 1.849,0 3.348,-1.4991 3.348,-3.3483 0,-1.8493 -1.499,-3.3484 -3.348,-3.3484 -1.85,0 -3.349,1.4991 -3.349,3.3484 z"
       id="path25" />
    <path
       d="m 204.38,-3.34876 c 0,1.84923 1.499,3.348327032 3.349,3.348327032 1.849,0 3.348,-1.499097032 3.348,-3.348327032 0,-1.84922 -1.499,-3.34832 -3.348,-3.34832 -1.85,0 -3.349,1.4991 -3.349,3.34832 z"
       id="path26" />
    <path
       d="m 204.38,10.0445 c 0,1.8493 1.499,3.3484 3.349,3.3484 1.849,0 3.348,-1.4991 3.348,-3.3484 0,-1.84919 -1.499,-3.34829 -3.348,-3.34829 -1.85,0 -3.349,1.4991 -3.349,3.34829 z"
       id="path27" />
    <path
       d="m 204.38,23.4378 c 0,1.8493 1.499,3.3483 3.349,3.3483 1.849,0 3.348,-1.499 3.348,-3.3483 0,-1.8492 -1.499,-3.3483 -3.348,-3.3483 -1.85,0 -3.349,1.4991 -3.349,3.3483 z"
       id="path28" />
    <path
       d="m 204.38,36.8311 c 0,1.8492 1.499,3.3483 3.349,3.3483 1.849,0 3.348,-1.4991 3.348,-3.3483 0,-1.8492 -1.499,-3.3483 -3.348,-3.3483 -1.85,0 -3.349,1.4991 -3.349,3.3483 z"
       id="path29" />
    <path
       d="m 204.38,50.2244 c 0,1.8492 1.499,3.3483 3.349,3.3483 1.849,0 3.348,-1.4991 3.348,-3.3483 0,-1.8492 -1.499,-3.3483 -3.348,-3.3483 -1.85,0 -3.349,1.4991 -3.349,3.3483 z"
       id="path30" />
    <path
       d="m 204.38,63.6177 c 0,1.8492 1.499,3.3483 3.349,3.3483 1.849,0 3.348,-1.4991 3.348,-3.3483 0,-1.8492 -1.499,-3.3483 -3.348,-3.3483 -1.85,0 -3.349,1.4991 -3.349,3.3483 z"
       id="path31" />
    <path
       d="m 204.38,77.011 c 0,1.8492 1.499,3.3483 3.349,3.3483 1.849,0 3.348,-1.4991 3.348,-3.3483 0,-1.8492 -1.499,-3.3483 -3.348,-3.3483 -1.85,0 -3.349,1.4991 -3.349,3.3483 z"
       id="path32" />
    <path
       d="m 204.38,90.4043 c 0,1.8492 1.499,3.3483 3.349,3.3483 1.849,0 3.348,-1.4991 3.348,-3.3483 0,-1.8492 -1.499,-3.3483 -3.348,-3.3483 -1.85,0 -3.349,1.4991 -3.349,3.3483 z"
       id="path33" />
    <path
       d="m 204.38,103.798 c 0,1.849 1.499,3.348 3.349,3.348 1.849,0 3.348,-1.499 3.348,-3.348 0,-1.85 -1.499,-3.349 -3.348,-3.349 -1.85,0 -3.349,1.499 -3.349,3.349 z"
       id="path34" />
    <path
       d="m 204.38,117.191 c 0,1.849 1.499,3.348 3.349,3.348 1.849,0 3.348,-1.499 3.348,-3.348 0,-1.849 -1.499,-3.348 -3.348,-3.348 -1.85,0 -3.349,1.499 -3.349,3.348 z"
       id="path35" />
    <path
       d="m 204.38,130.584 c 0,1.849 1.499,3.348 3.349,3.348 1.849,0 3.348,-1.499 3.348,-3.348 0,-1.849 -1.499,-3.348 -3.348,-3.348 -1.85,0 -3.349,1.499 -3.349,3.348 z"
       id="path36" />
    <path
       d="m 204.38,143.977 c 0,1.85 1.499,3.349 3.349,3.349 1.849,0 3.348,-1.499 3.348,-3.349 0,-1.849 -1.499,-3.348 -3.348,-3.348 -1.85,0 -3.349,1.499 -3.349,3.348 z"
       id="path37" />
    <path
       d="m 204.38,157.371 c 0,1.849 1.499,3.348 3.349,3.348 1.849,0 3.348,-1.499 3.348,-3.348 0,-1.849 -1.499,-3.349 -3.348,-3.349 -1.85,0 -3.349,1.5 -3.349,3.349 z"
       id="path38" />
    <path
       d="m 204.38,170.764 c 0,1.849 1.499,3.348 3.349,3.348 1.849,0 3.348,-1.499 3.348,-3.348 0,-1.849 -1.499,-3.348 -3.348,-3.348 -1.85,0 -3.349,1.499 -3.349,3.348 z"
       id="path39" />
    <path
       d="m 204.38,184.157 c 0,1.85 1.499,3.349 3.349,3.349 1.849,0 3.348,-1.499 3.348,-3.349 0,-1.849 -1.499,-3.348 -3.348,-3.348 -1.85,0 -3.349,1.499 -3.349,3.348 z"
       id="path40" />
    <path
       d="m 204.38,197.551 c 0,1.849 1.499,3.348 3.349,3.348 1.849,0 3.348,-1.499 3.348,-3.348 0,-1.85 -1.499,-3.349 -3.348,-3.349 -1.85,0 -3.349,1.499 -3.349,3.349 z"
       id="path41" />
    <path
       d="m 204.38,210.944 c 0,1.849 1.499,3.348 3.349,3.348 1.849,0 3.348,-1.499 3.348,-3.348 0,-1.849 -1.499,-3.348 -3.348,-3.348 -1.85,0 -3.349,1.499 -3.349,3.348 z"
       id="path42" />
    <path
       d="m 204.38,224.337 c 0,1.849 1.499,3.349 3.349,3.349 1.849,0 3.348,-1.5 3.348,-3.349 0,-1.849 -1.499,-3.348 -3.348,-3.348 -1.85,0 -3.349,1.499 -3.349,3.348 z"
       id="path43" />
    <path
       d="m 190.987,-43.5286 c 0,1.8492 1.499,3.3483 3.348,3.3483 1.85,0 3.349,-1.4991 3.349,-3.3483 0,-1.8493 -1.499,-3.3484 -3.349,-3.3484 -1.849,0 -3.348,1.4991 -3.348,3.3484 z"
       id="path44" />
    <path
       d="m 190.987,-30.1353 c 0,1.8492 1.499,3.3483 3.348,3.3483 1.85,0 3.349,-1.4991 3.349,-3.3483 0,-1.8493 -1.499,-3.3484 -3.349,-3.3484 -1.849,0 -3.348,1.4991 -3.348,3.3484 z"
       id="path45" />
    <path
       d="m 190.987,-16.742 c 0,1.8492 1.499,3.3483 3.348,3.3483 1.85,0 3.349,-1.4991 3.349,-3.3483 0,-1.8493 -1.499,-3.3484 -3.349,-3.3484 -1.849,0 -3.348,1.4991 -3.348,3.3484 z"
       id="path46" />
    <path
       d="m 190.987,-3.34876 c 0,1.84923 1.499,3.348327032 3.348,3.348327032 1.85,0 3.349,-1.499097032 3.349,-3.348327032 0,-1.84922 -1.499,-3.34832 -3.349,-3.34832 -1.849,0 -3.348,1.4991 -3.348,3.34832 z"
       id="path47" />
    <path
       d="m 190.987,10.0445 c 0,1.8493 1.499,3.3484 3.348,3.3484 1.85,0 3.349,-1.4991 3.349,-3.3484 0,-1.84919 -1.499,-3.34829 -3.349,-3.34829 -1.849,0 -3.348,1.4991 -3.348,3.34829 z"
       id="path48" />
    <path
       d="m 190.987,23.4378 c 0,1.8493 1.499,3.3483 3.348,3.3483 1.85,0 3.349,-1.499 3.349,-3.3483 0,-1.8492 -1.499,-3.3483 -3.349,-3.3483 -1.849,0 -3.348,1.4991 -3.348,3.3483 z"
       id="path49" />
    <path
       d="m 190.987,36.8311 c 0,1.8492 1.499,3.3483 3.348,3.3483 1.85,0 3.349,-1.4991 3.349,-3.3483 0,-1.8492 -1.499,-3.3483 -3.349,-3.3483 -1.849,0 -3.348,1.4991 -3.348,3.3483 z"
       id="path50" />
    <path
       d="m 190.987,50.2244 c 0,1.8492 1.499,3.3483 3.348,3.3483 1.85,0 3.349,-1.4991 3.349,-3.3483 0,-1.8492 -1.499,-3.3483 -3.349,-3.3483 -1.849,0 -3.348,1.4991 -3.348,3.3483 z"
       id="path51" />
    <path
       d="m 190.987,63.6177 c 0,1.8492 1.499,3.3483 3.348,3.3483 1.85,0 3.349,-1.4991 3.349,-3.3483 0,-1.8492 -1.499,-3.3483 -3.349,-3.3483 -1.849,0 -3.348,1.4991 -3.348,3.3483 z"
       id="path52" />
    <path
       d="m 190.987,77.011 c 0,1.8492 1.499,3.3483 3.348,3.3483 1.85,0 3.349,-1.4991 3.349,-3.3483 0,-1.8492 -1.499,-3.3483 -3.349,-3.3483 -1.849,0 -3.348,1.4991 -3.348,3.3483 z"
       id="path53" />
    <path
       d="m 190.987,90.4043 c 0,1.8492 1.499,3.3483 3.348,3.3483 1.85,0 3.349,-1.4991 3.349,-3.3483 0,-1.8492 -1.499,-3.3483 -3.349,-3.3483 -1.849,0 -3.348,1.4991 -3.348,3.3483 z"
       id="path54" />
    <path
       d="m 190.987,103.798 c 0,1.849 1.499,3.348 3.348,3.348 1.85,0 3.349,-1.499 3.349,-3.348 0,-1.85 -1.499,-3.349 -3.349,-3.349 -1.849,0 -3.348,1.499 -3.348,3.349 z"
       id="path55" />
    <path
       d="m 190.987,117.191 c 0,1.849 1.499,3.348 3.348,3.348 1.85,0 3.349,-1.499 3.349,-3.348 0,-1.849 -1.499,-3.348 -3.349,-3.348 -1.849,0 -3.348,1.499 -3.348,3.348 z"
       id="path56" />
    <path
       d="m 190.987,130.584 c 0,1.849 1.499,3.348 3.348,3.348 1.85,0 3.349,-1.499 3.349,-3.348 0,-1.849 -1.499,-3.348 -3.349,-3.348 -1.849,0 -3.348,1.499 -3.348,3.348 z"
       id="path57" />
    <path
       d="m 190.987,143.977 c 0,1.85 1.499,3.349 3.348,3.349 1.85,0 3.349,-1.499 3.349,-3.349 0,-1.849 -1.499,-3.348 -3.349,-3.348 -1.849,0 -3.348,1.499 -3.348,3.348 z"
       id="path58" />
    <path
       d="m 190.987,157.371 c 0,1.849 1.499,3.348 3.348,3.348 1.85,0 3.349,-1.499 3.349,-3.348 0,-1.849 -1.499,-3.349 -3.349,-3.349 -1.849,0 -3.348,1.5 -3.348,3.349 z"
       id="path59" />
    <path
       d="m 190.987,170.764 c 0,1.849 1.499,3.348 3.348,3.348 1.85,0 3.349,-1.499 3.349,-3.348 0,-1.849 -1.499,-3.348 -3.349,-3.348 -1.849,0 -3.348,1.499 -3.348,3.348 z"
       id="path60" />
    <path
       d="m 190.987,184.157 c 0,1.85 1.499,3.349 3.348,3.349 1.85,0 3.349,-1.499 3.349,-3.349 0,-1.849 -1.499,-3.348 -3.349,-3.348 -1.849,0 -3.348,1.499 -3.348,3.348 z"
       id="path61" />
    <path
       d="m 190.987,197.551 c 0,1.849 1.499,3.348 3.348,3.348 1.85,0 3.349,-1.499 3.349,-3.348 0,-1.85 -1.499,-3.349 -3.349,-3.349 -1.849,0 -3.348,1.499 -3.348,3.349 z"
       id="path62" />
    <path
       d="m 190.987,210.944 c 0,1.849 1.499,3.348 3.348,3.348 1.85,0 3.349,-1.499 3.349,-3.348 0,-1.849 -1.499,-3.348 -3.349,-3.348 -1.849,0 -3.348,1.499 -3.348,3.348 z"
       id="path63" />
    <path
       d="m 190.987,224.337 c 0,1.849 1.499,3.349 3.348,3.349 1.85,0 3.349,-1.5 3.349,-3.349 0,-1.849 -1.499,-3.348 -3.349,-3.348 -1.849,0 -3.348,1.499 -3.348,3.348 z"
       id="path64" />
    <path
       d="m 177.594,-43.5286 c 0,1.8492 1.499,3.3483 3.348,3.3483 1.849,0 3.348,-1.4991 3.348,-3.3483 0,-1.8493 -1.499,-3.3484 -3.348,-3.3484 -1.849,0 -3.348,1.4991 -3.348,3.3484 z"
       id="path65" />
    <path
       d="m 177.594,-30.1353 c 0,1.8492 1.499,3.3483 3.348,3.3483 1.849,0 3.348,-1.4991 3.348,-3.3483 0,-1.8493 -1.499,-3.3484 -3.348,-3.3484 -1.849,0 -3.348,1.4991 -3.348,3.3484 z"
       id="path66" />
    <path
       d="m 177.594,-16.742 c 0,1.8492 1.499,3.3483 3.348,3.3483 1.849,0 3.348,-1.4991 3.348,-3.3483 0,-1.8493 -1.499,-3.3484 -3.348,-3.3484 -1.849,0 -3.348,1.4991 -3.348,3.3484 z"
       id="path67" />
    <path
       d="m 177.594,-3.34876 c 0,1.84923 1.499,3.348327032 3.348,3.348327032 1.849,0 3.348,-1.499097032 3.348,-3.348327032 0,-1.84922 -1.499,-3.34832 -3.348,-3.34832 -1.849,0 -3.348,1.4991 -3.348,3.34832 z"
       id="path68" />
    <path
       d="m 177.594,10.0445 c 0,1.8493 1.499,3.3484 3.348,3.3484 1.849,0 3.348,-1.4991 3.348,-3.3484 0,-1.84919 -1.499,-3.34829 -3.348,-3.34829 -1.849,0 -3.348,1.4991 -3.348,3.34829 z"
       id="path69" />
    <path
       d="m 177.594,23.4378 c 0,1.8493 1.499,3.3483 3.348,3.3483 1.849,0 3.348,-1.499 3.348,-3.3483 0,-1.8492 -1.499,-3.3483 -3.348,-3.3483 -1.849,0 -3.348,1.4991 -3.348,3.3483 z"
       id="path70" />
    <path
       d="m 177.594,36.8311 c 0,1.8492 1.499,3.3483 3.348,3.3483 1.849,0 3.348,-1.4991 3.348,-3.3483 0,-1.8492 -1.499,-3.3483 -3.348,-3.3483 -1.849,0 -3.348,1.4991 -3.348,3.3483 z"
       id="path71" />
    <path
       d="m 177.594,50.2244 c 0,1.8492 1.499,3.3483 3.348,3.3483 1.849,0 3.348,-1.4991 3.348,-3.3483 0,-1.8492 -1.499,-3.3483 -3.348,-3.3483 -1.849,0 -3.348,1.4991 -3.348,3.3483 z"
       id="path72" />
    <path
       d="m 177.594,63.6177 c 0,1.8492 1.499,3.3483 3.348,3.3483 1.849,0 3.348,-1.4991 3.348,-3.3483 0,-1.8492 -1.499,-3.3483 -3.348,-3.3483 -1.849,0 -3.348,1.4991 -3.348,3.3483 z"
       id="path73" />
    <path
       d="m 177.594,77.011 c 0,1.8492 1.499,3.3483 3.348,3.3483 1.849,0 3.348,-1.4991 3.348,-3.3483 0,-1.8492 -1.499,-3.3483 -3.348,-3.3483 -1.849,0 -3.348,1.4991 -3.348,3.3483 z"
       id="path74" />
    <path
       d="m 177.594,90.4043 c 0,1.8492 1.499,3.3483 3.348,3.3483 1.849,0 3.348,-1.4991 3.348,-3.3483 0,-1.8492 -1.499,-3.3483 -3.348,-3.3483 -1.849,0 -3.348,1.4991 -3.348,3.3483 z"
       id="path75" />
    <path
       d="m 177.594,103.798 c 0,1.849 1.499,3.348 3.348,3.348 1.849,0 3.348,-1.499 3.348,-3.348 0,-1.85 -1.499,-3.349 -3.348,-3.349 -1.849,0 -3.348,1.499 -3.348,3.349 z"
       id="path76" />
    <path
       d="m 177.594,117.191 c 0,1.849 1.499,3.348 3.348,3.348 1.849,0 3.348,-1.499 3.348,-3.348 0,-1.849 -1.499,-3.348 -3.348,-3.348 -1.849,0 -3.348,1.499 -3.348,3.348 z"
       id="path77" />
    <path
       d="m 177.594,130.584 c 0,1.849 1.499,3.348 3.348,3.348 1.849,0 3.348,-1.499 3.348,-3.348 0,-1.849 -1.499,-3.348 -3.348,-3.348 -1.849,0 -3.348,1.499 -3.348,3.348 z"
       id="path78" />
    <path
       d="m 177.594,143.977 c 0,1.85 1.499,3.349 3.348,3.349 1.849,0 3.348,-1.499 3.348,-3.349 0,-1.849 -1.499,-3.348 -3.348,-3.348 -1.849,0 -3.348,1.499 -3.348,3.348 z"
       id="path79" />
    <path
       d="m 177.594,157.371 c 0,1.849 1.499,3.348 3.348,3.348 1.849,0 3.348,-1.499 3.348,-3.348 0,-1.849 -1.499,-3.349 -3.348,-3.349 -1.849,0 -3.348,1.5 -3.348,3.349 z"
       id="path80" />
    <path
       d="m 177.594,170.764 c 0,1.849 1.499,3.348 3.348,3.348 1.849,0 3.348,-1.499 3.348,-3.348 0,-1.849 -1.499,-3.348 -3.348,-3.348 -1.849,0 -3.348,1.499 -3.348,3.348 z"
       id="path81" />
    <path
       d="m 177.594,184.157 c 0,1.85 1.499,3.349 3.348,3.349 1.849,0 3.348,-1.499 3.348,-3.349 0,-1.849 -1.499,-3.348 -3.348,-3.348 -1.849,0 -3.348,1.499 -3.348,3.348 z"
       id="path82" />
    <path
       d="m 177.594,197.551 c 0,1.849 1.499,3.348 3.348,3.348 1.849,0 3.348,-1.499 3.348,-3.348 0,-1.85 -1.499,-3.349 -3.348,-3.349 -1.849,0 -3.348,1.499 -3.348,3.349 z"
       id="path83" />
    <path
       d="m 177.594,210.944 c 0,1.849 1.499,3.348 3.348,3.348 1.849,0 3.348,-1.499 3.348,-3.348 0,-1.849 -1.499,-3.348 -3.348,-3.348 -1.849,0 -3.348,1.499 -3.348,3.348 z"
       id="path84" />
    <path
       d="m 177.594,224.337 c 0,1.849 1.499,3.349 3.348,3.349 1.849,0 3.348,-1.5 3.348,-3.349 0,-1.849 -1.499,-3.348 -3.348,-3.348 -1.849,0 -3.348,1.499 -3.348,3.348 z"
       id="path85" />
    <path
       d="m 164.2,-43.5286 c 0,1.8492 1.499,3.3483 3.349,3.3483 1.849,0 3.348,-1.4991 3.348,-3.3483 0,-1.8493 -1.499,-3.3484 -3.348,-3.3484 -1.85,0 -3.349,1.4991 -3.349,3.3484 z"
       id="path86" />
    <path
       d="m 164.2,-30.1353 c 0,1.8492 1.499,3.3483 3.349,3.3483 1.849,0 3.348,-1.4991 3.348,-3.3483 0,-1.8493 -1.499,-3.3484 -3.348,-3.3484 -1.85,0 -3.349,1.4991 -3.349,3.3484 z"
       id="path87" />
    <path
       d="m 164.2,-16.742 c 0,1.8492 1.499,3.3483 3.349,3.3483 1.849,0 3.348,-1.4991 3.348,-3.3483 0,-1.8493 -1.499,-3.3484 -3.348,-3.3484 -1.85,0 -3.349,1.4991 -3.349,3.3484 z"
       id="path88" />
    <path
       d="m 164.2,-3.34876 c 0,1.84923 1.499,3.348327032 3.349,3.348327032 1.849,0 3.348,-1.499097032 3.348,-3.348327032 0,-1.84922 -1.499,-3.34832 -3.348,-3.34832 -1.85,0 -3.349,1.4991 -3.349,3.34832 z"
       id="path89" />
    <path
       d="m 164.2,10.0445 c 0,1.8493 1.499,3.3484 3.349,3.3484 1.849,0 3.348,-1.4991 3.348,-3.3484 0,-1.84919 -1.499,-3.34829 -3.348,-3.34829 -1.85,0 -3.349,1.4991 -3.349,3.34829 z"
       id="path90" />
    <path
       d="m 164.2,23.4378 c 0,1.8493 1.499,3.3483 3.349,3.3483 1.849,0 3.348,-1.499 3.348,-3.3483 0,-1.8492 -1.499,-3.3483 -3.348,-3.3483 -1.85,0 -3.349,1.4991 -3.349,3.3483 z"
       id="path91" />
    <path
       d="m 164.2,36.8311 c 0,1.8492 1.499,3.3483 3.349,3.3483 1.849,0 3.348,-1.4991 3.348,-3.3483 0,-1.8492 -1.499,-3.3483 -3.348,-3.3483 -1.85,0 -3.349,1.4991 -3.349,3.3483 z"
       id="path92" />
    <path
       d="m 164.2,50.2244 c 0,1.8492 1.499,3.3483 3.349,3.3483 1.849,0 3.348,-1.4991 3.348,-3.3483 0,-1.8492 -1.499,-3.3483 -3.348,-3.3483 -1.85,0 -3.349,1.4991 -3.349,3.3483 z"
       id="path93" />
    <path
       d="m 164.2,63.6177 c 0,1.8492 1.499,3.3483 3.349,3.3483 1.849,0 3.348,-1.4991 3.348,-3.3483 0,-1.8492 -1.499,-3.3483 -3.348,-3.3483 -1.85,0 -3.349,1.4991 -3.349,3.3483 z"
       id="path94" />
    <path
       d="m 164.2,77.011 c 0,1.8492 1.499,3.3483 3.349,3.3483 1.849,0 3.348,-1.4991 3.348,-3.3483 0,-1.8492 -1.499,-3.3483 -3.348,-3.3483 -1.85,0 -3.349,1.4991 -3.349,3.3483 z"
       id="path95" />
    <path
       d="m 164.2,90.4043 c 0,1.8492 1.499,3.3483 3.349,3.3483 1.849,0 3.348,-1.4991 3.348,-3.3483 0,-1.8492 -1.499,-3.3483 -3.348,-3.3483 -1.85,0 -3.349,1.4991 -3.349,3.3483 z"
       id="path96" />
    <path
       d="m 164.2,103.798 c 0,1.849 1.499,3.348 3.349,3.348 1.849,0 3.348,-1.499 3.348,-3.348 0,-1.85 -1.499,-3.349 -3.348,-3.349 -1.85,0 -3.349,1.499 -3.349,3.349 z"
       id="path97" />
    <path
       d="m 164.2,117.191 c 0,1.849 1.499,3.348 3.349,3.348 1.849,0 3.348,-1.499 3.348,-3.348 0,-1.849 -1.499,-3.348 -3.348,-3.348 -1.85,0 -3.349,1.499 -3.349,3.348 z"
       id="path98" />
    <path
       d="m 164.2,130.584 c 0,1.849 1.499,3.348 3.349,3.348 1.849,0 3.348,-1.499 3.348,-3.348 0,-1.849 -1.499,-3.348 -3.348,-3.348 -1.85,0 -3.349,1.499 -3.349,3.348 z"
       id="path99" />
    <path
       d="m 164.2,143.977 c 0,1.85 1.499,3.349 3.349,3.349 1.849,0 3.348,-1.499 3.348,-3.349 0,-1.849 -1.499,-3.348 -3.348,-3.348 -1.85,0 -3.349,1.499 -3.349,3.348 z"
       id="path100" />
    <path
       d="m 164.2,157.371 c 0,1.849 1.499,3.348 3.349,3.348 1.849,0 3.348,-1.499 3.348,-3.348 0,-1.849 -1.499,-3.349 -3.348,-3.349 -1.85,0 -3.349,1.5 -3.349,3.349 z"
       id="path101" />
    <path
       d="m 164.2,170.764 c 0,1.849 1.499,3.348 3.349,3.348 1.849,0 3.348,-1.499 3.348,-3.348 0,-1.849 -1.499,-3.348 -3.348,-3.348 -1.85,0 -3.349,1.499 -3.349,3.348 z"
       id="path102" />
    <path
       d="m 164.2,184.157 c 0,1.85 1.499,3.349 3.349,3.349 1.849,0 3.348,-1.499 3.348,-3.349 0,-1.849 -1.499,-3.348 -3.348,-3.348 -1.85,0 -3.349,1.499 -3.349,3.348 z"
       id="path103" />
    <path
       d="m 164.2,197.551 c 0,1.849 1.499,3.348 3.349,3.348 1.849,0 3.348,-1.499 3.348,-3.348 0,-1.85 -1.499,-3.349 -3.348,-3.349 -1.85,0 -3.349,1.499 -3.349,3.349 z"
       id="path104" />
    <path
       d="m 164.2,210.944 c 0,1.849 1.499,3.348 3.349,3.348 1.849,0 3.348,-1.499 3.348,-3.348 0,-1.849 -1.499,-3.348 -3.348,-3.348 -1.85,0 -3.349,1.499 -3.349,3.348 z"
       id="path105" />
    <path
       d="m 164.2,224.337 c 0,1.849 1.499,3.349 3.349,3.349 1.849,0 3.348,-1.5 3.348,-3.349 0,-1.849 -1.499,-3.348 -3.348,-3.348 -1.85,0 -3.349,1.499 -3.349,3.348 z"
       id="path106" />
    <path
       d="m 150.807,-43.5286 c 0,1.8492 1.499,3.3483 3.348,3.3483 1.85,0 3.349,-1.4991 3.349,-3.3483 0,-1.8493 -1.499,-3.3484 -3.349,-3.3484 -1.849,0 -3.348,1.4991 -3.348,3.3484 z"
       id="path107" />
    <path
       d="m 150.807,-30.1353 c 0,1.8492 1.499,3.3483 3.348,3.3483 1.85,0 3.349,-1.4991 3.349,-3.3483 0,-1.8493 -1.499,-3.3484 -3.349,-3.3484 -1.849,0 -3.348,1.4991 -3.348,3.3484 z"
       id="path108" />
    <path
       d="m 150.807,-16.742 c 0,1.8492 1.499,3.3483 3.348,3.3483 1.85,0 3.349,-1.4991 3.349,-3.3483 0,-1.8493 -1.499,-3.3484 -3.349,-3.3484 -1.849,0 -3.348,1.4991 -3.348,3.3484 z"
       id="path109" />
    <path
       d="m 150.807,-3.34876 c 0,1.84923 1.499,3.348327032 3.348,3.348327032 1.85,0 3.349,-1.499097032 3.349,-3.348327032 0,-1.84922 -1.499,-3.34832 -3.349,-3.34832 -1.849,0 -3.348,1.4991 -3.348,3.34832 z"
       id="path110" />
    <path
       d="m 150.807,10.0445 c 0,1.8493 1.499,3.3484 3.348,3.3484 1.85,0 3.349,-1.4991 3.349,-3.3484 0,-1.84919 -1.499,-3.34829 -3.349,-3.34829 -1.849,0 -3.348,1.4991 -3.348,3.34829 z"
       id="path111" />
    <path
       d="m 150.807,23.4378 c 0,1.8493 1.499,3.3483 3.348,3.3483 1.85,0 3.349,-1.499 3.349,-3.3483 0,-1.8492 -1.499,-3.3483 -3.349,-3.3483 -1.849,0 -3.348,1.4991 -3.348,3.3483 z"
       id="path112" />
    <path
       d="m 150.807,36.8311 c 0,1.8492 1.499,3.3483 3.348,3.3483 1.85,0 3.349,-1.4991 3.349,-3.3483 0,-1.8492 -1.499,-3.3483 -3.349,-3.3483 -1.849,0 -3.348,1.4991 -3.348,3.3483 z"
       id="path113" />
    <path
       d="m 150.807,50.2244 c 0,1.8492 1.499,3.3483 3.348,3.3483 1.85,0 3.349,-1.4991 3.349,-3.3483 0,-1.8492 -1.499,-3.3483 -3.349,-3.3483 -1.849,0 -3.348,1.4991 -3.348,3.3483 z"
       id="path114" />
    <path
       d="m 150.807,63.6177 c 0,1.8492 1.499,3.3483 3.348,3.3483 1.85,0 3.349,-1.4991 3.349,-3.3483 0,-1.8492 -1.499,-3.3483 -3.349,-3.3483 -1.849,0 -3.348,1.4991 -3.348,3.3483 z"
       id="path115" />
    <path
       d="m 150.807,77.011 c 0,1.8492 1.499,3.3483 3.348,3.3483 1.85,0 3.349,-1.4991 3.349,-3.3483 0,-1.8492 -1.499,-3.3483 -3.349,-3.3483 -1.849,0 -3.348,1.4991 -3.348,3.3483 z"
       id="path116" />
    <path
       d="m 150.807,90.4043 c 0,1.8492 1.499,3.3483 3.348,3.3483 1.85,0 3.349,-1.4991 3.349,-3.3483 0,-1.8492 -1.499,-3.3483 -3.349,-3.3483 -1.849,0 -3.348,1.4991 -3.348,3.3483 z"
       id="path117" />
    <path
       d="m 150.807,117.191 c 0,1.849 1.499,3.348 3.348,3.348 1.85,0 3.349,-1.499 3.349,-3.348 0,-1.849 -1.499,-3.348 -3.349,-3.348 -1.849,0 -3.348,1.499 -3.348,3.348 z"
       id="path119" />
    <path
       d="m 150.807,130.584 c 0,1.849 1.499,3.348 3.348,3.348 1.85,0 3.349,-1.499 3.349,-3.348 0,-1.849 -1.499,-3.348 -3.349,-3.348 -1.849,0 -3.348,1.499 -3.348,3.348 z"
       id="path120" />
    <path
       d="m 150.807,143.977 c 0,1.85 1.499,3.349 3.348,3.349 1.85,0 3.349,-1.499 3.349,-3.349 0,-1.849 -1.499,-3.348 -3.349,-3.348 -1.849,0 -3.348,1.499 -3.348,3.348 z"
       id="path121" />
    <path
       d="m 150.807,157.371 c 0,1.849 1.499,3.348 3.348,3.348 1.85,0 3.349,-1.499 3.349,-3.348 0,-1.849 -1.499,-3.349 -3.349,-3.349 -1.849,0 -3.348,1.5 -3.348,3.349 z"
       id="path122" />
    <path
       d="m 150.807,184.157 c 0,1.85 1.499,3.349 3.348,3.349 1.85,0 3.349,-1.499 3.349,-3.349 0,-1.849 -1.499,-3.348 -3.349,-3.348 -1.849,0 -3.348,1.499 -3.348,3.348 z"
       id="path124" />
    <path
       d="m 150.807,197.551 c 0,1.849 1.499,3.348 3.348,3.348 1.85,0 3.349,-1.499 3.349,-3.348 0,-1.85 -1.499,-3.349 -3.349,-3.349 -1.849,0 -3.348,1.499 -3.348,3.349 z"
       id="path125" />
    <path
       d="m 150.807,210.944 c 0,1.849 1.499,3.348 3.348,3.348 1.85,0 3.349,-1.499 3.349,-3.348 0,-1.849 -1.499,-3.348 -3.349,-3.348 -1.849,0 -3.348,1.499 -3.348,3.348 z"
       id="path126" />
    <path
       d="m 150.807,224.337 c 0,1.849 1.499,3.349 3.348,3.349 1.85,0 3.349,-1.5 3.349,-3.349 0,-1.849 -1.499,-3.348 -3.349,-3.348 -1.849,0 -3.348,1.499 -3.348,3.348 z"
       id="path127" />
    <path
       d="m 137.414,-43.5286 c 0,1.8492 1.499,3.3483 3.348,3.3483 1.849,0 3.348,-1.4991 3.348,-3.3483 0,-1.8493 -1.499,-3.3484 -3.348,-3.3484 -1.849,0 -3.348,1.4991 -3.348,3.3484 z"
       id="path128" />
    <path
       d="m 137.414,-30.1353 c 0,1.8492 1.499,3.3483 3.348,3.3483 1.849,0 3.348,-1.4991 3.348,-3.3483 0,-1.8493 -1.499,-3.3484 -3.348,-3.3484 -1.849,0 -3.348,1.4991 -3.348,3.3484 z"
       id="path129" />
    <path
       d="m 137.414,-16.742 c 0,1.8492 1.499,3.3483 3.348,3.3483 1.849,0 3.348,-1.4991 3.348,-3.3483 0,-1.8493 -1.499,-3.3484 -3.348,-3.3484 -1.849,0 -3.348,1.4991 -3.348,3.3484 z"
       id="path130" />
    <path
       d="m 137.414,-3.34876 c 0,1.84923 1.499,3.348327032 3.348,3.348327032 1.849,0 3.348,-1.499097032 3.348,-3.348327032 0,-1.84922 -1.499,-3.34832 -3.348,-3.34832 -1.849,0 -3.348,1.4991 -3.348,3.34832 z"
       id="path131" />
    <path
       d="m 137.414,10.0445 c 0,1.8493 1.499,3.3484 3.348,3.3484 1.849,0 3.348,-1.4991 3.348,-3.3484 0,-1.84919 -1.499,-3.34829 -3.348,-3.34829 -1.849,0 -3.348,1.4991 -3.348,3.34829 z"
       id="path132" />
    <path
       d="m 137.414,23.4378 c 0,1.8493 1.499,3.3483 3.348,3.3483 1.849,0 3.348,-1.499 3.348,-3.3483 0,-1.8492 -1.499,-3.3483 -3.348,-3.3483 -1.849,0 -3.348,1.4991 -3.348,3.3483 z"
       id="path133" />
    <path
       d="m 137.414,36.8311 c 0,1.8492 1.499,3.3483 3.348,3.3483 1.849,0 3.348,-1.4991 3.348,-3.3483 0,-1.8492 -1.499,-3.3483 -3.348,-3.3483 -1.849,0 -3.348,1.4991 -3.348,3.3483 z"
       id="path134" />
    <path
       d="m 137.414,50.2244 c 0,1.8492 1.499,3.3483 3.348,3.3483 1.849,0 3.348,-1.4991 3.348,-3.3483 0,-1.8492 -1.499,-3.3483 -3.348,-3.3483 -1.849,0 -3.348,1.4991 -3.348,3.3483 z"
       id="path135" />
    <path
       d="m 137.414,63.6177 c 0,1.8492 1.499,3.3483 3.348,3.3483 1.849,0 3.348,-1.4991 3.348,-3.3483 0,-1.8492 -1.499,-3.3483 -3.348,-3.3483 -1.849,0 -3.348,1.4991 -3.348,3.3483 z"
       id="path136" />
    <path
       d="m 137.414,90.4043 c 0,1.8492 1.499,3.3483 3.348,3.3483 1.849,0 3.348,-1.4991 3.348,-3.3483 0,-1.8492 -1.499,-3.3483 -3.348,-3.3483 -1.849,0 -3.348,1.4991 -3.348,3.3483 z"
       id="path138" />
    <path
       d="m 137.414,103.798 c 0,1.849 1.499,3.348 3.348,3.348 1.849,0 3.348,-1.499 3.348,-3.348 0,-1.85 -1.499,-3.349 -3.348,-3.349 -1.849,0 -3.348,1.499 -3.348,3.349 z"
       id="path139" />
    <path
       d="m 137.414,117.191 c 0,1.849 1.499,3.348 3.348,3.348 1.849,0 3.348,-1.499 3.348,-3.348 0,-1.849 -1.499,-3.348 -3.348,-3.348 -1.849,0 -3.348,1.499 -3.348,3.348 z"
       id="path140" />
    <path
       d="m 137.414,130.584 c 0,1.849 1.499,3.348 3.348,3.348 1.849,0 3.348,-1.499 3.348,-3.348 0,-1.849 -1.499,-3.348 -3.348,-3.348 -1.849,0 -3.348,1.499 -3.348,3.348 z"
       id="path141" />
    <path
       d="m 137.414,143.977 c 0,1.85 1.499,3.349 3.348,3.349 1.849,0 3.348,-1.499 3.348,-3.349 0,-1.849 -1.499,-3.348 -3.348,-3.348 -1.849,0 -3.348,1.499 -3.348,3.348 z"
       id="path142" />
    <path
       d="m 137.414,157.371 c 0,1.849 1.499,3.348 3.348,3.348 1.849,0 3.348,-1.499 3.348,-3.348 0,-1.849 -1.499,-3.349 -3.348,-3.349 -1.849,0 -3.348,1.5 -3.348,3.349 z"
       id="path143" />
    <path
       d="m 137.414,170.764 c 0,1.849 1.499,3.348 3.348,3.348 1.849,0 3.348,-1.499 3.348,-3.348 0,-1.849 -1.499,-3.348 -3.348,-3.348 -1.849,0 -3.348,1.499 -3.348,3.348 z"
       id="path144" />
    <path
       d="m 137.414,197.551 c 0,1.849 1.499,3.348 3.348,3.348 1.849,0 3.348,-1.499 3.348,-3.348 0,-1.85 -1.499,-3.349 -3.348,-3.349 -1.849,0 -3.348,1.499 -3.348,3.349 z"
       id="path146" />
    <path
       d="m 137.414,210.944 c 0,1.849 1.499,3.348 3.348,3.348 1.849,0 3.348,-1.499 3.348,-3.348 0,-1.849 -1.499,-3.348 -3.348,-3.348 -1.849,0 -3.348,1.499 -3.348,3.348 z"
       id="path147" />
    <path
       d="m 137.414,224.337 c 0,1.849 1.499,3.349 3.348,3.349 1.849,0 3.348,-1.5 3.348,-3.349 0,-1.849 -1.499,-3.348 -3.348,-3.348 -1.849,0 -3.348,1.499 -3.348,3.348 z"
       id="path148" />
    <path
       d="m 124.021,-43.5286 c 0,1.8492 1.499,3.3483 3.348,3.3483 1.849,0 3.348,-1.4991 3.348,-3.3483 0,-1.8493 -1.499,-3.3484 -3.348,-3.3484 -1.849,0 -3.348,1.4991 -3.348,3.3484 z"
       id="path149" />
    <path
       d="m 124.021,-30.1353 c 0,1.8492 1.499,3.3483 3.348,3.3483 1.849,0 3.348,-1.4991 3.348,-3.3483 0,-1.8493 -1.499,-3.3484 -3.348,-3.3484 -1.849,0 -3.348,1.4991 -3.348,3.3484 z"
       id="path150" />
    <path
       d="m 124.021,-16.742 c 0,1.8492 1.499,3.3483 3.348,3.3483 1.849,0 3.348,-1.4991 3.348,-3.3483 0,-1.8493 -1.499,-3.3484 -3.348,-3.3484 -1.849,0 -3.348,1.4991 -3.348,3.3484 z"
       id="path151" />
    <path
       d="m 124.021,-3.34876 c 0,1.84923 1.499,3.348327032 3.348,3.348327032 1.849,0 3.348,-1.499097032 3.348,-3.348327032 0,-1.84922 -1.499,-3.34832 -3.348,-3.34832 -1.849,0 -3.348,1.4991 -3.348,3.34832 z"
       id="path152" />
    <path
       d="m 124.021,10.0445 c 0,1.8493 1.499,3.3484 3.348,3.3484 1.849,0 3.348,-1.4991 3.348,-3.3484 0,-1.84919 -1.499,-3.34829 -3.348,-3.34829 -1.849,0 -3.348,1.4991 -3.348,3.34829 z"
       id="path153" />
    <path
       d="m 124.021,23.4378 c 0,1.8493 1.499,3.3483 3.348,3.3483 1.849,0 3.348,-1.499 3.348,-3.3483 0,-1.8492 -1.499,-3.3483 -3.348,-3.3483 -1.849,0 -3.348,1.4991 -3.348,3.3483 z"
       id="path154" />
    <path
       d="m 124.021,36.8311 c 0,1.8492 1.499,3.3483 3.348,3.3483 1.849,0 3.348,-1.4991 3.348,-3.3483 0,-1.8492 -1.499,-3.3483 -3.348,-3.3483 -1.849,0 -3.348,1.4991 -3.348,3.3483 z"
       id="path155" />
    <path
       d="m 124.021,63.6177 c 0,1.8492 1.499,3.3483 3.348,3.3483 1.849,0 3.348,-1.4991 3.348,-3.3483 0,-1.8492 -1.499,-3.3483 -3.348,-3.3483 -1.849,0 -3.348,1.4991 -3.348,3.3483 z"
       id="path157" />
    <path
       d="m 124.021,77.011 c 0,1.8492 1.499,3.3483 3.348,3.3483 1.849,0 3.348,-1.4991 3.348,-3.3483 0,-1.8492 -1.499,-3.3483 -3.348,-3.3483 -1.849,0 -3.348,1.4991 -3.348,3.3483 z"
       id="path158" />
    <path
       d="m 124.021,90.4043 c 0,1.8492 1.499,3.3483 3.348,3.3483 1.849,0 3.348,-1.4991 3.348,-3.3483 0,-1.8492 -1.499,-3.3483 -3.348,-3.3483 -1.849,0 -3.348,1.4991 -3.348,3.3483 z"
       id="path159" />
    <path
       d="m 124.021,103.798 c 0,1.849 1.499,3.348 3.348,3.348 1.849,0 3.348,-1.499 3.348,-3.348 0,-1.85 -1.499,-3.349 -3.348,-3.349 -1.849,0 -3.348,1.499 -3.348,3.349 z"
       id="path160" />
    <path
       d="m 124.021,117.191 c 0,1.849 1.499,3.348 3.348,3.348 1.849,0 3.348,-1.499 3.348,-3.348 0,-1.849 -1.499,-3.348 -3.348,-3.348 -1.849,0 -3.348,1.499 -3.348,3.348 z"
       id="path161" />
    <path
       d="m 124.021,130.584 c 0,1.849 1.499,3.348 3.348,3.348 1.849,0 3.348,-1.499 3.348,-3.348 0,-1.849 -1.499,-3.348 -3.348,-3.348 -1.849,0 -3.348,1.499 -3.348,3.348 z"
       id="path162" />
    <path
       d="m 124.021,143.977 c 0,1.85 1.499,3.349 3.348,3.349 1.849,0 3.348,-1.499 3.348,-3.349 0,-1.849 -1.499,-3.348 -3.348,-3.348 -1.849,0 -3.348,1.499 -3.348,3.348 z"
       id="path163" />
    <path
       d="m 124.021,157.371 c 0,1.849 1.499,3.348 3.348,3.348 1.849,0 3.348,-1.499 3.348,-3.348 0,-1.849 -1.499,-3.349 -3.348,-3.349 -1.849,0 -3.348,1.5 -3.348,3.349 z"
       id="path164" />
    <path
       d="m 124.021,170.764 c 0,1.849 1.499,3.348 3.348,3.348 1.849,0 3.348,-1.499 3.348,-3.348 0,-1.849 -1.499,-3.348 -3.348,-3.348 -1.849,0 -3.348,1.499 -3.348,3.348 z"
       id="path165" />
    <path
       d="m 124.021,184.157 c 0,1.85 1.499,3.349 3.348,3.349 1.849,0 3.348,-1.499 3.348,-3.349 0,-1.849 -1.499,-3.348 -3.348,-3.348 -1.849,0 -3.348,1.499 -3.348,3.348 z"
       id="path166" />
    <path
       d="m 124.021,197.551 c 0,1.849 1.499,3.348 3.348,3.348 1.849,0 3.348,-1.499 3.348,-3.348 0,-1.85 -1.499,-3.349 -3.348,-3.349 -1.849,0 -3.348,1.499 -3.348,3.349 z"
       id="path167" />
    <path
       d="m 124.021,210.944 c 0,1.849 1.499,3.348 3.348,3.348 1.849,0 3.348,-1.499 3.348,-3.348 0,-1.849 -1.499,-3.348 -3.348,-3.348 -1.849,0 -3.348,1.499 -3.348,3.348 z"
       id="path168" />
    <path
       d="m 124.021,224.337 c 0,1.849 1.499,3.349 3.348,3.349 1.849,0 3.348,-1.5 3.348,-3.349 0,-1.849 -1.499,-3.348 -3.348,-3.348 -1.849,0 -3.348,1.499 -3.348,3.348 z"
       id="path169" />
    <path
       d="m 110.627,-43.5286 c 0,1.8492 1.499,3.3483 3.349,3.3483 1.849,0 3.348,-1.4991 3.348,-3.3483 0,-1.8493 -1.499,-3.3484 -3.348,-3.3484 -1.85,0 -3.349,1.4991 -3.349,3.3484 z"
       id="path170" />
    <path
       d="m 110.627,-30.1353 c 0,1.8492 1.499,3.3483 3.349,3.3483 1.849,0 3.348,-1.4991 3.348,-3.3483 0,-1.8493 -1.499,-3.3484 -3.348,-3.3484 -1.85,0 -3.349,1.4991 -3.349,3.3484 z"
       id="path171" />
    <path
       d="m 110.627,-16.742 c 0,1.8492 1.499,3.3483 3.349,3.3483 1.849,0 3.348,-1.4991 3.348,-3.3483 0,-1.8493 -1.499,-3.3484 -3.348,-3.3484 -1.85,0 -3.349,1.4991 -3.349,3.3484 z"
       id="path172" />
    <path
       d="m 110.627,-3.34876 c 0,1.84923 1.499,3.348327032 3.349,3.348327032 1.849,0 3.348,-1.499097032 3.348,-3.348327032 0,-1.84922 -1.499,-3.34832 -3.348,-3.34832 -1.85,0 -3.349,1.4991 -3.349,3.34832 z"
       id="path173" />
    <path
       d="m 110.627,10.0445 c 0,1.8493 1.499,3.3484 3.349,3.3484 1.849,0 3.348,-1.4991 3.348,-3.3484 0,-1.84919 -1.499,-3.34829 -3.348,-3.34829 -1.85,0 -3.349,1.4991 -3.349,3.34829 z"
       id="path174" />
    <path
       d="m 110.627,36.8311 c 0,1.8492 1.499,3.3483 3.349,3.3483 1.849,0 3.348,-1.4991 3.348,-3.3483 0,-1.8492 -1.499,-3.3483 -3.348,-3.3483 -1.85,0 -3.349,1.4991 -3.349,3.3483 z"
       id="path176" />
    <path
       d="m 110.627,50.2244 c 0,1.8492 1.499,3.3483 3.349,3.3483 1.849,0 3.348,-1.4991 3.348,-3.3483 0,-1.8492 -1.499,-3.3483 -3.348,-3.3483 -1.85,0 -3.349,1.4991 -3.349,3.3483 z"
       id="path177" />
    <path
       d="m 110.627,63.6177 c 0,1.8492 1.499,3.3483 3.349,3.3483 1.849,0 3.348,-1.4991 3.348,-3.3483 0,-1.8492 -1.499,-3.3483 -3.348,-3.3483 -1.85,0 -3.349,1.4991 -3.349,3.3483 z"
       id="path178" />
    <path
       d="m 110.627,77.011 c 0,1.8492 1.499,3.3483 3.349,3.3483 1.849,0 3.348,-1.4991 3.348,-3.3483 0,-1.8492 -1.499,-3.3483 -3.348,-3.3483 -1.85,0 -3.349,1.4991 -3.349,3.3483 z"
       id="path179" />
    <path
       d="m 110.627,90.4043 c 0,1.8492 1.499,3.3483 3.349,3.3483 1.849,0 3.348,-1.4991 3.348,-3.3483 0,-1.8492 -1.499,-3.3483 -3.348,-3.3483 -1.85,0 -3.349,1.4991 -3.349,3.3483 z"
       id="path180" />
    <path
       d="m 110.627,103.798 c 0,1.849 1.499,3.348 3.349,3.348 1.849,0 3.348,-1.499 3.348,-3.348 0,-1.85 -1.499,-3.349 -3.348,-3.349 -1.85,0 -3.349,1.499 -3.349,3.349 z"
       id="path181" />
    <path
       d="m 110.627,117.191 c 0,1.849 1.499,3.348 3.349,3.348 1.849,0 3.348,-1.499 3.348,-3.348 0,-1.849 -1.499,-3.348 -3.348,-3.348 -1.85,0 -3.349,1.499 -3.349,3.348 z"
       id="path182" />
    <path
       d="m 110.627,130.584 c 0,1.849 1.499,3.348 3.349,3.348 1.849,0 3.348,-1.499 3.348,-3.348 0,-1.849 -1.499,-3.348 -3.348,-3.348 -1.85,0 -3.349,1.499 -3.349,3.348 z"
       id="path183" />
    <path
       d="m 110.627,143.977 c 0,1.85 1.499,3.349 3.349,3.349 1.849,0 3.348,-1.499 3.348,-3.349 0,-1.849 -1.499,-3.348 -3.348,-3.348 -1.85,0 -3.349,1.499 -3.349,3.348 z"
       id="path184" />
    <path
       d="m 110.627,157.371 c 0,1.849 1.499,3.348 3.349,3.348 1.849,0 3.348,-1.499 3.348,-3.348 0,-1.849 -1.499,-3.349 -3.348,-3.349 -1.85,0 -3.349,1.5 -3.349,3.349 z"
       id="path185" />
    <path
       d="m 110.627,170.764 c 0,1.849 1.499,3.348 3.349,3.348 1.849,0 3.348,-1.499 3.348,-3.348 0,-1.849 -1.499,-3.348 -3.348,-3.348 -1.85,0 -3.349,1.499 -3.349,3.348 z"
       id="path186" />
    <path
       d="m 110.627,184.157 c 0,1.85 1.499,3.349 3.349,3.349 1.849,0 3.348,-1.499 3.348,-3.349 0,-1.849 -1.499,-3.348 -3.348,-3.348 -1.85,0 -3.349,1.499 -3.349,3.348 z"
       id="path187" />
    <path
       d="m 110.627,197.551 c 0,1.849 1.499,3.348 3.349,3.348 1.849,0 3.348,-1.499 3.348,-3.348 0,-1.85 -1.499,-3.349 -3.348,-3.349 -1.85,0 -3.349,1.499 -3.349,3.349 z"
       id="path188" />
    <path
       d="m 110.627,210.944 c 0,1.849 1.499,3.348 3.349,3.348 1.849,0 3.348,-1.499 3.348,-3.348 0,-1.849 -1.499,-3.348 -3.348,-3.348 -1.85,0 -3.349,1.499 -3.349,3.348 z"
       id="path189" />
    <path
       d="m 110.627,224.337 c 0,1.849 1.499,3.349 3.349,3.349 1.849,0 3.348,-1.5 3.348,-3.349 0,-1.849 -1.499,-3.348 -3.348,-3.348 -1.85,0 -3.349,1.499 -3.349,3.348 z"
       id="path190" />
    <path
       d="m 97.2339,-43.5286 c 0,1.8492 1.4991,3.3483 3.3481,3.3483 1.849,0 3.349,-1.4991 3.349,-3.3483 0,-1.8493 -1.5,-3.3484 -3.349,-3.3484 -1.849,0 -3.3481,1.4991 -3.3481,3.3484 z"
       id="path191" />
    <path
       d="m 97.2339,-30.1353 c 0,1.8492 1.4991,3.3483 3.3481,3.3483 1.849,0 3.349,-1.4991 3.349,-3.3483 0,-1.8493 -1.5,-3.3484 -3.349,-3.3484 -1.849,0 -3.3481,1.4991 -3.3481,3.3484 z"
       id="path192" />
    <path
       d="m 97.2339,-16.742 c 0,1.8492 1.4991,3.3483 3.3481,3.3483 1.849,0 3.349,-1.4991 3.349,-3.3483 0,-1.8493 -1.5,-3.3484 -3.349,-3.3484 -1.849,0 -3.3481,1.4991 -3.3481,3.3484 z"
       id="path193" />
    <path
       d="m 97.2339,-3.34876 c 0,1.84923 1.4991,3.348327032 3.3481,3.348327032 1.849,0 3.349,-1.499097032 3.349,-3.348327032 0,-1.84922 -1.5,-3.34832 -3.349,-3.34832 -1.849,0 -3.3481,1.4991 -3.3481,3.34832 z"
       id="path194" />
    <path
       d="m 97.2339,10.0445 c 0,1.8493 1.4991,3.3484 3.3481,3.3484 1.849,0 3.349,-1.4991 3.349,-3.3484 0,-1.84919 -1.5,-3.34829 -3.349,-3.34829 -1.849,0 -3.3481,1.4991 -3.3481,3.34829 z"
       id="path195" />
    <path
       d="m 97.2339,23.4378 c 0,1.8493 1.4991,3.3483 3.3481,3.3483 1.849,0 3.349,-1.499 3.349,-3.3483 0,-1.8492 -1.5,-3.3483 -3.349,-3.3483 -1.849,0 -3.3481,1.4991 -3.3481,3.3483 z"
       id="path196" />
    <path
       d="m 97.2339,36.8311 c 0,1.8492 1.4991,3.3483 3.3481,3.3483 1.849,0 3.349,-1.4991 3.349,-3.3483 0,-1.8492 -1.5,-3.3483 -3.349,-3.3483 -1.849,0 -3.3481,1.4991 -3.3481,3.3483 z"
       id="path197" />
    <path
       d="m 97.2339,50.2244 c 0,1.8492 1.4991,3.3483 3.3481,3.3483 1.849,0 3.349,-1.4991 3.349,-3.3483 0,-1.8492 -1.5,-3.3483 -3.349,-3.3483 -1.849,0 -3.3481,1.4991 -3.3481,3.3483 z"
       id="path198" />
    <path
       d="m 97.2339,63.6177 c 0,1.8492 1.4991,3.3483 3.3481,3.3483 1.849,0 3.349,-1.4991 3.349,-3.3483 0,-1.8492 -1.5,-3.3483 -3.349,-3.3483 -1.849,0 -3.3481,1.4991 -3.3481,3.3483 z"
       id="path199" />
    <path
       d="m 97.2339,77.011 c 0,1.8492 1.4991,3.3483 3.3481,3.3483 1.849,0 3.349,-1.4991 3.349,-3.3483 0,-1.8492 -1.5,-3.3483 -3.349,-3.3483 -1.849,0 -3.3481,1.4991 -3.3481,3.3483 z"
       id="path200" />
    <path
       d="m 97.2339,90.4043 c 0,1.8492 1.4991,3.3483 3.3481,3.3483 1.849,0 3.349,-1.4991 3.349,-3.3483 0,-1.8492 -1.5,-3.3483 -3.349,-3.3483 -1.849,0 -3.3481,1.4991 -3.3481,3.3483 z"
       id="path201" />
    <path
       d="m 97.2339,103.798 c 0,1.849 1.4991,3.348 3.3481,3.348 1.849,0 3.349,-1.499 3.349,-3.348 0,-1.85 -1.5,-3.349 -3.349,-3.349 -1.849,0 -3.3481,1.499 -3.3481,3.349 z"
       id="path202" />
    <path
       d="m 97.2339,117.191 c 0,1.849 1.4991,3.348 3.3481,3.348 1.849,0 3.349,-1.499 3.349,-3.348 0,-1.849 -1.5,-3.348 -3.349,-3.348 -1.849,0 -3.3481,1.499 -3.3481,3.348 z"
       id="path203" />
    <path
       d="m 97.2339,130.584 c 0,1.849 1.4991,3.348 3.3481,3.348 1.849,0 3.349,-1.499 3.349,-3.348 0,-1.849 -1.5,-3.348 -3.349,-3.348 -1.849,0 -3.3481,1.499 -3.3481,3.348 z"
       id="path204" />
    <path
       d="m 97.2339,143.977 c 0,1.85 1.4991,3.349 3.3481,3.349 1.849,0 3.349,-1.499 3.349,-3.349 0,-1.849 -1.5,-3.348 -3.349,-3.348 -1.849,0 -3.3481,1.499 -3.3481,3.348 z"
       id="path205" />
    <path
       d="m 97.2339,157.371 c 0,1.849 1.4991,3.348 3.3481,3.348 1.849,0 3.349,-1.499 3.349,-3.348 0,-1.849 -1.5,-3.349 -3.349,-3.349 -1.849,0 -3.3481,1.5 -3.3481,3.349 z"
       id="path206" />
    <path
       d="m 97.2339,184.157 c 0,1.85 1.4991,3.349 3.3481,3.349 1.849,0 3.349,-1.499 3.349,-3.349 0,-1.849 -1.5,-3.348 -3.349,-3.348 -1.849,0 -3.3481,1.499 -3.3481,3.348 z"
       id="path208" />
    <path
       d="m 97.2339,197.551 c 0,1.849 1.4991,3.348 3.3481,3.348 1.849,0 3.349,-1.499 3.349,-3.348 0,-1.85 -1.5,-3.349 -3.349,-3.349 -1.849,0 -3.3481,1.499 -3.3481,3.349 z"
       id="path209" />
    <path
       d="m 97.2339,210.944 c 0,1.849 1.4991,3.348 3.3481,3.348 1.849,0 3.349,-1.499 3.349,-3.348 0,-1.849 -1.5,-3.348 -3.349,-3.348 -1.849,0 -3.3481,1.499 -3.3481,3.348 z"
       id="path210" />
    <path
       d="m 97.2339,224.337 c 0,1.849 1.4991,3.349 3.3481,3.349 1.849,0 3.349,-1.5 3.349,-3.349 0,-1.849 -1.5,-3.348 -3.349,-3.348 -1.849,0 -3.3481,1.499 -3.3481,3.348 z"
       id="path211" />
    <path
       d="m 83.8406,-43.5286 c 0,1.8492 1.4991,3.3483 3.3484,3.3483 1.8492,0 3.3483,-1.4991 3.3483,-3.3483 0,-1.8493 -1.4991,-3.3484 -3.3483,-3.3484 -1.8493,0 -3.3484,1.4991 -3.3484,3.3484 z"
       id="path212" />
    <path
       d="m 83.8406,-30.1353 c 0,1.8492 1.4991,3.3483 3.3484,3.3483 1.8492,0 3.3483,-1.4991 3.3483,-3.3483 0,-1.8493 -1.4991,-3.3484 -3.3483,-3.3484 -1.8493,0 -3.3484,1.4991 -3.3484,3.3484 z"
       id="path213" />
    <path
       d="m 83.8406,-16.742 c 0,1.8492 1.4991,3.3483 3.3484,3.3483 1.8492,0 3.3483,-1.4991 3.3483,-3.3483 0,-1.8493 -1.4991,-3.3484 -3.3483,-3.3484 -1.8493,0 -3.3484,1.4991 -3.3484,3.3484 z"
       id="path214" />
    <path
       d="m 83.8406,-3.34876 c 0,1.84923 1.4991,3.348327032 3.3484,3.348327032 1.8492,0 3.3483,-1.499097032 3.3483,-3.348327032 0,-1.84922 -1.4991,-3.34832 -3.3483,-3.34832 -1.8493,0 -3.3484,1.4991 -3.3484,3.34832 z"
       id="path215" />
    <path
       d="m 83.8406,10.0445 c 0,1.8493 1.4991,3.3484 3.3484,3.3484 1.8492,0 3.3483,-1.4991 3.3483,-3.3484 0,-1.84919 -1.4991,-3.34829 -3.3483,-3.34829 -1.8493,0 -3.3484,1.4991 -3.3484,3.34829 z"
       id="path216" />
    <path
       d="m 83.8406,23.4378 c 0,1.8493 1.4991,3.3483 3.3484,3.3483 1.8492,0 3.3483,-1.499 3.3483,-3.3483 0,-1.8492 -1.4991,-3.3483 -3.3483,-3.3483 -1.8493,0 -3.3484,1.4991 -3.3484,3.3483 z"
       id="path217" />
    <path
       d="m 83.8406,36.8311 c 0,1.8492 1.4991,3.3483 3.3484,3.3483 1.8492,0 3.3483,-1.4991 3.3483,-3.3483 0,-1.8492 -1.4991,-3.3483 -3.3483,-3.3483 -1.8493,0 -3.3484,1.4991 -3.3484,3.3483 z"
       id="path218" />
    <path
       d="m 83.8406,50.2244 c 0,1.8492 1.4991,3.3483 3.3484,3.3483 1.8492,0 3.3483,-1.4991 3.3483,-3.3483 0,-1.8492 -1.4991,-3.3483 -3.3483,-3.3483 -1.8493,0 -3.3484,1.4991 -3.3484,3.3483 z"
       id="path219" />
    <path
       d="m 83.8406,63.6177 c 0,1.8492 1.4991,3.3483 3.3484,3.3483 1.8492,0 3.3483,-1.4991 3.3483,-3.3483 0,-1.8492 -1.4991,-3.3483 -3.3483,-3.3483 -1.8493,0 -3.3484,1.4991 -3.3484,3.3483 z"
       id="path220" />
    <path
       d="m 83.8406,77.011 c 0,1.8492 1.4991,3.3483 3.3484,3.3483 1.8492,0 3.3483,-1.4991 3.3483,-3.3483 0,-1.8492 -1.4991,-3.3483 -3.3483,-3.3483 -1.8493,0 -3.3484,1.4991 -3.3484,3.3483 z"
       id="path221" />
    <path
       d="m 83.8406,90.4043 c 0,1.8492 1.4991,3.3483 3.3484,3.3483 1.8492,0 3.3483,-1.4991 3.3483,-3.3483 0,-1.8492 -1.4991,-3.3483 -3.3483,-3.3483 -1.8493,0 -3.3484,1.4991 -3.3484,3.3483 z"
       id="path222" />
    <path
       d="m 83.8406,103.798 c 0,1.849 1.4991,3.348 3.3484,3.348 1.8492,0 3.3483,-1.499 3.3483,-3.348 0,-1.85 -1.4991,-3.349 -3.3483,-3.349 -1.8493,0 -3.3484,1.499 -3.3484,3.349 z"
       id="path223" />
    <path
       d="m 83.8406,117.191 c 0,1.849 1.4991,3.348 3.3484,3.348 1.8492,0 3.3483,-1.499 3.3483,-3.348 0,-1.849 -1.4991,-3.348 -3.3483,-3.348 -1.8493,0 -3.3484,1.499 -3.3484,3.348 z"
       id="path224" />
    <path
       d="m 83.8406,130.584 c 0,1.849 1.4991,3.348 3.3484,3.348 1.8492,0 3.3483,-1.499 3.3483,-3.348 0,-1.849 -1.4991,-3.348 -3.3483,-3.348 -1.8493,0 -3.3484,1.499 -3.3484,3.348 z"
       id="path225" />
    <path
       d="m 83.8406,143.977 c 0,1.85 1.4991,3.349 3.3484,3.349 1.8492,0 3.3483,-1.499 3.3483,-3.349 0,-1.849 -1.4991,-3.348 -3.3483,-3.348 -1.8493,0 -3.3484,1.499 -3.3484,3.348 z"
       id="path226" />
    <path
       d="m 83.8406,157.371 c 0,1.849 1.4991,3.348 3.3484,3.348 1.8492,0 3.3483,-1.499 3.3483,-3.348 0,-1.849 -1.4991,-3.349 -3.3483,-3.349 -1.8493,0 -3.3484,1.5 -3.3484,3.349 z"
       id="path227" />
    <path
       d="m 83.8406,170.764 c 0,1.849 1.4991,3.348 3.3484,3.348 1.8492,0 3.3483,-1.499 3.3483,-3.348 0,-1.849 -1.4991,-3.348 -3.3483,-3.348 -1.8493,0 -3.3484,1.499 -3.3484,3.348 z"
       id="path228" />
    <path
       d="m 83.8406,184.157 c 0,1.85 1.4991,3.349 3.3484,3.349 1.8492,0 3.3483,-1.499 3.3483,-3.349 0,-1.849 -1.4991,-3.348 -3.3483,-3.348 -1.8493,0 -3.3484,1.499 -3.3484,3.348 z"
       id="path229" />
    <path
       d="m 83.8406,197.551 c 0,1.849 1.4991,3.348 3.3484,3.348 1.8492,0 3.3483,-1.499 3.3483,-3.348 0,-1.85 -1.4991,-3.349 -3.3483,-3.349 -1.8493,0 -3.3484,1.499 -3.3484,3.349 z"
       id="path230" />
    <path
       d="m 83.8406,210.944 c 0,1.849 1.4991,3.348 3.3484,3.348 1.8492,0 3.3483,-1.499 3.3483,-3.348 0,-1.849 -1.4991,-3.348 -3.3483,-3.348 -1.8493,0 -3.3484,1.499 -3.3484,3.348 z"
       id="path231" />
    <path
       d="m 83.8406,224.337 c 0,1.849 1.4991,3.349 3.3484,3.349 1.8492,0 3.3483,-1.5 3.3483,-3.349 0,-1.849 -1.4991,-3.348 -3.3483,-3.348 -1.8493,0 -3.3484,1.499 -3.3484,3.348 z"
       id="path232" />
    <path
       d="m 70.4474,-43.5286 c 0,1.8492 1.499,3.3483 3.3483,3.3483 1.8492,0 3.3483,-1.4991 3.3483,-3.3483 0,-1.8493 -1.4991,-3.3484 -3.3483,-3.3484 -1.8493,0 -3.3483,1.4991 -3.3483,3.3484 z"
       id="path233" />
    <path
       d="m 70.4474,-30.1353 c 0,1.8492 1.499,3.3483 3.3483,3.3483 1.8492,0 3.3483,-1.4991 3.3483,-3.3483 0,-1.8493 -1.4991,-3.3484 -3.3483,-3.3484 -1.8493,0 -3.3483,1.4991 -3.3483,3.3484 z"
       id="path234" />
    <path
       d="m 70.4474,-16.742 c 0,1.8492 1.499,3.3483 3.3483,3.3483 1.8492,0 3.3483,-1.4991 3.3483,-3.3483 0,-1.8493 -1.4991,-3.3484 -3.3483,-3.3484 -1.8493,0 -3.3483,1.4991 -3.3483,3.3484 z"
       id="path235" />
    <path
       d="m 70.4474,-3.34876 c 0,1.84923 1.499,3.348327032 3.3483,3.348327032 1.8492,0 3.3483,-1.499097032 3.3483,-3.348327032 0,-1.84922 -1.4991,-3.34832 -3.3483,-3.34832 -1.8493,0 -3.3483,1.4991 -3.3483,3.34832 z"
       id="path236" />
    <path
       d="m 70.4474,10.0445 c 0,1.8493 1.499,3.3484 3.3483,3.3484 1.8492,0 3.3483,-1.4991 3.3483,-3.3484 0,-1.84919 -1.4991,-3.34829 -3.3483,-3.34829 -1.8493,0 -3.3483,1.4991 -3.3483,3.34829 z"
       id="path237" />
    <path
       d="m 70.4474,23.4378 c 0,1.8493 1.499,3.3483 3.3483,3.3483 1.8492,0 3.3483,-1.499 3.3483,-3.3483 0,-1.8492 -1.4991,-3.3483 -3.3483,-3.3483 -1.8493,0 -3.3483,1.4991 -3.3483,3.3483 z"
       id="path238" />
    <path
       d="m 70.4474,36.8311 c 0,1.8492 1.499,3.3483 3.3483,3.3483 1.8492,0 3.3483,-1.4991 3.3483,-3.3483 0,-1.8492 -1.4991,-3.3483 -3.3483,-3.3483 -1.8493,0 -3.3483,1.4991 -3.3483,3.3483 z"
       id="path239" />
    <path
       d="m 70.4474,50.2244 c 0,1.8492 1.499,3.3483 3.3483,3.3483 1.8492,0 3.3483,-1.4991 3.3483,-3.3483 0,-1.8492 -1.4991,-3.3483 -3.3483,-3.3483 -1.8493,0 -3.3483,1.4991 -3.3483,3.3483 z"
       id="path240" />
    <path
       d="m 70.4474,63.6177 c 0,1.8492 1.499,3.3483 3.3483,3.3483 1.8492,0 3.3483,-1.4991 3.3483,-3.3483 0,-1.8492 -1.4991,-3.3483 -3.3483,-3.3483 -1.8493,0 -3.3483,1.4991 -3.3483,3.3483 z"
       id="path241" />
    <path
       d="m 70.4474,77.011 c 0,1.8492 1.499,3.3483 3.3483,3.3483 1.8492,0 3.3483,-1.4991 3.3483,-3.3483 0,-1.8492 -1.4991,-3.3483 -3.3483,-3.3483 -1.8493,0 -3.3483,1.4991 -3.3483,3.3483 z"
       id="path242" />
    <path
       d="m 70.4474,90.4043 c 0,1.8492 1.499,3.3483 3.3483,3.3483 1.8492,0 3.3483,-1.4991 3.3483,-3.3483 0,-1.8492 -1.4991,-3.3483 -3.3483,-3.3483 -1.8493,0 -3.3483,1.4991 -3.3483,3.3483 z"
       id="path243" />
    <path
       d="m 70.4474,103.798 c 0,1.849 1.499,3.348 3.3483,3.348 1.8492,0 3.3483,-1.499 3.3483,-3.348 0,-1.85 -1.4991,-3.349 -3.3483,-3.349 -1.8493,0 -3.3483,1.499 -3.3483,3.349 z"
       id="path244" />
    <path
       d="m 70.4474,117.191 c 0,1.849 1.499,3.348 3.3483,3.348 1.8492,0 3.3483,-1.499 3.3483,-3.348 0,-1.849 -1.4991,-3.348 -3.3483,-3.348 -1.8493,0 -3.3483,1.499 -3.3483,3.348 z"
       id="path245" />
    <path
       d="m 70.4474,130.584 c 0,1.849 1.499,3.348 3.3483,3.348 1.8492,0 3.3483,-1.499 3.3483,-3.348 0,-1.849 -1.4991,-3.348 -3.3483,-3.348 -1.8493,0 -3.3483,1.499 -3.3483,3.348 z"
       id="path246" />
    <path
       d="m 70.4474,143.977 c 0,1.85 1.499,3.349 3.3483,3.349 1.8492,0 3.3483,-1.499 3.3483,-3.349 0,-1.849 -1.4991,-3.348 -3.3483,-3.348 -1.8493,0 -3.3483,1.499 -3.3483,3.348 z"
       id="path247" />
    <path
       d="m 70.4474,170.764 c 0,1.849 1.499,3.348 3.3483,3.348 1.8492,0 3.3483,-1.499 3.3483,-3.348 0,-1.849 -1.4991,-3.348 -3.3483,-3.348 -1.8493,0 -3.3483,1.499 -3.3483,3.348 z"
       id="path249" />
    <path
       d="m 70.4474,184.157 c 0,1.85 1.499,3.349 3.3483,3.349 1.8492,0 3.3483,-1.499 3.3483,-3.349 0,-1.849 -1.4991,-3.348 -3.3483,-3.348 -1.8493,0 -3.3483,1.499 -3.3483,3.348 z"
       id="path250" />
    <path
       d="m 70.4474,197.551 c 0,1.849 1.499,3.348 3.3483,3.348 1.8492,0 3.3483,-1.499 3.3483,-3.348 0,-1.85 -1.4991,-3.349 -3.3483,-3.349 -1.8493,0 -3.3483,1.499 -3.3483,3.349 z"
       id="path251" />
    <path
       d="m 70.4474,210.944 c 0,1.849 1.499,3.348 3.3483,3.348 1.8492,0 3.3483,-1.499 3.3483,-3.348 0,-1.849 -1.4991,-3.348 -3.3483,-3.348 -1.8493,0 -3.3483,1.499 -3.3483,3.348 z"
       id="path252" />
    <path
       d="m 70.4474,224.337 c 0,1.849 1.499,3.349 3.3483,3.349 1.8492,0 3.3483,-1.5 3.3483,-3.349 0,-1.849 -1.4991,-3.348 -3.3483,-3.348 -1.8493,0 -3.3483,1.499 -3.3483,3.348 z"
       id="path253" />
    <path
       d="m 57.0541,-43.5286 c 0,1.8492 1.4991,3.3483 3.3483,3.3483 1.8492,0 3.3483,-1.4991 3.3483,-3.3483 0,-1.8493 -1.4991,-3.3484 -3.3483,-3.3484 -1.8492,0 -3.3483,1.4991 -3.3483,3.3484 z"
       id="path254" />
    <path
       d="m 57.0541,-30.1353 c 0,1.8492 1.4991,3.3483 3.3483,3.3483 1.8492,0 3.3483,-1.4991 3.3483,-3.3483 0,-1.8493 -1.4991,-3.3484 -3.3483,-3.3484 -1.8492,0 -3.3483,1.4991 -3.3483,3.3484 z"
       id="path255" />
    <path
       d="m 57.0541,-16.742 c 0,1.8492 1.4991,3.3483 3.3483,3.3483 1.8492,0 3.3483,-1.4991 3.3483,-3.3483 0,-1.8493 -1.4991,-3.3484 -3.3483,-3.3484 -1.8492,0 -3.3483,1.4991 -3.3483,3.3484 z"
       id="path256" />
    <path
       d="m 57.0541,-3.34876 c 0,1.84923 1.4991,3.348327032 3.3483,3.348327032 1.8492,0 3.3483,-1.499097032 3.3483,-3.348327032 0,-1.84922 -1.4991,-3.34832 -3.3483,-3.34832 -1.8492,0 -3.3483,1.4991 -3.3483,3.34832 z"
       id="path257" />
    <path
       d="m 57.0541,10.0445 c 0,1.8493 1.4991,3.3484 3.3483,3.3484 1.8492,0 3.3483,-1.4991 3.3483,-3.3484 0,-1.84919 -1.4991,-3.34829 -3.3483,-3.34829 -1.8492,0 -3.3483,1.4991 -3.3483,3.34829 z"
       id="path258" />
    <path
       d="m 57.0541,23.4378 c 0,1.8493 1.4991,3.3483 3.3483,3.3483 1.8492,0 3.3483,-1.499 3.3483,-3.3483 0,-1.8492 -1.4991,-3.3483 -3.3483,-3.3483 -1.8492,0 -3.3483,1.4991 -3.3483,3.3483 z"
       id="path259" />
    <path
       d="m 57.0541,36.8311 c 0,1.8492 1.4991,3.3483 3.3483,3.3483 1.8492,0 3.3483,-1.4991 3.3483,-3.3483 0,-1.8492 -1.4991,-3.3483 -3.3483,-3.3483 -1.8492,0 -3.3483,1.4991 -3.3483,3.3483 z"
       id="path260" />
    <path
       d="m 57.0541,50.2244 c 0,1.8492 1.4991,3.3483 3.3483,3.3483 1.8492,0 3.3483,-1.4991 3.3483,-3.3483 0,-1.8492 -1.4991,-3.3483 -3.3483,-3.3483 -1.8492,0 -3.3483,1.4991 -3.3483,3.3483 z"
       id="path261" />
    <path
       d="m 57.0541,63.6177 c 0,1.8492 1.4991,3.3483 3.3483,3.3483 1.8492,0 3.3483,-1.4991 3.3483,-3.3483 0,-1.8492 -1.4991,-3.3483 -3.3483,-3.3483 -1.8492,0 -3.3483,1.4991 -3.3483,3.3483 z"
       id="path262" />
    <path
       d="m 57.0541,77.011 c 0,1.8492 1.4991,3.3483 3.3483,3.3483 1.8492,0 3.3483,-1.4991 3.3483,-3.3483 0,-1.8492 -1.4991,-3.3483 -3.3483,-3.3483 -1.8492,0 -3.3483,1.4991 -3.3483,3.3483 z"
       id="path263" />
    <path
       d="m 57.0541,90.4043 c 0,1.8492 1.4991,3.3483 3.3483,3.3483 1.8492,0 3.3483,-1.4991 3.3483,-3.3483 0,-1.8492 -1.4991,-3.3483 -3.3483,-3.3483 -1.8492,0 -3.3483,1.4991 -3.3483,3.3483 z"
       id="path264" />
    <path
       d="m 57.0541,103.798 c 0,1.849 1.4991,3.348 3.3483,3.348 1.8492,0 3.3483,-1.499 3.3483,-3.348 0,-1.85 -1.4991,-3.349 -3.3483,-3.349 -1.8492,0 -3.3483,1.499 -3.3483,3.349 z"
       id="path265" />
    <path
       d="m 57.0541,117.191 c 0,1.849 1.4991,3.348 3.3483,3.348 1.8492,0 3.3483,-1.499 3.3483,-3.348 0,-1.849 -1.4991,-3.348 -3.3483,-3.348 -1.8492,0 -3.3483,1.499 -3.3483,3.348 z"
       id="path266" />
    <path
       d="m 57.0541,130.584 c 0,1.849 1.4991,3.348 3.3483,3.348 1.8492,0 3.3483,-1.499 3.3483,-3.348 0,-1.849 -1.4991,-3.348 -3.3483,-3.348 -1.8492,0 -3.3483,1.499 -3.3483,3.348 z"
       id="path267" />
    <path
       d="m 57.0541,143.977 c 0,1.85 1.4991,3.349 3.3483,3.349 1.8492,0 3.3483,-1.499 3.3483,-3.349 0,-1.849 -1.4991,-3.348 -3.3483,-3.348 -1.8492,0 -3.3483,1.499 -3.3483,3.348 z"
       id="path268" />
    <path
       d="m 57.0541,157.371 c 0,1.849 1.4991,3.348 3.3483,3.348 1.8492,0 3.3483,-1.499 3.3483,-3.348 0,-1.849 -1.4991,-3.349 -3.3483,-3.349 -1.8492,0 -3.3483,1.5 -3.3483,3.349 z"
       id="path269" />
    <path
       d="m 57.0541,170.764 c 0,1.849 1.4991,3.348 3.3483,3.348 1.8492,0 3.3483,-1.499 3.3483,-3.348 0,-1.849 -1.4991,-3.348 -3.3483,-3.348 -1.8492,0 -3.3483,1.499 -3.3483,3.348 z"
       id="path270" />
    <path
       d="m 57.0541,184.157 c 0,1.85 1.4991,3.349 3.3483,3.349 1.8492,0 3.3483,-1.499 3.3483,-3.349 0,-1.849 -1.4991,-3.348 -3.3483,-3.348 -1.8492,0 -3.3483,1.499 -3.3483,3.348 z"
       id="path271" />
    <path
       d="m 57.0541,197.551 c 0,1.849 1.4991,3.348 3.3483,3.348 1.8492,0 3.3483,-1.499 3.3483,-3.348 0,-1.85 -1.4991,-3.349 -3.3483,-3.349 -1.8492,0 -3.3483,1.499 -3.3483,3.349 z"
       id="path272" />
    <path
       d="m 57.0541,210.944 c 0,1.849 1.4991,3.348 3.3483,3.348 1.8492,0 3.3483,-1.499 3.3483,-3.348 0,-1.849 -1.4991,-3.348 -3.3483,-3.348 -1.8492,0 -3.3483,1.499 -3.3483,3.348 z"
       id="path273" />
    <path
       d="m 57.0541,224.337 c 0,1.849 1.4991,3.349 3.3483,3.349 1.8492,0 3.3483,-1.5 3.3483,-3.349 0,-1.849 -1.4991,-3.348 -3.3483,-3.348 -1.8492,0 -3.3483,1.499 -3.3483,3.348 z"
       id="path274" />
    <path
       d="m 43.6608,-43.5286 c 0,1.8492 1.4991,3.3483 3.3483,3.3483 1.8492,0 3.3483,-1.4991 3.3483,-3.3483 0,-1.8493 -1.4991,-3.3484 -3.3483,-3.3484 -1.8492,0 -3.3483,1.4991 -3.3483,3.3484 z"
       id="path275" />
    <path
       d="m 43.6608,-30.1353 c 0,1.8492 1.4991,3.3483 3.3483,3.3483 1.8492,0 3.3483,-1.4991 3.3483,-3.3483 0,-1.8493 -1.4991,-3.3484 -3.3483,-3.3484 -1.8492,0 -3.3483,1.4991 -3.3483,3.3484 z"
       id="path276" />
    <path
       d="m 43.6608,-16.742 c 0,1.8492 1.4991,3.3483 3.3483,3.3483 1.8492,0 3.3483,-1.4991 3.3483,-3.3483 0,-1.8493 -1.4991,-3.3484 -3.3483,-3.3484 -1.8492,0 -3.3483,1.4991 -3.3483,3.3484 z"
       id="path277" />
    <path
       d="m 43.6608,-3.34876 c 0,1.84923 1.4991,3.348327032 3.3483,3.348327032 1.8492,0 3.3483,-1.499097032 3.3483,-3.348327032 0,-1.84922 -1.4991,-3.34832 -3.3483,-3.34832 -1.8492,0 -3.3483,1.4991 -3.3483,3.34832 z"
       id="path278" />
    <path
       d="m 43.6608,23.4378 c 0,1.8493 1.4991,3.3483 3.3483,3.3483 1.8492,0 3.3483,-1.499 3.3483,-3.3483 0,-1.8492 -1.4991,-3.3483 -3.3483,-3.3483 -1.8492,0 -3.3483,1.4991 -3.3483,3.3483 z"
       id="path280" />
    <path
       d="m 43.6608,36.8311 c 0,1.8492 1.4991,3.3483 3.3483,3.3483 1.8492,0 3.3483,-1.4991 3.3483,-3.3483 0,-1.8492 -1.4991,-3.3483 -3.3483,-3.3483 -1.8492,0 -3.3483,1.4991 -3.3483,3.3483 z"
       id="path281" />
    <path
       d="m 43.6608,50.2244 c 0,1.8492 1.4991,3.3483 3.3483,3.3483 1.8492,0 3.3483,-1.4991 3.3483,-3.3483 0,-1.8492 -1.4991,-3.3483 -3.3483,-3.3483 -1.8492,0 -3.3483,1.4991 -3.3483,3.3483 z"
       id="path282" />
    <path
       d="m 43.6608,63.6177 c 0,1.8492 1.4991,3.3483 3.3483,3.3483 1.8492,0 3.3483,-1.4991 3.3483,-3.3483 0,-1.8492 -1.4991,-3.3483 -3.3483,-3.3483 -1.8492,0 -3.3483,1.4991 -3.3483,3.3483 z"
       id="path283" />
    <path
       d="m 43.6608,77.011 c 0,1.8492 1.4991,3.3483 3.3483,3.3483 1.8492,0 3.3483,-1.4991 3.3483,-3.3483 0,-1.8492 -1.4991,-3.3483 -3.3483,-3.3483 -1.8492,0 -3.3483,1.4991 -3.3483,3.3483 z"
       id="path284" />
    <path
       d="m 43.6608,90.4043 c 0,1.8492 1.4991,3.3483 3.3483,3.3483 1.8492,0 3.3483,-1.4991 3.3483,-3.3483 0,-1.8492 -1.4991,-3.3483 -3.3483,-3.3483 -1.8492,0 -3.3483,1.4991 -3.3483,3.3483 z"
       id="path285" />
    <path
       d="m 43.6608,103.798 c 0,1.849 1.4991,3.348 3.3483,3.348 1.8492,0 3.3483,-1.499 3.3483,-3.348 0,-1.85 -1.4991,-3.349 -3.3483,-3.349 -1.8492,0 -3.3483,1.499 -3.3483,3.349 z"
       id="path286" />
    <path
       d="m 43.6608,117.191 c 0,1.849 1.4991,3.348 3.3483,3.348 1.8492,0 3.3483,-1.499 3.3483,-3.348 0,-1.849 -1.4991,-3.348 -3.3483,-3.348 -1.8492,0 -3.3483,1.499 -3.3483,3.348 z"
       id="path287" />
    <path
       d="m 43.6608,130.584 c 0,1.849 1.4991,3.348 3.3483,3.348 1.8492,0 3.3483,-1.499 3.3483,-3.348 0,-1.849 -1.4991,-3.348 -3.3483,-3.348 -1.8492,0 -3.3483,1.499 -3.3483,3.348 z"
       id="path288" />
    <path
       d="m 43.6608,157.371 c 0,1.849 1.4991,3.348 3.3483,3.348 1.8492,0 3.3483,-1.499 3.3483,-3.348 0,-1.849 -1.4991,-3.349 -3.3483,-3.349 -1.8492,0 -3.3483,1.5 -3.3483,3.349 z"
       id="path290" />
    <path
       d="m 43.6608,170.764 c 0,1.849 1.4991,3.348 3.3483,3.348 1.8492,0 3.3483,-1.499 3.3483,-3.348 0,-1.849 -1.4991,-3.348 -3.3483,-3.348 -1.8492,0 -3.3483,1.499 -3.3483,3.348 z"
       id="path291" />
    <path
       d="m 43.6608,184.157 c 0,1.85 1.4991,3.349 3.3483,3.349 1.8492,0 3.3483,-1.499 3.3483,-3.349 0,-1.849 -1.4991,-3.348 -3.3483,-3.348 -1.8492,0 -3.3483,1.499 -3.3483,3.348 z"
       id="path292" />
    <path
       d="m 43.6608,197.551 c 0,1.849 1.4991,3.348 3.3483,3.348 1.8492,0 3.3483,-1.499 3.3483,-3.348 0,-1.85 -1.4991,-3.349 -3.3483,-3.349 -1.8492,0 -3.3483,1.499 -3.3483,3.349 z"
       id="path293" />
    <path
       d="m 43.6608,210.944 c 0,1.849 1.4991,3.348 3.3483,3.348 1.8492,0 3.3483,-1.499 3.3483,-3.348 0,-1.849 -1.4991,-3.348 -3.3483,-3.348 -1.8492,0 -3.3483,1.499 -3.3483,3.348 z"
       id="path294" />
    <path
       d="m 43.6608,224.337 c 0,1.849 1.4991,3.349 3.3483,3.349 1.8492,0 3.3483,-1.5 3.3483,-3.349 0,-1.849 -1.4991,-3.348 -3.3483,-3.348 -1.8492,0 -3.3483,1.499 -3.3483,3.348 z"
       id="path295" />
    <path
       d="m 30.2675,-43.5286 c 0,1.8492 1.4991,3.3483 3.3483,3.3483 1.8492,0 3.3483,-1.4991 3.3483,-3.3483 0,-1.8493 -1.4991,-3.3484 -3.3483,-3.3484 -1.8492,0 -3.3483,1.4991 -3.3483,3.3484 z"
       id="path296" />
    <path
       d="m 30.2675,-30.1353 c 0,1.8492 1.4991,3.3483 3.3483,3.3483 1.8492,0 3.3483,-1.4991 3.3483,-3.3483 0,-1.8493 -1.4991,-3.3484 -3.3483,-3.3484 -1.8492,0 -3.3483,1.4991 -3.3483,3.3484 z"
       id="path297" />
    <path
       d="m 30.2675,-16.742 c 0,1.8492 1.4991,3.3483 3.3483,3.3483 1.8492,0 3.3483,-1.4991 3.3483,-3.3483 0,-1.8493 -1.4991,-3.3484 -3.3483,-3.3484 -1.8492,0 -3.3483,1.4991 -3.3483,3.3484 z"
       id="path298" />
    <path
       d="m 30.2675,-3.34876 c 0,1.84923 1.4991,3.348327032 3.3483,3.348327032 1.8492,0 3.3483,-1.499097032 3.3483,-3.348327032 0,-1.84922 -1.4991,-3.34832 -3.3483,-3.34832 -1.8492,0 -3.3483,1.4991 -3.3483,3.34832 z"
       id="path299" />
    <path
       d="m 30.2675,10.0445 c 0,1.8493 1.4991,3.3484 3.3483,3.3484 1.8492,0 3.3483,-1.4991 3.3483,-3.3484 0,-1.84919 -1.4991,-3.34829 -3.3483,-3.34829 -1.8492,0 -3.3483,1.4991 -3.3483,3.34829 z"
       id="path300" />
    <path
       d="m 30.2675,36.8311 c 0,1.8492 1.4991,3.3483 3.3483,3.3483 1.8492,0 3.3483,-1.4991 3.3483,-3.3483 0,-1.8492 -1.4991,-3.3483 -3.3483,-3.3483 -1.8492,0 -3.3483,1.4991 -3.3483,3.3483 z"
       id="path302" />
    <path
       d="m 30.2675,50.2244 c 0,1.8492 1.4991,3.3483 3.3483,3.3483 1.8492,0 3.3483,-1.4991 3.3483,-3.3483 0,-1.8492 -1.4991,-3.3483 -3.3483,-3.3483 -1.8492,0 -3.3483,1.4991 -3.3483,3.3483 z"
       id="path303" />
    <path
       d="m 30.2675,63.6177 c 0,1.8492 1.4991,3.3483 3.3483,3.3483 1.8492,0 3.3483,-1.4991 3.3483,-3.3483 0,-1.8492 -1.4991,-3.3483 -3.3483,-3.3483 -1.8492,0 -3.3483,1.4991 -3.3483,3.3483 z"
       id="path304" />
    <path
       d="m 30.2675,77.011 c 0,1.8492 1.4991,3.3483 3.3483,3.3483 1.8492,0 3.3483,-1.4991 3.3483,-3.3483 0,-1.8492 -1.4991,-3.3483 -3.3483,-3.3483 -1.8492,0 -3.3483,1.4991 -3.3483,3.3483 z"
       id="path305" />
    <path
       d="m 30.2675,90.4043 c 0,1.8492 1.4991,3.3483 3.3483,3.3483 1.8492,0 3.3483,-1.4991 3.3483,-3.3483 0,-1.8492 -1.4991,-3.3483 -3.3483,-3.3483 -1.8492,0 -3.3483,1.4991 -3.3483,3.3483 z"
       id="path306" />
    <path
       d="m 30.2675,103.798 c 0,1.849 1.4991,3.348 3.3483,3.348 1.8492,0 3.3483,-1.499 3.3483,-3.348 0,-1.85 -1.4991,-3.349 -3.3483,-3.349 -1.8492,0 -3.3483,1.499 -3.3483,3.349 z"
       id="path307" />
    <path
       d="m 30.2675,117.191 c 0,1.849 1.4991,3.348 3.3483,3.348 1.8492,0 3.3483,-1.499 3.3483,-3.348 0,-1.849 -1.4991,-3.348 -3.3483,-3.348 -1.8492,0 -3.3483,1.499 -3.3483,3.348 z"
       id="path308" />
    <path
       d="m 30.2675,130.584 c 0,1.849 1.4991,3.348 3.3483,3.348 1.8492,0 3.3483,-1.499 3.3483,-3.348 0,-1.849 -1.4991,-3.348 -3.3483,-3.348 -1.8492,0 -3.3483,1.499 -3.3483,3.348 z"
       id="path309" />
    <path
       d="m 30.2675,143.977 c 0,1.85 1.4991,3.349 3.3483,3.349 1.8492,0 3.3483,-1.499 3.3483,-3.349 0,-1.849 -1.4991,-3.348 -3.3483,-3.348 -1.8492,0 -3.3483,1.499 -3.3483,3.348 z"
       id="path310" />
    <path
       d="m 30.2675,157.371 c 0,1.849 1.4991,3.348 3.3483,3.348 1.8492,0 3.3483,-1.499 3.3483,-3.348 0,-1.849 -1.4991,-3.349 -3.3483,-3.349 -1.8492,0 -3.3483,1.5 -3.3483,3.349 z"
       id="path311" />
    <path
       d="m 30.2675,170.764 c 0,1.849 1.4991,3.348 3.3483,3.348 1.8492,0 3.3483,-1.499 3.3483,-3.348 0,-1.849 -1.4991,-3.348 -3.3483,-3.348 -1.8492,0 -3.3483,1.499 -3.3483,3.348 z"
       id="path312" />
    <path
       d="m 30.2675,184.157 c 0,1.85 1.4991,3.349 3.3483,3.349 1.8492,0 3.3483,-1.499 3.3483,-3.349 0,-1.849 -1.4991,-3.348 -3.3483,-3.348 -1.8492,0 -3.3483,1.499 -3.3483,3.348 z"
       id="path313" />
    <path
       d="m 30.2675,197.551 c 0,1.849 1.4991,3.348 3.3483,3.348 1.8492,0 3.3483,-1.499 3.3483,-3.348 0,-1.85 -1.4991,-3.349 -3.3483,-3.349 -1.8492,0 -3.3483,1.499 -3.3483,3.349 z"
       id="path314" />
    <path
       d="m 30.2675,210.944 c 0,1.849 1.4991,3.348 3.3483,3.348 1.8492,0 3.3483,-1.499 3.3483,-3.348 0,-1.849 -1.4991,-3.348 -3.3483,-3.348 -1.8492,0 -3.3483,1.499 -3.3483,3.348 z"
       id="path315" />
    <path
       d="m 30.2675,224.337 c 0,1.849 1.4991,3.349 3.3483,3.349 1.8492,0 3.3483,-1.5 3.3483,-3.349 0,-1.849 -1.4991,-3.348 -3.3483,-3.348 -1.8492,0 -3.3483,1.499 -3.3483,3.348 z"
       id="path316" />
    <path
       d="m 16.8742,-43.5286 c 0,1.8492 1.4991,3.3483 3.3483,3.3483 1.8492,0 3.3483,-1.4991 3.3483,-3.3483 0,-1.8493 -1.4991,-3.3484 -3.3483,-3.3484 -1.8492,0 -3.3483,1.4991 -3.3483,3.3484 z"
       id="path317" />
    <path
       d="m 16.8742,-30.1353 c 0,1.8492 1.4991,3.3483 3.3483,3.3483 1.8492,0 3.3483,-1.4991 3.3483,-3.3483 0,-1.8493 -1.4991,-3.3484 -3.3483,-3.3484 -1.8492,0 -3.3483,1.4991 -3.3483,3.3484 z"
       id="path318" />
    <path
       d="m 16.8742,-16.742 c 0,1.8492 1.4991,3.3483 3.3483,3.3483 1.8492,0 3.3483,-1.4991 3.3483,-3.3483 0,-1.8493 -1.4991,-3.3484 -3.3483,-3.3484 -1.8492,0 -3.3483,1.4991 -3.3483,3.3484 z"
       id="path319" />
    <path
       d="m 16.8742,-3.34876 c 0,1.84923 1.4991,3.348327032 3.3483,3.348327032 1.8492,0 3.3483,-1.499097032 3.3483,-3.348327032 0,-1.84922 -1.4991,-3.34832 -3.3483,-3.34832 -1.8492,0 -3.3483,1.4991 -3.3483,3.34832 z"
       id="path320" />
    <path
       d="m 16.8742,10.0445 c 0,1.8493 1.4991,3.3484 3.3483,3.3484 1.8492,0 3.3483,-1.4991 3.3483,-3.3484 0,-1.84919 -1.4991,-3.34829 -3.3483,-3.34829 -1.8492,0 -3.3483,1.4991 -3.3483,3.34829 z"
       id="path321" />
    <path
       d="m 16.8742,23.4378 c 0,1.8493 1.4991,3.3483 3.3483,3.3483 1.8492,0 3.3483,-1.499 3.3483,-3.3483 0,-1.8492 -1.4991,-3.3483 -3.3483,-3.3483 -1.8492,0 -3.3483,1.4991 -3.3483,3.3483 z"
       id="path322" />
    <path
       d="m 16.8742,50.2244 c 0,1.8492 1.4991,3.3483 3.3483,3.3483 1.8492,0 3.3483,-1.4991 3.3483,-3.3483 0,-1.8492 -1.4991,-3.3483 -3.3483,-3.3483 -1.8492,0 -3.3483,1.4991 -3.3483,3.3483 z"
       id="path324" />
    <path
       d="m 16.8742,63.6177 c 0,1.8492 1.4991,3.3483 3.3483,3.3483 1.8492,0 3.3483,-1.4991 3.3483,-3.3483 0,-1.8492 -1.4991,-3.3483 -3.3483,-3.3483 -1.8492,0 -3.3483,1.4991 -3.3483,3.3483 z"
       id="path325" />
    <path
       d="m 16.8742,77.011 c 0,1.8492 1.4991,3.3483 3.3483,3.3483 1.8492,0 3.3483,-1.4991 3.3483,-3.3483 0,-1.8492 -1.4991,-3.3483 -3.3483,-3.3483 -1.8492,0 -3.3483,1.4991 -3.3483,3.3483 z"
       id="path326" />
    <path
       d="m 16.8742,90.4043 c 0,1.8492 1.4991,3.3483 3.3483,3.3483 1.8492,0 3.3483,-1.4991 3.3483,-3.3483 0,-1.8492 -1.4991,-3.3483 -3.3483,-3.3483 -1.8492,0 -3.3483,1.4991 -3.3483,3.3483 z"
       id="path327" />
    <path
       d="m 16.8742,103.798 c 0,1.849 1.4991,3.348 3.3483,3.348 1.8492,0 3.3483,-1.499 3.3483,-3.348 0,-1.85 -1.4991,-3.349 -3.3483,-3.349 -1.8492,0 -3.3483,1.499 -3.3483,3.349 z"
       id="path328" />
    <path
       d="m 16.8742,117.191 c 0,1.849 1.4991,3.348 3.3483,3.348 1.8492,0 3.3483,-1.499 3.3483,-3.348 0,-1.849 -1.4991,-3.348 -3.3483,-3.348 -1.8492,0 -3.3483,1.499 -3.3483,3.348 z"
       id="path329" />
    <path
       d="m 16.8742,143.977 c 0,1.85 1.4991,3.349 3.3483,3.349 1.8492,0 3.3483,-1.499 3.3483,-3.349 0,-1.849 -1.4991,-3.348 -3.3483,-3.348 -1.8492,0 -3.3483,1.499 -3.3483,3.348 z"
       id="path331" />
    <path
       d="m 16.8742,157.371 c 0,1.849 1.4991,3.348 3.3483,3.348 1.8492,0 3.3483,-1.499 3.3483,-3.348 0,-1.849 -1.4991,-3.349 -3.3483,-3.349 -1.8492,0 -3.3483,1.5 -3.3483,3.349 z"
       id="path332" />
    <path
       d="m 16.8742,170.764 c 0,1.849 1.4991,3.348 3.3483,3.348 1.8492,0 3.3483,-1.499 3.3483,-3.348 0,-1.849 -1.4991,-3.348 -3.3483,-3.348 -1.8492,0 -3.3483,1.499 -3.3483,3.348 z"
       id="path333" />
    <path
       d="m 16.8742,184.157 c 0,1.85 1.4991,3.349 3.3483,3.349 1.8492,0 3.3483,-1.499 3.3483,-3.349 0,-1.849 -1.4991,-3.348 -3.3483,-3.348 -1.8492,0 -3.3483,1.499 -3.3483,3.348 z"
       id="path334" />
    <path
       d="m 16.8742,197.551 c 0,1.849 1.4991,3.348 3.3483,3.348 1.8492,0 3.3483,-1.499 3.3483,-3.348 0,-1.85 -1.4991,-3.349 -3.3483,-3.349 -1.8492,0 -3.3483,1.499 -3.3483,3.349 z"
       id="path335" />
    <path
       d="m 16.8742,210.944 c 0,1.849 1.4991,3.348 3.3483,3.348 1.8492,0 3.3483,-1.499 3.3483,-3.348 0,-1.849 -1.4991,-3.348 -3.3483,-3.348 -1.8492,0 -3.3483,1.499 -3.3483,3.348 z"
       id="path336" />
    <path
       d="m 16.8742,224.337 c 0,1.849 1.4991,3.349 3.3483,3.349 1.8492,0 3.3483,-1.5 3.3483,-3.349 0,-1.849 -1.4991,-3.348 -3.3483,-3.348 -1.8492,0 -3.3483,1.499 -3.3483,3.348 z"
       id="path337" />
    <path
       d="m 3.48089,-43.5286 c 0,1.8492 1.4991,3.3483 3.34832,3.3483 1.84923,0 3.34829,-1.4991 3.34829,-3.3483 0,-1.8493 -1.49906,-3.3484 -3.34829,-3.3484 -1.84922,0 -3.34832,1.4991 -3.34832,3.3484 z"
       id="path338" />
    <path
       d="m 3.48089,-30.1353 c 0,1.8492 1.4991,3.3483 3.34832,3.3483 1.84923,0 3.34829,-1.4991 3.34829,-3.3483 0,-1.8493 -1.49906,-3.3484 -3.34829,-3.3484 -1.84922,0 -3.34832,1.4991 -3.34832,3.3484 z"
       id="path339" />
    <path
       d="m 3.48089,-16.742 c 0,1.8492 1.4991,3.3483 3.34832,3.3483 1.84923,0 3.34829,-1.4991 3.34829,-3.3483 0,-1.8493 -1.49906,-3.3484 -3.34829,-3.3484 -1.84922,0 -3.34832,1.4991 -3.34832,3.3484 z"
       id="path340" />
    <path
       d="m 3.48089,-3.34876 c 0,1.84923 1.4991,3.348327032 3.34832,3.348327032 1.84923,0 3.34829,-1.499097032 3.34829,-3.348327032 0,-1.84922 -1.49906,-3.34832 -3.34829,-3.34832 -1.84922,0 -3.34832,1.4991 -3.34832,3.34832 z"
       id="path341" />
    <path
       d="m 3.48089,10.0445 c 0,1.8493 1.4991,3.3484 3.34832,3.3484 1.84923,0 3.34829,-1.4991 3.34829,-3.3484 0,-1.84919 -1.49906,-3.34829 -3.34829,-3.34829 -1.84922,0 -3.34832,1.4991 -3.34832,3.34829 z"
       id="path342" />
    <path
       d="m 3.48089,23.4378 c 0,1.8493 1.4991,3.3483 3.34832,3.3483 1.84923,0 3.34829,-1.499 3.34829,-3.3483 0,-1.8492 -1.49906,-3.3483 -3.34829,-3.3483 -1.84922,0 -3.34832,1.4991 -3.34832,3.3483 z"
       id="path343" />
    <path
       d="m 3.48089,36.8311 c 0,1.8492 1.4991,3.3483 3.34832,3.3483 1.84923,0 3.34829,-1.4991 3.34829,-3.3483 0,-1.8492 -1.49906,-3.3483 -3.34829,-3.3483 -1.84922,0 -3.34832,1.4991 -3.34832,3.3483 z"
       id="path344" />
    <path
       d="m 3.48089,50.2244 c 0,1.8492 1.4991,3.3483 3.34832,3.3483 1.84923,0 3.34829,-1.4991 3.34829,-3.3483 0,-1.8492 -1.49906,-3.3483 -3.34829,-3.3483 -1.84922,0 -3.34832,1.4991 -3.34832,3.3483 z"
       id="path345" />
    <path
       d="m 3.48089,77.011 c 0,1.8492 1.4991,3.3483 3.34832,3.3483 1.84923,0 3.34829,-1.4991 3.34829,-3.3483 0,-1.8492 -1.49906,-3.3483 -3.34829,-3.3483 -1.84922,0 -3.34832,1.4991 -3.34832,3.3483 z"
       id="path347" />
    <path
       d="m 3.48089,90.4043 c 0,1.8492 1.4991,3.3483 3.34832,3.3483 1.84923,0 3.34829,-1.4991 3.34829,-3.3483 0,-1.8492 -1.49906,-3.3483 -3.34829,-3.3483 -1.84922,0 -3.34832,1.4991 -3.34832,3.3483 z"
       id="path348" />
    <path
       d="m 3.48089,103.798 c 0,1.849 1.4991,3.348 3.34832,3.348 1.84923,0 3.34829,-1.499 3.34829,-3.348 0,-1.85 -1.49906,-3.349 -3.34829,-3.349 -1.84922,0 -3.34832,1.499 -3.34832,3.349 z"
       id="path349" />
    <path
       d="m 3.48089,130.584 c 0,1.849 1.4991,3.348 3.34832,3.348 1.84923,0 3.34829,-1.499 3.34829,-3.348 0,-1.849 -1.49906,-3.348 -3.34829,-3.348 -1.84922,0 -3.34832,1.499 -3.34832,3.348 z"
       id="path351" />
    <path
       d="m 3.48089,143.977 c 0,1.85 1.4991,3.349 3.34832,3.349 1.84923,0 3.34829,-1.499 3.34829,-3.349 0,-1.849 -1.49906,-3.348 -3.34829,-3.348 -1.84922,0 -3.34832,1.499 -3.34832,3.348 z"
       id="path352" />
    <path
       d="m 3.48089,157.371 c 0,1.849 1.4991,3.348 3.34832,3.348 1.84923,0 3.34829,-1.499 3.34829,-3.348 0,-1.849 -1.49906,-3.349 -3.34829,-3.349 -1.84922,0 -3.34832,1.5 -3.34832,3.349 z"
       id="path353" />
    <path
       d="m 3.48089,170.764 c 0,1.849 1.4991,3.348 3.34832,3.348 1.84923,0 3.34829,-1.499 3.34829,-3.348 0,-1.849 -1.49906,-3.348 -3.34829,-3.348 -1.84922,0 -3.34832,1.499 -3.34832,3.348 z"
       id="path354" />
    <path
       d="m 3.48089,184.157 c 0,1.85 1.4991,3.349 3.34832,3.349 1.84923,0 3.34829,-1.499 3.34829,-3.349 0,-1.849 -1.49906,-3.348 -3.34829,-3.348 -1.84922,0 -3.34832,1.499 -3.34832,3.348 z"
       id="path355" />
    <path
       d="m 3.48089,197.551 c 0,1.849 1.4991,3.348 3.34832,3.348 1.84923,0 3.34829,-1.499 3.34829,-3.348 0,-1.85 -1.49906,-3.349 -3.34829,-3.349 -1.84922,0 -3.34832,1.499 -3.34832,3.349 z"
       id="path356" />
    <path
       d="m 3.48089,210.944 c 0,1.849 1.4991,3.348 3.34832,3.348 1.84923,0 3.34829,-1.499 3.34829,-3.348 0,-1.849 -1.49906,-3.348 -3.34829,-3.348 -1.84922,0 -3.34832,1.499 -3.34832,3.348 z"
       id="path357" />
    <path
       d="m 3.48089,224.337 c 0,1.849 1.4991,3.349 3.34832,3.349 1.84923,0 3.34829,-1.5 3.34829,-3.349 0,-1.849 -1.49906,-3.348 -3.34829,-3.348 -1.84922,0 -3.34832,1.499 -3.34832,3.348 z"
       id="path358" />
    <path
       d="m -9.9124,-43.5286 c 0,1.8492 1.49909,3.3483 3.34832,3.3483 1.84923,0 3.34832,-1.4991 3.34832,-3.3483 0,-1.8493 -1.49909,-3.3484 -3.34832,-3.3484 -1.84923,0 -3.34832,1.4991 -3.34832,3.3484 z"
       id="path359" />
    <path
       d="m -9.9124,-30.1353 c 0,1.8492 1.49909,3.3483 3.34832,3.3483 1.84923,0 3.34832,-1.4991 3.34832,-3.3483 0,-1.8493 -1.49909,-3.3484 -3.34832,-3.3484 -1.84923,0 -3.34832,1.4991 -3.34832,3.3484 z"
       id="path360" />
    <path
       d="m -9.9124,-16.742 c 0,1.8492 1.49909,3.3483 3.34832,3.3483 1.84923,0 3.34832,-1.4991 3.34832,-3.3483 0,-1.8493 -1.49909,-3.3484 -3.34832,-3.3484 -1.84923,0 -3.34832,1.4991 -3.34832,3.3484 z"
       id="path361" />
    <path
       d="m -9.9124,-3.34876 c 0,1.84923 1.49909,3.348327032 3.34832,3.348327032 1.84923,0 3.34832,-1.499097032 3.34832,-3.348327032 0,-1.84922 -1.49909,-3.34832 -3.34832,-3.34832 -1.84923,0 -3.34832,1.4991 -3.34832,3.34832 z"
       id="path362" />
    <path
       d="m -9.9124,10.0445 c 0,1.8493 1.49909,3.3484 3.34832,3.3484 1.84923,0 3.34832,-1.4991 3.34832,-3.3484 0,-1.84919 -1.49909,-3.34829 -3.34832,-3.34829 -1.84923,0 -3.34832,1.4991 -3.34832,3.34829 z"
       id="path363" />
    <path
       d="m -9.9124,23.4378 c 0,1.8493 1.49909,3.3483 3.34832,3.3483 1.84923,0 3.34832,-1.499 3.34832,-3.3483 0,-1.8492 -1.49909,-3.3483 -3.34832,-3.3483 -1.84923,0 -3.34832,1.4991 -3.34832,3.3483 z"
       id="path364" />
    <path
       d="m -9.9124,36.8311 c 0,1.8492 1.49909,3.3483 3.34832,3.3483 1.84923,0 3.34832,-1.4991 3.34832,-3.3483 0,-1.8492 -1.49909,-3.3483 -3.34832,-3.3483 -1.84923,0 -3.34832,1.4991 -3.34832,3.3483 z"
       id="path365" />
    <path
       d="m -9.9124,50.2244 c 0,1.8492 1.49909,3.3483 3.34832,3.3483 1.84923,0 3.34832,-1.4991 3.34832,-3.3483 0,-1.8492 -1.49909,-3.3483 -3.34832,-3.3483 -1.84923,0 -3.34832,1.4991 -3.34832,3.3483 z"
       id="path366" />
    <path
       d="m -9.9124,63.6177 c 0,1.8492 1.49909,3.3483 3.34832,3.3483 1.84923,0 3.34832,-1.4991 3.34832,-3.3483 0,-1.8492 -1.49909,-3.3483 -3.34832,-3.3483 -1.84923,0 -3.34832,1.4991 -3.34832,3.3483 z"
       id="path367" />
    <path
       d="m -9.9124,77.011 c 0,1.8492 1.49909,3.3483 3.34832,3.3483 1.84923,0 3.34832,-1.4991 3.34832,-3.3483 0,-1.8492 -1.49909,-3.3483 -3.34832,-3.3483 -1.84923,0 -3.34832,1.4991 -3.34832,3.3483 z"
       id="path368" />
    <path
       d="m -9.9124,90.4043 c 0,1.8492 1.49909,3.3483 3.34832,3.3483 1.84923,0 3.34832,-1.4991 3.34832,-3.3483 0,-1.8492 -1.49909,-3.3483 -3.34832,-3.3483 -1.84923,0 -3.34832,1.4991 -3.34832,3.3483 z"
       id="path369" />
    <path
       d="m -9.9124,103.798 c 0,1.849 1.49909,3.348 3.34832,3.348 1.84923,0 3.34832,-1.499 3.34832,-3.348 0,-1.85 -1.49909,-3.349 -3.34832,-3.349 -1.84923,0 -3.34832,1.499 -3.34832,3.349 z"
       id="path370" />
    <path
       d="m -9.9124,117.191 c 0,1.849 1.49909,3.348 3.34832,3.348 1.84923,0 3.34832,-1.499 3.34832,-3.348 0,-1.849 -1.49909,-3.348 -3.34832,-3.348 -1.84923,0 -3.34832,1.499 -3.34832,3.348 z"
       id="path371" />
    <path
       d="m -9.9124,130.584 c 0,1.849 1.49909,3.348 3.34832,3.348 1.84923,0 3.34832,-1.499 3.34832,-3.348 0,-1.849 -1.49909,-3.348 -3.34832,-3.348 -1.84923,0 -3.34832,1.499 -3.34832,3.348 z"
       id="path372" />
    <path
       d="m -9.9124,143.977 c 0,1.85 1.49909,3.349 3.34832,3.349 1.84923,0 3.34832,-1.499 3.34832,-3.349 0,-1.849 -1.49909,-3.348 -3.34832,-3.348 -1.84923,0 -3.34832,1.499 -3.34832,3.348 z"
       id="path373" />
    <path
       d="m -9.9124,157.371 c 0,1.849 1.49909,3.348 3.34832,3.348 1.84923,0 3.34832,-1.499 3.34832,-3.348 0,-1.849 -1.49909,-3.349 -3.34832,-3.349 -1.84923,0 -3.34832,1.5 -3.34832,3.349 z"
       id="path374" />
    <path
       d="m -9.9124,170.764 c 0,1.849 1.49909,3.348 3.34832,3.348 1.84923,0 3.34832,-1.499 3.34832,-3.348 0,-1.849 -1.49909,-3.348 -3.34832,-3.348 -1.84923,0 -3.34832,1.499 -3.34832,3.348 z"
       id="path375" />
    <path
       d="m -9.9124,184.157 c 0,1.85 1.49909,3.349 3.34832,3.349 1.84923,0 3.34832,-1.499 3.34832,-3.349 0,-1.849 -1.49909,-3.348 -3.34832,-3.348 -1.84923,0 -3.34832,1.499 -3.34832,3.348 z"
       id="path376" />
    <path
       d="m -9.9124,197.551 c 0,1.849 1.49909,3.348 3.34832,3.348 1.84923,0 3.34832,-1.499 3.34832,-3.348 0,-1.85 -1.49909,-3.349 -3.34832,-3.349 -1.84923,0 -3.34832,1.499 -3.34832,3.349 z"
       id="path377" />
    <path
       d="m -9.9124,210.944 c 0,1.849 1.49909,3.348 3.34832,3.348 1.84923,0 3.34832,-1.499 3.34832,-3.348 0,-1.849 -1.49909,-3.348 -3.34832,-3.348 -1.84923,0 -3.34832,1.499 -3.34832,3.348 z"
       id="path378" />
    <path
       d="m -9.9124,224.337 c 0,1.849 1.49909,3.349 3.34832,3.349 1.84923,0 3.34832,-1.5 3.34832,-3.349 0,-1.849 -1.49909,-3.348 -3.34832,-3.348 -1.84923,0 -3.34832,1.499 -3.34832,3.348 z"
       id="path379" />
    <path
       d="m -23.3057,-43.5286 c 0,1.8492 1.4991,3.3483 3.3483,3.3483 1.8493,0 3.3484,-1.4991 3.3484,-3.3483 0,-1.8493 -1.4991,-3.3484 -3.3484,-3.3484 -1.8492,0 -3.3483,1.4991 -3.3483,3.3484 z"
       id="path380" />
    <path
       d="m -23.3057,-30.1353 c 0,1.8492 1.4991,3.3483 3.3483,3.3483 1.8493,0 3.3484,-1.4991 3.3484,-3.3483 0,-1.8493 -1.4991,-3.3484 -3.3484,-3.3484 -1.8492,0 -3.3483,1.4991 -3.3483,3.3484 z"
       id="path381" />
    <path
       d="m -23.3057,-16.742 c 0,1.8492 1.4991,3.3483 3.3483,3.3483 1.8493,0 3.3484,-1.4991 3.3484,-3.3483 0,-1.8493 -1.4991,-3.3484 -3.3484,-3.3484 -1.8492,0 -3.3483,1.4991 -3.3483,3.3484 z"
       id="path382" />
    <path
       d="m -23.3057,-3.34876 c 0,1.84923 1.4991,3.348327032 3.3483,3.348327032 1.8493,0 3.3484,-1.499097032 3.3484,-3.348327032 0,-1.84922 -1.4991,-3.34832 -3.3484,-3.34832 -1.8492,0 -3.3483,1.4991 -3.3483,3.34832 z"
       id="path383" />
    <path
       d="m -23.3057,10.0445 c 0,1.8493 1.4991,3.3484 3.3483,3.3484 1.8493,0 3.3484,-1.4991 3.3484,-3.3484 0,-1.84919 -1.4991,-3.34829 -3.3484,-3.34829 -1.8492,0 -3.3483,1.4991 -3.3483,3.34829 z"
       id="path384" />
    <path
       d="m -23.3057,23.4378 c 0,1.8493 1.4991,3.3483 3.3483,3.3483 1.8493,0 3.3484,-1.499 3.3484,-3.3483 0,-1.8492 -1.4991,-3.3483 -3.3484,-3.3483 -1.8492,0 -3.3483,1.4991 -3.3483,3.3483 z"
       id="path385" />
    <path
       d="m -23.3057,36.8311 c 0,1.8492 1.4991,3.3483 3.3483,3.3483 1.8493,0 3.3484,-1.4991 3.3484,-3.3483 0,-1.8492 -1.4991,-3.3483 -3.3484,-3.3483 -1.8492,0 -3.3483,1.4991 -3.3483,3.3483 z"
       id="path386" />
    <path
       d="m -23.3057,50.2244 c 0,1.8492 1.4991,3.3483 3.3483,3.3483 1.8493,0 3.3484,-1.4991 3.3484,-3.3483 0,-1.8492 -1.4991,-3.3483 -3.3484,-3.3483 -1.8492,0 -3.3483,1.4991 -3.3483,3.3483 z"
       id="path387" />
    <path
       d="m -23.3057,63.6177 c 0,1.8492 1.4991,3.3483 3.3483,3.3483 1.8493,0 3.3484,-1.4991 3.3484,-3.3483 0,-1.8492 -1.4991,-3.3483 -3.3484,-3.3483 -1.8492,0 -3.3483,1.4991 -3.3483,3.3483 z"
       id="path388" />
    <path
       d="m -23.3057,77.011 c 0,1.8492 1.4991,3.3483 3.3483,3.3483 1.8493,0 3.3484,-1.4991 3.3484,-3.3483 0,-1.8492 -1.4991,-3.3483 -3.3484,-3.3483 -1.8492,0 -3.3483,1.4991 -3.3483,3.3483 z"
       id="path389" />
    <path
       d="m -23.3057,90.4043 c 0,1.8492 1.4991,3.3483 3.3483,3.3483 1.8493,0 3.3484,-1.4991 3.3484,-3.3483 0,-1.8492 -1.4991,-3.3483 -3.3484,-3.3483 -1.8492,0 -3.3483,1.4991 -3.3483,3.3483 z"
       id="path390" />
    <path
       d="m -23.3057,103.798 c 0,1.849 1.4991,3.348 3.3483,3.348 1.8493,0 3.3484,-1.499 3.3484,-3.348 0,-1.85 -1.4991,-3.349 -3.3484,-3.349 -1.8492,0 -3.3483,1.499 -3.3483,3.349 z"
       id="path391" />
    <path
       d="m -23.3057,117.191 c 0,1.849 1.4991,3.348 3.3483,3.348 1.8493,0 3.3484,-1.499 3.3484,-3.348 0,-1.849 -1.4991,-3.348 -3.3484,-3.348 -1.8492,0 -3.3483,1.499 -3.3483,3.348 z"
       id="path392" />
    <path
       d="m -23.3057,130.584 c 0,1.849 1.4991,3.348 3.3483,3.348 1.8493,0 3.3484,-1.499 3.3484,-3.348 0,-1.849 -1.4991,-3.348 -3.3484,-3.348 -1.8492,0 -3.3483,1.499 -3.3483,3.348 z"
       id="path393" />
    <path
       d="m -23.3057,143.977 c 0,1.85 1.4991,3.349 3.3483,3.349 1.8493,0 3.3484,-1.499 3.3484,-3.349 0,-1.849 -1.4991,-3.348 -3.3484,-3.348 -1.8492,0 -3.3483,1.499 -3.3483,3.348 z"
       id="path394" />
    <path
       d="m -23.3057,157.371 c 0,1.849 1.4991,3.348 3.3483,3.348 1.8493,0 3.3484,-1.499 3.3484,-3.348 0,-1.849 -1.4991,-3.349 -3.3484,-3.349 -1.8492,0 -3.3483,1.5 -3.3483,3.349 z"
       id="path395" />
    <path
       d="m -23.3057,170.764 c 0,1.849 1.4991,3.348 3.3483,3.348 1.8493,0 3.3484,-1.499 3.3484,-3.348 0,-1.849 -1.4991,-3.348 -3.3484,-3.348 -1.8492,0 -3.3483,1.499 -3.3483,3.348 z"
       id="path396" />
    <path
       d="m -23.3057,184.157 c 0,1.85 1.4991,3.349 3.3483,3.349 1.8493,0 3.3484,-1.499 3.3484,-3.349 0,-1.849 -1.4991,-3.348 -3.3484,-3.348 -1.8492,0 -3.3483,1.499 -3.3483,3.348 z"
       id="path397" />
    <path
       d="m -23.3057,197.551 c 0,1.849 1.4991,3.348 3.3483,3.348 1.8493,0 3.3484,-1.499 3.3484,-3.348 0,-1.85 -1.4991,-3.349 -3.3484,-3.349 -1.8492,0 -3.3483,1.499 -3.3483,3.349 z"
       id="path398" />
    <path
       d="m -23.3057,210.944 c 0,1.849 1.4991,3.348 3.3483,3.348 1.8493,0 3.3484,-1.499 3.3484,-3.348 0,-1.849 -1.4991,-3.348 -3.3484,-3.348 -1.8492,0 -3.3483,1.499 -3.3483,3.348 z"
       id="path399" />
    <path
       d="m -23.3057,224.337 c 0,1.849 1.4991,3.349 3.3483,3.349 1.8493,0 3.3484,-1.5 3.3484,-3.349 0,-1.849 -1.4991,-3.348 -3.3484,-3.348 -1.8492,0 -3.3483,1.499 -3.3483,3.348 z"
       id="path400" />
    <path
       d="m -36.699,-43.5286 c 0,1.8492 1.4991,3.3483 3.3483,3.3483 1.8493,0 3.3484,-1.4991 3.3484,-3.3483 0,-1.8493 -1.4991,-3.3484 -3.3484,-3.3484 -1.8492,0 -3.3483,1.4991 -3.3483,3.3484 z"
       id="path401" />
    <path
       d="m -36.699,-30.1353 c 0,1.8492 1.4991,3.3483 3.3483,3.3483 1.8493,0 3.3484,-1.4991 3.3484,-3.3483 0,-1.8493 -1.4991,-3.3484 -3.3484,-3.3484 -1.8492,0 -3.3483,1.4991 -3.3483,3.3484 z"
       id="path402" />
    <path
       d="m -36.699,-16.742 c 0,1.8492 1.4991,3.3483 3.3483,3.3483 1.8493,0 3.3484,-1.4991 3.3484,-3.3483 0,-1.8493 -1.4991,-3.3484 -3.3484,-3.3484 -1.8492,0 -3.3483,1.4991 -3.3483,3.3484 z"
       id="path403" />
    <path
       d="m -36.699,-3.34876 c 0,1.84923 1.4991,3.348327032 3.3483,3.348327032 1.8493,0 3.3484,-1.499097032 3.3484,-3.348327032 0,-1.84922 -1.4991,-3.34832 -3.3484,-3.34832 -1.8492,0 -3.3483,1.4991 -3.3483,3.34832 z"
       id="path404" />
    <path
       d="m -36.699,10.0445 c 0,1.8493 1.4991,3.3484 3.3483,3.3484 1.8493,0 3.3484,-1.4991 3.3484,-3.3484 0,-1.84919 -1.4991,-3.34829 -3.3484,-3.34829 -1.8492,0 -3.3483,1.4991 -3.3483,3.34829 z"
       id="path405" />
    <path
       d="m -36.699,23.4378 c 0,1.8493 1.4991,3.3483 3.3483,3.3483 1.8493,0 3.3484,-1.499 3.3484,-3.3483 0,-1.8492 -1.4991,-3.3483 -3.3484,-3.3483 -1.8492,0 -3.3483,1.4991 -3.3483,3.3483 z"
       id="path406" />
    <path
       d="m -36.699,36.8311 c 0,1.8492 1.4991,3.3483 3.3483,3.3483 1.8493,0 3.3484,-1.4991 3.3484,-3.3483 0,-1.8492 -1.4991,-3.3483 -3.3484,-3.3483 -1.8492,0 -3.3483,1.4991 -3.3483,3.3483 z"
       id="path407" />
    <path
       d="m -36.699,50.2244 c 0,1.8492 1.4991,3.3483 3.3483,3.3483 1.8493,0 3.3484,-1.4991 3.3484,-3.3483 0,-1.8492 -1.4991,-3.3483 -3.3484,-3.3483 -1.8492,0 -3.3483,1.4991 -3.3483,3.3483 z"
       id="path408" />
    <path
       d="m -36.699,63.6177 c 0,1.8492 1.4991,3.3483 3.3483,3.3483 1.8493,0 3.3484,-1.4991 3.3484,-3.3483 0,-1.8492 -1.4991,-3.3483 -3.3484,-3.3483 -1.8492,0 -3.3483,1.4991 -3.3483,3.3483 z"
       id="path409" />
    <path
       d="m -36.699,77.011 c 0,1.8492 1.4991,3.3483 3.3483,3.3483 1.8493,0 3.3484,-1.4991 3.3484,-3.3483 0,-1.8492 -1.4991,-3.3483 -3.3484,-3.3483 -1.8492,0 -3.3483,1.4991 -3.3483,3.3483 z"
       id="path410" />
    <path
       d="m -36.699,90.4043 c 0,1.8492 1.4991,3.3483 3.3483,3.3483 1.8493,0 3.3484,-1.4991 3.3484,-3.3483 0,-1.8492 -1.4991,-3.3483 -3.3484,-3.3483 -1.8492,0 -3.3483,1.4991 -3.3483,3.3483 z"
       id="path411" />
    <path
       d="m -36.699,103.798 c 0,1.849 1.4991,3.348 3.3483,3.348 1.8493,0 3.3484,-1.499 3.3484,-3.348 0,-1.85 -1.4991,-3.349 -3.3484,-3.349 -1.8492,0 -3.3483,1.499 -3.3483,3.349 z"
       id="path412" />
    <path
       d="m -36.699,117.191 c 0,1.849 1.4991,3.348 3.3483,3.348 1.8493,0 3.3484,-1.499 3.3484,-3.348 0,-1.849 -1.4991,-3.348 -3.3484,-3.348 -1.8492,0 -3.3483,1.499 -3.3483,3.348 z"
       id="path413" />
    <path
       d="m -36.699,130.584 c 0,1.849 1.4991,3.348 3.3483,3.348 1.8493,0 3.3484,-1.499 3.3484,-3.348 0,-1.849 -1.4991,-3.348 -3.3484,-3.348 -1.8492,0 -3.3483,1.499 -3.3483,3.348 z"
       id="path414" />
    <path
       d="m -36.699,143.977 c 0,1.85 1.4991,3.349 3.3483,3.349 1.8493,0 3.3484,-1.499 3.3484,-3.349 0,-1.849 -1.4991,-3.348 -3.3484,-3.348 -1.8492,0 -3.3483,1.499 -3.3483,3.348 z"
       id="path415" />
    <path
       d="m -36.699,157.371 c 0,1.849 1.4991,3.348 3.3483,3.348 1.8493,0 3.3484,-1.499 3.3484,-3.348 0,-1.849 -1.4991,-3.349 -3.3484,-3.349 -1.8492,0 -3.3483,1.5 -3.3483,3.349 z"
       id="path416" />
    <path
       d="m -36.699,170.764 c 0,1.849 1.4991,3.348 3.3483,3.348 1.8493,0 3.3484,-1.499 3.3484,-3.348 0,-1.849 -1.4991,-3.348 -3.3484,-3.348 -1.8492,0 -3.3483,1.499 -3.3483,3.348 z"
       id="path417" />
    <path
       d="m -36.699,184.157 c 0,1.85 1.4991,3.349 3.3483,3.349 1.8493,0 3.3484,-1.499 3.3484,-3.349 0,-1.849 -1.4991,-3.348 -3.3484,-3.348 -1.8492,0 -3.3483,1.499 -3.3483,3.348 z"
       id="path418" />
    <path
       d="m -36.699,197.551 c 0,1.849 1.4991,3.348 3.3483,3.348 1.8493,0 3.3484,-1.499 3.3484,-3.348 0,-1.85 -1.4991,-3.349 -3.3484,-3.349 -1.8492,0 -3.3483,1.499 -3.3483,3.349 z"
       id="path419" />
    <path
       d="m -36.699,210.944 c 0,1.849 1.4991,3.348 3.3483,3.348 1.8493,0 3.3484,-1.499 3.3484,-3.348 0,-1.849 -1.4991,-3.348 -3.3484,-3.348 -1.8492,0 -3.3483,1.499 -3.3483,3.348 z"
       id="path420" />
    <path
       d="m -36.699,224.337 c 0,1.849 1.4991,3.349 3.3483,3.349 1.8493,0 3.3484,-1.5 3.3484,-3.349 0,-1.849 -1.4991,-3.348 -3.3484,-3.348 -1.8492,0 -3.3483,1.499 -3.3483,3.348 z"
       id="path421" />
    <path
       d="m -50.0923,-43.5286 c 0,1.8492 1.4991,3.3483 3.3483,3.3483 1.8493,0 3.3484,-1.4991 3.3484,-3.3483 0,-1.8493 -1.4991,-3.3484 -3.3484,-3.3484 -1.8492,0 -3.3483,1.4991 -3.3483,3.3484 z"
       id="path422" />
    <path
       d="m -50.0923,-30.1353 c 0,1.8492 1.4991,3.3483 3.3483,3.3483 1.8493,0 3.3484,-1.4991 3.3484,-3.3483 0,-1.8493 -1.4991,-3.3484 -3.3484,-3.3484 -1.8492,0 -3.3483,1.4991 -3.3483,3.3484 z"
       id="path423" />
    <path
       d="m -50.0923,-16.742 c 0,1.8492 1.4991,3.3483 3.3483,3.3483 1.8493,0 3.3484,-1.4991 3.3484,-3.3483 0,-1.8493 -1.4991,-3.3484 -3.3484,-3.3484 -1.8492,0 -3.3483,1.4991 -3.3483,3.3484 z"
       id="path424" />
    <path
       d="m -50.0923,-3.34876 c 0,1.84923 1.4991,3.348327032 3.3483,3.348327032 1.8493,0 3.3484,-1.499097032 3.3484,-3.348327032 0,-1.84922 -1.4991,-3.34832 -3.3484,-3.34832 -1.8492,0 -3.3483,1.4991 -3.3483,3.34832 z"
       id="path425" />
    <path
       d="m -50.0923,10.0445 c 0,1.8493 1.4991,3.3484 3.3483,3.3484 1.8493,0 3.3484,-1.4991 3.3484,-3.3484 0,-1.84919 -1.4991,-3.34829 -3.3484,-3.34829 -1.8492,0 -3.3483,1.4991 -3.3483,3.34829 z"
       id="path426" />
    <path
       d="m -50.0923,23.4378 c 0,1.8493 1.4991,3.3483 3.3483,3.3483 1.8493,0 3.3484,-1.499 3.3484,-3.3483 0,-1.8492 -1.4991,-3.3483 -3.3484,-3.3483 -1.8492,0 -3.3483,1.4991 -3.3483,3.3483 z"
       id="path427" />
    <path
       d="m -50.0923,36.8311 c 0,1.8492 1.4991,3.3483 3.3483,3.3483 1.8493,0 3.3484,-1.4991 3.3484,-3.3483 0,-1.8492 -1.4991,-3.3483 -3.3484,-3.3483 -1.8492,0 -3.3483,1.4991 -3.3483,3.3483 z"
       id="path428" />
    <path
       d="m -50.0923,50.2244 c 0,1.8492 1.4991,3.3483 3.3483,3.3483 1.8493,0 3.3484,-1.4991 3.3484,-3.3483 0,-1.8492 -1.4991,-3.3483 -3.3484,-3.3483 -1.8492,0 -3.3483,1.4991 -3.3483,3.3483 z"
       id="path429" />
    <path
       d="m -50.0923,63.6177 c 0,1.8492 1.4991,3.3483 3.3483,3.3483 1.8493,0 3.3484,-1.4991 3.3484,-3.3483 0,-1.8492 -1.4991,-3.3483 -3.3484,-3.3483 -1.8492,0 -3.3483,1.4991 -3.3483,3.3483 z"
       id="path430" />
    <path
       d="m -50.0923,77.011 c 0,1.8492 1.4991,3.3483 3.3483,3.3483 1.8493,0 3.3484,-1.4991 3.3484,-3.3483 0,-1.8492 -1.4991,-3.3483 -3.3484,-3.3483 -1.8492,0 -3.3483,1.4991 -3.3483,3.3483 z"
       id="path431" />
    <path
       d="m -50.0923,90.4043 c 0,1.8492 1.4991,3.3483 3.3483,3.3483 1.8493,0 3.3484,-1.4991 3.3484,-3.3483 0,-1.8492 -1.4991,-3.3483 -3.3484,-3.3483 -1.8492,0 -3.3483,1.4991 -3.3483,3.3483 z"
       id="path432" />
    <path
       d="m -50.0923,103.798 c 0,1.849 1.4991,3.348 3.3483,3.348 1.8493,0 3.3484,-1.499 3.3484,-3.348 0,-1.85 -1.4991,-3.349 -3.3484,-3.349 -1.8492,0 -3.3483,1.499 -3.3483,3.349 z"
       id="path433" />
    <path
       d="m -50.0923,117.191 c 0,1.849 1.4991,3.348 3.3483,3.348 1.8493,0 3.3484,-1.499 3.3484,-3.348 0,-1.849 -1.4991,-3.348 -3.3484,-3.348 -1.8492,0 -3.3483,1.499 -3.3483,3.348 z"
       id="path434" />
    <path
       d="m -50.0923,130.584 c 0,1.849 1.4991,3.348 3.3483,3.348 1.8493,0 3.3484,-1.499 3.3484,-3.348 0,-1.849 -1.4991,-3.348 -3.3484,-3.348 -1.8492,0 -3.3483,1.499 -3.3483,3.348 z"
       id="path435" />
    <path
       d="m -50.0923,143.977 c 0,1.85 1.4991,3.349 3.3483,3.349 1.8493,0 3.3484,-1.499 3.3484,-3.349 0,-1.849 -1.4991,-3.348 -3.3484,-3.348 -1.8492,0 -3.3483,1.499 -3.3483,3.348 z"
       id="path436" />
    <path
       d="m -50.0923,157.371 c 0,1.849 1.4991,3.348 3.3483,3.348 1.8493,0 3.3484,-1.499 3.3484,-3.348 0,-1.849 -1.4991,-3.349 -3.3484,-3.349 -1.8492,0 -3.3483,1.5 -3.3483,3.349 z"
       id="path437" />
    <path
       d="m -50.0923,170.764 c 0,1.849 1.4991,3.348 3.3483,3.348 1.8493,0 3.3484,-1.499 3.3484,-3.348 0,-1.849 -1.4991,-3.348 -3.3484,-3.348 -1.8492,0 -3.3483,1.499 -3.3483,3.348 z"
       id="path438" />
    <path
       d="m -50.0923,184.157 c 0,1.85 1.4991,3.349 3.3483,3.349 1.8493,0 3.3484,-1.499 3.3484,-3.349 0,-1.849 -1.4991,-3.348 -3.3484,-3.348 -1.8492,0 -3.3483,1.499 -3.3483,3.348 z"
       id="path439" />
    <path
       d="m -50.0923,197.551 c 0,1.849 1.4991,3.348 3.3483,3.348 1.8493,0 3.3484,-1.499 3.3484,-3.348 0,-1.85 -1.4991,-3.349 -3.3484,-3.349 -1.8492,0 -3.3483,1.499 -3.3483,3.349 z"
       id="path440" />
    <path
       d="m -50.0923,210.944 c 0,1.849 1.4991,3.348 3.3483,3.348 1.8493,0 3.3484,-1.499 3.3484,-3.348 0,-1.849 -1.4991,-3.348 -3.3484,-3.348 -1.8492,0 -3.3483,1.499 -3.3483,3.348 z"
       id="path441" />
    <path
       d="m -50.0923,224.337 c 0,1.849 1.4991,3.349 3.3483,3.349 1.8493,0 3.3484,-1.5 3.3484,-3.349 0,-1.849 -1.4991,-3.348 -3.3484,-3.348 -1.8492,0 -3.3483,1.499 -3.3483,3.348 z"
       id="path442" />
    <path
       d="m -63.4856,-43.5286 c 0,1.8492 1.4991,3.3483 3.3484,3.3483 1.8492,0 3.3483,-1.4991 3.3483,-3.3483 0,-1.8493 -1.4991,-3.3484 -3.3483,-3.3484 -1.8493,0 -3.3484,1.4991 -3.3484,3.3484 z"
       id="path443" />
    <path
       d="m -63.4856,-30.1353 c 0,1.8492 1.4991,3.3483 3.3484,3.3483 1.8492,0 3.3483,-1.4991 3.3483,-3.3483 0,-1.8493 -1.4991,-3.3484 -3.3483,-3.3484 -1.8493,0 -3.3484,1.4991 -3.3484,3.3484 z"
       id="path444" />
    <path
       d="m -63.4856,-16.742 c 0,1.8492 1.4991,3.3483 3.3484,3.3483 1.8492,0 3.3483,-1.4991 3.3483,-3.3483 0,-1.8493 -1.4991,-3.3484 -3.3483,-3.3484 -1.8493,0 -3.3484,1.4991 -3.3484,3.3484 z"
       id="path445" />
    <path
       d="m -63.4856,-3.34876 c 0,1.84923 1.4991,3.348327032 3.3484,3.348327032 1.8492,0 3.3483,-1.499097032 3.3483,-3.348327032 0,-1.84922 -1.4991,-3.34832 -3.3483,-3.34832 -1.8493,0 -3.3484,1.4991 -3.3484,3.34832 z"
       id="path446" />
    <path
       d="m -63.4856,10.0445 c 0,1.8493 1.4991,3.3484 3.3484,3.3484 1.8492,0 3.3483,-1.4991 3.3483,-3.3484 0,-1.84919 -1.4991,-3.34829 -3.3483,-3.34829 -1.8493,0 -3.3484,1.4991 -3.3484,3.34829 z"
       id="path447" />
    <path
       d="m -63.4856,23.4378 c 0,1.8493 1.4991,3.3483 3.3484,3.3483 1.8492,0 3.3483,-1.499 3.3483,-3.3483 0,-1.8492 -1.4991,-3.3483 -3.3483,-3.3483 -1.8493,0 -3.3484,1.4991 -3.3484,3.3483 z"
       id="path448" />
    <path
       d="m -63.4856,36.8311 c 0,1.8492 1.4991,3.3483 3.3484,3.3483 1.8492,0 3.3483,-1.4991 3.3483,-3.3483 0,-1.8492 -1.4991,-3.3483 -3.3483,-3.3483 -1.8493,0 -3.3484,1.4991 -3.3484,3.3483 z"
       id="path449" />
    <path
       d="m -63.4856,50.2244 c 0,1.8492 1.4991,3.3483 3.3484,3.3483 1.8492,0 3.3483,-1.4991 3.3483,-3.3483 0,-1.8492 -1.4991,-3.3483 -3.3483,-3.3483 -1.8493,0 -3.3484,1.4991 -3.3484,3.3483 z"
       id="path450" />
    <path
       d="m -63.4856,63.6177 c 0,1.8492 1.4991,3.3483 3.3484,3.3483 1.8492,0 3.3483,-1.4991 3.3483,-3.3483 0,-1.8492 -1.4991,-3.3483 -3.3483,-3.3483 -1.8493,0 -3.3484,1.4991 -3.3484,3.3483 z"
       id="path451" />
    <path
       d="m -63.4856,77.011 c 0,1.8492 1.4991,3.3483 3.3484,3.3483 1.8492,0 3.3483,-1.4991 3.3483,-3.3483 0,-1.8492 -1.4991,-3.3483 -3.3483,-3.3483 -1.8493,0 -3.3484,1.4991 -3.3484,3.3483 z"
       id="path452" />
    <path
       d="m -63.4856,90.4043 c 0,1.8492 1.4991,3.3483 3.3484,3.3483 1.8492,0 3.3483,-1.4991 3.3483,-3.3483 0,-1.8492 -1.4991,-3.3483 -3.3483,-3.3483 -1.8493,0 -3.3484,1.4991 -3.3484,3.3483 z"
       id="path453" />
    <path
       d="m -63.4856,103.798 c 0,1.849 1.4991,3.348 3.3484,3.348 1.8492,0 3.3483,-1.499 3.3483,-3.348 0,-1.85 -1.4991,-3.349 -3.3483,-3.349 -1.8493,0 -3.3484,1.499 -3.3484,3.349 z"
       id="path454" />
    <path
       d="m -63.4856,117.191 c 0,1.849 1.4991,3.348 3.3484,3.348 1.8492,0 3.3483,-1.499 3.3483,-3.348 0,-1.849 -1.4991,-3.348 -3.3483,-3.348 -1.8493,0 -3.3484,1.499 -3.3484,3.348 z"
       id="path455" />
    <path
       d="m -63.4856,130.584 c 0,1.849 1.4991,3.348 3.3484,3.348 1.8492,0 3.3483,-1.499 3.3483,-3.348 0,-1.849 -1.4991,-3.348 -3.3483,-3.348 -1.8493,0 -3.3484,1.499 -3.3484,3.348 z"
       id="path456" />
    <path
       d="m -63.4856,143.977 c 0,1.85 1.4991,3.349 3.3484,3.349 1.8492,0 3.3483,-1.499 3.3483,-3.349 0,-1.849 -1.4991,-3.348 -3.3483,-3.348 -1.8493,0 -3.3484,1.499 -3.3484,3.348 z"
       id="path457" />
    <path
       d="m -63.4856,157.371 c 0,1.849 1.4991,3.348 3.3484,3.348 1.8492,0 3.3483,-1.499 3.3483,-3.348 0,-1.849 -1.4991,-3.349 -3.3483,-3.349 -1.8493,0 -3.3484,1.5 -3.3484,3.349 z"
       id="path458" />
    <path
       d="m -63.4856,170.764 c 0,1.849 1.4991,3.348 3.3484,3.348 1.8492,0 3.3483,-1.499 3.3483,-3.348 0,-1.849 -1.4991,-3.348 -3.3483,-3.348 -1.8493,0 -3.3484,1.499 -3.3484,3.348 z"
       id="path459" />
    <path
       d="m -63.4856,184.157 c 0,1.85 1.4991,3.349 3.3484,3.349 1.8492,0 3.3483,-1.499 3.3483,-3.349 0,-1.849 -1.4991,-3.348 -3.3483,-3.348 -1.8493,0 -3.3484,1.499 -3.3484,3.348 z"
       id="path460" />
    <path
       d="m -63.4856,197.551 c 0,1.849 1.4991,3.348 3.3484,3.348 1.8492,0 3.3483,-1.499 3.3483,-3.348 0,-1.85 -1.4991,-3.349 -3.3483,-3.349 -1.8493,0 -3.3484,1.499 -3.3484,3.349 z"
       id="path461" />
    <path
       d="m -63.4856,210.944 c 0,1.849 1.4991,3.348 3.3484,3.348 1.8492,0 3.3483,-1.499 3.3483,-3.348 0,-1.849 -1.4991,-3.348 -3.3483,-3.348 -1.8493,0 -3.3484,1.499 -3.3484,3.348 z"
       id="path462" />
    <path
       d="m -63.4856,224.337 c 0,1.849 1.4991,3.349 3.3484,3.349 1.8492,0 3.3483,-1.5 3.3483,-3.349 0,-1.849 -1.4991,-3.348 -3.3483,-3.348 -1.8493,0 -3.3484,1.499 -3.3484,3.348 z"
       id="path463" />
  </g>
  <defs
     id="defs466">
    <linearGradient
       id="blob-grad-dots-04_gradient"
       x1="0%"
       y1="0%"
       x2="100%"
       y2="0%"
       gradientUnits="userSpaceOnUse">
      <stop
         offset="0%"
         style="stop-color:rgb(85,0,255);stop-opacity:1"
         id="stop463" />
      <stop
         offset="33%"
         style="stop-color:rgb(156,133,241);stop-opacity:1"
         id="stop464" />
      <stop
         offset="66%"
         style="stop-color:rgb(109,255,212);stop-opacity:1"
         id="stop465" />
      <stop
         offset="100%"
         style="stop-color:rgb(16,243,16);stop-opacity:1"
         id="stop466" />
    </linearGradient>
  </defs>
</svg>
