<svg width="113" height="18" viewBox="0 0 113 18" fill="none" xmlns="http://www.w3.org/2000/svg">
<g clip-path="url(#clip0_843_835)">
<path d="M38.436 4.13325C40.0074 4.13325 41.0899 5.1498 41.0899 6.67851V16.1922H39.3439L39.1654 14.842C38.855 15.7925 38.0169 16.3008 37.0198 16.3008H35.848C34.2572 16.3008 33.326 15.3502 33.326 13.7556V11.9397C33.326 10.3451 34.3193 9.39448 35.9334 9.39448H38.983V6.93846C38.983 6.14307 38.5834 5.74343 37.8346 5.74343H36.7521C35.9994 5.74343 35.6036 6.14307 35.6036 6.93846V8.11021H33.5705V6.67075C33.5705 5.14204 34.587 4.12549 36.1584 4.12549H38.436V4.13325ZM37.7065 14.7333C38.4592 14.7333 38.9908 14.3337 38.9908 13.5616V10.9271H36.5813C35.8092 10.9271 35.4329 11.3267 35.4329 12.0988V13.5577C35.4329 14.3337 35.8092 14.7294 36.5813 14.7294H37.7104L37.7065 14.7333Z" fill="white"/>
<path d="M48.5084 4.1333C50.0992 4.1333 51.0071 5.08389 51.0071 6.67856V16.1922H48.908V6.91912C48.908 6.12372 48.5084 5.74737 47.7595 5.74737H46.6111C45.839 5.74737 45.3501 6.12372 45.3501 6.91912V16.1922H43.251V4.24582H45.0863L45.2182 5.53009C45.548 4.64546 46.3472 4.13718 47.2513 4.13718H48.5123L48.5084 4.1333Z" fill="white"/>
<path d="M57.052 14.4892H58.2897V16.1925H56.4545C54.8171 16.1925 53.7579 15.1527 53.7579 13.5386V5.86019H52.4736V4.24613H53.7579V1.39047L55.857 0.971436V4.24613H58.2237V5.86019H55.857V13.3175C55.857 14.0935 56.2333 14.4892 57.052 14.4892Z" fill="white"/>
<path d="M60.0435 16.1959V4.24561H62.1658V16.1959H60.0435Z" fill="white"/>
<path d="M68.4087 14.4892H69.6464V16.1925H67.8112C66.1739 16.1925 65.1147 15.1527 65.1147 13.5386V5.86019H63.8304V4.24613H65.1147V1.39047L67.2137 0.971436V4.24613H69.5805V5.86019H67.2137V13.3175C67.2137 14.0935 67.5901 14.4892 68.4087 14.4892Z" fill="white"/>
<path d="M76.6654 4.13315C78.2562 4.13315 79.1641 5.08374 79.1641 6.6784V16.1921H77.065V6.91896C77.065 6.12357 76.6654 5.74721 75.9165 5.74721H74.7681C73.996 5.74721 73.5071 6.12357 73.5071 6.91896V16.1921H71.408V0.974854H73.5071V5.23894C73.8835 4.5289 74.6129 4.13315 75.4083 4.13315H76.6693H76.6654Z" fill="white"/>
<path d="M88.9182 10.3764H83.3233V13.5192C83.3233 14.3146 83.6997 14.691 84.4718 14.691H85.6668C86.4389 14.691 86.8153 14.3146 86.8153 13.5192V12.0138H88.9143V13.7636C88.9143 15.2924 87.8745 16.3089 86.307 16.3089H83.8316C82.2835 16.3089 81.2242 15.2924 81.2242 13.7636V6.68271C81.2242 5.154 82.2874 4.13745 83.8316 4.13745H86.307C87.8784 4.13745 88.9143 5.154 88.9143 6.68271V10.3764H88.9182ZM84.4757 5.75152C83.7035 5.75152 83.3272 6.12787 83.3272 6.92327V8.84773H86.8192V6.92327C86.8192 6.12787 86.4428 5.75152 85.6707 5.75152H84.4757Z" fill="white"/>
<path d="M93.3725 16.3052C91.8244 16.3052 90.7845 15.2887 90.7845 13.76V12.3438H92.8409V13.5155C92.8409 14.3109 93.2173 14.6873 93.97 14.6873H95.1844C95.9372 14.6873 96.3135 14.3109 96.3135 13.5155V12.3632C96.3135 11.9441 96.1156 11.6337 95.65 11.4785L92.4219 10.5706C91.4054 10.3262 90.7845 9.44156 90.7845 8.33577V6.67514C90.7845 5.14643 91.8244 4.12988 93.3725 4.12988H95.7625C97.3533 4.12988 98.3932 5.14643 98.3932 6.67514V8.04865H96.3135V6.91958C96.3135 6.12419 95.9372 5.74783 95.1844 5.74783H93.97C93.2173 5.74783 92.8409 6.12419 92.8409 6.91958V7.87017C92.8409 8.35517 93.0621 8.68884 93.5471 8.84404L96.5114 9.66271C97.7724 9.99639 98.3893 10.6599 98.3893 12.0101V13.76C98.3893 15.2887 97.3495 16.3052 95.7587 16.3052H93.3686H93.3725Z" fill="white"/>
<path d="M100.356 16.1959V4.24561H102.479V16.1959H100.356Z" fill="white"/>
<path d="M107.042 16.3052C105.493 16.3052 104.454 15.2887 104.454 13.76V12.3438H106.51V13.5155C106.51 14.3109 106.886 14.6873 107.639 14.6873H108.854C109.606 14.6873 109.983 14.3109 109.983 13.5155V12.3632C109.983 11.9441 109.785 11.6337 109.319 11.4785L106.091 10.5706C105.074 10.3262 104.454 9.44156 104.454 8.33577V6.67514C104.454 5.14643 105.493 4.12988 107.042 4.12988H109.428C111.019 4.12988 112.058 5.14643 112.058 6.67514V8.04865H109.979V6.91958C109.979 6.12419 109.602 5.74783 108.85 5.74783H107.635C106.882 5.74783 106.506 6.12419 106.506 6.91958V7.87017C106.506 8.35517 106.727 8.68884 107.212 8.84404L110.177 9.66271C111.438 9.99639 112.054 10.6599 112.054 12.0101V13.76C112.054 15.2887 111.015 16.3052 109.424 16.3052H107.038H107.042Z" fill="white"/>
<path d="M4.83551 6.57369C4.83551 7.8114 4.26127 8.65335 3.26412 9.00643C4.25739 9.35951 4.83551 10.2015 4.83551 11.4392V14.8458C4.83551 15.6412 5.23515 16.0408 6.04995 16.0408H7.19841V17.7208H5.47182C3.85776 17.7208 2.79465 16.681 2.79465 15.0669V11.0395C2.79465 10.2441 2.39502 9.82122 1.59962 9.82122H0.780945V8.18388H1.59962C2.39502 8.18388 2.79465 7.76484 2.79465 6.96557V2.91488C2.79465 1.30082 3.85776 0.260986 5.47182 0.260986H7.19841V1.94101H6.04995C5.23127 1.94101 4.83551 2.34065 4.83551 3.13604V6.56593V6.57369Z" fill="white"/>
<path d="M26.7845 8.19194H27.6032V9.82928H26.7845C25.9891 9.82928 25.5895 10.2483 25.5895 11.0476V15.075C25.5895 16.6891 24.5302 17.7289 22.8929 17.7289H21.1896V16.0489H22.3186C23.1373 16.0489 23.5331 15.6492 23.5331 14.8538V11.4472C23.5331 10.2095 24.1306 9.36756 25.1045 9.01449C24.1306 8.66141 23.5331 7.81946 23.5331 6.58175V3.15186C23.5331 2.35647 23.1334 1.95683 22.3186 1.95683H21.1896V0.269043H22.8929C24.5302 0.269043 25.5895 1.30887 25.5895 2.92294V6.97363C25.5895 7.76902 25.9891 8.19194 26.7845 8.19194Z" fill="white"/>
<path d="M14.194 12.84C15.8354 12.84 17.166 11.1203 17.166 8.99888C17.166 6.87746 15.8354 5.15771 14.194 5.15771C12.5526 5.15771 11.2219 6.87746 11.2219 8.99888C11.2219 11.1203 12.5526 12.84 14.194 12.84Z" fill="white"/>
<g opacity="0.7">
<path d="M8.46335 4.86636C8.52931 4.75384 8.56035 4.69952 8.59527 4.65684C8.75823 4.46672 9.01818 4.39688 9.25486 4.47836C9.3053 4.49776 9.36349 4.5288 9.47213 4.59476L10.6788 5.29315C10.7913 5.35911 10.8457 5.39015 10.8883 5.42507C11.0784 5.58803 11.1483 5.84799 11.0629 6.08467C11.0435 6.13511 11.0125 6.19331 10.9465 6.30195C10.8806 6.41446 10.8495 6.46878 10.8146 6.51146C10.6517 6.70158 10.3917 6.77142 10.155 6.68994C10.1046 6.67054 10.0464 6.6395 9.93773 6.57354L8.73107 5.87515C8.61855 5.80919 8.56423 5.77815 8.52155 5.74323C8.33143 5.58027 8.26159 5.32031 8.34695 5.08364C8.36635 5.0332 8.39739 4.975 8.46335 4.86636Z" fill="white"/>
<path d="M7.99766 8.75057C7.98602 8.80489 7.98602 8.86697 7.98602 8.99501C7.98602 9.12304 7.98602 9.189 7.99766 9.23944C8.04422 9.48388 8.23434 9.67788 8.47877 9.72056C8.53309 9.7322 8.59518 9.7322 8.72321 9.7322H9.60785C9.73588 9.7322 9.80185 9.7322 9.85229 9.72056C10.0967 9.674 10.2907 9.48388 10.3334 9.23944C10.345 9.18512 10.345 9.12304 10.345 8.99501C10.345 8.86697 10.345 8.80101 10.3334 8.75057C10.2868 8.50613 10.0967 8.31213 9.85229 8.26945C9.79797 8.25781 9.73588 8.25781 9.60785 8.25781H8.72321C8.59518 8.25781 8.52921 8.25781 8.47877 8.26945C8.23434 8.31601 8.04034 8.50613 7.99766 8.75057Z" fill="white"/>
<path d="M18.0508 8.75057C18.0391 8.80489 18.0391 8.86697 18.0391 8.99501C18.0391 9.12304 18.0391 9.189 18.0508 9.23944C18.0973 9.48388 18.2874 9.67788 18.5319 9.72056C18.5862 9.7322 18.6483 9.7322 18.7763 9.7322H19.6609C19.789 9.7322 19.8549 9.7322 19.9054 9.72056C20.1498 9.674 20.3438 9.48388 20.3865 9.23944C20.3981 9.18512 20.3981 9.12304 20.3981 8.99501C20.3981 8.86697 20.3981 8.80101 20.3865 8.75057C20.3399 8.50613 20.1498 8.31213 19.9054 8.26945C19.8511 8.25781 19.789 8.25781 19.6609 8.25781H18.7763C18.6483 8.25781 18.5823 8.25781 18.5319 8.26945C18.2874 8.31601 18.0934 8.50613 18.0508 8.75057Z" fill="white"/>
<path d="M17.4416 11.6954C17.3756 11.808 17.3446 11.8623 17.3252 11.9127C17.2398 12.1494 17.3135 12.4094 17.4998 12.5723C17.5424 12.6072 17.5968 12.6383 17.7093 12.7042L18.916 13.4026C19.0285 13.4686 19.0828 13.4996 19.1332 13.519C19.3699 13.6044 19.6299 13.5307 19.7928 13.3405C19.8277 13.2979 19.8588 13.2435 19.9247 13.131C19.9907 13.0185 20.0217 12.9642 20.0411 12.9137C20.1265 12.6771 20.0528 12.4171 19.8665 12.2542C19.8239 12.2192 19.7695 12.1882 19.657 12.1222L18.4504 11.4238C18.3378 11.3579 18.2835 11.3268 18.2331 11.3074C17.9964 11.2221 17.7364 11.2958 17.5735 11.4859C17.5386 11.5286 17.5075 11.5829 17.4416 11.6954Z" fill="white"/>
<path d="M8.46336 13.131C8.3974 13.0185 8.36635 12.9642 8.34695 12.9137C8.26159 12.6771 8.33532 12.4171 8.52156 12.2542C8.56424 12.2192 8.61856 12.1882 8.73108 12.1222L9.93774 11.4238C10.0503 11.3579 10.1046 11.3268 10.155 11.3074C10.3917 11.2221 10.6517 11.2958 10.8146 11.4859C10.8495 11.5286 10.8806 11.5829 10.9465 11.6954C11.0125 11.808 11.0435 11.8623 11.0629 11.9127C11.1483 12.1494 11.0746 12.4094 10.8883 12.5723C10.8457 12.6072 10.7913 12.6383 10.6788 12.7042L9.47214 13.4026C9.35962 13.4686 9.3053 13.4996 9.25486 13.519C9.01819 13.6044 8.75824 13.5307 8.59528 13.3405C8.56036 13.2979 8.52932 13.2435 8.46336 13.131Z" fill="white"/>
<path d="M17.3252 6.08125C17.3446 6.13169 17.3756 6.18989 17.4416 6.29853C17.5075 6.41105 17.5386 6.46537 17.5735 6.50805C17.7364 6.69816 17.9964 6.768 18.2331 6.68652C18.2835 6.66712 18.3417 6.63609 18.4503 6.57013L19.657 5.87173C19.7695 5.80577 19.8239 5.77473 19.8665 5.73981C20.0567 5.57685 20.1265 5.3169 20.0411 5.08022C20.0217 5.02978 19.9907 4.97158 19.9247 4.86294C19.8588 4.75042 19.8277 4.6961 19.7928 4.65342C19.6299 4.4633 19.3699 4.39346 19.1332 4.47494C19.0828 4.49434 19.0246 4.52538 18.9159 4.59134L17.7093 5.28974C17.5968 5.3557 17.5424 5.38674 17.4998 5.42166C17.3096 5.58461 17.2398 5.84457 17.3252 6.08125Z" fill="white"/>
</g>
</g>
<defs>
<clipPath id="clip0_843_835">
<rect width="113" height="18" fill="white"/>
</clipPath>
</defs>
</svg>
