<?xml version="1.0" encoding="UTF-8"?>
<svg clip-rule="evenodd" fill-rule="evenodd" stroke-linejoin="round" stroke-miterlimit="2" version="1.1" viewBox="0 0 7704 1059" xml:space="preserve" xmlns="http://www.w3.org/2000/svg">
    <g transform="translate(-8907 -4095.9)">
        <g transform="matrix(7.2782 0 0 1 -55926 1291.6)">
            
            <g fill="#fff">
                <g transform="matrix(.1374 0 0 1 9916.9 3252.6)">
                    <path d="m0 175.42-142.45-330-141.39 330h283.84zm-207.34-503.05h134.27l362.98 830.68h-153.26l-83.622-199.16h-390.15l-84.942 199.16h-148.52l363.24-830.68z" fill="#fff" fill-rule="nonzero"/>
                </g>
                <g transform="matrix(.1374 0 0 1 9725.2 3755.6)">
                    <path d="m0-824.88h143.77v342.93h395.69v-342.93h143.77v824.88h-143.77v-347.68h-395.69v347.68h-143.77v-824.88z" fill="#fff" fill-rule="nonzero"/>
                </g>
                <g transform="matrix(.11676 .52709 .07242 -.84981 9026.9 3131.9)">
                    <path d="m-13.821 29.511c85.259-31.862 167.18-76.352 243.6-132.01l-243.6 392.75-333.35-206.76c107 6.148 219.74-11.463 333.35-53.992" fill="#fff" fill-rule="nonzero"/>
                </g>
                <g transform="matrix(-.13356 -.23476 -.032255 .97205 8997.4 3830.5)">
                    <path d="m549.58-796.39c70.515 17.03 134.81 48.57 191.91 91.94l-191.91 794.65-846.7-204.48c118.57-461.74 495.4-766.94 846.7-682.1" fill="#fff" fill-rule="nonzero"/>
                </g>
                <g transform="matrix(.1374 0 0 1 9117.8 3038.1)">
                    <path d="m0 610.15 486.7-589.05h-471.4v-128.47h659.75v107.1l-486.7 589.31h486.7v128.47h-675.31v-107.36h0.264z" fill="#fff" fill-rule="nonzero"/>
                </g>
                <g transform="matrix(.1374 0 0 1 9235.5 3755.6)">
                    <path d="m0-824.88h610.42v130.84h-466.65v212.09h413.63v130.84h-413.63v220.27h472.45v130.84h-616.22v-824.88z" fill="#fff" fill-rule="nonzero"/>
                </g>
                <g transform="matrix(.1374 0 0 1 9393 3346.5)">
                    <path d="m0-6.859c51.967 0 93.383-12.398 123.98-37.195 30.6-24.796 46.163-58.562 46.163-101.3v-2.374c0-44.845-15.036-79.138-44.844-102.35-29.809-23.214-72.016-34.821-126.36-34.821h-211.83v278.04h212.88zm-356.65-408.88h367.73c51.967 0 97.868 7.387 137.96 21.895 40.097 14.509 73.335 34.821 100.24 60.672 21.895 22.687 38.778 49.066 50.649 78.875 11.87 29.808 17.673 62.782 17.673 98.922v2.374c0 33.765-5.012 64.101-14.772 91.272s-23.477 51.176-40.624 71.752c-17.41 20.839-37.986 38.514-61.991 53.022-24.005 14.509-50.385 25.852-79.666 33.502l222.64 312.33h-170.94l-203.38-287.54h-181.75v287.54h-143.77v-824.62z" fill="#fff" fill-rule="nonzero"/>
                </g>
                <g transform="matrix(.1374 0 0 1 9515.4 3049.4)">
                    <path d="m0 587.2c40.624 0 78.083-7.65 112.11-22.95s63.046-36.14 87.315-62.519 43.262-57.243 56.979-92.591c13.718-35.348 20.576-73.071 20.576-113.17v-2.374c0-40.097-6.858-78.083-20.576-113.7-13.717-35.612-32.974-66.74-57.507-93.119-24.532-26.379-54.077-47.219-88.634-63.046-34.557-15.828-72.015-23.478-112.64-23.478-40.624 0-78.082 7.65-112.11 22.95-34.03 15.3-63.047 36.14-87.316 62.519-24.268 26.379-43.261 57.243-56.979 92.591-13.717 35.348-20.576 73.071-20.576 113.17v2.374c0 40.097 6.859 78.083 20.576 113.7 13.718 35.876 32.974 66.74 57.507 93.119s54.078 47.219 88.634 63.046c34.557 15.564 72.015 23.478 112.64 23.478m-2.111 132.95c-63.574 0-121.87-11.08-174.37-33.502-52.758-22.422-97.867-52.759-135.59-91.273-37.723-38.513-67.267-83.358-88.371-134.8-21.103-51.439-31.919-106.31-31.919-164.34v-2.374c0-58.034 10.552-112.9 31.919-164.34 21.104-51.439 51.176-96.548 89.426-135.59 38.514-38.778 84.15-69.641 136.64-92.591 52.495-22.687 110.79-34.293 174.37-34.293s121.87 11.079 174.37 33.501c52.495 22.423 97.867 52.759 135.59 91.273 37.722 38.513 67.267 83.358 88.37 134.8 21.104 51.439 31.919 106.31 31.919 164.34v2.374c0 58.034-10.552 112.9-31.919 164.34-21.103 51.439-51.176 96.548-89.426 135.59-38.513 38.778-84.15 69.641-136.64 92.591-52.758 22.951-110.79 34.294-174.37 34.294" fill="#fff" fill-rule="nonzero"/>
                </g>
                <g transform="matrix(.1374 0 0 1 9640.7 3061.6)">
                    <path d="m0 563.2c43.262 0 82.567-6.859 117.92-20.576 35.347-13.717 65.42-33.238 90.216-58.034 24.797-24.797 44.054-54.342 57.771-88.635s20.576-71.487 20.576-111.85v-2.374c0-40.096-6.859-77.819-20.576-112.38-13.717-34.82-32.974-64.365-57.771-89.425-24.796-24.797-54.869-44.318-90.216-58.562-35.349-14.245-74.654-21.368-117.92-21.368h-162.5v563.2h162.5zm-306.53-694.04h307.58c64.365 0 123.46 10.552 177.27 31.128 53.813 20.839 100.24 49.593 139.02 86.524 38.778 36.931 68.85 80.457 90.218 130.31 21.103 49.857 31.919 103.94 31.919 161.97v2.374c0 58.035-10.552 112.38-31.919 162.5-21.104 50.384-51.176 93.91-90.218 130.84-38.777 36.931-85.205 65.948-139.02 87.315-53.814 21.104-112.9 31.919-177.27 31.919h-307.58v-824.88z" fill="#fff" fill-rule="nonzero"/>
                </g>
            </g>
        </g>
    </g>
</svg>
