<?xml version="1.0" encoding="UTF-8" standalone="no"?>
<svg
   id="Layer_1"
   data-name="Layer 1"
   viewBox="0 0 255.95497 147.28848"
   version="1.1"
   width="255.95494"
   height="147.2885"
   sodipodi:docname="cranberrysoss-berries-bright.svg"
   inkscape:version="1.4.2 (ebf0e940d0, 2025-05-08)"
   xmlns:inkscape="http://www.inkscape.org/namespaces/inkscape"
   xmlns:sodipodi="http://sodipodi.sourceforge.net/DTD/sodipodi-0.dtd"
   xmlns="http://www.w3.org/2000/svg"
   xmlns:svg="http://www.w3.org/2000/svg">
  <sodipodi:namedview
     id="namedview1"
     pagecolor="#830f35"
     bordercolor="#666666"
     borderopacity="1.0"
     inkscape:showpageshadow="2"
     inkscape:pageopacity="0.0"
     inkscape:pagecheckerboard="0"
     inkscape:deskcolor="#d1d1d1"
     inkscape:zoom="7.2512766"
     inkscape:cx="115.84167"
     inkscape:cy="75.917667"
     inkscape:window-width="3840"
     inkscape:window-height="2127"
     inkscape:window-x="0"
     inkscape:window-y="0"
     inkscape:window-maximized="0"
     inkscape:current-layer="g77"
     showgrid="false" />
  <defs
     id="defs1">
    <style
       id="style1">
      .cls-1 {
        fill: #68a042;
      }

      .cls-2 {
        opacity: .43;
      }

      .cls-2, .cls-3, .cls-4 {
        fill: #fff;
      }

      .cls-3 {
        opacity: .67;
      }

      .cls-5 {
        fill: #9f7c2d;
      }

      .cls-6 {
        fill: #a01d22;
      }

      .cls-7 {
        fill: #811619;
      }

      .cls-8 {
        opacity: .3;
      }

      .cls-9 {
        fill: #d01f26;
      }

      .cls-10 {
        fill: #2e613d;
      }

      .cls-11 {
        fill: #efdeb2;
      }

      .cls-12 {
        fill: #fdc044;
      }
    </style>
  </defs>
  <g
     id="g77"
     transform="matrix(0.63315804,0,0,0.63315804,-244.53457,-149.95157)"
     style="stroke-width:1.57938">
    <path
       id="path11-6"
       style="display:none;fill:#ffff00;stroke:#ffffff;stroke-width:23.6908;stroke-dasharray:none;stroke-opacity:1"
       class="cls-1"
       d="m 542.35031,250.97233 c -0.15149,0.001 -0.29405,0.009 -0.42569,0.0247 -3.03182,0.27127 -5.63321,2.98422 -7.37252,5.34585 -0.78189,-0.8138 -1.66099,-1.40417 -2.63436,-1.75522 -2.05845,-0.74998 -3.76578,-0.14426 -4.34023,0.11105 -0.59041,0.23935 -2.2004,1.05566 -3.09399,3.06623 -0.41488,0.94146 -0.60623,1.97647 -0.55833,3.10941 -2.88821,-0.38296 -6.64029,-0.38331 -8.89021,1.57939 -0.90955,0.71806 -1.89681,2.20394 -1.72128,4.00707 0.0638,0.63828 0.27004,1.24246 0.58918,1.81691 -1.57973,0.68615 -3.01672,1.64469 -3.57521,2.92124 -0.35101,0.79785 -0.38285,1.69101 -0.0956,2.50481 0.0479,0.23935 0.11349,0.4645 0.22518,0.6879 0.38297,0.78189 1.10189,1.43572 2.28271,2.04209 -6.15699,6.23387 -10.73076,13.57188 -13.58209,21.42966 -8.84515,-5.02135 -19.04874,-9.17167 -30.74864,-11.83922 -23.24926,-5.29771 -45.41228,4.65747 -49.41747,22.2101 -3.98924,17.53668 11.66378,36.1272 34.91304,41.42491 6.05787,1.38039 11.79152,2.66605 17.20665,3.859 -8.14682,1.24131 -16.61868,3.20897 -25.35961,6.06768 -14.80804,4.85091 -27.35154,13.70693 -35.31405,24.92466 -8.12208,11.44112 -10.56299,23.98101 -6.84502,35.32639 5.6328,17.21753 24.33492,27.49424 46.22784,27.49424 7.56359,0 15.49287,-1.2277 23.39155,-3.81273 27.979,-9.15408 49.61053,-16.57225 66.29713,-22.63887 -0.0172,0.53618 0.0591,1.02576 0.182,1.40047 0.76593,2.74459 3.61956,4.70635 6.07693,5.93503 -0.59041,0.84572 -0.95711,1.72429 -1.11668,2.64979 -0.35105,2.09036 0.49417,3.58898 0.84522,4.09961 0.3351,0.52657 1.37487,1.91452 3.43331,2.40918 0.90955,0.22338 1.86714,0.22541 2.85647,0.0339 0.12766,2.74459 0.78194,6.1422 2.95209,7.8815 0.84572,0.73402 2.43903,1.43498 4.13046,0.95627 0.54254,-0.15957 1.03952,-0.41397 1.50227,-0.76502 0.90954,1.34038 2.00868,2.42681 3.28524,2.72999 0.84571,0.20744 1.70909,0.0786 2.44311,-0.33623 0.22339,-0.0798 0.42855,-0.19262 0.62003,-0.33624 0.67019,-0.46275 1.15068,-1.19657 1.51769,-2.31355 9.46246,6.4466 20.36063,9.70458 31.21135,9.70458 v -0.0185 c 10.14861,0 20.26487,-2.85414 29.08906,-8.64651 9.30374,-6.10541 16.0551,-14.69825 19.98908,-24.40643 7.71395,6.3135 16.32201,13.24969 25.87168,20.84664 9.98904,7.94656 21.39722,12.24023 32.1522,12.24023 v -0.0154 c 2.09035,0 4.14911,-0.16155 6.17564,-0.49665 8.93589,-1.45208 16.13169,-6.01641 20.79111,-13.18107 11.31347,-17.40902 3.46463,-45.12459 -17.50279,-61.79959 -3.98419,-3.16898 -7.97281,-5.97592 -11.94409,-8.45526 9.19782,-1.63578 19.27002,-3.49498 30.26125,-5.58645 12.98894,-2.47332 24.52646,-8.56885 32.47301,-17.16964 8.12209,-8.80823 11.55156,-19.16372 9.63672,-29.18468 -3.89349,-20.40893 -29.10283,-32.80874 -56.19771,-27.65465 -6.55852,1.24704 -12.70405,2.8986 -18.44981,4.86462 0.15918,-0.55997 0.24061,-1.12234 0.24061,-1.69043 0.016,-2.10632 -1.08376,-3.44614 -1.5146,-3.89294 -0.39892,-0.44679 -1.67558,-1.64245 -3.78189,-1.78606 -0.9255,-0.0798 -1.88415,0.0803 -2.82561,0.44729 -0.59041,-2.68077 -1.81915,-5.90513 -4.2446,-7.26147 -0.95742,-0.5904 -2.64636,-1.006 -4.22609,-0.25603 -0.51062,0.23936 -0.95836,0.57478 -1.35728,1.00562 -1.13295,-1.16486 -2.39321,-2.04202 -3.70168,-2.13772 -0.87763,-0.0479 -1.69326,0.20705 -2.34749,0.74959 -0.20744,0.11169 -0.38281,0.25634 -0.55834,0.43186 -0.57444,0.57445 -0.92573,1.3708 -1.10125,2.53566 -20.13766,-9.1912 -43.65866,-5.7133 -59.61559,9.15857 -1.82725,1.70341 -3.51706,3.51719 -5.06514,5.42605 -0.61448,-2.06865 -1.34943,-4.11308 -2.20867,-6.12628 -9.41459,-22.02057 -31.48503,-35.53582 -55.78744,-34.53053 0.20748,-0.95742 0.15969,-1.72356 -0.0956,-2.39375 -0.0798,-0.2234 -0.19008,-0.41621 -0.31773,-0.6077 -0.38297,-0.78189 -1.05501,-1.37183 -1.88477,-1.67501 -1.32443,-0.47871 -2.98206,-0.11185 -4.57775,0.55834 -0.19149,-0.62232 -0.49512,-1.1963 -0.91,-1.67501 -1.01925,-1.20076 -2.50239,-1.58195 -3.56287,-1.57322 z" />
    <g
       id="g39"
       style="display:inline;stroke-width:0.989776"
       transform="matrix(1.5956939,0,0,1.5956939,-341.19704,-199.53048)">
      <g
         id="g15"
         style="stroke-width:0.989776">
        <g
           id="g12"
           style="stroke-width:0.989776">
          <path
             class="cls-1"
             d="m 509.91,401.56 c -18.55,6.07 -37.24,-0.14 -41.73,-13.88 -4.49,-13.73 6.9,-29.79 25.46,-35.86 51.76,-16.94 89.95,15.92 91.04,19.25 1.27,3.88 -25.23,14.28 -74.77,30.48 z"
             id="path11"
             style="stroke-width:0.989776" />
          <path
             class="cls-10"
             d="m 495.72,405.38 c -13.72,0 -25.44,-6.44 -28.97,-17.23 -2.33,-7.11 -0.8,-14.97 4.29,-22.14 4.99,-7.03 12.85,-12.58 22.13,-15.62 27.58,-9.02 50.87,-3.86 65.55,2.06 16.05,6.47 26.61,15.78 27.39,18.16 1.18,3.62 -3.72,8.82 -75.73,32.38 v 0 c -4.95,1.62 -9.92,2.39 -14.66,2.39 z m 27.52,-56.87 c -9.02,0 -18.8,1.36 -29.13,4.74 -8.67,2.84 -15.99,7.98 -20.61,14.5 -4.52,6.37 -5.9,13.29 -3.88,19.46 4.23,12.92 22.1,18.71 39.83,12.91 v 0 c 60.94,-19.94 72.5,-26.55 73.72,-28.74 -2.01,-3.06 -25.5,-22.88 -59.92,-22.88 z"
             id="path12"
             style="stroke-width:0.989776" />
        </g>
        <g
           id="g14"
           style="stroke-width:0.989776">
          <path
             class="cls-1"
             d="m 564.3,363.58 c 0,0 -46.36,-0.89 -74,17.16"
             id="path13"
             style="stroke-width:0.989776" />
          <path
             class="cls-10"
             d="m 564.26,365.59 c -24.63,-0.33 -52.33,2.52 -73.96,15.15 16.19,-10.72 35.63,-15.21 54.66,-17.69 6.42,-0.78 12.82,-1.34 19.37,-1.47 l -0.08,4.01 v 0 z"
             id="path14"
             style="stroke-width:0.989776" />
        </g>
      </g>
      <g
         id="g19"
         style="stroke-width:0.989776">
        <g
           id="g16"
           style="stroke-width:0.989776">
          <path
             class="cls-1"
             d="m 498.61,342.7 c -13.78,-3.14 -23.07,-13.96 -20.75,-24.16 2.32,-10.2 15.38,-15.93 29.16,-12.79 38.45,8.76 49.93,43.38 49.36,45.86 -0.66,2.88 -20.99,-0.53 -57.78,-8.92 z"
             id="path15"
             style="stroke-width:0.989776" />
          <path
             class="cls-10"
             d="m 552.66,354.13 c -2.55,0 -6.31,-0.39 -11.84,-1.26 -9.53,-1.5 -23.45,-4.35 -42.54,-8.7 v 0 c -14.57,-3.32 -24.38,-14.97 -21.88,-25.96 2.51,-11 16.4,-17.24 30.97,-13.92 38.86,8.86 51.37,43.84 50.5,47.67 -0.31,1.35 -1.45,2.18 -5.2,2.18 z m -53.72,-12.9 c 42.96,9.79 53.64,10.42 55.93,9.74 -0.71,-4.75 -12.13,-35.53 -48.18,-43.75 -12.95,-2.95 -25.23,2.28 -27.36,11.65 -2.14,9.38 6.66,19.4 19.61,22.36 z"
             id="path16"
             style="stroke-width:0.989776" />
        </g>
        <g
           id="g18"
           style="stroke-width:0.989776">
          <path
             class="cls-1"
             d="m 546.52,339.37 c 0,0 -28.46,-17.82 -52.34,-16.91"
             id="path17"
             style="stroke-width:0.989776" />
          <path
             class="cls-10"
             d="m 545.46,341.07 c -15.35,-9.63 -32.82,-18.11 -51.27,-18.61 4.64,-0.27 9.31,0.06 13.93,0.76 13.9,2.44 27.09,7.7 39.47,14.44 0,0 -2.13,3.4 -2.13,3.4 v 0 z"
             id="path18"
             style="stroke-width:0.989776" />
        </g>
      </g>
      <g
         id="g23"
         style="stroke-width:0.989776">
        <g
           id="g20"
           style="stroke-width:0.989776">
          <path
             class="cls-1"
             d="m 637.39,401.3 c 12.57,9.99 28.18,9.75 34.86,-0.54 6.69,-10.29 1.92,-26.74 -10.65,-36.73 -35.06,-27.88 -71.79,-10.53 -73.41,-8.03 -1.89,2.91 15.65,18.63 49.2,45.31 z"
             id="path19"
             style="stroke-width:0.989776" />
          <path
             class="cls-10"
             d="m 656.61,410.15 c -6.74,0 -13.89,-2.69 -20.15,-7.67 v 0 c -17.41,-13.85 -29.83,-24.19 -37.97,-31.64 -11.41,-10.43 -12.88,-13.64 -11.56,-15.67 1.23,-1.89 9.59,-5.71 19.89,-7.39 13.93,-2.27 34.9,-1.5 55.72,15.06 13.14,10.45 18.06,27.82 10.97,38.73 -2.92,4.49 -7.43,7.35 -13.03,8.26 -1.27,0.21 -2.56,0.31 -3.87,0.31 z m -67.02,-53.44 c 0.53,2.24 7.92,10.95 48.74,43.41 v 0 c 6.82,5.42 14.72,7.88 21.67,6.75 4.75,-0.77 8.55,-3.17 10.99,-6.93 6.26,-9.64 1.63,-25.23 -10.32,-34.73 -33.26,-26.45 -67.62,-11.29 -71.08,-8.49 z"
             id="path20"
             style="stroke-width:0.989776" />
        </g>
        <g
           id="g22"
           style="stroke-width:0.989776">
          <path
             class="cls-1"
             d="m 605.39,355.13 c 0,0 35.25,11.54 51.81,33.96"
             id="path21"
             style="stroke-width:0.989776" />
          <path
             class="cls-10"
             d="m 606.01,353.22 c 19.25,7.74 38.8,18.85 51.19,35.87 -3.32,-4.05 -7.08,-7.69 -11.13,-10.96 -8.2,-6.41 -17.33,-11.49 -26.84,-15.65 -4.74,-2.06 -9.63,-3.95 -14.47,-5.45 l 1.25,-3.82 v 0 z"
             id="path22"
             style="stroke-width:0.989776" />
        </g>
      </g>
      <g
         id="g27"
         style="stroke-width:0.989776">
        <g
           id="g24"
           style="stroke-width:0.989776">
          <path
             class="cls-1"
             d="m 673.74,352.55 c 16.2,-3.08 27.48,-15.3 25.2,-27.29 -2.28,-11.99 -17.26,-19.21 -33.46,-16.13 -45.19,8.6 -60.02,48.47 -59.47,51.39 0.64,3.39 24.49,0.26 67.73,-7.97 z"
             id="path23"
             style="stroke-width:0.989776" />
          <path
             class="cls-10"
             d="m 611.55,363.37 c -5.22,0 -6.72,-0.99 -7.02,-2.57 -0.41,-2.17 3.48,-13.23 12.89,-24.79 8.47,-10.4 23.63,-23.76 47.77,-28.35 16.98,-3.23 32.78,4.54 35.22,17.33 1.2,6.28 -0.95,12.77 -6.04,18.29 -4.98,5.39 -12.21,9.21 -20.35,10.76 l -0.28,-1.48 0.28,1.48 c -22.44,4.27 -38.77,7 -49.94,8.35 -5.61,0.68 -9.64,0.98 -12.53,0.98 z m -4.02,-3.38 c 2.24,1.01 14.15,0.93 65.93,-8.92 v 0 c 7.52,-1.43 14.16,-4.93 18.7,-9.85 4.43,-4.79 6.31,-10.36 5.3,-15.68 -2.12,-11.16 -16.34,-17.86 -31.7,-14.93 -42.8,8.14 -57.51,44.54 -58.23,49.38 z"
             id="path24"
             style="stroke-width:0.989776" />
        </g>
        <g
           id="g26"
           style="stroke-width:0.989776">
          <path
             class="cls-1"
             d="m 618.03,346.66 c 0,0 33.92,-19.57 61.72,-17.51"
             id="path25"
             style="stroke-width:0.989776" />
          <path
             class="cls-10"
             d="m 617.02,344.92 c 19.04,-9.44 41.24,-17.47 62.72,-15.77 -5.42,-0.15 -10.8,0.4 -16.1,1.37 -10.56,2.13 -20.72,5.85 -30.45,10.4 -4.84,2.28 -9.66,4.76 -14.17,7.47 l -2.01,-3.48 v 0 z"
             id="path26"
             style="stroke-width:0.989776" />
        </g>
      </g>
      <g
         id="g28"
         style="stroke-width:0.989776">
        <path
           class="cls-6"
           d="m 558.55,288.61 c 1.31,-2.53 0.72,-2.75 0.72,-2.75 -0.44,-1.57 -4.35,1.11 -4.35,1.11 1,-3.44 -1.34,-3.13 -1.34,-3.13 -2.43,0.22 -4.75,4.66 -4.75,4.66 -1.54,-3.61 -3.8,-2.46 -3.8,-2.46 0,0 -2.39,0.83 -0.85,4.44 0,0 -4.81,-1.4 -6.65,0.2 0,0 -1.84,1.48 1.34,3.13 0,0 -4.63,0.97 -3.81,2.38 0,0 -0.28,0.64 2.9,1.5 -11.04,9.81 -15.25,25.59 -9.3,39.53 7.5,17.58 28.3,25.55 46.45,17.8 18.15,-7.75 26.79,-28.28 19.28,-45.86 -6.07,-14.21 -20.82,-22.14 -35.85,-20.56 z"
           id="path27"
           style="fill:#d81c1c;fill-opacity:1;stroke-width:0.989776" />
        <path
           class="cls-7"
           d="m 560.76,359.48 c -14.26,0 -27.69,-8.09 -33.48,-21.67 -5.72,-13.41 -2.54,-28.99 7.87,-39.53 -0.74,-0.38 -1.19,-0.79 -1.43,-1.28 -0.07,-0.14 -0.11,-0.28 -0.14,-0.43 -0.18,-0.51 -0.16,-1.07 0.06,-1.57 0.35,-0.8 1.25,-1.4 2.24,-1.83 -0.2,-0.36 -0.33,-0.74 -0.37,-1.14 -0.11,-1.13 0.51,-2.06 1.08,-2.51 1.41,-1.23 3.76,-1.23 5.57,-0.99 -0.03,-0.71 0.09,-1.36 0.35,-1.95 0.56,-1.26 1.57,-1.77 1.94,-1.92 0.36,-0.16 1.43,-0.54 2.72,-0.07 0.61,0.22 1.16,0.59 1.65,1.1 1.09,-1.48 2.72,-3.18 4.62,-3.35 0.66,-0.08 1.77,0.11 2.5,0.97 0.26,0.3 0.45,0.66 0.57,1.05 1,-0.42 2.04,-0.65 2.87,-0.35 0.52,0.19 0.94,0.56 1.18,1.05 0.08,0.12 0.15,0.24 0.2,0.38 0.16,0.42 0.19,0.9 0.06,1.5 15.23,-0.63 29.06,7.84 34.96,21.64 3.79,8.88 3.78,18.75 -0.02,27.79 -3.79,9.02 -10.92,16.14 -20.06,20.04 -4.89,2.09 -9.97,3.07 -14.95,3.07 z m -23.56,-63.6 c 0.29,0.1 0.67,0.23 1.16,0.36 0.53,0.15 0.95,0.57 1.07,1.11 0.13,0.54 -0.05,1.1 -0.47,1.47 -10.87,9.65 -14.45,24.85 -8.91,37.82 7.16,16.79 27.11,24.41 44.48,17.01 8.42,-3.59 14.98,-10.14 18.46,-18.44 3.48,-8.28 3.49,-17.32 0.02,-25.44 -5.68,-13.32 -19.47,-21.21 -34.31,-19.65 -0.56,0.05 -1.09,-0.19 -1.4,-0.65 -0.31,-0.46 -0.35,-1.05 -0.09,-1.54 0.15,-0.28 0.26,-0.52 0.35,-0.73 -0.55,0.25 -1.22,0.63 -1.8,1.02 -0.52,0.36 -1.22,0.35 -1.73,-0.03 -0.51,-0.37 -0.74,-1.03 -0.56,-1.64 0.19,-0.65 0.2,-1.01 0.19,-1.19 -1.09,0.22 -2.7,2.33 -3.49,3.84 -0.27,0.52 -0.82,0.82 -1.39,0.81 -0.58,-0.02 -1.1,-0.38 -1.33,-0.91 -0.64,-1.5 -1.34,-1.86 -1.78,-1.68 -0.1,0.05 -0.03,0.03 -0.14,0.05 -0.38,0.18 -0.61,0.92 0.04,2.43 0.23,0.53 0.13,1.15 -0.26,1.59 -0.39,0.44 -0.99,0.61 -1.55,0.45 -1.65,-0.48 -4.34,-0.78 -5.19,-0.15 0.11,0.13 0.38,0.38 1,0.7 0.56,0.29 0.88,0.91 0.8,1.54 -0.09,0.63 -0.56,1.14 -1.18,1.27 -0.69,0.15 -1.42,0.37 -1.99,0.59 z m -0.76,0.92 z m 0.01,-0.01 z m 0,0 z m 0,-0.01 z m 0,0 z m 0,0 z m 0.01,-0.03 c 0,0 0,0.02 -0.01,0.03 0,0 0,-0.02 0.01,-0.03 z m 0.01,-0.01 z m 0,0 z m 0,0 z"
           id="path28"
           style="stroke-width:0.989776;fill:#6c0f16;fill-opacity:1" />
      </g>
      <g
         id="g30"
         style="stroke-width:0.989776">
        <path
           class="cls-6"
           d="m 653.77,320.98 c 2.65,0.35 2.65,-0.24 2.65,-0.24 1.24,-0.89 -2.36,-3.49 -2.36,-3.49 3.35,-0.21 2.33,-2.18 2.33,-2.18 -0.97,-2.07 -5.62,-2.7 -5.62,-2.7 2.69,-2.51 0.95,-4.13 0.95,-4.13 0,0 -1.5,-1.85 -4.19,0.66 0,0 -0.3,-4.68 -2.3,-5.8 0,0 -1.89,-1.15 -2.33,2.18 0,0 -2.34,-3.78 -3.31,-2.6 0,0 -0.65,-0.04 -0.4,3.04 -12.17,-6.61 -27.43,-5.28 -37.83,4.41 -13.11,12.22 -13.5,33.1 -0.88,46.64 12.62,13.54 33.48,14.6 46.59,2.38 10.6,-9.88 12.88,-25.42 6.7,-38.17 z"
           id="path29"
           style="fill:#d81c1c;fill-opacity:1;stroke-width:0.989776" />
        <path
           class="cls-7"
           d="m 625.29,369.15 c -9.4,0 -18.89,-3.83 -25.91,-11.36 -6.37,-6.83 -9.79,-15.67 -9.61,-24.87 0.17,-9.22 3.93,-17.71 10.57,-23.9 10,-9.32 24.74,-11.5 37.36,-5.74 0.11,-0.73 0.33,-1.23 0.69,-1.59 0.11,-0.11 0.22,-0.2 0.35,-0.27 0.41,-0.34 0.92,-0.5 1.47,-0.47 0.82,0.06 1.61,0.61 2.32,1.34 0.25,-0.27 0.53,-0.48 0.85,-0.63 0.99,-0.47 2.05,-0.21 2.65,0.16 1.52,0.85 2.29,2.87 2.66,4.55 0.59,-0.23 1.19,-0.33 1.77,-0.28 1.32,0.09 2.12,0.84 2.37,1.12 0.27,0.28 0.96,1.12 0.95,2.44 0,0.59 -0.14,1.17 -0.41,1.75 1.65,0.5 3.62,1.41 4.38,3.03 0.3,0.57 0.49,1.65 -0.06,2.6 -0.17,0.31 -0.4,0.57 -0.69,0.8 0.68,0.76 1.17,1.59 1.17,2.41 0,0.54 -0.2,1.05 -0.57,1.44 -0.08,0.11 -0.17,0.22 -0.28,0.31 -0.31,0.27 -0.7,0.44 -1.23,0.53 5.36,13.23 2.29,28.12 -8.01,37.72 -6.39,5.96 -14.57,8.9 -22.81,8.9 z m -2.11,-66.02 c -7.61,0 -15.05,2.76 -20.78,8.1 -6.04,5.63 -9.45,13.36 -9.61,21.75 -0.16,8.42 2.97,16.5 8.8,22.76 12.04,12.91 31.98,13.94 44.46,2.31 9.9,-9.23 12.46,-23.86 6.37,-36.41 -0.24,-0.5 -0.19,-1.09 0.13,-1.54 0.32,-0.45 0.86,-0.69 1.42,-0.61 0.18,0.02 0.35,0.04 0.49,0.06 -0.37,-0.36 -0.83,-0.75 -1.28,-1.07 -0.51,-0.37 -0.74,-1.03 -0.56,-1.64 0.18,-0.61 0.72,-1.05 1.35,-1.09 0.51,-0.03 0.81,-0.11 0.98,-0.17 -0.56,-0.74 -2.67,-1.48 -4.38,-1.71 -0.58,-0.08 -1.06,-0.48 -1.23,-1.04 -0.18,-0.55 -0.02,-1.16 0.41,-1.56 0.88,-0.82 1.24,-1.6 0.91,-1.98 -0.09,-0.08 -0.03,0 -0.09,-0.1 -0.32,-0.31 -1.11,0 -1.99,0.81 -0.43,0.4 -1.04,0.51 -1.58,0.3 -0.54,-0.21 -0.91,-0.72 -0.95,-1.3 -0.11,-1.73 -0.7,-3.89 -1.4,-4.49 -0.07,0.16 -0.17,0.46 -0.24,0.97 -0.08,0.63 -0.56,1.14 -1.18,1.27 -0.63,0.13 -1.26,-0.14 -1.6,-0.68 -0.29,-0.47 -0.65,-0.96 -0.98,-1.35 0,0.24 0.02,0.53 0.05,0.87 0.05,0.55 -0.21,1.08 -0.68,1.39 -0.46,0.3 -1.06,0.32 -1.54,0.06 -4.84,-2.63 -10.11,-3.92 -15.3,-3.92 z m 16.34,1.06 c 0,0 0.08,0 0.12,0 -0.04,0 -0.08,0 -0.12,0 z"
           id="path30"
           style="stroke-width:0.989776;fill:#6c0f16;fill-opacity:1" />
      </g>
      <g
         id="g32"
         style="stroke-width:0.989776">
        <path
           class="cls-6"
           d="m 557.09,383.91 c -2.55,-0.8 -2.66,-0.21 -2.66,-0.21 -1.37,0.67 1.74,3.84 1.74,3.84 -3.34,-0.36 -2.67,1.75 -2.67,1.75 0.61,2.21 5.09,3.61 5.09,3.61 -3.08,2.02 -1.64,3.91 -1.64,3.91 0,0 1.17,2.07 4.24,0.05 0,0 -0.5,4.67 1.29,6.1 0,0 1.67,1.45 2.67,-1.75 0,0 1.67,4.12 2.83,3.12 0,0 0.63,0.15 0.9,-2.93 10.88,8.57 26.14,9.84 38.03,2.05 14.99,-9.83 18.9,-30.34 8.75,-45.82 -10.15,-15.47 -30.53,-20.05 -45.51,-10.22 -12.12,7.95 -16.99,22.88 -13.05,36.49 z"
           id="path31"
           style="fill:#d81c1c;fill-opacity:1;stroke-width:0.989776" />
        <path
           class="cls-7"
           d="m 589.49,410.14 c -6.8,0 -13.63,-2.04 -19.56,-6.08 -0.23,0.7 -0.53,1.16 -0.95,1.45 -0.12,0.09 -0.25,0.16 -0.39,0.21 -0.46,0.26 -1,0.34 -1.53,0.21 -0.8,-0.19 -1.49,-0.87 -2.06,-1.71 -0.29,0.22 -0.6,0.38 -0.94,0.48 -1.06,0.3 -2.06,-0.14 -2.59,-0.6 -1.36,-1.09 -1.77,-3.22 -1.85,-4.94 -0.62,0.12 -1.22,0.12 -1.79,-0.02 -1.29,-0.31 -1.94,-1.18 -2.15,-1.51 -0.22,-0.32 -0.75,-1.26 -0.53,-2.57 0.1,-0.58 0.33,-1.13 0.7,-1.66 -1.54,-0.77 -3.33,-2 -3.81,-3.72 -0.2,-0.61 -0.2,-1.7 0.5,-2.55 0.22,-0.27 0.49,-0.5 0.81,-0.67 -0.54,-0.86 -0.89,-1.77 -0.75,-2.58 0.09,-0.53 0.38,-1 0.8,-1.32 0.1,-0.1 0.21,-0.19 0.33,-0.26 0.35,-0.21 0.76,-0.32 1.29,-0.32 h 0.01 c -3.05,-13.94 2.5,-28.1 14.27,-35.82 7.59,-4.98 16.73,-6.61 25.73,-4.59 8.98,2.02 16.75,7.43 21.87,15.24 10.59,16.14 6.47,37.63 -9.18,47.9 -5.53,3.63 -11.87,5.42 -18.23,5.42 z m -20.61,-10.23 c 0.33,0 0.66,0.11 0.93,0.32 10.67,8.41 25.24,9.2 36.27,1.97 14.27,-9.36 18,-28.98 8.32,-43.73 -4.69,-7.16 -11.8,-12.11 -20.02,-13.96 -8.19,-1.84 -16.51,-0.36 -23.41,4.17 -11.32,7.42 -16.31,21.41 -12.43,34.81 0.15,0.53 0,1.11 -0.39,1.49 -0.39,0.38 -0.98,0.52 -1.5,0.36 -0.17,-0.05 -0.33,-0.1 -0.48,-0.14 0.3,0.41 0.69,0.88 1.08,1.27 0.45,0.45 0.56,1.14 0.28,1.71 -0.28,0.57 -0.88,0.9 -1.51,0.84 -0.51,-0.05 -0.82,-0.03 -0.99,0 0.42,0.83 2.38,1.91 4.02,2.43 0.55,0.17 0.96,0.65 1.04,1.23 0.08,0.58 -0.18,1.15 -0.66,1.47 -1.01,0.66 -1.49,1.37 -1.23,1.8 0.07,0.09 0.03,0.01 0.08,0.12 0.26,0.35 1.1,0.19 2.1,-0.47 0.49,-0.32 1.11,-0.33 1.61,-0.03 0.5,0.3 0.77,0.86 0.71,1.44 -0.18,1.72 0.04,3.96 0.62,4.66 0.1,-0.15 0.25,-0.42 0.4,-0.92 0.19,-0.61 0.74,-1.03 1.38,-1.05 0.61,-0.01 1.22,0.35 1.46,0.94 0.21,0.51 0.48,1.05 0.74,1.5 0.03,-0.24 0.07,-0.53 0.1,-0.87 0.05,-0.55 0.4,-1.03 0.9,-1.25 0.19,-0.08 0.4,-0.12 0.6,-0.12 z m -0.71,2.94 c 0,0 0.08,0.01 0.12,0.02 v 0 c 0,0 -0.08,-0.02 -0.12,-0.02 z"
           id="path32"
           style="stroke-width:0.989776;fill:#6c0f16;fill-opacity:1" />
      </g>
      <g
         id="g34"
         style="stroke-width:0.989776">
        <path
           class="cls-6"
           d="m 554.38,290.02 c 0,0 -7.72,1.06 -12.86,6"
           id="path33"
           style="stroke-width:0.989776;fill:#6c0f16;fill-opacity:1" />
        <path
           class="cls-7"
           d="m 541.52,297.52 c -0.4,0 -0.79,-0.15 -1.09,-0.46 -0.58,-0.6 -0.56,-1.55 0.04,-2.13 5.44,-5.23 13.36,-6.36 13.7,-6.41 0.81,-0.11 1.58,0.46 1.7,1.29 0.11,0.82 -0.46,1.58 -1.29,1.7 -0.07,0 -7.31,1.06 -12.02,5.59 -0.29,0.28 -0.67,0.42 -1.04,0.42 z"
           id="path34"
           style="stroke-width:0.989776;fill:#6c0f16;fill-opacity:1" />
      </g>
      <g
         id="g36"
         style="stroke-width:0.989776">
        <path
           class="cls-6"
           d="m 642.08,308.4 c 0,0 6.54,4.15 9.56,10.44"
           id="path35"
           style="stroke-width:0.989776;fill:#6c0f16;fill-opacity:1" />
        <path
           class="cls-7"
           d="m 650.29,319.49 c -2.79,-5.81 -8.95,-9.78 -9.01,-9.82 l 1.61,-2.54 c 0.28,0.18 6.94,4.46 10.11,11.06 l -2.72,1.3 z"
           id="path36"
           style="stroke-width:0.989776;fill:#6c0f16;fill-opacity:1" />
      </g>
      <g
         id="g38"
         style="stroke-width:0.989776">
        <path
           class="cls-6"
           d="m 559.29,387.29 c 0,0 1.07,5.91 7.45,11.45"
           id="path37"
           style="stroke-width:0.989776;fill:#6c0f16;fill-opacity:1" />
        <path
           class="cls-7"
           d="m 565.76,399.87 c -6.7,-5.82 -7.9,-12.06 -7.95,-12.32 l 2.96,-0.54 -1.48,0.27 1.48,-0.27 c 0.01,0.05 1.1,5.51 6.96,10.59 z"
           id="path38"
           style="stroke-width:0.989776;fill:#6c0f16;fill-opacity:1" />
      </g>
    </g>
  </g>
</svg>
