<?xml version="1.0" encoding="UTF-8"?>
<svg width="259.37" height="37.822" version="1.1" viewBox="0 0 259.37 37.822" xml:space="preserve" xmlns="http://www.w3.org/2000/svg">
  
  
  <g transform="matrix(1.3333 0 0 -1.3333 -25.605 362.39)">
    <g transform="matrix(1.0402 0 0 1.0402 -29.013 114.07)" fill="#fff">
      <g transform="scale(1.0757 -.92959)" stroke-width=".92959" aria-label="Ads">
        <path d="m155.69-134.91h2.484l2.88-6.768h13.5l2.772 6.768h2.664l-10.728-25.488h-2.448zm18-8.928h-11.7l5.94-13.968z"/>
        <path d="m197.6-134.91h2.16v-27.216h-2.16v13.5h-0.072c-1.332-2.304-4.176-3.348-6.66-3.348-5.112 0-8.748 3.672-8.748 8.748s3.636 8.748 8.748 8.748c2.484 0 5.328-1.044 6.66-3.348h0.072zm0.21599-8.316c0 3.744-3.024 6.804-6.948 6.804-4.068 0-6.588-3.06-6.588-6.804s2.52-6.804 6.588-6.804c3.924 0 6.948 3.06 6.948 6.804z"/>
        <path d="m203.18-137.86c1.296 2.304 3.852 3.384 6.696 3.384 3.168 0 6.012-1.728 6.012-5.148 0-6.732-9.864-3.24-9.864-7.74 0-1.728 1.98-2.664 3.528-2.664 1.944 0 3.096 0.828 3.924 2.34l1.944-1.152c-1.08-2.124-3.168-3.132-5.868-3.132-2.736 0-5.688 1.548-5.688 4.788 0 6.336 9.864 3.132 9.864 7.704 0 1.908-1.944 3.06-3.816 3.06-1.944 0-3.924-0.97199-4.824-2.736z"/>
      </g>
      <g transform="matrix(1 0 0 -.86414 43.988 125.43)" aria-label="Ethical">
        <path d="m3.0207 0h19.325v-5.5766h-13.283v-5.5766h11.889v-5.5766h-11.889v-5.1119h12.586v-5.5766h-18.627z"/>
        <path d="m39.269-18.821h-5.1119v-5.5766h-5.809v5.5766h-3.7177v4.6472h3.7177v8.9458c0 4.105 2.9819 5.6928 6.8546 5.6928 1.3554 0 2.7883-0.11618 4.0663-0.5809v-4.8408c-0.50344 0.46472-1.7427 0.54217-2.3623 0.54217-2.5172 0-2.7496-1.4716-2.7496-3.4854v-6.2737h5.1119z"/>
        <path d="m42.212-29.277v29.277h5.809v-9.3718c0-2.4398 0.46472-4.8021 3.4854-4.8021 2.9819 0 3.0207 2.7883 3.0207 4.957v9.2169h5.809v-10.379c0-5.0344-1.0843-8.9071-6.9708-8.9071-2.827 0-4.7246 1.5491-5.2668 3.0207h-0.07745v-13.012z"/>
        <path d="m64.518 0h5.809v-18.821h-5.809zm-0.46472-24.746c0 1.8589 1.5103 3.3692 3.3692 3.3692s3.3692-1.5103 3.3692-3.3692c0-1.8589-1.5103-3.3692-3.3692-3.3692s-3.3692 1.5103-3.3692 3.3692z"/>
        <path d="m91.085-16.769c-1.8201-1.8589-4.4923-2.5172-6.6997-2.5172-5.809 0-10.456 3.8726-10.456 9.8753 0 6.0026 4.6472 9.8753 10.456 9.8753 2.2074 0 4.8795-0.65835 6.6997-2.5172l-3.8339-4.0276c-0.65835 0.77453-1.5878 1.4329-2.8658 1.4329-2.9045 0-4.6472-1.9363-4.6472-4.7634 0-2.827 1.7427-4.7634 4.6472-4.7634 1.2005 0 2.2849 0.61962 2.8658 1.4329z"/>
        <path d="m104.99 0h5.3443v-9.5654c0-6.2737-1.8202-9.7204-8.5973-9.7204-3.0594 0-6.1575 1.0069-8.2875 3.0207l3.0981 3.1756c1.2392-1.3942 2.827-2.2461 4.7246-2.2461 2.0138 0 3.7178 1.3167 3.7178 3.3692-4.8408 0-12.741 0.11618-12.741 6.6222 0 3.7952 3.1756 5.809 6.6997 5.809 2.3623 0 4.6859-0.81326 5.9639-2.827h0.0774zm0-8.2487v1.2392c0 2.3236-2.13 3.5241-4.4148 3.5241-1.278 0-2.7496-0.65835-2.7496-2.0525 0-2.5559 3.9501-2.7109 5.7315-2.7109z"/>
        <path d="m114.05 0h5.809v-29.277h-5.809z"/>
      </g>
    </g>
  </g>
</svg>
