<svg xmlns="http://www.w3.org/2000/svg" viewBox="0 0 134.82 19.827" aria-label="statichost.eu"><path fill="#ffffff" d="M31.151 16.962q-2.002 0-3.212-1.056c-1.21-1.056-1.21-1.628-1.21-2.772h2.948q0 .594.396.968.418.352 1.078.352h1.98q1.32 0 1.32-.726v-.374q0-.22-.22-.396a1.17 1.17 0 0 0-.594-.264l-3.806-.66q-1.342-.22-2.134-.946-.77-.748-.77-1.738v-.726q0-1.408 1.144-2.2 1.166-.792 3.234-.792h1.716q1.848 0 2.97.99 1.144.967 1.144 2.574h-2.948q0-.485-.33-.77-.308-.285-.836-.286h-1.672q-1.43 0-1.43.66v.352q0 .241.176.418.198.154.55.22l4.004.726q1.254.22 2.024.946.77.705.77 1.606v.792q0 1.43-1.188 2.266-1.166.836-3.124.836zm12.847-.176q-1.936 0-2.838-.88c-.902-.88-.902-1.496-.902-2.728V8.36h-1.936V5.808h2.024V2.486h2.904v3.322h2.86V8.36h-2.86v4.686q0 .615.22.902.241.285.748.286h1.892v2.552zm7.446.176q-1.716 0-2.772-.858c-1.056-.858-1.056-1.327-1.056-2.266v-.814q0-1.386 1.1-2.222 1.1-.858 2.904-.858h1.342q.572 0 1.232.154t1.21.418V9.372q0-.55-.374-.88-.352-.352-.946-.352h-1.892q-.616 0-.99.286a.92.92 0 0 0-.374.77h-2.904q0-1.606 1.166-2.574 1.188-.99 3.102-.99h1.892q1.936 0 3.124 1.034 1.188 1.012 1.188 2.706v7.414h-2.772v-1.32a4.1 4.1 0 0 1-1.298 1.1q-.771.396-1.518.396zm1.584-2.288a2.6 2.6 0 0 0 1.452-.418q.637-.419.924-1.122v-.374q-.352-.264-.99-.418a5.4 5.4 0 0 0-1.32-.154h-1.386q-.528 0-.858.264c-.33.264-.33.41-.33.704v.572q0 .418.352.682.374.264.968.264zm12.584 2.112q-1.936 0-2.838-.88c-.902-.88-.902-1.496-.902-2.728V8.36h-1.936V5.808h2.024V2.486h2.904v3.322h2.86V8.36h-2.86v4.686q0 .615.22.902.24.285.748.286h1.892v2.552zM71.73 4.774q-.858 0-1.386-.484-.506-.506-.506-1.32c0-.814.169-.975.506-1.298q.528-.506 1.386-.506c.858 0 1.027.169 1.364.506q.528.484.528 1.298c0 .814-.176.983-.528 1.32q-.506.484-1.364.484m-1.496 1.034h2.992v10.978h-2.992zm10.188 11.154q-1.386 0-2.464-.55a4.1 4.1 0 0 1-1.65-1.54q-.572-.99-.572-2.288V10.01q0-1.298.572-2.288.594-.99 1.65-1.54c1.056-.55 1.518-.55 2.442-.55h1.738q1.32 0 2.332.528c1.012.528 1.195.85 1.562 1.496q.55.946.55 2.2h-2.97q0-.748-.418-1.188-.396-.462-1.056-.462h-1.694q-.77 0-1.254.572-.462.55-.462 1.452v2.134q0 .902.484 1.474.484.55 1.254.55h1.694q.704 0 1.122-.506.44-.506.44-1.342h2.97q0 2.002-1.254 3.212-1.232 1.21-3.278 1.21zm8.065-15.576h2.992v5.522q.483-.572 1.188-.924.726-.352 1.386-.352h1.364q1.759 0 2.815 1.1 1.079 1.1 1.078 2.904v7.15H96.32v-7.04q0-.682-.374-1.1a1.15 1.15 0 0 0-.923-.418h-1.364q-.771 0-1.386.572-.594.55-.792 1.452v6.534h-2.992zm17.48 15.576q-1.385 0-2.463-.528a4.1 4.1 0 0 1-1.65-1.54q-.573-.99-.572-2.288v-2.574q0-1.298.594-2.288a4.03 4.03 0 0 1 1.65-1.562q1.078-.55 2.464-.55h1.98q1.386 0 2.442.55a4 4 0 0 1 1.672 1.562q.594.99.594 2.288v2.574q0 1.298-.594 2.288c-.594.99-.954 1.173-1.672 1.54q-1.056.528-2.464.528zm1.937-2.574q.813 0 1.298-.55.484-.572.484-1.474V10.23q0-.902-.484-1.452-.484-.572-1.276-.572h-1.892q-.793 0-1.276.572-.484.55-.484 1.452v2.134q-.001.902.484 1.474.483.55 1.254.55zm10.774 2.574q-2.002 0-3.212-1.056c-1.21-1.056-1.21-1.628-1.21-2.772h2.948q0 .594.396.968.418.352 1.078.352h1.98q1.32 0 1.32-.726v-.374q0-.22-.22-.396a1.17 1.17 0 0 0-.594-.264l-3.806-.66q-1.342-.22-2.134-.946-.77-.748-.77-1.738v-.726q-.001-1.408 1.144-2.2 1.166-.792 3.234-.792h1.716q1.848 0 2.97.99 1.144.967 1.144 2.574h-2.948q0-.485-.33-.77-.308-.285-.836-.286h-1.672q-1.43 0-1.43.66v.352q0 .241.176.418.198.154.55.22l4.004.726q1.254.22 2.024.946.77.705.77 1.606v.792q0 1.43-1.188 2.266-1.167.836-3.124.836zm12.847-.176q-1.935 0-2.838-.88-.902-.88-.902-2.728V8.36h-1.936V5.808h2.024V2.486h2.904v3.322h2.86V8.36h-2.86v4.686q0 .615.22.902.242.285.748.286h1.892v2.552z"></path><path fill="#ffffff" fill-rule="evenodd" d="M14.239 2.804q-1.784-1.018-3.568-1.018-5 0-10 8Q2.055 12 3.441 13.603l1.416-1.417a26 26 0 0 1-1.594-2.094l-.21-.307.21-.305c2.67-3.871 5.172-5.694 7.409-5.694l.186.004q.922.04 1.9.496zm-5.244 8.073 2.767-2.768a2 2 0 1 1-2.767 2.767m-2.76 2.76c1.495 1.385 2.918 2.085 4.25 2.145l.186.004c2.237 0 4.74-1.823 7.409-5.694l.208-.307-.208-.305c-1.24-1.797-2.442-3.152-3.6-4.09l1.42-1.418q2.385 1.996 4.771 5.814-5 8-10 8-2.924 0-5.849-2.737z" clip-rule="evenodd"></path><path stroke="#ffffff" stroke-linecap="square" stroke-width="2" d="m2.671 17.786 16-16"></path></svg>
