<?xml version="1.0" encoding="UTF-8"?>
<svg width="1200" height="630" fill="none" version="1.1" viewBox="0 0 1200 630" xmlns="http://www.w3.org/2000/svg"><defs><clipPath id="clip0_367_1596"><rect width="769.68" height="321" fill="#fff"/></clipPath></defs><rect width="1200" height="630" fill="#080e17" style="paint-order:stroke fill markers"/><g transform="matrix(.66645 0 0 .66645 345.78 93.842)" clip-path="url(#clip0_367_1596)" stroke-width="1.7563"><path d="m47.402 2c-19.227 0-35.058 15.114-35.949 34.32l-11.413 246.02c-0.95137 20.508 15.419 37.655 35.949 37.655h249.15c20.53 0 36.9-17.147 35.949-37.655l-11.413-246.02c-0.891-19.206-16.722-34.32-35.949-34.32zm26.141 10.469c-23.85 0-43.185 19.335-43.185 43.185v174.05c0 23.851 19.335 43.186 43.185 43.186h174.05c23.85 0 43.185-19.335 43.185-43.186v-174.05c0-23.851-19.335-43.185-43.185-43.185z" clip-rule="evenodd" fill="#fff" fill-rule="evenodd"/><path d="m129.31 59.106 106.92 60.439h-151.8v-25.105h55.989z" clip-rule="evenodd" fill="#fff" fill-rule="evenodd"/><path d="m191.36 215.08-106.92-60.439h151.8v25.105h-55.989z" clip-rule="evenodd" fill="#2dde74" fill-rule="evenodd"/><path d="m370.24 295.71v-14.693h17.305c3.483 0 6.276-1.052 8.381-3.156 2.104-2.177 3.156-5.007 3.156-8.49 0-3.338-1.052-6.022-3.156-8.054-2.105-2.032-4.898-3.047-8.381-3.047h-17.305v-14.694h17.414c6.022 0 11.283 1.052 15.781 3.157 4.499 2.104 7.982 5.115 10.449 9.033 2.467 3.846 3.701 8.381 3.701 13.605 0 5.297-1.234 9.941-3.701 13.932-2.467 3.918-5.95 6.965-10.449 9.142-4.426 2.177-9.686 3.265-15.781 3.265zm-12.843 23.836v-75.97h17.958v75.97zm70.026 0v-75.97h17.958v61.277h36.788v14.693zm66.434 0v-75.97h56.27v14.694h-38.312v14.693h24.707v14.693h-24.707v17.197h38.747v14.693zm68.72 0v-75.97h25.577c5.732 0 10.847 0.907 15.346 2.721 4.571 1.742 8.453 4.281 11.646 7.619 3.193 3.265 5.623 7.22 7.292 11.863 1.669 4.644 2.503 9.832 2.503 15.564 0 5.805-0.834 11.066-2.503 15.782-1.669 4.644-4.099 8.671-7.292 12.081-3.193 3.338-7.075 5.914-11.646 7.728-4.499 1.741-9.614 2.612-15.346 2.612zm17.958-14.693h7.619c3.918 0 7.22-0.944 9.904-2.83 2.757-1.959 4.825-4.717 6.204-8.272 1.451-3.555 2.177-7.691 2.177-12.408 0-4.716-0.726-8.779-2.177-12.19-1.379-3.482-3.447-6.167-6.204-8.054-2.684-1.886-5.986-2.829-9.904-2.829h-7.619zm82.434 15.999c-6.748 0-12.626-1.633-17.632-4.898-4.934-3.337-8.78-7.945-11.537-13.822-2.757-5.878-4.136-12.734-4.136-20.571 0-7.836 1.379-14.693 4.136-20.57 2.757-5.95 6.712-10.558 11.863-13.823 5.225-3.265 11.428-4.898 18.612-4.898 5.224 0 10.049 1.052 14.475 3.157 4.499 2.031 8.2 5.042 11.102 9.033s4.499 8.852 4.789 14.585h-19.7c-0.29-3.411-1.415-6.277-3.374-8.599-1.887-2.322-4.462-3.482-7.728-3.482-3.047 0-5.768 0.979-8.162 2.938-2.322 1.887-4.173 4.644-5.551 8.272-1.306 3.628-1.959 8.09-1.959 13.387 0 5.224 0.689 9.687 2.068 13.387 1.378 3.628 3.301 6.422 5.768 8.381 2.54 1.886 5.442 2.83 8.707 2.83 2.685 0 4.97-0.363 6.857-1.089 1.887-0.798 3.701-1.959 5.442-3.483v-8.598l-10.122 0.544 0.544-14.911h27.21v27.972c-3.265 4.426-7.51 7.909-12.734 10.449-5.152 2.539-11.465 3.809-18.938 3.809zm43.251-1.306v-75.97h56.27v14.694h-38.311v14.693h24.706v14.693h-24.706v17.197h38.746v14.693z" fill="#fff"/><path d="m404.91 117.42c-9.955 0-18.719-2.326-26.293-6.979-7.466-4.76-13.308-11.523-17.528-20.287-4.112-8.7642-6.168-19.205-6.168-31.324 0-12.226 2.056-22.722 6.168-31.486 4.22-8.7642 10.062-15.472 17.528-20.125 7.574-4.6526 16.338-6.9789 26.293-6.9789 9.954 0 18.664 2.3263 26.13 6.9789 7.465 4.6526 13.254 11.361 17.366 20.125 4.22 8.656 6.329 19.151 6.329 31.486 0 12.118-2.109 22.56-6.329 31.324-4.112 8.7641-9.901 15.527-17.366 20.287-7.466 4.653-16.176 6.979-26.13 6.979zm0-21.91c4.219 0 8.006-1.4066 11.361-4.2198 3.354-2.9214 6.005-7.0871 7.952-12.497 1.948-5.5181 2.922-12.172 2.922-19.963 0-7.8985-0.974-14.553-2.922-19.963-1.947-5.5181-4.598-9.6838-7.952-12.497-3.355-2.8132-7.142-4.2198-11.361-4.2198-4.22 0-8.061 1.4607-11.524 4.3821-3.354 2.8132-6.005 6.9789-7.952 12.497-1.948 5.41-2.922 12.01-2.922 19.8 0 7.7904 0.974 14.445 2.922 19.963 1.947 5.41 4.598 9.5757 7.952 12.497 3.463 2.8132 7.304 4.2198 11.524 4.2198zm81.537-15.581v-21.91h25.806c5.193 0 9.359-1.5688 12.497-4.7066 3.138-3.246 4.706-7.4658 4.706-12.659 0-4.9771-1.568-8.9805-4.706-12.01s-7.304-4.5444-12.497-4.5444h-25.806v-21.91h25.968c8.981 0 16.825 1.5689 23.533 4.7067 6.709 3.1378 11.902 7.6281 15.581 13.471 3.679 5.7346 5.518 12.497 5.518 20.287 0 7.8986-1.839 14.823-5.518 20.774-3.679 5.8428-8.872 10.387-15.581 13.633-6.6 3.2459-14.444 4.8689-23.533 4.8689zm-19.151 35.544v-113.29h26.779v113.29zm102.8 0v-113.29h83.908v21.91h-57.129v21.91h36.842v21.91h-36.842v25.643h57.778v21.911zm101.99 0v-113.29h34.083l31.648 80.176-1.785-41.224v-38.952h25.156v113.29h-34.083l-31.973-78.715 2.11 39.763v38.952z" fill="#fff"/><path d="m383.76 218.16c-6.152 0-11.445-1.145-15.881-3.434-4.363-2.361-7.726-5.651-10.086-9.872-2.29-4.292-3.434-9.335-3.434-15.13h17.383c0 4.507 0.966 7.976 2.898 10.409 2.003 2.36 5.043 3.541 9.12 3.541 3.22 0 5.759-0.68 7.619-2.039 1.932-1.431 2.897-3.434 2.897-6.009 0-1.932-0.715-3.434-2.146-4.507-1.359-1.145-3.219-2.075-5.58-2.79-2.289-0.787-4.828-1.502-7.618-2.146-2.719-0.715-5.473-1.574-8.263-2.575-2.718-1.002-5.258-2.325-7.618-3.971-2.29-1.645-4.15-3.791-5.58-6.438-1.36-2.647-2.039-6.009-2.039-10.087 0-4.22 1.144-8.012 3.434-11.374 2.36-3.362 5.615-6.045 9.764-8.048 4.15-2.003 9.014-3.004 14.594-3.004 5.079 0 9.8 1.001 14.164 3.004 4.364 1.932 7.905 4.757 10.623 8.477 2.719 3.72 4.15 8.299 4.293 13.735h-17.706c-0.143-2.432-0.787-4.435-1.931-6.009-1.073-1.574-2.468-2.754-4.185-3.541-1.645-0.787-3.398-1.18-5.258-1.18-2.647 0-4.9 0.644-6.76 1.931-1.86 1.216-2.79 3.041-2.79 5.473 0 1.86 0.679 3.326 2.039 4.399 1.43 1.073 3.29 1.968 5.579 2.683 2.361 0.644 4.901 1.288 7.619 1.931 2.79 0.644 5.544 1.467 8.263 2.469 2.79 0.929 5.329 2.253 7.618 3.97 2.361 1.717 4.221 4.006 5.58 6.867 1.431 2.79 2.146 6.367 2.146 10.731s-1.252 8.262-3.755 11.696c-2.433 3.362-5.831 6.009-10.194 7.941-4.293 1.931-9.229 2.897-14.809 2.897zm69.469 0c-6.582 0-12.376-1.538-17.384-4.614-4.936-3.148-8.799-7.619-11.589-13.413-2.718-5.795-4.077-12.698-4.077-20.71 0-8.084 1.359-15.023 4.077-20.817 2.79-5.795 6.653-10.23 11.589-13.306 5.008-3.076 10.802-4.614 17.384-4.614 6.581 0 12.34 1.538 17.276 4.614s8.763 7.511 11.482 13.306c2.79 5.722 4.185 12.662 4.185 20.817 0 8.012-1.395 14.915-4.185 20.71-2.719 5.794-6.546 10.265-11.482 13.413-4.936 3.076-10.695 4.614-17.276 4.614zm0-14.486c2.79 0 5.294-0.93 7.511-2.79 2.218-1.932 3.971-4.686 5.258-8.263 1.288-3.648 1.932-8.048 1.932-13.198 0-5.222-0.644-9.622-1.932-13.199-1.287-3.648-3.04-6.402-5.258-8.262-2.217-1.86-4.721-2.79-7.511-2.79s-5.33 0.966-7.619 2.897c-2.217 1.86-3.97 4.614-5.258 8.263-1.287 3.576-1.931 7.94-1.931 13.091 0 5.15 0.644 9.55 1.931 13.198 1.288 3.577 3.041 6.331 5.258 8.263 2.289 1.86 4.829 2.79 7.619 2.79zm69.683 14.486c-6.51 0-12.054-1.145-16.632-3.434-4.579-2.361-8.084-5.651-10.516-9.872-2.433-4.221-3.649-9.157-3.649-14.808v-48.073h17.706v48.073c0 2.79 0.536 5.186 1.609 7.189s2.576 3.577 4.507 4.722c2.003 1.073 4.328 1.609 6.975 1.609 2.718 0 5.043-0.536 6.975-1.609 1.931-1.145 3.433-2.719 4.507-4.722 1.073-2.003 1.609-4.399 1.609-7.189v-48.073h17.705v48.073c0 5.651-1.216 10.587-3.648 14.808s-5.937 7.511-10.516 9.872c-4.578 2.289-10.122 3.434-16.632 3.434zm54.338-29.294v-14.487h16.847c2.146 0 4.006-0.393 5.58-1.18 1.645-0.787 2.897-1.896 3.756-3.326 0.93-1.431 1.395-3.041 1.395-4.829 0-1.717-0.43-3.219-1.288-4.507-0.787-1.288-1.896-2.289-3.326-3.005-1.431-0.715-3.077-1.073-4.936-1.073h-18.028v-14.486h18.028c5.436 0 10.229 0.93 14.378 2.79 4.221 1.789 7.512 4.4 9.872 7.833 2.361 3.434 3.542 7.583 3.542 12.448 0 2.933-0.716 5.83-2.147 8.692-1.359 2.79-3.362 5.329-6.009 7.618-2.575 2.289-5.723 4.114-9.442 5.473-3.649 1.359-7.798 2.039-12.448 2.039zm-12.769 28.006v-74.899h17.705v74.899zm40.776 0c0-3.147-0.572-6.331-1.717-9.55-1.145-3.291-2.826-6.402-5.043-9.335-2.146-3.005-4.829-5.723-8.048-8.156-3.219-2.432-6.939-4.399-11.16-5.901l19.637-3.971c4.149 2.075 7.762 4.543 10.838 7.404 3.076 2.862 5.615 5.938 7.618 9.229 2.075 3.29 3.613 6.688 4.615 10.194 1.001 3.433 1.502 6.796 1.502 10.086zm57.987 1.288c-6.725 0-12.555-1.574-17.491-4.721-4.865-3.22-8.656-7.726-11.374-13.521-2.647-5.866-3.971-12.698-3.971-20.495 0-7.869 1.359-14.701 4.078-20.496 2.718-5.794 6.581-10.265 11.589-13.413 5.007-3.219 10.945-4.828 17.812-4.828 5.366 0 10.302 1.037 14.809 3.111 4.506 2.075 8.191 5.08 11.052 9.014 2.933 3.935 4.543 8.728 4.829 14.379h-19.315c-0.358-3.648-1.502-6.546-3.434-8.692-1.931-2.217-4.578-3.326-7.941-3.326-2.861 0-5.472 0.93-7.833 2.79-2.289 1.788-4.113 4.507-5.472 8.155-1.288 3.577-1.932 8.012-1.932 13.306 0 5.222 0.644 9.657 1.932 13.306 1.287 3.576 3.004 6.295 5.15 8.155 2.218 1.86 4.722 2.79 7.512 2.79 2.36 0 4.399-0.465 6.116-1.395 1.788-1.002 3.219-2.432 4.292-4.292 1.145-1.86 1.824-4.114 2.039-6.761h19.315c-0.572 5.509-2.218 10.302-4.936 14.379-2.647 4.006-6.224 7.118-10.731 9.336-4.506 2.146-9.872 3.219-16.095 3.219zm41.998-1.288v-74.899h55.477v14.486h-37.772v14.487h24.359v14.486h-24.359v16.954h38.201v14.486z" fill="#fff"/></g><text transform="translate(159.73 -53.474)" x="1401.6323" fill="#ffffff" font-family="sans-serif" font-size="64px" style="line-height:1.4;white-space:pre" xml:space="preserve"><tspan x="136.8486" y="511.3728"><tspan font-family="'Azeret Mono'" font-size="93.333px" font-weight="bold" text-align="center">$2,589,432</tspan></tspan></text><text transform="translate(158.83 77.753)" x="1401.6323" fill="#ffffff" font-family="sans-serif" font-size="64px" style="line-height:1.4;white-space:pre" xml:space="preserve"><tspan x="156.26166" y="482.24708"><tspan font-family="'Libre Franklin'" text-align="center">paid to maintainers</tspan></tspan></text><rect transform="scale(-1)" x="-425.27" y="-484.45" width="129.13" height="14.619" fill="#2dde74" stroke-width="20"/><rect transform="scale(-1)" x="-669.24" y="-484.45" width="200.76" height="14.619" fill="#2dde74" stroke-width="20"/><rect transform="scale(-1)" x="-903.86" y="-484.45" width="192.37" height="14.619" fill="#2dde74" stroke-width="20"/></svg>
