<?xml version="1.0" encoding="UTF-8"?>
<svg width="302" height="64" viewBox="0 0 302 64" xmlns="http://www.w3.org/2000/svg"><path d="m28.33 33.649c3.1468 1.8162 4.7202 2.7243 6.4481 2.7258 1.728 0.0015 3.3029-0.9038 6.4529-2.7145l20.079-11.542c0.9065-0.5211 1.4653-1.4869 1.4653-2.5325 0-1.0455-0.5588-2.0114-1.4653-2.5324l-20.086-11.546c-3.1465-1.8087-4.7198-2.7131-6.4461-2.7124-1.7262 6.7e-4 -3.2988 0.90627-6.444 2.7175l-17.268 9.9439c-0.1279 0.0737-0.1919 0.1106-0.2516 0.1455-5.8985 3.453-9.5428 9.7569-9.5915 16.592-4.9e-4 0.0691-4.9e-4 0.143-4.9e-4 0.2907 0 0.1475 0 0.2212 4.9e-4 0.2902 0.04862 6.827 3.6848 13.125 9.5728 16.581 0.0595 0.035 0.1234 0.0719 0.2511 0.1456l10.816 6.2451c6.3027 3.639 9.454 5.4585 12.915 5.4597 3.4607 0.0011 6.6133-1.8162 12.918-5.451l11.418-6.5823c3.1571-1.82 4.7356-2.73 5.6024-4.2302 0.8668-1.5001 0.8668-3.3222 0.8668-6.9664v-7.0398c0-1.0109-0.5475-1.9426-1.4307-2.4344-0.8547-0.4761-1.8964-0.469-2.7446 0.0186l-23.413 13.458c-1.5708 0.903-2.3563 1.3545-3.2182 1.3548-0.8619 2e-4 -1.6476-0.4508-3.2191-1.3528l-15.846-9.0963c-0.7938-0.4557-1.1907-0.6835-1.5095-0.7246-0.7268-0.0938-1.4256 0.3134-1.7025 0.9919-0.1214 0.2975-0.1189 0.7552-0.114 1.6704 0.0036 0.6738 0.0054 1.0107 0.0684 1.3206 0.141 0.694 0.5061 1.3224 1.0392 1.7886 0.238 0.2082 0.5298 0.3766 1.1134 0.7134l16.943 9.7786c1.5755 0.9093 2.3633 1.364 3.2283 1.3642 0.865 3e-4 1.653-0.454 3.229-1.3624l20.767-11.971c0.5384-0.3103 0.8075-0.4655 1.0093-0.3489 0.2019 0.1166 0.2019 0.4273 0.2019 1.0487v3.1931c0 0.911 0 1.3666-0.2168 1.7416-0.2167 0.3751-0.6113 0.6026-1.4006 1.0575l-17.128 9.8735c-3.1533 1.8177-4.7299 2.7266-6.4606 2.7258s-3.3065-0.9111-6.4581-2.7317l-16.025-9.257c-0.0509-0.0294-0.0763-0.0441-0.1001-0.058-3.36-1.9634-5.4333-5.5554-5.4528-9.4471-1.3e-4 -0.0275-1.3e-4 -0.0568-1.3e-4 -0.1156v-2.9311c0-2.1483 1.1442-4.1341 3.0029-5.2114 1.6424-0.952 3.6682-0.9539 5.3124-5e-3l13.273 7.6608z" fill="#ffffff"/><path d="m108.36 47.106c-10.364 0-16.616-6.1681-16.616-15.106 0-8.8116 6.294-15.106 16.658-15.106 9.399 0 14.477 4.5317 14.896 10.49h-6.084c-0.294-2.3917-2.392-5.3709-8.476-5.3709h-0.671c-6.295 0-10.49 3.6505-10.49 9.9865s4.2795 9.9866 10.49 9.9866h0.671c6.126 0 9.441-2.8533 9.441-5.2451v-0.3356h-9.651v-5.1192h11.203c2.56 0 3.987 1.4686 3.987 4.0282v11.371h-5.539v-3.2729c-1.133 1.4267-4.112 3.6925-9.819 3.6925z" fill="#ffffff"/><path d="m133.01 46.686h-5.791v-29.372h5.791v29.372z" fill="#ffffff"/><path d="m153.54 46.686h-5.79v-24.253h-11.833v-5.1192h29.456v5.1192h-11.833v24.253z" fill="#ffffff"/><path d="m185.48 46.686h-17.204v-29.372h16.701c5.245 0 9.273 2.9372 9.273 7.7627 0 3.3568-2.14 5.7485-4.658 6.6717 3.021 0.6713 5.371 3.147 5.371 6.9654 0 4.8674-4.238 7.9724-9.483 7.9724zm-11.413-24.253v6.7975h10.28c2.56 0 4.07-1.1748 4.07-3.5246 0-1.9302-1.51-3.2729-4.07-3.2729h-10.28zm0 11.917v7.2172h10.574c2.769 0 4.49-1.4267 4.49-3.6506 0-2.3917-1.721-3.5666-4.49-3.5666h-10.574z" fill="#ffffff"/><path d="m214.12 47.106c-9.525 0-16.659-5.7066-16.659-15.106s7.134-15.106 16.659-15.106c9.524 0 16.616 5.7066 16.616 15.106s-7.092 15.106-16.616 15.106zm-0.336-5.1191h0.671c5.665 0 10.448-3.6506 10.448-9.9866s-4.783-9.9865-10.448-9.9865h-0.671c-5.665 0-10.49 3.6505-10.49 9.9865s4.825 9.9866 10.49 9.9866z" fill="#ffffff"/><path d="m249.56 47.106c-9.525 0-16.658-5.7066-16.658-15.106s7.133-15.106 16.658-15.106 16.616 5.7066 16.616 15.106-7.091 15.106-16.616 15.106zm-0.336-5.1191h0.672c5.664 0 10.448-3.6506 10.448-9.9866s-4.784-9.9865-10.448-9.9865h-0.672c-5.664 0-10.49 3.6505-10.49 9.9865s4.826 9.9866 10.49 9.9866z" fill="#ffffff"/><path d="m298.78 46.686h-7.637l-12.001-13.259-4.196 3.5666v9.6928h-5.79v-29.372h5.79v12.966l15.148-12.966h8.014l-14.686 12.504 15.358 16.868z" fill="#ffffff"/></svg>
