<svg width="114" height="15" viewBox="0 0 114 15" fill="none" xmlns="http://www.w3.org/2000/svg">
<g clip-path="url(#clip0_843_852)">
<path d="M0.962891 1.53897H6.02238C7.21741 1.53897 8.13307 1.62821 8.77326 1.80669C9.42898 1.97353 9.89067 2.24901 10.1584 2.63312C10.4261 3.0056 10.5619 3.5294 10.5619 4.21227V5.75262C10.5619 6.09794 10.4223 6.42773 10.139 6.73425C9.8713 7.04077 9.54927 7.25416 9.1768 7.37056V7.46756C9.66567 7.518 10.108 7.7314 10.5037 8.10388C10.915 8.46472 11.1207 8.86823 11.1207 9.31443V11.2389C11.1207 12.2516 10.7171 12.9693 9.91012 13.3961C9.10308 13.8191 7.84984 14.0325 6.15817 14.0325H0.962891V1.54285V1.53897ZM6.02238 6.61784C6.49574 6.61784 6.84881 6.57905 7.0816 6.50145C7.3144 6.42385 7.4657 6.30357 7.5433 6.13673C7.63254 5.95825 7.67913 5.70217 7.67913 5.36849V4.75158C7.67913 4.4567 7.64032 4.23942 7.56272 4.09587C7.48512 3.94067 7.32604 3.83203 7.0816 3.76995C6.84881 3.70399 6.48021 3.67295 5.96417 3.67295H3.9621V6.61784H6.02238ZM6.09996 11.8907C6.8294 11.8907 7.34932 11.8092 7.65972 11.6424C7.96623 11.4756 8.12141 11.2079 8.12141 10.8354V9.83434C8.12141 9.37262 8.00115 9.04671 7.75672 8.85271C7.52392 8.65871 7.10877 8.5656 6.50738 8.5656H3.96598V11.8946H6.10385L6.09996 11.8907ZM12.6765 4.71279H15.3498V6.35014C15.3498 6.05526 15.4701 5.76814 15.7145 5.4849C15.959 5.20166 16.2655 4.97274 16.638 4.79038C17.0221 4.61191 17.4023 4.52266 17.7748 4.52266H18.7758V6.85064H17.8136C17.0182 6.85064 16.4284 6.97092 16.0443 7.21536C15.6718 7.4598 15.4856 7.86332 15.4856 8.42591V14.0247H12.6765V4.70891V4.71279ZM24.4057 14.2187C23.8275 14.2187 23.3542 14.1993 22.9817 14.1605C22.6092 14.1217 22.2135 14.0441 21.7867 13.9277C21.325 13.7997 20.9525 13.6212 20.6693 13.3884C20.386 13.144 20.1493 12.8064 19.9553 12.368C19.7613 11.945 19.6682 11.4329 19.6682 10.8276V8.07672C19.6682 7.4598 19.7652 6.92049 19.9553 6.45878C20.1493 5.99706 20.3976 5.63622 20.7042 5.38015C20.9719 5.16287 21.3249 4.9805 21.7634 4.84082C22.2135 4.68563 22.648 4.59251 23.0709 4.55371C23.5598 4.52655 24.0021 4.51491 24.3979 4.51491C24.9877 4.51491 25.4571 4.53431 25.8024 4.57311C26.1633 4.60027 26.5513 4.67399 26.9781 4.80591C27.4398 4.94559 27.8123 5.13958 28.0955 5.38402C28.3904 5.62846 28.6426 5.97377 28.8443 6.42385C29.0383 6.88556 29.1314 7.43652 29.1314 8.0806V10.8315C29.1314 11.4096 29.0344 11.914 28.8443 12.3524C28.6658 12.787 28.4292 13.1284 28.1304 13.3729C27.8743 13.5901 27.5213 13.7725 27.0712 13.9122C26.6366 14.0402 26.2059 14.1256 25.783 14.1605C25.3989 14.1993 24.9372 14.2187 24.3979 14.2187H24.4057ZM24.4057 12.4688C24.9333 12.4688 25.3291 12.43 25.6007 12.3524C25.8684 12.2632 26.0546 12.1274 26.1594 11.9489C26.2758 11.7704 26.334 11.5066 26.334 11.1613V7.63828C26.334 7.12612 26.1982 6.76529 25.9305 6.55965C25.6627 6.35401 25.1545 6.25314 24.4095 6.25314C23.6646 6.25314 23.1602 6.35401 22.8886 6.55965C22.6209 6.76529 22.4851 7.12224 22.4851 7.63828V11.1613C22.4851 11.5066 22.5355 11.7704 22.6403 11.9489C22.7567 12.1274 22.9468 12.2632 23.2184 12.3524C23.4861 12.43 23.8857 12.4688 24.4134 12.4688H24.4057ZM29.8686 4.71279H32.7359L34.4664 11.4678L36.3133 4.71279H39.0641L40.9886 11.4678L42.6454 4.71279H45.3769L42.335 14.0286H39.4871L37.6402 7.73528L35.8321 14.0286H32.9843L29.8648 4.71279H29.8686ZM49.8699 14.2187C48.8689 14.2187 47.6427 14.1217 46.1955 13.9316V12.0653C47.9803 12.333 49.218 12.4688 49.9087 12.4688C50.4984 12.4688 50.9369 12.4106 51.2162 12.2942C51.4995 12.1778 51.6391 11.9683 51.6391 11.6579V11.0798C51.6391 10.7578 51.5499 10.5327 51.3714 10.4047C51.1929 10.265 50.8398 10.1913 50.3122 10.1913H49.1016C48.1122 10.1913 47.3518 9.9973 46.8125 9.61318C46.2732 9.21354 46.0054 8.63931 46.0054 7.88272V6.74589C46.0054 5.93886 46.3895 5.3685 47.1616 5.03482C47.9299 4.68951 49.0939 4.51491 50.6459 4.51491C51.2628 4.51491 52.3647 4.5731 53.9555 4.6895V6.47817C51.9534 6.32297 50.8243 6.24537 50.5682 6.24537C49.8117 6.24537 49.3189 6.29581 49.0861 6.40057C48.8805 6.51697 48.7796 6.72649 48.7796 7.03689V7.53741C48.7796 7.70424 48.8611 7.85168 49.0279 7.97972C49.1948 8.09612 49.4392 8.15432 49.7573 8.15432H50.9873C53.2726 8.15432 54.4133 8.89927 54.4133 10.3853V11.5609C54.4133 12.011 54.3318 12.4029 54.165 12.7366C53.9981 13.0702 53.7809 13.3341 53.5093 13.5242C53.2532 13.7027 52.9195 13.8462 52.5082 13.9471C52.1086 14.048 51.6934 14.1217 51.2589 14.1605C50.8593 14.1993 50.3976 14.2187 49.8738 14.2187H49.8699ZM60.7881 14.2187C57.4901 14.2187 55.8411 13.2099 55.8411 11.1962V7.8478C55.8411 6.67993 56.2136 5.8341 56.9585 5.30643C57.7151 4.77875 58.8753 4.51879 60.4428 4.51879C61.9172 4.51879 62.9958 4.77486 63.6748 5.28702C64.3693 5.78753 64.7146 6.64113 64.7146 7.8478V10.1176H58.6735V10.9634C58.6735 11.5027 58.8675 11.8868 59.2516 12.1196C59.6357 12.3524 60.3302 12.465 61.3313 12.465C62.2547 12.465 63.2945 12.3292 64.4508 12.0614V13.8501C63.3101 14.0945 62.0917 14.2148 60.7958 14.2148L60.7881 14.2187ZM62.0375 8.52291V7.17656C62.0375 6.87004 61.9094 6.63725 61.6533 6.48206C61.4089 6.32686 60.9937 6.24925 60.404 6.24925C59.725 6.24925 59.2672 6.32686 59.0382 6.48206C58.7938 6.64889 58.6735 6.88168 58.6735 7.17656V8.52291H62.0413H62.0375ZM66.4761 4.71279H69.1494V6.35014C69.1494 6.05526 69.2697 5.76814 69.5142 5.4849C69.7586 5.20166 70.0651 4.97274 70.4376 4.79038C70.8217 4.61191 71.2019 4.52266 71.5744 4.52266H72.5754V6.85064H71.6132C70.8178 6.85064 70.2281 6.97092 69.8439 7.21536C69.4715 7.4598 69.2852 7.86332 69.2852 8.42591V14.0247H66.4761V4.70891V4.71279ZM78.4536 14.2187C77.2741 14.2187 76.3351 14.0984 75.6445 13.854C74.9655 13.6096 74.4766 13.2371 74.1817 12.7366C73.8868 12.2244 73.7394 11.5493 73.7394 10.7151V0.553467H76.5485V5.63234C76.7154 5.20943 77.0218 4.91842 77.4719 4.7671C77.922 4.60027 78.6204 4.51879 79.571 4.51879C80.378 4.51879 81.026 4.58475 81.5149 4.71279C82.0154 4.84083 82.3956 5.04647 82.6517 5.3297C82.8962 5.61294 83.063 5.92722 83.1522 6.27253C83.2414 6.60621 83.288 7.06793 83.288 7.65768V10.719C83.288 11.9761 82.9078 12.8762 82.1512 13.4117C81.3946 13.951 80.1608 14.2187 78.4574 14.2187H78.4536ZM78.4924 12.4688C79.0433 12.4688 79.4624 12.43 79.7417 12.3524C80.025 12.2748 80.2151 12.139 80.3198 11.9489C80.4207 11.7549 80.4751 11.4678 80.4751 11.0837V7.63828C80.4751 7.21536 80.4285 6.91273 80.3392 6.73425C80.25 6.54025 80.0715 6.41222 79.7999 6.35014C79.5322 6.28418 79.086 6.25314 78.473 6.25314C77.9453 6.25314 77.5418 6.29969 77.2624 6.38893C76.9947 6.47817 76.8085 6.62172 76.7037 6.81184C76.6028 7.00584 76.5485 7.28132 76.5485 7.63828V11.0837C76.5485 11.4678 76.5951 11.7588 76.6843 11.9489C76.7852 12.1429 76.9714 12.2748 77.243 12.3524C77.5263 12.43 77.9414 12.4688 78.4924 12.4688ZM87.7383 14.2187C86.8654 14.2187 86.2135 14.1411 85.7751 13.9859C85.3521 13.8191 85.0495 13.5319 84.871 13.1207C84.7042 12.6978 84.6227 12.0692 84.6227 11.235C84.6227 10.4901 84.712 9.90806 84.8905 9.48515C85.0845 9.06223 85.3832 8.7596 85.7945 8.58112C86.2174 8.38712 86.7955 8.29399 87.5249 8.29399H90.6793V7.65768C90.6793 7.25805 90.6212 6.96317 90.5048 6.77305C90.4039 6.57905 90.2021 6.44713 89.9072 6.36953C89.624 6.29193 89.1933 6.25314 88.6191 6.25314C87.8237 6.25314 86.7334 6.33073 85.3483 6.48593V4.71666C86.3609 4.58862 87.5482 4.52266 88.9101 4.52266C90.1051 4.52266 91.0208 4.61191 91.661 4.79038C92.3167 4.96886 92.7823 5.27926 93.0655 5.71382C93.3488 6.14837 93.4884 6.78469 93.4884 7.61888V14.0286H90.7375V13.1828C90.5203 13.5552 90.2254 13.8191 89.8529 13.9704C89.4804 14.1372 88.7743 14.2187 87.7345 14.2187H87.7383ZM88.8364 12.4688C89.399 12.4688 89.8063 12.4494 90.0469 12.4106C90.2254 12.3835 90.3496 12.3447 90.4116 12.2942C90.4892 12.2438 90.5513 12.1584 90.6056 12.0459C90.6561 11.9567 90.6832 11.8209 90.6832 11.6424V9.83434H88.7588C88.3242 9.83434 88.0138 9.86538 87.8353 9.93134C87.6569 9.98178 87.5327 10.0982 87.4706 10.2767C87.4046 10.4435 87.3736 10.7461 87.3736 11.1807C87.3736 11.6152 87.4046 11.8985 87.4706 12.0653C87.5366 12.2322 87.6569 12.3408 87.8353 12.3912C88.0293 12.4417 88.363 12.4688 88.8364 12.4688ZM99.0639 14.2187C98.0629 14.2187 96.8369 14.1217 95.3896 13.9316V12.0653C97.1744 12.333 98.4121 12.4688 99.1027 12.4688C99.6925 12.4688 100.131 12.4106 100.41 12.2942C100.694 12.1778 100.833 11.9683 100.833 11.6579V11.0798C100.833 10.7578 100.744 10.5327 100.565 10.4047C100.387 10.265 100.034 10.1913 99.5063 10.1913H98.2957C97.3063 10.1913 96.5458 9.9973 96.0065 9.61318C95.4672 9.21354 95.1995 8.63931 95.1995 7.88272V6.74589C95.1995 5.93886 95.5836 5.3685 96.3557 5.03482C97.124 4.68951 98.2879 4.51491 99.8399 4.51491C100.457 4.51491 101.559 4.5731 103.15 4.6895V6.47817C101.147 6.32297 100.018 6.24537 99.7624 6.24537C99.0058 6.24537 98.513 6.29581 98.2802 6.40057C98.0745 6.51697 97.9737 6.72649 97.9737 7.03689V7.53741C97.9737 7.70424 98.0552 7.85168 98.222 7.97972C98.3889 8.09612 98.6333 8.15432 98.9515 8.15432H100.181C102.467 8.15432 103.607 8.89927 103.607 10.3853V11.5609C103.607 12.011 103.526 12.4029 103.359 12.7366C103.192 13.0702 102.975 13.3341 102.703 13.5242C102.447 13.7027 102.114 13.8462 101.702 13.9471C101.303 14.048 100.888 14.1217 100.453 14.1605C100.053 14.1993 99.5916 14.2187 99.0678 14.2187H99.0639ZM109.982 14.2187C106.684 14.2187 105.035 13.2099 105.035 11.1962V7.8478C105.035 6.67993 105.408 5.8341 106.153 5.30643C106.909 4.77875 108.069 4.51879 109.637 4.51879C111.111 4.51879 112.19 4.77486 112.869 5.28702C113.563 5.78753 113.909 6.64113 113.909 7.8478V10.1176H107.868V10.9634C107.868 11.5027 108.062 11.8868 108.446 12.1196C108.83 12.3524 109.524 12.465 110.525 12.465C111.449 12.465 112.489 12.3292 113.645 12.0614V13.8501C112.504 14.0945 111.286 14.2148 109.99 14.2148L109.982 14.2187ZM111.232 8.52291V7.17656C111.232 6.87004 111.103 6.63725 110.847 6.48206C110.603 6.32686 110.188 6.24925 109.598 6.24925C108.919 6.24925 108.461 6.32686 108.232 6.48206C107.988 6.64889 107.868 6.88168 107.868 7.17656V8.52291H111.235H111.232Z" fill="white"/>
</g>
<defs>
<clipPath id="clip0_843_852">
<rect width="114" height="15" fill="white"/>
</clipPath>
</defs>
</svg>
