<svg width="96" height="25" viewBox="0 0 96 25" fill="none" xmlns="http://www.w3.org/2000/svg">
<g clip-path="url(#clip0_843_848)">
<path d="M10.2165 9.19787C10.2165 11.0603 9.47932 12.263 8.00494 12.8062L10.9498 16.9617H7.75661L5.18031 13.2524H3.38388V16.9617H0.788208V5.3373H5.19584C7.00391 5.3373 8.28815 5.64382 9.05251 6.25298C9.8285 6.86213 10.2165 7.84376 10.2165 9.19787ZM5.27731 11.0098C6.16582 11.0098 6.76723 10.8663 7.08927 10.5791C7.41131 10.292 7.57038 9.83806 7.57038 9.21727C7.57038 8.59647 7.40353 8.15416 7.06985 7.92136C6.73617 7.68856 6.15418 7.57216 5.32387 7.57216H3.38V11.0137H5.27342L5.27731 11.0098ZM21.2473 5.34118V7.65364H15.4622V10.0476H20.6653V12.2592H15.4622V14.6686H21.4335V16.9617H12.8704V5.3373H21.2511L21.2473 5.34118ZM29.0848 14.6686C30.3613 14.6686 31.4011 14.1642 32.2121 13.1554L33.8765 14.8704C32.5573 16.3564 31.0015 17.0975 29.2051 17.0975C27.4087 17.0975 25.9459 16.531 24.7819 15.4019C23.6296 14.2729 23.0515 12.8489 23.0515 11.1301C23.0515 9.41126 23.6373 7.96016 24.8129 6.80781C26.0002 5.65546 27.4475 5.07735 29.1546 5.07735C31.0597 5.07735 32.6582 5.8029 33.9425 7.254L32.3284 9.08146C31.5098 8.06103 30.4893 7.55277 29.2671 7.55277C28.2933 7.55277 27.4552 7.8748 26.7568 8.51499C26.07 9.14743 25.7248 10.0049 25.7248 11.0913C25.7248 12.1777 26.0506 13.0313 26.7064 13.687C27.3621 14.3427 28.1536 14.6686 29.0848 14.6686ZM40.8489 7.5838V16.9617H38.2531V7.5838H34.9591V5.3373H44.1391V7.5838H40.8489ZM54.5956 11.0913C54.5956 10.0476 54.2619 9.16295 53.5984 8.42963C52.935 7.69632 52.1124 7.33161 51.1385 7.33161C50.1647 7.33161 49.3576 7.69632 48.6941 8.42963C48.0307 9.16295 47.697 10.0476 47.697 11.0913C47.697 12.1234 48.0307 13.0041 48.6941 13.7336C49.3576 14.4552 50.1724 14.8161 51.1385 14.8161C52.1047 14.8161 52.935 14.4552 53.5984 13.7336C54.2619 13.0002 54.5956 12.1195 54.5956 11.0913ZM55.4763 15.3631C54.3007 16.5038 52.8535 17.0742 51.1347 17.0742C49.4158 17.0742 47.9686 16.5038 46.7968 15.3631C45.6212 14.2108 45.0353 12.7791 45.0353 11.0719C45.0353 9.3647 45.6212 7.94076 46.7968 6.80005C47.9725 5.6477 49.4197 5.06958 51.1347 5.06958C52.8535 5.06958 54.3007 5.6477 55.4763 6.80005C56.6519 7.94076 57.2378 9.3647 57.2378 11.0719C57.2378 12.7791 56.6519 14.2108 55.4763 15.3631ZM68.8622 9.19399C68.8622 11.0564 68.125 12.2592 66.6506 12.8024L69.5955 16.9578H66.4023L63.826 13.2486H62.0296V16.9578H59.4339V5.33343H63.8415C65.6496 5.33343 66.9339 5.63994 67.6982 6.24909C68.4742 6.85825 68.8622 7.83988 68.8622 9.19399ZM63.923 11.0059C64.8115 11.0059 65.4129 10.8624 65.735 10.5753C66.057 10.2881 66.2161 9.83419 66.2161 9.21339C66.2161 8.5926 66.0492 8.15027 65.7194 7.91747C65.3858 7.68468 64.8038 7.56828 63.9735 7.56828H62.0296V11.0098H63.923V11.0059Z" fill="white"/>
<path d="M76.5988 23.6122L78.2982 21.5247L76.7695 19.9689L78.9888 18.9795L80.436 17.3033L82.5777 17.9358L83.412 16.6049L84.3199 14.0403" stroke="white" stroke-width="0.356957" stroke-miterlimit="2.59"/>
<path d="M78.8802 18.968L76.3853 17.9437L76.1913 15.9261L74.5424 14.5254" stroke="white" stroke-width="0.356957" stroke-miterlimit="2.59"/>
<path d="M77.6735 6.61011L79.757 7.91378L80.1412 9.87316L82.3683 9.09717L84.3431 9.91585" stroke="white" stroke-width="0.356957" stroke-miterlimit="2.59"/>
<path d="M78.2672 4.16187L79.9822 5.56641L79.7959 7.96811" stroke="white" stroke-width="0.356957" stroke-miterlimit="2.59"/>
<path d="M80.6262 24.0351L81.635 21.7382L81.0452 19.5771L82.5739 17.9785" stroke="white" stroke-width="0.356957" stroke-miterlimit="2.59"/>
<path d="M82.8844 9.26367L83.2181 11.6343L84.2656 12.1193" stroke="white" stroke-width="0.356957" stroke-miterlimit="2.59"/>
<path d="M77.9298 11.7708H80.9252C81.3209 11.7708 81.6391 12.0889 81.6391 12.4847V15.4761C81.6391 15.8719 81.3209 16.19 80.9252 16.19H77.9298C77.5341 16.19 77.2159 15.8719 77.2159 15.4761V12.4847C77.2159 12.0889 77.5341 11.7708 77.9298 11.7708Z" stroke="white" stroke-width="0.450076" stroke-linejoin="round"/>
<path d="M79.7455 11.751H79.0975V16.2595H79.7455V11.751Z" fill="white"/>
<path d="M81.6661 13.6211H77.1576V14.2458H81.6661V13.6211Z" fill="white"/>
<path d="M78.1431 1.61279C77.9452 1.61279 77.7861 1.77187 77.7861 1.96975V6.26099C77.7861 6.45887 77.9452 6.61795 78.1431 6.61795H78.3526L79.9783 4.99225V1.96975C79.9783 1.77187 79.8192 1.61279 79.6213 1.61279H78.1431Z" fill="white"/>
<path d="M84.4365 0.169212L84.5995 0.33217C84.7392 0.471849 84.7392 0.696888 84.5995 0.836567L73.8558 11.5802C73.7162 11.7199 73.4912 11.7199 73.3515 11.5802L73.1885 11.4172C73.0488 11.2776 73.0488 11.0525 73.1885 10.9128L83.9321 0.169212C84.0718 0.0295334 84.2968 0.0295334 84.4365 0.169212Z" fill="white"/>
<path d="M84.1843 1.24399L94.5205 11.5802C94.6602 11.7199 94.8853 11.7199 95.025 11.5802L95.1879 11.4173C95.3276 11.2776 95.3276 11.0525 95.1879 10.9129L84.4443 0.169235C84.3744 0.099396 84.2813 0.0605947 84.1804 0.0644746V1.2401L84.1843 1.24399Z" fill="white"/>
<path d="M93.174 11.0948L84.673 2.59379C84.5333 2.45411 84.3548 2.38428 84.1725 2.38428V18.7577H85.0765C85.4723 18.7577 85.7904 19.0759 85.7904 19.4716V23.4913H92.9645C93.3603 23.4913 93.6784 23.1731 93.6784 22.7774V12.3131C93.6784 11.9174 93.4534 11.3742 93.174 11.0948ZM91.203 15.4636C91.203 15.8594 90.8848 16.1776 90.4891 16.1776H87.4938C87.098 16.1776 86.7799 15.8594 86.7799 15.4636V12.4722C86.7799 12.0764 87.098 11.7583 87.4938 11.7583H90.4891C90.8848 11.7583 91.203 12.0764 91.203 12.4722V15.4636Z" fill="white"/>
</g>
<defs>
<clipPath id="clip0_843_848">
<rect width="96" height="25" fill="white"/>
</clipPath>
</defs>
</svg>
