<svg width="98" height="19" viewBox="0 0 98 19" fill="none" xmlns="http://www.w3.org/2000/svg">
<g clip-path="url(#clip0_843_842)">
<mask id="mask0_843_842" style="mask-type:luminance" maskUnits="userSpaceOnUse" x="0" y="0" width="98" height="19">
<path d="M97.8812 0.66748H0.195312V18.1273H97.8812V0.66748Z" fill="white"/>
</mask>
<g mask="url(#mask0_843_842)">
<path d="M20.569 15.5627C21.4303 15.5627 22.1288 15.3222 22.6758 14.8449C23.219 14.3677 23.4906 13.7314 23.4906 12.936V12.6916H20.3983C19.8318 12.6916 19.3856 12.8118 19.0597 13.0563C18.7338 13.3007 18.5747 13.6383 18.5747 14.0767C18.5747 14.5151 18.7454 14.8721 19.0869 15.1476C19.4283 15.423 19.921 15.5627 20.5729 15.5627H20.569ZM20.0336 18.0459C19.1722 18.0459 18.404 17.8946 17.7211 17.5958C17.0382 17.2971 16.4989 16.8586 16.1031 16.2805C15.7035 15.7063 15.5056 15.004 15.5056 14.1737C15.5056 13.3434 15.7035 12.6527 16.1031 12.094C16.4989 11.5353 17.0537 11.1124 17.756 10.8292C18.4622 10.5459 19.2692 10.4024 20.1771 10.4024H23.4867V9.7195C23.4867 9.15302 23.3083 8.68354 22.9513 8.31883C22.5943 7.95411 22.0279 7.77175 21.248 7.77175C20.4681 7.77175 19.9172 7.94635 19.5447 8.29555C19.1722 8.64475 18.9278 9.09482 18.8152 9.64577L15.9906 8.69518C16.1846 8.07827 16.4989 7.51567 16.9257 7.00352C17.3564 6.49136 17.9306 6.08009 18.6523 5.76193C19.374 5.44377 20.2547 5.28857 21.2945 5.28857C22.8853 5.28857 24.1424 5.68821 25.0659 6.47972C25.9893 7.27511 26.451 8.42747 26.451 9.93677V14.4375C26.451 14.9225 26.68 15.167 27.1339 15.167H28.1078V17.6967H26.063C25.4616 17.6967 24.9689 17.5493 24.577 17.2583C24.189 16.9673 23.9911 16.5754 23.9911 16.0904V16.0671H23.5294C23.4634 16.2611 23.3199 16.5172 23.091 16.8354C22.8621 17.1535 22.509 17.4329 22.0201 17.6734C21.5351 17.9179 20.8677 18.0381 20.0258 18.0381L20.0336 18.0459Z" fill="white"/>
<path d="M33.1749 0.66748H30.1097V17.7005H33.1749V0.66748Z" fill="white"/>
<path d="M46.8983 17.7041C46.1029 17.7041 45.4588 17.4558 44.9622 16.9631C44.4655 16.4703 44.2211 15.8068 44.2211 14.9804V8.16719H41.2025V5.63745H44.2211V1.8894H47.2863V5.63745H50.5959V8.16719H47.2863V14.445C47.2863 14.93 47.5152 15.1744 47.9692 15.1744H50.3049V17.7041H46.8983Z" fill="white"/>
<path d="M58.4334 15.3181C59.3724 15.3181 60.1523 15.0154 60.7692 14.4063C61.3861 13.7971 61.6926 12.9241 61.6926 11.7912V11.5467C61.6926 10.4099 61.39 9.5408 60.7808 8.93165C60.1717 8.32249 59.3879 8.01985 58.4334 8.01985C57.479 8.01985 56.7147 8.32249 56.0977 8.93165C55.4808 9.5408 55.1743 10.4138 55.1743 11.5467V11.7912C55.1743 12.928 55.4808 13.7971 56.0977 14.4063C56.7147 15.0154 57.4945 15.3181 58.4334 15.3181ZM58.4334 18.0418C57.2345 18.0418 56.152 17.7974 55.1976 17.3124C54.2392 16.8274 53.4865 16.1212 52.9356 15.1939C52.3846 14.2705 52.1091 13.1569 52.1091 11.861V11.473C52.1091 10.1771 52.3846 9.06357 52.9356 8.14014C53.4865 7.2167 54.2431 6.51055 55.1976 6.02167C56.1559 5.53668 57.2345 5.29224 58.4334 5.29224C59.6324 5.29224 60.711 5.53668 61.6694 6.02167C62.6277 6.50667 63.3804 7.21282 63.9314 8.14014C64.4823 9.06357 64.7578 10.1771 64.7578 11.473V11.861C64.7578 13.1608 64.4823 14.2705 63.9314 15.1939C63.3804 16.1173 62.6238 16.8235 61.6694 17.3124C60.711 17.7974 59.6324 18.0418 58.4334 18.0418Z" fill="white"/>
<path d="M68.0249 15.9894L66.5621 5.62988H69.604L70.6749 15.6324H71.1133L72.4092 7.31379C72.5605 6.3438 73.3948 5.62988 74.3764 5.62988H75.8818C76.8635 5.62988 77.6976 6.3438 77.8489 7.31379L79.1448 15.6324H79.5833L80.6542 5.62988H83.696L82.2333 15.9894C82.0936 16.971 81.2555 17.7005 80.2623 17.7005H78.6094C77.6278 17.7005 76.7936 16.9865 76.6423 16.0165L75.3464 7.69791H74.9079L73.612 16.0165C73.4607 16.9865 72.6265 17.7005 71.6449 17.7005H69.992C68.9987 17.7005 68.1607 16.971 68.021 15.9894H68.0249Z" fill="white"/>
<path d="M86.1288 17.704V5.63345H89.1474V7.21648H89.5858C89.7798 6.79356 90.1445 6.39393 90.68 6.00981C91.2154 5.62957 92.0263 5.43945 93.1127 5.43945C94.0517 5.43945 94.8781 5.65285 95.5843 6.08353C96.2904 6.51421 96.8375 7.10396 97.2255 7.86055C97.6135 8.61327 97.8075 9.49402 97.8075 10.5028V17.7079H94.7423V10.7472C94.7423 9.83933 94.5173 9.15646 94.0749 8.70251C93.6288 8.24855 92.9925 8.01963 92.166 8.01963C91.2232 8.01963 90.4938 8.33391 89.9777 8.9547C89.4578 9.57938 89.1979 10.4524 89.1979 11.5698V17.704H86.1327H86.1288Z" fill="white"/>
<path d="M12.5568 5.63379L6.62825 15.4656H6.18982V7.34097C6.18982 6.39814 5.42545 5.63379 4.48262 5.63379H3.12463V15.7139C3.12463 16.812 4.01703 17.7044 5.11506 17.7044H7.32662C8.35093 17.7044 9.30154 17.1573 9.81369 16.2688L15.9595 5.63379H12.5568Z" fill="white"/>
<path d="M0.195312 5.62988H3.26826V8.15962H0.195312V5.62988Z" fill="white"/>
</g>
</g>
<defs>
<clipPath id="clip0_843_842">
<rect width="98" height="19" fill="white"/>
</clipPath>
</defs>
</svg>
