<svg width="111" height="22" viewBox="0 0 111 22" fill="none" xmlns="http://www.w3.org/2000/svg">
<g clip-path="url(#clip0_843_844)">
<path d="M23.7027 8.82681V14.1346H17.778V11.9114C17.778 11.5001 17.4482 11.1703 17.0369 11.1703H15.5548C15.1435 11.1703 14.8137 11.5001 14.8137 11.9114V14.1346H8.889V11.9114C8.889 11.5001 8.55921 11.1703 8.14793 11.1703H6.66578C6.25451 11.1703 5.92471 11.5001 5.92471 11.9114V14.1346H0V8.82681C0 8.43494 0.155197 8.05859 0.434554 7.77923L2.52974 5.68405C2.80909 5.40469 3.18545 5.24561 3.57733 5.24561H20.1254C20.5173 5.24561 20.8936 5.40081 21.173 5.68017L23.2682 7.77535C23.5436 8.05082 23.7027 8.43106 23.7027 8.82681Z" fill="white"/>
<path d="M17.778 14.135V16.3582C17.778 16.7695 17.4482 17.0993 17.0369 17.0993H15.5548C15.1435 17.0993 14.8137 16.7695 14.8137 16.3582V14.135H8.889V16.3582C8.889 16.7695 8.55921 17.0993 8.14793 17.0993H6.66578C6.25451 17.0993 5.92471 16.7695 5.92471 16.3582V14.135H0V20.0597C0 20.8745 0.667354 21.5419 1.48215 21.5419H22.2206C23.0354 21.5419 23.7027 20.8745 23.7027 20.0597V14.135H17.778ZM8.15181 3.02669H15.5587V5.24991H17.7819V3.02669C17.7819 1.80062 16.7847 0.803467 15.5587 0.803467H8.15181C6.92574 0.803467 5.92859 1.79674 5.92859 3.02669V5.24991H8.15181V3.02669Z" fill="white" fill-opacity="0.4"/>
<path d="M33.6743 18.9924C32.1727 18.9924 31.0048 18.4841 30.1707 17.4675C29.3365 16.4393 28.9174 14.9339 28.9174 12.9474C28.9174 10.9608 29.3365 9.43599 30.1707 8.37676C31.0048 7.30589 32.1727 6.77046 33.6743 6.77046C34.6675 6.77046 35.4978 6.9955 36.1613 7.44945C36.8403 7.89953 37.3641 8.53972 37.7366 9.36227L36.5842 10.0568C36.3476 9.44764 35.9867 8.96264 35.5017 8.6018C35.0167 8.22933 34.4076 8.04309 33.6743 8.04309C33.166 8.04309 32.7082 8.14008 32.3046 8.3302C31.9089 8.52032 31.5713 8.79968 31.2881 9.16052C31.0165 9.50972 30.807 9.93263 30.6634 10.4293C30.516 10.9143 30.4422 11.4613 30.4422 12.0705V13.832C30.4422 15.0503 30.7255 16.0048 31.2881 16.6915C31.8507 17.3783 32.65 17.7236 33.6743 17.7236C34.4309 17.7236 35.0633 17.5335 35.5716 17.1494C36.0798 16.7536 36.4523 16.2337 36.689 15.5935L37.8219 16.3035C37.4495 17.1377 36.914 17.7973 36.2156 18.2823C35.5172 18.7557 34.6714 18.9924 33.6781 18.9924H33.6743ZM39.89 6.26218H41.2441V11.4769H41.31C41.5234 10.9802 41.8222 10.5845 42.2063 10.2935C42.6021 9.99859 43.1259 9.85504 43.7816 9.85504C44.6856 9.85504 45.3956 10.1499 45.9156 10.7358C46.4471 11.31 46.7109 12.1287 46.7109 13.1918V18.7945H45.3568V13.4285C45.3568 11.861 44.6972 11.0772 43.3781 11.0772C43.1065 11.0772 42.8426 11.1121 42.5827 11.1781C42.3343 11.2441 42.1093 11.3488 41.9037 11.4846C41.7019 11.6204 41.5351 11.795 41.4109 12.0084C41.2984 12.2102 41.2402 12.4546 41.2402 12.7378V18.7984H39.8861V6.26994L39.89 6.26218ZM50.1874 8.00429C49.8925 8.00429 49.6791 7.93833 49.5433 7.80253C49.4192 7.65509 49.3571 7.46885 49.3571 7.24382V7.02265C49.3571 6.79762 49.4192 6.61526 49.5433 6.47946C49.6791 6.33202 49.8925 6.2583 50.1874 6.2583C50.4823 6.2583 50.6879 6.33202 50.8121 6.47946C50.9479 6.61526 51.0138 6.79374 51.0138 7.02265V7.24382C51.0138 7.46885 50.9479 7.65509 50.8121 7.80253C50.6879 7.93833 50.4784 8.00429 50.1874 8.00429ZM49.5084 10.0529H50.8625V18.7867H49.5084V10.0529ZM57.0239 18.9924C56.4264 18.9924 55.8832 18.8837 55.3982 18.6703C54.9248 18.4569 54.5136 18.1504 54.1644 17.7546C53.8268 17.3472 53.5591 16.87 53.369 16.3152C53.1866 15.7526 53.0974 15.1201 53.0974 14.4179C53.0974 13.7156 53.1866 13.1026 53.369 12.54C53.5591 11.9774 53.8268 11.4963 54.1644 11.1005C54.5136 10.6931 54.9248 10.3827 55.3982 10.1693C55.8832 9.95592 56.4264 9.84727 57.0239 9.84727C57.6214 9.84727 58.1336 9.95592 58.5992 10.1693C59.0609 10.3827 59.4566 10.6815 59.7826 11.0656C60.1085 11.4381 60.3568 11.8843 60.5275 12.4042C60.7099 12.9241 60.7991 13.4944 60.7991 14.1152V14.7593H54.5174V15.1667C54.5174 15.5392 54.5756 15.8884 54.6882 16.2182C54.8123 16.5325 54.983 16.8118 55.1964 17.0485C55.4215 17.2852 55.6931 17.4714 56.0073 17.6072C56.3333 17.743 56.7019 17.809 57.1093 17.809C57.6641 17.809 58.1413 17.6809 58.5487 17.421C58.9678 17.161 59.2898 16.7885 59.5148 16.3035L60.4809 16.998C60.1977 17.5956 59.7593 18.0806 59.1618 18.453C58.5642 18.8139 57.8542 18.9962 57.0278 18.9962L57.0239 18.9924ZM57.0239 10.9841C56.6514 10.9841 56.3139 11.0501 56.0073 11.1859C55.7008 11.31 55.437 11.4924 55.212 11.7291C54.9986 11.9657 54.8278 12.249 54.7037 12.5749C54.5795 12.8892 54.5174 13.2422 54.5174 13.6264V13.7466H59.3402V13.5604C59.3402 12.7805 59.1268 12.1597 58.6962 11.698C58.2771 11.2247 57.7184 10.988 57.02 10.988L57.0239 10.9841ZM63.5034 11.2363H62.0834V10.0529H63.5034V8.29141C63.5034 7.68226 63.6625 7.18949 63.9768 6.81702C64.2911 6.44454 64.7722 6.2583 65.4163 6.2583H66.7355V7.4417H64.8576V10.049H66.7355V11.2324H64.8576V18.7828H63.5034V11.2324V11.2363ZM76.6333 8.22156V18.7867H75.2132V8.22156H71.4535V6.96834H80.3929V8.22156H76.6333ZM84.4009 18.9885C83.8151 18.9885 83.2796 18.8798 82.7946 18.6664C82.3096 18.453 81.8906 18.1465 81.5414 17.7508C81.2038 17.3434 80.9361 16.8661 80.746 16.3113C80.5559 15.7487 80.4589 15.1163 80.4589 14.414C80.4589 13.7117 80.5559 13.0987 80.746 12.5361C80.9361 11.9735 81.2038 11.4924 81.5414 11.0966C81.8906 10.6892 82.3096 10.3788 82.7946 10.1654C83.2796 9.95203 83.8151 9.8434 84.4009 9.8434C84.9868 9.8434 85.5184 9.95203 85.9917 10.1654C86.4767 10.3788 86.8958 10.6892 87.245 11.0966C87.5942 11.4924 87.8658 11.9696 88.0559 12.5361C88.2499 13.0987 88.343 13.7272 88.343 14.414C88.343 15.1008 88.246 15.7448 88.0559 16.3113C87.8658 16.8661 87.5942 17.3434 87.245 17.7508C86.8958 18.1465 86.4767 18.4492 85.9917 18.6664C85.5184 18.8798 84.9868 18.9885 84.4009 18.9885ZM84.4009 17.7857C85.1343 17.7857 85.7318 17.5606 86.1935 17.1067C86.6552 16.6566 86.888 15.966 86.888 15.0426V13.7893C86.888 12.862 86.6552 12.1752 86.1935 11.7252C85.7318 11.2751 85.1343 11.0462 84.4009 11.0462C83.6676 11.0462 83.0701 11.2712 82.6084 11.7252C82.1467 12.1752 81.9139 12.8659 81.9139 13.7893V15.0426C81.9139 15.9699 82.1467 16.6566 82.6084 17.1067C83.0701 17.5568 83.6715 17.7857 84.4009 17.7857ZM93.8758 18.9885C93.2899 18.9885 92.7545 18.8798 92.2695 18.6664C91.7845 18.453 91.3655 18.1465 91.0163 17.7508C90.6787 17.3434 90.411 16.8661 90.2209 16.3113C90.0269 15.7487 89.9338 15.1163 89.9338 14.414C89.9338 13.7117 90.0308 13.0987 90.2209 12.5361C90.411 11.9735 90.6787 11.4924 91.0163 11.0966C91.3655 10.6892 91.7845 10.3788 92.2695 10.1654C92.7545 9.95203 93.2899 9.8434 93.8758 9.8434C94.4617 9.8434 94.9933 9.95203 95.4666 10.1654C95.9516 10.3788 96.3706 10.6892 96.7198 11.0966C97.069 11.4924 97.3406 11.9696 97.5307 12.5361C97.7209 13.0987 97.8179 13.7272 97.8179 14.414C97.8179 15.1008 97.7209 15.7448 97.5307 16.3113C97.3367 16.8661 97.069 17.3434 96.7198 17.7508C96.3706 18.1465 95.9516 18.4492 95.4666 18.6664C94.9933 18.8798 94.4617 18.9885 93.8758 18.9885ZM93.8758 17.7857C94.6091 17.7857 95.2066 17.5606 95.6684 17.1067C96.1301 16.6566 96.3629 15.966 96.3629 15.0426V13.7893C96.3629 12.862 96.1301 12.1752 95.6684 11.7252C95.2066 11.2751 94.6053 11.0462 93.8758 11.0462C93.1464 11.0462 92.545 11.2712 92.0833 11.7252C91.6216 12.1752 91.3888 12.8659 91.3888 13.7893V15.0426C91.3888 15.9699 91.6216 16.6566 92.0833 17.1067C92.545 17.5568 93.1425 17.7857 93.8758 17.7857ZM101.484 18.7828C101.011 18.7828 100.65 18.6548 100.402 18.3948C100.165 18.1232 100.045 17.7857 100.045 17.3783V6.2583H101.399V17.5994H102.687V18.7828H101.484ZM107.281 18.9846C106.47 18.9846 105.787 18.8333 105.232 18.5268C104.689 18.2125 104.224 17.7934 103.828 17.2735L104.794 16.4937C105.132 16.9243 105.512 17.2541 105.927 17.4908C106.346 17.7158 106.831 17.8284 107.382 17.8284C107.933 17.8284 108.402 17.7042 108.721 17.4559C109.046 17.2076 109.213 16.8584 109.213 16.4044C109.213 16.0669 109.101 15.7797 108.876 15.5392C108.662 15.2909 108.267 15.1202 107.692 15.0309L106.998 14.93C106.59 14.8718 106.218 14.7904 105.88 14.6778C105.543 14.5537 105.244 14.3946 104.984 14.2045C104.736 14.0027 104.538 13.7544 104.391 13.4595C104.255 13.1646 104.189 12.8154 104.189 12.408C104.189 11.9774 104.27 11.6049 104.425 11.2906C104.585 10.9647 104.798 10.6931 105.07 10.4797C105.353 10.2663 105.686 10.1072 106.067 10.0063C106.451 9.89383 106.862 9.83563 107.304 9.83563C108.014 9.83563 108.608 9.95979 109.081 10.2081C109.566 10.4564 109.989 10.8017 110.35 11.2402L109.454 12.0511C109.264 11.7795 108.981 11.5389 108.608 11.3217C108.236 11.0966 107.766 10.9841 107.204 10.9841C106.641 10.9841 106.21 11.1083 105.915 11.3566C105.632 11.5933 105.492 11.9192 105.492 12.3382C105.492 12.7572 105.632 13.0793 105.915 13.2694C106.21 13.4595 106.625 13.6031 107.169 13.6923L107.848 13.7932C108.818 13.9406 109.508 14.2239 109.912 14.639C110.319 15.0464 110.521 15.5819 110.521 16.2453C110.521 17.0912 110.234 17.7585 109.656 18.2435C109.081 18.7285 108.29 18.973 107.285 18.973L107.281 18.9846Z" fill="white"/>
</g>
<defs>
<clipPath id="clip0_843_844">
<rect width="111" height="22" fill="white"/>
</clipPath>
</defs>
</svg>
