<?xml version="1.0" encoding="UTF-8"?>
<svg width="395" height="171" viewBox="0 0 395 171" xmlns="http://www.w3.org/2000/svg"><path d="m186.72 150.39c-36.103 0-54.471-21.113-54.471-47.504 0-31.247 24.913-59.538 61.016-59.538 36.102 0 54.471 21.113 54.471 47.504 0 31.247-24.914 59.538-61.016 59.538zm1.478-33.57c12.667 0 20.69-11.401 20.69-24.068 0-10.134-6.545-15.835-17.101-15.835-12.668 0-20.691 11.401-20.691 24.069 0 10.134 6.545 15.834 17.102 15.834zm97.994 31.036h-38.003l31.036-140.82h38.003l-31.036 140.82z" fill="#fff"/><path d="m74.674 150.39c-11.612 0-23.013-4.223-29.558-13.301l-2.3085 10.707-42.621 22.642 4.6011-22.642 31.039-140.76h38.003l-10.979 49.615c8.8673-9.7119 17.101-13.301 27.658-13.301 22.802 0 38.003 14.99 38.003 42.437 0 28.291-17.524 64.605-53.838 64.605zm14.568-56.583c0 13.09-9.2896 23.013-21.324 23.013-6.7561 0-12.879-2.533-16.89-6.967l5.9116-25.969c4.4337-4.4336 9.5007-6.9672 15.412-6.9672 9.0785 0 16.89 6.7561 16.89 16.89z" clip-rule="evenodd" fill="#fff" fill-rule="evenodd"/><path d="m356.77 150.39c-21.958 0-37.581-8.023-37.581-25.758 0-1.478 0.211-5.067 0.844-8.023l8.234-37.792h-16.89l7.39-32.936h16.89l6.122-27.869 42.545-17.575-4.541 17.618-6.123 27.826h20.69l-7.389 32.936h-20.691l-5.489 24.913c-0.422 1.901-0.633 4.012-0.633 4.856 0 4.856 2.955 8.234 9.5 8.234 1.9 0 4.645-0.633 5.278-1.055v30.402c-4.011 2.745-11.189 4.223-18.156 4.223z" fill="#fff"/></svg>
