<?xml version="1.0" encoding="UTF-8" standalone="no"?>
<svg
   width="256"
   height="256"
   viewBox="0 0 256 255.99999"
   fill="none"
   version="1.1"
   id="svg6"
   xmlns="http://www.w3.org/2000/svg"
   xmlns:svg="http://www.w3.org/2000/svg">
  <defs
     id="defs6">
    <clipPath
       id="clip0_367_1596">
      <rect
         width="769.677"
         height="321"
         fill="#ffffff"
         id="rect6"
         x="0"
         y="0" />
    </clipPath>
  </defs>
  <rect
     style="fill:#181225;fill-opacity:1;stroke:none;stroke-width:50.076;paint-order:stroke fill markers"
     id="rect7"
     width="256"
     height="256"
     x="0"
     y="-256"
     transform="scale(1,-1)" />
  <g
     clip-path="url(#clip0_367_1596)"
     id="g6"
     transform="matrix(0.63834154,0,0,0.63834154,25.505189,25.227012)">
    <path
       fill-rule="evenodd"
       clip-rule="evenodd"
       d="M 47.4015,2 C 28.1745,2 12.3435,17.1137 11.4525,36.32 L 0.0394661,282.345 C -0.911899,302.853 15.4584,320 35.9885,320 H 285.14 c 20.53,0 36.9,-17.147 35.949,-37.655 L 309.676,36.32 C 308.785,17.1136 292.954,2 273.727,2 Z m 26.1407,10.4688 c -23.8505,0 -43.1852,19.3346 -43.1852,43.1851 V 229.703 c 0,23.851 19.3347,43.186 43.1852,43.186 H 247.592 c 23.85,0 43.185,-19.335 43.185,-43.186 V 55.654 c 0,-23.8506 -19.335,-43.1852 -43.185,-43.1852 z"
       fill="#ffffff"
       id="path1" />
    <path
       fill-rule="evenodd"
       clip-rule="evenodd"
       d="M 129.312,59.1064 236.235,119.545 H 148.321 84.4357 V 94.4398 h 55.9893 z"
       fill="#ffffff"
       id="path2" />
    <path
       fill-rule="evenodd"
       clip-rule="evenodd"
       d="M 191.359,215.083 84.4357,154.644 h 87.9143 63.885 v 25.105 h -55.989 z"
       fill="#2dde74"
       id="path3" />
  </g>
</svg>
