<svg version="1.0" xmlns="http://www.w3.org/2000/svg"
 width="1024.000000pt" height="1024.000000pt" viewBox="0 0 1024.000000 1024.000000"
 preserveAspectRatio="xMidYMid meet">

<g transform="translate(0.000000,1024.000000) scale(0.100000,-0.100000)"
fill="#000000" stroke="none">
<path d="M5000 9374 c-161 -31 -344 -151 -426 -279 l-32 -50 -95 -13 c-140
-19 -525 -135 -807 -243 -129 -50 -429 -204 -575 -296 -333 -210 -651 -504
-890 -823 -164 -218 -197 -264 -252 -355 -153 -251 -333 -671 -417 -975 -27
-99 -95 -417 -110 -517 -49 -329 -53 -491 -20 -898 9 -120 58 -365 114 -570
83 -307 241 -661 422 -943 97 -152 262 -381 351 -489 107 -129 335 -355 470
-468 479 -398 1136 -695 1742 -789 464 -72 811 -73 1299 -6 636 89 1295 397
1821 852 142 123 343 330 425 438 294 386 464 670 583 976 180 463 263 911
261 1419 -2 598 -122 1112 -383 1642 -100 204 -162 309 -336 573 -368 557
-828 916 -1590 1240 -132 56 -529 177 -684 208 l-133 26 -38 57 c-76 112 -207
209 -341 253 -70 24 -105 29 -209 31 -69 2 -136 1 -150 -1z m295 -163 c82 -23
150 -67 222 -145 105 -112 146 -221 146 -386 0 -163 -47 -280 -165 -407 l-73
-78 -107 0 -108 0 0 41 c0 22 -3 81 -6 131 l-7 89 47 18 c63 24 149 105 181
171 49 98 26 233 -46 270 -59 31 -147 16 -200 -35 -42 -39 -51 -80 -26 -113
11 -16 14 -16 52 3 92 47 147 -1 95 -85 -36 -58 -144 -114 -197 -100 -39 9
-143 113 -143 142 0 36 16 59 49 73 17 7 37 26 46 43 14 29 14 31 -12 53 -48
41 -111 39 -166 -7 -67 -55 -72 -161 -12 -278 29 -58 67 -94 136 -129 63 -32
65 -39 54 -189 l-7 -93 -103 0 -102 0 -75 74 c-115 115 -168 248 -168 423 0
266 185 493 435 533 66 11 182 2 260 -19z m-982 -459 c9 -8 17 -27 17 -42 0
-46 -25 -57 -138 -63 -96 -5 -103 -4 -117 16 -19 28 -19 67 1 95 14 21 19 22
117 16 69 -5 108 -12 120 -22z m1839 10 c7 -7 13 -31 13 -53 0 -58 -17 -67
-112 -62 -62 4 -82 9 -95 25 -25 28 -22 55 8 85 23 23 31 25 99 21 42 -2 80
-9 87 -16z m-2371 -293 c97 -33 136 -136 88 -235 -25 -54 -90 -88 -161 -87
-96 1 -158 70 -158 175 0 50 4 62 32 94 53 60 122 78 199 53z m-418 -33 c3 -8
7 -560 8 -1228 l1 -1213 -54 -55 c-30 -30 -72 -76 -93 -102 l-40 -48 -1 68
c-1 37 -2 622 -4 1300 -3 1369 -9 1251 66 1277 52 19 110 19 117 1z m2648 -57
c84 -54 119 -88 119 -115 0 -27 -36 -74 -57 -74 -19 0 -157 102 -177 131 -8
12 -11 29 -8 38 13 30 37 61 48 61 6 0 40 -18 75 -41z m-1652 5 c39 -49 25
-75 -76 -140 -87 -56 -97 -58 -138 -23 -39 34 -45 67 -17 91 30 28 166 97 189
98 12 0 31 -12 42 -26z m2583 -50 l-3 -70 68 -28 c118 -49 141 -45 195 34 l18
25 64 -70 c39 -41 62 -74 58 -81 -4 -7 -28 -29 -54 -49 -27 -20 -48 -40 -48
-44 0 -16 32 -86 52 -113 18 -26 25 -28 82 -28 l63 0 6 -92 c3 -51 3 -96 0
-100 -2 -5 -39 -8 -82 -8 l-78 0 -11 -37 c-29 -103 -29 -100 33 -163 l58 -58
-70 -71 -69 -70 -44 44 c-24 25 -52 47 -61 50 -10 3 -54 -11 -99 -32 l-81 -38
3 -60 3 -60 -97 -3 -98 -3 0 60 0 60 -81 41 c-44 22 -83 40 -87 40 -4 0 -30
-22 -58 -48 l-51 -49 -72 79 c-81 87 -81 89 -9 134 44 28 49 59 20 134 l-18
45 -69 0 -70 0 -3 108 -3 107 67 -2 67 -3 33 55 c45 75 44 103 -4 134 -71 44
-71 46 7 123 l70 69 43 -47 43 -47 75 24 c41 14 79 29 84 34 5 5 8 39 7 74
l-2 65 93 3 c51 2 98 3 103 2 6 -1 9 -30 7 -70z m-3782 6 c0 -24 -4 -30 -21
-30 -11 0 -29 -5 -40 -10 -14 -8 -19 -7 -19 1 0 8 -4 8 -15 -1 -9 -7 -18 -10
-21 -8 -4 5 103 78 113 78 2 0 3 -13 3 -30z m1414 -251 c30 -24 33 -49 10 -84
-18 -28 -111 -105 -126 -105 -5 0 -23 13 -39 29 -45 46 -40 79 22 135 58 52
91 58 133 25z m1252 -53 c41 -40 74 -82 74 -91 0 -23 -47 -85 -65 -85 -17 0
-175 153 -175 170 0 24 50 80 72 80 12 0 50 -30 94 -74z m-480 14 l104 0 0
-48 0 -47 -297 4 c-164 1 -299 4 -300 5 -1 1 -5 21 -9 44 l-6 41 143 4 c79 2
171 2 203 0 32 -1 106 -3 162 -3z m-1446 -934 l0 -913 -100 -16 c-56 -9 -139
-29 -186 -45 l-85 -29 6 66 c9 97 17 148 22 134 7 -19 33 -16 33 4 0 9 3 13 7
10 12 -12 46 57 47 95 0 21 4 38 8 38 5 0 8 9 8 20 0 11 4 20 9 20 5 0 14 42
19 93 l11 92 -3 -95 c-3 -69 -1 -84 5 -55 9 45 3 1115 -7 1182 -4 31 -3 43 6
43 10 0 11 25 6 109 l-8 108 40 6 c21 4 63 18 93 31 30 13 57 22 62 19 4 -2 7
-415 7 -917z m-313 884 c21 -11 43 -20 50 -20 7 0 13 -3 13 -7 0 -13 -50 -12
-51 1 0 6 -4 2 -8 -9 -12 -29 -2 -45 25 -45 13 0 24 -4 24 -10 0 -5 9 -10 20
-10 22 0 36 -36 27 -73 -4 -12 -2 -29 3 -37 10 -16 -4 -30 -32 -30 -11 0 -18
8 -18 20 0 13 -7 20 -20 20 -11 0 -20 5 -20 10 0 15 -40 12 -41 -2 -1 -7 -5
10 -9 37 -9 57 -12 175 -5 175 3 0 22 -9 42 -20z m-843 -148 c56 -38 76 -76
76 -143 0 -130 -125 -207 -239 -147 -25 13 -53 35 -64 49 -25 34 -32 102 -18
157 13 47 67 108 103 115 43 9 103 -5 142 -31z m2666 -69 c0 -40 -10 -50 -60
-68 -63 -23 -349 -24 -401 -2 -43 18 -79 54 -79 79 0 17 16 18 270 18 l270 0
0 -27z m2434 -62 c15 -14 49 -55 74 -91 25 -36 71 -98 101 -139 l56 -74 0
-1416 0 -1416 -29 -115 c-96 -385 -259 -720 -488 -1002 -81 -100 -258 -288
-271 -288 -4 0 -7 16 -7 35 0 19 -4 35 -10 35 -5 0 -10 7 -10 15 0 14 -13 20
-34 16 -5 -1 -4 5 4 13 32 40 -12 6 -143 -110 -274 -242 -561 -422 -862 -542
-289 -114 -433 -140 -793 -144 -198 -3 -234 -1 -242 12 -5 8 -10 52 -10 98 l0
82 198 0 c256 0 336 11 507 67 505 166 668 259 1031 586 88 79 194 181 238
227 264 282 464 652 531 980 9 47 19 92 22 100 10 27 8 270 -2 273 -5 2 -9
518 -10 1383 0 1514 -3 1440 58 1446 43 5 57 0 91 -31z m-3583 -312 c15 -15
19 -30 17 -62 -4 -53 -25 -58 -92 -21 -42 24 -47 29 -41 53 4 14 7 26 8 27 48
30 80 31 108 3z m-1841 -25 c99 -17 243 -135 291 -239 50 -108 48 -244 -5
-361 -32 -69 -133 -170 -214 -212 -154 -82 -369 -40 -493 96 -74 81 -111 163
-112 252 -1 67 2 76 62 194 112 224 200 289 376 280 33 -2 76 -6 95 -10z
m2848 -51 c34 -26 84 -108 83 -136 -1 -12 -4 -334 -7 -714 l-6 -693 -37 0
c-21 0 -93 -3 -160 -7 l-121 -6 -1 689 c-1 379 -1 708 -1 731 -1 89 86 168
175 160 27 -2 60 -13 75 -24z m462 -175 c18 -13 47 -40 64 -61 l31 -39 3 -639
3 -639 -166 0 -165 0 0 646 c0 644 0 647 21 681 45 73 142 96 209 51z m-940
-7 c19 -10 45 -36 57 -57 23 -39 23 -42 23 -485 0 -245 -3 -449 -7 -452 -3 -4
-14 0 -23 8 -32 29 -101 45 -195 45 l-93 0 -6 173 c-4 94 -8 282 -9 417 -2
281 0 289 81 341 55 35 119 39 172 10z m1545 -14 c19 -19 37 -46 41 -61 15
-61 -47 -126 -121 -126 -31 0 -45 8 -83 45 -40 40 -44 49 -38 77 3 19 21 47
41 66 29 26 43 32 81 32 39 0 51 -5 79 -33z m1093 -134 c75 -55 94 -148 47
-228 -30 -53 -75 -75 -150 -75 -79 0 -111 20 -142 87 -44 96 -20 176 68 221
54 29 135 26 177 -5z m-657 -176 c40 -26 69 -79 69 -124 0 -45 -44 -92 -93
-100 -70 -11 -157 71 -157 148 0 41 14 62 55 84 42 21 87 19 126 -8z m1711
-212 c49 -107 140 -399 164 -524 12 -61 15 -198 17 -686 2 -599 2 -612 -21
-735 -38 -205 -118 -500 -184 -677 -90 -245 -390 -749 -530 -893 -29 -30 -46
-50 -38 -45 9 5 7 0 -4 -13 -10 -12 -23 -19 -27 -16 -5 3 -6 -1 -3 -9 7 -21
-14 -31 -32 -17 -16 14 -2 40 23 40 8 0 12 4 9 9 -7 11 18 33 28 24 4 -4 9 3
13 15 3 12 12 22 19 22 8 0 13 3 13 8 -4 24 4 40 22 45 16 4 19 11 14 26 -4
15 -2 21 8 21 9 0 18 -6 20 -12 3 -7 6 -1 6 15 1 15 -3 27 -9 27 -5 0 -10 9
-10 20 0 11 -4 20 -10 20 -5 0 -10 17 -10 37 l0 36 -26 -24 c-22 -21 -24 -21
-19 -4 6 19 6 19 -7 -1 -22 -34 -129 -167 -172 -212 -23 -24 -40 -47 -39 -53
2 -5 0 -8 -5 -7 -4 1 -57 -47 -117 -107 -288 -287 -592 -507 -915 -662 -346
-165 -561 -230 -980 -294 -175 -27 -538 -39 -551 -18 -5 9 -9 -26 -9 -89 0
-88 -3 -104 -17 -109 -29 -11 -399 16 -578 42 -438 65 -823 204 -1255 453
-431 249 -831 631 -1130 1077 -210 314 -333 556 -436 857 -76 223 -145 539
-169 777 -19 192 -21 661 -3 679 7 7 40 12 79 12 37 0 71 5 74 10 3 6 20 10
36 10 38 0 182 -29 192 -39 4 -4 9 -162 11 -352 3 -320 5 -355 30 -494 59
-333 173 -647 354 -975 201 -365 604 -805 991 -1083 130 -95 341 -225 461
-286 203 -104 461 -195 638 -225 117 -20 450 -56 597 -64 l120 -7 11 -65 11
-65 4 60 4 60 215 17 c348 26 491 49 725 113 107 29 290 95 395 143 83 37 298
158 419 235 195 124 476 365 641 550 292 328 458 608 575 967 25 80 49 152 52
160 8 18 5 7 27 113 18 83 27 100 41 77 9 -15 25 -12 25 5 0 9 11 27 25 41 29
29 30 37 10 58 -17 17 -20 63 -4 68 6 2 11 31 12 68 1 36 4 67 7 70 11 11 30
50 30 64 0 8 5 16 11 18 14 5 48 158 48 220 1 26 5 49 10 53 6 3 13 27 16 53
4 26 11 56 16 68 11 22 -2 576 -23 974 -12 223 -13 402 -3 429 8 21 17 7 67
-104z m-4157 -70 c63 -37 75 -70 75 -213 l0 -119 -149 -8 c-83 -4 -154 -4
-160 -1 -11 7 -5 134 10 210 16 83 88 156 153 156 16 0 48 -11 71 -25z m3199
-22 c3 -21 4 -479 2 -1018 -2 -715 -6 -993 -14 -1028 -7 -26 -47 -120 -90
-209 l-77 -161 -6 189 c-16 460 -21 579 -25 583 -2 3 -9 0 -15 -6 -8 -8 -8
-20 -1 -42 9 -25 8 -31 -4 -31 -10 0 -14 12 -14 39 0 22 -4 41 -10 43 -6 2 -5
17 2 42 10 31 13 35 19 20 5 -12 8 3 8 38 1 34 6 58 13 60 18 6 18 296 0 307
-8 5 -13 11 -13 15 1 3 1 21 0 39 l-1 32 -10 -32 c-6 -18 -15 -33 -19 -33 -13
0 -11 64 3 78 8 8 8 15 -3 28 -9 12 -10 15 -1 10 12 -7 18 58 15 159 -1 22 0
34 3 28 4 -10 10 -8 22 4 15 15 18 61 22 431 l5 415 57 12 c32 6 61 14 64 18
4 4 20 7 35 7 24 0 28 -5 33 -37z m-340 15 c-4 -6 -6 -36 -5 -65 1 -29 -1 -63
-5 -75 -8 -22 -8 -22 -15 7 -9 40 -11 130 -2 138 11 12 35 8 27 -5z m-4341
-85 c3 -5 2 -85 -2 -178 -7 -164 -8 -173 -38 -235 -41 -84 -48 -92 -112 -126
-30 -15 -49 -30 -42 -32 6 -2 23 4 37 13 18 12 25 13 22 4 -9 -27 -124 -94
-216 -125 -53 -18 -98 -32 -100 -30 -4 5 137 182 219 276 74 85 99 127 99 168
0 98 -74 96 -149 -2 -37 -50 -178 -216 -208 -246 -14 -13 -15 -4 -10 88 6 96
8 106 46 170 67 116 123 156 311 223 107 39 135 45 143 32z m-1020 -23 c48
-11 116 -34 150 -52 78 -42 166 -129 201 -200 24 -50 26 -63 24 -156 l-3 -102
-42 53 c-90 111 -203 240 -220 252 -55 38 -93 20 -93 -43 0 -54 42 -118 174
-271 64 -74 116 -138 116 -142 0 -16 -89 6 -151 38 -121 62 -210 151 -261 259
-32 67 -33 73 -36 227 l-4 157 28 0 c16 0 69 -9 117 -20z m4380 -82 c13 -18
39 -60 58 -93 21 -37 92 -119 185 -215 163 -168 215 -232 274 -343 54 -102 77
-175 94 -312 33 -254 27 -379 -24 -534 -66 -203 -175 -363 -341 -502 -126
-106 -363 -202 -594 -241 -125 -21 -130 -21 -224 -4 -53 10 -101 19 -108 21
-9 3 -6 21 9 66 18 54 19 68 9 111 -6 27 -11 55 -11 61 0 9 48 12 178 12 175
0 178 0 224 27 98 58 165 176 154 273 -13 111 -18 99 49 106 139 13 241 121
253 266 7 86 -15 140 -87 212 -46 48 -66 60 -117 74 -33 9 -75 17 -92 17 -18
0 -32 2 -32 4 0 3 12 27 26 53 33 62 29 114 -16 211 -38 84 -34 115 19 127 40
9 81 42 81 65 0 11 -12 26 -28 34 -46 24 -91 76 -128 150 -32 65 -34 75 -34
168 0 113 10 136 83 189 57 41 108 40 140 -3z m708 -71 c45 -30 58 -76 36
-123 -22 -46 -52 -59 -104 -45 -63 17 -93 46 -93 90 0 87 86 129 161 78z
m-2189 -243 c45 -23 119 -95 133 -128 15 -35 3 -81 -25 -96 -11 -6 -167 -10
-391 -10 -333 0 -374 -2 -391 -17 -27 -24 -22 -67 12 -106 l30 -34 872 -8
c972 -8 902 -2 952 -78 30 -47 33 -85 10 -133 -33 -69 -12 -67 -663 -62 -558
5 -585 4 -603 -14 -22 -22 -23 -40 -3 -78 33 -64 9 -62 775 -69 675 -6 696 -7
721 -26 67 -50 85 -114 49 -172 -40 -67 -4 -64 -806 -63 -545 1 -729 -2 -740
-11 -37 -30 -3 -113 54 -128 23 -7 236 -11 584 -11 l547 0 35 -30 c67 -59 69
-135 5 -196 l-30 -29 -699 0 c-672 0 -699 -1 -719 -19 -28 -25 -27 -71 2 -100
22 -21 33 -23 206 -29 102 -4 293 -7 426 -7 271 0 274 -1 309 -75 30 -63 -12
-146 -89 -175 -41 -15 -1210 -16 -1359 0 -154 16 -282 63 -423 157 -176 116
-307 308 -370 538 -24 87 -27 118 -27 245 -1 165 16 248 85 426 49 126 110
214 226 325 121 116 267 195 406 218 29 5 236 9 460 10 354 1 412 -1 439 -15z
m-1669 -435 c11 -8 -10 -79 -24 -79 -5 0 -9 33 -8 73 0 64 2 69 11 42 6 -16
15 -33 21 -36z m-256 -11 c41 -43 55 -80 43 -113 -14 -37 -59 -75 -88 -75 -60
0 -132 80 -119 132 4 14 20 40 36 57 40 43 86 43 128 -1z m-343 -271 c34 -34
50 -118 32 -162 -36 -86 -184 -110 -231 -38 -14 21 -16 39 -12 91 10 104 37
130 135 131 43 1 57 -4 76 -22z m-297 -429 c19 -18 75 -53 126 -78 l92 -45
100 -147 c55 -81 138 -201 185 -265 47 -65 106 -158 133 -208 32 -60 70 -113
115 -160 38 -38 106 -113 153 -165 262 -294 612 -632 1024 -987 162 -139 464
-445 446 -451 -15 -5 -172 24 -231 43 -45 14 -45 14 50 10 52 -2 88 -1 80 2
-8 3 -22 11 -30 18 -8 7 -35 19 -60 25 -24 7 -66 23 -92 36 -26 13 -54 24 -62
24 -9 0 -20 8 -25 18 -5 9 -69 55 -143 102 -183 116 -466 332 -617 471 -280
258 -801 787 -801 813 0 5 -7 17 -16 27 -11 12 -20 49 -25 105 -5 48 -16 97
-24 108 -8 12 -37 50 -65 86 -45 59 -178 310 -195 370 -30 100 -105 203 -144
195 -19 -3 -21 1 -21 41 0 24 3 44 7 44 4 0 22 -15 40 -32z m6070 -310 c-3 -8
-6 -5 -6 6 -1 11 2 17 5 13 3 -3 4 -12 1 -19z m-1305 -145 c42 -44 46 -79 12
-114 -34 -36 -67 -37 -111 -3 -28 21 -33 31 -33 66 0 53 22 78 70 78 27 0 43
-7 62 -27z m-3590 -191 c29 -27 82 -72 118 -102 36 -29 232 -216 435 -415 204
-199 440 -427 527 -506 388 -357 617 -580 627 -612 12 -35 17 -184 7 -194 -3
-4 -6 1 -6 10 0 9 -19 29 -42 43 -175 109 -304 215 -553 454 -38 37 -151 140
-250 228 -194 174 -438 411 -660 642 -257 267 -288 308 -316 419 -12 49 -12
54 6 67 31 23 51 17 107 -34z m3333 -97 c7 -41 9 -43 47 -48 56 -8 129 -47
154 -84 11 -17 26 -56 33 -87 l12 -56 43 0 c54 0 66 -13 66 -70 0 -54 -13 -70
-56 -70 -29 0 -32 -3 -39 -37 -11 -60 -66 -153 -108 -184 -20 -15 -58 -36 -82
-46 -25 -10 -47 -25 -49 -33 -2 -8 -7 -28 -10 -43 -6 -27 -8 -28 -64 -25 l-57
3 -9 43 c-7 34 -14 44 -35 49 -49 11 -146 60 -168 84 -26 29 -51 89 -61 149
-7 40 -11 45 -37 50 -29 5 -30 7 -33 68 l-3 62 35 0 c33 0 34 1 55 68 13 43
30 77 48 94 38 36 106 68 142 68 28 0 31 4 37 40 8 48 18 58 69 62 52 4 63 -5
70 -57z m-4345 40 c0 -8 -2 -15 -4 -15 -2 0 -6 7 -10 15 -3 8 -1 15 4 15 6 0
10 -7 10 -15z m4879 -240 c24 -7 17 -42 -15 -81 l-23 -29 0 95 c1 82 2 90 11
58 5 -21 18 -40 27 -43z m-2981 -61 c30 -34 28 -67 -9 -109 -44 -50 -93 -45
-124 15 -21 41 -19 73 8 97 43 40 87 39 125 -3z m575 1 c73 -34 143 -140 154
-233 7 -63 -18 -146 -60 -197 -74 -91 -237 -123 -345 -69 -161 80 -192 300
-62 448 42 48 82 68 150 75 65 8 111 1 163 -24z m891 -31 c3 -9 6 -35 6 -58
l0 -43 49 -6 c71 -8 127 -41 201 -116 53 -53 70 -78 85 -126 24 -76 28 -82 71
-90 43 -8 50 -23 38 -83 -8 -42 -12 -46 -48 -56 -37 -11 -39 -14 -56 -78 -41
-160 -138 -271 -268 -309 -36 -10 -45 -10 -52 1 -6 10 -10 3 -15 -22 -6 -33
-11 -37 -46 -43 -65 -11 -97 6 -100 55 -1 18 -3 20 -6 7 -5 -21 -17 -18 -111
24 -129 58 -239 201 -245 318 -2 48 -3 51 -30 51 -32 0 -47 29 -47 91 0 40 2
42 52 53 22 5 30 16 48 70 12 36 34 82 49 103 56 77 154 137 245 149 l46 7 0
53 c0 58 2 60 86 63 30 1 44 -4 48 -15z m-1894 -546 c0 -13 -5 -9 -31 19 l-24
26 27 -19 c15 -10 28 -22 28 -26z m2601 -27 c41 -41 40 -90 -2 -125 -41 -35
-74 -33 -110 5 -40 43 -38 79 6 118 44 39 68 39 106 2z m-2536 -31 c10 -11 16
-20 13 -20 -3 0 -13 9 -23 20 -10 11 -16 20 -13 20 3 0 13 -9 23 -20z m1091
-21 c70 -66 -28 -182 -102 -121 -49 39 -52 84 -10 130 26 29 76 25 112 -9z
m2323 -71 c-9 -18 -39 -15 -39 4 0 6 6 5 15 -2 13 -11 15 -8 15 16 0 22 3 25
9 15 6 -9 6 -22 0 -33z m-82 -57 c2 -25 -32 -57 -42 -41 -8 13 14 32 27 24 4
-3 8 0 8 5 0 6 -6 11 -12 11 -9 0 -8 4 2 10 8 5 15 10 15 10 1 0 1 -9 2 -19z
m-53 -40 c3 -5 -1 -14 -8 -20 -12 -10 -13 -8 -9 8 6 23 9 25 17 12z m-59 -68
c-11 -3 -23 -10 -27 -17 -5 -7 -8 -5 -8 7 0 12 7 17 28 16 21 -1 22 -2 7 -6z
m750 -4 c8 -11 -22 -49 -39 -49 -6 0 -5 5 2 12 7 7 12 20 12 30 0 20 15 24 25
7z m-827 -65 c-18 -13 -37 -27 -43 -32 -38 -31 -90 -60 -101 -55 -23 8 -16 20
22 38 19 9 38 23 41 31 3 8 9 14 15 14 5 0 6 -6 2 -12 -3 -7 5 -1 20 14 15 16
32 25 41 22 8 -4 15 -1 15 6 0 6 5 8 11 5 6 -4 -4 -17 -23 -31z m763 -7 c-6
-8 -9 -16 -6 -19 3 -3 -1 -11 -9 -17 -24 -20 -28 6 -4 28 25 24 36 28 19 8z
m-71 -90 l-34 -32 30 36 c16 20 31 34 33 32 3 -2 -10 -18 -29 -36z m-850 -7
c0 -3 -8 -10 -18 -16 -14 -9 -18 -8 -18 5 0 9 8 17 18 17 10 0 18 -3 18 -6z
m-69 -49 c-39 -26 -128 -74 -106 -56 11 8 28 22 38 30 9 8 22 15 27 15 6 0 10
3 10 8 0 9 43 30 50 24 3 -2 -6 -12 -19 -21z m-131 -75 c0 -2 -7 -7 -16 -10
-8 -3 -12 -2 -9 4 6 10 25 14 25 6z m910 -1 c0 -2 -6 -8 -13 -14 -10 -8 -14
-7 -14 2 0 8 6 14 14 14 7 0 13 -1 13 -2z m-40 -29 c0 -3 -4 -8 -10 -11 -5 -3
-10 -1 -10 4 0 6 5 11 10 11 6 0 10 -2 10 -4z m-3638 -70 c9 0 14 -4 12 -8 -3
-4 0 -8 7 -8 7 0 10 -3 7 -6 -4 -3 -23 4 -45 16 -21 12 -29 18 -18 14 11 -4
28 -7 37 -8z m3563 -6 c-3 -5 -10 -10 -16 -10 -5 0 -9 5 -9 10 0 6 7 10 16 10
8 0 12 -4 9 -10z m-3430 -68 c-3 -3 -11 0 -18 7 -9 10 -8 11 6 5 10 -3 15 -9
12 -12z m62 -17 c0 -8 -4 -12 -9 -9 -5 3 -6 10 -3 15 9 13 12 11 12 -6z m3282
12 c-2 -1 -11 -8 -20 -15 -13 -9 -16 -9 -16 3 0 8 9 15 20 15 11 0 18 -1 16
-3z m-499 -322 c-14 -8 -29 -14 -35 -14 -5 0 1 6 15 14 14 8 30 14 35 14 6 0
-1 -6 -15 -14z m-150 -75 c-8 -5 -19 -10 -25 -10 -5 0 -3 5 5 10 8 5 20 10 25
10 6 0 3 -5 -5 -10z"/>
<path d="M6756 8100 c-69 -22 -130 -81 -176 -170 -35 -67 -34 -177 2 -245 98
-186 337 -223 474 -73 57 62 87 145 81 224 -5 73 -26 118 -79 179 -57 65 -107
88 -198 91 -41 2 -88 -1 -104 -6z m144 -152 c82 -42 109 -134 64 -220 -32 -61
-165 -79 -219 -28 -35 33 -59 101 -51 145 8 41 71 111 108 118 44 8 54 7 98
-15z"/>
<path d="M6378 7752 c6 -5 24 -24 38 -43 23 -30 25 -31 19 -9 -7 27 -40 60
-59 60 -7 0 -7 -3 2 -8z"/>
<path d="M3560 7850 c0 -5 9 -10 20 -10 11 0 20 5 20 10 0 6 -9 10 -20 10 -11
0 -20 -4 -20 -10z"/>
<path d="M7873 4770 c0 -30 2 -43 4 -27 2 15 2 39 0 55 -2 15 -4 2 -4 -28z"/>
<path d="M7720 4780 c0 -11 5 -20 10 -20 6 0 10 9 10 20 0 11 -4 20 -10 20 -5
0 -10 -9 -10 -20z"/>
<path d="M7354 3448 l-19 -23 23 19 c21 18 27 26 19 26 -2 0 -12 -10 -23 -22z"/>
<path d="M7269 3353 c-13 -16 -12 -17 4 -4 16 13 21 21 13 21 -2 0 -10 -8 -17
-17z"/>
<path d="M2196 7236 c-75 -32 -100 -56 -139 -135 -73 -149 -35 -299 99 -388
47 -31 64 -37 128 -41 94 -6 163 16 223 71 56 52 79 90 98 166 23 86 8 151
-50 230 -57 77 -125 112 -228 118 -60 3 -82 0 -131 -21z m192 -136 c42 -26 72
-76 72 -120 0 -46 -32 -115 -62 -133 -31 -20 -88 -32 -88 -18 0 6 7 11 15 11
11 0 15 11 15 40 0 37 -3 41 -30 47 -16 3 -30 9 -30 14 0 5 -8 9 -18 9 -10 0
-29 11 -42 25 l-24 26 -19 -23 -18 -23 7 25 c32 117 135 173 222 120z m-205
-170 c3 -11 1 -18 -4 -14 -5 3 -9 12 -9 20 0 20 7 17 13 -6z"/>
<path d="M8442 5290 c0 -14 2 -19 5 -12 2 6 2 18 0 25 -3 6 -5 1 -5 -13z"/>
<path d="M8220 4506 c0 -14 5 -26 10 -26 6 0 10 9 10 19 0 11 -4 23 -10 26 -6
4 -10 -5 -10 -19z"/>
<path d="M1915 5970 c10 -11 20 -20 23 -20 3 0 -3 9 -13 20 -10 11 -20 20 -23
20 -3 0 3 -9 13 -20z"/>
<path d="M3695 5441 c-133 -35 -215 -145 -215 -288 0 -127 45 -196 289 -437
170 -168 165 -166 251 -100 66 51 337 322 372 372 45 65 61 123 56 201 -11
153 -121 261 -265 261 -71 0 -113 -14 -178 -61 l-45 -32 -23 21 c-53 50 -174
81 -242 63z m508 -155 c48 -19 87 -70 87 -112 0 -83 -60 -168 -221 -309 l-119
-105 -72 67 c-213 201 -258 258 -258 328 0 65 72 135 138 135 46 0 66 -13 146
-88 l68 -66 27 31 c14 16 38 46 53 65 25 33 79 67 106 68 7 0 27 -6 45 -14z"/>
<path d="M6552 3979 c-9 -11 -34 -29 -55 -40 -40 -21 -66 -66 -88 -155 -12
-48 -3 -83 33 -130 25 -30 128 -84 163 -84 48 0 133 49 171 98 34 44 36 51 31
103 -6 64 -37 133 -69 150 -12 6 -37 27 -56 45 -43 42 -101 47 -130 13z m98
-149 c54 -54 -12 -148 -75 -106 -44 29 -45 99 -2 116 35 14 56 11 77 -10z"/>
<path d="M4604 3726 c-29 -29 -34 -41 -34 -80 0 -39 5 -51 35 -81 51 -51 114
-43 164 21 34 43 28 99 -13 140 -28 28 -42 34 -76 34 -34 0 -48 -6 -76 -34z"/>
<path d="M5533 3601 c-75 -26 -117 -62 -152 -132 -57 -115 -36 -262 52 -348
59 -59 154 -88 235 -72 82 16 159 71 194 140 24 46 28 64 28 140 0 62 -6 97
-19 127 -61 134 -199 193 -338 145z m161 -152 c80 -63 70 -182 -19 -234 -51
-30 -70 -31 -113 -5 -46 28 -72 76 -72 134 0 43 4 53 39 87 35 35 44 39 88 39
36 0 58 -6 77 -21z"/>
<path d="M2030 8398 c-68 -36 -92 -140 -44 -197 68 -81 204 -25 204 85 0 36
-6 51 -32 79 -38 39 -89 53 -128 33z"/>
<path d="M8068 8373 c-38 -40 -49 -74 -37 -117 22 -78 119 -104 175 -45 24 25
29 39 29 79 0 40 -5 54 -29 79 -41 42 -100 44 -138 4z"/>
<path d="M8329 7981 c-63 -64 -24 -144 72 -145 45 -1 54 3 80 32 34 38 37 74
9 102 -49 49 -118 53 -161 11z"/>
<path d="M1789 7987 c-62 -48 -39 -157 33 -157 42 0 68 17 84 55 16 38 6 79
-24 101 -21 17 -72 17 -93 1z"/>
<path d="M1617 3032 c-42 -47 -40 -104 5 -136 31 -22 52 -20 87 10 41 34 42
75 2 115 -33 33 -70 37 -94 11z"/>
<path d="M8541 3021 c-29 -41 -27 -86 5 -116 36 -33 69 -31 105 4 37 38 37 62
-2 106 -40 45 -79 47 -108 6z"/>
<path d="M2026 2693 c-36 -43 -92 -102 -126 -131 -71 -63 -77 -92 -31 -136 41
-40 66 -30 137 51 32 38 86 95 121 128 35 33 63 67 63 75 0 18 -27 59 -50 77
-29 24 -50 12 -114 -64z"/>
<path d="M8081 2731 c-12 -16 -21 -37 -21 -47 0 -20 243 -271 275 -284 27 -10
51 4 71 41 23 45 12 68 -56 124 -33 28 -89 83 -126 123 -76 84 -107 93 -143
43z"/>
<path d="M2291 2253 c-69 -66 -72 -84 -23 -133 45 -46 59 -48 96 -19 32 25 86
102 86 122 0 20 -66 77 -90 77 -10 0 -41 -21 -69 -47z"/>
<path d="M7842 2267 c-45 -46 -42 -76 11 -132 52 -54 75 -56 116 -12 45 47 42
86 -9 137 -49 49 -76 51 -118 7z"/>
<path d="M2769 1983 c-40 -49 -92 -109 -116 -135 -24 -26 -43 -56 -43 -67 0
-24 55 -81 79 -81 18 0 51 33 161 160 75 86 100 121 100 138 0 23 -57 72 -84
72 -19 0 -41 -20 -97 -87z"/>
<path d="M7333 2040 c-62 -37 -60 -50 16 -138 38 -44 87 -104 108 -134 51 -68
67 -81 92 -73 24 7 71 61 71 81 0 19 -227 284 -243 284 -7 0 -26 -9 -44 -20z"/>
<path d="M3174 1666 c-19 -19 -34 -44 -34 -56 0 -32 62 -90 95 -90 17 0 39 12
61 34 45 45 46 84 3 120 -43 37 -83 34 -125 -8z"/>
<path d="M6960 1662 c-51 -50 -54 -89 -10 -134 26 -25 36 -29 63 -24 36 7 85
50 93 82 11 42 -45 114 -88 114 -9 0 -35 -17 -58 -38z"/>
<path d="M6499 1481 c-41 -41 -40 -91 1 -133 26 -25 36 -29 63 -24 83 17 114
103 56 157 -41 38 -81 38 -120 0z"/>
<path d="M3656 1469 c-14 -17 -26 -38 -26 -47 0 -30 37 -78 69 -91 90 -38 156
75 81 142 -43 38 -90 37 -124 -4z"/>
<path d="M4427 1329 c-22 -13 -47 -61 -47 -92 0 -33 46 -77 81 -77 43 0 89 44
89 87 0 64 -72 112 -123 82z"/>
<path d="M5083 1316 c-26 -23 -28 -30 -28 -99 0 -94 18 -120 78 -115 59 4 82
40 82 125 0 59 -3 67 -28 89 -36 30 -68 30 -104 0z"/>
<path d="M5751 1309 c-83 -82 18 -199 107 -124 41 34 48 68 22 110 -34 56 -83
61 -129 14z"/>
</g>
</svg>
