<?xml version="1.0" encoding="UTF-8"?>
<svg width="469" height="142.63" version="1.1" viewBox="0 0 469 142.63" xml:space="preserve" xmlns="http://www.w3.org/2000/svg">
<g transform="translate(-49.5,-42.5)" fill="#fff">
	<g fill="#fff">
		<path class="st4" d="m246.4 135.5c-0.4 0.2-0.9 0.4-1.5 0.7s-1.3 0.5-2.1 0.8-1.7 0.5-2.6 0.6c-0.9 0.2-1.9 0.3-2.9 0.3-2.3 0-4.3-0.6-6-1.9s-2.5-3.3-2.5-5.9v-25.3h-5.1v-5h5.1v-12.6h6.3v12.5h8.4v5h-8.4v23.3c0.1 1.4 0.6 2.4 1.4 3s1.8 0.9 2.9 0.9c1.2 0 2.4-0.2 3.4-0.6s1.7-0.7 2.1-1z"/>
		<path class="st4" d="m252 92.7v-7.9h6.3v7.9zm0 44.7v-37.6h6.3v37.6z"/>
		<path class="st4" d="m283.9 138.1c-2.6 0-5-0.5-7.2-1.6s-4.1-2.5-5.7-4.2c-1.6-1.8-2.8-3.8-3.7-6.2s-1.3-4.8-1.3-7.4 0.4-5.1 1.3-7.5c0.8-2.4 2-4.5 3.5-6.2 1.5-1.8 3.3-3.2 5.4-4.2s4.4-1.5 6.9-1.5c3 0 5.7 0.8 8.1 2.4s4.3 3.5 5.7 5.8v-22.7h6.3v44.8c0 1.5 0.7 2.3 2 2.3v5.5c-0.5 0.1-1 0.2-1.4 0.2s-0.8 0.1-1.1 0.1c-1.4 0-2.6-0.4-3.5-1.1s-1.3-1.6-1.4-2.7l-0.1-3.5c-1.5 2.4-3.5 4.4-5.9 5.7-2.5 1.3-5.1 2-7.9 2zm1.5-5.5c1.2 0 2.3-0.2 3.6-0.6 1.2-0.4 2.4-1 3.5-1.8s2-1.7 2.8-2.7 1.3-2.1 1.5-3.3v-10.8c-0.4-1.2-1.1-2.3-1.9-3.4-0.9-1.1-1.8-2-2.9-2.8s-2.2-1.4-3.5-1.9c-1.2-0.5-2.4-0.7-3.6-0.7-1.9 0-3.6 0.4-5.1 1.2s-2.8 1.8-3.9 3.2c-1.1 1.3-1.9 2.8-2.5 4.5s-0.9 3.4-0.9 5.2c0 1.9 0.3 3.7 1 5.4s1.6 3.2 2.7 4.4c1.2 1.2 2.5 2.2 4.1 3 1.6 0.7 3.3 1.1 5.1 1.1z"/>
		<path class="st4" d="m330.3 138.1c-2.8 0-5.4-0.5-7.8-1.5s-4.4-2.4-6-4.2c-1.7-1.8-3-3.9-3.9-6.2-0.9-2.4-1.4-4.9-1.4-7.5s0.5-5.1 1.4-7.5 2.3-4.4 4-6.2 3.7-3.2 6.1-4.2 4.9-1.5 7.8-1.5c2.8 0 5.4 0.5 7.7 1.6s4.3 2.5 5.9 4.2c1.6 1.8 2.9 3.8 3.8 6.1s1.3 4.7 1.3 7.2v1.4c0 0.4-0.1 0.8-0.1 1h-31.2c0.1 1.9 0.6 3.6 1.3 5.1s1.7 2.9 2.8 4 2.5 2 3.9 2.6c1.5 0.6 3 0.9 4.6 0.9 1.2 0 2.3-0.2 3.4-0.5s2.1-0.7 3.1-1.3c1-0.5 1.8-1.2 2.6-1.9 0.7-0.8 1.3-1.6 1.7-2.6l5.5 1.5c-0.6 1.4-1.5 2.7-2.6 3.8-1.1 1.2-2.3 2.1-3.7 3-1.4 0.8-3 1.5-4.7 2s-3.7 0.7-5.5 0.7zm12.8-22.1c-0.1-1.8-0.6-3.4-1.3-4.9s-1.7-2.8-2.8-3.9-2.4-1.9-3.9-2.5-3.1-0.9-4.8-0.9-3.3 0.3-4.8 0.9-2.8 1.4-3.9 2.5-2 2.4-2.7 3.9-1.1 3.1-1.3 4.9z"/>
		<path class="st4" d="m401.9 99.8h6.1l-16 37.6h-5.3l-7.6-18.4-7.5 18.4h-5.3l-16-37.6h6l13 31.3 6.3-15.6-6.5-15.6h5.3l4.6 12 4.6-12h5.3l-6.4 15.6 6.3 15.6z"/>
		<path class="st4" d="m423.5 138.1c-1.9 0-3.6-0.3-5.2-0.9s-3-1.4-4.1-2.4c-1.2-1-2.1-2.3-2.7-3.7s-1-2.9-1-4.5c0-1.8 0.4-3.4 1.2-4.9s1.9-2.7 3.3-3.7 3.1-1.8 5-2.4 4.1-0.8 6.4-0.8c1.8 0 3.7 0.2 5.5 0.5s3.5 0.8 5 1.4v-3c0-3.1-0.9-5.5-2.6-7.2-1.7-1.8-4.2-2.6-7.3-2.6-3.8 0-7.8 1.5-12 4.4l-2.1-4.1c2.4-1.6 4.9-2.9 7.3-3.7s4.9-1.2 7.5-1.2c4.8 0 8.6 1.3 11.4 4 2.8 2.6 4.2 6.4 4.2 11.2v15.3c0 1.5 0.7 2.3 2 2.3v5.5c-0.5 0.1-0.9 0.2-1.4 0.2s-0.8 0.1-1.2 0.1c-1.1 0-2.1-0.3-3.1-0.9s-1.6-1.6-1.7-3l-0.1-2.7c-0.9 1.2-1.8 2.2-3 3-1.1 0.9-2.3 1.6-3.5 2.2s-2.5 1-3.9 1.3c-1.3 0.1-2.6 0.3-3.9 0.3zm1.6-4.8c2 0 4-0.4 5.9-1.3s3.4-1.9 4.5-3.2c0.9-1.1 1.4-2 1.4-3v-5.5c-1.5-0.6-3.1-1-4.7-1.3-1.7-0.3-3.3-0.5-4.8-0.5-3.3 0-5.9 0.7-7.8 2-2 1.3-3 3.1-3 5.4 0 1 0.2 1.9 0.6 2.8s0.9 1.7 1.7 2.3c0.7 0.7 1.6 1.2 2.7 1.6 0.9 0.5 2.1 0.7 3.5 0.7z"/>
		<path class="st4" d="m452.9 147.6c1.3 0.1 2.4 0.2 3.5 0.2 0.4 0 0.8-0.1 1.2-0.3s0.8-0.6 1.3-1.4c0.5-0.7 1-1.8 1.7-3.2 0.6-1.4 1.4-3.3 2.3-5.7l-15.9-37.6h6.6l12.8 31.9 11.6-31.7h6l-18.4 47.4c-0.9 2.3-2.1 3.9-3.7 4.9s-3.6 1.5-5.8 1.5c-0.5 0-1.1 0-1.6-0.1-0.5 0-1.1-0.1-1.6-0.3z"/>
		<path class="st4" d="m502.5 138.1c-3 0-6-0.5-8.9-1.4s-5.4-2.3-7.6-4.1l2.7-4.2c2.2 1.7 4.4 2.9 6.6 3.8 2.2 0.8 4.5 1.3 7 1.3 2.7 0 4.9-0.5 6.5-1.6s2.4-2.6 2.4-4.6c0-0.9-0.2-1.7-0.6-2.3s-1.1-1.2-1.9-1.7c-0.9-0.5-2-0.9-3.3-1.3s-2.9-0.8-4.7-1.2c-2.3-0.6-4.2-1.1-5.8-1.7-1.6-0.5-3-1.2-4-1.9-1.1-0.7-1.8-1.6-2.3-2.6s-0.7-2.3-0.7-3.7c0-1.9 0.4-3.5 1.1-5s1.8-2.7 3.1-3.7 2.8-1.7 4.6-2.2 3.6-0.8 5.7-0.8c2.8 0 5.5 0.5 7.9 1.4s4.5 2.1 6.2 3.6l-2.9 3.8c-1.6-1.4-3.4-2.4-5.3-3.1-2-0.7-4-1-6-1-2.3 0-4.3 0.5-5.9 1.5s-2.4 2.6-2.4 4.7c0 0.9 0.2 1.6 0.5 2.2s0.8 1.1 1.5 1.5 1.6 0.8 2.8 1.2c1.1 0.3 2.5 0.7 4.1 1.1 2.5 0.6 4.7 1.2 6.5 1.8s3.4 1.3 4.6 2.1 2.1 1.8 2.7 2.9 0.9 2.4 0.9 4c0 3.5-1.3 6.3-4 8.4-2.9 1.7-6.5 2.8-11.1 2.8z"/>
	</g>
</g>
<g transform="translate(-49.5,-42.5)" fill="#fff">
	
	<path class="st6" d="m49.5 79.8c9.9 0.1 21.9-0.5 35.1-2.4 6.4-0.9 12.6-2.1 18.7-3.5-0.8-10.5-1-21.1-0.8-31.4h-53z"/>
	<path class="st7" d="m129.8 66.1c16.4-6 31.9-13.8 46.3-23.6h-46.5c-0.2 7.8-0.2 15.7 0.2 23.6z"/>
	<path class="st8" d="m152.9 146.9c9.7 13.5 22.4 22.6 38.3 27.4v-109.5c-19.9 13.4-39.9 22.6-58.6 28.8 3.4 19.9 9.7 38.6 20.3 53.3z"/>
	<path class="st4" d="m131 162.6c-12.7-17.6-20.2-39.2-24.3-61.9-6.8 1.5-13.3 2.6-19.3 3.5-13.6 1.9-26 2.5-36.5 2.5h-1.4v77.5h102.4c-7.9-5.9-14.8-13.1-20.9-21.6z"/>
</g>
</svg>
