<?xml version="1.0" encoding="UTF-8"?>
<svg width="160" height="30" fill="none" version="1.1" viewBox="0 0 160 30" xmlns="http://www.w3.org/2000/svg"><mask id="mask0_276_82" x="0" y="0" width="160" height="26" maskUnits="userSpaceOnUse"><path d="m160 0.081646h-160v25.43h160z" fill="#fff"/></mask><g fill="#fff" mask="url(#mask0_276_82)"><path d="m40.122 10.74c0.6199-1.1487 1.4844-2.047 2.5931-2.6887 1.1088-0.64171 2.3681-0.96256 3.7713-0.96256 1.7226 0 3.1945 0.46846 4.4225 1.3989 1.2277 0.93047 2.042 2.201 2.4554 3.8117h-3.8838c-0.2881-0.6225-0.7015-1.0909-1.2277-1.4182-0.5323-0.3272-1.1337-0.4876-1.8105-0.4876-1.0899 0-1.9669 0.385-2.6434 1.1614-0.6765 0.7765-1.0147 1.816-1.0147 3.1123 0 1.2962 0.3382 2.3357 1.0147 3.1122 0.6765 0.7764 1.5535 1.1615 2.6434 1.1615 0.6768 0 1.2782-0.1605 1.8105-0.4877 0.5323-0.3273 0.9396-0.7957 1.2277-1.4182h3.8838c-0.4134 1.6107-1.2341 2.8748-2.4554 3.7989-1.228 0.924-2.6999 1.386-4.4225 1.386-1.4032 0-2.6625-0.3208-3.7713-0.9625-1.1087-0.6417-1.9732-1.5337-2.5931-2.6759-0.6203-1.1422-0.9272-2.4449-0.9272-3.9143 0-1.4695 0.3069-2.7786 0.9272-3.9272z"/><path d="m57.324 21.547c-0.9019-0.4941-1.6098-1.2-2.1299-2.1176-0.5135-0.9177-0.7766-1.9893-0.7766-3.2149 0-1.2257 0.2631-2.2845 0.783-3.2085 0.5262-0.9241 1.2401-1.63 2.1487-2.1241 0.9083-0.4941 1.9291-0.7379 3.0567-0.7379s2.1488 0.2438 3.0571 0.7379 1.6225 1.2 2.1484 2.1241c0.5262 0.924 0.7833 1.9957 0.7833 3.2085s-0.2631 2.2844-0.7958 3.2084c-0.5323 0.9241-1.2526 1.63-2.1673 2.1241-0.9146 0.4941-1.9358 0.7379-3.0695 0.7379s-2.1423-0.2438-3.0442-0.7379zm4.7732-3.1508c0.4763-0.5069 0.7142-1.232 0.7142-2.1817 0-0.9498-0.2318-1.6685-0.689-2.1818-0.4635-0.5069-1.0275-0.7636-1.704-0.7636s-1.259 0.2502-1.7162 0.7508c-0.4575 0.5005-0.6829 1.232-0.6829 2.1881 0 0.9562 0.2254 1.6749 0.6704 2.1818 0.4447 0.507 1.0084 0.7636 1.6849 0.7636s1.2529-0.2566 1.7226-0.7636z"/><path d="m67.835 12.993c0.4447-0.9176 1.0586-1.6234 1.8291-2.1176 0.7705-0.4941 1.6285-0.7379 2.5809-0.7379 0.7578 0 1.447 0.1604 2.0734 0.4877 0.6263 0.3272 1.1212 0.7636 1.4783 1.309v-5.4801h3.5331v15.657h-3.5331v-1.694c-0.3319 0.5647-0.8018 1.0138-1.4157 1.354-0.6138 0.34-1.328 0.5069-2.136 0.5069-0.9524 0-1.8104-0.2503-2.5809-0.7508s-1.378-1.2128-1.8291-2.1368c-0.4447-0.9241-0.6704-1.9893-0.6704-3.2085 0-1.2193 0.2257-2.2781 0.6704-3.1957zm7.2289 1.0781c-0.4888-0.5198-1.0838-0.7829-1.7852-0.7829-0.7018 0-1.2968 0.2567-1.7856 0.77-0.4885 0.5134-0.7328 1.2257-0.7328 2.1241 0 0.8983 0.2443 1.6171 0.7328 2.1496 0.4888 0.5262 1.0838 0.7957 1.7856 0.7957 0.7014 0 1.2964-0.263 1.7852-0.7828 0.4885-0.5198 0.7328-1.2321 0.7328-2.1369s-0.2443-1.617-0.7328-2.1368z"/><path d="m92.284 17.08h-7.9933c0.0565 0.7316 0.2883 1.2963 0.6892 1.6813 0.407 0.385 0.9083 0.5839 1.4972 0.5839 0.8831 0 1.4969-0.3786 1.8415-1.1422h3.7585c-0.194 0.7765-0.5387 1.4759-1.046 2.092-0.501 0.6224-1.1337 1.1101-1.8918 1.463-0.758 0.353-1.6036 0.5262-2.5432 0.5262-1.1276 0-2.1363-0.2438-3.0133-0.7379-0.883-0.4942-1.5723-1.2-2.0672-2.1176-0.4946-0.9177-0.7452-1.9893-0.7452-3.2149 0-1.2257 0.2442-2.2973 0.7327-3.215 0.4889-0.9176 1.1714-1.6234 2.0548-2.1175 0.8833-0.4941 1.8917-0.738 3.0382-0.738 1.1461 0 2.1046 0.2374 2.9755 0.7187 0.8645 0.4813 1.5471 1.1615 2.0359 2.0534 0.4885 0.8856 0.7327 1.9251 0.7327 3.1123 0 0.3401-0.0188 0.693-0.0626 1.0588zm-3.552-2.0084c0-0.6225-0.2065-1.1166-0.6202-1.4824-0.4134-0.3658-0.9268-0.5518-1.5471-0.5518-0.6202 0-1.0898 0.1732-1.4971 0.5262-0.4073 0.3529-0.6577 0.8534-0.7517 1.5015h4.4225z"/><path d="m101.39 22.118-3.0129-5.6085h-0.8456v5.6085h-3.5331v-14.855h5.9261c1.1465 0 2.1175 0.20535 2.9255 0.61601 0.808 0.41069 1.409 0.96898 1.81 1.6812 0.401 0.71225 0.602 1.508 0.602 2.3806 0 0.9883-0.27 1.8674-0.815 2.6439-0.545 0.7764-1.347 1.3283-2.405 1.6491l3.345 5.8844h-3.991zm-3.8646-8.1688h2.1923c0.6453 0 1.1343-0.1604 1.4533-0.4877 0.326-0.3273 0.489-0.7829 0.489-1.3732 0-0.5904-0.163-1.0075-0.489-1.3348-0.326-0.3272-0.808-0.4877-1.4533-0.4877h-2.1923z"/><path d="m107.02 12.993c0.444-0.9177 1.058-1.6235 1.829-2.1176 0.77-0.4941 1.635-0.6674 2.58-0.6674h7.085v11.904h-3.533v-1.6684c-0.344 0.5518-0.82 0.9946-1.434 1.3347s-1.328 0.5069-2.136 0.5069c-0.94 0-1.792-0.2502-2.562-0.7507-0.771-0.5006-1.379-1.2128-1.829-2.1369-0.445-0.9241-0.671-1.9893-0.671-3.2085s0.226-2.278 0.671-3.1956zm7.229 1.078c-0.489-0.5198-1.084-0.7828-1.786-0.7828-0.701 0-1.296 0.2566-1.785 0.77-0.489 0.5133-0.733 1.2256-0.733 2.124s0.244 1.6171 0.733 2.1497c0.489 0.5262 1.084 0.7957 1.785 0.7957 0.702 0 1.297-0.2631 1.786-0.7829 0.488-0.5198 0.732-1.232 0.732-2.1368s-0.244-1.6171-0.732-2.1369z"/><path d="m125.63 10.644c0.621-0.3401 1.328-0.5069 2.13-0.5069 0.952 0 1.811 0.2438 2.581 0.7379 0.771 0.4942 1.378 1.2 1.829 2.1176 0.445 0.9177 0.67 1.9829 0.67 3.1957s-0.225 2.2844-0.67 3.2085c-0.444 0.924-1.058 1.6363-1.829 2.1368-0.77 0.5005-1.629 0.7508-2.581 0.7508-0.814 0-1.522-0.1668-2.13-0.4941-0.607-0.3337-1.083-0.77-1.428-1.3219v1.6492h-3.533v-15.664h3.533v5.525c0.332-0.5518 0.808-0.9946 1.428-1.3347zm2.882 3.4203c-0.489-0.5134-1.09-0.7701-1.81-0.7701-0.721 0-1.297 0.2631-1.786 0.7829-0.488 0.5198-0.733 1.2321-0.733 2.1369s0.245 1.617 0.733 2.1368c0.489 0.5198 1.084 0.7829 1.786 0.7829 0.701 0 1.302-0.2631 1.797-0.7957 0.495-0.5262 0.746-1.2449 0.746-2.1497s-0.244-1.6107-0.733-2.124z"/><path d="m139.24 10.644c0.62-0.3401 1.328-0.507 2.129-0.507 0.953 0 1.811 0.2439 2.581 0.738 0.771 0.4941 1.379 1.2 1.829 2.1176 0.445 0.9176 0.671 1.9829 0.671 3.1957s-0.226 2.2844-0.671 3.2084c-0.444 0.9241-1.058 1.6364-1.829 2.1369-0.77 0.5005-1.628 0.7508-2.581 0.7508-0.814 0-1.522-0.1668-2.129-0.4941-0.608-0.3337-1.084-0.77-1.429-1.3219v1.6492h-3.532v-15.664h3.532v5.525c0.333-0.5518 0.809-0.9946 1.429-1.3347zm2.881 3.4203c-0.488-0.5134-1.09-0.7701-1.81-0.7701s-1.297 0.2631-1.785 0.7829c-0.489 0.5197-0.733 1.232-0.733 2.1368s0.244 1.6171 0.733 2.1369c0.488 0.5197 1.083 0.7829 1.785 0.7829s1.303-0.2632 1.798-0.7957c0.494-0.5262 0.745-1.245 0.745-2.1497 0-0.9048-0.244-1.6107-0.733-2.124z"/><path d="m148.16 8.5201c-0.395-0.37218-0.589-0.83422-0.589-1.3861 0-0.55187 0.194-1.0331 0.589-1.4053 0.394-0.37218 0.895-0.55826 1.515-0.55826 0.621 0 1.103 0.18608 1.498 0.55826 0.394 0.37218 0.588 0.84061 0.588 1.4053 0 0.56469-0.194 1.0139-0.588 1.3861-0.395 0.37217-0.89 0.55826-1.498 0.55826-0.607 0-1.127-0.18609-1.515-0.55826zm3.276 1.7903v11.807h-3.533v-11.814h3.533z"/><path d="m160 19.044v3.0673h-1.798c-1.277 0-2.28-0.3208-2.994-0.9625s-1.071-1.6877-1.071-3.1444v-4.6972h-1.403v-3.0031h1.403v-2.8748h3.533v2.8748h2.312v3.0031h-2.312v4.7422c0 0.3529 0.081 0.6096 0.25 0.7636 0.163 0.154 0.439 0.231 0.827 0.231h1.259z"/></g><path d="m14.305 0.5298c7.9002 6e-6 14.305 6.4045 14.305 14.305-1e-4 7.9002-6.4045 14.305-14.305 14.305-7.9002 0-14.305-6.4045-14.305-14.305 0-7.9002 6.4044-14.305 14.305-14.305zm-2.6045 3.8516c0.6197 4.5704 3.1786 3.38 4.6855 6.5302 0 0-2.5428-3.5472-6.7236-2.2412 0.0176 0.03762 1.5501 3.2863 6.0313 3.9532 0 0 0.3607 1.2699 0.4697 1.4941-0.0449-0.0239-6.948-3.6915-9.0488 3.415-1.5686-0.3645-2.0947 1.3825-0.29199 2.5762 0.00591-0.0239 0.31398-1.2537 1.0537-1.6211 0 0-1.6028 1.835 0.28222 4.0322h6.7656c0.1635-0.2778 0.8869-1.7399-0.9023-2.8466 1.2631-0.0184 2.2913 2.4262 3.3974 2.8632h1.6084c0.0545-0.1357 0.1686-0.5424-0.0986-0.9082-0.4121-0.4846-1.3134-0.4191-1.3057-1.3154 0.3116-4.1723 6.4077-2.8917 6.2139-7.9131l-0.0889-0.1113c-0.41-0.4955-2.1839-2.4832-4.3437-2.6123-1.5923-0.09644-1.9793 0.12154-2.0488 0.28418-0.0991-0.84434-0.8024-4.751-5.6553-5.5791z" fill="#fff"/></svg>
