<?xml version="1.0" encoding="UTF-8"?>
<svg width="606" height="120" version="1.1" viewBox="0 0 606 120" xmlns="http://www.w3.org/2000/svg"><path d="m178.25 93.2v-76h32.665c7.04 0 12.485 2.065 16.33 6.2 3.85 4.14 5.775 9.695 5.775 16.665s-1.925 12.52-5.775 16.66c-3.85 4.135-9.29 6.205-16.33 6.205h-20.365v30.27zm12.3-41.05h19.6c3.125 0 5.55-0.8 7.3-2.395 1.74-1.67 2.61-4.03 2.61-7.08v-5.225c0-3.05-0.87-5.37-2.615-6.97-1.74-1.67-4.17-2.5-7.295-2.5h-19.6zm89.835-15.575h11.43l-23.845 67.84c-0.65 1.885-1.415 3.485-2.285 4.79a9.895 9.895 0 0 1-2.94 3.265 9.846 9.846 0 0 1-4.03 1.85c-1.6 0.44-3.485 0.655-5.66 0.655h-6.86v-9.69h9.58l3.265-9.58-20.58-59.13h11.87l11.325 33.32 3.265 12.305h0.55l3.59-12.3zm56.185 47.26h-0.545a15.682 15.682 0 0 1-6.1 7.84c-2.755 1.885-6.02 2.83-9.8 2.83-7.185 0-12.735-2.575-16.655-7.73-3.92-5.225-5.88-12.52-5.88-21.885s1.96-16.625 5.88-21.78c3.92-5.225 9.47-7.84 16.655-7.84 3.775 0 7.045 0.945 9.8 2.83 2.835 1.815 4.865 4.43 6.1 7.84h0.545v-33.32h11.87v80.58h-11.87zm-12.85 0.435c3.63 0 6.68-0.87 9.15-2.615 2.465-1.81 3.7-4.17 3.7-7.075v-19.385c0-2.9-1.235-5.225-3.7-6.965-2.47-1.815-5.52-2.725-9.15-2.725-4.135 0-7.44 1.345-9.91 4.03-2.465 2.615-3.7 6.1-3.7 10.45v9.8c0 4.36 1.235 7.88 3.7 10.565 2.47 2.615 5.775 3.92 9.91 3.92zm83.19 8.93c-3.12 0-5.515-0.87-7.185-2.61-1.67-1.815-2.685-4.1-3.05-6.86h-0.545c-1.09 3.555-3.085 6.24-5.99 8.055-2.9 1.815-6.425 2.725-10.56 2.725-5.88 0-10.415-1.525-13.61-4.575-3.12-3.05-4.685-7.15-4.685-12.3 0-5.665 2.035-9.915 6.1-12.745 4.135-2.83 10.16-4.25 18.075-4.25h10.235v-4.785c0-3.485-0.945-6.17-2.83-8.06-1.89-1.885-4.83-2.83-8.82-2.83-3.34 0-6.06 0.725-8.165 2.175-2.11 1.45-3.885 3.305-5.34 5.555l-7.075-6.425a22.24 22.24 0 0 1 7.95-7.84c3.41-2.1 7.875-3.155 13.39-3.155 7.335 0 12.96 1.7 16.88 5.115s5.88 8.315 5.88 14.7v28.42h5.99v9.69zm-23.95-7.73c3.7 0 6.75-0.8 9.14-2.395 2.4-1.67 3.6-3.885 3.6-6.64v-8.17h-10.025c-8.2 0-12.3 2.54-12.3 7.625v1.96c0 2.54 0.835 4.465 2.5 5.77 1.745 1.235 4.105 1.85 7.085 1.85zm42.245 7.73v-56.62h11.87v9.365h0.545a18.87 18.87 0 0 1 5.55-7.625c2.54-2.03 5.99-3.05 10.35-3.05 5.8 0 10.3 1.925 13.5 5.775 3.265 3.775 4.9 9.185 4.9 16.225v35.93h-11.87v-34.4c0-8.86-3.56-13.285-10.67-13.285-1.525 0-3.05 0.215-4.575 0.65-1.45 0.365-2.76 0.95-3.92 1.745a9.502 9.502 0 0 0-2.83 3.05c-0.65 1.23-0.98 2.685-0.98 4.35v37.9h-11.875zm78.835 0c-4.14 0-7.26-1.05-9.365-3.155-2.105-2.18-3.16-5.225-3.16-9.15v-34.62h-8.815v-9.695h4.79c1.96 0 3.3-0.435 4.025-1.305 0.8-0.87 1.2-2.29 1.2-4.25v-9.905h10.67v15.46h11.87v9.69h-11.87v37.24h11v9.69zm30.055-66.75c-2.47 0-4.285-0.58-5.445-1.74-1.09-1.16-1.635-2.65-1.635-4.465v-1.85c0-1.815 0.545-3.3 1.635-4.465 1.16-1.16 2.975-1.745 5.445-1.745 2.465 0 4.245 0.585 5.335 1.745s1.635 2.65 1.635 4.465v1.85c0 1.815-0.545 3.3-1.635 4.465-1.09 1.16-2.87 1.74-5.335 1.74zm-5.99 10.13h11.87v56.62h-11.87zm50.74 57.93c-4.065 0-7.695-0.69-10.885-2.07a21.88 21.88 0 0 1-8.06-5.88 27.68 27.68 0 0 1-5.01-9.365c-1.16-3.7-1.74-7.8-1.74-12.3s0.58-8.57 1.74-12.2c1.165-3.7 2.835-6.825 5.01-9.365a21.352 21.352 0 0 1 8.06-5.99c3.19-1.375 6.82-2.065 10.885-2.065 5.665 0 10.31 1.27 13.94 3.81a21.959 21.959 0 0 1 7.95 10.125l-9.8 4.575a11.846 11.846 0 0 0-4.25-6.205c-1.96-1.6-4.57-2.4-7.84-2.4-4.355 0-7.655 1.38-9.905 4.14-2.18 2.685-3.27 6.205-3.27 10.56v10.13c0 4.35 1.09 7.91 3.27 10.67 2.25 2.685 5.55 4.03 9.905 4.03 3.485 0 6.245-0.835 8.28-2.505 2.105-1.745 3.77-4.03 5.005-6.86l9.04 4.79c-1.89 4.65-4.72 8.2-8.495 10.67s-8.385 3.7-13.83 3.7z" fill="#fff"/><path d="m137.38 90.65-63.87-88.575c-2.01-2.765-6.645-2.765-8.635 0l-63.87 88.575a5.335 5.335 0 0 0 2.65 8.175l63.87 20.91h0.01a5.303 5.303 0 0 0 3.3 0h0.01l63.87-20.91a5.278 5.278 0 0 0 3.4-3.415 5.263 5.263 0 0 0-0.75-4.76zm-68.185-76.37 25.6 35.505-23.94-7.835c-0.185-0.06-0.38-0.05-0.565-0.095a3.502 3.502 0 0 0-0.55-0.09c-0.185-0.025-0.36-0.095-0.545-0.095s-0.355 0.07-0.54 0.095a4.245 4.245 0 0 0-0.55 0.09c-0.19 0.035-0.385 0.035-0.555 0.095l-23.795 7.79-0.15 0.05 25.6-35.51zm-36.17 50.17 27.87-9.13 2.975-0.97v52.99l-49.97-16.365zm41.5 42.88v-52.98l30.845 10.1 19.125 26.51-49.975 16.37z" fill="#fff"/></svg>
