<?xml version="1.0" encoding="UTF-8"?>
<svg width="326" height="103" viewBox="0 0 326 103" xmlns="http://www.w3.org/2000/svg"><path d="m82.815 32.689c4.2754 0 8.0418 0.6786 11.299 2.0357 3.2574 1.3572 6.0055 3.2573 8.2455 5.7002 2.307 2.375 4.038 5.259 5.191 8.652 1.154 3.3929 1.731 7.1591 1.731 11.298 0 4.2072-0.577 8.0073-1.731 11.4-1.085 3.325-2.748 6.209-4.988 8.652-2.239 2.4429-5.0214 4.309-8.3467 5.5983-3.2574 1.2893-7.0577 1.934-11.401 1.934-4.2753 0-8.0418-0.6447-11.299-1.934-3.2574-1.3572-6.0059-3.2233-8.2454-5.5983-2.1716-2.443-3.8342-5.3609-4.9879-8.7538-1.0858-3.393-1.6287-7.1591-1.6287-11.298s0.5429-7.9056 1.6287-11.298c1.1537-3.393 2.8503-6.277 5.0897-8.652 2.2395-2.4429 4.988-4.343 8.2454-5.7002 3.2574-1.3571 6.9899-2.0357 11.197-2.0357zm0 45.194c2.6467 0 4.8862-0.4411 6.7185-1.3233 1.9001-0.95 3.427-2.2054 4.5807-3.7662 1.2215-1.5607 2.1038-3.3929 2.6467-5.4965 0.6107-2.1036 0.9161-4.3769 0.9161-6.8198 0-2.443-0.3054-4.7162-0.9161-6.8199-0.5429-2.1714-1.4252-4.0376-2.6467-5.5983-1.1537-1.5608-2.6806-2.7822-4.5807-3.6644-1.8323-0.8821-4.0718-1.3232-6.7185-1.3232-2.5788 0-4.7843 0.4411-6.6166 1.3232-1.8323 0.8822-3.3593 2.1036-4.5808 3.6644-1.2215 1.5607-2.1377 3.4269-2.7485 5.5983-0.5429 2.1037-0.8143 4.3769-0.8143 6.8199 0 2.4429 0.2714 4.7162 0.8143 6.8198 0.6108 2.1036 1.493 3.9358 2.6467 5.4965 1.2215 1.5608 2.7485 2.8162 4.5808 3.7662 1.9001 0.8822 4.1396 1.3233 6.7184 1.3233z" fill="#fff"/><path d="m192.98 87.247h-10.892l-0.611-7.4306c-1.968 2.8501-4.445 4.8859-7.431 6.1073-2.986 1.2215-6.345 1.9001-10.078 2.0358-4.139-0.0679-7.702-0.8143-10.688-2.2393-2.986-1.4929-5.463-3.4609-7.431-5.9038-1.968-2.5107-3.427-5.3947-4.377-8.652-0.882-3.2572-1.323-6.718-1.323-10.382 0-4.0036 0.509-7.702 1.526-11.095 1.086-3.3929 2.681-6.3448 4.785-8.8556 2.104-2.5107 4.682-4.4787 7.736-5.9037 3.054-1.4929 6.617-2.2393 10.689-2.2393 2.918 0 5.87 0.475 8.856 1.425s5.531 2.7144 7.634 5.293v-34.218l11.605 9.3521v72.706zm-26.772-44.074c-2.579 0-4.784 0.441-6.617 1.3232-1.832 0.8822-3.359 2.1036-4.58 3.6644-1.154 1.5607-2.002 3.4269-2.545 5.5983-0.543 2.1037-0.815 4.3769-0.815 6.8198 0 2.443 0.272 4.7162 0.815 6.8199 0.543 2.1036 1.391 3.9358 2.545 5.4965 1.221 1.5608 2.748 2.8162 4.58 3.7662 1.9 0.8822 4.174 1.3232 6.821 1.3232 2.51 0 4.682-0.475 6.514-1.425 1.901-1.0179 3.461-2.3411 4.683-3.9697 1.289-1.6286 2.239-3.4948 2.85-5.5984s0.916-4.2751 0.916-6.5144c0-2.3751-0.305-4.6144-0.916-6.7181-0.543-2.1036-1.425-3.9018-2.646-5.3947-1.222-1.5608-2.783-2.7823-4.683-3.6644-1.9-0.95-4.208-1.459-6.922-1.5268z" fill="#fff"/><path d="m0 32.383h12.826l14.862 42.548 14.76-42.548h12.826l-20.155 53.642h-14.964l-20.155-53.642z" fill="#fff"/><path d="m244.34 0c-3.461 4.1227-6.403 8.313-8.826 12.571-2.422 4.1903-4.395 8.4481-5.918 12.774s-2.63 8.6847-3.322 13.078c-0.693 4.393-1.073 8.786-1.143 13.179 0.139 8.9212 1.662 17.674 4.569 26.257 2.907 8.5157 7.753 16.896 14.536 25.142h-13.29c-2.977-3.6496-5.572-7.5695-7.787-11.76-2.215-4.1227-4.05-8.3806-5.503-12.774-1.454-4.4607-2.561-8.9551-3.323-13.483-0.692-4.5282-1.038-8.9889-1.038-13.382 0-4.3931 0.346-8.8537 1.038-13.382 0.762-4.5958 1.869-9.124 3.323-13.585 1.523-4.4606 3.392-8.7523 5.607-12.875 2.215-4.1902 4.81-8.1102 7.787-11.76h13.29z" fill="#fff"/><path d="m294.96 103c6.853-8.2454 11.733-16.66 14.64-25.243 2.907-8.6509 4.43-17.403 4.568-26.257-0.138-8.9213-1.661-17.674-4.568-26.257s-7.753-16.998-14.536-25.243h13.186c2.977 3.6496 5.572 7.5696 7.787 11.76 2.215 4.1227 4.05 8.4144 5.503 12.875 1.523 4.3931 2.631 8.8875 3.323 13.483 0.761 4.5282 1.142 8.9889 1.142 13.382s-0.381 8.8875-1.142 13.483c-0.762 4.5282-1.904 9.0226-3.427 13.483-1.453 4.393-3.287 8.6509-5.502 12.774-2.215 4.1903-4.811 8.1102-7.788 11.76h-13.186z" fill="#fff"/><path d="m297.67 51.388c0 5.4966-0.577 10.518-1.73 15.065-1.086 4.4787-2.817 8.3127-5.192 11.502-2.307 3.1893-5.225 5.6662-8.754 7.4305s-7.703 2.6465-12.521 2.6465-8.992-0.8482-12.521-2.5447c-3.529-1.7643-6.447-4.2073-8.754-7.3288s-4.038-6.8876-5.192-11.298c-1.153-4.4109-1.73-9.3307-1.73-14.759 0-5.5644 0.543-10.654 1.629-15.268 1.085-4.6144 2.782-8.5841 5.089-11.909 2.308-3.3251 5.226-5.8698 8.755-7.6341 3.596-1.8322 7.838-2.7483 12.724-2.7483 4.75 0 8.89 0.8821 12.419 2.6465 3.529 1.7643 6.447 4.2751 8.754 7.5323 2.375 3.2572 4.14 7.1591 5.294 11.706 1.153 4.4787 1.73 9.4664 1.73 14.963zm-44.688 0c0 3.7323 0.272 7.1931 0.815 10.382 0.543 3.1894 1.459 5.9716 2.748 8.3467 0.181 0.3232 0.369 0.6371 0.566 0.9417 1.207 1.8695 2.715 3.3878 4.524 4.5548 0.895 0.5486 1.882 0.9805 2.962 1.2957 1.457 0.4255 3.083 0.6383 4.876 0.6383 3.054 0 5.633-0.6446 7.736-1.934 2.104-1.3571 3.801-3.1893 5.09-5.4965 1.29-2.3751 2.206-5.1573 2.749-8.3467 0.542-3.1893 0.814-6.6501 0.814-10.382 0-3.6643-0.272-7.0912-0.814-10.281-0.543-3.2572-1.459-6.0394-2.749-8.3466-0.2-0.3685-0.41-0.7247-0.629-1.0687-1.196-1.8732-2.683-3.3831-4.461-4.5297-0.911-0.5881-1.912-1.0487-3.002-1.382-1.425-0.4358-3.003-0.6537-4.734-0.6537-3.122 0-5.734 0.6785-7.838 2.0357s-3.8 3.2233-5.09 5.5984c-1.289 2.3072-2.205 5.0894-2.748 8.3466-0.543 3.1894-0.815 6.6163-0.815 10.281z" fill="#fff"/><path d="m130.46 27.163h-11.594v-11.593h11.594v11.593z" fill="#fff"/><path d="m130.46 32.718v44.839h5.591v9.6941h-23.09v-9.6941h5.902v-35.145h-5.902v-9.6941h17.499z" fill="#fff"/><path d="m274.73 23.444h9.257l-19.517 56.111h-9.256l19.516-56.111z" fill="#fff"/></svg>
