<?xml version="1.0" encoding="UTF-8"?>
<svg width="805.56" height="130.74" fill="none" version="1.1" viewBox="0 0 805.56 130.74" xmlns="http://www.w3.org/2000/svg"><path d="m31.709 105.78c-6.656 0-12.971-1.109-18.944-3.328-5.888-2.304-10.453-5.248-13.696-8.832l2.944-4.864c3.072 3.157 7.253 5.845 12.544 8.064 5.376 2.133 11.051 3.2 17.024 3.2s10.837-0.768 14.592-2.304c3.84-1.621 6.656-3.755 8.448-6.4 1.877-2.645 2.816-5.589 2.816-8.832 0-3.84-1.024-6.912-3.072-9.216s-4.736-4.139-8.064-5.504-6.955-2.517-10.88-3.456-7.893-1.92-11.904-2.944c-4.011-1.109-7.68-2.517-11.008-4.224-3.328-1.707-6.016-4.011-8.064-6.912-1.963-2.987-2.944-6.827-2.944-11.52 0-4.267 1.109-8.192 3.328-11.776s5.675-6.4853 10.368-8.704 10.709-3.328 18.048-3.328c4.949 0 9.813 0.7253 14.592 2.176 4.864 1.4507 9.003 3.4133 12.416 5.888l-2.432 5.248c-3.755-2.56-7.808-4.4373-12.16-5.632-4.267-1.28-8.405-1.92-12.416-1.92-5.717 0-10.453 0.8107-14.208 2.432s-6.528 3.7973-8.32 6.528c-1.792 2.645-2.688 5.632-2.688 8.96 0 3.84 0.981 6.912 2.944 9.216 2.048 2.304 4.736 4.139 8.064 5.504s6.997 2.517 11.008 3.456 7.979 1.963 11.904 3.072c3.925 1.024 7.552 2.389 10.88 4.096s6.016 4.011 8.064 6.912 3.072 6.656 3.072 11.264c0 4.181-1.152 8.107-3.456 11.776-2.304 3.584-5.845 6.485-10.624 8.704-4.693 2.133-10.752 3.2-18.176 3.2zm88.112-0.64v-15.232l-0.256-2.304v-25.088c0-6.229-1.707-10.965-5.12-14.208-3.328-3.243-8.235-4.864-14.72-4.864-4.608 0-8.917 0.811-12.928 2.432-3.925 1.536-7.296 3.541-10.112 6.016l-3.2-4.608c3.328-2.987 7.339-5.291 12.032-6.912 4.693-1.707 9.6-2.56 14.72-2.56 8.277 0 14.635 2.091 19.072 6.272s6.656 10.411 6.656 18.688v42.368zm-24.064 0.512c-4.949 0-9.259-0.768-12.928-2.304-3.584-1.621-6.357-3.883-8.32-6.784-1.877-2.901-2.816-6.229-2.816-9.984 0-3.413 0.768-6.485 2.304-9.216 1.621-2.816 4.267-5.077 7.936-6.784 3.669-1.792 8.576-2.688 14.72-2.688h24.576v4.992h-24.448c-6.912 0-11.776 1.28-14.592 3.84-2.731 2.56-4.096 5.76-4.096 9.6 0 4.267 1.621 7.68 4.864 10.24s7.808 3.84 13.696 3.84c5.632 0 10.368-1.28 14.208-3.84 3.925-2.56 6.827-6.272 8.704-11.136l1.792 4.352c-1.792 4.864-4.864 8.747-9.216 11.648-4.267 2.816-9.728 4.224-16.384 4.224zm92.289-0.512v-15.232l-0.256-2.304v-25.088c0-6.229-1.707-10.965-5.12-14.208-3.328-3.243-8.235-4.864-14.72-4.864-4.608 0-8.917 0.811-12.928 2.432-3.925 1.536-7.296 3.541-10.112 6.016l-3.2-4.608c3.328-2.987 7.339-5.291 12.032-6.912 4.693-1.707 9.6-2.56 14.72-2.56 8.277 0 14.635 2.091 19.072 6.272s6.656 10.411 6.656 18.688v42.368zm-24.064 0.512c-4.949 0-9.259-0.768-12.928-2.304-3.584-1.621-6.357-3.883-8.32-6.784-1.877-2.901-2.816-6.229-2.816-9.984 0-3.413 0.768-6.485 2.304-9.216 1.621-2.816 4.267-5.077 7.936-6.784 3.669-1.792 8.576-2.688 14.72-2.688h24.576v4.992h-24.448c-6.912 0-11.776 1.28-14.592 3.84-2.731 2.56-4.096 5.76-4.096 9.6 0 4.267 1.621 7.68 4.864 10.24s7.808 3.84 13.696 3.84c5.632 0 10.368-1.28 14.208-3.84 3.925-2.56 6.827-6.272 8.704-11.136l1.792 4.352c-1.792 4.864-4.864 8.747-9.216 11.648-4.267 2.816-9.728 4.224-16.384 4.224zm75.777 0.128c-6.656 0-12.971-1.109-18.944-3.328-5.888-2.304-10.453-5.248-13.696-8.832l2.944-4.864c3.072 3.157 7.253 5.845 12.544 8.064 5.376 2.133 11.051 3.2 17.024 3.2s10.837-0.768 14.592-2.304c3.84-1.621 6.656-3.755 8.448-6.4 1.877-2.645 2.816-5.589 2.816-8.832 0-3.84-1.024-6.912-3.072-9.216s-4.736-4.139-8.064-5.504-6.955-2.517-10.88-3.456-7.893-1.92-11.904-2.944c-4.011-1.109-7.68-2.517-11.008-4.224s-6.016-4.011-8.064-6.912c-1.963-2.987-2.944-6.827-2.944-11.52 0-4.267 1.109-8.192 3.328-11.776s5.675-6.4853 10.368-8.704 10.709-3.328 18.048-3.328c4.949 0 9.813 0.7253 14.592 2.176 4.864 1.4507 9.003 3.4133 12.416 5.888l-2.432 5.248c-3.755-2.56-7.808-4.4373-12.16-5.632-4.267-1.28-8.405-1.92-12.416-1.92-5.717 0-10.453 0.8107-14.208 2.432s-6.528 3.7973-8.32 6.528c-1.792 2.645-2.688 5.632-2.688 8.96 0 3.84 0.981 6.912 2.944 9.216 2.048 2.304 4.736 4.139 8.064 5.504s6.997 2.517 11.008 3.456 7.979 1.963 11.904 3.072c3.925 1.024 7.552 2.389 10.88 4.096s6.016 4.011 8.064 6.912 3.072 6.656 3.072 11.264c0 4.181-1.152 8.107-3.456 11.776-2.304 3.584-5.845 6.485-10.624 8.704-4.693 2.133-10.752 3.2-18.176 3.2zm72.347-0.64v-89.6h34.944c7.851 0 14.549 1.2373 20.096 3.712s9.813 6.0587 12.8 10.752c2.987 4.693 4.48 10.283 4.48 16.768s-1.493 12.075-4.48 16.768c-2.987 4.608-7.253 8.192-12.8 10.752-5.547 2.475-12.245 3.712-20.096 3.712h-27.904l5.76-6.016v33.152zm12.8-31.872-5.76-6.4h27.52c8.192 0 14.379-1.749 18.56-5.248 4.267-3.499 6.4-8.448 6.4-14.848s-2.133-11.349-6.4-14.848c-4.181-3.4987-10.368-5.248-18.56-5.248h-27.52l5.76-6.4zm100.09 32.64c-7.253 0-13.653-1.493-19.2-4.48-5.461-2.987-9.728-7.083-12.8-12.288-2.987-5.205-4.48-11.179-4.48-17.92s1.451-12.715 4.352-17.92c2.987-5.205 7.04-9.259 12.16-12.16 5.205-2.987 11.051-4.48 17.536-4.48 6.571 0 12.373 1.451 17.408 4.352s8.96 6.997 11.776 12.288c2.901 5.205 4.352 11.307 4.352 18.304 0 0.512-0.043 1.109-0.128 1.792 0 0.683-0.043 1.323-0.128 1.92h-57.728v-8.832h51.328l-4.992 3.072c0.085-4.352-0.811-8.235-2.688-11.648s-4.48-6.059-7.808-7.936c-3.243-1.963-7.04-2.944-11.392-2.944-4.267 0-8.064 0.981-11.392 2.944-3.328 1.877-5.931 4.565-7.808 8.064-1.877 3.413-2.816 7.339-2.816 11.776v2.048c0 4.523 1.024 8.576 3.072 12.16 2.133 3.499 5.077 6.229 8.832 8.192s8.064 2.944 12.928 2.944c4.011 0 7.637-0.683 10.88-2.048 3.328-1.365 6.229-3.413 8.704-6.144l6.784 7.936c-3.072 3.584-6.912 6.315-11.52 8.192-4.523 1.877-9.6 2.816-15.232 2.816zm71.463 24.832c-6.229 0-12.288-0.896-18.176-2.688-5.803-1.707-10.539-4.181-14.208-7.424l5.888-9.472c3.157 2.731 7.04 4.864 11.648 6.4 4.608 1.621 9.429 2.432 14.464 2.432 8.021 0 13.909-1.877 17.664-5.632s5.632-9.472 5.632-17.152v-14.336l1.28-13.44-0.64-13.568v-18.56h11.648v58.624c0 11.947-2.987 20.736-8.96 26.368s-14.72 8.448-26.24 8.448zm-1.536-28.416c-6.571 0-12.459-1.365-17.664-4.096-5.12-2.816-9.216-6.699-12.288-11.648-2.987-4.949-4.48-10.667-4.48-17.152 0-6.571 1.493-12.288 4.48-17.152 3.072-4.949 7.168-8.789 12.288-11.52 5.205-2.731 11.093-4.096 17.664-4.096 5.803 0 11.093 1.195 15.872 3.584 4.779 2.304 8.576 5.888 11.392 10.752 2.901 4.864 4.352 11.008 4.352 18.432 0 7.339-1.451 13.44-4.352 18.304-2.816 4.864-6.613 8.533-11.392 11.008-4.779 2.389-10.069 3.584-15.872 3.584zm1.408-10.752c4.523 0 8.533-0.939 12.032-2.816s6.229-4.48 8.192-7.808c2.048-3.328 3.072-7.168 3.072-11.52s-1.024-8.192-3.072-11.52c-1.963-3.328-4.693-5.888-8.192-7.68-3.499-1.877-7.509-2.816-12.032-2.816s-8.576 0.939-12.16 2.816c-3.499 1.792-6.272 4.352-8.32 7.68-1.963 3.328-2.944 7.168-2.944 11.52s0.981 8.192 2.944 11.52c2.048 3.328 4.821 5.931 8.32 7.808 3.584 1.877 7.637 2.816 12.16 2.816zm94.519 13.568v-14.336l-0.64-2.688v-24.448c0-5.205-1.536-9.216-4.608-12.032-2.987-2.901-7.509-4.352-13.568-4.352-4.011 0-7.936 0.683-11.776 2.048-3.84 1.28-7.083 3.029-9.728 5.248l-5.12-9.216c3.499-2.816 7.68-4.949 12.544-6.4 4.949-1.536 10.112-2.304 15.488-2.304 9.301 0 16.469 2.261 21.504 6.784s7.552 11.435 7.552 20.736v40.96zm-22.272 0.768c-5.035 0-9.472-0.853-13.312-2.56-3.755-1.707-6.656-4.053-8.704-7.04-2.048-3.072-3.072-6.528-3.072-10.368 0-3.669 0.853-6.997 2.56-9.984 1.792-2.987 4.651-5.376 8.576-7.168 4.011-1.792 9.387-2.688 16.128-2.688h21.504v8.832h-20.992c-6.144 0-10.283 1.024-12.416 3.072s-3.2 4.523-3.2 7.424c0 3.328 1.323 6.016 3.968 8.064 2.645 1.963 6.315 2.944 11.008 2.944 4.608 0 8.619-1.024 12.032-3.072 3.499-2.048 6.016-5.035 7.552-8.96l2.432 8.448c-1.621 4.011-4.48 7.211-8.576 9.6-4.096 2.304-9.259 3.456-15.488 3.456zm69.716 0c-5.632 0-11.008-0.768-16.128-2.304-5.035-1.536-9.003-3.413-11.904-5.632l5.12-9.728c2.901 1.963 6.485 3.627 10.752 4.992s8.619 2.048 13.056 2.048c5.717 0 9.813-0.811 12.288-2.432 2.56-1.621 3.84-3.883 3.84-6.784 0-2.133-0.768-3.797-2.304-4.992s-3.584-2.091-6.144-2.688c-2.475-0.597-5.248-1.109-8.32-1.536-3.072-0.512-6.144-1.109-9.216-1.792-3.072-0.768-5.888-1.792-8.448-3.072-2.56-1.365-4.608-3.2-6.144-5.504-1.536-2.389-2.304-5.547-2.304-9.472 0-4.096 1.152-7.68 3.456-10.752s5.547-5.419 9.728-7.04c4.267-1.707 9.301-2.56 15.104-2.56 4.437 0 8.917 0.555 13.44 1.664 4.608 1.024 8.363 2.517 11.264 4.48l-5.248 9.728c-3.072-2.048-6.272-3.456-9.6-4.224s-6.656-1.152-9.984-1.152c-5.376 0-9.387 0.896-12.032 2.688-2.645 1.707-3.968 3.925-3.968 6.656 0 2.304 0.768 4.096 2.304 5.376 1.621 1.195 3.669 2.133 6.144 2.816 2.56 0.683 5.376 1.28 8.448 1.792 3.072 0.427 6.144 1.024 9.216 1.792 3.072 0.683 5.845 1.664 8.32 2.944 2.56 1.28 4.608 3.072 6.144 5.376 1.621 2.304 2.432 5.376 2.432 9.216 0 4.096-1.195 7.637-3.584 10.624s-5.76 5.333-10.112 7.04c-4.352 1.621-9.557 2.432-15.616 2.432zm66.813 0c-5.803 0-10.923-1.067-15.36-3.2-4.352-2.133-7.765-5.376-10.24-9.728-2.389-4.437-3.584-9.984-3.584-16.64v-39.04h12.288v37.632c0 6.656 1.579 11.648 4.736 14.976 3.243 3.328 7.765 4.992 13.568 4.992 4.267 0 7.979-0.853 11.136-2.56 3.157-1.792 5.589-4.352 7.296-7.68 1.707-3.413 2.56-7.509 2.56-12.288v-35.072h12.288v67.84h-11.648v-18.304l1.92 4.864c-2.219 4.523-5.547 8.021-9.984 10.496-4.437 2.475-9.429 3.712-14.976 3.712zm71.137 0c-5.632 0-11.008-0.768-16.128-2.304-5.035-1.536-9.003-3.413-11.904-5.632l5.12-9.728c2.901 1.963 6.485 3.627 10.752 4.992s8.619 2.048 13.056 2.048c5.717 0 9.813-0.811 12.288-2.432 2.56-1.621 3.84-3.883 3.84-6.784 0-2.133-0.768-3.797-2.304-4.992s-3.584-2.091-6.144-2.688c-2.475-0.597-5.248-1.109-8.32-1.536-3.072-0.512-6.144-1.109-9.216-1.792-3.072-0.768-5.888-1.792-8.448-3.072-2.56-1.365-4.608-3.2-6.144-5.504-1.536-2.389-2.304-5.547-2.304-9.472 0-4.096 1.152-7.68 3.456-10.752s5.547-5.419 9.728-7.04c4.267-1.707 9.301-2.56 15.104-2.56 4.437 0 8.917 0.555 13.44 1.664 4.608 1.024 8.363 2.517 11.264 4.48l-5.248 9.728c-3.072-2.048-6.272-3.456-9.6-4.224s-6.656-1.152-9.984-1.152c-5.376 0-9.387 0.896-12.032 2.688-2.645 1.707-3.968 3.925-3.968 6.656 0 2.304 0.768 4.096 2.304 5.376 1.621 1.195 3.669 2.133 6.144 2.816 2.56 0.683 5.376 1.28 8.448 1.792 3.072 0.427 6.144 1.024 9.216 1.792 3.072 0.683 5.845 1.664 8.32 2.944 2.56 1.28 4.608 3.072 6.144 5.376 1.621 2.304 2.432 5.376 2.432 9.216 0 4.096-1.195 7.637-3.584 10.624s-5.76 5.333-10.112 7.04c-4.352 1.621-9.557 2.432-15.616 2.432z" fill="#fff"/></svg>
