<?xml version="1.0" encoding="UTF-8"?>
<svg width="282.11" height="51.816" version="1.1" viewBox="0 0 282.11 51.816" xmlns="http://www.w3.org/2000/svg"><path d="m64.192 39.28c-3.34-2.9863-5.01-7.4004-5.01-13.231s1.703-10.244 5.112-13.231c3.405-2.9863 8.063-4.4823 13.969-4.4823 2.454 0 4.621 0.1763 6.507 0.5403 1.886 0.3584 3.691 0.967 5.414 1.8316v9.4595c-2.68-1.3367-5.722-2.0079-9.127-2.0079-2.999 0-5.214 0.5972-6.641 1.7918-1.432 1.1945-2.145 3.2252-2.145 6.0977 0 2.7759 0.702 4.7838 2.113 6.0238 1.405 1.2457 3.631 1.8658 6.679 1.8658 3.226 0 6.29-0.7907 9.197-2.3663v9.8974c-3.226 1.5302-7.247 2.2924-12.061 2.2924-6.004 0-10.668-1.496-14.007-4.4823z" fill="#fff"/><path d="m93.168 26.044c0-5.7849 1.567-10.182 4.701-13.197 3.134-3.0147 7.857-4.5164 14.174-4.5164 6.361 0 11.116 1.5074 14.277 4.5164 3.156 3.0091 4.734 7.4118 4.734 13.197 0 11.809-6.338 17.713-19.011 17.713-12.585 0.0057-18.875-5.8986-18.875-17.713zm23.409 6.0295c0.93-1.2458 1.395-3.2537 1.395-6.0239 0-2.7246-0.465-4.7212-1.395-5.9896-0.929-1.2685-2.442-1.8999-4.534-1.8999-2.042 0-3.523 0.6371-4.431 1.8999-0.908 1.2684-1.361 3.265-1.361 5.9896 0 2.7759 0.453 4.7838 1.361 6.0239 0.908 1.2457 2.383 1.8657 4.431 1.8657 2.092 0 3.599-0.6257 4.534-1.8657z" fill="#fff"/><path d="m134.04 9.0471h11.991l0.341 2.5825c1.318-0.9557 2.999-1.7463 5.041-2.3663 2.043-0.6201 4.156-0.9329 6.339-0.9329 4.042 0 6.993 1.0523 8.857 3.157 1.864 2.1046 2.794 5.3526 2.794 9.7552v21.803h-12.807v-20.443c0-1.5301-0.33-2.628-0.989-3.2992s-1.762-1.0011-3.307-1.0011c-0.951 0-1.93 0.2275-2.929 0.6826-1 0.4551-1.838 1.0409-2.524 1.7577v22.303h-12.807z" fill="#fff"/><path d="m169.44 9.0473h13.353l6.133 19.937 6.134-19.937h13.353l-12.743 33.998h-13.493z" fill="#fff"/><path d="m212.44 40.122c-3.848-3.0375-5.647-8.3105-5.647-14.004 0-5.546 1.432-10.114 4.701-13.271 3.269-3.1569 8.252-4.5164 14.542-4.5164 5.787 0 10.337 1.4107 13.661 4.232 3.318 2.8214 4.982 6.6723 4.982 11.547v5.9555h-24.355c0.605 1.769 1.372 3.0489 3.258 3.8396 1.886 0.7906 4.518 1.1831 7.885 1.1831 2.01 0 4.063-0.165 6.149-0.5006 0.735-0.1194 1.946-0.3071 2.583-0.4493v8.2649c-3.183 0.9101-7.425 1.3652-12.207 1.3652-6.436-0.0057-11.705-0.6086-15.552-3.6461zm18.783-17.372c0-1.6837-1.842-5.3071-5.544-5.3071-3.34 0-5.544 3.5665-5.544 5.3071z" fill="#fff"/><path d="m254.74 25.759-11.992-16.712h13.899l24.528 33.998h-14.033l-5.453-7.6051-5.452 7.6051h-13.97z" fill="#fff"/><path d="m266.83 9.0473h13.834l-10.618 14.886-7.025-9.5392z" fill="#fff"/><path d="m31.679 40.267c7.3712-0.8136 14.32-4.7164 18.146-11.231-1.8114 16.112-19.542 26.296-34.014 20.043-1.3335-0.5746-2.4814-1.5304-3.2692-2.7593-3.2523-5.0748-4.3214-11.532-2.7853-17.392 4.389 7.5269 13.313 12.141 21.922 11.339z" fill="#fff"/><path d="m9.4877 24.201c-2.9879 6.8612-3.1173 14.894 0.5458 21.505-12.891-9.6376-12.75-30.261-0.1575-39.802 1.1647-0.8818 2.5489-1.4052 4.0007-1.4849 5.9701-0.3129 12.036 1.9799 16.29 6.2525-8.6429 0.0854-17.061 5.5869-20.679 13.529z" fill="#fff"/><path d="m34.335 12.783c-4.3609-6.042-11.186-10.155-18.664-10.28 14.456-6.5199 32.236 4.0507 34.172 19.679 0.18 1.4508-0.056 2.93-0.7031 4.2385-2.7009 5.4503-7.7089 9.6775-13.561 11.242 4.2877-7.9024 3.7587-17.557-1.2435-24.879z" fill="#fff"/></svg>
