<?xml version="1.0" encoding="UTF-8" standalone="no"?>
<svg
   xml:space="preserve"
   viewBox="0 0 80 80"
   version="1.1"
   id="svg4"
   sodipodi:docname="changelog.svg"
   width="80"
   height="80"
   inkscape:version="1.4 (e7c3feb100, 2024-10-09)"
   xmlns:inkscape="http://www.inkscape.org/namespaces/inkscape"
   xmlns:sodipodi="http://sodipodi.sourceforge.net/DTD/sodipodi-0.dtd"
   xmlns="http://www.w3.org/2000/svg"
   xmlns:svg="http://www.w3.org/2000/svg"><defs
     id="defs4" /><sodipodi:namedview
     id="namedview4"
     pagecolor="#ffffff"
     bordercolor="#666666"
     borderopacity="1.0"
     inkscape:showpageshadow="2"
     inkscape:pageopacity="0.0"
     inkscape:pagecheckerboard="0"
     inkscape:deskcolor="#d1d1d1"
     inkscape:zoom="10.08"
     inkscape:cx="32.539683"
     inkscape:cy="47.569444"
     inkscape:window-width="2560"
     inkscape:window-height="1387"
     inkscape:window-x="0"
     inkscape:window-y="0"
     inkscape:window-maximized="0"
     inkscape:current-layer="svg4" /><rect
     style="fill:#101820;fill-opacity:1;stroke-width:200"
     id="rect4"
     width="80"
     height="80"
     x="0"
     y="0"
     sodipodi:insensitive="true" /><linearGradient
     id="a"
     gradientUnits="userSpaceOnUse"
     x1="2.3999999e-07"
     y1="32.9986"
     x2="42.868599"
     y2="32.9986"
     gradientTransform="translate(0,-8)"><stop
       offset="0"
       stop-color="#61c192"
       stop-opacity="0"
       id="stop1" /><stop
       offset="1"
       stop-color="#61c192"
       id="stop2" /></linearGradient><linearGradient
     id="b"
     gradientUnits="userSpaceOnUse"
     x1="8.0749998"
     y1="33.0425"
     x2="37.0909"
     y2="33.0425"
     gradientTransform="translate(0,-8)"><stop
       offset="0"
       stop-color="#61c192"
       id="stop3" /><stop
       offset="1"
       stop-color="#61c192"
       stop-opacity="0"
       id="stop4" /></linearGradient><g
     id="g5"
     transform="matrix(1.1316841,0,0,1.1316841,15.711231,11.709472)"><path
       d="m 29,22.2 c -1.4,-1.6 -2.4,-2.1 -3.9,-2.1 -2.6,0 -4.7,2.2 -4.7,4.9 0,2.7 2.1,4.9 4.8,4.9 1.5,0 2.6,-0.6 3.9,-2.1 l 2.4,2.3 c -2,2.2 -3.9,3 -6.3,3 -4.6,0 -8.3,-3.6 -8.3,-8.1 0,-4.5 3.7,-8.1 8.3,-8.1 2.4,0 4.2,0.9 6.2,3 z"
       fill="#ffffff"
       id="path1" /><path
       d="M 25,50 H 24.5 C 17.7,49.9 11.3,47 6.6,42 -2.2,32.5 -2.2,17.6 6.6,8 11.3,3 17.6,0.1 24.5,0 31.4,-0.1 37.8,2.5 42.7,7.3 43,7.6 43,8 42.7,8.3 42.4,8.6 42,8.6 41.7,8.3 37.1,3.7 31,1.2 24.5,1.3 18,1.4 12,4.2 7.6,8.9 c -8.4,9 -8.4,23.1 0,32.1 4.4,4.8 10.4,7.5 16.9,7.6 6.5,0.1 12.6,-2.3 17.2,-6.9 0.3,-0.3 0.7,-0.3 1,0 0.3,0.3 0.3,0.7 0,1 C 38,47.4 31.7,50 25,50 Z"
       fill="url(#a)"
       id="path2"
       style="fill:url(#a)" /><path
       d="M 25,41.9 H 24.4 C 19.7,41.7 15.3,39.7 12.2,36.1 6.7,29.8 6.7,20.3 12.2,14 15.3,10.4 19.7,8.4 24.4,8.2 29.1,8 33.7,9.8 37,13.1 c 0.3,0.3 0.3,0.7 0,1 -0.3,0.3 -0.7,0.3 -1,0 -3,-3 -7.2,-4.7 -11.5,-4.5 -4.3,0.1 -8.3,2 -11.2,5.3 -5.1,5.8 -5.1,14.6 0,20.4 2.9,3.3 6.8,5.2 11.2,5.3 4.3,0 8.5,-1.6 11.5,-4.6 0.3,-0.3 0.7,-0.3 1,0 0.3,0.3 0.3,0.7 0,1 -3.3,3.1 -7.5,4.9 -12,4.9 z"
       fill="url(#b)"
       id="path4"
       style="fill:url(#b)" /></g></svg>
