<?xml version="1.0" encoding="UTF-8" standalone="no"?>
<svg
   viewBox="0 0 180 180"
   height="180"
   width="180"
   xml:space="preserve"
   id="svg29"
   version="1.1"
   xmlns="http://www.w3.org/2000/svg"
   xmlns:svg="http://www.w3.org/2000/svg"
   xmlns:rdf="http://www.w3.org/1999/02/22-rdf-syntax-ns#"
   xmlns:cc="http://creativecommons.org/ns#"
   xmlns:dc="http://purl.org/dc/elements/1.1/"><metadata
     id="metadata35"><rdf:RDF><cc:Work
         rdf:about=""><dc:format>image/svg+xml</dc:format><dc:type
           rdf:resource="http://purl.org/dc/dcmitype/StillImage" /></cc:Work></rdf:RDF></metadata><defs
     id="defs33" /><rect
     style="fill:#ffffff;stroke-width:15.9987"
     id="rect1"
     width="180"
     height="180"
     x="0"
     y="0" /><g
     transform="matrix(1.3333333,0,0,-1.3333333,12.868476,167.5346)"
     id="g37"><g
       id="g39"><path
         id="path53"
         style="fill:#ac1d94;fill-opacity:1;fill-rule:nonzero;stroke:none"
         d="m 57.762,29.551 c -15.602,0 -28.602,12.684 -28.602,28.52 0,15.758 13,28.676 28.602,28.676 15.836,0 28.758,-12.918 28.758,-28.676 0,-15.836 -12.922,-28.52 -28.758,-28.52 z m 44.558,28.578 -0.222,4.438 c 3.441,1.473 6.832,3.219 10.172,5.234 -0.274,2.09 -0.95,4.106 -1.442,6.153 -3.933,0.535 -7.914,0.711 -11.707,0.605 -0.504,1.391 -1.242,2.684 -1.859,4.035 -0.668,1.321 -1.508,2.547 -2.258,3.828 2.402,2.934 4.547,6.032 6.57,9.379 -1.207,1.727 -2.746,3.18 -4.133,4.758 -3.722,-1.359 -7.328,-3.055 -10.636,-4.91 -1.102,0.992 -2.348,1.809 -3.52,2.719 -1.215,0.843 -2.515,1.562 -3.773,2.343 0.761,3.704 1.234,7.454 1.472,11.356 -1.879,0.969 -3.922,1.547 -5.886,2.305 -2.668,-2.934 -5.075,-6.118 -7.141,-9.297 -1.43,0.383 -2.922,0.496 -4.375,0.754 -1.469,0.234 -2.957,0.195 -4.434,0.304 -1.05,3.723 -2.375,7.172 -3.968,10.746 -2.102,-0.043 -4.188,-0.371 -6.27,-0.703 -1.015,-3.761 -1.668,-7.726 -2.012,-11.539 -1.453,-0.312 -2.839,-0.84 -4.23,-1.359 -1.414,-0.453 -2.73,-1.141 -4.066,-1.781 -2.653,2.781 -5.481,5.312 -8.532,7.671 -1.836,-1.042 -3.554,-2.253 -5.215,-3.55 0.864,-3.813 2.118,-7.594 3.594,-11.141 -1.133,-0.961 -2.121,-2.066 -3.109,-3.172 -1.043,-1.058 -1.883,-2.281 -2.778,-3.465 -3.64,1.239 -7.304,2.164 -11.109,2.848 -1.148,-1.77 -2.098,-3.648 -2.98,-5.566 2.523,-2.977 5.406,-5.758 8.351,-8.207 C 16.262,71.54 15.906,70.098 15.547,68.661 15.121,67.239 14.93,65.762 14.711,64.297 10.926,63.692 7.191,62.809 3.547,61.641 3.406,59.543 3.344,57.446 3.512,55.348 c 3.676,-1.457 7.367,-2.59 11.199,-3.387 0.219,-1.464 0.41,-2.937 0.836,-4.363 0.359,-1.437 0.715,-2.879 1.277,-4.254 -2.984,-2.254 -6.015,-4.832 -8.664,-7.547 0.922,-1.894 1.762,-3.836 2.914,-5.601 3.969,0.441 7.723,1.133 11.488,2.222 0.895,-1.179 1.735,-2.41 2.778,-3.464 0.988,-1.106 1.976,-2.211 3.109,-3.172 -1.601,-3.387 -3.078,-7.063 -4.176,-10.699 1.688,-1.262 3.336,-2.575 5.172,-3.614 3.305,2.219 6.325,4.586 9.157,7.297 1.336,-0.644 2.652,-1.328 4.066,-1.785 1.391,-0.52 2.777,-1.047 4.23,-1.363 0.161,-3.735 0.563,-7.688 1.293,-11.418 2.082,-0.293 4.157,-0.746 6.258,-0.778 1.887,3.555 3.453,6.985 4.699,10.704 1.477,0.109 2.965,0.07 4.434,0.304 1.453,0.262 2.945,0.371 4.375,0.758 1.883,-3.25 4.035,-6.434 6.449,-9.527 1.985,0.695 3.992,1.367 5.918,2.218 0.028,4.02 -0.226,7.883 -0.812,11.664 1.258,0.786 2.558,1.508 3.773,2.352 1.172,0.906 2.418,1.723 3.52,2.711 3.175,-1.996 6.562,-3.813 10.133,-5.43 1.429,1.535 2.898,3.055 4.195,4.703 -1.844,3.579 -3.844,6.868 -6.129,9.961 0.75,1.278 1.59,2.508 2.258,3.828 0.617,1.348 1.355,2.641 1.859,4.036 3.742,-0.297 7.586,-0.332 11.5,-0.098 0.559,2.027 1.133,4.066 1.535,6.129 -3.293,2.305 -6.648,4.293 -10.058,5.953 l 0.222,4.441" /><path
         id="path55"
         style="fill:none;stroke:#ffffff;stroke-width:0.430706;stroke-linecap:butt;stroke-linejoin:miter;stroke-miterlimit:10;stroke-dasharray:none;stroke-opacity:1"
         d="m 57.762,29.555 c -15.602,0 -28.602,12.684 -28.602,28.516 0,15.758 13,28.676 28.602,28.676 15.836,0 28.758,-12.918 28.758,-28.676 0,-15.832 -12.922,-28.516 -28.758,-28.516 z" /><path
         id="path57"
         style="fill:none;stroke:#ffffff;stroke-width:0.430706;stroke-linecap:butt;stroke-linejoin:miter;stroke-miterlimit:10;stroke-dasharray:none;stroke-opacity:1"
         d="m 102.32,58.129 -0.222,4.438 c 3.441,1.473 6.832,3.219 10.172,5.234 -0.274,2.09 -0.95,4.106 -1.442,6.153 -3.933,0.535 -7.914,0.711 -11.707,0.605 -0.504,1.391 -1.242,2.684 -1.859,4.035 -0.668,1.321 -1.508,2.547 -2.258,3.828 2.402,2.934 4.547,6.032 6.57,9.379 -1.207,1.727 -2.746,3.18 -4.133,4.758 -3.722,-1.359 -7.328,-3.055 -10.636,-4.91 -1.102,0.992 -2.348,1.809 -3.52,2.719 -1.215,0.843 -2.515,1.562 -3.773,2.343 0.761,3.704 1.234,7.454 1.472,11.356 -1.879,0.969 -3.922,1.547 -5.886,2.305 -2.668,-2.934 -5.075,-6.118 -7.141,-9.297 -1.43,0.383 -2.922,0.496 -4.375,0.754 -1.469,0.234 -2.957,0.195 -4.434,0.304 -1.05,3.723 -2.375,7.172 -3.968,10.746 -2.102,-0.043 -4.188,-0.371 -6.27,-0.703 -1.015,-3.761 -1.668,-7.726 -2.012,-11.539 -1.453,-0.312 -2.839,-0.84 -4.23,-1.359 -1.414,-0.453 -2.73,-1.141 -4.066,-1.781 -2.653,2.781 -5.481,5.312 -8.532,7.671 -1.836,-1.042 -3.554,-2.253 -5.215,-3.55 0.864,-3.813 2.118,-7.594 3.594,-11.141 -1.133,-0.961 -2.121,-2.066 -3.109,-3.172 -1.043,-1.058 -1.883,-2.281 -2.778,-3.465 -3.64,1.239 -7.304,2.164 -11.109,2.848 -1.148,-1.77 -2.098,-3.648 -2.98,-5.566 2.523,-2.977 5.406,-5.758 8.351,-8.207 C 16.262,71.54 15.906,70.098 15.547,68.661 15.121,67.239 14.93,65.762 14.711,64.297 10.926,63.692 7.191,62.809 3.547,61.641 3.406,59.543 3.344,57.446 3.512,55.348 c 3.676,-1.457 7.367,-2.59 11.199,-3.387 0.219,-1.464 0.41,-2.937 0.836,-4.363 0.359,-1.437 0.715,-2.879 1.277,-4.254 -2.984,-2.254 -6.015,-4.832 -8.664,-7.547 0.922,-1.894 1.762,-3.836 2.914,-5.601 3.969,0.441 7.723,1.133 11.488,2.222 0.895,-1.179 1.735,-2.41 2.778,-3.464 0.988,-1.106 1.976,-2.211 3.109,-3.172 -1.601,-3.387 -3.078,-7.063 -4.176,-10.699 1.688,-1.262 3.336,-2.575 5.172,-3.614 3.305,2.219 6.325,4.586 9.157,7.297 1.336,-0.644 2.652,-1.328 4.066,-1.785 1.391,-0.52 2.777,-1.047 4.23,-1.363 0.161,-3.735 0.563,-7.688 1.293,-11.418 2.082,-0.293 4.157,-0.746 6.258,-0.778 1.887,3.555 3.453,6.985 4.699,10.704 1.477,0.109 2.965,0.07 4.434,0.304 1.453,0.262 2.945,0.371 4.375,0.758 1.883,-3.25 4.035,-6.434 6.449,-9.527 1.985,0.695 3.992,1.367 5.918,2.218 0.028,4.02 -0.226,7.883 -0.812,11.664 1.258,0.786 2.558,1.508 3.773,2.352 1.172,0.906 2.418,1.723 3.52,2.711 3.175,-1.996 6.562,-3.813 10.133,-5.43 1.429,1.535 2.898,3.055 4.195,4.703 -1.844,3.579 -3.844,6.868 -6.129,9.961 0.75,1.278 1.59,2.508 2.258,3.828 0.617,1.348 1.355,2.641 1.859,4.036 3.742,-0.297 7.586,-0.332 11.5,-0.098 0.559,2.027 1.133,4.066 1.535,6.129 -3.293,2.305 -6.648,4.293 -10.058,5.953 z" /><path
         id="path59"
         style="fill:#ac1d94;fill-opacity:1;fill-rule:nonzero;stroke:none"
         d="m 46.93,65.168 c -3.875,0 -7.02,-3.136 -7.02,-7.015 0,-3.875 3.145,-7.02 7.02,-7.02 3.867,0 7.019,3.145 7.019,7.02 0,3.879 -3.152,7.015 -7.019,7.015" /><g
         transform="translate(0,116.29738)"
         id="g61"><path
           id="path63"
           style="fill:none;stroke:#ffffff;stroke-width:0.663717;stroke-linecap:butt;stroke-linejoin:miter;stroke-miterlimit:10;stroke-dasharray:none;stroke-opacity:1"
           d="m 46.93,-51.133 c -3.875,0 -7.02,-3.133 -7.02,-7.012 0,-3.875 3.145,-7.015 7.02,-7.015 3.867,0 7.019,3.14 7.019,7.015 0,3.879 -3.152,7.012 -7.019,7.012 z" /></g><path
         id="path65"
         style="fill:#ac1d94;fill-opacity:1;fill-rule:nonzero;stroke:none"
         d="m 68.758,65.168 c -3.871,0 -7.02,-3.136 -7.02,-7.015 0,-3.875 3.149,-7.02 7.02,-7.02 3.875,0 7.012,3.145 7.012,7.02 0,3.879 -3.137,7.015 -7.012,7.015" /><g
         transform="translate(0,116.29738)"
         id="g67"><path
           id="path69"
           style="fill:none;stroke:#ffffff;stroke-width:0.663717;stroke-linecap:butt;stroke-linejoin:miter;stroke-miterlimit:10;stroke-dasharray:none;stroke-opacity:1"
           d="m 68.758,-51.133 c -3.871,0 -7.02,-3.133 -7.02,-7.012 0,-3.875 3.149,-7.015 7.02,-7.015 3.875,0 7.012,3.14 7.012,7.015 0,3.879 -3.137,7.012 -7.012,7.012 z" /></g><path
         id="path71"
         style="fill:#ac1d94;fill-opacity:1;fill-rule:nonzero;stroke:none"
         d="m 68.758,51.133 c -3.871,0 -7.02,3.145 -7.02,7.02 0,3.879 3.149,7.015 7.02,7.015 3.875,0 7.012,-3.136 7.012,-7.015 0,-3.875 -3.137,-7.02 -7.012,-7.02 z m -21.828,0 c -3.875,0 -7.02,3.145 -7.02,7.02 0,3.879 3.145,7.015 7.02,7.015 3.867,0 7.019,-3.136 7.019,-7.015 0,-3.875 -3.152,-7.02 -7.019,-7.02" /><g
         transform="translate(0,116.29738)"
         id="g73"><path
           id="path75"
           style="fill:none;stroke:#ffffff;stroke-width:0.663717;stroke-linecap:butt;stroke-linejoin:miter;stroke-miterlimit:10;stroke-dasharray:none;stroke-opacity:1"
           d="m 68.758,-65.16 c -3.871,0 -7.02,3.14 -7.02,7.015 0,3.879 3.149,7.012 7.02,7.012 3.875,0 7.012,-3.133 7.012,-7.012 0,-3.875 -3.137,-7.015 -7.012,-7.015 z" /></g><g
         transform="translate(0,116.29738)"
         id="g77"><path
           id="path79"
           style="fill:none;stroke:#ffffff;stroke-width:0.663717;stroke-linecap:butt;stroke-linejoin:miter;stroke-miterlimit:10;stroke-dasharray:none;stroke-opacity:1"
           d="m 46.93,-65.16 c -3.875,0 -7.02,3.14 -7.02,7.015 0,3.879 3.145,7.012 7.02,7.012 3.867,0 7.019,-3.133 7.019,-7.012 0,-3.875 -3.152,-7.015 -7.019,-7.015 z" /></g></g></g></svg>
