<?xml version="1.0" encoding="UTF-8" standalone="no"?>
<svg
   width="130"
   height="130"
   version="1.1"
   id="svg1"
   xmlns="http://www.w3.org/2000/svg"
   xmlns:svg="http://www.w3.org/2000/svg">
  <defs
     id="defs1" />
  <rect
     style="fill:#ffffff;stroke:none;stroke-width:120"
     id="rect1"
     width="130"
     height="130"
     x="0"
     y="0" />
  <path
     fill-rule="evenodd"
     clip-rule="evenodd"
     d="m 65.040391,16.999799 c -27.015,0 -48.854,22 -48.854,49.217 0,21.756 13.993,40.172001 33.405,46.690001 2.427,0.49 3.316,-1.059 3.316,-2.362 0,-1.141 -0.08,-5.052 -0.08,-9.127 -13.59,2.934 -16.42,-5.867001 -16.42,-5.867001 -2.184,-5.704 -5.42,-7.17 -5.42,-7.17 -4.448,-3.015 0.324,-3.015 0.324,-3.015 4.934,0.326 7.523,5.052 7.523,5.052 4.367,7.496 11.404,5.378 14.235,4.074 0.404,-3.178 1.699,-5.378 3.074,-6.6 -10.839,-1.141 -22.243,-5.378 -22.243,-24.283 0,-5.378 1.94,-9.778 5.014,-13.2 -0.485,-1.222 -2.184,-6.275 0.486,-13.038 0,0 4.125,-1.304 13.426,5.052 a 46.97,46.97 0 0 1 12.214,-1.63 c 4.125,0 8.33,0.571 12.213,1.63 9.302,-6.356 13.427,-5.052 13.427,-5.052 2.67,6.763 0.97,11.816 0.485,13.038 3.155,3.422 5.015,7.822 5.015,13.2 0,18.905 -11.404,23.06 -22.324,24.283 1.78,1.548 3.316,4.481 3.316,9.126 0,6.600001 -0.08,11.897001 -0.08,13.526001 0,1.304 0.89,2.853 3.316,2.364 19.412,-6.52 33.404999,-24.935001 33.404999,-46.691001 0.08,-27.217 -21.838999,-49.217 -48.772999,-49.217 z"
     fill="#24292f"
     id="path1" />
</svg>
