<?xml version="1.0" encoding="UTF-8" standalone="no"?>
<!-- Created with Inkscape (http://www.inkscape.org/) -->

<svg
   version="1.1"
   id="svg1"
   width="450"
   height="450"
   viewBox="0 0 450 450"
   sodipodi:docname="ieee.svg"
   inkscape:version="1.4 (e7c3feb100, 2024-10-09)"
   xmlns:inkscape="http://www.inkscape.org/namespaces/inkscape"
   xmlns:sodipodi="http://sodipodi.sourceforge.net/DTD/sodipodi-0.dtd"
   xmlns="http://www.w3.org/2000/svg"
   xmlns:svg="http://www.w3.org/2000/svg">
  <defs
     id="defs1">
    <clipPath
       clipPathUnits="userSpaceOnUse"
       id="clipPath6">
      <path
         d="M 0,90 H 288 V 0 H 0 Z"
         transform="translate(-40.499001,-37.888701)"
         id="path6" />
    </clipPath>
    <clipPath
       clipPathUnits="userSpaceOnUse"
       id="clipPath8">
      <path
         d="M 0,90 H 288 V 0 H 0 Z"
         transform="translate(-57.069802,-9.7392977)"
         id="path8" />
    </clipPath>
  </defs>
  <sodipodi:namedview
     id="namedview1"
     pagecolor="#000000"
     bordercolor="#666666"
     borderopacity="1.0"
     inkscape:showpageshadow="2"
     inkscape:pageopacity="0.0"
     inkscape:pagecheckerboard="0"
     inkscape:deskcolor="#d1d1d1"
     inkscape:zoom="2.8125"
     inkscape:cx="102.75556"
     inkscape:cy="170.13333"
     inkscape:window-width="3840"
     inkscape:window-height="2127"
     inkscape:window-x="0"
     inkscape:window-y="0"
     inkscape:window-maximized="0"
     inkscape:current-layer="svg1">
    <inkscape:page
       x="0"
       y="0"
       inkscape:label="1"
       id="page1"
       width="450"
       height="450"
       margin="4.6354132 2 4.2328 0.79425067"
       bleed="0" />
  </sodipodi:namedview>
  <rect
     style="fill:#00629b;stroke-width:100;fill-opacity:1"
     id="rect8"
     width="450"
     height="450"
     x="-33.601475"
     y="-165.20154"
     transform="translate(33.601475,165.20154)" />
  <g
     id="layer-MC0"
     inkscape:groupmode="layer"
     inkscape:label="Layer 1"
     transform="translate(33.601475,165.20154)">
    <path
       id="path1"
       d="m 95.941,75.798 h 17.492 V 12.652 H 95.941 Z"
       style="fill:#ffffff;fill-opacity:1;fill-rule:nonzero;stroke:none"
       transform="matrix(1.3333333,0,0,-1.3333333,0,120)" />
    <path
       id="path2"
       d="M 0,0 V 63.146 H 48.102 V 50.904 H 17.491 V 37.874 H 45.65 V 25.628 H 17.491 V 12.249 H 48.102 V 0 Z"
       style="fill:#ffffff;fill-opacity:1;fill-rule:nonzero;stroke:none"
       transform="matrix(1.3333333,0,0,-1.3333333,163.48307,103.13147)" />
    <path
       id="path3"
       d="M 0,0 V 63.146 H 48.089 V 50.904 H 17.486 V 37.874 H 45.637 V 25.628 H 17.486 V 12.249 H 48.089 V 0 Z"
       style="fill:#ffffff;fill-opacity:1;fill-rule:nonzero;stroke:none"
       transform="matrix(1.3333333,0,0,-1.3333333,240.68613,103.13147)" />
    <path
       id="path4"
       d="M 0,0 V 63.146 H 48.103 V 50.904 H 17.502 V 37.874 H 45.654 V 25.628 H 17.502 V 12.249 H 48.103 V 0 Z"
       style="fill:#ffffff;fill-opacity:1;fill-rule:nonzero;stroke:none"
       transform="matrix(1.3333333,0,0,-1.3333333,317.86333,103.13147)" />
    <path
       id="path5"
       d="m 0,0 c -0.232,-4.459 -0.289,-8.585 -0.618,-13.056 1.764,-0.16 3.756,-0.314 5.638,-0.04 L 4.458,-0.635 4.359,-0.042 C 2.926,-0.098 1.57,-0.155 0,0 m -11.022,12.521 c -2.173,-1.09 -5.371,-2.736 -5.019,-5.718 0.466,-1.627 2.228,-2.679 3.623,-3.349 7.709,-3.395 17.942,-3.512 26.082,-0.976 2.009,0.774 4.706,1.898 5.075,4.359 -0.022,2.034 -2.174,3.315 -3.721,4.093 v 0.096 c 0.539,0.214 1.159,0.405 1.718,0.464 v 0.055 c -2.727,0.488 -5.358,1.201 -7.999,1.9 0.509,-1.159 0.876,-2.381 1.3,-3.585 0.793,0.253 1.607,0.446 2.463,0.562 C 13.893,9.881 15.886,9.105 16.083,7.364 16.238,5.737 14.457,4.943 13.331,4.282 7.362,2.11 0.645,1.898 -5.582,3.55 c -1.719,0.542 -4.202,1.237 -4.415,3.427 1.221,2.883 4.378,3.483 7.015,4.183 -1.355,0.873 -2.733,1.646 -4.047,2.617 -1.418,-0.078 -2.715,-0.699 -3.993,-1.256 M 2.167,29.914 1.395,27.434 -2.481,16.333 c 0.971,-0.099 2.172,0 3.126,-0.099 V 16.143 L 0.078,3.587 0.175,3.454 C 1.415,3.333 2.963,3.271 4.226,3.487 v 0.198 l -0.505,12.178 0.075,0.412 3.411,0.058 C 5.505,20.826 3.856,25.365 2.268,29.914 Z m -1.8,5.577 C 3.218,37.434 5.776,34.719 7.985,33.167 16.527,26.292 24.587,18.422 30.728,9.536 31.503,8.389 31.853,6.608 31.158,5.311 29.565,2.654 27.418,0.23 25.381,-2.23 V -2.365 C 20.303,-7.771 14.94,-13.328 9.145,-17.905 c -2.828,-1.722 -5.424,-5.481 -9.067,-3.153 -8.295,6.062 -16.233,13.599 -22.962,21.682 -1.141,1.776 -2.923,3.232 -3.716,5.248 -1.108,2.729 1.334,4.688 2.732,6.743 6.86,8.462 15.381,16.76 24.235,22.876 m 7.149,8.083 -3.157,4.473 C 3.972,48.284 3.489,48.674 3.062,48.789 2.13,49.192 1.126,48.705 0.367,48.127 l -5.714,-7.441 c -9.164,-11.35 -20.013,-21.95 -31.851,-30.074 -0.935,-0.731 -2.327,-1.445 -2.616,-2.65 -0.311,-1.084 0.254,-1.978 0.926,-2.651 9.478,-6.53 18.541,-14.28 26.607,-23.119 1.432,-1.504 2.593,-3.001 3.993,-4.413 2.359,-3.139 5.131,-6.302 7.3,-9.671 0.679,-0.712 0.797,-1.879 1.86,-2.226 0.832,-0.288 1.86,-0.484 2.654,0 l 0.79,0.793 c 9.808,13.893 22.246,26.37 36.142,36.444 1.392,1.242 4.047,1.705 4.086,4.011 -0.099,1.064 -0.718,2.111 -1.631,2.693 L 42.685,9.86 C 35.533,14.725 28.871,20.226 22.593,26.468 l -6.937,7.246 c -2.811,3.117 -5.542,6.567 -8.14,9.86 m -8.174,-6.375 c 2.788,2.171 6.297,0.368 8.643,-1.627 2.457,-1.879 5.016,-4.006 7.263,-6.182 l 0.408,-0.234 c 6.22,-5.771 11.997,-12.185 16.743,-18.967 0.769,-1.18 1.449,-2.517 1.02,-4.084 -1.584,-3.956 -4.798,-7.11 -7.611,-10.564 -6.083,-6.548 -12.499,-12.884 -19.683,-17.938 -1.454,-1.028 -3.413,-1.977 -5.154,-1.161 -5.288,2.768 -9.747,7.301 -14.374,11.433 -5.368,4.978 -10.755,10.771 -14.824,16.833 -0.604,0.852 -0.774,1.9 -0.757,3.021 0.524,2.094 1.956,3.816 3.313,5.58 4.807,6.125 10.695,11.936 16.641,17.244 0.137,0.136 0.391,0.426 0.606,0.564 2.554,2.207 5.091,4.162 7.766,6.082"
       style="fill:#ffffff;fill-opacity:1;fill-rule:nonzero;stroke:none"
       transform="matrix(1.3333333,0,0,-1.3333333,53.998667,69.481733)"
       clip-path="url(#clipPath6)" />
    <path
       id="path7"
       d="m 0,0 h -0.602 v 0.763 h 0.476 C 0.132,0.763 0.481,0.737 0.481,0.409 0.481,0.062 0.303,0 0,0 m 1.199,0.342 c 0,0.723 -0.478,0.951 -1.296,0.951 h -1.18 v -3.158 h 0.675 v 1.328 h 0.321 l 0.727,-1.328 h 0.805 l -0.814,1.386 c 0.426,0.035 0.762,0.242 0.762,0.821 m -1.313,-2.887 v 0.01 c -1.163,-0.01 -2.101,0.895 -2.101,2.251 0,1.349 0.938,2.247 2.101,2.247 1.136,0 2.104,-0.898 2.104,-2.247 0,-1.356 -0.968,-2.261 -2.104,-2.261 m 0,5.192 c -1.559,0 -2.946,-1.08 -2.946,-2.931 0,-1.856 1.387,-2.94 2.946,-2.94 1.55,0 2.939,1.084 2.939,2.94 0,1.851 -1.389,2.931 -2.939,2.931"
       style="fill:#ffffff;fill-opacity:1;fill-rule:evenodd;stroke:none"
       transform="matrix(1.3333333,0,0,-1.3333333,76.093067,107.01427)"
       clip-path="url(#clipPath8)" />
  </g>
</svg>
