<?xml version="1.0" encoding="UTF-8" standalone="no"?>
<svg
   height="130"
   viewBox="0 0 130 130"
   width="130"
   version="1.1"
   id="svg6"
   xmlns="http://www.w3.org/2000/svg"
   xmlns:svg="http://www.w3.org/2000/svg">
  <defs
     id="defs6" />
  <rect
     style="fill:#ffffff;stroke:none;stroke-width:120"
     id="rect6"
     width="130"
     height="130"
     x="0"
     y="0" />
  <g
     fill="none"
     fill-rule="evenodd"
     id="g6"
     transform="translate(19.1485,50.994)">
    <path
       d="M 0.196,0.582 H 6.355 V 25.629 H 0.196 Z"
       fill="#296cae"
       id="path1" />
    <g
       fill-rule="nonzero"
       id="g5">
      <path
         d="M 10.399,25.629 V 7.008 h 5.633 V 8.74 c 0.725,-0.727 1.543,-1.27 2.454,-1.628 0.912,-0.358 1.936,-0.537 3.071,-0.537 2.029,0 3.538,0.641 4.528,1.923 0.991,1.281 1.486,3.245 1.486,5.889 V 25.629 H 21.937 V 14.664 c 0,-1.258 -0.221,-2.182 -0.665,-2.771 -0.444,-0.589 -1.145,-0.884 -2.105,-0.884 -1.13,0 -1.935,0.275 -2.415,0.823 -0.48,0.549 -0.72,1.493 -0.72,2.832 v 10.965 z m 21.292,0 V 10.871 H 28.829 V 7.458 h 2.862 C 31.655,7.077 31.634,6.8 31.628,6.627 31.621,6.453 31.619,6.298 31.619,6.159 c 0,-1.974 0.481,-3.398 1.443,-4.27 0.962,-0.871 2.538,-1.307 4.728,-1.307 0.48,0 0.971,0.028 1.47,0.086 0.499,0.058 1.019,0.15 1.561,0.277 v 3.898 h -0.942 c -1.039,0 -1.724,0.127 -2.056,0.381 -0.333,0.254 -0.498,0.762 -0.498,1.524 v 0.71 h 3.496 v 3.413 h -3.496 v 14.758 z m 15.016,-9.302 c 0,1.698 0.39,3.046 1.169,4.045 0.779,0.999 1.82,1.498 3.125,1.498 1.304,0 2.348,-0.502 3.133,-1.507 0.785,-1.005 1.177,-2.35 1.177,-4.036 0,-1.698 -0.389,-3.049 -1.168,-4.053 -0.779,-1.005 -1.827,-1.507 -3.142,-1.507 -1.293,0 -2.331,0.508 -3.116,1.524 -0.785,1.016 -1.178,2.362 -1.178,4.036 m 4.294,9.908 c -3.02,0 -5.45,-0.906 -7.292,-2.72 -1.841,-1.812 -2.762,-4.209 -2.762,-7.188 0,-2.968 0.924,-5.364 2.772,-7.189 1.847,-1.824 4.274,-2.736 7.282,-2.736 3.042,0 5.485,0.909 7.326,2.728 1.842,1.819 2.763,4.217 2.763,7.197 0,2.968 -0.927,5.361 -2.781,7.18 -1.853,1.819 -4.29,2.728 -7.308,2.728"
         fill="#296cae"
         id="path2" />
      <path
         d="m 76.028,20.986 c 1.996,0 3.553,-0.689 4.672,-2.069 1.118,-1.38 1.677,-3.306 1.677,-5.777 0,-2.471 -0.562,-4.403 -1.687,-5.794 -1.125,-1.392 -2.678,-2.088 -4.662,-2.088 -1.971,0 -3.522,0.702 -4.652,2.105 -1.131,1.403 -1.696,3.329 -1.696,5.777 0,2.448 0.562,4.368 1.686,5.759 1.125,1.392 2.679,2.087 4.662,2.087 m 6.657,3.69 c -0.931,0.508 -1.958,0.895 -3.082,1.161 -1.124,0.265 -2.315,0.398 -3.572,0.398 -3.856,0 -6.941,-1.189 -9.256,-3.568 -2.314,-2.379 -3.472,-5.555 -3.472,-9.527 0,-2.171 0.353,-4.114 1.061,-5.829 0.707,-1.715 1.761,-3.179 3.163,-4.391 1.124,-0.97 2.396,-1.698 3.816,-2.183 1.42,-0.485 2.981,-0.727 4.685,-0.727 3.843,0 6.925,1.195 9.245,3.586 2.32,2.39 3.48,5.571 3.48,9.544 0,1.663 -0.193,3.167 -0.579,4.512 -0.387,1.346 -0.984,2.561 -1.794,3.646 0.725,0.635 1.516,1.141 2.373,1.516 0.858,0.375 1.776,0.615 2.754,0.719 l -1.884,4.469 c -1.425,-0.139 -2.72,-0.488 -3.885,-1.048 -1.166,-0.561 -2.183,-1.32 -3.053,-2.278"
         fill="#1e8d44"
         id="path3" />
      <path
         d="m 86.38,21.298 c 0.809,-1.085 1.407,-2.301 1.794,-3.646 0.185,-0.643 0.322,-1.325 0.418,-2.041 -2.205,0.111 -4.373,0.218 -6.51,0.32 -0.272,1.18 -0.729,2.179 -1.383,2.986 -1.118,1.38 -2.676,2.069 -4.671,2.069 -1.983,0 -3.537,-0.695 -4.662,-2.087 -0.554,-0.685 -0.969,-1.499 -1.25,-2.44 -2.172,0.086 -4.317,0.165 -6.445,0.236 0.504,2.357 1.53,4.353 3.104,5.972 2.315,2.379 5.4,3.568 9.256,3.568 1.257,0 2.448,-0.133 3.572,-0.399 1.124,-0.265 2.151,-0.652 3.082,-1.16 0.87,0.958 1.887,1.717 3.053,2.278 1.164,0.56 2.46,0.909 3.885,1.048 l 1.883,-4.469 C 90.529,23.429 89.611,23.189 88.753,22.814 87.896,22.439 87.105,21.933 86.38,21.298"
         fill="#198643"
         id="path4" />
      <path
         d="m 54.134,20.363 c -0.785,1.005 -1.829,1.507 -3.133,1.507 -1.305,0 -2.346,-0.499 -3.125,-1.499 -0.658,-0.844 -1.035,-1.94 -1.137,-3.283 -1.92,0.022 -3.84,0.035 -5.76,0.039 0.153,2.609 1.058,4.742 2.73,6.388 1.842,1.814 4.273,2.72 7.292,2.72 3.018,0 5.455,-0.909 7.308,-2.728 1.757,-1.724 2.671,-3.971 2.763,-6.728 -1.938,0.059 -3.864,0.113 -5.779,0.158 -0.085,1.404 -0.471,2.546 -1.159,3.426 m -22.443,5.266 h 5.634 v -8.505 c -1.871,-0.007 -3.747,-0.023 -5.634,-0.049 z m -21.292,0 h 5.633 v -8.992 c -1.857,-0.078 -3.733,-0.164 -5.633,-0.262 z m 11.538,0 h 5.634 v -8.627 c -1.865,-0.04 -3.74,-0.087 -5.634,-0.147 z m -21.741,0 H 6.355 V 16.152 C 4.331,16.033 2.282,15.905 0.196,15.763 Z"
         fill="#2066a9"
         id="path5" />
    </g>
  </g>
</svg>
