<svg xmlns="http://www.w3.org/2000/svg" width="200" height="200"><path d="M0 0h200v200H0z" style="fill:#242424;stroke-width:200;fill-opacity:1"/><path fill="#fff" d="M121.876 106.072c3.517-7.782 7.243-15.67 12.281-22.599a50.6 50.6 0 0 1 8.523-9.36c2.568-2.124 6.986-5.376 10.463-3.645 3.476 1.73 3.162 7.243 2.696 10.462a48.3 48.3 0 0 1-3.582 11.951c-4.378 10.262-11.267 19.468-18.341 28.007a165 165 0 0 1-3.968 4.636 73 73 0 0 1-.805 7.951 48.84 48.84 0 0 1-9.979 23.34c-2.253 2.768-6.23 7.09-10.277 6.285-4.274-.853-4.282-7.058-4.024-10.358a46 46 0 0 1 3.042-12.386 2774 2774 0 0 1 13.971-34.284m-8.853 11.356c-4.321 14.808-13.552 35.966-26.783 44.795-5.996 4.024-14.052 7.082-21.215 4.507-7.96-2.809-10.02-11.686-8.837-19.203 1.304-8.402 5.932-15.701 11.356-22.06a43.6 43.6 0 0 1 10.197-8.152c6.012 3.332 13.352 7.018 19.532 8.974a80 80 0 0 1-14.027-11.606c-4.604-5.36-12.008-15.943-14.31-24.216-2.358-8.49-4.321-17.368-4.088-26.22.217-8.048 2.213-16.499 7.058-23.082 5.014-6.744 13.022-10.462 21.327-8.16 7.88 2.196 13.94 8.643 17.955 15.508a55.2 55.2 0 0 1 7.131 23.693 124.5 124.5 0 0 1-5.296 45.222" style="stroke-width:.804799"/></svg>