<?xml version="1.0" encoding="UTF-8" standalone="no"?>
<svg
   viewBox="0 0 100 100"
   version="1.1"
   id="svg39"
   width="100"
   height="100"
   xmlns="http://www.w3.org/2000/svg"
   xmlns:svg="http://www.w3.org/2000/svg">
  <defs
     id="defs1">
    <style
       id="style1">.cls-1{fill:#fff;}</style>
  </defs>
  <rect
     style="fill:#12181f;fill-opacity:1;stroke:none;stroke-width:3.77953;paint-order:stroke fill markers"
     id="rect39"
     width="100"
     height="99.999992"
     x="0"
     y="0" />
  <g
     id="Ebene_2"
     data-name="Ebene 2"
     transform="matrix(0.80042298,0,0,0.80042298,15.773611,15.75787)"
     style="stroke-width:1.24934">
    <path
       class="cls-1"
       d="m 56.536767,60.634986 3.696709,-3.690689 A 17.749019,17.749019 0 0 1 56.21767,52.934512 L 52.526982,56.6252 a 2.4082794,2.4082794 0 0 1 -2.805646,0.439511 13.992103,13.992103 0 0 0 -2.065099,-0.897084 3.0103492,3.0103492 0 0 1 -2.077141,-2.859831 V 32.235351 a 3.0103492,3.0103492 0 0 1 2.07112,-2.883914 15.051746,15.051746 0 1 0 -18.465482,-7.646287 3.0404527,3.0404527 0 0 1 -0.541863,3.504046 l -3.461901,3.461902 a 3.0103492,3.0103492 0 0 1 -3.479964,0.553904 15.051746,15.051746 0 1 0 6.941865,6.929824 3.0103492,3.0103492 0 0 1 0.553904,-3.485985 l 3.455881,-3.45588 a 3.0103492,3.0103492 0 0 1 3.492005,-0.547884 14.901229,14.901229 0 0 0 1.691817,0.68636 3.0103492,3.0103492 0 0 1 2.07112,2.853811 v 21.072444 a 3.0404527,3.0404527 0 0 1 -2.07112,2.859832 15.081849,15.081849 0 1 0 18.266799,7.279024 2.4082794,2.4082794 0 0 1 0.43349,-2.781562 z M 20.96046,49.322093 h -3.762936 l -5.16576,-8.988902 c 0.07225,1.270367 0.114394,2.215617 0.114394,2.817686 v 6.171216 H 9.2983672 V 36.233095 H 13.0312 l 5.153718,8.886551 c -0.06021,-1.20414 -0.09031,-2.113265 -0.09031,-2.679211 v -6.20734 H 20.96046 Z M 37.788312,11.265259 V 8.5860479 h 9.988339 V 11.265259 H 44.344853 V 21.663005 H 41.214089 V 11.265259 Z m 6.062843,63.217333 a 9.9883386,9.9883386 0 0 0 3.166888,-0.656256 l 0.295014,-0.108373 v 2.727377 l -0.138476,0.06021 a 9.2899376,9.2899376 0 0 1 -3.570274,0.668297 c -1.908562,0 -3.389653,-0.60207 -4.407152,-1.758044 -1.017498,-1.155974 -1.523236,-2.829728 -1.523236,-4.967076 a 8.2182533,8.2182533 0 0 1 0.740546,-3.588336 5.5270011,5.5270011 0 0 1 2.16143,-2.40828 6.3759196,6.3759196 0 0 1 3.27526,-0.824835 8.7661369,8.7661369 0 0 1 3.811102,0.915146 l 0.192663,0.09031 -1.03556,2.606963 -0.216745,-0.102352 a 14.756732,14.756732 0 0 0 -1.408844,-0.60207 4.1362198,4.1362198 0 0 0 -1.342616,-0.240828 2.5166519,2.5166519 0 0 0 -2.167451,1.047602 5.1236143,5.1236143 0 0 0 -0.788712,3.130763 c 0,2.685231 0.969333,3.997743 2.956163,3.997743 z"
       id="path1"
       style="stroke-width:1.24934" />
    <path
       class="cls-1"
       d="M 70.402435,27.671662 A 15.051746,15.051746 0 1 0 85.454181,42.723408 15.051746,15.051746 0 0 0 70.402435,27.671662 Z m 6.622769,16.713459 h -4.973097 v 4.973096 H 68.770826 V 44.385121 H 63.785688 V 41.10384 h 4.973097 v -4.949014 h 3.28128 v 4.973097 h 4.973097 z"
       id="path2"
       style="stroke-width:1.24934" />
  </g>
</svg>
