<?xml version="1.0" encoding="UTF-8" standalone="no"?>
<svg
   width="180"
   height="180"
   version="1.1"
   id="svg1"
   sodipodi:docname="theregister.svg"
   inkscape:version="1.4 (e7c3feb100, 2024-10-09)"
   xmlns:inkscape="http://www.inkscape.org/namespaces/inkscape"
   xmlns:sodipodi="http://sodipodi.sourceforge.net/DTD/sodipodi-0.dtd"
   xmlns="http://www.w3.org/2000/svg"
   xmlns:svg="http://www.w3.org/2000/svg">
  <defs
     id="defs1" />
  <sodipodi:namedview
     id="namedview1"
     pagecolor="#ffffff"
     bordercolor="#666666"
     borderopacity="1.0"
     inkscape:showpageshadow="2"
     inkscape:pageopacity="0.0"
     inkscape:pagecheckerboard="0"
     inkscape:deskcolor="#d1d1d1"
     showgrid="false"
     inkscape:zoom="3.3555556"
     inkscape:cx="86.721854"
     inkscape:cy="119.80132"
     inkscape:window-width="2560"
     inkscape:window-height="1410"
     inkscape:window-x="0"
     inkscape:window-y="0"
     inkscape:window-maximized="0"
     inkscape:current-layer="svg1" />
  <style
     type="text/css"
     id="style1">
svg {background-color:#fff}
#eye {fill:#fff}
#fg {fill:#1d1d1b}
@media (prefers-color-scheme: dark) {
svg {background-color:#353535}
#eye {fill:#1d1d1b}
#fg {fill:#fff}
}</style>
  <rect
     style="fill:#ff0000;stroke-width:200;fill-opacity:1"
     id="rect1"
     width="180"
     height="180"
     x="0"
     y="0" />
  <g
     id="g1"
     transform="matrix(0.73456154,0,0,0.73456154,25.132091,23.860574)"
     style="fill:#ffffff">
    <path
       id="fg"
       d="m 92.59684,21.522323 c -7.411569,0.09519 -14.633362,1.425868 -21.854546,3.990303 -5.605794,2.091355 -10.73826,5.413315 -15.489242,9.689295 -4.655789,4.371172 -8.359523,9.789051 -11.115304,16.344848 -0.950004,2.37501 -1.519734,5.512253 -1.900505,9.313231 -0.379809,3.800016 -0.570404,7.220979 -0.570404,10.355607 0,3.136552 -0.09519,4.751678 0,4.845909 -3.512467,2.408075 -6.933324,4.942793 -10.259698,7.60202 -3.89617,2.946168 -7.699769,6.556647 -11.405554,10.832627 -3.670629,4.2993 -7.0064,8.874977 -9.977021,13.684647 -2.7548194,4.55866 -4.3698147,7.97783 -5.0352021,10.44899 -0.2855781,0.95001 -0.096321,3.70522 0.8556059,8.26581 0.8538499,4.46637 3.1347294,9.59786 6.9357072,15.48924 3.800977,5.8904 9.883063,11.2107 18.149445,16.15303 0.09615,0.0942 0.286503,-0.0947 0.666312,-0.47449 l 0.570404,-0.57041 c -0.09519,-0.0942 -1.140589,-1.13936 -2.945404,-3.32399 -1.805777,-2.0904 -3.611629,-4.84644 -5.22702,-8.17242 -1.711547,-3.32693 -2.375131,-6.9384 -2.185707,-10.54995 0.284616,-5.03464 3.514869,-9.69039 9.691819,-13.96732 6.175988,-4.27599 16.627315,-7.97804 31.450455,-11.0194 4.180787,-1.04423 7.888854,-2.66103 11.024443,-4.94182 3.134629,-2.18558 4.748909,-3.42049 4.939294,-3.7051 -1.140389,11.87697 0.951703,22.61371 6.271919,32.30606 4.561557,8.17118 10.356044,15.58324 17.672423,22.04384 l 68.79425,-68.604949 0.0959,-0.378586 c -3.74193,3.121492 -7.57596,6.131395 -11.49641,9.025505 -5.89137,4.46637 -11.97502,8.64935 -18.15197,12.63975 -6.17599,3.99041 -11.68544,6.74547 -16.53162,8.4551 -4.84617,1.71154 -8.07713,1.42699 -9.78772,-0.94899 -1.61539,-2.85097 -1.70854,-7.12481 -0.1893,-12.73061 1.42597,-5.605787 3.51542,-11.309797 6.17601,-17.296361 2.6606,-5.41637 4.94232,-11.021733 6.84233,-16.627526 1.9,-5.605793 2.84781,-11.308367 2.75358,-17.104545 -0.0952,-5.700986 -1.80428,-11.401751 -5.22449,-17.19793 -3.0404,-4.655789 -7.50722,-8.171698 -13.49283,-10.451516 -5.98656,-2.375009 -12.63839,-3.515092 -20.04995,-3.419899 z m -20.428536,30.973436 0.09591,0.951515 c -0.190385,0.189423 -0.760963,1.709733 -1.807121,4.560707 -1.045197,2.850975 -2.184447,5.704238 -3.230606,8.649443 -1.045195,2.850012 -1.614456,4.559485 -1.708687,4.939294 0.189424,0.285578 0.854461,1.140379 1.993889,2.375 1.140389,1.14039 1.806991,1.995192 1.996414,2.375 0.09519,0.665388 -0.285035,2.375462 -1.140808,4.941818 -0.855774,2.565397 -2.565715,4.464126 -5.131111,5.7949 -3.325976,1.234621 -6.46322,1.519316 -9.313232,0.759697 -2.850973,-0.759618 -5.22584,-1.709106 -7.031616,-2.849495 -1.804816,-1.235582 -2.658394,-1.80699 -2.753587,-1.996414 z"
       style="fill:#ffffff" />
  </g>
</svg>
