<?xml version="1.0" encoding="UTF-8"?>
<svg width="1280" height="164" fill="none" viewBox="0 0 1280 164" xmlns="http://www.w3.org/2000/svg"><g clip-path="url(#clip0_2070_719)" fill="#fff"><path d="m232.82 96.038c0.208 1.0116-0.25 2.0488-1.118 2.5631l-105.35 62.535c-6.129 3.634-13.683 3.634-19.82 0l-105.36-62.544c-0.86718-0.5144-1.3258-1.5516-1.1173-2.5631 0.94223-4.5776 2.1429-9.0523 3.5771-13.424 0.46695-1.4315 2.1012-2.0659 3.377-1.3115l106.51 63.22c1.802 1.071 4.028 1.071 5.829 0l106.5-63.22c1.276-0.7544 2.91-0.1286 3.377 1.3115 1.434 4.3719 2.635 8.8466 3.577 13.424l9e-3 0.0085z"/><path d="m217.92 62.479-82.825 49.162c-3.885 2.306-8.746-0.574-8.746-5.186v-104.06c0-1.4316 1.209-2.5288 2.584-2.3831 4.436 0.47147 8.806 1.2001 13.083 2.1602 1.068 0.24002 1.818 1.2173 1.818 2.3402v81.179l64.572-38.327c1.009-0.6 2.31-0.3429 3.018 0.6172 2.635 3.5832 5.078 7.3122 7.321 11.187 0.667 1.1573 0.301 2.6489-0.825 3.3175v-0.0086z"/><path d="m89.051 4.6529v81.042l-64.58-38.335c-1.0089-0.6001-2.3097-0.3429-3.0185 0.6172-2.6349 3.5832-5.078 7.3121-7.321 11.187-0.6671 1.1572-0.3002 2.6488 0.8255 3.3175l82.833 49.162c3.8853 2.306 8.7473-0.574 8.7473-5.186v-103.9c0-1.4744-1.284-2.5974-2.694-2.3659l-12.824 2.0831c-1.134 0.18002-1.9678 1.1915-1.9678 2.3659v0.00857z"/></g><path d="m347.38 150.39c-12.067 0-22.7-2.629-31.9-7.886-9.08-5.376-16.189-12.783-21.326-22.222-5.018-9.438-7.527-20.311-7.527-32.616 0-9.0801 1.493-17.384 4.48-24.91 3.107-7.6464 7.348-14.277 12.724-19.893 5.496-5.6153 11.888-9.9761 19.176-13.082 7.407-3.1063 15.472-4.6595 24.194-4.6595 4.898 0 10.394 0.5974 16.487 1.7921 6.093 1.0753 12.127 3.3453 18.101 6.8101l0.716 25.986h-11.111l-3.584-20.789c-3.226-1.7921-6.392-3.0466-9.498-3.7634-2.987-0.7169-5.914-1.0753-8.782-1.0753-8.004 0-15.292 2.0311-21.863 6.0932-6.572 4.0622-11.828 10.096-15.771 18.1-3.823 7.8853-5.735 17.682-5.735 29.391 0 11.708 1.792 21.566 5.376 29.57 3.585 8.005 8.543 14.039 14.875 18.101 6.452 4.062 13.74 6.093 21.864 6.093 3.465 0 6.989-0.358 10.573-1.075 3.704-0.836 7.288-2.091 10.753-3.764l3.584-20.788h11.112l-0.717 25.986c-5.496 2.986-11.35 5.137-17.563 6.451-6.093 1.434-12.306 2.151-18.638 2.151z" fill="#fff"/><path d="m436.78 150.03c-6.93 0-13.561-1.613-19.893-4.838-6.213-3.346-11.29-8.304-15.233-14.875-3.943-6.691-5.914-14.934-5.914-24.731 0-9.9167 1.971-18.22 5.914-24.911 3.943-6.8101 9.02-11.888 15.233-15.233 6.332-3.4648 12.963-5.1972 19.893-5.1972 6.929 0 13.5 1.7324 19.713 5.1972 6.332 3.3453 11.47 8.4229 15.412 15.233 4.062 6.6906 6.093 14.994 6.093 24.911 0 9.797-2.031 18.04-6.093 24.731-3.942 6.571-9.08 11.529-15.412 14.875-6.213 3.225-12.784 4.838-19.713 4.838zm0-8.064c7.765 0 13.739-3.047 17.921-9.14 4.181-6.213 6.272-15.293 6.272-27.24 0-12.067-2.091-21.267-6.272-27.599-4.182-6.3322-10.156-9.4982-17.921-9.4982-7.766 0-13.74 3.166-17.922 9.4982-4.062 6.3322-6.093 15.532-6.093 27.599 0 11.947 2.031 21.027 6.093 27.24 4.182 6.093 10.156 9.14 17.922 9.14z" fill="#fff"/><path d="m506.65 105.59c0 11.708 2.329 20.37 6.989 25.985 4.779 5.496 10.753 8.244 17.921 8.244 3.943 0 7.407-0.776 10.394-2.33 3.107-1.672 6.333-4.36 9.678-8.064v-49.642c-4.062-3.5842-7.706-6.0334-10.932-7.3477-3.226-1.3142-6.332-1.9713-9.319-1.9713-4.421 0-8.543 1.2545-12.366 3.7635-3.704 2.3895-6.69 6.2126-8.96 11.47-2.27 5.1375-3.405 11.768-3.405 19.893zm46.774 43.907-1.255-12.366c-3.106 4.062-6.69 7.228-10.752 9.498-3.943 2.27-8.722 3.405-14.337 3.405-7.288 0-13.68-1.852-19.176-5.555-5.496-3.704-9.797-8.841-12.903-15.413-2.987-6.69-4.481-14.396-4.481-23.118 0-9.1994 1.673-17.204 5.018-24.014 3.346-6.8101 7.886-12.127 13.621-15.95 5.734-3.8232 12.246-5.7348 19.534-5.7348 4.181 0 8.184 0.8363 12.007 2.509 3.943 1.6726 7.766 4.7192 11.469 9.1398v-40.502l-15.233-1.7921v-6.2724l27.958-8.0646 2.508 1.4337-0.716 25.448v96.953l14.516 2.151v6.452l-27.778 1.792z" fill="#fff"/><path d="m628.76 68.493c-3.346 0-6.751 0.9558-10.215 2.8674-3.346 1.9116-6.273 4.9582-8.782 9.1398-2.389 4.1816-3.942 9.7372-4.659 16.667h32.616c4.301 0 7.109-0.896 8.423-2.6882 1.434-1.7921 2.151-4.0024 2.151-6.6308 0-3.4648-0.896-6.6309-2.688-9.4983-1.673-2.9868-4.003-5.3763-6.99-7.1684-2.867-1.7922-6.153-2.6882-9.856-2.6882zm-0.18 81.541c-12.066 0-21.744-3.883-29.032-11.648-7.288-7.886-10.932-18.698-10.932-32.438 0-9.1994 1.852-17.204 5.556-24.014 3.823-6.8101 8.841-12.127 15.054-15.95 6.332-3.8232 13.202-5.7348 20.609-5.7348 6.213 0 11.828 1.374 16.846 4.1219s9.02 6.6906 12.007 11.828c2.987 5.0179 4.48 11.171 4.48 18.459 0 2.031-0.119 3.9426-0.358 5.7352-0.239 1.672-0.538 3.106-0.896 4.301h-57.169c0.239 10.991 2.987 19.355 8.244 25.089 5.257 5.735 12.186 8.603 20.789 8.603 5.734 0 10.513-1.135 14.337-3.405 3.823-2.39 7.347-5.437 10.573-9.14l4.301 3.405c-3.345 6.332-7.885 11.41-13.62 15.233-5.735 3.703-12.664 5.555-20.789 5.555z" fill="#fff"/><path d="m737.5 150.39c-12.066 0-22.7-2.629-31.899-7.886-9.08-5.376-16.189-12.783-21.327-22.222-5.017-9.438-7.526-20.311-7.526-32.616 0-9.0801 1.493-17.384 4.48-24.91 3.106-7.6464 7.348-14.277 12.724-19.893 5.496-5.6153 11.888-9.9761 19.176-13.082 7.407-3.1063 15.472-4.6595 24.193-4.6595 4.899 0 10.395 0.5974 16.488 1.7921 6.093 1.0753 12.127 3.3453 18.1 6.8101l0.717 25.986h-11.111l-3.584-20.789c-3.226-1.7921-6.392-3.0466-9.499-3.7634-2.986-0.7169-5.914-1.0753-8.781-1.0753-8.005 0-15.293 2.0311-21.864 6.0932-6.571 4.0622-11.828 10.096-15.771 18.1-3.823 7.8853-5.734 17.682-5.734 29.391 0 11.708 1.792 21.566 5.376 29.57 3.584 8.005 8.543 14.039 14.875 18.101 6.451 4.062 13.739 6.093 21.864 6.093 3.464 0 6.989-0.358 10.573-1.075 3.704-0.836 7.288-2.091 10.753-3.764l3.584-20.788h11.111l-0.717 25.986c-5.495 2.986-11.35 5.137-17.562 6.451-6.094 1.434-12.306 2.151-18.639 2.151z" fill="#fff"/><path d="m785.32 147.7v-6.452l12.903-2.33c0.12-4.54 0.179-9.438 0.179-14.695 0.12-5.377 0.18-10.096 0.18-14.158v-8.602c0-4.8986-0.06-8.9608-0.18-12.187 0-3.2258-0.119-6.6309-0.358-10.215l-14.158-1.6129v-6.2724l25.09-10.932 2.688 1.7921 1.972 21.147c2.986-7.1685 6.81-12.784 11.469-16.846 4.779-4.0621 9.558-6.0932 14.337-6.0932 2.748 0 5.317 0.5974 7.706 1.7921 2.39 1.1948 4.122 2.8077 5.197 4.8388 0 8.7216-3.524 13.082-10.573 13.082-2.031 0-3.943-0.3584-5.735-1.0752-1.792-0.8363-3.524-1.9714-5.197-3.4051l-2.151-1.9713c-3.584 2.6284-6.571 5.8543-8.96 9.6775-2.39 3.8232-4.361 8.3035-5.914 13.441v13.441 13.799c0.119 5.257 0.239 10.156 0.358 14.696l14.696 2.688v6.452h-43.549z" fill="#fff"/><path d="m922.62 149.5c-4.301 0-7.885-1.255-10.753-3.764-2.867-2.509-4.659-5.854-5.376-10.036-4.898 4.779-9.2 8.364-12.903 10.753-3.704 2.39-8.184 3.584-13.441 3.584-6.571 0-12.246-1.852-17.025-5.555-4.66-3.823-6.99-9.439-6.99-16.846 0-3.465 0.777-6.691 2.33-9.678 1.673-2.987 4.66-5.914 8.961-8.781s10.454-5.735 18.459-8.602c2.748-0.956 5.914-1.9716 9.498-3.0469 3.584-1.0752 7.168-2.031 10.753-2.8673v-4.4804c0-8.7216-1.315-14.516-3.943-17.384s-6.93-4.3011-12.903-4.3011c-1.315 0-2.808 0.0597-4.481 0.1792-1.553 0.1195-3.285 0.4181-5.197 0.896l-3.405 11.649c-1.672 5.7348-4.779 8.6022-9.319 8.6022-5.018 0-7.825-2.4492-8.423-7.3477 1.673-6.81 5.616-12.186 11.828-16.129 6.332-4.0621 14.038-6.0932 23.119-6.0932 9.438 0 16.427 2.3895 20.967 7.1685 4.54 4.6595 6.81 12.664 6.81 24.014v38.172c0 3.823 0.598 6.571 1.793 8.244 1.194 1.553 2.747 2.33 4.659 2.33 1.553 0 2.868-0.359 3.943-1.076 1.075-0.716 2.091-1.672 3.046-2.867l3.585 3.943c-2.151 3.464-4.54 5.914-7.169 7.347-2.509 1.315-5.316 1.972-8.423 1.972zm-50.538-24.552c0 4.779 1.374 8.184 4.122 10.215s6.153 3.046 10.215 3.046c1.792 0 3.465-0.239 5.018-0.717 1.673-0.477 3.644-1.373 5.914-2.688 2.27-1.433 5.197-3.464 8.782-6.093v-27.419c-3.107 0.836-6.153 1.792-9.14 2.867-2.987 0.956-5.436 1.792-7.348 2.509-5.137 2.031-8.961 4.122-11.469 6.272-2.509 2.151-4.182 4.242-5.018 6.273-0.717 2.031-1.076 3.943-1.076 5.735z" fill="#fff"/><path d="m942.12 147.7v-6.452l14.157-2.509c0.12-4.779 0.179-9.558 0.179-14.337 0.12-4.779 0.18-9.558 0.18-14.337v-37.993h-14.875v-7.8853l15.233-1.9714c0.836-9.558 2.151-17.264 3.943-23.118 1.911-5.9738 5.077-11.171 9.498-15.592 3.823-3.8232 7.826-6.4516 12.007-7.8854 4.182-1.4336 8.304-2.1505 12.366-2.1505 4.182 0 7.887 0.7766 11.107 2.3298 3.23 1.4337 5.26 3.8829 6.1 7.3477-0.12 2.27-1.14 4.1816-3.05 5.7348-1.91 1.5531-4.54 2.3297-7.88 2.3297-4.306 0-8.607-1.7921-12.908-5.3763l-5.018-3.9427c-0.478 0.3584-0.956 0.7168-1.434 1.0753-0.358 0.3584-0.716 0.7168-1.075 1.0752-3.106 3.1064-5.496 7.8256-7.168 14.158-1.553 6.2127-2.211 14.337-1.972 24.373h38.885l4.84-24.373h10.58l-0.9 24.373h24.01v9.4982h-24.37v55.556c0 4.54 0.9 7.885 2.69 10.036 1.79 2.031 4.18 3.046 7.17 3.046 2.03 0 4-0.418 5.91-1.254 1.91-0.837 4.01-2.031 6.28-3.584l4.12 4.659c-4.66 6.332-11.71 9.498-21.15 9.498-6.21 0-11.17-1.672-14.87-5.018-3.71-3.345-5.56-8.482-5.56-15.412v-6.631c0.12-2.27 0.18-5.137 0.18-8.602v-42.294h-37.456v37.993 14.337c0.119 4.66 0.239 9.379 0.358 14.158l16.129 2.688v6.452h-46.236z" fill="#fff"/><path d="m1099.2 68.493c-3.34 0-6.75 0.9558-10.21 2.8674-3.35 1.9116-6.27 4.9582-8.78 9.1398-2.39 4.1816-3.95 9.7372-4.66 16.667h32.61c4.31 0 7.11-0.896 8.43-2.6882 1.43-1.7921 2.15-4.0024 2.15-6.6308 0-3.4648-0.9-6.6309-2.69-9.4983-1.67-2.9868-4-5.3763-6.99-7.1684-2.87-1.7922-6.15-2.6882-9.86-2.6882zm-0.18 81.541c-12.06 0-21.74-3.883-29.03-11.648-7.29-7.886-10.93-18.698-10.93-32.438 0-9.1994 1.85-17.204 5.56-24.014 3.82-6.8101 8.84-12.127 15.05-15.95 6.33-3.8232 13.2-5.7348 20.61-5.7348 6.21 0 11.83 1.374 16.84 4.1219 5.02 2.7479 9.03 6.6906 12.01 11.828 2.99 5.0179 4.48 11.171 4.48 18.459 0 2.031-0.12 3.9426-0.36 5.7352-0.23 1.672-0.53 3.106-0.89 4.301h-57.17c0.24 10.991 2.99 19.355 8.24 25.089 5.26 5.735 12.19 8.603 20.79 8.603 5.74 0 10.52-1.135 14.34-3.405 3.82-2.39 7.35-5.437 10.57-9.14l4.3 3.405c-3.34 6.332-7.88 11.41-13.62 15.233-5.73 3.703-12.66 5.555-20.79 5.555z" fill="#fff"/><path d="m1146.3 147.7v-6.452l12.91-2.33c0.12-4.54 0.18-9.438 0.18-14.695 0.12-5.377 0.18-10.096 0.18-14.158v-8.602c0-4.8986-0.06-8.9608-0.18-12.187 0-3.2258-0.12-6.6309-0.36-10.215l-14.16-1.6129v-6.2724l25.09-10.932 2.69 1.7921 1.97 21.147c2.99-7.1685 6.81-12.784 11.47-16.846 4.78-4.0621 9.56-6.0932 14.34-6.0932 2.74 0 5.31 0.5974 7.7 1.7921 2.39 1.1948 4.12 2.8077 5.2 4.8388 0 8.7216-3.52 13.082-10.57 13.082-2.03 0-3.95-0.3584-5.74-1.0752-1.79-0.8363-3.52-1.9714-5.2-3.4051l-2.15-1.9713c-3.58 2.6284-6.57 5.8543-8.96 9.6775s-4.36 8.3035-5.91 13.441v13.441 13.799c0.12 5.257 0.24 10.156 0.36 14.696l14.69 2.688v6.452h-43.55z" fill="#fff"/><path d="m1245.1 150.03c-5.02 0-9.62-0.597-13.8-1.792-4.18-1.075-8.49-2.748-12.91-5.018l-0.71-19.713h9.85l3.41 15.591c4.18 1.912 9.02 2.868 14.51 2.868 6.81 0 11.83-1.255 15.06-3.764 3.34-2.509 5.02-5.794 5.02-9.856 0-3.824-1.38-6.87-4.13-9.14-2.74-2.39-6.93-4.54-12.54-6.452l-8.24-3.046c-6.58-2.39-11.83-5.496-15.77-9.319-3.95-3.8237-5.92-8.7819-5.92-14.875 0-4.4205 1.2-8.5424 3.59-12.366 2.38-3.8232 5.91-6.9296 10.57-9.3191s10.33-3.5842 17.02-3.5842c4.9 0 9.32 0.6571 13.27 1.9713 4.06 1.1948 8 2.9869 11.82 5.3764l-0.71 18.28h-9.32l-2.87-14.337c-4.06-2.0311-8.18-3.0466-12.37-3.0466-5.49 0-9.67 1.135-12.54 3.405-2.75 2.1505-4.12 5.0777-4.12 8.7814 0 3.9427 1.19 6.9295 3.58 8.9606 2.51 2.0311 6.81 4.1816 12.91 6.4516l5.55 1.9714c8.96 3.3452 15.29 7.1682 19 11.469 3.82 4.301 5.73 9.26 5.73 14.875 0 4.54-1.31 8.781-3.94 12.724-2.63 3.823-6.51 6.93-11.65 9.319-5.14 2.39-11.59 3.584-19.35 3.584z" fill="#fff"/><defs><clipPath id="clip0_2070_719"><rect transform="translate(.0019531)" width="232.86" height="163.87" fill="#fff"/></clipPath></defs></svg>
