<?xml version="1.0" encoding="UTF-8"?>
<svg width="3500" height="800" version="1.1" viewBox="0 0 3500 800" xmlns="http://www.w3.org/2000/svg"><rect x="45.362" y="90.214" width="619.13" height="619.13" rx="309.56" fill="none" stroke="#fff" stroke-width="36.428"/><g fill="#fff" opacity=".99"><path d="m295.56 550.85c-2.012 0-3.467-1.922-2.922-3.858l83.361-296.1c0.368-1.309 1.562-2.213 2.922-2.213h36.223c2.013 0 3.469 1.924 2.921 3.861l-83.694 296.1c-0.369 1.307-1.563 2.21-2.921 2.21z"/><path d="m236.96 476.22c-0.812 0-1.59-0.325-2.161-0.903l-72.882-73.863c-1.168-1.184-1.166-3.088 5e-3 -4.269l72.878-73.532c0.57-0.575 1.347-0.899 2.156-0.899h46.532c2.704 0 4.058 3.27 2.146 5.182l-69.239 69.239c-1.183 1.184-1.186 3.102-5e-3 4.288l69.272 69.58c1.906 1.914 0.55 5.177-2.151 5.177z"/><path d="m426.94 476.22c-2.698 0-4.055-3.256-2.156-5.173l68.973-69.588c1.175-1.186 1.173-3.097-5e-3 -4.279l-68.94-69.249c-1.906-1.914-0.55-5.177 2.151-5.177h46.218c0.807 0 1.581 0.322 2.151 0.894l73.205 73.532c1.178 1.182 1.18 3.093 5e-3 4.279l-73.209 73.862c-0.57 0.576-1.346 0.899-2.156 0.899z"/></g><path d="m923.42 262.11c32.103 0 58.313 7.901 78.624 23.702 20.32 15.8 33.11 38.123 38.38 66.965h-56.058c-3.26-14.045-10.032-24.955-20.315-32.73-10.283-8.026-23.952-12.039-41.007-12.039-15.801 0-29.47 3.762-41.007 11.286-11.286 7.273-19.939 17.682-25.959 31.226-5.768 13.543-8.652 29.595-8.652 48.155 0 18.559 2.884 34.611 8.652 48.154 6.02 13.293 14.673 23.576 25.959 30.85 11.537 7.273 25.206 10.91 41.007 10.91 17.055 0 30.724-3.637 41.007-10.91 10.534-7.274 17.431-17.557 20.691-30.85h55.682c-5.02 27.338-17.81 48.782-38.38 64.332-20.311 15.55-46.521 23.325-78.624 23.325-26.335 0-49.158-5.643-68.47-16.929-19.061-11.537-33.733-27.464-44.016-47.779-10.283-20.566-15.425-44.267-15.425-71.103s5.142-50.538 15.425-71.104c10.534-20.566 25.331-36.618 44.392-48.155 19.062-11.537 41.759-17.306 68.094-17.306zm235.39 76.747c18.06 0 34.36 4.139 48.91 12.415 14.55 8.277 25.96 19.814 34.23 34.612 8.53 14.546 12.8 31.476 12.8 50.788s-4.27 36.367-12.8 51.164c-8.52 14.547-20.06 25.959-34.61 34.235-14.29 8.277-30.47 12.415-48.53 12.415s-34.36-4.138-48.91-12.415c-14.54-8.276-26.08-19.813-34.61-34.611-8.27-14.798-12.41-31.727-12.41-50.788 0-19.312 4.26-36.242 12.79-50.788 8.53-14.798 20.06-26.335 34.61-34.612 14.55-8.276 30.72-12.415 48.53-12.415zm317.74 191.12h-42.89l-2.63-32.731h-1.51c-4.76 7.775-10.53 14.422-17.31 19.94-6.77 5.517-14.42 9.781-22.94 12.791-8.53 3.009-18.06 4.514-28.6 4.514-17.55 0-32.85-4.138-45.89-12.415-13.05-8.527-23.2-20.19-30.48-34.987-7.27-14.797-10.91-31.602-10.91-50.412 0-18.811 3.64-35.615 10.91-50.412 7.28-14.798 17.56-26.335 30.85-34.612 13.29-8.527 29.1-12.79 47.4-12.791 14.55 0 27.09 2.884 37.63 8.653 10.78 5.518 19.31 12.164 25.58 19.939v-100.82h50.79zm123.9-191.12c18.81 1e-3 35.24 4.013 49.29 12.039 14.04 8.025 25.08 19.061 33.1 33.106 8.03 13.794 12.04 29.47 12.04 47.026 0 2.508-0.13 5.393-0.38 8.654 0 3.009-0.12 6.145-0.37 9.405h-140.87c0.61 7.933 2.55 14.955 5.81 21.067 4.01 7.274 9.53 12.917 16.55 16.93 7.28 4.013 15.43 6.019 24.46 6.019 9.27 0 17.05-2.006 23.32-6.019 6.27-4.264 11.04-9.657 14.3-16.178h51.54c-3.51 11.788-9.41 22.573-17.68 32.355-8.28 9.53-18.44 17.179-30.48 22.948-12.04 5.518-25.58 8.277-40.63 8.277-19.06 0-35.99-4.013-50.79-12.039-14.54-8.025-25.95-19.312-34.23-33.858-8.28-14.547-12.42-31.226-12.42-50.036 0-19.563 4.02-36.744 12.04-51.541 8.28-15.049 19.69-26.836 34.24-35.364 14.79-8.527 31.85-12.791 51.16-12.791zm242.92-76.747c32.1 0 58.31 7.901 78.62 23.702 20.32 15.8 33.11 38.123 38.38 66.965h-56.06c-3.26-14.045-10.03-24.955-20.31-32.73-10.29-8.026-23.96-12.039-41.01-12.039-15.8 0-29.47 3.762-41.01 11.286-11.28 7.273-19.94 17.682-25.96 31.226-5.76 13.543-8.65 29.595-8.65 48.155 0 18.559 2.89 34.611 8.65 48.154 6.02 13.293 14.68 23.576 25.96 30.85 11.54 7.273 25.21 10.91 41.01 10.91 17.05 0 30.72-3.637 41.01-10.91 10.53-7.274 17.43-17.557 20.69-30.85h55.68c-5.02 27.338-17.81 48.782-38.38 64.332-20.31 15.55-46.52 23.325-78.62 23.325-26.34 0-49.16-5.643-68.47-16.929-19.07-11.537-33.74-27.463-44.02-47.779-10.28-20.566-15.43-44.267-15.43-71.103s5.15-50.538 15.43-71.104c10.53-20.566 25.33-36.618 44.39-48.155s41.76-17.306 68.1-17.306zm368.33 76.747c18.06 0 33.61 3.01 46.65 9.029 13.05 5.768 23.08 14.422 30.1 25.959 7.02 11.286 10.53 25.08 10.53 41.383v114.74h-42.13l-5.27-28.968h-1.5c-4.02 5.518-8.4 10.408-13.17 14.672-4.51 4.263-9.53 7.774-15.05 10.533s-11.41 4.766-17.68 6.02c-6.27 1.504-12.79 2.257-19.56 2.257-14.8 0-27.09-2.508-36.87-7.524-9.53-5.016-16.55-11.788-21.07-20.315-4.51-8.528-6.77-17.933-6.77-28.216 0-11.537 2.88-21.695 8.65-30.473 6.02-8.778 15.05-15.55 27.09-20.315 12.04-5.017 27.21-7.525 45.52-7.525h47.03c0-9.279-1.38-16.929-4.14-22.948-2.51-6.019-6.52-10.534-12.04-13.544-5.27-3.009-12.04-4.515-20.32-4.515-9.78 0-18.18 2.258-25.2 6.773-6.77 4.263-11.04 11.035-12.79 20.314h-49.29c1.51-13.794 6.02-25.707 13.55-35.739 7.77-10.032 17.93-17.807 30.47-23.325 12.79-5.518 27.21-8.277 43.26-8.277zm461.9 0c18.81 0 35.24 4.013 49.29 12.039 14.04 8.025 25.08 19.061 33.1 33.106 8.03 13.794 12.04 29.47 12.04 47.026 0 2.508-0.12 5.393-0.37 8.654 0 3.009-0.13 6.145-0.38 9.405h-140.87c0.61 7.933 2.55 14.955 5.81 21.067 4.01 7.274 9.53 12.917 16.55 16.93 7.28 4.013 15.43 6.019 24.46 6.019 9.28 0 17.05-2.006 23.32-6.019 6.27-4.264 11.04-9.657 14.3-16.178h51.54c-3.51 11.788-9.41 22.573-17.68 32.355-8.28 9.53-18.44 17.18-30.48 22.948-12.03 5.518-25.58 8.277-40.63 8.277-19.06 0-35.99-4.013-50.78-12.039-14.55-8.025-25.96-19.311-34.24-33.858s-12.41-31.226-12.41-50.036c0-19.563 4.01-36.744 12.03-51.541 8.28-15.049 19.69-26.836 34.24-35.364 14.8-8.527 31.85-12.791 51.16-12.791zm325.07 0c22.57 0 40.51 5.142 53.8 15.425 13.54 10.283 21.44 24.453 23.7 42.511h-47.78c-1.25-6.27-4.51-11.161-9.78-14.672-5.01-3.511-11.66-5.266-19.94-5.266-8.78 0-15.55 1.755-20.31 5.266-4.52 3.261-6.78 7.274-6.78 12.039 0.01 3.511 1.51 6.521 4.52 9.029 3.01 2.258 7.4 4.39 13.17 6.396 6.02 1.756 13.16 3.761 21.44 6.019 13.29 3.511 25.46 7.274 36.49 11.287 11.04 4.013 19.82 9.53 26.34 16.552 6.52 6.772 9.78 16.428 9.78 28.968 0.25 12.039-2.88 22.699-9.41 31.979-6.52 9.279-15.67 16.678-27.46 22.196-11.79 5.267-25.96 7.9-42.51 7.9s-31.23-2.759-44.02-8.277c-12.54-5.518-22.7-13.042-30.47-22.572-7.52-9.782-11.91-20.817-13.17-33.107h50.79c1 4.515 3.01 8.778 6.02 12.791s7.02 7.274 12.04 9.782c5.26 2.257 11.28 3.386 18.06 3.386 7.02 0 12.66-0.878 16.93-2.634 4.26-2.006 7.4-4.514 9.4-7.524 2.26-3.01 3.39-6.27 3.39-9.781 0-4.765-1.63-8.402-4.89-10.91-3.01-2.759-7.53-5.141-13.55-7.148-5.77-2.006-12.66-4.138-20.69-6.395-8.28-2.258-16.68-4.641-25.2-7.149-8.28-2.508-15.93-5.643-22.95-9.405-7.03-4.013-12.67-9.03-16.93-15.049-4.02-6.27-6.02-14.044-6.02-23.324 0-10.785 3.01-20.567 9.03-29.345s14.67-15.8 25.96-21.067c11.53-5.267 25.2-7.901 41-7.901zm378.82 0c18.06 0 34.36 4.139 48.91 12.415 14.55 8.277 25.96 19.814 34.23 34.612 8.53 14.546 12.79 31.476 12.79 50.788s-4.26 36.367-12.79 51.164c-8.52 14.547-20.06 25.959-34.61 34.235-14.29 8.277-30.47 12.415-48.53 12.415s-34.36-4.138-48.91-12.415c-14.54-8.276-26.08-19.813-34.61-34.611-8.27-14.798-12.41-31.727-12.41-50.788 0-19.312 4.26-36.242 12.79-50.788 8.53-14.798 20.06-26.335 34.61-34.612 14.55-8.276 30.72-12.415 48.53-12.415zm-242.44 134.68c9.03 0 16.43 2.885 22.2 8.653 5.77 5.518 8.65 12.415 8.65 20.692 0 8.025-2.88 14.923-8.65 20.691-5.77 5.518-13.17 8.277-22.2 8.277-9.28 0-16.8-2.759-22.57-8.277-5.77-5.768-8.65-12.666-8.65-20.691 0-8.277 2.88-15.174 8.65-20.692 5.77-5.768 13.29-8.653 22.57-8.653zm-1028.4-80.885h-13.92c-8.53 0-16.18 1.004-22.95 3.01-6.52 1.756-12.04 4.765-16.55 9.028-4.52 4.013-8.03 9.406-10.54 16.178-2.25 6.772-3.38 14.923-3.38 24.453v84.648h-50.79v-186.6h43.26l4.52 41.007h1.5c5.52-13.293 11.54-23.075 18.06-29.345 6.52-6.521 13.92-10.784 22.2-12.791 8.53-2.257 18.06-3.386 28.59-3.386zm320.68-83.894h-12.79c-8.03 0-13.8 1.63-17.31 4.89-3.51 3.261-5.27 8.778-5.27 16.553v13.168h39.51v40.63h-39.51v145.97h-50.78v-145.97h-25.21v-40.63h25.21v-12.415c0-15.801 2.63-28.341 7.9-37.621 5.51-9.28 13.16-16.052 22.94-20.315 9.79-4.264 21.32-6.396 34.62-6.396h20.69zm92.6 34.611h49.66v40.63h-49.66v80.133c0 9.029 1.88 15.299 5.64 18.81 3.77 3.261 10.16 4.891 19.19 4.891h23.7v42.136h-33.1c-13.3 0-24.96-2.007-34.99-6.02-9.78-4.264-17.43-11.161-22.95-20.691-5.52-9.782-8.28-23.074-8.28-39.878v-79.381h-31.97v-40.63h31.97l5.65-50.789h45.14zm388.74 49.283h-13.92c-8.53 0-16.18 1.004-22.95 3.01-6.52 1.756-12.04 4.765-16.55 9.028-4.52 4.013-8.03 9.406-10.54 16.178-2.26 6.772-3.38 14.923-3.38 24.453v84.648h-50.79v-186.6h43.26l4.52 41.007h1.5c5.52-13.293 11.54-23.075 18.06-29.345 6.52-6.521 13.92-10.784 22.2-12.791 8.52-2.257 18.05-3.386 28.59-3.386zm342.44 137.32h-50.79v-186.6h50.79zm-1044.2-78.628c-7.77 0-14.17 1.003-19.18 3.01-4.77 1.755-8.28 4.389-10.54 7.9-2.25 3.26-3.38 7.148-3.38 11.662 0 4.515 1.13 8.403 3.38 11.663 2.26 3.26 5.52 5.768 9.78 7.524 4.27 1.504 9.03 2.257 14.3 2.257 7.02 0 13.04-1.128 18.06-3.385 5.26-2.508 9.78-5.769 13.54-9.782 3.76-4.012 6.65-8.653 8.65-13.92 2.26-5.517 3.77-11.161 4.52-16.929zm-831.46-71.104c-10.04 0-18.94 2.383-26.71 7.149-7.53 4.765-13.42 11.411-17.69 19.938-4.01 8.277-6.02 17.933-6.02 28.969 0 11.286 2.01 21.192 6.02 29.72 4.27 8.276 10.16 14.798 17.69 19.563 7.77 4.765 16.8 7.148 27.08 7.148 10.29 0 19.19-2.383 26.71-7.148 7.78-4.765 13.67-11.287 17.69-19.563 4.26-8.528 6.39-18.434 6.39-29.72 0-11.036-2.13-20.692-6.39-28.969-4.02-8.527-9.91-15.173-17.69-19.938-7.77-4.766-16.8-7.149-27.08-7.149zm-216.16 1.505c-8.03 0-15.43 2.007-22.2 6.02s-12.16 10.157-16.18 18.433c-4.01 8.026-6.02 18.184-6.02 30.474 0 12.289 2.01 22.572 6.02 30.849 4.02 8.025 9.28 14.045 15.81 18.058 6.77 4.013 14.04 6.02 21.82 6.02 8.27 0 15.67-2.007 22.19-6.02 6.77-4.013 12.17-10.033 16.18-18.058 4.01-8.277 6.02-18.56 6.02-30.849 0-12.29-2.01-22.448-6.02-30.474-4.01-8.276-9.41-14.42-16.18-18.433-6.52-4.013-13.67-6.02-21.44-6.02zm2218.7 0c-8.03 0-15.43 2.007-22.2 6.02s-12.16 10.157-16.18 18.433c-4.01 8.026-6.02 18.184-6.02 30.474 0 12.289 2.01 22.572 6.02 30.849 4.02 8.025 9.28 14.045 15.8 18.058 6.78 4.013 14.05 6.02 21.83 6.02 8.27 0 15.67-2.007 22.19-6.02 6.77-4.013 12.17-10.033 16.18-18.058 4.01-8.277 6.02-18.56 6.02-30.849 0-12.29-2.01-22.448-6.02-30.474-4.01-8.276-9.41-14.42-16.18-18.433-6.52-4.013-13.67-6.02-21.44-6.02zm-1777-2.634c-8.78 0-16.81 2.007-24.08 6.02-7.27 3.762-13.04 9.656-17.3 17.682-2.39 4.349-4.11 9.365-5.16 15.048h89.05c-0.75-11.788-5.14-21.193-13.17-28.215-7.77-7.023-17.55-10.535-29.34-10.535zm1073.2 0c-8.78 0-16.8 2.007-24.08 6.02-7.27 3.762-13.04 9.656-17.3 17.682-2.39 4.349-4.11 9.365-5.16 15.048h89.05c-0.75-11.787-5.14-21.193-13.17-28.215-7.77-7.023-17.55-10.535-29.34-10.535zm551.87-117c9.28 0 16.81 2.759 22.57 8.277 5.77 5.517 8.66 12.415 8.66 20.691 0 8.026-2.89 14.798-8.66 20.316-5.76 5.517-13.29 8.277-22.57 8.277s-16.93-2.634-22.95-7.9c-5.77-5.518-8.65-12.416-8.65-20.693 0-8.276 2.88-15.174 8.65-20.691 6.02-5.518 13.67-8.277 22.95-8.277z" fill="#fff"/></svg>
