<?xml version="1.0" encoding="UTF-8"?>
<svg width="936" height="268" viewBox="0 0 936 268" xmlns="http://www.w3.org/2000/svg"><path d="m601.36 11.88c1.05 0 2.09 0 3.17 0.01h3.58c1.28 0 2.57 0.01 3.89 0.01 0.66 0 0.66 0 3.97 0.01 3.48 0 6.97 0.01 10.45 0.02 3.55 0.01 7.1 0.02 10.66 0.02 6.97 0.01 13.95 0.03 20.92 0.05 4.04 13.17 8.08 26.33 12.12 39.5 0.16 0.49 0.16 0.49 0.92 2.99 6.79 22.12 13.58 44.24 20.33 66.37 0.25 0.81 0.5 1.62 0.76 2.45 2.33 7.63 4.65 15.26 6.98 22.89 0.84 2.77 1.69 5.53 2.53 8.3 0.41 1.33 0.81 2.66 1.22 3.98 2.22 7.3 4.47 14.59 6.75 21.86 0.43 1.36 0.85 2.71 1.28 4.07 0.8 2.56 1.6 5.11 2.41 7.66 0.36 1.13 0.71 2.26 1.08 3.43 0.31 0.99 0.63 1.99 0.95 3.01 0.67 2.49 0.67 2.49 0.67 5.49h-46c-1.09-3.69-2.19-7.38-3.31-11.19-0.34-1.13-0.68-2.27-1.03-3.44-0.27-0.94-0.55-1.88-0.84-2.85-0.27-0.94-0.55-1.87-0.84-2.84-1.47-5.52-2.69-11.11-3.98-16.68-20.79 0.33-41.58 0.66-63 1l-10 36h-47c8.01-26.83 16.15-53.62 24.34-80.4 1.2-3.91 2.4-7.82 3.59-11.73 0.25-0.79 0.49-1.58 0.74-2.4 3.75-12.28 7.48-24.56 11.21-36.85 0.84-2.78 1.68-5.55 2.52-8.33 0.55-1.82 1.1-3.65 1.66-5.47 0.27-0.9 0.54-1.79 0.82-2.71 1.61-5.34 3.23-10.67 4.84-16.01 1-3.31 2-6.61 3-9.92 0.47-1.54 0.93-3.09 1.4-4.64 0.63-2.1 1.27-4.21 1.91-6.32 0.36-1.18 0.72-2.36 1.09-3.58 1.2-3.61 1.2-3.61 4.24-3.76zm26.64 42.12c-3 7.46-5.1 15.15-7.23 22.89l-1.2 4.32c-0.83 3-1.66 6-2.49 9-1.06 3.85-2.13 7.69-3.19 11.53-0.83 2.97-1.65 5.93-2.47 8.9-0.39 1.41-0.78 2.83-1.18 4.25-0.55 1.98-1.09 3.95-1.64 5.93-0.31 1.12-0.62 2.25-0.94 3.41-0.66 2.77-0.66 2.77-0.66 5.77h42c-1.17-5.87-2.31-11.46-3.88-17.19-0.09-0.33-0.09-0.33-0.53-1.96-0.57-2.09-1.15-4.18-1.72-6.26-0.4-1.47-0.8-2.93-1.21-4.4-1.04-3.8203-2.09-7.6503-3.14-11.47-1.08-3.92-2.15-7.83-3.22-11.75-2.1-7.66-4.2-15.31-6.3-22.97h-1z" fill="#fff"/><path d="m847.23 69.383c11.99 10.93 14.95 25 15.77 40.62 0.18 6.84 0.19 13.69 0.19 20.53 0 3.2 0.02 6.39 0.04 9.58 0.11 40.64 0.11 40.64-12.3 54.99-9.3 9.14-21.27 12.39-34.09 12.4-1.15-0.02-2.29-0.04-3.46-0.07-1.12 0.01-2.24 0.02-3.39 0.03-10.41-0.08-19.41-1.79-29.99-3.46v57c-8.11 1.62-16.13 2.96-24.31 4.12-0.62 0.09-0.62 0.09-3.78 0.55-0.6 0.09-0.6 0.09-3.64 0.52-1.09 0.16-2.17 0.31-3.29 0.47-2.98 0.34-2.98 0.34-7.98 0.34v-204h34l4 10c0.95-0.46 1.89-0.92 2.86-1.39 21.41-10.29 48.74-19.16 69.37-2.23zm-65.87 36.85c-1.94 2.53-1.72 4.36-1.7 7.52v3.58c0.02 1.28 0.03 2.55 0.05 3.87 0 1.3 0.01 2.61 0.01 3.95 0.01 3.47 0.04 6.94 0.08 10.4 0.03 3.54 0.04 7.08 0.06 10.62 0.03 6.94 0.08 13.89 0.14 20.83 7.62 2.22 14.73 3.19 22.63 3.25 0.74 0.02 1.47 0.04 2.23 0.06 4.6 0.03 7.49-0.49 11.14-3.31 3.37-3.85 4.13-7.06 4.18-12.1 0.01-1.04 0.03-2.07 0.04-3.14 0.01-1.13 0.01-2.25 0.02-3.4 0.01-1.16 0.02-2.31 0.03-3.51 0.01-2.44 0.02-4.89 0.03-7.34 0.02-3.73 0.06-7.47 0.1-11.2l0.03-7.14c0.02-1.11 0.03-2.23 0.05-3.38-0.02-6.48-0.55-10.55-4.48-15.79-2.25-1.3402-2.25-1.3402-4.56-1.9402-0.76-0.22-1.53-0.43-2.32-0.65-9.43-1.83-20.36 3.2502-27.76 8.8202z" fill="#fff"/><path d="m512.23 69.383c11.99 10.93 14.95 25 15.77 40.62 0.18 6.84 0.19 13.69 0.19 20.53 0 3.2 0.02 6.39 0.04 9.58 0.11 40.64 0.11 40.64-12.3 54.99-9.3 9.14-21.27 12.39-34.09 12.4-1.15-0.02-2.29-0.04-3.46-0.07-1.12 0.01-2.24 0.02-3.39 0.03-10.41-0.08-19.41-1.79-29.99-3.46v57c-8.11 1.62-16.13 2.96-24.31 4.12-0.62 0.09-0.62 0.09-3.78 0.55-0.6 0.09-0.6 0.09-3.64 0.52-1.09 0.16-2.17 0.31-3.29 0.47-2.98 0.34-2.98 0.34-7.98 0.34v-204h34l4 10c0.95-0.46 1.89-0.92 2.86-1.39 21.41-10.29 48.74-19.16 69.37-2.23zm-65.87 36.85c-1.94 2.53-1.72 4.36-1.7 7.52v3.58c0.02 1.28 0.03 2.55 0.05 3.87 0 1.3 0.01 2.61 0.01 3.95 0.01 3.47 0.04 6.94 0.08 10.4 0.03 3.54 0.04 7.08 0.06 10.62 0.03 6.94 0.08 13.89 0.14 20.83 7.62 2.22 14.73 3.19 22.63 3.25 0.74 0.02 1.47 0.04 2.23 0.06 4.6 0.03 7.49-0.49 11.14-3.31 3.37-3.85 4.13-7.06 4.18-12.1 0.01-1.04 0.03-2.07 0.04-3.14 0.01-1.13 0.01-2.25 0.02-3.4 0.01-1.16 0.02-2.31 0.03-3.51 0.01-2.44 0.02-4.89 0.03-7.34 0.02-3.73 0.06-7.47 0.1-11.2l0.03-7.14c0.02-1.11 0.03-2.23 0.05-3.38-0.02-6.48-0.55-10.55-4.48-15.79-2.25-1.3402-2.25-1.3402-4.56-1.9402-0.76-0.22-1.53-0.43-2.32-0.65-9.43-1.83-20.36 3.2502-27.76 8.8202z" fill="#fff"/><path d="m69.312 8.75h2.33c19.29 0 38.63 1.37 57.36 6.25-0.51 12.48-2.09 24.67-4 37-7.43-0.5-14.79-1.19-22.17-2.16-9.9696-1.29-19.84-2.15-29.9-2.21-0.96-0.02-1.93-0.03-2.93-0.05-6.64 0.05-14.01 0.52-19 5.36-3.33 6.85-3.43 17.03-1 24.19 4.29 6.17 12.2 7.7 19.19 9.42 1.76 0.46 3.53 0.91 5.3 1.37 2.74 0.7 5.48 1.39 8.22 2.07 9.31 2.34 18.42 4.76 27.24 8.59 0.63 0.27 1.27 0.55 1.92 0.83 8.01 3.66 15.01 9.39 18.46 17.64 6.69 19.53 6.3 48.14-2.33 66.95-6.67 11.37-17.33 17.15-29.76 20.48-11.1 2.57-22.03 2.88-33.37 2.83h-2.48c-12.02-0.05-23.67-0.42-35.39-3.31-0.78-0.19-1.56-0.38-2.36-0.57-8.67-2.13-16.41-4.77-24.64-8.43 2.31-11.22 4.62-22.44 7-34 8.95 1.12 8.95 1.12 12.89 2.12 19.83 4.88 43.23 9.84 63.19 3.18 2.96-2.01 3.7-3.94 4.92-7.3 0.41-3.36 0.42-6.68 0.37-10.06 0.01-0.89 0.03-1.77 0.04-2.68-0.04-8.75-0.04-8.75-3.41-12.26-8.17-5.67-18.3-7.3-27.81-9.5-38.63-8.98-38.63-8.98-47.19-22.5-6.03-11.3-6.38-24.33-6.31-36.87 0-1.23 0.01-2.46 0.01-3.72 0.19-14.04 1.5-27.41 11.08-38.46 14.33-13.69 35.9-14.18 54.53-14.2z" fill="#fff"/><path d="m260.22 75.023c13.68 15.18 13.08 35.64 12.91 54.79-0.04 6.33-0.09 12.66-0.13 19.19h-76c3 15 3 15 8 20 5.65 2.86 12 2.34 18.19 2.31 1.15 0 2.3-0.01 3.49-0.01 13.15-0.16 25.55-2.4 38.32-5.3 1.91 5.22 3.04 10.49 4.13 15.93 0.18 0.87 0.36 1.74 0.55 2.63 0.98 4.92 1.53 9.43 1.32 14.44-16.93 6.21-34.67 8.35-52.62 8.43-1.22 0.01-2.44 0.02-3.7 0.03-16.49-0.15-33.42-3.79-45.68-15.46-11.65-12-14.31-28.34-14.3-44.45 0-1.06-0.01-2.12-0.01-3.2-0.01-2.22-0.01-4.45 0-6.67 0-3.35-0.02-6.69-0.05-10.04-0.06-19.04 0.52-38.28 14.47-52.91 22.68-20.89 68.79-20.48 91.11 0.29zm-59.59 24.1c-3.28 5.7896-3.63 11.28-3.63 17.88h36c0-12.85 0-12.85-3-18-4.24-4.25-7.9-5.14-13.75-5.25-6.16 0.08-10.97 1.21-15.62 5.37z" fill="#fff"/><path d="m377 60c2.8 2.8 2.56 5.68 2.85 9.46 0.03 0.37 0.03 0.37 0.19 2.24 0.21 2.37 0.4 4.74 0.58 7.11 0.14 1.59 0.28 3.18 0.41 4.76 0.13 1.53 0.26 3.05 0.38 4.57l0.18 2.16c0.29 3.58 0.48 7.11 0.41 10.7-0.35 0.15-0.35 0.15-2.14 0.91-3.25 1.4-6.49 2.81-9.74 4.21-1.1 0.48-2.21 0.95-3.35 1.44-6.25 2.72-12.11 5.66-17.85 9.33-1.92 1.11-1.92 1.11-3.92 1.11v86h-43v-141h36c2 9 2 9 2 13 1.04-0.58 2.08-1.16 3.16-1.76 9.68-5.31 19.35-9.76 29.84-13.24 0.77-0.26 1.53-0.52 2.32-0.78 0.56-0.07 1.11-0.15 1.68-0.22z" fill="#fff"/><path d="m891 63h43v141h-43v-141z" fill="#fff"/><path d="m891 2h43v45h-43v-45z" fill="#fff"/></svg>
