<svg width="98" height="22" viewBox="0 0 98 22" fill="none" xmlns="http://www.w3.org/2000/svg">
<g clip-path="url(#clip0_843_836)">
<path d="M14.184 1.38172C13.5399 0.31085 12.147 -0.0344665 11.0761 0.609608C10.7618 0.799726 10.4941 1.06356 10.304 1.38172L7.11466 6.84083C12.0694 9.31625 15.3441 14.2322 15.7166 19.7572H13.4778C13.1092 15.0198 10.2574 10.8333 5.9856 8.74978L3.03296 13.8519C5.43077 14.9267 7.11467 17.1499 7.50654 19.7495H2.36559C2.16383 19.734 2.00863 19.5594 2.02415 19.3576C2.02415 19.3072 2.04357 19.2567 2.06685 19.214L3.49079 16.7929C3.00967 16.3894 2.45483 16.079 1.8612 15.8734L0.452769 18.2945C-0.160266 19.346 0.196682 20.6923 1.24427 21.3015C1.25203 21.3053 1.26368 21.3131 1.27144 21.317C1.60511 21.5071 1.98147 21.6041 2.36559 21.608H9.40774C9.67546 18.3255 8.20495 15.144 5.53166 13.2195L6.64909 11.2795C10.0208 13.5959 11.922 17.5224 11.6387 21.6041H17.6022C17.8855 15.4194 14.8552 9.54905 9.65218 6.19676L11.9142 2.32067C12.0189 2.14607 12.2479 2.08788 12.4225 2.18875C12.6785 2.32843 22.2543 19.0356 22.4328 19.2296C22.5337 19.408 22.4677 19.6331 22.2892 19.7301C22.231 19.7611 22.1689 19.7766 22.103 19.7766H19.7983C19.8254 20.3936 19.8254 21.0105 19.7983 21.6235H22.1146C23.3446 21.6313 24.3456 20.6419 24.3534 19.4158C24.3534 19.408 24.3534 19.4003 24.3534 19.3925C24.3534 19.0045 24.2486 18.6243 24.0546 18.2867L14.1801 1.38172H14.184ZM60.3711 13.9877L53.2203 4.75341H51.4355V17.1344H53.2436V7.64787L60.6 17.1344H62.1792V4.75341H60.3711V13.9877ZM42.3603 11.6908H48.77V10.0806H42.3564V6.35584H49.5926V4.74565H40.5173V17.1305H49.6857V15.5203H42.3603V11.6869V11.6908ZM34.8215 10.1194C32.3267 9.51801 31.6283 9.04466 31.6283 7.89231C31.6283 6.85635 32.544 6.15408 33.9097 6.15408C35.1552 6.189 36.3541 6.62356 37.3357 7.38791L38.3057 6.01828C37.0641 5.04441 35.5238 4.53225 33.9446 4.56329C31.4925 4.56329 29.7814 6.01828 29.7814 8.0863C29.7814 10.3134 31.2364 11.0855 33.8826 11.7296C36.2377 12.2728 36.9594 12.7772 36.9594 13.9063C36.9594 15.0353 35.9894 15.7337 34.4917 15.7337C33.0018 15.726 31.5662 15.1634 30.4682 14.1546L29.3779 15.4582C30.7825 16.6649 32.575 17.3284 34.4258 17.3245C37.0797 17.3245 38.7868 15.8967 38.7868 13.6851C38.7713 11.815 37.6694 10.81 34.8176 10.1233L34.8215 10.1194ZM94.9571 4.74953L91.2324 10.5656L87.5309 4.74953H85.3697L90.2585 12.234V17.1344H92.1209V12.1758L97.0445 4.74953H94.961H94.9571ZM63.6419 6.42568H67.6965V17.1344H69.5588V6.42568H73.6134V4.74953H63.6458V6.42568H63.6419ZM82.2192 12.2999C84.0893 11.78 85.1253 10.4725 85.1253 8.60234C85.1253 6.22392 83.3871 4.72625 80.5818 4.72625H75.0762V17.1266H76.9192V12.6802H80.0464L83.1853 17.1383H85.3348L81.9437 12.3814L82.2192 12.3038V12.2999ZM76.9153 11.0894V6.39076H80.3878C82.1998 6.39076 83.2357 7.24823 83.2357 8.73426C83.2357 10.2203 82.1261 11.0894 80.4072 11.0894H76.9153Z" fill="white"/>
</g>
<defs>
<clipPath id="clip0_843_836">
<rect width="98" height="22" fill="white"/>
</clipPath>
</defs>
</svg>
