<svg width="330" height="607" viewBox="0 0 330 607" fill="none" xmlns="http://www.w3.org/2000/svg">
<g clip-path="url(#clip0_367_1808)">
<path fill-rule="evenodd" clip-rule="evenodd" d="M51.6759 0.207031C32.4489 0.207031 16.6179 15.3207 15.7269 34.5271L4.31388 280.552C3.36252 301.06 19.7328 318.207 40.2629 318.207H289.414C309.945 318.207 326.315 301.06 325.363 280.552L313.95 34.527C313.059 15.3207 297.228 0.207031 278.001 0.207031H51.6759ZM77.8166 10.6758C53.9661 10.6758 34.6314 30.0104 34.6314 53.861V227.91C34.6314 251.761 53.9661 271.096 77.8166 271.096H251.866C275.717 271.096 295.051 251.761 295.051 227.91V53.861C295.051 30.0105 275.717 10.6758 251.866 10.6758H77.8166Z" fill="#080E17"/>
<path fill-rule="evenodd" clip-rule="evenodd" d="M133.586 57.3132L240.509 117.752L152.595 117.752L88.7099 117.752V92.6466H144.699L133.586 57.3132Z" fill="#080E17"/>
<path fill-rule="evenodd" clip-rule="evenodd" d="M195.633 213.29L88.71 152.852L176.624 152.852L240.509 152.852V177.957H184.52L195.633 213.29Z" fill="#080E17"/>
<path d="M17.2608 587.147V575.653H30.7982C33.5227 575.653 35.708 574.83 37.3541 573.184C39.0001 571.481 39.8232 569.267 39.8232 566.543C39.8232 563.932 39.0001 561.832 37.3541 560.243C35.708 558.653 33.5227 557.859 30.7982 557.859H17.2608V546.365H30.8833C35.5945 546.365 39.7096 547.188 43.2288 548.834C46.748 550.48 49.4725 552.835 51.4023 555.9C53.3322 558.909 54.2971 562.456 54.2971 566.543C54.2971 570.686 53.3322 574.319 51.4023 577.441C49.4725 580.506 46.748 582.89 43.2288 584.593C39.7664 586.296 35.6512 587.147 30.8833 587.147H17.2608ZM7.21413 605.793V546.365H21.2624V605.793H7.21413ZM61.9931 605.793V546.365H76.0414V594.299H104.819V605.793H61.9931ZM113.962 605.793V546.365H157.98V557.859H128.011V569.353H147.338V580.847H128.011V594.299H158.321V605.793H113.962ZM167.72 605.793V546.365H187.728C192.212 546.365 196.214 547.074 199.733 548.493C203.309 549.855 206.345 551.842 208.843 554.453C211.34 557.007 213.242 560.101 214.547 563.733C215.853 567.366 216.505 571.424 216.505 575.908C216.505 580.449 215.853 584.564 214.547 588.254C213.242 591.887 211.34 595.037 208.843 597.705C206.345 600.316 203.309 602.331 199.733 603.75C196.214 605.112 192.212 605.793 187.728 605.793H167.72ZM181.768 594.299H187.728C190.793 594.299 193.375 593.561 195.476 592.085C197.633 590.553 199.25 588.396 200.329 585.615C201.464 582.833 202.031 579.598 202.031 575.908C202.031 572.219 201.464 569.04 200.329 566.373C199.25 563.648 197.633 561.548 195.476 560.072C193.375 558.596 190.793 557.859 187.728 557.859H181.768V594.299ZM246.253 606.815C240.974 606.815 236.377 605.538 232.46 602.983C228.6 600.372 225.592 596.768 223.435 592.17C221.278 587.573 220.2 582.209 220.2 576.079C220.2 569.949 221.278 564.585 223.435 559.987C225.592 555.333 228.686 551.728 232.716 549.174C236.802 546.62 241.655 545.343 247.275 545.343C251.361 545.343 255.136 546.166 258.598 547.812C262.118 549.401 265.012 551.757 267.283 554.879C269.553 558 270.802 561.803 271.029 566.288H255.618C255.391 563.62 254.512 561.378 252.979 559.561C251.503 557.745 249.488 556.837 246.934 556.837C244.55 556.837 242.422 557.603 240.549 559.136C238.732 560.611 237.285 562.768 236.206 565.606C235.185 568.444 234.674 571.935 234.674 576.079C234.674 580.166 235.213 583.656 236.291 586.551C237.37 589.389 238.874 591.574 240.804 593.107C242.791 594.583 245.061 595.321 247.615 595.321C249.715 595.321 251.503 595.037 252.979 594.469C254.455 593.845 255.874 592.937 257.236 591.745V585.019L249.318 585.444L249.744 573.78H271.029V595.661C268.475 599.124 265.154 601.848 261.068 603.835C257.037 605.821 252.099 606.815 246.253 606.815ZM280.087 605.793V546.365H324.105V557.859H294.135V569.353H313.462V580.847H294.135V594.299H324.446V605.793H280.087Z" fill="#080E17"/>
<path d="M44.2691 448.731C36.4821 448.731 29.6262 446.911 23.7013 443.271C17.8611 439.547 13.2905 434.257 9.98953 427.401C6.77318 420.545 5.165 412.377 5.165 402.898C5.165 393.333 6.77318 385.123 9.98953 378.267C13.2905 371.411 17.8611 366.163 23.7013 362.524C29.6262 358.884 36.4821 357.065 44.2691 357.065C52.056 357.065 58.8696 358.884 64.7098 362.524C70.55 366.163 75.0783 371.411 78.2947 378.267C81.5956 385.038 83.2461 393.249 83.2461 402.898C83.2461 412.377 81.5956 420.545 78.2947 427.401C75.0783 434.257 70.55 439.547 64.7098 443.271C58.8696 446.911 52.056 448.731 44.2691 448.731ZM44.2691 431.591C47.57 431.591 50.5325 430.49 53.1563 428.29C55.7802 426.005 57.8539 422.746 59.3774 418.514C60.901 414.197 61.6627 408.992 61.6627 402.898C61.6627 396.719 60.901 391.513 59.3774 387.281C57.8539 382.965 55.7802 379.706 53.1563 377.505C50.5325 375.305 47.57 374.204 44.2691 374.204C40.9681 374.204 37.9633 375.347 35.2548 377.632C32.6309 379.833 30.5572 383.092 29.0337 387.408C27.5102 391.64 26.7484 396.803 26.7484 402.898C26.7484 408.992 27.5102 414.197 29.0337 418.514C30.5572 422.746 32.6309 426.005 35.2548 428.29C37.9633 430.49 40.9681 431.591 44.2691 431.591ZM108.053 419.403V402.263H128.24C132.303 402.263 135.561 401.035 138.016 398.581C140.471 396.042 141.698 392.741 141.698 388.678C141.698 384.784 140.471 381.653 138.016 379.283C135.561 376.913 132.303 375.728 128.24 375.728H108.053V358.588H128.367C135.392 358.588 141.529 359.815 146.776 362.27C152.024 364.725 156.087 368.237 158.965 372.808C161.842 377.294 163.281 382.584 163.281 388.678C163.281 394.857 161.842 400.274 158.965 404.929C156.087 409.5 152.024 413.054 146.776 415.594C141.613 418.133 135.477 419.403 128.367 419.403H108.053ZM93.0717 447.207V358.588H114.02V447.207H93.0717ZM173.488 447.207V358.588H239.127V375.728H194.436V392.868H223.257V410.007H194.436V430.067H239.635V447.207H173.488ZM253.269 447.207V358.588H279.931L304.688 421.307L303.292 389.059V358.588H322.971V447.207H296.309L271.297 385.631L272.948 416.736V447.207H253.269Z" fill="#080E17"/>
<path d="M27.8338 527.266C23.0212 527.266 18.88 526.37 15.4105 524.579C11.9969 522.733 9.3667 520.159 7.51999 516.857C5.72925 513.499 4.83387 509.554 4.83387 505.021H18.4324C18.4324 508.547 19.1878 511.261 20.6988 513.163C22.2657 515.01 24.644 515.934 27.8338 515.934C30.352 515.934 32.3386 515.402 33.7936 514.339C35.3046 513.219 36.06 511.653 36.06 509.638C36.06 508.127 35.5004 506.952 34.3812 506.112C33.3179 505.217 31.863 504.49 30.0163 503.93C28.2255 503.314 26.2389 502.755 24.0564 502.251C21.9299 501.691 19.7754 501.02 17.5929 500.237C15.4664 499.453 13.4798 498.418 11.6331 497.131C9.84237 495.844 8.38739 494.165 7.26817 492.094C6.20491 490.024 5.67329 487.393 5.67329 484.204C5.67329 480.902 6.56866 477.936 8.35941 475.306C10.2061 472.676 12.7523 470.577 15.9981 469.01C19.2438 467.443 23.0491 466.66 27.4141 466.66C31.3873 466.66 35.0807 467.443 38.4943 469.01C41.9079 470.521 44.678 472.732 46.8045 475.642C48.931 478.552 50.0502 482.133 50.1622 486.386H36.3119C36.1999 484.484 35.6963 482.917 34.8009 481.685C33.9615 480.454 32.8703 479.531 31.5272 478.915C30.2401 478.3 28.8691 477.992 27.4141 477.992C25.3435 477.992 23.5808 478.496 22.1258 479.503C20.6708 480.454 19.9433 481.881 19.9433 483.784C19.9433 485.239 20.4749 486.386 21.5382 487.226C22.6574 488.065 24.1124 488.765 25.9031 489.324C27.7498 489.828 29.7365 490.331 31.863 490.835C34.0454 491.339 36.1999 491.982 38.3264 492.766C40.5089 493.493 42.4955 494.528 44.2863 495.872C46.133 497.215 47.588 499.005 48.6512 501.244C49.7704 503.426 50.33 506.224 50.33 509.638C50.33 513.052 49.3507 516.101 47.3921 518.788C45.4894 521.418 42.8313 523.488 39.4177 524.999C36.06 526.51 32.1987 527.266 27.8338 527.266ZM82.1766 527.266C77.0282 527.266 72.4954 526.062 68.5781 523.656C64.7168 521.194 61.6949 517.696 59.5124 513.163C57.3859 508.631 56.3227 503.23 56.3227 496.963C56.3227 490.639 57.3859 485.211 59.5124 480.678C61.6949 476.145 64.7168 472.676 68.5781 470.269C72.4954 467.863 77.0282 466.66 82.1766 466.66C87.325 466.66 91.8298 467.863 95.6911 470.269C99.5524 472.676 102.546 476.145 104.673 480.678C106.855 485.155 107.947 490.583 107.947 496.963C107.947 503.23 106.855 508.631 104.673 513.163C102.546 517.696 99.5524 521.194 95.6911 523.656C91.8298 526.062 87.325 527.266 82.1766 527.266ZM82.1766 515.934C84.3591 515.934 86.3177 515.206 88.0525 513.751C89.7873 512.24 91.1583 510.086 92.1656 507.288C93.1729 504.434 93.6765 500.992 93.6765 496.963C93.6765 492.878 93.1729 489.436 92.1656 486.638C91.1583 483.784 89.7873 481.63 88.0525 480.175C86.3177 478.72 84.3591 477.992 82.1766 477.992C79.9941 477.992 78.0075 478.748 76.2168 480.258C74.482 481.713 73.1109 483.868 72.1036 486.722C71.0963 489.52 70.5927 492.934 70.5927 496.963C70.5927 500.992 71.0963 504.434 72.1036 507.288C73.1109 510.086 74.482 512.24 76.2168 513.751C78.0075 515.206 79.9941 515.934 82.1766 515.934ZM136.687 527.266C131.595 527.266 127.258 526.37 123.676 524.579C120.095 522.733 117.353 520.159 115.45 516.857C113.547 513.555 112.596 509.694 112.596 505.273V467.667H126.446V505.273C126.446 507.455 126.866 509.33 127.706 510.897C128.545 512.464 129.72 513.695 131.231 514.59C132.798 515.43 134.617 515.85 136.687 515.85C138.814 515.85 140.633 515.43 142.143 514.59C143.654 513.695 144.83 512.464 145.669 510.897C146.508 509.33 146.928 507.455 146.928 505.273V467.667H160.778V505.273C160.778 509.694 159.827 513.555 157.924 516.857C156.022 520.159 153.28 522.733 149.698 524.579C146.117 526.37 141.78 527.266 136.687 527.266ZM179.194 504.35V493.018H192.373C194.052 493.018 195.507 492.71 196.738 492.094C198.025 491.479 199.004 490.611 199.676 489.492C200.404 488.373 200.767 487.114 200.767 485.715C200.767 484.372 200.431 483.196 199.76 482.189C199.144 481.182 198.277 480.398 197.158 479.839C196.039 479.279 194.751 478.999 193.296 478.999H179.194V467.667H193.296C197.55 467.667 201.299 468.395 204.545 469.85C207.846 471.249 210.421 473.291 212.267 475.977C214.114 478.664 215.037 481.909 215.037 485.715C215.037 488.009 214.478 490.275 213.358 492.514C212.295 494.696 210.728 496.683 208.658 498.474C206.643 500.264 204.181 501.691 201.271 502.755C198.417 503.818 195.171 504.35 191.534 504.35H179.194ZM169.205 526.258V467.667H183.056V526.258H169.205ZM201.103 526.258C201.103 523.796 200.655 521.306 199.76 518.788C198.865 516.213 197.55 513.779 195.815 511.485C194.136 509.134 192.037 507.008 189.519 505.105C187.001 503.202 184.091 501.664 180.789 500.488L196.15 497.382C199.396 499.005 202.222 500.936 204.629 503.174C207.035 505.413 209.021 507.819 210.588 510.393C212.211 512.968 213.414 515.626 214.198 518.368C214.981 521.054 215.373 523.684 215.373 526.258H201.103ZM246.464 527.266C241.204 527.266 236.643 526.034 232.782 523.572C228.976 521.054 226.01 517.528 223.884 512.996C221.813 508.407 220.778 503.063 220.778 496.963C220.778 490.807 221.841 485.463 223.968 480.93C226.094 476.397 229.116 472.9 233.033 470.437C236.951 467.919 241.596 466.66 246.968 466.66C251.165 466.66 255.026 467.471 258.552 469.094C262.077 470.717 264.959 473.068 267.198 476.145C269.492 479.223 270.751 482.973 270.975 487.393H255.866C255.586 484.539 254.69 482.273 253.179 480.594C251.668 478.859 249.598 477.992 246.968 477.992C244.729 477.992 242.687 478.72 240.84 480.175C239.049 481.574 237.622 483.7 236.559 486.554C235.552 489.352 235.048 492.822 235.048 496.963C235.048 501.048 235.552 504.518 236.559 507.372C237.566 510.17 238.909 512.296 240.588 513.751C242.323 515.206 244.282 515.934 246.464 515.934C248.311 515.934 249.906 515.57 251.249 514.842C252.648 514.059 253.767 512.94 254.606 511.485C255.502 510.03 256.033 508.267 256.201 506.196H271.311C270.863 510.505 269.576 514.255 267.449 517.444C265.379 520.578 262.581 523.013 259.055 524.747C255.53 526.426 251.333 527.266 246.464 527.266ZM279.318 526.258V467.667H322.716V478.999H293.168V490.331H312.223V501.664H293.168V514.926H323.051V526.258H279.318Z" fill="#080E17"/>
</g>
<defs>
<clipPath id="clip0_367_1808">
<rect width="330" height="607" fill="white"/>
</clipPath>
</defs>
</svg>
