<svg width="1141" height="88" viewBox="0 0 1141 88" fill="none" xmlns="http://www.w3.org/2000/svg">
<g clip-path="url(#clip0_315_15)">
<path fill-rule="evenodd" clip-rule="evenodd" d="M13.1174 0C7.79671 0 3.41581 4.18238 3.16925 9.49735L0.0109215 77.5797C-0.252349 83.2548 4.27777 88 9.95906 88H78.9067C84.588 88 89.1181 83.2549 88.8548 77.5797L85.6965 9.49735C85.45 4.18238 81.069 0 75.7483 0H13.1174ZM20.3453 2.89844C13.7452 2.89844 8.39471 8.24891 8.39471 14.849V63.0137C8.39471 69.6138 13.7452 74.9643 20.3453 74.9643H68.51C75.1101 74.9643 80.4606 69.6138 80.4606 63.0137V14.8491C80.4606 8.24891 75.1101 2.89844 68.51 2.89844H20.3453Z" fill="white"/>
<path fill-rule="evenodd" clip-rule="evenodd" d="M35.7682 15.7917L65.3569 32.5168H46.2378H41.0284H23.353V25.5695H38.8434L35.7682 15.7917Z" fill="white"/>
<path fill-rule="evenodd" clip-rule="evenodd" d="M52.9417 58.961L23.353 42.2358H42.4722H47.6815H65.3569V49.1832H49.8665L52.9417 58.961Z" fill="#2DDE74"/>
<path d="M141.098 70.892C136.539 70.892 132.525 69.8266 129.056 67.6957C125.637 65.5153 122.961 62.4181 121.028 58.4042C119.145 54.3902 118.204 49.6082 118.204 44.058C118.204 38.4583 119.145 33.6515 121.028 29.6376C122.961 25.6236 125.637 22.5512 129.056 20.4204C132.525 18.2895 136.539 17.2241 141.098 17.2241C145.657 17.2241 149.646 18.2895 153.066 20.4204C156.485 22.5512 159.136 25.6236 161.019 29.6376C162.952 33.602 163.918 38.4088 163.918 44.058C163.918 49.6082 162.952 54.3902 161.019 58.4042C159.136 62.4181 156.485 65.5153 153.066 67.6957C149.646 69.8266 145.657 70.892 141.098 70.892ZM141.098 60.8571C143.031 60.8571 144.765 60.2129 146.301 58.9245C147.838 57.5865 149.052 55.6786 149.944 53.2009C150.836 50.6736 151.282 47.626 151.282 44.058C151.282 40.4405 150.836 37.3929 149.944 34.9152C149.052 32.3879 147.838 30.48 146.301 29.1916C144.765 27.9032 143.031 27.2589 141.098 27.2589C139.165 27.2589 137.406 27.9279 135.82 29.2659C134.284 30.5543 133.07 32.4622 132.178 34.9895C131.286 37.4672 130.84 40.4901 130.84 44.058C130.84 47.626 131.286 50.6736 132.178 53.2009C133.07 55.6786 134.284 57.5865 135.82 58.9245C137.406 60.2129 139.165 60.8571 141.098 60.8571ZM181.415 53.7212V43.6864H193.234C195.613 43.6864 197.521 42.9678 198.958 41.5307C200.395 40.0441 201.113 38.1115 201.113 35.7328C201.113 33.4533 200.395 31.6198 198.958 30.2322C197.521 28.8447 195.613 28.1509 193.234 28.1509H181.415V18.1161H193.308C197.421 18.1161 201.014 18.8346 204.087 20.2717C207.159 21.7088 209.538 23.7653 211.222 26.4413C212.907 29.0677 213.75 32.1649 213.75 35.7328C213.75 39.3503 212.907 42.5218 211.222 45.2474C209.538 47.9233 207.159 50.0046 204.087 51.4913C201.064 52.9779 197.471 53.7212 193.308 53.7212H181.415ZM172.644 70V18.1161H184.909V70H172.644ZM224.929 70V18.1161H263.358V28.1509H237.193V38.1858H254.067V48.2206H237.193V59.9651H263.656V70H224.929ZM274.612 70V18.1161H290.221L304.716 54.8362L303.899 35.9558V18.1161H315.42V70H299.81L285.167 33.9488L286.133 52.1603V70H274.612ZM346.594 70.892C342.333 70.892 338.665 70.0991 335.593 68.5134C332.57 66.878 330.241 64.5985 328.606 61.6748C327.02 58.7015 326.227 55.2079 326.227 51.1939H338.269C338.269 54.3159 338.938 56.7193 340.276 58.4042C341.664 60.0395 343.77 60.8571 346.594 60.8571C348.824 60.8571 350.583 60.3864 351.872 59.4448C353.21 58.4537 353.879 57.0662 353.879 55.2822C353.879 53.9442 353.383 52.9036 352.392 52.1603C351.451 51.3674 350.162 50.7232 348.527 50.2276C346.941 49.6825 345.182 49.187 343.249 48.741C341.366 48.2454 339.458 47.6508 337.526 46.957C335.643 46.2632 333.883 45.3465 332.248 44.2067C330.662 43.0669 329.374 41.5803 328.383 39.7468C327.441 37.9132 326.971 35.5842 326.971 32.7595C326.971 29.8358 327.763 27.2094 329.349 24.8803C330.984 22.5512 333.239 20.6929 336.113 19.3054C338.988 17.9178 342.357 17.2241 346.223 17.2241C349.741 17.2241 353.012 17.9178 356.034 19.3054C359.057 20.6434 361.51 22.6008 363.393 25.1776C365.276 27.7545 366.268 30.926 366.367 34.6922H354.102C354.003 33.0073 353.557 31.6198 352.764 30.5296C352.021 29.4394 351.054 28.6217 349.865 28.0766C348.725 27.5315 347.511 27.2589 346.223 27.2589C344.389 27.2589 342.828 27.7049 341.54 28.5969C340.251 29.4394 339.607 30.703 339.607 32.3879C339.607 33.6763 340.078 34.6922 341.019 35.4355C342.01 36.1788 343.299 36.7982 344.885 37.2938C346.52 37.7398 348.279 38.1858 350.162 38.6318C352.095 39.0778 354.003 39.6477 355.886 40.3414C357.818 40.9856 359.578 41.9024 361.163 43.0917C362.799 44.281 364.087 45.8668 365.029 47.849C366.02 49.7816 366.515 52.2594 366.515 55.2822C366.515 58.3051 365.648 61.0058 363.914 63.3844C362.229 65.7135 359.875 67.547 356.852 68.885C353.879 70.223 350.46 70.892 346.594 70.892ZM397.69 70.892C393.131 70.892 389.117 69.8266 385.648 67.6957C382.228 65.5153 379.552 62.4181 377.62 58.4042C375.737 54.3902 374.795 49.6082 374.795 44.058C374.795 38.4583 375.737 33.6515 377.62 29.6376C379.552 25.6236 382.228 22.5512 385.648 20.4204C389.117 18.2895 393.131 17.2241 397.69 17.2241C402.249 17.2241 406.238 18.2895 409.657 20.4204C413.076 22.5512 415.728 25.6236 417.611 29.6376C419.543 33.602 420.51 38.4088 420.51 44.058C420.51 49.6082 419.543 54.3902 417.611 58.4042C415.728 62.4181 413.076 65.5153 409.657 67.6957C406.238 69.8266 402.249 70.892 397.69 70.892ZM397.69 60.8571C399.622 60.8571 401.357 60.2129 402.893 58.9245C404.429 57.5865 405.643 55.6786 406.535 53.2009C407.427 50.6736 407.873 47.626 407.873 44.058C407.873 40.4405 407.427 37.3929 406.535 34.9152C405.643 32.3879 404.429 30.48 402.893 29.1916C401.357 27.9032 399.622 27.2589 397.69 27.2589C395.757 27.2589 393.998 27.9279 392.412 29.2659C390.876 30.5543 389.662 32.4622 388.77 34.9895C387.878 37.4672 387.432 40.4901 387.432 44.058C387.432 47.626 387.878 50.6736 388.77 53.2009C389.662 55.6786 390.876 57.5865 392.412 58.9245C393.998 60.2129 395.757 60.8571 397.69 60.8571ZM448.934 70.892C444.424 70.892 440.584 70.0991 437.412 68.5134C434.241 66.878 431.812 64.5985 430.127 61.6748C428.443 58.751 427.6 55.3318 427.6 51.4169V18.1161H439.865V51.4169C439.865 53.3496 440.237 55.0097 440.98 56.3972C441.723 57.7847 442.764 58.8749 444.102 59.6678C445.49 60.4111 447.1 60.7828 448.934 60.7828C450.817 60.7828 452.427 60.4111 453.765 59.6678C455.103 58.8749 456.144 57.7847 456.887 56.3972C457.63 55.0097 458.002 53.3496 458.002 51.4169V18.1161H470.267V51.4169C470.267 55.3318 469.424 58.751 467.74 61.6748C466.055 64.5985 463.627 66.878 460.455 68.5134C457.284 70.0991 453.443 70.892 448.934 70.892ZM489.548 50.5993V40.5644H501.218C502.705 40.5644 503.993 40.2919 505.083 39.7468C506.223 39.2017 507.09 38.4336 507.685 37.4425C508.329 36.4514 508.651 35.3364 508.651 34.0975C508.651 32.9082 508.354 31.8675 507.759 30.9756C507.214 30.0836 506.446 29.3898 505.455 28.8942C504.464 28.3987 503.324 28.1509 502.036 28.1509H489.548V18.1161H502.036C505.802 18.1161 509.122 18.7603 511.996 20.0487C514.92 21.2876 517.2 23.0963 518.835 25.475C520.47 27.8536 521.288 30.7278 521.288 34.0975C521.288 36.1293 520.792 38.1362 519.801 40.1184C518.86 42.0511 517.472 43.8103 515.639 45.396C513.855 46.9818 511.674 48.2454 509.097 49.187C506.57 50.1285 503.696 50.5993 500.475 50.5993H489.548ZM480.702 70V18.1161H492.967V70H480.702ZM508.949 70C508.949 67.8196 508.552 65.6144 507.759 63.3844C506.967 61.1049 505.802 58.9493 504.266 56.9175C502.779 54.8362 500.921 52.9531 498.691 51.2683C496.461 49.5834 493.884 48.2206 490.96 47.18L504.563 44.4297C507.437 45.8668 509.94 47.5764 512.071 49.5586C514.202 51.5408 515.961 53.6717 517.348 55.9512C518.785 58.2307 519.851 60.5846 520.545 63.0128C521.238 65.3914 521.585 67.7205 521.585 70H508.949ZM552.09 70.892C547.432 70.892 543.394 69.8018 539.974 67.6214C536.605 65.3914 533.978 62.2694 532.095 58.2555C530.262 54.192 529.345 49.4595 529.345 44.058C529.345 38.607 530.286 33.8745 532.169 29.8606C534.053 25.8466 536.728 22.7494 540.197 20.569C543.666 18.3391 547.779 17.2241 552.536 17.2241C556.253 17.2241 559.672 17.9426 562.794 19.3797C565.916 20.8168 568.468 22.8981 570.451 25.6236C572.482 28.3491 573.597 31.6693 573.796 35.5842H560.416C560.168 33.0569 559.375 31.0499 558.037 29.5632C556.699 28.027 554.866 27.2589 552.536 27.2589C550.554 27.2589 548.746 27.9032 547.11 29.1916C545.524 30.4304 544.261 32.3135 543.319 34.8408C542.427 37.3186 541.981 40.391 541.981 44.058C541.981 47.6755 542.427 50.7479 543.319 53.2752C544.211 55.753 545.401 57.6361 546.887 58.9245C548.423 60.2129 550.158 60.8571 552.09 60.8571C553.726 60.8571 555.138 60.535 556.327 59.8908C557.566 59.197 558.557 58.2059 559.301 56.9175C560.094 55.6291 560.564 54.0681 560.713 52.2346H574.093C573.696 56.0503 572.557 59.3705 570.674 62.1951C568.84 64.9702 566.362 67.1258 563.24 68.662C560.118 70.1487 556.402 70.892 552.09 70.892ZM584.157 70V18.1161H622.587V28.1509H596.422V38.1858H613.295V48.2206H596.422V59.9651H622.884V70H584.157ZM643.28 53.7212V43.6864H655.099C657.477 43.6864 659.385 42.9678 660.822 41.5307C662.259 40.0441 662.978 38.1115 662.978 35.7328C662.978 33.4533 662.259 31.6198 660.822 30.2322C659.385 28.8447 657.477 28.1509 655.099 28.1509H643.28V18.1161H655.173C659.286 18.1161 662.879 18.8346 665.951 20.2717C669.024 21.7088 671.402 23.7653 673.087 26.4413C674.772 29.0677 675.614 32.1649 675.614 35.7328C675.614 39.3503 674.772 42.5218 673.087 45.2474C671.402 47.9233 669.024 50.0046 665.951 51.4913C662.928 52.9779 659.336 53.7212 655.173 53.7212H643.28ZM634.509 70V18.1161H646.774V70H634.509ZM687.537 70V18.1161H699.802V59.9651H724.926V70H687.537ZM738.112 70V18.1161H776.541V28.1509H750.377V38.1858H767.25V48.2206H750.377V59.9651H776.839V70H738.112ZM788.018 70V18.1161H805.486C809.401 18.1161 812.894 18.7355 815.967 19.9744C819.089 21.1637 821.74 22.8981 823.92 25.1776C826.101 27.4076 827.761 30.1083 828.9 33.2799C830.04 36.4514 830.61 39.9945 830.61 43.9094C830.61 47.8738 830.04 51.4665 828.9 54.6876C827.761 57.8591 826.101 60.6094 823.92 62.9384C821.74 65.218 819.089 66.9772 815.967 68.216C812.894 69.4053 809.401 70 805.486 70H788.018ZM800.282 59.9651H805.486C808.162 59.9651 810.416 59.3209 812.25 58.0325C814.133 56.6945 815.545 54.8114 816.487 52.3832C817.478 49.9551 817.974 47.1304 817.974 43.9094C817.974 40.6883 817.478 37.9132 816.487 35.5842C815.545 33.2055 814.133 31.372 812.25 30.0836C810.416 28.7951 808.162 28.1509 805.486 28.1509H800.282V59.9651ZM859.554 70.892C854.946 70.892 850.932 69.777 847.513 67.547C844.143 65.2675 841.516 62.1208 839.633 58.1068C837.75 54.0929 836.809 49.41 836.809 44.058C836.809 38.7061 837.75 34.0232 839.633 30.0092C841.516 25.9457 844.217 22.799 847.736 20.569C851.303 18.3391 855.54 17.2241 860.446 17.2241C864.014 17.2241 867.31 17.9426 870.333 19.3797C873.405 20.7673 875.932 22.8238 877.914 25.5493C879.897 28.2748 880.987 31.595 881.185 35.5098H867.731C867.533 33.1807 866.765 31.2233 865.427 29.6376C864.138 28.0518 862.379 27.2589 860.149 27.2589C858.068 27.2589 856.209 27.9279 854.574 29.2659C852.988 30.5543 851.725 32.4374 850.783 34.9152C849.891 37.3929 849.445 40.4405 849.445 44.058C849.445 47.626 849.916 50.6736 850.857 53.2009C851.799 55.6786 853.112 57.5865 854.797 58.9245C856.531 60.2129 858.514 60.8571 860.744 60.8571C862.577 60.8571 864.138 60.6094 865.427 60.1138C866.715 59.5687 867.954 58.7758 869.143 57.7352V51.8629L862.23 52.2346L862.602 42.0511H881.185V61.1545C878.955 64.1773 876.056 66.5559 872.488 68.2904C868.97 70.0248 864.658 70.892 859.554 70.892ZM892.067 70V18.1161H930.496V28.1509H904.331V38.1858H921.205V48.2206H904.331V59.9651H930.794V70H892.067ZM955.427 70V57.1405H968.807V70H955.427ZM1013.96 70.892C1009.3 70.892 1005.26 69.8018 1001.84 67.6214C998.469 65.3914 995.843 62.2694 993.96 58.2555C992.126 54.192 991.21 49.4595 991.21 44.058C991.21 38.607 992.151 33.8745 994.034 29.8606C995.917 25.8466 998.593 22.7494 1002.06 20.569C1005.53 18.3391 1009.64 17.2241 1014.4 17.2241C1018.12 17.2241 1021.54 17.9426 1024.66 19.3797C1027.78 20.8168 1030.33 22.8981 1032.32 25.6236C1034.35 28.3491 1035.46 31.6693 1035.66 35.5842H1022.28C1022.03 33.0569 1021.24 31.0499 1019.9 29.5632C1018.56 28.027 1016.73 27.2589 1014.4 27.2589C1012.42 27.2589 1010.61 27.9032 1008.98 29.1916C1007.39 30.4304 1006.13 32.3135 1005.18 34.8408C1004.29 37.3186 1003.85 40.391 1003.85 44.058C1003.85 47.6755 1004.29 50.7479 1005.18 53.2752C1006.08 55.753 1007.27 57.6361 1008.75 58.9245C1010.29 60.2129 1012.02 60.8571 1013.96 60.8571C1015.59 60.8571 1017 60.535 1018.19 59.8908C1019.43 59.197 1020.42 58.2059 1021.17 56.9175C1021.96 55.6291 1022.43 54.0681 1022.58 52.2346H1035.96C1035.56 56.0503 1034.42 59.3705 1032.54 62.1951C1030.7 64.9702 1028.23 67.1258 1025.11 68.662C1021.98 70.1487 1018.27 70.892 1013.96 70.892ZM1064.83 70.892C1060.27 70.892 1056.25 69.8266 1052.79 67.6957C1049.37 65.5153 1046.69 62.4181 1044.76 58.4042C1042.87 54.3902 1041.93 49.6082 1041.93 44.058C1041.93 38.4583 1042.87 33.6515 1044.76 29.6376C1046.69 25.6236 1049.37 22.5512 1052.79 20.4204C1056.25 18.2895 1060.27 17.2241 1064.83 17.2241C1069.39 17.2241 1073.38 18.2895 1076.8 20.4204C1080.21 22.5512 1082.87 25.6236 1084.75 29.6376C1086.68 33.602 1087.65 38.4088 1087.65 44.058C1087.65 49.6082 1086.68 54.3902 1084.75 58.4042C1082.87 62.4181 1080.21 65.5153 1076.8 67.6957C1073.38 69.8266 1069.39 70.892 1064.83 70.892ZM1064.83 60.8571C1066.76 60.8571 1068.49 60.2129 1070.03 58.9245C1071.57 57.5865 1072.78 55.6786 1073.67 53.2009C1074.57 50.6736 1075.01 47.626 1075.01 44.058C1075.01 40.4405 1074.57 37.3929 1073.67 34.9152C1072.78 32.3879 1071.57 30.48 1070.03 29.1916C1068.49 27.9032 1066.76 27.2589 1064.83 27.2589C1062.89 27.2589 1061.14 27.9279 1059.55 29.2659C1058.01 30.5543 1056.8 32.4622 1055.91 34.9895C1055.02 37.4672 1054.57 40.4901 1054.57 44.058C1054.57 47.626 1055.02 50.6736 1055.91 53.2009C1056.8 55.6786 1058.01 57.5865 1059.55 58.9245C1061.14 60.2129 1062.89 60.8571 1064.83 60.8571ZM1093.03 70L1096.6 18.1161H1111.46L1114.96 41.3821L1116.22 52.0116L1117.48 41.3821L1121.27 18.1161H1135.62L1139.26 70H1127.3L1126.85 45.619V30.9012L1124.84 45.619L1120.83 70H1111.31L1107.15 45.619L1105.14 30.6782L1105.22 45.619L1104.55 70H1093.03Z" fill="white"/>
</g>
<defs>
<clipPath id="clip0_315_15">
<rect width="1140.87" height="88" fill="white"/>
</clipPath>
</defs>
</svg>
