<svg width="754" height="89" viewBox="0 0 754 89" fill="none" xmlns="http://www.w3.org/2000/svg">
<g clip-path="url(#clip0_315_287)">
<path fill-rule="evenodd" clip-rule="evenodd" d="M13.6042 0.500244C8.28353 0.500244 3.90263 4.68262 3.65606 9.99759L0.497738 78.0799C0.234467 83.7551 4.76459 88.5002 10.4459 88.5002H79.3935C85.0748 88.5002 89.6049 83.7551 89.3417 78.0799L86.1833 9.9976C85.9368 4.68263 81.5558 0.500244 76.2352 0.500244H13.6042ZM20.8321 3.39868C14.232 3.39868 8.88153 8.74915 8.88153 15.3493V63.5139C8.88153 70.1141 14.232 75.4645 20.8321 75.4645H68.9968C75.5969 75.4645 80.9474 70.1141 80.9474 63.5139V15.3493C80.9474 8.74915 75.5969 3.39868 68.9968 3.39868H20.8321Z" fill="#080E17"/>
<path fill-rule="evenodd" clip-rule="evenodd" d="M36.255 16.2922L65.8438 33.0173H46.7246H41.5153H23.8398V26.07H39.3302L36.255 16.2922Z" fill="#080E17"/>
<path fill-rule="evenodd" clip-rule="evenodd" d="M53.4286 59.4611L23.8398 42.736H42.959H48.1683H65.8438V49.6833H50.3534L53.4286 59.4611Z" fill="#080E17"/>
<path d="M141.585 71.3922C137.026 71.3922 133.012 70.3268 129.543 68.1959C126.124 66.0155 123.448 62.9184 121.515 58.9044C119.632 54.8905 118.691 50.1084 118.691 44.5583C118.691 38.9586 119.632 34.1518 121.515 30.1378C123.448 26.1239 126.124 23.0515 129.543 20.9206C133.012 18.7898 137.026 17.7243 141.585 17.7243C146.144 17.7243 150.133 18.7898 153.552 20.9206C156.972 23.0515 159.623 26.1239 161.506 30.1378C163.439 34.1022 164.405 38.909 164.405 44.5583C164.405 50.1084 163.439 54.8905 161.506 58.9044C159.623 62.9184 156.972 66.0155 153.552 68.1959C150.133 70.3268 146.144 71.3922 141.585 71.3922ZM141.585 61.3574C143.518 61.3574 145.252 60.7132 146.788 59.4247C148.324 58.0868 149.538 56.1789 150.43 53.7011C151.322 51.1739 151.768 48.1262 151.768 44.5583C151.768 40.9408 151.322 37.8932 150.43 35.4154C149.538 32.8881 148.324 30.9803 146.788 29.6918C145.252 28.4034 143.518 27.7592 141.585 27.7592C139.652 27.7592 137.893 28.4282 136.307 29.7662C134.771 31.0546 133.557 32.9624 132.665 35.4897C131.773 37.9675 131.327 40.9903 131.327 44.5583C131.327 48.1262 131.773 51.1739 132.665 53.7011C133.557 56.1789 134.771 58.0868 136.307 59.4247C137.893 60.7132 139.652 61.3574 141.585 61.3574ZM193.126 71.3922C188.864 71.3922 185.197 70.5994 182.125 69.0136C179.102 67.3783 176.773 65.0988 175.138 62.175C173.552 59.2017 172.759 55.7081 172.759 51.6942H184.801C184.801 54.8161 185.47 57.2195 186.808 58.9044C188.195 60.5397 190.302 61.3574 193.126 61.3574C195.356 61.3574 197.115 60.8866 198.404 59.9451C199.742 58.954 200.411 57.5664 200.411 55.7825C200.411 54.4445 199.915 53.4038 198.924 52.6605C197.983 51.8676 196.694 51.2234 195.059 50.7279C193.473 50.1828 191.714 49.6872 189.781 49.2412C187.898 48.7457 185.99 48.151 184.058 47.4572C182.175 46.7635 180.415 45.8467 178.78 44.7069C177.194 43.5672 175.906 42.0805 174.915 40.247C173.973 38.4135 173.502 36.0844 173.502 33.2598C173.502 30.336 174.295 27.7096 175.881 25.3805C177.516 23.0515 179.771 21.1932 182.645 19.8056C185.519 18.4181 188.889 17.7243 192.755 17.7243C196.273 17.7243 199.544 18.4181 202.566 19.8056C205.589 21.1436 208.042 23.101 209.925 25.6779C211.808 28.2547 212.799 31.4262 212.899 35.1924H200.634C200.535 33.5075 200.089 32.12 199.296 31.0298C198.552 29.9396 197.586 29.1219 196.397 28.5768C195.257 28.0317 194.043 27.7592 192.755 27.7592C190.921 27.7592 189.36 28.2052 188.072 29.0972C186.783 29.9396 186.139 31.2032 186.139 32.8881C186.139 34.1765 186.61 35.1924 187.551 35.9357C188.542 36.6791 189.831 37.2985 191.417 37.794C193.052 38.24 194.811 38.686 196.694 39.132C198.627 39.578 200.535 40.1479 202.418 40.8417C204.35 41.4859 206.11 42.4026 207.695 43.592C209.331 44.7813 210.619 46.367 211.561 48.3492C212.552 50.2819 213.047 52.7596 213.047 55.7825C213.047 58.8053 212.18 61.506 210.446 63.8847C208.761 66.2137 206.407 68.0473 203.384 69.3853C200.411 70.7232 196.991 71.3922 193.126 71.3922ZM244.444 71.3922C240.183 71.3922 236.516 70.5994 233.443 69.0136C230.42 67.3783 228.091 65.0988 226.456 62.175C224.87 59.2017 224.077 55.7081 224.077 51.6942H236.119C236.119 54.8161 236.788 57.2195 238.126 58.9044C239.514 60.5397 241.62 61.3574 244.444 61.3574C246.674 61.3574 248.434 60.8866 249.722 59.9451C251.06 58.954 251.729 57.5664 251.729 55.7825C251.729 54.4445 251.233 53.4038 250.242 52.6605C249.301 51.8676 248.012 51.2234 246.377 50.7279C244.791 50.1828 243.032 49.6872 241.1 49.2412C239.216 48.7457 237.309 48.151 235.376 47.4572C233.493 46.7635 231.734 45.8467 230.098 44.7069C228.513 43.5672 227.224 42.0805 226.233 40.247C225.292 38.4135 224.821 36.0844 224.821 33.2598C224.821 30.336 225.614 27.7096 227.199 25.3805C228.835 23.0515 231.089 21.1932 233.964 19.8056C236.838 18.4181 240.208 17.7243 244.073 17.7243C247.591 17.7243 250.862 18.4181 253.885 19.8056C256.908 21.1436 259.36 23.101 261.244 25.6779C263.127 28.2547 264.118 31.4262 264.217 35.1924H251.952C251.853 33.5075 251.407 32.12 250.614 31.0298C249.871 29.9396 248.904 29.1219 247.715 28.5768C246.575 28.0317 245.361 27.7592 244.073 27.7592C242.239 27.7592 240.678 28.2052 239.39 29.0972C238.101 29.9396 237.457 31.2032 237.457 32.8881C237.457 34.1765 237.928 35.1924 238.87 35.9357C239.861 36.6791 241.149 37.2985 242.735 37.794C244.37 38.24 246.129 38.686 248.012 39.132C249.945 39.578 251.853 40.1479 253.736 40.8417C255.669 41.4859 257.428 42.4026 259.014 43.592C260.649 44.7813 261.937 46.367 262.879 48.3492C263.87 50.2819 264.366 52.7596 264.366 55.7825C264.366 58.8053 263.498 61.506 261.764 63.8847C260.079 66.2137 257.725 68.0473 254.702 69.3853C251.729 70.7232 248.31 71.3922 244.444 71.3922ZM284.539 54.2215V44.1866H296.357C298.736 44.1866 300.644 43.4681 302.081 42.031C303.518 40.5443 304.237 38.6117 304.237 36.2331C304.237 33.9535 303.518 32.12 302.081 30.7325C300.644 29.3449 298.736 28.6512 296.357 28.6512H284.539V18.6163H296.432C300.545 18.6163 304.138 19.3349 307.21 20.7719C310.282 22.209 312.661 24.2656 314.346 26.9415C316.031 29.5679 316.873 32.6651 316.873 36.2331C316.873 39.8506 316.031 43.0221 314.346 45.7476C312.661 48.4236 310.282 50.5049 307.21 51.9915C304.187 53.4782 300.594 54.2215 296.432 54.2215H284.539ZM275.767 70.5002V18.6163H288.032V70.5002H275.767ZM328.795 70.5002V18.6163H341.06V60.4654H366.184V70.5002H328.795ZM379.37 70.5002V18.6163H417.8V28.6512H391.635V38.686H408.509V48.7209H391.635V60.4654H418.097V70.5002H379.37ZM429.276 70.5002V18.6163H446.744C450.659 18.6163 454.153 19.2357 457.225 20.4746C460.347 21.6639 462.998 23.3984 465.179 25.6779C467.359 27.9078 469.019 30.6086 470.159 33.7801C471.299 36.9516 471.869 40.4948 471.869 44.4096C471.869 48.374 471.299 51.9667 470.159 55.1878C469.019 58.3593 467.359 61.1096 465.179 63.4387C462.998 65.7182 460.347 67.4774 457.225 68.7163C454.153 69.9056 450.659 70.5002 446.744 70.5002H429.276ZM441.541 60.4654H446.744C449.42 60.4654 451.675 59.8212 453.509 58.5327C455.392 57.1948 456.804 55.3117 457.746 52.8835C458.737 50.4553 459.232 47.6307 459.232 44.4096C459.232 41.1885 458.737 38.4135 457.746 36.0844C456.804 33.7058 455.392 31.8722 453.509 30.5838C451.675 29.2954 449.42 28.6512 446.744 28.6512H441.541V60.4654ZM500.813 71.3922C496.204 71.3922 492.19 70.2772 488.771 68.0473C485.401 65.7678 482.775 62.621 480.892 58.6071C479.009 54.5931 478.067 49.9102 478.067 44.5583C478.067 39.2064 479.009 34.5234 480.892 30.5095C482.775 26.446 485.476 23.2992 488.994 21.0693C492.562 18.8393 496.799 17.7243 501.705 17.7243C505.273 17.7243 508.568 18.4429 511.591 19.88C514.664 21.2675 517.191 23.324 519.173 26.0495C521.155 28.7751 522.245 32.0952 522.444 36.0101H508.99C508.791 33.681 508.023 31.7236 506.685 30.1378C505.397 28.5521 503.638 27.7592 501.408 27.7592C499.326 27.7592 497.468 28.4282 495.833 29.7662C494.247 31.0546 492.983 32.9377 492.042 35.4154C491.15 37.8932 490.704 40.9408 490.704 44.5583C490.704 48.1262 491.175 51.1739 492.116 53.7011C493.058 56.1789 494.371 58.0868 496.056 59.4247C497.79 60.7132 499.772 61.3574 502.002 61.3574C503.836 61.3574 505.397 61.1096 506.685 60.6141C507.974 60.0689 509.213 59.2761 510.402 58.2354V52.3632L503.489 52.7348L503.861 42.5513H522.444V61.6547C520.214 64.6775 517.315 67.0562 513.747 68.7906C510.228 70.525 505.917 71.3922 500.813 71.3922ZM533.325 70.5002V18.6163H571.755V28.6512H545.59V38.686H562.463V48.7209H545.59V60.4654H572.052V70.5002H533.325ZM582.562 70.5002V57.6408H595.942V70.5002H582.562ZM626.968 71.3922C622.309 71.3922 618.271 70.302 614.851 68.1216C611.482 65.8916 608.855 62.7697 606.972 58.7557C605.139 54.6922 604.222 49.9598 604.222 44.5583C604.222 39.1072 605.164 34.3748 607.047 30.3608C608.93 26.3469 611.606 23.2497 615.074 21.0693C618.543 18.8393 622.656 17.7243 627.414 17.7243C631.13 17.7243 634.55 18.4429 637.672 19.88C640.793 21.3171 643.346 23.3984 645.328 26.1239C647.359 28.8494 648.474 32.1696 648.673 36.0844H635.293C635.045 33.5571 634.252 31.5501 632.914 30.0635C631.576 28.5273 629.743 27.7592 627.414 27.7592C625.431 27.7592 623.623 28.4034 621.987 29.6918C620.402 30.9307 619.138 32.8138 618.196 35.3411C617.304 37.8188 616.858 40.8912 616.858 44.5583C616.858 48.1758 617.304 51.2482 618.196 53.7755C619.088 56.2532 620.278 58.1363 621.764 59.4247C623.301 60.7132 625.035 61.3574 626.968 61.3574C628.603 61.3574 630.015 61.0353 631.205 60.3911C632.443 59.6973 633.435 58.7062 634.178 57.4178C634.971 56.1293 635.442 54.5684 635.59 52.7348H648.97C648.574 56.5506 647.434 59.8707 645.551 62.6954C643.717 65.4704 641.239 67.6261 638.117 69.1623C634.996 70.6489 631.279 71.3922 626.968 71.3922ZM677.84 71.3922C673.281 71.3922 669.267 70.3268 665.798 68.1959C662.379 66.0155 659.703 62.9184 657.77 58.9044C655.887 54.8905 654.946 50.1084 654.946 44.5583C654.946 38.9586 655.887 34.1518 657.77 30.1378C659.703 26.1239 662.379 23.0515 665.798 20.9206C669.267 18.7898 673.281 17.7243 677.84 17.7243C682.399 17.7243 686.388 18.7898 689.807 20.9206C693.227 23.0515 695.878 26.1239 697.761 30.1378C699.694 34.1022 700.66 38.909 700.66 44.5583C700.66 50.1084 699.694 54.8905 697.761 58.9044C695.878 62.9184 693.227 66.0155 689.807 68.1959C686.388 70.3268 682.399 71.3922 677.84 71.3922ZM677.84 61.3574C679.773 61.3574 681.507 60.7132 683.043 59.4247C684.579 58.0868 685.794 56.1789 686.686 53.7011C687.578 51.1739 688.024 48.1262 688.024 44.5583C688.024 40.9408 687.578 37.8932 686.686 35.4154C685.794 32.8881 684.579 30.9803 683.043 29.6918C681.507 28.4034 679.773 27.7592 677.84 27.7592C675.907 27.7592 674.148 28.4282 672.562 29.7662C671.026 31.0546 669.812 32.9624 668.92 35.4897C668.028 37.9675 667.582 40.9903 667.582 44.5583C667.582 48.1262 668.028 51.1739 668.92 53.7011C669.812 56.1789 671.026 58.0868 672.562 59.4247C674.148 60.7132 675.907 61.3574 677.84 61.3574ZM706.041 70.5002L709.609 18.6163H724.475L727.969 41.8823L729.233 52.5118L730.496 41.8823L734.287 18.6163H748.633L752.276 70.5002H740.308L739.862 46.1193V31.4015L737.855 46.1193L733.841 70.5002H724.327L720.164 46.1193L718.157 31.1785L718.231 46.1193L717.562 70.5002H706.041Z" fill="#080E17"/>
</g>
<defs>
<clipPath id="clip0_315_287">
<rect width="754" height="89" fill="white"/>
</clipPath>
</defs>
</svg>
