<svg width="770" height="321" viewBox="0 0 770 321" fill="none" xmlns="http://www.w3.org/2000/svg">
<g clip-path="url(#clip0_367_1789)">
<path fill-rule="evenodd" clip-rule="evenodd" d="M47.4015 2C28.1745 2 12.3435 17.1137 11.4525 36.32L0.0394661 282.345C-0.911899 302.853 15.4584 320 35.9885 320H285.14C305.67 320 322.04 302.853 321.089 282.345L309.676 36.32C308.785 17.1136 292.954 2 273.727 2H47.4015ZM73.5422 12.4688C49.6917 12.4688 30.357 31.8034 30.357 55.6539V229.703C30.357 253.554 49.6917 272.889 73.5422 272.889H247.592C271.442 272.889 290.777 253.554 290.777 229.703V55.654C290.777 31.8034 271.442 12.4688 247.592 12.4688H73.5422Z" fill="#080E17"/>
<path fill-rule="evenodd" clip-rule="evenodd" d="M129.312 59.1062L236.235 119.545L148.321 119.545L84.4357 119.545V94.4396H140.425L129.312 59.1062Z" fill="#080E17"/>
<path fill-rule="evenodd" clip-rule="evenodd" d="M191.359 215.083L84.4357 154.645L172.35 154.645L236.235 154.645V179.75H180.246L191.359 215.083Z" fill="#080E17"/>
<path d="M370.241 295.709V281.016H387.546C391.029 281.016 393.822 279.964 395.927 277.86C398.031 275.683 399.083 272.853 399.083 269.37C399.083 266.032 398.031 263.348 395.927 261.316C393.822 259.284 391.029 258.269 387.546 258.269H370.241V243.575H387.655C393.677 243.575 398.938 244.627 403.436 246.732C407.935 248.836 411.418 251.847 413.885 255.765C416.352 259.611 417.586 264.146 417.586 269.37C417.586 274.667 416.352 279.311 413.885 283.302C411.418 287.22 407.935 290.267 403.436 292.444C399.01 294.621 393.75 295.709 387.655 295.709H370.241ZM357.398 319.545V243.575H375.356V319.545H357.398ZM427.424 319.545V243.575H445.382V304.852H482.17V319.545H427.424ZM493.858 319.545V243.575H550.128V258.269H511.816V272.962H536.523V287.655H511.816V304.852H550.563V319.545H493.858ZM562.578 319.545V243.575H588.155C593.887 243.575 599.002 244.482 603.501 246.296C608.072 248.038 611.954 250.577 615.147 253.915C618.34 257.18 620.77 261.135 622.439 265.778C624.108 270.422 624.942 275.61 624.942 281.342C624.942 287.147 624.108 292.408 622.439 297.124C620.77 301.768 618.34 305.795 615.147 309.205C611.954 312.543 608.072 315.119 603.501 316.933C599.002 318.674 593.887 319.545 588.155 319.545H562.578ZM580.536 304.852H588.155C592.073 304.852 595.375 303.908 598.059 302.022C600.816 300.063 602.884 297.305 604.263 293.75C605.714 290.195 606.44 286.059 606.44 281.342C606.44 276.626 605.714 272.563 604.263 269.152C602.884 265.67 600.816 262.985 598.059 261.098C595.375 259.212 592.073 258.269 588.155 258.269H580.536V304.852ZM662.97 320.851C656.222 320.851 650.344 319.218 645.338 315.953C640.404 312.616 636.558 308.008 633.801 302.131C631.044 296.253 629.665 289.397 629.665 281.56C629.665 273.724 631.044 266.867 633.801 260.99C636.558 255.04 640.513 250.432 645.664 247.167C650.889 243.902 657.092 242.269 664.276 242.269C669.5 242.269 674.325 243.321 678.751 245.426C683.25 247.457 686.951 250.468 689.853 254.459C692.755 258.45 694.352 263.311 694.642 269.044H674.942C674.652 265.633 673.527 262.767 671.568 260.445C669.681 258.123 667.106 256.963 663.84 256.963C660.793 256.963 658.072 257.942 655.678 259.901C653.356 261.788 651.505 264.545 650.127 268.173C648.821 271.801 648.168 276.263 648.168 281.56C648.168 286.784 648.857 291.247 650.236 294.947C651.614 298.575 653.537 301.369 656.004 303.328C658.544 305.214 661.446 306.158 664.711 306.158C667.396 306.158 669.681 305.795 671.568 305.069C673.455 304.271 675.269 303.11 677.01 301.586V292.988L666.888 293.532L667.432 278.621H694.642V306.593C691.377 311.019 687.132 314.502 681.908 317.042C676.756 319.581 670.443 320.851 662.97 320.851ZM706.221 319.545V243.575H762.491V258.269H724.18V272.962H748.886V287.655H724.18V304.852H762.926V319.545H706.221Z" fill="#080E17"/>
<path d="M404.906 117.416C394.951 117.416 386.187 115.09 378.613 110.437C371.147 105.677 365.305 98.9142 361.085 90.1501C356.973 81.3859 354.917 70.9447 354.917 58.8263C354.917 46.5998 356.973 36.1045 361.085 27.3403C365.305 18.5761 371.147 11.8678 378.613 7.2152C386.187 2.56262 394.951 0.236337 404.906 0.236337C414.86 0.236337 423.57 2.56262 431.036 7.2152C438.501 11.8678 444.29 18.5761 448.402 27.3403C452.622 35.9963 454.731 46.4916 454.731 58.8263C454.731 70.9447 452.622 81.3859 448.402 90.1501C444.29 98.9142 438.501 105.677 431.036 110.437C423.57 115.09 414.86 117.416 404.906 117.416ZM404.906 95.506C409.125 95.506 412.912 94.0994 416.267 91.2862C419.621 88.3648 422.272 84.1991 424.219 78.7891C426.167 73.271 427.141 66.6167 427.141 58.8263C427.141 50.9278 426.167 44.2735 424.219 38.8635C422.272 33.3454 419.621 29.1797 416.267 26.3665C412.912 23.5533 409.125 22.1467 404.906 22.1467C400.686 22.1467 396.845 23.6074 393.382 26.5288C390.028 29.342 387.377 33.5077 385.43 39.0258C383.482 44.4358 382.508 51.036 382.508 58.8263C382.508 66.6167 383.482 73.271 385.43 78.7891C387.377 84.1991 390.028 88.3648 393.382 91.2862C396.845 94.0994 400.686 95.506 404.906 95.506ZM486.443 79.9252V58.0148H512.249C517.442 58.0148 521.608 56.446 524.746 53.3082C527.884 50.0622 529.452 45.8424 529.452 40.6488C529.452 35.6717 527.884 31.6683 524.746 28.6387C521.608 25.6091 517.442 24.0943 512.249 24.0943H486.443V2.18393H512.411C521.392 2.18393 529.236 3.75282 535.944 6.8906C542.653 10.0284 547.846 14.5187 551.525 20.3614C555.204 26.096 557.043 32.8585 557.043 40.6488C557.043 48.5474 555.204 55.4722 551.525 61.4231C547.846 67.2659 542.653 71.8103 535.944 75.0563C529.344 78.3022 521.5 79.9252 512.411 79.9252H486.443ZM467.292 115.469V2.18393H494.071V115.469H467.292ZM570.091 115.469V2.18393H653.999V24.0943H596.87V46.0047H633.712V67.9151H596.87V93.5584H654.648V115.469H570.091ZM672.078 115.469V2.18393H706.161L737.809 82.3597L736.024 41.1357V2.18393H761.18V115.469H727.097L695.124 36.7537L697.234 76.5169V115.469H672.078Z" fill="#080E17"/>
<path d="M383.756 218.161C377.604 218.161 372.311 217.016 367.875 214.727C363.512 212.366 360.149 209.076 357.789 204.855C355.499 200.563 354.355 195.519 354.355 189.725H371.738C371.738 194.232 372.704 197.701 374.636 200.133C376.639 202.494 379.679 203.675 383.756 203.675C386.976 203.675 389.515 202.995 391.375 201.636C393.307 200.205 394.272 198.202 394.272 195.627C394.272 193.695 393.557 192.193 392.126 191.12C390.767 189.975 388.907 189.045 386.546 188.33C384.257 187.543 381.718 186.828 378.928 186.184C376.209 185.468 373.455 184.61 370.665 183.608C367.947 182.607 365.407 181.283 363.047 179.638C360.757 177.993 358.897 175.847 357.467 173.2C356.107 170.553 355.428 167.191 355.428 163.113C355.428 158.892 356.572 155.101 358.862 151.739C361.222 148.377 364.477 145.694 368.626 143.691C372.776 141.688 377.64 140.686 383.22 140.686C388.299 140.686 393.02 141.688 397.384 143.691C401.748 145.622 405.289 148.448 408.007 152.168C410.726 155.888 412.157 160.466 412.3 165.903H394.594C394.451 163.471 393.807 161.468 392.663 159.894C391.59 158.32 390.195 157.14 388.478 156.353C386.833 155.566 385.08 155.173 383.22 155.173C380.573 155.173 378.32 155.816 376.46 157.104C374.6 158.32 373.67 160.144 373.67 162.577C373.67 164.437 374.349 165.903 375.709 166.976C377.139 168.049 378.999 168.943 381.288 169.659C383.649 170.303 386.189 170.946 388.907 171.59C391.697 172.234 394.451 173.057 397.17 174.058C399.96 174.988 402.499 176.312 404.788 178.029C407.149 179.745 409.009 182.035 410.368 184.896C411.799 187.686 412.514 191.263 412.514 195.627C412.514 199.99 411.262 203.889 408.759 207.323C406.326 210.685 402.928 213.332 398.565 215.263C394.272 217.195 389.336 218.161 383.756 218.161ZM453.225 218.161C446.643 218.161 440.849 216.623 435.841 213.547C430.905 210.399 427.042 205.928 424.252 200.133C421.534 194.339 420.175 187.436 420.175 179.424C420.175 171.34 421.534 164.401 424.252 158.606C427.042 152.812 430.905 148.377 435.841 145.3C440.849 142.224 446.643 140.686 453.225 140.686C459.806 140.686 465.565 142.224 470.501 145.3C475.437 148.377 479.264 152.812 481.983 158.606C484.773 164.329 486.168 171.268 486.168 179.424C486.168 187.436 484.773 194.339 481.983 200.133C479.264 205.928 475.437 210.399 470.501 213.547C465.565 216.623 459.806 218.161 453.225 218.161ZM453.225 203.675C456.015 203.675 458.519 202.745 460.736 200.885C462.954 198.953 464.707 196.199 465.994 192.622C467.282 188.974 467.926 184.574 467.926 179.424C467.926 174.201 467.282 169.802 465.994 166.225C464.707 162.577 462.954 159.822 460.736 157.962C458.519 156.103 456.015 155.173 453.225 155.173C450.435 155.173 447.895 156.138 445.606 158.07C443.389 159.93 441.636 162.684 440.348 166.332C439.061 169.909 438.417 174.273 438.417 179.424C438.417 184.574 439.061 188.974 440.348 192.622C441.636 196.199 443.389 198.953 445.606 200.885C447.895 202.745 450.435 203.675 453.225 203.675ZM522.908 218.161C516.398 218.161 510.854 217.016 506.276 214.727C501.697 212.366 498.192 209.076 495.76 204.855C493.327 200.634 492.111 195.698 492.111 190.047V141.974H509.817V190.047C509.817 192.837 510.353 195.233 511.426 197.236C512.499 199.239 514.002 200.813 515.933 201.958C517.936 203.031 520.261 203.567 522.908 203.567C525.626 203.567 527.951 203.031 529.883 201.958C531.814 200.813 533.316 199.239 534.39 197.236C535.463 195.233 535.999 192.837 535.999 190.047V141.974H553.704V190.047C553.704 195.698 552.488 200.634 550.056 204.855C547.624 209.076 544.119 212.366 539.54 214.727C534.962 217.016 529.418 218.161 522.908 218.161ZM577.246 188.866V174.38H594.093C596.239 174.38 598.099 173.987 599.673 173.2C601.318 172.413 602.57 171.304 603.429 169.873C604.359 168.443 604.824 166.833 604.824 165.045C604.824 163.328 604.394 161.825 603.536 160.538C602.749 159.25 601.64 158.249 600.21 157.533C598.779 156.818 597.133 156.46 595.274 156.46H577.246V141.974H595.274C600.71 141.974 605.503 142.904 609.652 144.764C613.873 146.552 617.164 149.163 619.524 152.597C621.885 156.031 623.066 160.18 623.066 165.045C623.066 167.978 622.35 170.875 620.919 173.736C619.56 176.526 617.557 179.066 614.91 181.355C612.335 183.644 609.187 185.468 605.468 186.828C601.819 188.187 597.67 188.866 593.02 188.866H577.246ZM564.477 216.873V141.974H582.182V216.873H564.477ZM605.253 216.873C605.253 213.725 604.681 210.542 603.536 207.323C602.391 204.032 600.71 200.92 598.493 197.987C596.347 194.983 593.664 192.264 590.445 189.832C587.226 187.4 583.506 185.433 579.285 183.93L598.922 179.96C603.071 182.035 606.684 184.503 609.76 187.364C612.836 190.226 615.375 193.302 617.378 196.592C619.453 199.883 620.991 203.281 621.993 206.786C622.994 210.22 623.495 213.582 623.495 216.873H605.253ZM663.24 218.161C656.515 218.161 650.685 216.587 645.749 213.439C640.884 210.22 637.093 205.713 634.375 199.919C631.728 194.053 630.404 187.221 630.404 179.424C630.404 171.554 631.763 164.723 634.482 158.928C637.2 153.134 641.063 148.663 646.071 145.515C651.078 142.296 657.016 140.686 663.883 140.686C669.249 140.686 674.185 141.724 678.692 143.798C683.198 145.873 686.883 148.877 689.744 152.812C692.677 156.746 694.287 161.539 694.573 167.191H675.258C674.9 163.542 673.756 160.645 671.824 158.499C669.893 156.281 667.246 155.173 663.883 155.173C661.022 155.173 658.411 156.103 656.05 157.962C653.761 159.751 651.937 162.469 650.578 166.118C649.29 169.695 648.646 174.13 648.646 179.424C648.646 184.646 649.29 189.081 650.578 192.729C651.865 196.306 653.582 199.025 655.728 200.885C657.946 202.745 660.45 203.675 663.24 203.675C665.6 203.675 667.639 203.21 669.356 202.28C671.144 201.278 672.575 199.847 673.648 197.987C674.793 196.127 675.472 193.874 675.687 191.227H695.002C694.43 196.735 692.784 201.528 690.066 205.606C687.419 209.612 683.842 212.724 679.335 214.942C674.829 217.088 669.463 218.161 663.24 218.161ZM705.238 216.873V141.974H760.715V156.46H722.943V170.946H747.302V185.433H722.943V202.387H761.144V216.873H705.238Z" fill="#080E17"/>
</g>
<defs>
<clipPath id="clip0_367_1789">
<rect width="769.677" height="321" fill="white"/>
</clipPath>
</defs>
</svg>
