<?xml version="1.0" encoding="UTF-8" standalone="no"?>
<svg
   width="28"
   height="28"
   viewBox="0 0 28 28"
   fill="none"
   version="1.1"
   id="svg8"
   sodipodi:docname="opensourcepledge-social-white.svg"
   inkscape:version="1.4.2 (ebf0e940d0, 2025-05-08)"
   xmlns:inkscape="http://www.inkscape.org/namespaces/inkscape"
   xmlns:sodipodi="http://sodipodi.sourceforge.net/DTD/sodipodi-0.dtd"
   xmlns="http://www.w3.org/2000/svg"
   xmlns:svg="http://www.w3.org/2000/svg">
  <sodipodi:namedview
     id="namedview8"
     pagecolor="#00ffff"
     bordercolor="#666666"
     borderopacity="1.0"
     inkscape:showpageshadow="2"
     inkscape:pageopacity="0.0"
     inkscape:pagecheckerboard="0"
     inkscape:deskcolor="#d1d1d1"
     showgrid="false"
     inkscape:zoom="48.224042"
     inkscape:cx="17.501644"
     inkscape:cy="7.7347311"
     inkscape:window-width="3840"
     inkscape:window-height="2160"
     inkscape:window-x="0"
     inkscape:window-y="0"
     inkscape:window-maximized="0"
     inkscape:current-layer="g7" />
  <path
     fill-rule="evenodd"
     clip-rule="evenodd"
     d="M 47.4015,2 C 28.1745,2 12.3435,17.1137 11.4525,36.32 L 0.0394661,282.345 C -0.911899,302.853 15.4584,320 35.9885,320 H 285.14 c 20.53,0 36.9,-17.147 35.949,-37.655 L 309.676,36.32 C 308.785,17.1136 292.954,2 273.727,2 Z m 26.1407,23.899654 c -23.8505,0 -43.1852,19.3346 -43.1852,43.1851 V 229.703 c 0,23.851 19.3347,43.186 43.1852,43.186 H 247.592 c 23.85,0 43.185,-19.335 43.185,-43.186 V 69.084854 c 0,-23.8506 -19.335,-43.1852 -43.185,-43.1852 z"
     fill="#ffffff"
     id="path1"
     style="stroke-width:11.5659"
     sodipodi:nodetypes="sccssccsssssssssss"
     transform="matrix(0.08646111,0,0,0.08646111,0.11743943,0.07976138)" />
  <g
     clip-path="url(#clip0_367_1685)"
     id="g7"
     transform="matrix(0.08646111,0,0,0.08646111,0.11743943,0.07976138)"
     style="stroke-width:11.5659">
    <g
       id="g1"
       transform="translate(0.22886864,6.8441496)">
      <path
         fill-rule="evenodd"
         clip-rule="evenodd"
         d="M 129.312,59.1064 236.235,119.545 H 148.321 84.4357 V 94.4398 h 55.9893 z"
         fill="#ffffff"
         id="path2"
         style="stroke-width:11.5659" />
      <path
         fill-rule="evenodd"
         clip-rule="evenodd"
         d="M 191.359,215.083 84.4358,154.644 h 87.9142 63.885 v 25.105 h -55.989 z"
         fill="#ffffff"
         id="path3"
         style="stroke-width:11.5659" />
    </g>
  </g>
  <defs
     id="defs8">
    <clipPath
       id="clip0_367_1685">
      <rect
         width="663"
         height="320"
         fill="#ffffff"
         id="rect8"
         x="0"
         y="0" />
    </clipPath>
  </defs>
</svg>
