<?xml version="1.0" encoding="UTF-8" standalone="no"?>
<svg
   id="Layer_1"
   data-name="Layer 1"
   viewBox="0 0 250 249.99999"
   version="1.1"
   sodipodi:docname="accel.svg"
   width="250"
   height="250"
   inkscape:version="1.3.2 (091e20ef0f, 2023-11-25, custom)"
   xmlns:inkscape="http://www.inkscape.org/namespaces/inkscape"
   xmlns:sodipodi="http://sodipodi.sourceforge.net/DTD/sodipodi-0.dtd"
   xmlns="http://www.w3.org/2000/svg"
   xmlns:svg="http://www.w3.org/2000/svg"
   xmlns:rdf="http://www.w3.org/1999/02/22-rdf-syntax-ns#"
   xmlns:cc="http://creativecommons.org/ns#"
   xmlns:dc="http://purl.org/dc/elements/1.1/">
  <sodipodi:namedview
     id="namedview5"
     pagecolor="#ffffff"
     bordercolor="#666666"
     borderopacity="1.0"
     inkscape:showpageshadow="2"
     inkscape:pageopacity="0.0"
     inkscape:pagecheckerboard="0"
     inkscape:deskcolor="#d1d1d1"
     showgrid="false"
     inkscape:zoom="2.728"
     inkscape:cx="80.278592"
     inkscape:cy="172.47067"
     inkscape:window-width="2560"
     inkscape:window-height="1410"
     inkscape:window-x="0"
     inkscape:window-y="0"
     inkscape:window-maximized="0"
     inkscape:current-layer="Layer_1" />
  <defs
     id="defs1">
    <style
       id="style1">.cls-1{fill:none;}.cls-2{clip-path:url(#clip-path);}.cls-3{fill:#5101a0;}</style>
    <clipPath
       id="clip-path"
       transform="translate(-0.42 -1)">
      <rect
         class="cls-1"
         x="0.41999999"
         y="1"
         width="59.029999"
         height="188.00999"
         id="rect1" />
    </clipPath>
  </defs>
  <title
     id="title1">Accel_logo</title>
  <metadata
     id="metadata5">
    <rdf:RDF>
      <cc:Work
         rdf:about="">
        <dc:title>Accel_logo</dc:title>
      </cc:Work>
    </rdf:RDF>
  </metadata>
  <rect
     style="fill:#ffffff;stroke-width:18.8976;stroke-linecap:round;paint-order:stroke fill markers"
     id="rect5"
     width="250"
     height="250"
     x="0"
     y="0" />
  <g
     class="cls-2"
     clip-path="url(#clip-path)"
     id="g5"
     transform="matrix(0,1.1097746,-1.1097746,0,229.8737,92.00957)">
    <path
       class="cls-3"
       d="m 49.23,43.91 a 14.31,14.31 0 0 1 -4.87,2.76 l -0.45,0.16 -0.55,0.16 -0.34,0.1 -0.63,0.16 -0.37,0.08 c -0.35,0.08 -0.72,0.15 -1.09,0.21 a 3.42,3.42 0 0 0 -0.4,0.06 l -0.65,0.08 a 1.94,1.94 0 0 0 -0.43,0 l -0.55,0.05 -6.75,-28 A 11.86,11.86 0 0 0 28,21 12.52,12.52 0 0 0 22.54,25.85 19.55,19.55 0 0 0 19.7,33.6 l -0.07,0.47 a 22.76,22.76 0 0 0 0,5 20.72,20.72 0 0 0 5.36,11.81 19.6,19.6 0 0 0 11.14,6.12 h 0.17 c 0.28,0.05 0.55,0.09 0.86,0.12 0.31,0.03 0.35,0 0.55,0.06 a 2.73,2.73 0 0 1 0.46,0 5.4,5.4 0 0 1 0.8,0 h 1.29 A 19,19 0 0 0 47,55.74 20.61,20.61 0 0 0 59.45,37 21,21 0 0 0 57.27,27.25 20.29,20.29 0 0 0 50.88,19.73 l -1.21,0.48 c 3.78,1.98 8.48,15.64 -0.44,23.7 z m -16.61,-12.74 4,16.65 c -0.5,0 -1,0 -1.47,-0.07 H 35 a 4.61,4.61 0 0 1 -0.48,0 L 33.87,47.67 A 19.69,19.69 0 0 1 30.8,46.97 17.88,17.88 0 0 1 25.6,44.41 12.79,12.79 0 0 1 22,40.52 9.32,9.32 0 0 1 20.68,35.66 q 0,-3.58 2,-5.24 a 6.65,6.65 0 0 1 1.54,-1 c 2.83,-1.11 7.54,-1.03 8.4,1.75 z"
       transform="translate(-0.42,-1)"
       id="path1" />
    <path
       class="cls-3"
       d="m 49.64,93.88 c 3.82,2 8.51,15.64 -0.4,23.7 a 14.66,14.66 0 0 1 -5.28,2.9 21.59,21.59 0 0 1 -6.81,1 21,21 0 0 1 -6.36,-0.94 17.88,17.88 0 0 1 -5.2,-2.56 12.84,12.84 0 0 1 -3.59,-3.82 9.33,9.33 0 0 1 -1.32,-4.86 q 0,-3.58 2,-5.24 a 7.72,7.72 0 0 1 5.08,-1.66 8.21,8.21 0 0 1 2.81,0.42 l -2,-8.5 c -8,3.09 -9.11,13.33 -9.11,15.22 -0.26,16.22 15,25.12 27.43,19.88 a 20.65,20.65 0 0 0 12.47,-18.75 21,21 0 0 0 -2.18,-9.75 20.28,20.28 0 0 0 -6.39,-7.52 z"
       transform="translate(-0.42,-1)"
       id="path2" />
    <path
       class="cls-3"
       d="m 49.64,57 c 3.82,2 8.51,15.64 -0.4,23.7 a 14.59,14.59 0 0 1 -5.24,2.87 21.6,21.6 0 0 1 -6.81,1 21,21 0 0 1 -6.36,-0.94 17.87,17.87 0 0 1 -5.2,-2.55 A 12.93,12.93 0 0 1 22,77.26 9.32,9.32 0 0 1 20.68,72.4 q 0,-3.57 2,-5.24 a 7.72,7.72 0 0 1 5.08,-1.69 8,8 0 0 1 2.81,0.43 l -2,-8.45 c -8,3.07 -9.1,13.31 -9.1,15.18 -0.26,16.22 15,25.12 27.43,19.88 A 20.63,20.63 0 0 0 59.42,73.77 21,21 0 0 0 57.24,64 20.29,20.29 0 0 0 50.85,56.48 Z"
       transform="translate(-0.42,-1)"
       id="path3" />
    <path
       class="cls-3"
       d="m 51.42,7.47 h -51 l 2.92,12 v 0.08 h 1.13 c 0,-0.42 1,-4.05 3.5,-4.05 h 43.27 c 5.46,0 6.25,3.86 6.42,6.47 h 0.91 V 1 h -0.91 c -0.17,2.6 -0.97,6.38 -6.24,6.47 z"
       transform="translate(-0.42,-1)"
       id="path4" />
    <path
       class="cls-3"
       d="m 0.42,152.52 2.91,11.88 v 0.09 h 0.88 c 0,-0.42 1.25,-3.95 3.5,-3 9.98,4.51 43.29,19.14 44.79,19.91 5,2.53 5,6.12 5.16,7.6 h 0.91 v -18.6 h -0.93 c 0,0 0.08,7.06 -3.61,7.06 -2.24,0 -11.05,-3.65 -13.46,-4.64 l -5.91,-24.23 c 0.15,-0.06 15.94,-6.58 19.27,-6.58 3.6,0 3.71,5.79 3.71,6 h 0.91 v -24.27 h -0.91 a 8.8,8.8 0 0 1 -5.2,8.18 C 51,132.65 0.42,152.52 0.42,152.52 Z m 32.2,-3.09 5.46,22.37 C 37.79,171.68 9.27,159.51 8.55,159.17 c 1.19,-0.51 24.07,-9.73 24.07,-9.73 z"
       transform="translate(-0.42,-1)"
       id="path5" />
  </g>
</svg>
