<svg xmlns="http://www.w3.org/2000/svg" width="210" height="210" fill="none"><path d="M0 0h210v210H0z" style="fill:#fff;stroke:none;stroke-width:1.00157"/><path fill="#000" d="M59.797 106.805h-8.471V65.05h20.831v8.53h-12.36v8.066h12.36v8.53h-12.36ZM84.516 98.242h8.01V73.58h-8.01Zm-4.35 8.564v-4.183h-4.12V69.198h4.12V65.05h16.71v4.15h4.12v33.424h-4.12v4.183Zm-3.89-41.624h3.89v4.016h-3.89Zm20.6-.133h4.12v4.15h-4.12zm0 37.574h4.12v4.05h-4.12zm-20.83 0h4.12v4.182h-4.12zM125.716 106.805h-20.832v-8.563h16.481v-8.066h-12.36v-4.15h-4.12V69.199h4.12V65.05h20.831v8.53h-16.48v8.066h12.36v4.15h4.12v16.828h-4.12Zm-20.6-41.623h3.889v4.016h-3.89zm-.231 20.845h4.12v4.149h-4.12zm20.831-4.382h4.12v4.15h-4.12zm0 20.978h4.12v4.05h-4.12zM154.558 106.805h-20.831v-8.563h16.48v-8.066h-12.36v-4.15h-4.12V69.199h4.12V65.05h20.832v8.53h-16.481v8.066h12.36v4.15h4.12v16.828h-4.12zm-20.6-41.623h3.889v4.016h-3.89zm-.231 20.845h4.12v4.149h-4.12zm20.83-4.382h4.122v4.15h-4.121zm0 20.978h4.122v4.05h-4.121zM54.298 144.953v-3.028H51.32v-27.199h6.122v24.027h5.788v-24.027h6.122v27.2h-2.977v3.027zm-2.978-3.028h2.978v3.028H51.32zm15.055 0h2.977v2.931h-2.977zM78.286 144.953h-6.122v-30.227h18.032v30.227h-6.122V120.9h-5.788zM99.129 144.953h-6.122v-30.227h6.122zM114.017 144.953h-6.122V120.9h-5.955v-6.175h18.032v6.175h-5.955zM137.838 144.953h-15.055v-30.227h15.055v6.175h-8.933v5.839h8.933v6.175h-8.933v5.838h8.933zM146.767 138.753h5.789v-17.852h-5.79zm-6.122 6.2v-30.227H155.7v3.004h2.978v24.195H155.7v3.028z"/><path stroke="#000" stroke-width="2.824" d="M173.29 51.947H36.71v106.106h136.58Z"/></svg>