<svg width="144" height="113" viewBox="0 0 144 113" fill="none" xmlns="http://www.w3.org/2000/svg">
<path d="M26.578 58.0099H18.1069V16.2534H38.9385V24.784H26.578V32.8498H38.9385V41.3803H26.578V58.0099Z" fill="black"/>
<path d="M51.2974 49.4463H59.307V24.7841H51.2974V49.4463ZM46.9465 58.01V53.8277H42.8263V20.4026H46.9465V16.2535H63.6579V20.4026H67.778V53.8277H63.6579V58.01H46.9465ZM43.057 16.3863H46.9465V20.4026H43.057V16.3863ZM63.6579 16.2534H67.778V20.4025H63.6579V16.2534ZM63.6579 53.8276H67.778V57.8771H63.6579V53.8276ZM42.8263 53.8276H46.9465V58.0099H42.8263V53.8276Z" fill="black"/>
<path d="M92.4972 58.0099H71.6656V49.4461H88.1463V41.3803H75.7858V37.2312H71.6656V20.4025H75.7858V16.2534H96.6174V24.784H80.1367V32.8498H92.4972V36.9989H96.6174V53.8276H92.4972V58.0099ZM71.8964 16.3862H75.7858V20.4025H71.8964V16.3862ZM71.6657 37.2312H75.7858V41.3803H71.6657V37.2312ZM92.4972 32.8498H96.6174V36.9989H92.4972V32.8498ZM92.4972 53.8276H96.6174V57.8771H92.4972V53.8276Z" fill="black"/>
<path d="M121.339 58.0099H100.508V49.4461H116.988V41.3803H104.628V37.2312H100.508V20.4025H104.628V16.2534H125.46V24.784H108.979V32.8498H121.339V36.9989H125.46V53.8276H121.339V58.0099ZM100.739 16.3862H104.628V20.4025H100.739V16.3862ZM100.508 37.2312H104.628V41.3803H100.508V37.2312ZM121.339 32.8498H125.46V36.9989H121.339V32.8498ZM121.339 53.8276H125.46V57.8771H121.339V53.8276Z" fill="black"/>
<path d="M21.0788 96.157V93.1295H18.1012V65.9307H24.2231V89.9579H30.0115V65.9307H36.1333V93.1295H33.1558V96.157H21.0788ZM18.1012 93.1295H21.0788V96.157H18.1012V93.1295ZM33.1558 93.1295H36.1333V96.0609H33.1558V93.1295Z" fill="black"/>
<path d="M45.0668 96.157H38.9449V65.9307H56.9771V96.157H50.8552V72.1057H45.0668V96.157Z" fill="black"/>
<path d="M65.9102 96.157H59.7883V65.9307H65.9102V96.157Z" fill="black"/>
<path d="M80.7977 96.157H74.6758V72.1057H68.7207V65.9307H86.7528V72.1057H80.7977V96.157Z" fill="black"/>
<path d="M104.619 96.157H89.5642V65.9307H104.619V72.1057H95.6861V77.9443H104.619V84.1193H95.6861V89.9579H104.619V96.157Z" fill="black"/>
<path d="M113.548 89.9579H119.337V72.1057H113.548V89.9579ZM107.426 96.157V65.9307H122.481V68.9341H125.459V93.1295H122.481V96.157H107.426Z" fill="black"/>
<path d="M140.072 3.15186H3.49036V109.257H140.072V3.15186Z" stroke="black" stroke-width="2.82353"/>
</svg>
