<?xml version="1.0" encoding="UTF-8"?>
<svg width="207.22" height="38.67" clip-rule="evenodd" fill-rule="evenodd" stroke-linejoin="round" stroke-miterlimit="2" version="1.1" viewBox="0 0 207.22 38.67" xml:space="preserve" xmlns="http://www.w3.org/2000/svg"><path d="m154.61 32.598 7 0.012h4v-4l3.992-4-14.992-0.047zm10-11.988h9l4 2e-3v-4.002l4-4h-17zm-5-20h30v8h-30z" fill="#b4bbbf" fill-rule="nonzero"/><path d="m161.61 32.62 4-4.01h14v8h-18z" fill="#fff" fill-rule="nonzero"/><path d="m191.61 24.61v-7.995h-14l-8.008 7.995z" fill="#fff" fill-rule="nonzero"/><path d="m206.61 4.6097h-17l-8 8h25z" fill="#fff" fill-rule="nonzero"/><path d="m142.59 8.2097v28.417h-4.768l-0.127-2.988a8.318 8.318 0 0 1-2.67 2.479c-1.081 0.572-2.416 0.89-3.942 0.89-1.335 0-2.606-0.254-3.687-0.699-1.144-0.509-2.162-1.144-2.988-2.034a9.581 9.581 0 0 1-1.971-3.179c-0.508-1.208-0.699-2.606-0.699-4.132s0.254-2.924 0.699-4.196c0.509-1.271 1.145-2.352 1.971-3.242s1.844-1.589 2.988-2.098 2.352-0.763 3.687-0.763c1.526 0 2.797 0.254 3.878 0.827 1.081 0.572 1.971 1.335 2.67 2.415v-11.633h4.959zm-10.426 24.539c1.653 0 2.924-0.572 3.941-1.653s1.526-2.543 1.526-4.323-0.509-3.179-1.526-4.323c-1.017-1.081-2.288-1.653-3.941-1.653-1.59 0-2.925 0.572-3.878 1.653-1.017 1.081-1.526 2.543-1.526 4.323s0.509 3.179 1.526 4.259c1.017 1.145 2.288 1.717 3.878 1.717" fill="#fff" fill-rule="nonzero"/><path d="m113.68 8.2097h4.959v5.849h-4.959zm0 8.773h4.959v19.644h-4.959z" fill="#fff"/><path d="m103.44 19.589c1.59-2.352 5.595-2.606 7.248-2.606v4.577c-2.035 0-4.069 0.064-5.277 0.954s-1.843 2.098-1.843 3.56v10.553h-4.959v-19.644h4.768zm-82.342 11.698h-12.46l-2.162 5.34h-5.467l11.507-26.955h4.768l11.506 26.955h-5.531zm-1.717-4.26-4.513-10.998-4.514 10.998zm37.252-5.763h-12.286v4.267h6.963c-0.219 2.139-1.021 3.846-2.406 5.123-1.385 1.276-3.208 1.914-5.469 1.914-1.288 0-2.461-0.231-3.518-0.693a7.817 7.817 0 0 1-2.717-1.95c-0.753-0.839-1.337-1.848-1.749-3.027-0.414-1.179-0.62-2.486-0.62-3.92 0-1.433 0.206-2.739 0.62-3.919 0.412-1.178 0.996-2.187 1.749-3.026a7.769 7.769 0 0 1 2.734-1.95c1.07-0.462 2.248-0.693 3.538-0.693 2.669 0 4.696 0.642 6.081 1.927l3.284-3.286c-2.486-1.934-5.63-2.907-9.439-2.907-2.114 0-4.023 0.334-5.723 1.002-1.703 0.669-3.161 1.605-4.376 2.807-1.216 1.204-2.151 2.657-2.807 4.357-0.657 1.702-0.985 3.599-0.985 5.688 0 2.066 0.334 3.957 1.003 5.67 0.668 1.714 1.61 3.173 2.825 4.375 1.216 1.204 2.673 2.139 4.375 2.808 1.702 0.668 3.597 1.002 5.688 1.002 2.042 0 3.883-0.334 5.524-1.002 1.64-0.669 3.038-1.604 4.193-2.808 1.154-1.202 2.042-2.661 2.661-4.375 0.621-1.713 0.93-3.604 0.93-5.67 0-0.291-7e-3 -0.577-0.017-0.856-0.014-0.28-0.032-0.565-0.056-0.858m38.768 0h-12.286v4.267h6.963c-0.219 2.139-1.021 3.846-2.406 5.123-1.385 1.276-3.208 1.914-5.469 1.914-1.288 0-2.461-0.231-3.518-0.693a7.817 7.817 0 0 1-2.717-1.95c-0.753-0.839-1.337-1.848-1.749-3.027-0.414-1.179-0.62-2.486-0.62-3.92 0-1.433 0.206-2.739 0.62-3.919 0.412-1.178 0.996-2.187 1.749-3.026a7.764 7.764 0 0 1 2.735-1.95c1.069-0.462 2.247-0.693 3.537-0.693 2.669 0 4.697 0.642 6.081 1.927l3.284-3.286c-2.486-1.934-5.63-2.907-9.438-2.907-2.115 0-4.024 0.334-5.724 1.002-1.703 0.669-3.161 1.605-4.376 2.807-1.216 1.204-2.151 2.657-2.807 4.357-0.657 1.702-0.985 3.599-0.985 5.688 0 2.066 0.334 3.957 1.003 5.67 0.668 1.714 1.61 3.173 2.825 4.375 1.216 1.204 2.673 2.139 4.375 2.808 1.702 0.668 3.597 1.002 5.689 1.002 2.041 0 3.883-0.334 5.523-1.002 1.64-0.669 3.038-1.604 4.193-2.808 1.154-1.202 2.042-2.661 2.661-4.375 0.621-1.713 0.93-3.604 0.93-5.67 0-0.291-7e-3 -0.577-0.017-0.856-0.014-0.28-0.032-0.565-0.056-0.858" fill="#fff" fill-rule="nonzero"/></svg>
