<?xml version="1.0" encoding="UTF-8"?>
<svg width="213.73" height="64.421" version="1.1" viewBox="0 0 213.73 64.421" xmlns="http://www.w3.org/2000/svg"><path d="m31.775 15.419c0.751-0.2582 1.189-1.0971 1.002-1.8716-1.44-4.7758-5.695-10.261-15.206-10.261-8.26 0-15.08 6.3247-15.08 14.005 0 6.841 4.505 11.423 11.263 12.843l6.257 1.3553c3.817 0.839 5.945 3.2269 5.945 6.1956 0 3.5496-2.753 6.3247-8.072 6.3247-5.694 0-8.948-3.485-9.887-7.6154-0.062-0.3872-0.313-0.7099-0.688-0.9035-0.376-0.1937-0.751-0.2582-1.127-0.1937-1.314 0.3873-3.066 0.9036-4.192 1.2263-0.7509 0.2581-1.1889 0.968-1.0638 1.6779 1.1888 6.2602 6.4448 12.778 16.958 12.778 10.137 0 15.706-6.7764 15.706-13.876 0-6.4538-4.192-11.552-12.014-13.166l-6.383-1.3553c-3.441-0.7745-5.193-2.9687-5.193-5.8729 0-3.4851 3.128-6.5829 7.634-6.5829 5.006 0 7.446 2.9687 8.322 5.6148 0.25 0.7744 1.126 1.1617 1.877 0.9035 1.189-0.3227 2.816-0.9035 3.942-1.2262z" fill="#fff"/><path d="m44.54 62.709c0.563 0 1.064-0.3226 1.314-0.9035 2.378-5.2921 14.643-33.302 18.084-41.175 0.251-0.4518 0.188-0.9681-0.062-1.4198-0.313-0.3873-0.751-0.6454-1.252-0.6454h-4.443c-0.625 0-1.126 0.3872-1.376 0.9035-1.627 3.9368-7.822 18.974-7.822 18.974s-6.695-15.166-8.385-18.974c-0.25-0.5808-0.751-0.9035-1.314-0.9035h-4.943c-0.501 0-0.939 0.2581-1.252 0.7099-0.25 0.3872-0.313 0.9681-0.063 1.4198 3.004 6.4538 12.015 25.557 12.015 25.557s-4.443 9.9388-6.383 14.392c-0.188 0.4518-0.188 0.9681 0.125 1.4199 0.251 0.3872 0.689 0.6453 1.189 0.6453z" fill="#fff"/><path d="m74.323 31.828c0-4.1305 2.19-7.4219 6.32-7.4219 4.568 0 6.257 3.0978 6.257 6.9701v17.102c0 0.3872 0.125 0.7745 0.438 1.0326 0.25 0.3227 0.626 0.4518 1.064 0.4518h4.255c0.813 0 1.502-0.6454 1.502-1.4844v-18.393c0-6.9055-3.567-12.456-11.013-12.456-3.379 0-7.009 1.4843-9.011 5.0984 0-2.3233-1.877-4.1949-4.193-4.1949h-1.376c-0.438 0-0.814 0.1291-1.064 0.4517-0.313 0.2582-0.438 0.6454-0.438 1.0326v28.461c0 0.3872 0.125 0.7745 0.438 1.0326 0.25 0.3227 0.626 0.4518 1.064 0.4518h4.255c0.813 0 1.502-0.6454 1.502-1.4844z" fill="#fff"/><path d="m104.93 30.859c0.251-3.356 2.879-6.9701 7.447-6.9701 5.006 0 7.383 3.2914 7.509 6.9701zm17.083 8.6481c-0.688-0.2582-1.502 0.0645-1.815 0.7744-1.126 2.4525-3.316 4.2595-7.133 4.2595-4.505 0-8.135-3.4205-8.322-8.1963h20.962c0.813 0 1.439-0.6454 1.502-1.4198v-0.9681c0-9.9388-5.507-16.328-14.893-16.328-7.697 0-14.83 6.5828-14.83 16.522 0 10.649 7.321 16.844 15.581 16.844 6.633 0 11.201-3.6787 13.203-8.4545 0.188-0.3872 0.188-0.7744 0-1.1616-0.188-0.3873-0.5-0.6454-0.876-0.7745-1.001-0.3227-2.378-0.7744-3.379-1.0971z" fill="#fff"/><path d="m148.85 19.633c0-0.7745-0.626-1.4199-1.377-1.4844h-0.563c-4.005 0-7.384 2.0007-8.823 5.4212 0-2.7752-2.253-5.034-5.006-5.034h-0.563c-0.438 0-0.814 0.1291-1.064 0.4518-0.313 0.2581-0.438 0.6454-0.438 1.0326v28.461c0 0.3873 0.125 0.7745 0.438 1.0326 0.25 0.3227 0.626 0.4518 1.064 0.4518h4.255c0.813 0 1.502-0.6454 1.502-1.4844v-13.488c0-5.8729 2.565-9.2289 8.197-9.2289h0.813c0.439 0.0646 0.814-0.129 1.127-0.3872 0.25-0.2581 0.438-0.6454 0.438-1.0971v-4.6467z" fill="#fff"/><path d="m150.6 51.411c-0.751 0.2582-1.251 1.0326-1.063 1.8071 1.439 5.6793 6.82 10.068 14.267 10.068 11.451 0 15.643-7.8091 15.643-16.199v-26.977c0-0.839-0.688-1.4844-1.502-1.4844h-1.501c-1.064 0-2.065 0.4518-2.816 1.1617-0.751 0.7744-1.189 1.807-1.189 2.8396-1.314-2.5815-4.255-4.5821-9.011-4.5821-8.385 0-14.079 6.9055-14.079 15.295 0 8.8417 5.944 15.296 14.079 15.296 4.443 0 7.509-2.1298 8.823-4.5822v3.2914c0 6.3893-2.878 9.4225-8.635 9.4225-3.692 0-6.383-2.1942-7.321-5.3566-0.251-0.7744-1.002-1.2262-1.815-1.0326-1.126 0.3227-2.753 0.7745-3.88 1.0326zm14.017-9.1644c-4.756 0-7.947-3.4205-7.947-8.9062 0-5.3566 3.317-8.8417 7.947-8.8417 4.505 0 7.822 3.4851 7.822 8.8417 0 5.4212-3.191 8.9062-7.822 8.9062z" fill="#fff"/><path d="m193.22 62.709c0.563 0 1.064-0.3226 1.314-0.9035 2.378-5.2921 14.642-33.302 18.084-41.175 0.25-0.4518 0.188-0.9681-0.063-1.4198-0.312-0.3873-0.75-0.6454-1.251-0.6454h-4.443c-0.626 0-1.126 0.3872-1.376 0.9035-1.627 3.9368-7.822 18.974-7.822 18.974s-6.696-15.166-8.385-18.974c-0.251-0.5808-0.751-0.9035-1.314-0.9035h-4.944c-0.5 0-0.938 0.2581-1.251 0.7099-0.25 0.3872-0.313 0.9681-0.063 1.4198 3.004 6.4538 12.015 25.557 12.015 25.557s-4.443 9.9388-6.383 14.392c-0.188 0.4518-0.188 0.9681 0.125 1.4199 0.25 0.3872 0.688 0.6453 1.189 0.6453z" fill="#fff"/></svg>
