<?xml version="1.0" encoding="UTF-8"?>
<svg width="610" height="190" fill="none" viewBox="0 0 610 190" xmlns="http://www.w3.org/2000/svg"><g clip-path="url(#clip0_2_50)"><path d="m149.96 6.9541c6.813-6.7904 17.061-8.819 25.963-5.1445h4e-3c8.902 3.6746 14.705 12.335 14.705 21.938v142.51c0 13.114-10.667 23.746-23.824 23.746s-23.825-10.632-23.825-23.746v-85.185l-30.82 30.72c-9.302 9.272-24.389 9.272-33.691 0l-30.82-30.72v85.185c0 13.114-10.667 23.746-23.824 23.746s-23.824-10.632-23.824-23.746v-142.51c0-9.6064 5.8029-18.263 14.705-21.938 8.9021-3.6745 19.15-1.6459 25.963 5.1445l54.644 54.466 54.644-54.466zm229.12-6.9541c13.153 1.1609e-4 23.82 10.632 23.82 23.746v71.254c0 52.383-42.757 95-95.312 95s-95.313-42.617-95.313-95v-71.254c0-13.114 10.668-23.746 23.821-23.746 13.153 0 23.82 10.632 23.82 23.746v71.254c0 26.197 21.385 47.511 47.668 47.511s47.668-21.314 47.668-47.511v-71.254c0-13.114 10.663-23.746 23.82-23.746h8e-3zm190.25 6.9541c9.303-9.272 24.389-9.272 33.691 0 9.303 9.2719 9.303 24.308 0 33.58l-54.644 54.466 54.644 54.465c9.303 9.272 9.303 24.309 0 33.581-9.302 9.272-24.388 9.272-33.691 0l-54.644-54.466-54.645 54.466c-9.303 9.272-24.389 9.272-33.691 0-9.303-9.272-9.303-24.309 0-33.581l54.644-54.465-54.644-54.466c-9.303-9.2719-9.303-24.308 0-33.58 9.302-9.272 24.388-9.272 33.691 0l54.645 54.465 54.644-54.465zm-402.53 147.52c-6.527 0-11.82 5.274-11.82 11.78 0 6.505 5.293 11.78 11.82 11.78s11.818-5.275 11.818-11.78c0-6.506-5.291-11.78-11.818-11.78zm419.37-4e-3c-6.527 0-11.818 5.274-11.819 11.779 0 6.506 5.292 11.78 11.819 11.78s11.818-5.275 11.818-11.78-5.291-11.779-11.818-11.779zm-207.1-142.51c-6.527 0-11.818 5.2747-11.818 11.78s5.291 11.78 11.818 11.78c6.527-1e-4 11.819-5.2747 11.819-11.78s-5.292-11.78-11.819-11.78z" fill="#fff"/></g><defs><clipPath id="clip0_2_50"><rect width="610" height="190" fill="#fff"/></clipPath></defs></svg>
