<?xml version="1.0" encoding="UTF-8"?>
<svg width="3091.5" height="734.45" version="1.1" viewBox="0 0 3091.5 734.45" xmlns="http://www.w3.org/2000/svg"><path d="m20.354 309.79a357.92 357.92 0 0 0-3.27 35.448h534.74c-1.868-3.648-4.376-6.937-6.906-10.156-91.417-118.11-140.59-107.87-210.94-110.87-23.453-0.965-39.359-1.352-132.71-1.352-49.965 0-104.29 0.127-157.18 0.267-6.847 18.483-13.451 36.399-16.667 50.972h274.02v35.687zm535.68 71.171h-538.68c0.564 9.522 1.452 18.918 2.734 28.187h497.33c22.171 0 34.581-12.579 38.612-28.187zm-508 125.54s82.448 202.44 320.68 206.04c142.39 0 264.74-84.567 320.31-206.04z" fill="#fff"/><path d="m368.71 8.5418c-131.66 0-246.22 72.298-306.72 179.17 47.279-0.098 139.36-0.155 139.36-0.155h0.021v-0.035c108.84 0 112.88 0.486 134.14 1.374l13.164 0.486c45.857 1.528 102.22 6.451 146.57 40.005 24.074 18.199 58.831 58.366 79.55 86.982 19.154 26.469 24.665 56.895 11.642 86.047-11.988 26.792-37.78 42.773-69.014 42.773h-488.86s2.91 12.336 7.274 25.953h667.31a351.08 351.08 0 0 0 17.94-110.45c0.01-194.47-157.76-352.15-352.38-352.15zm706.51 499h83.04v-139.22h60.59l74.41 139.22h91.66l-83.42-152.64c44.68-19.176 69.42-58.104 69.42-111.8 0-78.047-51.58-128.29-140.75-128.29h-154.95zm83.04-205.95v-118.89h55.99c47.94 0 71.14 21.286 71.14 60.405 0 38.928-23.2 58.487-70.76 58.487zm353.8 211.51c43.53 0 71.71-18.984 86.1-46.406h2.3v40.845h77.47v-198.66c0-70.184-59.45-99.716-125.03-99.716-70.57 0-116.97 33.75-128.29 87.443l75.56 6.137c5.56-19.56 23.01-33.942 52.35-33.942 27.8 0 43.72 13.999 43.72 38.161v1.15c0 18.985-20.14 21.477-71.34 26.463-58.29 5.37-110.64 24.929-110.64 90.703 0 58.296 41.61 87.827 97.8 87.827zm23.39-56.378c-25.12 0-43.15-11.697-43.15-34.133 0-23.012 18.99-34.326 47.75-38.353 17.84-2.492 46.98-6.711 56.76-13.231v31.257c0 30.874-25.5 54.46-61.36 54.46zm205.86 50.817h81.69v-294.54h-81.69zm41.03-332.51c24.36 0 44.3-18.601 44.3-41.421 0-22.627-19.94-41.228-44.3-41.228-24.16 0-44.1 18.601-44.1 41.228 0 22.82 19.94 41.421 44.1 41.421zm187.79-60.213h-81.69v392.73h81.69zm123.54 392.73h86.29l50.63-185.24h3.64l50.62 185.24h86.49l79.96-294.54h-82.45l-44.88 196.75h-2.49l-48.32-196.75h-81.12l-47.56 197.9h-2.68l-45.64-197.9h-82.65zm485.2 5.561c43.53 0 71.72-18.984 86.1-46.406h2.3v40.845h77.48v-198.66c0-70.184-59.45-99.716-125.03-99.716-70.57 0-116.98 33.75-128.29 87.443l75.55 6.137c5.56-19.56 23.01-33.942 52.35-33.942 27.81 0 43.73 13.999 43.73 38.161v1.15c0 18.985-20.14 21.477-71.34 26.463-58.3 5.37-110.65 24.929-110.65 90.703 0 58.296 41.62 87.827 97.8 87.827zm23.4-56.378c-25.12 0-43.15-11.697-43.15-34.133 0-23.012 18.99-34.326 47.75-38.353 17.83-2.492 46.98-6.711 56.76-13.231v31.257c0 30.874-25.5 54.46-61.36 54.46zm245.74 161.27c60.79 0 93-31.066 109.69-78.623l114.48-325.99-86.49-0.383-61.55 216.31h-3.07l-60.98-216.31h-85.91l105.66 302.98-4.79 12.464c-10.74 27.614-31.26 28.956-60.02 20.135l-18.41 60.98c11.69 4.986 30.68 8.438 51.39 8.438z" fill="#fff"/></svg>
