<svg width="95" height="28" viewBox="0 0 95 28" fill="none" xmlns="http://www.w3.org/2000/svg">
<g clip-path="url(#clip0_843_851)">
<path d="M36.3823 6.64917H34.0233V21.005H40.8133V18.8943H36.3823V6.64917Z" fill="white"/>
<path d="M49.1396 12.741C48.8369 12.2638 48.4102 11.8874 47.8592 11.612C47.3044 11.3404 46.7495 11.2007 46.1869 11.2007C45.4614 11.2007 44.7979 11.3326 44.1965 11.6003C43.5951 11.868 43.0791 12.2327 42.6484 12.6983C42.2177 13.1639 41.884 13.6994 41.6435 14.3085C41.4029 14.9177 41.2827 15.5579 41.2827 16.2252C41.2827 16.8926 41.4029 17.5522 41.6435 18.1536C41.884 18.755 42.2177 19.2904 42.6484 19.7521C43.0791 20.2177 43.5951 20.5824 44.1965 20.8502C44.7979 21.1179 45.4614 21.2498 46.1869 21.2498C46.7457 21.2498 47.3044 21.114 47.8592 20.8385C48.414 20.5669 48.8408 20.1906 49.1396 19.7094V21.0015H51.3745V11.4451H49.1396V12.7371V12.741ZM48.9339 17.397C48.7981 17.7656 48.6041 18.0876 48.3597 18.3592C48.1153 18.6347 47.8165 18.852 47.4673 19.0149C47.1181 19.1779 46.7301 19.2594 46.3072 19.2594C45.8843 19.2594 45.5002 19.1779 45.1587 19.0149C44.8173 18.852 44.5224 18.6308 44.278 18.3592C44.0335 18.0876 43.8434 17.7656 43.7154 17.397C43.5835 17.0284 43.5214 16.6365 43.5214 16.2291C43.5214 15.8217 43.5874 15.4298 43.7154 15.0612C43.8434 14.6926 44.0335 14.3706 44.278 14.099C44.5224 13.8274 44.8173 13.6063 45.1587 13.4433C45.5002 13.2803 45.8843 13.1989 46.3072 13.1989C46.7301 13.1989 47.1181 13.2803 47.4673 13.4433C47.8165 13.6063 48.1114 13.8274 48.3597 14.099C48.6041 14.3745 48.7981 14.6926 48.9339 15.0612C49.0697 15.4298 49.1396 15.8217 49.1396 16.2291C49.1396 16.6365 49.0697 17.0284 48.9339 17.397Z" fill="white"/>
<path d="M67.3134 12.741C67.0107 12.2638 66.5839 11.8874 66.0329 11.612C65.4781 11.3404 64.9233 11.2007 64.3607 11.2007C63.6351 11.2007 62.9717 11.3326 62.3703 11.6003C61.7689 11.868 61.2528 12.2327 60.8222 12.6983C60.3915 13.1639 60.0578 13.6994 59.8173 14.3085C59.5767 14.9177 59.4564 15.5579 59.4564 16.2252C59.4564 16.8926 59.5767 17.5522 59.8173 18.1536C60.0578 18.755 60.3915 19.2904 60.8222 19.7521C61.2528 20.2177 61.7689 20.5824 62.3703 20.8502C62.9717 21.1179 63.6351 21.2498 64.3607 21.2498C64.9194 21.2498 65.4781 21.114 66.0329 20.8385C66.5878 20.5669 67.0146 20.1906 67.3134 19.7094V21.0015H69.5482V11.4451H67.3134V12.7371V12.741ZM67.1077 17.397C66.9719 17.7656 66.7779 18.0876 66.5335 18.3592C66.289 18.6347 65.9903 18.852 65.6411 19.0149C65.2919 19.1779 64.9039 19.2594 64.481 19.2594C64.058 19.2594 63.6739 19.1779 63.3325 19.0149C62.9911 18.852 62.6962 18.6308 62.4517 18.3592C62.2073 18.0876 62.0172 17.7656 61.8891 17.397C61.7572 17.0284 61.6951 16.6365 61.6951 16.2291C61.6951 15.8217 61.7611 15.4298 61.8891 15.0612C62.0172 14.6926 62.2073 14.3706 62.4517 14.099C62.6962 13.8274 62.9911 13.6063 63.3325 13.4433C63.6739 13.2803 64.058 13.1989 64.481 13.1989C64.9039 13.1989 65.2919 13.2803 65.6411 13.4433C65.9903 13.6063 66.2852 13.8274 66.5335 14.099C66.7779 14.3745 66.9719 14.6926 67.1077 15.0612C67.2435 15.4298 67.3134 15.8217 67.3134 16.2291C67.3134 16.6365 67.2435 17.0284 67.1077 17.397Z" fill="white"/>
<path d="M94.0735 6.64917H91.8386V21.005H94.0735V6.64917Z" fill="white"/>
<path d="M53.1398 21.0051H55.3747V13.6487H59.212V11.4487H53.1398V21.0051Z" fill="white"/>
<path d="M78.511 11.4487L75.7019 18.7664L72.8928 11.4487H70.6269L74.2973 21.0051H77.1064L80.7769 11.4487H78.511Z" fill="white"/>
<path d="M85.6501 11.2046C82.9108 11.2046 80.7458 13.455 80.7458 16.2292C80.7458 19.2982 82.8449 21.2537 85.9372 21.2537C87.6677 21.2537 88.7735 20.5902 90.1237 19.1508L88.6144 17.9829C88.6144 17.9829 87.4737 19.4806 85.7743 19.4806C83.7955 19.4806 82.9652 17.8859 82.9652 17.0633H90.3837C90.7717 13.905 88.6958 11.2085 85.654 11.2085L85.6501 11.2046ZM82.969 15.3988C82.9845 15.2165 83.2445 12.9816 85.6307 12.9816C88.0169 12.9816 88.3079 15.2165 88.3273 15.3988H82.969Z" fill="white"/>
<path d="M27.2178 6.53723C27.2178 6.53723 27.2062 6.51395 27.2023 6.50231C27.1946 6.47903 27.1868 6.45576 27.1752 6.43636C27.1674 6.42084 27.1558 6.41308 27.148 6.39756C27.1364 6.38204 27.1247 6.36264 27.1092 6.34712C27.0975 6.33548 27.082 6.32772 27.0665 6.31608C27.051 6.30444 27.0355 6.28893 27.0199 6.28117L21.9139 3.34014C21.782 3.26642 21.619 3.26642 21.491 3.34014L16.385 6.28117C16.3695 6.29281 16.3539 6.30444 16.3384 6.31608C16.3229 6.32772 16.3074 6.33548 16.2957 6.34712C16.2802 6.36264 16.2686 6.37816 16.2569 6.39756C16.2492 6.4092 16.2375 6.42084 16.2298 6.43636C16.2181 6.45576 16.2104 6.47903 16.2026 6.50231C16.1987 6.51395 16.191 6.52559 16.1871 6.53723C16.1793 6.57215 16.1716 6.61096 16.1716 6.64975V12.233L11.9152 14.6813V3.75919C11.9152 3.72039 11.9114 3.68546 11.8997 3.64666C11.8997 3.63503 11.8881 3.62339 11.8842 3.61175C11.8764 3.58847 11.8687 3.56518 11.857 3.54578C11.8493 3.53026 11.8377 3.5225 11.8299 3.50698C11.8183 3.49146 11.8066 3.47207 11.7911 3.45655C11.7794 3.44491 11.7639 3.43714 11.7484 3.4255C11.7329 3.41386 11.7174 3.39835 11.7018 3.39059L6.5958 0.449577C6.46388 0.375857 6.30094 0.375857 6.1729 0.449577L1.06685 3.39059C1.05133 3.40223 1.03581 3.41386 1.02029 3.4255C1.00477 3.43714 0.989256 3.44491 0.977616 3.45655C0.962096 3.47207 0.950466 3.48758 0.938826 3.50698C0.931066 3.51862 0.919423 3.53026 0.911664 3.54578C0.900024 3.56518 0.892261 3.58847 0.884501 3.61175C0.880621 3.62339 0.87287 3.63503 0.86899 3.64666C0.86123 3.68158 0.853455 3.72039 0.853455 3.75919V21.2501C0.853455 21.4014 0.934929 21.5411 1.06685 21.6187L11.2789 27.4968C11.3022 27.5085 11.3255 27.5162 11.3488 27.524C11.3604 27.5279 11.372 27.5356 11.3798 27.5356C11.4147 27.5434 11.4535 27.5511 11.4885 27.5511C11.5234 27.5511 11.5622 27.5473 11.5971 27.5356C11.6087 27.5356 11.6165 27.5279 11.6242 27.524C11.6514 27.5162 11.6747 27.5085 11.698 27.4929L21.91 21.6148C22.042 21.5372 22.1234 21.3975 22.1234 21.2462V15.6629L27.0161 12.8461C27.148 12.7685 27.2295 12.6288 27.2295 12.4775V6.64587C27.2295 6.60707 27.2256 6.57216 27.2139 6.53336L27.2178 6.53723ZM11.4885 20.7573L7.23989 18.3556L11.7018 15.7871L16.5945 12.9702L20.8469 15.4185L17.7274 17.1994L11.4885 20.7612V20.7573ZM21.2776 9.8352V14.6813L19.4889 13.6531L17.0213 12.233V7.38695L18.8099 8.41515L21.2776 9.8352ZM21.7044 4.2015L25.9568 6.64975L21.7044 9.09801L17.452 6.64975L21.7044 4.2015ZM8.59788 16.5941L6.80922 17.6223V6.94464L9.27687 5.52457L11.0655 4.49638V15.174L8.59788 16.5941ZM6.38629 1.31092L10.6387 3.75919L6.38629 6.20744L2.13384 3.75919L6.38629 1.31092ZM1.70705 4.49638L3.49571 5.52457L5.96336 6.94464V18.3595C5.96336 18.375 5.96725 18.3905 5.97113 18.4061C5.97113 18.4255 5.97114 18.4487 5.9789 18.4681C5.98278 18.4836 5.99053 18.4992 5.99829 18.5147C6.00605 18.5341 6.00993 18.5496 6.02157 18.569C6.02933 18.5845 6.04098 18.5962 6.05262 18.6117C6.06426 18.6272 6.07201 18.6427 6.08753 18.6583C6.09917 18.6699 6.1147 18.6777 6.12634 18.6893C6.14186 18.7009 6.1535 18.7164 6.1729 18.7242L11.0616 21.4906V26.3871L1.69928 20.9979V4.49249L1.70705 4.49638ZM21.2815 21.0017L11.9191 26.391V21.4945L18.8526 17.5369L21.2815 16.1518V21.0017ZM26.3875 12.233L22.1312 14.6813V9.8352L24.5989 8.41515L26.3875 7.38695V12.233Z" fill="white"/>
</g>
<defs>
<clipPath id="clip0_843_851">
<rect width="95" height="28" fill="white"/>
</clipPath>
</defs>
</svg>
