<svg width="88" height="15" viewBox="0 0 88 15" fill="none" xmlns="http://www.w3.org/2000/svg">
<g clip-path="url(#clip0_843_837)">
<path fill-rule="evenodd" clip-rule="evenodd" d="M59.4087 2.02083C59.4087 1.272 60.0178 0.662842 60.7667 0.662842H71.6306C72.3794 0.662842 72.9886 1.272 72.9886 2.02083V14.2427H66.7418V10.1688H65.6555V14.2427H59.4087V2.02083ZM67.8282 6.90959V5.8232H64.5691V6.90959H67.8282Z" fill="white"/>
<path fill-rule="evenodd" clip-rule="evenodd" d="M0.743652 2.02083C0.743652 1.272 1.35281 0.662842 2.10164 0.662842H12.9655C13.7144 0.662842 14.3235 1.272 14.3235 2.02083V14.2427H8.0768V10.1688H6.99039V14.2427H0.743652V2.02083ZM9.16316 6.90959V5.8232H5.90403V6.90959H9.16316Z" fill="white"/>
<path d="M15.41 2.02083C15.41 1.272 16.0192 0.662842 16.768 0.662842H27.6319C28.3808 0.662842 28.9899 1.272 28.9899 2.02083V4.73681H22.7431V3.65042H21.6568V5.8232H27.6319C28.3808 5.8232 28.9899 6.43235 28.9899 7.18119V12.8847C28.9899 13.6336 28.3808 14.2427 27.6319 14.2427H16.768C16.0192 14.2427 15.41 13.6336 15.41 12.8847V10.1688H21.6568V11.2552H22.7431V9.08237H16.768C16.0192 9.08237 15.41 8.47321 15.41 7.72438V2.02083Z" fill="white"/>
<path d="M43.6561 2.83562H37.4093V0.662842H31.1626V2.83562H30.0762V7.99598H31.1626V12.8847C31.1626 13.6336 31.7717 14.2427 32.5206 14.2427H43.6561V9.08237H37.4093V7.99598H42.2981C43.0469 7.99598 43.6561 7.38682 43.6561 6.63799V2.83562Z" fill="white"/>
<path fill-rule="evenodd" clip-rule="evenodd" d="M58.3223 2.02083C58.3223 1.272 57.7132 0.662842 56.9643 0.662842H44.7424V14.2427H50.9892V10.1688H52.0756V14.2427H58.3223V9.08237H55.6063V7.99598H56.9643C57.7132 7.99598 58.3223 7.38682 58.3223 6.63799V2.02083ZM53.1619 5.8232V6.90959H49.9028V5.8232H53.1619Z" fill="white"/>
<path d="M80.3218 9.08237H87.655V14.2427H74.0751V0.662842H80.3218V9.08237Z" fill="white"/>
</g>
<defs>
<clipPath id="clip0_843_837">
<rect width="88" height="15" fill="white"/>
</clipPath>
</defs>
</svg>
