<svg width="96" height="19" viewBox="0 0 96 19" fill="none" xmlns="http://www.w3.org/2000/svg">
<g clip-path="url(#clip0_843_839)">
<path d="M39.1642 0.756247C38.6637 0.814447 38.07 0.989046 37.62 1.21796C36.3823 1.84264 35.5248 3.04543 35.2183 4.57025C34.9661 5.83124 35.1019 7.34443 35.5597 8.40366C36.2038 9.88192 37.4919 10.7743 39.3155 10.9955C39.6492 11.0343 40.7511 11.0304 41.1119 10.9838C41.7444 10.9062 42.3225 10.7937 42.7687 10.6579C43.0248 10.5803 43.2964 10.4756 43.3158 10.4445C43.3274 10.4251 43.0442 8.62482 43.0248 8.60154C43.017 8.59378 42.9549 8.6093 42.889 8.63646C42.7376 8.69854 42.3496 8.80717 42.0392 8.87701C41.2555 9.05549 40.27 9.0943 39.591 8.9779C39.0129 8.87702 38.5744 8.67138 38.2175 8.32606C37.779 7.90702 37.5656 7.44919 37.4609 6.68096L37.4492 6.58784H43.9288L43.9482 6.45203C43.9792 6.19596 43.9637 5.15225 43.9249 4.80305C43.8357 3.97662 43.6611 3.35582 43.3662 2.77383C42.7648 1.60208 41.6706 0.895926 40.2312 0.756247C39.979 0.729088 39.3931 0.732968 39.1681 0.756247H39.1642ZM40.1458 2.68071C40.7705 2.81263 41.271 3.25882 41.5116 3.90678C41.6008 4.13958 41.6862 4.60905 41.6862 4.85349V4.91557H37.4609L37.4725 4.85737C37.4803 4.82633 37.4919 4.74485 37.5036 4.67889C37.585 4.20554 37.7984 3.70114 38.0468 3.40627C38.4231 2.95619 38.8654 2.71563 39.4435 2.64579C39.5755 2.63027 39.9984 2.65355 40.1419 2.68071H40.1458Z" fill="white"/>
<path d="M64.2482 0.756247C63.7477 0.814447 63.154 0.989046 62.7039 1.21796C61.4662 1.84264 60.6088 3.04543 60.3023 4.57025C60.0501 5.83124 60.1858 7.34443 60.6437 8.40366C61.2878 9.88192 62.5759 10.7743 64.3995 10.9955C64.7332 11.0343 65.8351 11.0304 66.1959 10.9838C66.8284 10.9062 67.4065 10.7937 67.8527 10.6579C68.1087 10.5803 68.3803 10.4756 68.3997 10.4445C68.4114 10.4251 68.1281 8.62482 68.1087 8.60154C68.101 8.59378 68.0389 8.6093 67.9729 8.63646C67.8216 8.69854 67.4336 8.80717 67.1232 8.87701C66.3395 9.05549 65.354 9.0943 64.675 8.9779C64.0969 8.87702 63.6584 8.67138 63.3015 8.32606C62.863 7.90702 62.6496 7.44919 62.5449 6.68096L62.5332 6.58784H69.0128L69.0322 6.45203C69.0632 6.19596 69.0477 5.15225 69.0089 4.80305C68.9197 3.97662 68.7451 3.35582 68.4502 2.77383C67.8488 1.60208 66.7546 0.895926 65.3152 0.756247C65.063 0.729088 64.4771 0.732968 64.2521 0.756247H64.2482ZM65.2298 2.68071C65.8545 2.81263 66.355 3.25882 66.5956 3.90678C66.6848 4.13958 66.7702 4.60905 66.7702 4.85349V4.91557H62.5449L62.5565 4.85737C62.5643 4.82633 62.5759 4.74485 62.5876 4.67889C62.669 4.20554 62.8824 3.70114 63.1307 3.40627C63.5071 2.95619 63.9494 2.71563 64.5275 2.64579C64.6595 2.63027 65.0824 2.65355 65.2259 2.68071H65.2298Z" fill="white"/>
<path d="M90.725 0.756247C90.2245 0.814447 89.6309 0.989046 89.1808 1.21796C87.9431 1.84264 87.0856 3.04543 86.7791 4.57025C86.5269 5.83124 86.6627 7.34443 87.1205 8.40366C87.7646 9.88192 89.0528 10.7743 90.8764 10.9955C91.21 11.0343 92.312 11.0304 92.6728 10.9838C93.3052 10.9062 93.8833 10.7937 94.3295 10.6579C94.5856 10.5803 94.8572 10.4756 94.8766 10.4445C94.8882 10.4251 94.605 8.62482 94.5856 8.60154C94.5779 8.59378 94.5158 8.6093 94.4498 8.63646C94.2985 8.69854 93.9105 8.80717 93.6001 8.87701C92.8163 9.05549 91.8308 9.0943 91.1518 8.9779C90.5737 8.87702 90.1353 8.67138 89.7783 8.32606C89.3399 7.90702 89.1265 7.44919 89.0217 6.68096L89.0101 6.58784H95.4896L95.509 6.45203C95.5401 6.19596 95.5246 5.15225 95.4858 4.80305C95.3965 3.97662 95.2219 3.35582 94.9271 2.77383C94.3257 1.60208 93.2315 0.895926 91.792 0.756247C91.5398 0.729088 90.954 0.732968 90.7289 0.756247H90.725ZM91.7067 2.68071C92.3313 2.81263 92.8319 3.25882 93.0724 3.90678C93.1617 4.13958 93.247 4.60905 93.247 4.85349V4.91557H89.0217L89.0334 4.85737C89.0411 4.82633 89.0528 4.74485 89.0644 4.67889C89.1459 4.20554 89.3593 3.70114 89.6076 3.40627C89.984 2.95619 90.4263 2.71563 91.0044 2.64579C91.1363 2.63027 91.5592 2.65355 91.7028 2.68071H91.7067Z" fill="white"/>
<path d="M48.6157 0.767729C47.8553 0.818169 47.5177 0.853091 46.959 0.946211C46.4042 1.03545 45.7058 1.18289 45.4691 1.26049L45.4031 1.28377V10.7936H47.6846V6.836C47.6846 3.68546 47.6923 2.87455 47.7117 2.86679C47.7777 2.84351 48.5537 2.75428 48.8563 2.73488C49.6129 2.68056 50.0746 2.80083 50.4122 3.13839C50.6915 3.41775 50.8429 3.80575 50.9515 4.53518C50.9825 4.7447 50.9864 5.04734 50.9903 7.77883L50.998 10.7936H53.2989V8.09311C53.2989 4.55458 53.2834 4.22478 53.0932 3.48758C53.0622 3.36342 53.035 3.25091 53.035 3.23927C53.035 3.20823 53.5666 2.95991 53.811 2.87843C54.168 2.76203 54.393 2.72323 54.7888 2.72711C55.2621 2.72711 55.557 2.79695 55.8364 2.97931C56.2942 3.27807 56.527 3.94154 56.5891 5.12493C56.6007 5.34997 56.6085 6.68468 56.6085 8.15907V10.7897H58.8938L58.886 7.69347C58.8783 4.55846 58.8744 4.4731 58.8007 3.90274C58.6649 2.87067 58.3778 2.19168 57.8656 1.67952C57.2099 1.02769 56.2826 0.72893 55.0177 0.75609C54.5172 0.76773 54.2417 0.810409 53.7218 0.961728C53.2019 1.11305 52.7596 1.29929 52.3289 1.56312C52.2202 1.62908 52.1271 1.6834 52.1194 1.6834C52.1116 1.6834 52.0573 1.64072 51.9952 1.58252C51.7314 1.34197 51.2347 1.06649 50.8351 0.938449C50.6139 0.86861 50.2841 0.806531 49.9737 0.775491C49.7914 0.756091 48.8563 0.75221 48.6196 0.767729H48.6157Z" fill="white"/>
<path d="M73.6376 0.767822C73.3389 0.791102 72.8345 0.845419 72.6172 0.880339C72.0973 0.965698 71.1467 1.20238 70.6578 1.36922L70.5181 1.41578L70.5104 6.10278V10.7937H71.6472H72.7879V2.9212L72.8733 2.89793C73.1604 2.82033 73.6687 2.74661 74.0218 2.72721C74.3011 2.71169 74.8327 2.74273 75.1314 2.79317C75.3603 2.82808 75.7018 2.90568 75.9385 2.97552C76.0316 3.00268 76.1131 3.0182 76.1169 3.01432C76.1402 2.99104 76.5088 1.11702 76.4933 1.10538C76.4661 1.07822 76.0626 0.973462 75.76 0.915263C75.209 0.806624 74.9141 0.77946 74.3166 0.7717C74.0062 0.7717 73.6997 0.7717 73.6415 0.7717L73.6376 0.767822Z" fill="white"/>
<path d="M80.8389 0.775813C80.1599 0.845652 79.5314 1.02413 78.9843 1.30349C78.3402 1.62941 77.797 2.1144 77.3974 2.70803C76.8193 3.57327 76.536 4.74502 76.6059 5.99437C76.6408 6.60352 76.7145 7.04972 76.862 7.50367C77.0715 8.15939 77.3625 8.66766 77.7737 9.09446C78.2859 9.6299 78.864 9.95581 79.6361 10.1498C79.9737 10.2352 80.222 10.2662 80.6643 10.2778C81.1144 10.2895 81.3976 10.2701 81.7546 10.2002C81.9874 10.1537 82.6004 9.95969 82.8138 9.86269C82.8875 9.82777 82.9574 9.80061 82.9729 9.80061C83.0001 9.80061 82.9729 10.468 82.938 10.7046C82.8604 11.1896 82.678 11.5505 82.3715 11.8415C82.0999 12.0937 81.7119 12.2566 81.161 12.342C80.9902 12.3692 80.8118 12.3769 80.4044 12.3769C79.6322 12.3769 79.1279 12.3148 78.4372 12.1402C78.154 12.0704 77.7233 11.9307 77.5526 11.857C77.5254 11.8454 77.5138 11.857 77.506 11.8919C77.4323 12.2101 77.1141 13.7582 77.1219 13.7776C77.1335 13.8086 77.603 13.9522 78.0027 14.0492C78.8252 14.2471 79.5624 14.3324 80.4199 14.3324C82.5383 14.3324 83.939 13.731 84.6607 12.5166C84.9206 12.0704 85.1224 11.4457 85.2039 10.8172C85.2698 10.3166 85.2776 9.86657 85.2776 5.58697V1.29185L85.2039 1.27245C84.4201 1.06681 83.4657 0.892208 82.6935 0.814609C82.3249 0.779689 81.1144 0.760293 80.8467 0.787452L80.8389 0.775813ZM82.0107 2.67312C82.3327 2.69252 82.9457 2.78175 82.9729 2.80891C82.9845 2.82055 82.9884 3.96903 82.9845 5.36581L82.9768 7.91107L82.7556 8.02359C81.9563 8.43874 80.9592 8.52022 80.253 8.22535C79.8146 8.04299 79.4072 7.64723 79.2093 7.2088C78.9571 6.6462 78.864 5.75381 78.9765 4.95842C79.1123 3.99618 79.5818 3.26287 80.2918 2.90591C80.7225 2.68863 81.2153 2.62268 82.0029 2.67312H82.0107Z" fill="white"/>
<path d="M14.9998 1.21016C13.5293 1.32656 12.5011 1.59816 11.4457 2.14524C10.6697 2.54875 10.0451 3.04539 9.49412 3.7011L9.401 3.81362H10.6038C11.7911 3.81362 12.0471 3.82138 12.9085 3.8951C15.7913 4.13566 19.3454 4.91166 22.1079 5.89329C23.3728 6.34336 24.6066 6.89044 25.5766 7.42587C25.724 7.50735 25.8637 7.58495 25.887 7.59659C25.9297 7.61987 25.9258 7.60823 25.8521 7.38707C25.3671 5.9864 24.4281 4.60901 23.299 3.63902C21.6889 2.26551 19.7372 1.52832 16.9281 1.24508C16.6294 1.21404 15.2481 1.18688 14.9998 1.21016ZM10.8366 3.00271C11.05 3.09195 11.0655 3.35967 10.8676 3.46055C10.6659 3.56531 10.4447 3.4489 10.4447 3.23939C10.4447 3.04539 10.6465 2.92123 10.8327 3.00271H10.8366ZM12.1713 3.04151C12.3886 3.13075 12.4041 3.40623 12.1985 3.50323C12.0083 3.59247 11.7794 3.47994 11.7794 3.28983C11.7794 3.08419 11.9734 2.95615 12.1674 3.03763L12.1713 3.04151ZM13.5254 3.12299C13.6845 3.18895 13.7466 3.35579 13.6612 3.49159C13.5254 3.71662 13.1374 3.62739 13.1374 3.37131C13.1374 3.25879 13.184 3.18507 13.281 3.13463C13.3818 3.08419 13.4362 3.08031 13.5254 3.11911V3.12299ZM14.895 3.25491C14.9183 3.25491 14.9726 3.28983 15.0153 3.33251C15.0852 3.40235 15.0929 3.42175 15.0929 3.50323C15.0929 3.58471 15.0813 3.60798 15.0231 3.67006C14.961 3.73602 14.9455 3.74378 14.8368 3.75154C14.736 3.7593 14.7088 3.75154 14.6467 3.71274C14.6079 3.68558 14.5652 3.6429 14.5497 3.61574C14.5109 3.53814 14.5303 3.39847 14.5963 3.33251C14.6506 3.27431 14.7709 3.22775 14.8252 3.24327C14.8407 3.24715 14.8718 3.25102 14.895 3.25102V3.25491ZM16.4664 3.52263C16.5052 3.54591 16.5518 3.60023 16.5712 3.6429C16.6759 3.8563 16.4043 4.08134 16.1832 3.96882C16.1017 3.92614 16.0202 3.81362 16.0202 3.74378C16.0202 3.53814 16.2879 3.40623 16.4664 3.5265V3.52263ZM17.9912 3.79034C18.0184 3.80974 18.0611 3.85242 18.0805 3.88734C18.2551 4.17058 17.805 4.41502 17.5994 4.15118C17.545 4.08522 17.5412 3.94166 17.5916 3.86794C17.6692 3.75154 17.8748 3.71274 17.9951 3.79034H17.9912ZM19.4423 4.17058C19.5743 4.22878 19.6286 4.39562 19.5626 4.52754C19.5277 4.5935 19.3958 4.66722 19.3104 4.66722C19.2251 4.66722 19.0932 4.5935 19.0582 4.52754C18.9341 4.29474 19.1824 4.06194 19.4385 4.17058H19.4423ZM20.9943 4.60513C21.1107 4.67885 21.1457 4.78749 21.0991 4.90777C21.0099 5.13281 20.6529 5.12893 20.5675 4.90001C20.5287 4.79525 20.5675 4.67498 20.6645 4.6129C20.7499 4.5547 20.9129 4.55082 20.9943 4.60513ZM22.4532 5.06297C22.5192 5.10565 22.5812 5.21041 22.5812 5.27637C22.5812 5.48201 22.3096 5.61004 22.135 5.49364C22.0342 5.42769 21.9876 5.32293 22.0148 5.21817C22.038 5.13669 22.1234 5.05133 22.2049 5.02805C22.2708 5.00865 22.395 5.02805 22.4493 5.06297H22.4532ZM23.7685 5.56736C23.8772 5.62556 23.9237 5.69541 23.9237 5.80017C23.9237 5.90492 23.8772 5.97865 23.7685 6.03297C23.5939 6.1222 23.3611 5.99028 23.3611 5.80017C23.3611 5.61005 23.5939 5.47425 23.7685 5.56736ZM25.0411 6.17264C25.1925 6.25024 25.2468 6.40544 25.1614 6.5296C25.1343 6.5684 25.0838 6.61496 25.045 6.63436C24.8588 6.72747 24.6337 6.60719 24.6337 6.40932C24.6337 6.21144 24.8665 6.0834 25.0411 6.17652V6.17264Z" fill="white"/>
<path d="M9.95192 4.13939C6.92555 4.24027 4.41909 4.94254 2.56447 6.21129C2.35107 6.35485 2.33167 6.38201 2.47523 6.31993C2.77398 6.18801 3.5655 5.94746 4.05825 5.83494C4.27941 5.7845 4.68681 5.70302 4.93513 5.66034C5.03601 5.64094 5.13688 5.59826 5.33864 5.48962C6.61127 4.79511 8.14386 4.36055 9.8976 4.18983C10.1265 4.16655 10.3516 4.14715 10.3865 4.14327C10.468 4.13551 10.1925 4.13551 9.95192 4.14327V4.13939Z" fill="white"/>
<path d="M11.1042 4.15877C9.60655 4.23637 8.2214 4.5196 7.02637 4.9852C6.75478 5.09384 5.9167 5.49348 5.92834 5.50512C5.93222 5.509 6.05638 5.50124 6.2077 5.48572C7.88385 5.31112 10.0877 5.31888 12.0859 5.50512C12.3574 5.53228 12.3807 5.53228 12.3962 5.49736C12.5165 5.28396 12.8968 4.77956 13.1722 4.47305C13.2731 4.36053 13.3507 4.26741 13.3468 4.26353C13.3352 4.25189 12.4195 4.18205 12.0315 4.15877C11.6707 4.13937 11.3875 4.13937 11.1042 4.15101V4.15877Z" fill="white"/>
<path d="M13.6611 4.56602C13.5564 4.69794 13.4284 4.87254 13.3702 4.95402C13.2576 5.1131 12.9705 5.58646 12.9822 5.59422C12.9822 5.59422 13.2033 5.62526 13.4672 5.66018C16.1443 6.00161 18.903 6.61465 21.2892 7.40228C21.4948 7.46824 21.6616 7.51868 21.6655 7.5148C21.6772 7.50316 21.5336 6.93668 21.456 6.67673C21.3706 6.40513 21.1999 5.94729 21.1766 5.92013C21.1534 5.89685 20.5791 5.72226 19.9622 5.54766C18.4568 5.12474 16.7418 4.74838 15.2093 4.50783C14.8019 4.44575 13.9405 4.32935 13.8862 4.32935C13.8668 4.32935 13.7659 4.43799 13.665 4.56602H13.6611Z" fill="white"/>
<path d="M7.86059 5.91678C6.16117 5.98662 4.8963 6.15346 3.69739 6.45997C1.8738 6.92557 0.671014 7.69768 0.306297 8.63663C0.205418 8.89659 0.182138 9.06343 0.193778 9.38935C0.205417 9.71527 0.251977 9.91315 0.387776 10.2274C1.09005 11.8609 3.68575 13.6961 7.39888 15.186C12.7338 17.3278 19.5858 18.4995 24.657 18.1309C26.8763 17.9718 28.6029 17.545 29.7126 16.8816C30.279 16.544 30.7252 16.0823 30.9076 15.6439C31.2374 14.8446 31.0162 13.9638 30.2402 12.99C30.0191 12.7145 29.4914 12.1868 29.1616 11.9113C25.3166 8.71423 17.3549 6.20778 10.0955 5.92066C9.64925 5.90126 8.21755 5.89738 7.86447 5.9129L7.86059 5.91678ZM9.51734 6.81305C11.4845 6.88289 13.3663 7.09629 15.4964 7.49205C21.0758 8.52412 26.2749 10.6775 28.5602 12.9007C29.2741 13.5952 29.6466 14.1927 29.7436 14.798C29.7824 15.0269 29.7824 15.1239 29.7436 15.3451C29.6233 16.0319 29.0607 16.5828 28.0791 16.9786C27.2759 17.3006 26.2322 17.514 24.9402 17.6149C23.7491 17.7119 21.9177 17.6925 20.3657 17.5683C18.3481 17.4015 16.0434 17.0523 13.8784 16.575C8.24471 15.3412 3.57323 13.2616 1.89708 11.2362C1.60609 10.8831 1.37717 10.4757 1.28017 10.1459C1.21033 9.91314 1.20257 9.49798 1.25689 9.27683C1.49357 8.31847 2.5722 7.60844 4.41906 7.18552C5.76541 6.87901 7.62391 6.74321 9.52122 6.81305H9.51734Z" fill="white"/>
<path d="M9.35827 8.13968C8.59003 8.16684 7.78688 8.2716 7.18161 8.41904C6.00986 8.70616 5.2843 9.20667 5.06314 9.87403C5.00882 10.0409 5.00494 10.0797 5.00494 10.328C5.00494 10.5879 5.00882 10.6112 5.07866 10.8052C5.2067 11.1738 5.43174 11.5075 5.79646 11.8683C6.08745 12.1593 6.54917 12.5279 6.89449 12.7374C7.00312 12.8034 6.97985 12.7762 6.76257 12.6016C6.40949 12.3145 6.09909 11.9382 5.95553 11.6278C5.76542 11.2126 5.7887 10.7781 6.02537 10.4327C6.49485 9.73823 7.82956 9.35411 9.7967 9.33083C10.5921 9.32307 12.1208 9.34247 12.0704 9.35411C12.0432 9.36575 11.9384 9.39291 11.8376 9.42395C11.4961 9.52871 11.275 9.66839 11.1392 9.87015C10.8559 10.2892 11.1314 10.8246 11.8958 11.329C12.21 11.5385 12.7959 11.8334 13.2499 12.0158C14.7553 12.6172 16.8776 13.1022 18.6236 13.2418C19.0659 13.2768 19.9777 13.2806 20.2881 13.2535C21.1417 13.1681 21.6849 12.9353 21.8595 12.5822C21.9138 12.4775 21.9216 12.4348 21.9216 12.3106C21.9216 12.0623 21.8246 11.8567 21.5879 11.6084L21.4754 11.492L21.7509 11.6355C22.0419 11.7907 22.3174 11.9537 22.5928 12.1477C22.686 12.2136 22.9071 12.3456 23.0817 12.4464C23.7141 12.8034 24.1759 13.141 24.5406 13.5096C24.7501 13.723 24.9712 14.0256 25.0527 14.2118C25.1691 14.4795 25.204 14.7783 25.142 15.0266C24.9674 15.7716 23.9974 16.2682 22.4144 16.4312C22.2475 16.4467 22.0768 16.4661 22.0341 16.47C21.9914 16.4738 22.1272 16.4738 22.3368 16.47C23.2485 16.4506 24.172 16.307 24.8122 16.0897C25.2972 15.9229 25.755 15.6435 25.9762 15.3758C26.1042 15.2206 26.2322 14.9762 26.2827 14.7899C26.3292 14.6037 26.3254 14.2817 26.271 14.0799C26.1469 13.6182 25.8986 13.2263 25.4213 12.7491C23.7297 11.0613 19.8303 9.49379 15.2209 8.65184C13.0287 8.2522 11.0267 8.0776 9.36602 8.13968H9.35827Z" fill="white"/>
<path d="M8.49306 10.3397C7.91882 10.5104 7.59679 10.72 7.45323 11.0265C7.39503 11.1506 7.38727 11.1856 7.38727 11.3369C7.38727 11.6356 7.49591 11.8529 7.79854 12.1711C8.45038 12.8539 9.79673 13.5407 11.7678 14.1925C14.185 14.9918 17.3743 15.6359 19.9855 15.8454C20.4201 15.8803 21.8479 15.8803 22.135 15.8454C22.9188 15.7484 23.3805 15.5932 23.656 15.3371C23.8344 15.1664 23.8965 15.0345 23.9082 14.8017C23.9159 14.6426 23.9082 14.596 23.8655 14.4719C23.8189 14.3322 23.6327 14.0296 23.5512 13.9559C23.5124 13.9209 23.5124 13.9209 23.4658 13.9946C23.171 14.4758 22.4221 14.7629 21.1844 14.8715C20.8352 14.9026 19.7838 14.8987 19.3259 14.8715C16.4004 14.6698 12.8503 13.7968 10.7318 12.7569C9.11385 11.9615 8.38054 11.1351 8.6405 10.394C8.66378 10.332 8.67154 10.2854 8.66766 10.2854C8.6599 10.2854 8.57842 10.3087 8.4853 10.3358L8.49306 10.3397Z" fill="white"/>
<path d="M21.6151 6.07188C21.6151 6.07188 21.6577 6.1844 21.7159 6.30856C21.8711 6.67328 21.9992 7.03411 22.1 7.38331L22.1932 7.70535L22.5656 7.84114C24.0012 8.36494 25.5105 9.04006 26.5659 9.62593C26.6939 9.69577 26.8026 9.75397 26.8064 9.75009C26.8181 9.73845 26.5892 9.42029 26.3952 9.17585C25.7162 8.32226 24.8121 7.54627 23.749 6.89832C23.5279 6.76252 22.9187 6.5142 22.1156 6.22708C21.6849 6.07188 21.6151 6.05248 21.6151 6.07188Z" fill="white"/>
<path d="M24.6958 7.30973C24.6958 7.30973 24.7928 7.38345 24.8859 7.44553C25.4524 7.8374 25.8869 8.19436 26.3564 8.65607C26.8608 9.15271 27.2915 9.66875 27.5825 10.1227C27.6756 10.2701 27.695 10.2857 27.9976 10.4913C29.2431 11.3255 30.1549 12.1907 30.636 12.9861C30.6942 13.0792 30.7408 13.1491 30.7408 13.1413C30.7408 13.1336 30.6903 12.9978 30.6282 12.8387C30.2208 11.8144 29.5806 10.8871 28.6378 9.96751C27.7959 9.14883 26.7405 8.38447 25.4989 7.71324C25.2118 7.55416 24.6647 7.28257 24.6919 7.30585L24.6958 7.30973Z" fill="white"/>
<path d="M51.6072 11.5581C51.3589 11.6007 51.1416 11.6395 51.13 11.6473C51.1067 11.6589 51.1028 12.0547 51.1028 14.1266C51.1028 15.6514 51.1106 16.6796 51.1222 16.8154C51.1843 17.4401 51.4598 17.7583 52.0534 17.8785C52.228 17.9135 52.6354 17.9561 52.6354 17.9367C52.6354 17.9329 52.6665 17.7466 52.7053 17.5255C52.7441 17.3043 52.7751 17.1142 52.7751 17.1103C52.7751 17.1064 52.7324 17.0909 52.682 17.087C52.4298 17.056 52.2707 16.9667 52.1854 16.8038L52.1427 16.7223L52.1349 14.0994C52.131 11.6279 52.1272 11.4805 52.0961 11.4805C52.0767 11.4805 51.8594 11.5154 51.6111 11.5581H51.6072Z" fill="white"/>
<path d="M36.4793 12.3379C36.2504 12.3728 36.0447 12.4116 36.0176 12.4155L35.971 12.4271L35.9788 14.4912C35.9865 16.5825 35.9904 16.6369 36.0641 16.9473C36.1805 17.4245 36.5142 17.7659 36.972 17.8862C37.2902 17.9677 37.7325 17.9754 38.0739 17.9095C38.1593 17.894 38.33 17.8474 38.4542 17.8047C38.6482 17.7426 38.6792 17.7271 38.6753 17.6883C38.6753 17.665 38.6404 17.4866 38.5977 17.2926C38.5124 16.8852 38.5434 16.9162 38.2641 16.9977C38.0158 17.0714 37.7442 17.0986 37.5579 17.0714C37.1893 17.0132 37.0419 16.8231 36.9992 16.342C36.9876 16.2256 36.9798 15.7445 36.9798 15.2672V14.4059H38.5163V13.5562H37.7558L36.9914 13.5445L36.9837 12.9005V12.2603H36.9332C36.91 12.2603 36.7043 12.2913 36.4754 12.3301L36.4793 12.3379Z" fill="white"/>
<path d="M41.6357 13.4591C40.7705 13.5251 40.0837 14.1187 39.8587 15.0034C39.6336 15.8841 39.8587 16.858 40.4057 17.4051C40.8248 17.8241 41.4262 18.0259 42.0547 17.9638C42.7725 17.8939 43.3157 17.5292 43.6339 16.9162C43.9443 16.3148 43.9947 15.469 43.7658 14.8171C43.5757 14.27 43.2575 13.8976 42.788 13.6648C42.4505 13.4941 42.0702 13.432 41.6357 13.463V13.4591ZM42.0547 14.3476C42.4156 14.4252 42.6988 14.7279 42.8074 15.1469C42.8812 15.4379 42.885 15.9074 42.8191 16.21C42.7143 16.6756 42.4272 17.0015 42.0547 17.0714C41.4882 17.18 41.0537 16.8813 40.8791 16.2721C40.8403 16.1286 40.8325 16.0665 40.8325 15.7056C40.8325 15.3448 40.8364 15.2866 40.8791 15.1392C41.0071 14.7007 41.2593 14.4252 41.6085 14.3476C41.7521 14.3166 41.9228 14.3127 42.0586 14.3399L42.0547 14.3476Z" fill="white"/>
<path d="M47.1918 13.4591C46.734 13.4941 46.3227 13.6764 45.9929 13.9907C45.5506 14.4175 45.3372 14.9684 45.3372 15.6979C45.3372 16.4273 45.539 16.9589 45.9464 17.3818C46.2762 17.7232 46.6758 17.9133 47.188 17.9638C47.6768 18.0103 48.1541 17.8978 48.5498 17.6379C49.1047 17.2731 49.4228 16.6368 49.4577 15.8298C49.5004 14.7861 49.031 13.9364 48.22 13.6066C47.9135 13.4824 47.5682 13.432 47.1918 13.463V13.4591ZM47.6497 14.3593C47.898 14.4175 48.1153 14.5921 48.255 14.8521C48.4373 15.1896 48.4839 15.8104 48.3675 16.276C48.2588 16.6989 47.9678 17.0054 47.6148 17.0753C47.1453 17.1606 46.7456 16.9666 46.5478 16.5476C46.4275 16.2954 46.4003 16.1674 46.3887 15.7832C46.3809 15.5 46.3848 15.4185 46.4197 15.2478C46.5594 14.5688 47.0405 14.2235 47.6536 14.3593H47.6497Z" fill="white"/>
<path d="M55.3514 13.4591C54.6336 13.5173 54.1253 13.8859 54.0089 14.4368C53.974 14.6036 53.9779 14.914 54.0167 15.0692C54.0865 15.3486 54.2572 15.5698 54.5288 15.7444C54.6957 15.853 54.8392 15.919 55.2272 16.0703C55.7743 16.2837 55.9761 16.4234 56.0265 16.6096C56.0692 16.7842 56.011 16.9433 55.8713 17.0209C55.7355 17.0946 55.592 17.1179 55.2583 17.114C54.8974 17.114 54.6608 17.0713 54.2922 16.9471C54.1408 16.8967 54.0594 16.8773 54.0555 16.8928C54.0516 16.9045 54.0128 17.0907 53.9662 17.308C53.9042 17.6145 53.8925 17.7076 53.908 17.7193C53.9236 17.727 54.0089 17.7581 54.0943 17.7852C54.5366 17.921 54.7772 17.9559 55.266 17.9559C56.2438 17.9559 56.8219 17.6572 57.0004 17.0674C57.0819 16.7997 57.0547 16.3884 56.9422 16.1479C56.7676 15.7676 56.527 15.6086 55.5454 15.2244C55.1574 15.0692 55.01 14.949 54.9789 14.755C54.9518 14.5648 55.0488 14.4135 55.2466 14.3359C55.3204 14.3088 55.4174 14.2971 55.6269 14.2894C55.9528 14.2777 56.1662 14.3088 56.4649 14.4058C56.5697 14.4407 56.6551 14.464 56.6551 14.464C56.6589 14.4601 56.7016 14.2777 56.7521 14.0566L56.8413 13.6569L56.7947 13.6375C56.6357 13.5755 56.1739 13.4823 55.9683 13.4668C55.6463 13.4435 55.5415 13.4435 55.3436 13.4591H55.3514Z" fill="white"/>
</g>
<defs>
<clipPath id="clip0_843_839">
<rect width="96" height="19" fill="white"/>
</clipPath>
</defs>
</svg>
