<svg width="113" height="31" viewBox="0 0 113 31" fill="none" xmlns="http://www.w3.org/2000/svg">
<g clip-path="url(#clip0_843_853)">
<path d="M44.6378 14.0544C45.9065 14.5317 46.2131 15.6064 46.0734 16.7122C45.891 18.1788 44.5835 18.9354 43.307 18.9354C41.8791 18.9354 40.4552 18.9354 39.0274 18.9354C39.0002 18.9354 38.9769 18.9277 38.9187 18.916V9.15403C39.0312 9.14627 39.1321 9.12687 39.233 9.12687C40.4862 9.12687 41.7433 9.09583 42.9965 9.13851C43.6678 9.16179 44.3313 9.31311 44.9016 9.71275C45.8716 10.3917 46.0462 11.3773 45.8988 12.3666C45.7862 13.1232 45.3866 13.6819 44.6339 14.0583L44.6378 14.0544ZM40.719 17.3175C40.7772 17.3369 40.8044 17.3485 40.8277 17.3485C41.4989 17.3485 42.1701 17.3563 42.8413 17.3524C43.8075 17.3524 44.2032 16.9528 44.1993 15.9905C44.1993 15.3891 43.9084 14.9701 43.3031 14.9041C42.4534 14.811 41.592 14.8149 40.719 14.7761V17.3097V17.3175ZM40.7268 10.7797V13.3521C41.5493 13.3133 42.3447 13.2978 43.1401 13.228C43.7337 13.1776 44.1411 12.6111 44.1179 11.9592C44.0946 11.3307 43.695 10.8185 43.113 10.7875C42.3253 10.7448 41.5338 10.7759 40.7268 10.7759V10.7797Z" fill="white"/>
<path d="M100.381 14.6366C99.9428 16.0372 99.4888 17.4767 99.031 18.9356C98.5227 18.9356 98.0222 18.9472 97.5217 18.9239C97.4286 18.92 97.285 18.8036 97.2578 18.7144C96.637 16.8016 96.0279 14.8849 95.4187 12.9682C95.3528 12.7625 95.2907 12.5569 95.2092 12.2931C95.7912 12.2931 96.3033 12.2775 96.8155 12.3086C96.9125 12.3125 97.0405 12.4909 97.0755 12.6112C97.4324 13.8334 97.7777 15.0634 98.1269 16.2894C98.1386 16.336 98.1851 16.3748 98.2278 16.4408C98.6197 15.1836 99.0077 13.9459 99.3879 12.7043C99.4733 12.4289 99.578 12.2543 99.9272 12.2853C100.358 12.3241 100.796 12.2931 101.274 12.2931C101.693 13.6937 102.112 15.0866 102.535 16.4912C102.725 15.8471 102.915 15.1914 103.113 14.5396C103.322 13.8489 103.536 13.1583 103.757 12.4715C103.78 12.4017 103.873 12.3086 103.935 12.3047C104.482 12.2931 105.033 12.2969 105.631 12.2969C105.375 13.0652 105.15 13.7713 104.909 14.4736C104.447 15.8161 103.959 17.1508 103.516 18.4971C103.408 18.8269 103.283 18.9744 102.923 18.9433C102.531 18.9123 102.131 18.9356 101.712 18.9356C101.262 17.4767 100.816 16.0295 100.385 14.6366H100.381Z" fill="white"/>
<path d="M84.9546 12.9601C84.9546 11.7185 84.9662 10.5739 84.9468 9.42928C84.939 9.06844 85.0322 8.92876 85.4124 8.95592C85.8198 8.98696 86.2272 8.96368 86.6656 8.96368V18.9313C86.2117 18.9313 85.7538 18.9468 85.296 18.9197C85.2068 18.9158 85.0787 18.7606 85.0477 18.652C85.005 18.4929 85.036 18.3144 85.036 18.2329C84.5898 18.489 84.1475 18.8576 83.6431 19.005C82.095 19.459 80.415 18.7955 79.864 17.0224C79.5304 15.9515 79.5769 14.9155 79.9921 13.9106C80.3801 12.9678 81.4083 12.1375 82.6266 12.1259C83.4879 12.1181 84.26 12.2655 84.9546 12.9639V12.9601ZM81.3811 15.6217C81.4122 16.8827 82.064 17.5307 83.1116 17.5578C84.1514 17.585 84.9274 16.9836 84.9507 15.6139C84.9701 14.3568 84.1592 13.6584 83.1543 13.6507C82.1144 13.6429 81.3772 14.3801 81.3811 15.6217Z" fill="white"/>
<path d="M67.4247 19.0945C65.4382 19.2459 63.8513 17.6589 63.859 15.6181C63.8668 13.6277 65.3218 12.0097 67.7002 12.1222C69.4152 12.2037 71.0874 13.6005 71.0021 15.7888C70.9322 17.624 69.4694 19.2459 67.4247 19.0945ZM69.2561 15.6646C69.2561 14.4541 68.4723 13.5539 67.3976 13.6471C66.3771 13.7363 65.6283 14.2872 65.6011 15.5948C65.574 16.8558 66.3926 17.5697 67.3937 17.5852C68.4219 17.6007 69.2794 16.8519 69.2522 15.6646H69.2561Z" fill="white"/>
<path d="M91.4496 19.0943C89.4785 19.2533 87.8567 17.6587 87.88 15.5829C87.9033 13.6507 89.3272 11.9939 91.7522 12.122C93.4322 12.2112 95.1122 13.608 95.0269 15.7846C94.957 17.5772 93.5021 19.2533 91.4496 19.0904V19.0943ZM93.2809 15.6372C93.2809 14.3801 92.5515 13.7283 91.4496 13.6429C90.4524 13.5653 89.6454 14.4655 89.6221 15.5557C89.5911 16.8555 90.4563 17.5888 91.4147 17.5849C92.5049 17.5772 93.2848 16.8594 93.2809 15.6372Z" fill="white"/>
<path d="M48.9485 12.293C48.9485 13.585 48.9291 14.8266 48.9563 16.0643C48.9718 16.8791 49.3132 17.3874 49.8991 17.5542C50.8342 17.8142 51.7266 17.1895 51.7304 16.2157C51.7304 15.04 51.7421 13.8683 51.7266 12.6927C51.7227 12.3784 51.8197 12.2658 52.134 12.2852C52.5026 12.3085 52.875 12.2969 53.2436 12.2852C53.4648 12.2775 53.5501 12.3706 53.5501 12.5879C53.5501 14.6055 53.5502 16.6231 53.5385 18.6406C53.5385 18.7376 53.3717 18.9084 53.2747 18.9161C52.8285 18.9472 52.3823 18.9278 51.9283 18.9278C51.8818 18.6911 51.8391 18.4777 51.7964 18.2759C51.4666 18.4893 51.1562 18.7609 50.7954 18.9122C49.6546 19.3817 48.2928 19.2149 47.6293 18.0121C47.3771 17.5581 47.253 16.9878 47.2297 16.4601C47.1715 15.2107 47.2219 13.9536 47.2025 12.7043C47.1986 12.3667 47.3111 12.2658 47.6371 12.2852C48.0561 12.3085 48.479 12.2891 48.9485 12.2891V12.293Z" fill="white"/>
<path d="M73.9276 18.9235H72.2205V12.2887C72.6783 12.2887 73.1361 12.2771 73.5901 12.3004C73.6754 12.3042 73.784 12.44 73.8228 12.5409C73.8733 12.6651 73.8655 12.8125 73.8888 12.991C74.1798 12.7698 74.4088 12.5409 74.6842 12.3974C75.5145 11.9628 77.0549 11.9589 77.827 12.7737C78.2499 13.2199 78.4982 13.7864 78.5138 14.38C78.5564 15.8816 78.5292 17.3831 78.5292 18.9079H76.791C76.791 18.7838 76.791 18.648 76.791 18.5083C76.791 17.4025 76.791 16.2928 76.791 15.187C76.791 14.2171 76.341 13.7321 75.4912 13.7049C74.5601 13.6739 73.9354 14.3528 73.9315 15.2181C73.9237 16.4403 73.9315 17.6663 73.9315 18.9235H73.9276Z" fill="white"/>
<path d="M108.258 18.9159H106.543V12.3083H108.071C108.114 12.5179 108.161 12.7274 108.192 12.8787C108.63 12.6614 109.072 12.32 109.565 12.2191C111.043 11.9087 112.203 12.2385 112.735 13.872C112.82 14.1397 112.851 14.4346 112.851 14.7178C112.863 16.103 112.855 17.4842 112.855 18.9004H111.117C111.117 18.7646 111.117 18.6249 111.117 18.4853C111.117 17.3795 111.129 16.2698 111.117 15.164C111.105 14.1707 110.492 13.6702 109.759 13.7013C108.863 13.7362 108.261 14.3065 108.258 15.195C108.258 16.4211 108.258 17.6472 108.258 18.9159Z" fill="white"/>
<path d="M57.4339 12.2733H58.6173L58.6057 13.7787C58.6057 13.7787 57.5426 13.7981 57.4456 13.8059V18.9119H55.7113V13.802H54.4619V12.3044H55.6802V10.2363H57.4223C57.4223 10.2363 57.4339 11.668 57.4339 12.2733Z" fill="white"/>
<path d="M62.1714 12.2733H63.3548L63.3432 13.7787C63.3432 13.7787 62.28 13.7981 62.183 13.8059V18.9119H60.4487V13.802H59.1993V12.3044H60.4177V10.2363H62.1598C62.1598 10.2363 62.1714 11.668 62.1714 12.2733Z" fill="white"/>
<path d="M12.8065 0.680006C12.7522 0.711046 12.4301 0.749838 12.0925 0.769238C10.5755 0.854597 8.81008 1.21931 7.76637 1.66551C7.65385 1.71983 7.50255 1.77803 7.44047 1.80907C6.21828 2.33286 5.10864 3.08558 4.17356 4.02841C3.21521 4.98288 2.45473 6.11196 1.93093 7.35742C1.87273 7.48546 1.80677 7.64842 1.77961 7.7105C1.69425 7.89286 1.45369 8.67273 1.34505 9.07625C1.12389 10.0191 0.980345 10.9774 0.918266 11.9435C0.898866 12.2811 0.860074 12.607 0.829034 12.6652C0.743675 12.8127 0.743675 18.8072 0.829034 18.9546C0.860074 19.0128 0.898866 19.3388 0.918266 19.6763C1.00363 21.1895 1.36832 22.9549 1.81451 23.9986C1.86883 24.1111 1.92703 24.2624 1.95807 24.3245C2.48187 25.5467 3.23457 26.6564 4.1774 27.5914C5.13187 28.5498 6.26097 29.3103 7.50644 29.8341C7.63448 29.8923 7.79745 29.9582 7.85953 29.9854C8.03801 30.0708 8.81784 30.3113 9.22524 30.4199C10.1681 30.6411 11.1264 30.7847 12.0925 30.8467C12.4301 30.8661 12.756 30.9049 12.8142 30.936C12.9616 31.0213 18.9562 31.0213 19.1037 30.936C19.1619 30.9049 19.4878 30.8661 19.8253 30.8467C21.3385 30.7614 23.1039 30.3967 24.1476 29.9505C24.2601 29.8961 24.4115 29.8379 24.4735 29.8069C25.6957 29.2831 26.8054 28.5304 27.7405 27.5876C28.6988 26.6331 29.4593 25.504 29.9831 24.2586C30.0413 24.1305 30.1072 23.9676 30.1344 23.9055C30.2197 23.727 30.4603 22.9471 30.5689 22.5397C30.7901 21.5969 30.9337 20.6385 30.9958 19.6724C31.0152 19.3349 31.054 19.009 31.085 18.9508C31.1704 18.8033 31.1704 12.8088 31.085 12.6613C31.054 12.6031 31.0152 12.2772 30.9958 11.9397C30.9104 10.4265 30.5457 8.66109 30.0995 7.61738C30.0452 7.50486 29.987 7.35354 29.9559 7.29146C29.4321 6.06927 28.6794 4.95961 27.7366 4.02454C26.7821 3.06618 25.653 2.30571 24.4076 1.78192C24.2795 1.72372 24.1166 1.65775 24.0545 1.63059C23.876 1.54523 23.0923 1.30468 22.6888 1.19604C21.7459 0.974878 20.7876 0.831317 19.8215 0.769238C19.4839 0.749838 19.158 0.711046 19.0998 0.680006C18.9523 0.598527 12.9345 0.598527 12.8065 0.680006ZM22.3124 7.06254C23.5501 7.3807 24.3843 8.21489 24.7024 9.4526C24.7878 9.7824 24.7956 10.508 24.7956 15.8119C24.7956 21.1158 24.7878 21.8375 24.7024 22.1711C24.3843 23.4088 23.5501 24.243 22.3124 24.5612C21.9826 24.6466 21.2609 24.6543 16.0346 24.6543C10.8083 24.6543 10.0827 24.6466 9.76068 24.5651C8.53073 24.2586 7.73536 23.4748 7.359 22.2216C7.27364 21.9306 7.26589 21.2671 7.26589 15.8157C7.26589 10.3644 7.27752 9.70093 7.359 9.40993C7.7276 8.16834 8.5191 7.38846 9.72577 7.0703C9.99737 7.00046 11.0295 6.98495 15.9958 6.98107C21.2726 6.97719 21.9826 6.98106 22.3124 7.0703M9.58222 13.674L8.57732 14.6789L9.59775 15.6877C11.8714 17.9575 12.6978 18.4968 14.6805 19.0322C15.084 19.1409 16.9464 19.1409 17.3499 19.0322C19.3403 18.4929 20.1164 17.9885 22.3629 15.7808L23.4609 14.6983L22.4521 13.6856C21.8972 13.1308 21.4161 12.6769 21.3851 12.6769C21.3541 12.6769 20.8109 13.189 20.1707 13.8253C19.5382 14.4539 18.9446 15.0204 18.8592 15.0863C18.3781 15.4976 17.8271 15.8235 17.2374 16.0563C17.0123 16.1261 16.7873 16.1805 16.5545 16.2154C16.2402 16.2891 15.9182 16.3007 15.6 16.2425C14.3003 16.0369 13.5553 15.548 11.5959 13.577C11.1109 13.0881 10.6802 12.6807 10.6453 12.6807C10.6104 12.6807 10.1371 13.1308 9.58222 13.6856" fill="white"/>
</g>
<defs>
<clipPath id="clip0_843_853">
<rect width="113" height="31" fill="white"/>
</clipPath>
</defs>
</svg>
