<svg width="98" height="20" viewBox="0 0 98 20" fill="none" xmlns="http://www.w3.org/2000/svg">
<g clip-path="url(#clip0_843_846)">
<path d="M5.9399 12.3571C6.02526 12.1825 5.85452 12.0079 5.67993 12.0079H0.624343C0.364385 12.0079 0.275141 11.748 0.44974 11.5734L10.1225 0.418468C10.2971 0.24387 10.6463 0.418468 10.557 0.678425L8.20579 7.82533C8.12043 7.99993 8.20579 8.17452 8.38039 8.17452H13.436C13.696 8.17452 13.7852 8.43448 13.6106 8.60908L3.93783 19.6786C3.76323 19.8532 3.41403 19.6786 3.50327 19.4187L5.94378 12.361L5.9399 12.3571Z" fill="white"/>
<path d="M25.2 15.9266C27.7258 15.9266 29.5572 14.5337 29.5572 12.2678C29.5572 9.74196 27.5513 9.12893 25.6346 8.51977C23.8032 7.99598 23.3687 7.56142 23.3687 6.77767C23.3687 6.07928 23.9778 5.55936 24.9362 5.55936C26.1545 5.55936 26.8529 6.16851 27.2021 7.12687L29.208 5.99392C28.4242 4.25182 26.8567 3.29346 24.9362 3.29346C22.8448 3.29346 21.0135 4.60101 21.0135 6.95227C21.0135 9.30353 22.8449 10.0912 24.6723 10.6111C26.5037 11.1349 27.2874 11.4841 27.2874 12.3532C27.2874 13.0516 26.7636 13.6607 25.3707 13.6607C23.8886 13.6607 23.0194 12.9623 22.581 11.8294L20.5751 13.0477C21.0989 14.7898 22.7556 15.9228 25.1922 15.9228L25.2 15.9266Z" fill="white"/>
<path d="M35.6565 9.12897V7.03767H33.7398V4.59717L31.5593 5.29556V7.03767H30.0771V9.21821H31.5593V12.877C31.5593 15.2283 32.6069 16.1905 35.7419 15.8413V13.8354C34.4344 13.9207 33.8252 13.9207 33.8252 12.9624V9.30357H35.6565V9.12897Z" fill="white"/>
<path d="M43.5019 7.03755V8.08513C42.8927 7.30138 41.9343 6.77759 40.7122 6.77759C38.4463 6.77759 36.5295 8.78353 36.5295 11.3947C36.5295 14.006 38.4463 16.0119 40.7122 16.0119C41.9305 16.0119 42.8927 15.4881 43.5019 14.7044V15.752H45.6824V7.03755H43.5019ZM41.1506 13.8352C39.7577 13.8352 38.7993 12.8769 38.7993 11.3947C38.7993 9.9126 39.8469 8.95424 41.1506 8.95424C42.5435 8.95424 43.5019 9.9126 43.5019 11.3947C43.5019 12.8769 42.5435 13.8352 41.1506 13.8352Z" fill="white"/>
<path d="M51.867 15.9265C53.5237 15.9265 55.0059 15.0535 55.7896 13.6606L53.8729 12.5276C53.5237 13.226 52.8254 13.6606 51.867 13.6606C50.5595 13.6606 49.6011 12.7022 49.6011 11.3093C49.6011 9.91639 50.5595 8.95804 51.867 8.95804C52.74 8.95804 53.5237 9.3926 53.7837 10.091L55.7004 8.95804C55.002 7.65049 53.5199 6.69214 51.867 6.69214C49.2519 6.69214 47.3352 8.69808 47.3352 11.3093C47.3352 13.9205 49.2519 15.9265 51.867 15.9265Z" fill="white"/>
<path d="M64.8532 15.7557L61.2798 11.3092L64.764 7.03741H62.1489L59.1846 10.8708V3.54932H56.9187V15.7518H59.0993V11.8292L62.2381 15.7518H64.8532V15.7557Z" fill="white"/>
<path d="M73.3039 9.39281C74.0023 8.78366 74.4368 7.99991 74.4368 6.95232C74.4368 4.94638 72.7801 3.55347 70.778 3.55347H66.0716V15.756H71.2125C73.3039 15.756 74.9606 14.2738 74.9606 12.1825C74.8752 10.875 74.2622 9.91661 73.3039 9.39281ZM70.778 5.73401C71.5617 5.73401 72.0855 6.34316 72.0855 7.04155C72.0855 7.73995 71.5617 8.3491 70.778 8.3491H68.4267V5.73401H70.778ZM71.1272 13.4901H68.4267V10.615H71.1272C71.911 10.615 72.5201 11.2242 72.5201 12.0079C72.5201 12.8809 71.911 13.4901 71.1272 13.4901Z" fill="white"/>
<path d="M76.3574 15.7558H78.538V3.03345H76.3574V15.7558Z" fill="white"/>
<path d="M81.6729 5.99359C82.4567 5.99359 83.0658 5.38442 83.0658 4.60067C83.0658 3.81692 82.4567 3.20776 81.6729 3.20776C80.9746 3.20776 80.28 3.81692 80.28 4.60067C80.28 5.38442 80.9784 5.99359 81.6729 5.99359ZM80.6254 15.7556H82.8059V7.04117H80.6254V15.7556Z" fill="white"/>
<path d="M89.7782 9.12897V7.03767H87.8615V4.59717L85.681 5.29556V7.03767H84.1989V9.21821H85.681V12.877C85.681 15.2283 86.7286 16.1905 89.8636 15.8413V13.8354C88.5561 13.9207 87.9469 13.9207 87.9469 12.9624V9.30357H89.7782V9.12897Z" fill="white"/>
<path d="M93.9608 13.5754L97.6196 8.43441V7.0415H91.1711V9.13281H94.6553L90.9965 14.2738V15.7559H97.7942V13.6646H93.9608V13.5792V13.5754Z" fill="white"/>
</g>
<defs>
<clipPath id="clip0_843_846">
<rect width="98" height="20" fill="white"/>
</clipPath>
</defs>
</svg>
