<svg width="124" height="21" viewBox="0 0 124 21" fill="none" xmlns="http://www.w3.org/2000/svg">
<g clip-path="url(#clip0_843_840)">
<path d="M5.88142 7.14296H0.849107V11.5855H4.63207V12.2102H0.845223V17.7779H0.108032V6.5144H5.88142V7.13908V7.14296Z" fill="white"/>
<path d="M7.24332 17.7777H6.50224V12.0509L6.21124 9.40865H6.91352L7.19676 11.756C7.73995 10.6153 8.60518 9.33105 10.0291 9.33105C11.4531 9.33105 11.7674 10.7123 11.7674 11.8336H11.0302C11.0146 11.0693 10.9681 9.95573 9.96706 9.95573C9.12123 9.95573 7.2472 11.271 7.2472 14.4138V17.7777H7.24332Z" fill="white"/>
<path d="M12.6713 13.6339C12.6713 10.4097 14.3281 9.33105 15.8296 9.33105C17.207 9.33105 19.0073 10.2545 19.0073 13.6339C19.0073 17.0134 17.2225 17.9523 15.8296 17.9523C14.4367 17.9523 12.6713 17.0134 12.6713 13.6339ZM18.2701 13.6339C18.2701 12.0237 17.8627 9.95961 15.8296 9.95961C13.7965 9.95961 13.4046 12.0237 13.4046 13.6339C13.4046 15.2441 13.812 17.3238 15.8296 17.3238C17.8472 17.3238 18.2701 15.2441 18.2701 13.6339Z" fill="white"/>
<path d="M21.0404 17.7777H20.3032V13.6339C20.3032 12.2255 20.2567 10.8171 19.9734 9.40865H20.6602L20.959 11.7871H20.99C21.3043 10.5494 22.6235 9.33105 23.931 9.33105C25.4287 9.33105 25.8555 10.627 25.8555 11.8802V17.7777H25.1183V12.2255C25.1183 11.2749 25.1183 9.95573 23.834 9.95573C22.6468 9.95573 21.0327 11.143 21.0327 14.3672V17.7777H21.0404Z" fill="white"/>
<path d="M32.5833 10.1306H29.5492V15.7798C29.5492 16.5791 29.8479 17.3279 30.8645 17.3279C31.7879 17.3279 32.4281 16.6412 32.789 15.8574L33.4912 16.0281C32.9752 17.0913 32.0673 17.9526 30.8334 17.9526C29.7626 17.9526 28.812 17.4327 28.812 15.3375V10.1306H26.9535V9.50592H28.812V6.84814H29.5492V9.50592H32.5833V10.1306Z" fill="white"/>
<path d="M40.5101 17.1998C39.5595 17.6228 38.6167 17.9526 37.5536 17.9526C35.1286 17.9526 34.2362 15.7759 34.2362 13.6807C34.2362 11.5855 35.1596 9.32739 37.6001 9.32739C38.993 9.32739 40.6343 10.3284 40.6343 13.7544H34.9773C35.1131 16.6644 36.3236 17.3201 37.5885 17.3201C38.5275 17.3201 39.4198 16.9748 40.1997 16.5053L40.5062 17.1998H40.5101ZM39.9009 13.1336C39.9785 11.7097 39.1366 9.95595 37.507 9.95595C35.8774 9.95595 34.923 11.6748 34.9734 13.1336H39.9009Z" fill="white"/>
<path d="M42.6247 17.7777H41.8875V13.6339C41.8875 12.2255 41.8409 10.8171 41.5577 9.40865H42.2444L42.5432 11.7871H42.5742C42.8885 10.5494 44.2077 9.33105 45.5152 9.33105C47.0129 9.33105 47.4397 10.627 47.4397 11.8802V17.7777H46.7025V12.2255C46.7025 11.2749 46.7025 9.95573 45.4182 9.95573C44.231 9.95573 42.6169 11.143 42.6169 14.3672V17.7777H42.6247Z" fill="white"/>
<path d="M54.7341 14.8717C54.7341 15.8883 54.8117 16.8893 55.1105 17.8632L54.4237 17.9563L54.1288 16.5944C53.7214 17.4402 52.8601 17.9718 51.9211 17.9563C50.5282 17.9563 48.7124 16.8156 48.7124 13.5913C48.7124 10.3671 50.8231 9.33499 51.9677 9.33499C52.7088 9.33499 53.4266 9.57944 54.0086 10.0373V6.16895H54.7457L54.738 14.8678L54.7341 14.8717ZM53.9969 10.7745C53.4809 10.3205 52.8407 9.95967 52.15 9.95967C51.2111 9.95967 49.4418 10.5999 49.4418 13.634C49.4418 16.4897 50.9899 17.3238 51.9289 17.3238C52.9765 17.3238 53.6477 16.5556 53.993 15.6671V10.7783L53.9969 10.7745Z" fill="white"/>
<path d="M93.1691 13.2072C93.1807 13.2654 93.1885 13.3197 93.1962 13.3779C93.204 13.4361 93.204 13.4904 93.204 13.5486C93.204 13.956 93.0565 14.3518 92.7966 14.6622C92.4124 15.1782 91.9934 15.6671 91.5433 16.1288C91.198 16.4819 90.8333 16.8156 90.4453 17.1221C90.1737 17.3394 89.8788 17.5334 89.5723 17.6963C89.39 17.8011 89.1843 17.867 88.9709 17.8864C88.6993 17.8864 88.4316 17.8127 88.191 17.6808C87.9388 17.5489 87.7371 17.3394 87.6168 17.0794C87.6168 16.9358 87.6362 16.7923 87.6673 16.6526C87.7138 16.4664 87.7681 16.284 87.838 16.1094C87.9195 15.8999 88.0281 15.6399 88.1717 15.3373C88.3152 15.0347 88.5014 14.6544 88.7265 14.1966C88.5441 14.1966 88.4238 14.2431 88.3656 14.3324C87.8302 15.0541 87.3685 15.6399 86.9883 16.1017C86.6041 16.5595 86.2782 16.9242 86.0027 17.188C85.801 17.3976 85.5721 17.5799 85.3237 17.7312C85.1763 17.8166 85.0134 17.867 84.8426 17.8787C84.3266 17.8282 83.861 17.5566 83.5661 17.1337C83.248 16.6565 83.0889 16.0861 83.1122 15.5119C83.1044 14.6738 83.2635 13.8396 83.5816 13.0636C83.8688 12.3536 84.2684 11.6901 84.765 11.1081C85.2073 10.5843 85.7428 10.142 86.3442 9.80447C86.8408 9.51347 87.3995 9.35051 87.9777 9.33499C88.3307 9.32335 88.676 9.39319 88.9981 9.54063C89.3356 9.72299 89.6344 9.96743 89.8827 10.2584C90.2358 10.0062 90.6199 9.79671 91.0234 9.63375C91.2562 9.53675 91.5007 9.47467 91.7529 9.45527C91.9624 9.45527 92.1603 9.56391 92.2689 9.74627C92.2107 9.96355 92.1331 10.2351 92.0283 10.5611C91.9275 10.887 91.8149 11.2284 91.6947 11.5893C91.5744 11.9501 91.4502 12.3148 91.3261 12.6756C91.2019 13.0365 91.0816 13.3818 90.9769 13.7038C90.876 14.0259 90.7829 14.3052 90.7053 14.5419C90.6471 14.7087 90.6044 14.8833 90.5772 15.0579C90.5772 15.1705 90.651 15.2287 90.7984 15.2287C90.8838 15.217 90.9652 15.186 91.039 15.1433C91.2019 15.0541 91.3571 14.9454 91.5007 14.8251C91.6947 14.6699 91.9275 14.4643 92.2029 14.2005C92.4784 13.9366 92.8005 13.6068 93.1729 13.2033L93.1691 13.2072ZM89.2037 11.3409C88.8817 11.0461 88.5791 10.8947 88.2958 10.8947C88.0436 10.8947 87.7642 11.0267 87.4577 11.2905C87.1202 11.5854 86.8253 11.9268 86.5847 12.2993C86.3093 12.7222 86.0803 13.1723 85.9057 13.6456C85.7311 14.0918 85.638 14.5652 85.6341 15.0424C85.6264 15.1743 85.6613 15.3024 85.7389 15.411C85.801 15.4925 85.8941 15.5391 85.995 15.5391C86.0959 15.5391 86.2705 15.4188 86.5188 15.1782C86.8175 14.8795 87.093 14.5613 87.3491 14.2276C87.6556 13.8319 87.9776 13.3857 88.3113 12.8813C88.6372 12.3846 88.936 11.8686 89.2115 11.3409H89.2037Z" fill="white"/>
<path d="M94.3175 11.3408C94.3718 11.0149 94.4766 10.7006 94.6279 10.4057C94.7637 10.1303 94.9422 9.87807 95.1517 9.65303C95.338 9.45127 95.5591 9.28444 95.8036 9.1564C96.0247 9.04 96.2653 8.97792 96.5136 8.97792C96.7425 8.97404 96.9637 9.05552 97.1305 9.21072C97.3129 9.38531 97.4254 9.61811 97.4564 9.87031C97.3672 10.0449 97.2585 10.204 97.1305 10.3514C96.9947 10.5105 96.8434 10.6735 96.6843 10.8325C96.7192 11.1003 96.793 11.3602 96.9055 11.6047C97.0296 11.8918 97.1615 12.1944 97.3012 12.5203C97.4409 12.8579 97.5651 13.1993 97.6698 13.5485C97.7785 13.9132 97.8328 14.2896 97.8328 14.6698C97.825 15.085 97.6931 15.4885 97.4564 15.8261C97.1965 16.2179 96.8744 16.5671 96.5058 16.862C96.1256 17.1685 95.6988 17.4207 95.2448 17.607C94.8336 17.7854 94.3913 17.8824 93.9412 17.8902C93.5571 17.8941 93.1729 17.8436 92.8005 17.735C92.494 17.6458 92.203 17.5138 91.9352 17.3392C91.7141 17.1996 91.524 17.0133 91.3765 16.7961C91.2524 16.6137 91.1825 16.4003 91.1786 16.1791C91.1786 15.9037 91.2213 15.6243 91.3067 15.3643C91.4115 15.0811 91.5589 14.8134 91.7451 14.5767C91.8343 14.4642 91.9857 14.2896 92.1913 14.0529C92.397 13.8201 92.6259 13.5524 92.8703 13.2575C93.1147 12.9626 93.3708 12.6484 93.6347 12.3147C93.8791 12.0043 94.108 11.6784 94.3175 11.3447V11.3408ZM94.6473 12.7958C94.5348 12.9549 94.3874 13.1372 94.2089 13.339C94.0304 13.5408 93.8403 13.7542 93.6347 13.9831C93.429 14.2042 93.2156 14.4332 92.9945 14.6621C92.7733 14.891 92.5638 15.1083 92.3698 15.3139C92.6181 15.6398 92.9246 15.9192 93.2777 16.1287C93.5726 16.3111 93.9101 16.4119 94.2555 16.4197C94.5232 16.4197 94.7831 16.3149 94.9655 16.1209C95.1634 15.9231 95.2642 15.6204 95.2642 15.2208C95.2642 15.0113 95.241 14.8056 95.1944 14.6039C95.1478 14.3866 95.0896 14.1732 95.0237 13.9637C94.9538 13.7542 94.8879 13.5446 94.8181 13.3468C94.7482 13.145 94.6939 12.9626 94.6435 12.7958H94.6473Z" fill="white"/>
<path d="M104.479 13.242C104.491 13.3002 104.499 13.3545 104.506 13.4127C104.506 13.4709 104.514 13.5253 104.514 13.5835C104.522 13.9909 104.374 14.3905 104.107 14.697C103.695 15.2596 103.234 15.7873 102.737 16.2723C102.368 16.6292 101.969 16.959 101.546 17.25C101.251 17.4557 100.933 17.6225 100.595 17.7467C100.382 17.8243 100.157 17.8708 99.9279 17.8825C99.1209 17.8825 98.3992 17.3781 98.1276 16.6137L99.6874 11.5814L99.2761 11.6629C99.2101 11.4689 99.1752 11.2671 99.1713 11.0615C99.1791 10.7976 99.2451 10.5377 99.3653 10.301C99.4585 10.1031 99.602 9.93628 99.7844 9.81988L100.246 9.76945L100.964 7.52294C101.239 7.4531 101.519 7.41819 101.802 7.41819C102.136 7.40655 102.462 7.48027 102.764 7.62383C102.997 7.7247 103.172 7.92646 103.245 8.16702L102.838 9.50561L104.471 9.33489C104.456 9.5832 104.394 9.82764 104.293 10.0527C104.184 10.301 104.037 10.5299 103.854 10.7317L102.357 11.0576L101.224 14.8794C101.224 15.2674 101.344 15.4614 101.585 15.4614C101.767 15.4614 102.093 15.3023 102.562 14.9802C103.032 14.6582 103.672 14.0762 104.479 13.2343V13.242Z" fill="white"/>
<path d="M111.762 13.021C111.785 13.1451 111.797 13.2732 111.797 13.3973C111.781 13.6185 111.731 13.8357 111.649 14.0414C111.572 14.2587 111.467 14.4643 111.331 14.6505C110.532 15.7253 109.721 16.5323 108.898 17.0755C108.154 17.5954 107.269 17.8787 106.361 17.8903C105.426 17.8903 104.72 17.6498 104.254 17.1725C103.785 16.6914 103.552 16.0512 103.552 15.2519C103.552 14.9493 103.587 14.6467 103.657 14.3518C103.719 14.0569 103.8 13.7659 103.897 13.4827C104.107 12.8813 104.394 12.3109 104.755 11.7871C105.084 11.2982 105.48 10.8598 105.93 10.4757C106.338 10.1304 106.796 9.84714 107.292 9.63763C107.738 9.44363 108.219 9.34275 108.704 9.33887C109.414 9.33887 109.954 9.49019 110.326 9.79282C110.699 10.1032 110.904 10.5688 110.881 11.0538C110.881 11.2439 110.842 11.434 110.776 11.6125C110.714 11.8065 110.621 11.9889 110.505 12.1557C110.369 12.3109 110.218 12.4467 110.051 12.5631C109.76 12.7765 109.457 12.9744 109.143 13.1529C108.77 13.3702 108.336 13.5991 107.839 13.8319C107.308 14.0802 106.768 14.3013 106.214 14.4915C106.202 14.5574 106.19 14.6273 106.186 14.6971C106.186 14.7786 106.179 14.8639 106.179 14.9532C106.167 15.2364 106.272 15.5119 106.47 15.7175C106.664 15.9193 106.978 16.0163 107.412 16.0163C107.905 16.0163 108.514 15.7912 109.248 15.3373C109.977 14.8833 110.819 14.1112 111.77 13.0171L111.762 13.021ZM108.111 10.7085C108.002 10.7279 107.901 10.7783 107.82 10.8521C107.661 10.9879 107.525 11.1469 107.412 11.3215C107.238 11.5815 107.083 11.8531 106.951 12.1363C106.772 12.5166 106.621 12.9123 106.505 13.3197C106.966 13.1218 107.412 12.8929 107.843 12.6407C108.091 12.4972 108.32 12.3264 108.522 12.1247C108.685 11.919 108.77 11.6591 108.763 11.3953C108.763 10.9374 108.545 10.7085 108.111 10.7085Z" fill="white"/>
<path d="M118.583 13.207C118.606 13.2613 118.618 13.3195 118.618 13.3777V13.5485C118.618 13.7463 118.579 13.9442 118.505 14.1305C118.432 14.3206 118.331 14.5029 118.206 14.662C117.811 15.1975 117.376 15.7057 116.914 16.1868C116.569 16.5438 116.201 16.8775 115.809 17.1801C115.537 17.3974 115.242 17.5798 114.924 17.7233C114.726 17.8164 114.517 17.8707 114.299 17.8863C113.97 17.8863 113.648 17.7893 113.376 17.603C113.058 17.378 112.806 17.0715 112.639 16.7184C112.685 16.377 112.782 16.0472 112.922 15.7329C113.089 15.3488 113.279 14.9724 113.488 14.6116C113.71 14.2236 113.946 13.8395 114.191 13.4553C114.435 13.0712 114.664 12.7104 114.87 12.369C114.87 12.2991 114.846 12.2293 114.8 12.1711C114.726 12.0896 114.633 12.0275 114.528 11.9926C114.381 11.9344 114.218 11.8801 114.047 11.8219C113.876 11.7637 113.741 11.7132 113.64 11.6667C113.368 12.1012 113.054 12.5552 112.697 13.0285C112.34 13.5019 111.971 13.9636 111.591 14.4176C111.207 14.8715 110.823 15.2983 110.435 15.7018C110.09 16.0666 109.725 16.4119 109.337 16.7378C109.248 16.6602 109.178 16.5593 109.139 16.4468C109.096 16.3265 109.077 16.1985 109.081 16.0704C109.081 15.923 109.104 15.7756 109.151 15.632C109.193 15.4923 109.263 15.3604 109.356 15.2479C109.717 14.9685 110.051 14.6581 110.35 14.3128C110.691 13.9326 111.009 13.5368 111.3 13.1217C111.591 12.7104 111.851 12.3185 112.08 11.946C112.309 11.5736 112.476 11.2864 112.577 11.0808C112.383 10.7976 112.282 10.4639 112.286 10.1186C112.293 9.66462 112.441 9.22618 112.705 8.85758C112.945 8.50451 113.333 8.27171 113.76 8.23291C113.772 8.38811 113.807 8.54331 113.865 8.68687C113.946 8.85758 114.074 9.00115 114.233 9.10202C114.497 9.27662 114.78 9.42406 115.071 9.54046C115.432 9.69566 115.925 9.87026 116.546 10.0643C116.833 10.1457 117.108 10.2699 117.361 10.4367C117.551 10.5725 117.644 10.8092 117.644 11.139C117.527 11.4882 117.38 11.8296 117.198 12.1478C116.992 12.528 116.775 12.9121 116.546 13.2885C116.317 13.6687 116.107 14.0296 115.913 14.3749C115.75 14.6504 115.622 14.9491 115.537 15.2595C115.537 15.3332 115.564 15.4031 115.622 15.4497C115.677 15.4923 115.743 15.5195 115.813 15.5195C115.944 15.4962 116.065 15.4419 116.173 15.3643C116.395 15.2285 116.604 15.0772 116.806 14.9181C117.097 14.6892 117.372 14.4486 117.636 14.1887C117.939 13.8938 118.253 13.564 118.587 13.1954L118.583 13.207Z" fill="white"/>
<path d="M119.731 11.3408C119.786 11.0149 119.89 10.7006 120.042 10.4057C120.177 10.1303 120.356 9.87807 120.565 9.65303C120.752 9.45127 120.973 9.28444 121.217 9.1564C121.438 9.04 121.679 8.97792 121.927 8.97792C122.156 8.97404 122.377 9.05552 122.544 9.21072C122.727 9.38531 122.839 9.61811 122.87 9.87031C122.781 10.0449 122.672 10.204 122.544 10.3514C122.408 10.5105 122.257 10.6735 122.098 10.8325C122.133 11.1003 122.207 11.3602 122.319 11.6047C122.443 11.8918 122.575 12.1944 122.715 12.5203C122.855 12.8579 122.979 13.1993 123.084 13.5485C123.192 13.9132 123.246 14.2896 123.246 14.6698C123.239 15.085 123.107 15.4885 122.87 15.8261C122.61 16.2179 122.288 16.5671 121.92 16.862C121.539 17.1685 121.112 17.4207 120.659 17.607C120.247 17.7854 119.805 17.8824 119.355 17.8902C118.971 17.8941 118.587 17.8436 118.214 17.735C117.908 17.6458 117.617 17.5138 117.349 17.3392C117.128 17.1996 116.938 17.0133 116.79 16.7961C116.666 16.6137 116.596 16.4003 116.592 16.1791C116.592 15.9037 116.635 15.6243 116.72 15.3643C116.825 15.0811 116.973 14.8134 117.159 14.5767C117.248 14.4642 117.399 14.2896 117.605 14.0529C117.811 13.8201 118.04 13.5524 118.284 13.2575C118.528 12.9626 118.785 12.6484 119.048 12.3147C119.293 12.0043 119.522 11.6784 119.731 11.3447V11.3408ZM120.057 12.7958C119.945 12.9549 119.797 13.1372 119.619 13.339C119.44 13.5408 119.25 13.7542 119.044 13.9831C118.839 14.2042 118.625 14.4332 118.404 14.6621C118.183 14.891 117.974 15.1083 117.78 15.3139C118.028 15.6398 118.334 15.9192 118.688 16.1287C118.982 16.3111 119.32 16.4119 119.665 16.4197C119.933 16.4197 120.193 16.3149 120.375 16.1209C120.573 15.9231 120.674 15.6204 120.674 15.2208C120.674 15.0113 120.651 14.8056 120.604 14.6039C120.558 14.3866 120.499 14.1732 120.433 13.9637C120.364 13.7542 120.298 13.5446 120.228 13.3468C120.158 13.145 120.104 12.9626 120.053 12.7958H120.057Z" fill="white"/>
<path d="M84.8736 3.4259C84.4818 4.45021 84.1132 5.54824 83.764 6.72387C83.4148 7.8995 83.116 9.05185 82.8677 10.1887C82.6116 11.3255 82.406 12.408 82.2469 13.4401C82.1033 14.3092 82.0257 15.19 82.0102 16.0707C82.0025 16.3772 82.0452 16.6799 82.1344 16.9709C82.1965 17.1959 82.3245 17.3938 82.5069 17.5335C82.2585 17.8555 81.9249 18.0999 81.5446 18.2435C81.1683 18.3987 80.7648 18.4763 80.3612 18.4802C79.8297 18.4957 79.3136 18.3095 78.9179 17.9603C78.5221 17.6149 78.3281 17.0291 78.3281 16.2026C78.3398 15.7836 78.3747 15.3646 78.4407 14.9494C78.5144 14.414 78.6269 13.8087 78.7666 13.1336C78.9101 12.4546 79.0809 11.7174 79.2787 10.9181C79.4727 10.1188 79.6861 9.31569 79.9112 8.5009C79.8452 8.5009 79.7831 8.50478 79.721 8.52418C79.6706 8.55133 79.6279 8.59014 79.5969 8.6367L74.0641 17.0795C73.4976 17.289 72.9039 17.4015 72.3025 17.4171C71.9727 17.4248 71.6468 17.3511 71.3519 17.2037C71.0687 17.0446 70.8553 16.7807 70.7661 16.4703C70.8127 16.0629 70.8514 15.609 70.8902 15.1085C70.929 14.608 70.964 14.088 71.0028 13.5526C71.0416 13.0172 71.0726 12.4817 71.1036 11.9385C71.1347 11.3954 71.158 10.8677 71.1735 10.3594C71.189 10.0568 71.1968 9.78128 71.1968 9.52521V8.72981C71.1968 8.65221 71.1735 8.57461 71.1424 8.50477C71.1036 8.46985 71.0493 8.45046 70.995 8.45822C69.7767 10.6582 68.7175 12.505 67.8212 14.0027C67.0918 15.252 66.2964 16.4587 65.4389 17.6266C64.7444 18.5461 64.1197 19.2018 63.5649 19.6015C63.0062 20.0011 62.463 20.199 61.9314 20.199C61.3649 20.2106 60.8179 19.9778 60.4337 19.5549C60.0341 19.1242 59.7586 18.5422 59.6112 17.8051C59.7121 17.84 59.8207 17.8555 59.9255 17.8516C60.5618 17.8516 61.1826 17.5839 61.7878 17.0523C62.4824 16.4238 63.107 15.7176 63.6502 14.9533C64.2865 14.088 64.9345 13.1025 65.6019 11.9967C66.2692 10.891 66.9792 9.76576 67.7358 8.62117C68.0268 8.15558 68.3683 7.72878 68.764 7.34467C69.0628 7.06919 69.4547 6.92175 69.8582 6.92563C70.1259 6.92951 70.3897 6.96831 70.6497 7.03815C70.7894 7.06143 70.9174 6.96443 70.9407 6.82475C70.9407 6.81311 70.9407 6.80147 70.9407 6.78595C70.8359 5.56764 70.4673 4.63257 69.8349 3.9885C69.2025 3.34054 68.3062 3.01851 67.15 3.01851C66.2188 3.01463 65.3031 3.24354 64.4844 3.68586C63.658 4.12818 62.9286 4.72569 62.3272 5.44736C61.0507 7.00323 60.3523 8.95485 60.3523 10.9686C60.3523 11.6631 60.5618 12.1131 60.9847 12.3304C60.7403 12.668 60.4221 12.9473 60.0574 13.1452C59.7043 13.3392 59.3085 13.4401 58.905 13.4401C58.3386 13.4556 57.7915 13.2422 57.3802 12.8542C56.9651 12.4623 56.7594 11.8377 56.7594 10.9802C56.7594 10.0335 56.9107 9.09453 57.2211 8.20214C57.5315 7.30974 57.9544 6.46392 58.486 5.68404C59.0214 4.88865 59.6577 4.16697 60.3716 3.52678C61.0856 2.88659 61.8654 2.32787 62.6957 1.85452C63.5105 1.3928 64.3797 1.02808 65.2798 0.768124C66.1489 0.515926 67.0529 0.384007 67.9609 0.380127C70.1724 0.380127 71.837 1.06688 72.9505 2.43651C74.0641 3.80614 74.6228 5.944 74.6228 8.85009C74.6228 9.05961 74.6228 9.33897 74.6111 9.68429C74.6034 10.0296 74.5917 10.3827 74.5762 10.7435C74.5607 11.1044 74.5452 11.4419 74.5296 11.7484C74.5141 12.0549 74.4986 12.2761 74.4831 12.4158C74.549 12.4158 74.6111 12.4119 74.6732 12.3925C74.7198 12.3692 74.7547 12.3265 74.7741 12.28L80.7143 3.60826C80.8967 3.30562 81.0596 3.15818 81.211 3.15818C81.2575 3.15818 81.3196 3.15818 81.4011 3.14654C81.467 3.14266 81.5291 3.13102 81.5912 3.11162C81.8162 2.85555 82.1615 2.72751 82.631 2.72751C82.9763 2.73527 83.3178 2.78571 83.6476 2.88658C84.0744 3.01462 84.4856 3.19698 84.8659 3.42978L84.8736 3.4259Z" fill="white"/>
<path opacity="0.4" d="M71.1929 8.72972C71.1929 8.65212 71.1696 8.57452 71.1386 8.50468C71.0998 8.46976 71.0455 8.45036 70.9911 8.45812C69.7728 10.6581 68.7136 12.5049 67.8173 14.0026C67.0879 15.2519 66.2925 16.4586 65.435 17.6265C64.7444 18.546 63.0178 15.8145 63.6502 14.9493C64.2827 14.0841 64.9345 13.0986 65.6019 11.9928C66.2731 10.887 66.9793 9.76179 67.7359 8.6172C68.0269 8.15161 68.3683 7.72481 68.764 7.34069C69.0628 7.06521 69.4547 6.91778 69.8582 6.92166C70.1259 6.92554 70.3897 6.96434 70.6497 7.03418C70.7894 7.05746 70.9174 6.96046 70.9407 6.82078C70.9407 6.80914 70.9407 6.7975 70.9407 6.78198C70.9058 6.32027 70.8165 5.86243 70.6769 5.42011C70.6148 5.22611 70.5605 5.10583 70.5411 5.05151C70.9834 5.95167 71.1541 7.17774 71.189 7.98865C71.1929 8.20205 71.189 8.72584 71.189 8.72584L71.1929 8.72972Z" fill="url(#paint0_linear_843_840)"/>
<path opacity="0.41" d="M81.599 3.10742C81.3894 3.47602 80.3535 7.16199 79.9073 8.50445C79.8297 8.49669 79.7521 8.50445 79.6823 8.53549C79.0033 9.01273 77.1059 9.40849 76.8072 9.29985C77.5056 8.31046 80.0392 4.58957 80.7221 3.60406C80.7648 3.53422 80.9704 3.15786 81.2187 3.15398C81.2343 3.15398 81.2769 3.15398 81.3817 3.14622C81.4554 3.14234 81.533 3.1307 81.6028 3.1113L81.599 3.10742Z" fill="url(#paint1_linear_843_840)"/>
</g>
<defs>
<linearGradient id="paint0_linear_843_840" x1="63.5144" y1="11.4379" x2="71.1929" y2="11.4379" gradientUnits="userSpaceOnUse">
<stop offset="0.67" stop-opacity="0"/>
<stop offset="1"/>
</linearGradient>
<linearGradient id="paint1_linear_843_840" x1="77.0827" y1="11.1118" x2="81.1566" y2="4.05412" gradientUnits="userSpaceOnUse">
<stop offset="0.4" stop-opacity="0"/>
<stop offset="1" stop-color="#3D3D3D"/>
</linearGradient>
<clipPath id="clip0_843_840">
<rect width="124" height="21" fill="white"/>
</clipPath>
</defs>
</svg>
