<svg xmlns="http://www.w3.org/2000/svg" viewBox="0 0 102 34" fill="none"><path fill-rule="evenodd" clip-rule="evenodd" d="M43.6395 0H44.8014V1.34898H43.6395V0ZM16.4366 2.10533C17.3061 2.10533 18.078 2.5264 18.5615 3.30226V3.29836V0.105254H19.6531V8.3278H18.5615V7.24783C18.0819 8.02369 17.3061 8.44476 16.4366 8.44476C15.0018 8.44476 13.7464 7.30631 13.7464 5.27504C13.7464 3.24378 15.0135 2.10533 16.4366 2.10533ZM14.8498 5.27115C14.8498 6.72929 15.6724 7.58702 16.7056 7.58702C17.7271 7.58702 18.5615 6.72929 18.5615 5.27115C18.5615 3.813 17.7388 2.95527 16.7056 2.95527C15.6724 2.95527 14.8498 3.813 14.8498 5.27115ZM1.09557 3.31005C1.57513 2.52249 2.35099 2.10143 3.23213 2.10143L3.22823 2.10532C4.63961 2.10532 5.90673 3.24377 5.90673 5.27504C5.90673 7.3063 4.6513 8.44475 3.22823 8.44475C2.3471 8.44475 1.57513 8.02368 1.09167 7.23613V10.4409H0V2.21839H1.09557V3.31005ZM1.09167 5.27114C1.09167 6.72929 1.92602 7.58702 2.94752 7.58702C3.98071 7.58702 4.81505 6.72929 4.81505 5.27114C4.81505 3.81299 3.96901 2.95526 2.94752 2.95526C1.92602 2.95526 1.09167 3.81299 1.09167 5.27114ZM70.063 10.7183L67.3888 8.04414L64.7146 10.7183L67.3888 13.3924L70.063 10.7183ZM21.3701 14.9673C17.019 14.9673 13.4905 18.4957 13.4905 22.8467V25.3692C13.4905 29.7203 17.019 33.2487 21.3701 33.2487C25.7212 33.2487 29.2496 29.7203 29.2496 25.3692V22.8467C29.2496 18.4957 25.7212 14.9673 21.3701 14.9673ZM25.4054 25.1509C25.4054 27.4473 23.6002 29.3109 21.3701 29.3109C19.1399 29.3109 17.3348 27.4473 17.3348 25.1509V23.2288C17.3348 20.9324 19.1399 19.0688 21.3701 19.0688C23.6002 19.0688 25.4054 20.9324 25.4054 23.2288V25.1509ZM63.231 19.0649V15.2831H53.1447H51.8854H49.3629V22.219V25.3692V26.0008V32.9368H51.7255H53.1447V29.1511V26.0008H60.7084V22.219H53.1447V19.0649H63.231ZM82.522 24.1099H81.3874C83.8242 24.1099 85.8009 22.1332 85.8009 19.6965C85.8009 17.2598 83.9919 15.4585 81.7032 15.2948V15.2831H72.0887V32.9329H75.8706V25.9969H82.019V32.9329H85.8009V27.3849C85.8009 25.5759 84.335 24.106 82.522 24.106V24.1099ZM77.7654 22.219H75.8706V19.0688H80.9157C81.7968 19.0688 82.5064 19.7901 82.4908 20.6751C82.4752 21.5445 81.7305 22.2229 80.8611 22.2229H77.7654V22.219ZM65.5003 15.2831H69.2822V32.9329H65.5003V15.2831ZM39.1493 22.8467H41.3561H46.8729V25.3692C46.8729 30.4104 43.5004 33.2487 39.1493 33.2487C34.7983 33.2487 31.2698 29.7203 31.2698 25.3692V22.8467C31.2698 18.4957 34.7983 14.9673 39.1493 14.9673C42.6193 14.9673 45.5629 17.2091 46.6156 20.3242H42.0423C41.3093 19.5483 40.2839 19.0649 39.1493 19.0649C36.9192 19.0649 35.1141 20.9285 35.1141 23.2249V25.147C35.1141 27.4434 36.9192 29.307 39.1493 29.307C41.0949 29.307 42.7168 27.8878 43.0989 25.9969H39.1493V22.8467ZM102 19.0649V15.2831H88.1318V19.0649V22.219V25.3692V26.0008H91.9137V32.9368H94.2803H95.6955H102V29.1511H95.6955V26.0008H99.4813V22.219H91.9137V19.0649H102ZM7.56373 25.3692V29.1511H12.6088V32.9368H3.78186V29.1511H0V15.2831H3.78186V25.3692H7.56373ZM9.85886 6.95544L8.0264 2.21841H6.91134L9.3637 8.25763L8.52935 10.441H9.63662L12.7596 2.21841H11.6562L9.85886 6.95544ZM26.657 4.7448C26.657 2.76032 25.6589 2.10143 24.2358 2.10143C22.9453 2.10143 21.8848 2.88898 21.6743 4.0976H22.7309C22.8595 3.38023 23.4249 2.95916 24.2124 2.95916C25.0585 2.95916 25.5614 3.32175 25.5614 4.54596V4.66293L24.4697 4.73311C22.4034 4.87346 21.5105 5.60254 21.5105 6.6942C21.5105 7.6455 22.2396 8.44475 23.6588 8.44475C24.692 8.44475 25.3041 8.04708 25.6433 7.43497C25.6433 7.77416 25.6667 8.09386 25.7252 8.32779H26.7701C26.6999 8.08216 26.6531 7.71568 26.6531 7.29461V4.7448H26.657ZM25.5614 6.0509C25.5614 6.93202 24.9844 7.6494 23.9161 7.6494C22.9882 7.6494 22.6022 7.18934 22.6022 6.66301C22.6022 5.95733 23.2377 5.61813 24.6803 5.51286L25.5614 5.45438V6.0509ZM29.7206 3.29835C30.1066 2.5108 30.824 2.10143 31.7402 2.10143C32.9839 2.10143 33.8183 2.86559 33.8183 4.56936V8.32779H32.7266V4.73311C32.7266 3.51279 32.2237 2.95916 31.3542 2.95916C30.3678 2.95916 29.7206 3.65314 29.7206 4.95534V8.32779H28.6289V2.21839H29.7206V3.29835ZM37.699 0.810956H36.6073V2.22232H34.6813V3.10344H36.6073V6.69812C36.6073 8.0705 37.4417 8.33172 38.4398 8.33172H39.8629V7.45059H38.7361C38.1591 7.45059 37.7029 7.38041 37.7029 6.59286V3.09954H39.8629V2.21842H37.7029V0.807057L37.699 0.810956ZM44.7674 2.21841H41.5743V3.09954H43.6758V7.44668H41.5743V8.32781H46.635V7.44668H44.7674V2.21841ZM48.5295 5.27111C48.5295 6.79943 49.3639 7.58699 50.3737 7.58699V7.57919C51.208 7.57919 51.7967 7.14642 52.0541 6.33548H53.1457C52.8182 7.70785 51.746 8.43692 50.3737 8.43692C48.7985 8.43692 47.4378 7.35696 47.4378 5.26721C47.4378 3.17746 48.7985 2.0975 50.3737 2.0975C51.746 2.0975 52.8065 2.82657 53.1457 4.18725H52.0424C51.785 3.38799 51.208 2.95523 50.3737 2.95523C49.3639 2.95523 48.5295 3.74278 48.5295 5.27111Z" fill="white"></path></svg>
