<svg width="151" height="12" viewBox="0 0 151 12" fill="none" xmlns="http://www.w3.org/2000/svg">
<g clip-path="url(#clip0_843_850)">
<path d="M3.42486 0.510254H4.27845C5.40364 0.556813 6.39302 0.824525 7.06814 1.81392C7.29318 2.12819 7.65402 2.76063 7.65402 3.79659C7.65402 4.29322 7.56478 5.32529 6.7073 6.18276C5.85371 6.99368 4.72853 6.99367 3.59946 6.99367H2.8351V10.9551H0.584717V0.510254H3.42097H3.42486ZM2.88553 5.05757H3.78569C4.05729 5.05757 4.28233 5.05757 4.55004 4.96833C5.36096 4.74329 5.4502 4.02162 5.4502 3.70734C5.4502 2.80719 4.86432 2.49292 4.55004 2.40368C4.37156 2.35712 4.18921 2.35711 3.82838 2.35711H2.88166V5.05757H2.88553Z" fill="white"/>
<path d="M12.473 0.510254H13.2839C14.4091 0.556814 15.5343 0.824524 16.1667 1.86047C16.6168 2.58215 16.6634 3.34651 16.6634 3.61423C16.6634 4.56094 16.3025 5.59689 15.4489 6.13621C15.1346 6.31468 14.9523 6.40779 14.2772 6.53971L17.2919 10.9978H14.5915L11.8018 6.58628V10.9978H9.59406V0.510254H12.4769H12.473ZM11.8871 5.10025H12.698C13.3266 5.10025 13.9125 5.05369 14.2733 4.42514C14.3625 4.28934 14.4518 4.0643 14.4518 3.66078C14.4518 3.52499 14.4518 3.12146 14.1375 2.80719C13.734 2.35711 13.1908 2.31055 12.6515 2.31055H11.8871V5.10025Z" fill="white"/>
<path d="M21.6569 10.9978H19.3599V0.510254H21.6569V10.9978Z" fill="white"/>
<path d="M26.0684 0.510254L28.0937 6.5436C28.2295 6.99367 28.3653 7.44375 28.4972 7.94039C28.5865 8.21199 28.633 8.4797 28.6757 8.7513C28.8542 8.12274 28.99 7.53688 29.1724 6.951C29.3082 6.54748 29.444 6.14009 29.5759 5.73657L31.3296 0.514126H33.805L29.7078 11.0017H27.5001L23.5852 0.514126H26.0606L26.0684 0.510254Z" fill="white"/>
<path d="M40.1138 0.510254L44.436 10.9978H41.9606L41.1497 8.88322H36.7847L36.0204 10.9978H33.5876L37.6849 0.510254H40.1176H40.1138ZM40.3854 6.90443C40.1138 6.18276 39.846 5.46497 39.621 4.78986C39.1244 3.43963 39.0351 3.07878 38.9459 2.35711C38.8993 2.58215 38.8993 2.8072 38.8566 2.98567C38.7208 3.48231 38.4531 4.33589 38.2708 4.83253C38.0457 5.50764 37.7741 6.18276 37.5491 6.90443H40.3854Z" fill="white"/>
<path d="M51.1873 0.510181V2.53552H48.9369V10.9977H46.6865V2.53552H44.4362V0.463623H51.1873V0.510181Z" fill="white"/>
<path d="M59.1993 0.510254V2.5356H55.5095V4.6075H59.1101V6.63284H55.5095V8.88322H59.1993V10.9978H53.2552V0.510254H59.1955H59.1993Z" fill="white"/>
<path d="M69.6443 0.510254H70.4979C71.6231 0.556813 72.6125 0.824525 73.2876 1.81392C73.5126 2.12819 73.8734 2.76063 73.8734 3.79659C73.8734 4.29322 73.7842 5.32529 72.9267 6.18276C72.0731 6.99368 70.9479 6.99367 69.8189 6.99367H69.0545V10.9551H66.8041V0.510254H69.6404H69.6443ZM69.105 5.05757H70.0051C70.2767 5.05757 70.5017 5.05757 70.7695 4.96833C71.5804 4.74329 71.6696 4.02162 71.6696 3.70734C71.6696 2.80719 71.0837 2.49292 70.7695 2.40368C70.591 2.35712 70.4086 2.35711 70.0478 2.35711H69.1011V5.05757H69.105Z" fill="white"/>
<path d="M80.5819 0.510254L84.9042 10.9978H82.4288L81.6178 8.88322H77.2529L76.4885 10.9978H74.0558L78.153 0.510254H80.5858H80.5819ZM80.8535 6.90443C80.5819 6.18276 80.3142 5.46497 80.0891 4.78986C79.5925 3.43963 79.5033 3.07878 79.414 2.35711C79.3675 2.58215 79.3675 2.8072 79.3248 2.98567C79.189 3.48231 78.9213 4.33589 78.7389 4.83253C78.5139 5.50764 78.2423 6.18276 78.0172 6.90443H80.8535Z" fill="white"/>
<path d="M94.1307 3.52508C93.7699 3.21081 92.7805 2.35334 91.341 2.35334C91.0694 2.35334 90.4874 2.35334 89.855 2.71417C89.2264 3.07501 88.2332 4.01785 88.2332 5.82203C88.2332 6.04707 88.2332 6.5437 88.4582 7.12569C88.6832 7.84737 89.4049 9.15104 91.3837 9.15104C91.5195 9.15104 91.7872 9.15103 92.1946 9.06179C92.4662 9.01523 93.1413 8.7902 93.6341 8.43324C93.8125 8.29744 93.9949 8.16165 94.1734 8.02973V10.4625C93.6768 10.6409 92.6447 11.1841 91.1587 11.1841C90.6194 11.1841 89.0868 11.1376 87.8723 10.0589C87.1972 9.47307 85.9828 8.07628 85.9828 5.69398C85.9828 4.74727 86.2078 3.66865 86.6113 2.81117C86.7471 2.58613 86.9256 2.22529 87.3757 1.77522C87.8723 1.2359 88.4543 0.785835 89.1294 0.560797C89.983 0.24652 90.8405 0.199951 91.1082 0.199951C91.4691 0.199951 92.4119 0.24652 93.3586 0.560797C93.6302 0.650036 93.9445 0.785832 94.1695 0.921631V3.53284H94.123L94.1307 3.52508Z" fill="white"/>
<path d="M99.4424 5.23605L102.954 0.510254H105.654L101.693 5.50765L105.79 10.9978H102.907L99.3492 6.08965V10.9978H97.0523V0.510254H99.3492V5.23605H99.4385H99.4424Z" fill="white"/>
<path d="M113.445 0.510254L117.767 10.9978H115.292L114.481 8.88322H110.116L109.352 10.9978H106.919L111.016 0.510254H113.449H113.445ZM113.67 6.90443C113.399 6.18276 113.131 5.46497 112.906 4.78986C112.409 3.43963 112.32 3.07878 112.231 2.35711C112.184 2.58215 112.184 2.8072 112.142 2.98567C112.006 3.48231 111.738 4.33589 111.556 4.83253C111.331 5.50764 111.059 6.18276 110.834 6.90443H113.67Z" fill="white"/>
<path d="M126.905 3.70333C126.816 3.61409 126.726 3.43175 126.501 3.25327C126.14 2.93899 125.376 2.35311 124.115 2.35311C123.351 2.35311 122.718 2.57814 122.09 3.07478C121.011 3.97493 120.965 5.23592 120.965 5.73256C120.965 6.0934 120.965 6.99355 121.55 7.8937C121.865 8.34378 122.629 9.24392 124.162 9.24392C125.465 9.24392 126.187 8.56882 126.459 8.20798C126.637 7.93638 126.773 7.66866 126.909 7.44363H124.119V5.46096H129.384C129.384 6.04683 129.431 7.71134 128.348 9.19737C126.951 11.1335 124.837 11.2693 124.072 11.2693C123.669 11.2693 123.172 11.2227 122.811 11.1335C122.09 10.9977 120.74 10.5942 119.704 9.06157C119.3 8.47569 118.757 7.48631 118.757 5.77525C118.757 5.05357 118.846 4.60349 118.893 4.33577C118.982 3.93225 119.296 2.84974 120.107 1.94959C120.243 1.81379 120.511 1.54608 120.871 1.22792C121.818 0.50625 122.943 0.238525 124.158 0.238525C125.78 0.238525 126.769 0.777844 127.308 1.13868C127.805 1.45296 128.119 1.81379 128.255 1.94959C128.48 2.22119 128.569 2.3531 128.752 2.6247L126.905 3.70333Z" fill="white"/>
<path d="M134.106 10.9978H131.809V0.510254H134.106V10.9978Z" fill="white"/>
<path d="M141.668 3.25327C141.532 3.07479 140.993 2.26387 140.139 2.26387C139.554 2.26387 139.061 2.62471 139.061 3.21058C139.061 4.02149 140.05 4.38233 140.547 4.65004C141.536 5.10012 141.85 5.2786 142.258 5.59676C142.661 5.95759 143.247 6.58616 143.247 7.84715C143.247 9.10813 142.619 9.91904 142.258 10.2333C142.169 10.3226 141.897 10.5942 141.494 10.7726C140.729 11.1761 139.872 11.2227 139.557 11.2227C139.332 11.2227 138.521 11.1761 137.804 10.9084C136.993 10.5942 136.318 9.91905 136.139 9.73669L137.668 8.07218C138.165 8.61149 138.746 9.28661 139.604 9.28661C140.279 9.28661 140.865 8.78997 140.865 8.07218C140.865 7.84714 140.818 7.66866 140.686 7.4863C140.415 7.03622 139.74 6.76463 139.336 6.58616C138.797 6.31456 138.3 6.04684 137.808 5.686C137.447 5.37172 136.636 4.65005 136.636 3.34638C136.636 2.49279 136.997 1.90691 137.175 1.63532C138.075 0.331647 139.561 0.238525 140.058 0.238525C140.283 0.238525 141.047 0.285082 141.769 0.599359C142.444 0.913637 142.894 1.45296 143.073 1.63532L141.676 3.25714L141.668 3.25327Z" fill="white"/>
<path d="M150.809 0.510181V2.53552H148.559V10.9977H146.309V2.53552H144.058V0.463623H150.809V0.510181Z" fill="white"/>
</g>
<defs>
<clipPath id="clip0_843_850">
<rect width="151" height="12" fill="white"/>
</clipPath>
</defs>
</svg>
