<svg width="78" height="18" viewBox="0 0 78 18" fill="none" xmlns="http://www.w3.org/2000/svg">
<g clip-path="url(#clip0_843_834)">
<path d="M7.16636 17.46C2.36296 17.46 6.10352e-05 13.6964 6.10352e-05 8.91632C6.10352e-05 3.88788 2.65396 0.166992 7.0616 0.166992C8.54375 0.166992 9.7155 0.562749 10.8213 1.49782C11.1356 1.78882 11.3839 1.70734 11.4266 1.31158L11.5313 0.357111H12.0318L12.3034 6.23914H11.8223C11.2364 2.89461 9.79698 1.08266 7.41468 1.08266C4.26026 1.08266 2.5492 4.28364 2.5492 8.6486C2.5492 13.0136 4.24087 16.4629 7.48064 16.4629C9.04815 16.4629 10.1345 15.5899 10.6544 14.7789V10.6856C10.6544 9.41683 10.1539 9.04436 6.74732 9.04436V8.54384H14.1425V9.04436C13.0135 9.04436 12.8466 9.35475 12.8466 10.6856V14.6781C11.6555 16.362 9.64954 17.4639 7.16636 17.4639V17.46Z" fill="white"/>
<path d="M17.0447 3.70167C16.2493 3.70167 15.6867 3.16236 15.6867 2.43292C15.6867 1.70349 16.2493 1.14478 17.0447 1.14478C17.8401 1.14478 18.3833 1.68409 18.3833 2.43292C18.3833 3.18176 17.8207 3.70167 17.0447 3.70167ZM18.2126 6.01025V14.9885C18.2126 16.3193 18.4221 16.6297 19.6947 16.6297V17.1302H14.7245V16.6297C15.9971 16.6297 16.2066 16.3193 16.2066 14.9885V8.58655C16.2066 7.19364 16.1872 6.90264 14.9728 7.40316L14.7866 6.92593L17.8556 5.69986L18.2126 6.01025Z" fill="white"/>
<path d="M25.9531 12.4703H26.539C26.539 15.7139 25.891 17.4599 23.8463 17.4599C22.2167 17.4599 21.3592 16.4822 21.3592 13.5722V6.96072H19.8965V6.19249C21.4213 6.14981 22.3835 5.0285 22.5892 3.073H23.3419V6.10713H25.8484V6.96072H23.3846V13.029C23.3846 14.8797 23.5708 16.1058 24.5524 16.1058C25.5341 16.1058 25.9531 14.9418 25.9531 12.4703Z" fill="white"/>
<path d="M33.2048 17.1261H26.8766V16.6256C28.8205 16.6256 29.0921 16.2531 29.0921 14.9844V2.63832C29.0921 1.36957 28.8205 0.997098 26.8766 0.997098V0.496582H33.4143C36.464 0.496582 38.4893 1.82741 38.4893 4.61323C38.4893 6.92181 36.9645 8.27203 34.9392 8.52035V8.62511C37.5504 8.79195 39.2614 10.4138 39.2614 12.6564C39.2614 15.9388 36.5455 17.1261 33.2048 17.1261ZM31.4084 1.99425V8.1052C31.9322 8.18667 32.4754 8.18667 32.9759 8.18667C34.687 8.18667 36.1924 7.10416 36.1924 4.69471C36.1924 2.28525 34.6676 1.35017 33.0186 1.35017C32.6228 1.35017 32.1844 1.36957 31.8274 1.45493C31.5364 1.51701 31.4084 1.70325 31.4084 1.99425ZM31.4084 9.12175V15.6284C31.4084 16.129 31.9516 16.2725 32.9332 16.2725C34.8965 16.2725 36.9218 15.547 36.9218 12.6758C36.9218 9.80462 34.6016 9.04027 32.9953 9.04027C32.4521 9.04027 31.9283 9.04027 31.4084 9.12175Z" fill="white"/>
<path d="M46.9011 17.4601L46.482 17.107L46.4394 15.3416L46.3773 15.3222C45.6673 16.4435 44.6662 17.4639 43.1802 17.4639C41.6942 17.4639 40.9027 16.2999 40.9027 14.4725V8.60985C40.9027 7.25963 40.8406 7.01131 39.5641 7.40318L39.4166 6.94535L42.6331 5.90552L42.9241 6.17712V14.263C42.9241 15.489 43.3005 16.071 44.092 16.071C44.9262 16.071 45.7643 15.3649 46.4316 14.4725V8.60985C46.4316 7.25963 46.3889 7.01131 45.093 7.40318L44.9456 6.94535L48.1815 5.90552L48.4531 6.17712V14.6587C48.4531 16.0516 48.4958 16.3232 49.7917 15.8421L49.9779 16.3193L46.8856 17.4639L46.9011 17.4601Z" fill="white"/>
<path d="M55.922 12.4703H56.5079C56.5079 15.7139 55.8599 17.4599 53.8152 17.4599C52.1856 17.4599 51.3281 16.4822 51.3281 13.5722V6.96072H49.8654V6.19249C51.3902 6.14981 52.3524 5.0285 52.5581 3.073H53.3108V6.10713H55.8172V6.96072H53.3534V13.029C53.3534 14.8797 53.5397 16.1058 54.5213 16.1058C55.5029 16.1058 55.922 14.9418 55.922 12.4703Z" fill="white"/>
<path d="M60.2249 0.290998V14.9844C60.2249 16.3153 60.4111 16.6257 61.6876 16.6257V17.1262H56.7174V16.6257C57.99 16.6257 58.1996 16.3153 58.1996 14.9844V2.97205C58.1996 1.64123 58.1996 1.37351 56.9463 1.9943L56.7368 1.53647L59.9106 0L60.2249 0.290998Z" fill="white"/>
<path d="M69.2885 12.6798H69.789C69.3506 16.0243 67.9305 17.4599 65.9672 17.4599C63.6082 17.4599 62.1222 15.2367 62.1222 11.8068C62.1222 8.3769 63.5849 5.73853 66.072 5.73853C68.5591 5.73853 69.6648 8.02383 69.6648 11.058H64.1514V11.1006C64.1514 13.9291 65.0283 15.9234 66.7626 15.9234C67.7016 15.9234 68.788 15.1979 69.2885 12.6798ZM66.072 6.61152C64.8188 6.61152 64.295 8.12858 64.1708 10.2082H67.6589C67.6589 8.21394 67.3058 6.61152 66.072 6.61152Z" fill="white"/>
<path d="M76.6682 5.73878C77.3977 5.73878 77.7973 6.15393 77.7973 6.84069C77.7973 7.6516 77.3162 8.17152 76.773 8.17152C76.3966 8.17152 76.2298 8.02796 75.9582 7.73696C75.6866 7.46536 75.5818 7.38388 75.3296 7.38388C74.8485 7.38388 74.2859 8.07064 73.8475 9.33939V14.8683C73.8475 16.2806 74.1618 16.6143 76.063 16.6143V17.1342H70.4254V16.6337C71.6359 16.6337 71.8454 16.3233 71.8454 14.9925V8.59055C71.8454 7.19764 71.8454 6.90665 70.5922 7.42656L70.3827 6.94933L72.055 6.28585L73.475 5.70386L73.8514 6.01425V8.00856H73.9135C74.4993 6.90665 75.5198 5.74266 76.6721 5.74266L76.6682 5.73878Z" fill="white"/>
</g>
<defs>
<clipPath id="clip0_843_834">
<rect width="78" height="18" fill="white"/>
</clipPath>
</defs>
</svg>
