<svg width="81" height="24" viewBox="0 0 81 24" fill="none" xmlns="http://www.w3.org/2000/svg">
<g clip-path="url(#clip0_843_841)">
<path fill-rule="evenodd" clip-rule="evenodd" d="M14.5884 0.0961405C14.8445 0.0961405 15.054 0.305658 15.054 0.565616V5.81133L18.7477 2.10208C18.9301 1.91972 19.225 1.91972 19.4073 2.10208L22.1854 4.9073C22.3639 5.08966 22.3678 5.38065 22.1932 5.56301L22.1854 5.57077L18.5072 9.28002H23.7064C23.9624 9.28002 24.172 9.48954 24.172 9.7495V13.7148C24.172 13.9748 23.9624 14.1843 23.7064 14.1843H18.5072L22.1854 17.8935C22.3639 18.0759 22.3678 18.3669 22.1932 18.5493L22.1854 18.557L19.4073 21.3622C19.2289 21.5446 18.9379 21.5446 18.7555 21.37L18.7477 21.3622L15.0734 17.653V22.8987C15.0734 23.1587 14.8639 23.3682 14.6078 23.3682H10.6774C10.4213 23.3682 10.2118 23.1587 10.2118 22.8987V20.1517C10.2118 19.2787 10.5533 18.4445 11.1624 17.8237L16.1909 12.7254C16.7379 12.1745 16.7341 11.2782 16.1909 10.7272L11.1702 5.66777C10.5572 5.05085 10.2118 4.2089 10.2118 3.33591V0.557854C10.2118 0.297897 10.4213 0.0883789 10.6774 0.0883789H14.5884V0.0961405ZM6.30858 2.16416L6.32023 2.1758L14.8794 10.766C15.4265 11.317 15.4265 12.2055 14.8794 12.7565L6.33962 21.37C6.15726 21.5524 5.86238 21.5562 5.67614 21.37L2.89809 18.6191C2.71574 18.4406 2.71184 18.1496 2.88644 17.9634L2.89421 17.9517L6.59957 14.1998H1.36939C1.10943 14.1998 0.899902 13.9903 0.899902 13.7303V9.77277C0.899902 9.51282 1.10943 9.3033 1.36939 9.3033H6.59957L2.90586 5.61345C2.7235 5.43109 2.7235 5.13234 2.90586 4.94998L5.65674 2.17192C5.83522 1.98956 6.12622 1.98568 6.31246 2.16028L6.30858 2.16416Z" fill="white"/>
<path d="M36.1689 8.72876C36.1146 8.17392 35.8779 7.74325 35.4589 7.43285C35.0398 7.12245 34.4733 6.97113 33.7555 6.97113C33.2705 6.97113 32.8593 7.0371 32.5217 7.17289C32.188 7.30869 31.932 7.49493 31.7535 7.73549C31.575 7.97605 31.4897 8.24377 31.4897 8.55028C31.4819 8.80248 31.5362 9.02364 31.6526 9.20988C31.769 9.39611 31.932 9.55907 32.1376 9.69487C32.3432 9.83067 32.5838 9.94707 32.8554 10.048C33.127 10.1449 33.4141 10.2303 33.7245 10.3001L34.9933 10.6028C35.6102 10.7425 36.1728 10.9248 36.6888 11.1537C37.2048 11.3827 37.6471 11.6659 38.0235 11.9996C38.3999 12.3333 38.6947 12.729 38.9004 13.183C39.1099 13.6369 39.2147 14.1607 39.2224 14.7466C39.2185 15.6118 38.9974 16.3568 38.5628 16.9892C38.1283 17.6216 37.5036 18.1105 36.6888 18.4558C35.874 18.8012 34.8924 18.9758 33.7439 18.9758C32.5954 18.9758 31.6138 18.8012 30.7718 18.452C29.9299 18.1028 29.2742 17.5867 28.8008 16.9C28.3314 16.2132 28.083 15.3635 28.0598 14.347H30.9464C30.9775 14.8203 31.1172 15.2122 31.3577 15.5303C31.5983 15.8485 31.9242 16.0813 32.3277 16.2404C32.7351 16.3995 33.1929 16.4771 33.709 16.4771C34.225 16.4771 34.6557 16.4033 35.0282 16.2559C35.4007 16.1085 35.6917 15.9028 35.9012 15.6429C36.1068 15.3829 36.2116 15.0803 36.2116 14.7388C36.2116 14.4207 36.1185 14.1568 35.9322 13.9396C35.746 13.7223 35.4744 13.5399 35.1174 13.3886C34.7605 13.2373 34.3259 13.0976 33.8138 12.9734L32.2773 12.5893C31.0861 12.2983 30.1472 11.8483 29.4604 11.2313C28.7698 10.6144 28.4284 9.78799 28.4322 8.74428C28.4284 7.89069 28.6573 7.14185 29.119 6.50554C29.5807 5.86534 30.217 5.36871 31.0241 5.01175C31.8311 4.6548 32.7506 4.47632 33.7788 4.47632C34.807 4.47632 35.7421 4.6548 36.5258 5.01175C37.3096 5.36871 37.9188 5.86922 38.3533 6.50554C38.7879 7.14573 39.0129 7.88293 39.0284 8.72488H36.1689V8.72876Z" fill="white"/>
<path d="M44.7629 18.9878C43.6804 18.9878 42.7492 18.7589 41.9694 18.2971C41.1895 17.8354 40.592 17.1952 40.1768 16.3727C39.7617 15.5501 39.5521 14.6034 39.5521 13.5325C39.5521 12.4617 39.7616 11.4956 40.1807 10.6769C40.5997 9.85822 41.1972 9.21802 41.9771 8.75631C42.7531 8.29459 43.6765 8.06567 44.7474 8.06567C45.6708 8.06567 46.4779 8.23251 47.1724 8.57007C47.8669 8.90763 48.414 9.3771 48.8175 9.98238C49.221 10.5877 49.4461 11.3016 49.4849 12.1164H46.7146C46.637 11.5887 46.4313 11.1619 46.0976 10.8398C45.7639 10.5178 45.3294 10.3549 44.794 10.3549C44.34 10.3549 43.9443 10.479 43.6067 10.7234C43.2691 10.9679 43.0053 11.3248 42.8191 11.7943C42.629 12.2638 42.5358 12.8303 42.5358 13.4976C42.5358 14.165 42.629 14.747 42.8152 15.2203C43.0014 15.6937 43.2653 16.0545 43.6028 16.3028C43.9442 16.5512 44.34 16.6753 44.794 16.6753C45.1276 16.6753 45.4303 16.6055 45.698 16.4697C45.9657 16.33 46.1907 16.1321 46.3653 15.8683C46.5399 15.6044 46.6564 15.2863 46.7146 14.9138H49.4849C49.4383 15.7208 49.221 16.4348 48.8253 17.0478C48.4334 17.6608 47.8902 18.1381 47.2034 18.4834C46.5128 18.8287 45.698 18.9994 44.7591 18.9994L44.7629 18.9878Z" fill="white"/>
<path d="M53.2136 18.9797C52.5385 18.9797 51.9371 18.8633 51.4094 18.6266C50.8818 18.39 50.4627 18.0369 50.1601 17.5713C49.8575 17.1057 49.7023 16.5237 49.7023 15.8253C49.7023 15.2356 49.8109 14.7428 50.0243 14.3432C50.2416 13.9435 50.5326 13.6215 50.9051 13.3771C51.2775 13.1326 51.7005 12.9503 52.1777 12.8261C52.6549 12.7019 53.1516 12.6166 53.6754 12.5661C54.2923 12.5002 54.785 12.442 55.1653 12.3838C55.5416 12.3256 55.8132 12.2402 55.9839 12.1238C56.1547 12.0074 56.24 11.8406 56.24 11.6155V11.5729C56.24 11.1383 56.1042 10.8008 55.8287 10.5602C55.5571 10.3196 55.1691 10.2032 54.6686 10.2032C54.1409 10.2032 53.7219 10.3196 53.4076 10.5524C53.0972 10.7852 52.8877 11.0762 52.7868 11.4254L50.0709 11.2043C50.2106 10.5602 50.4783 10.0054 50.8857 9.53201C51.2892 9.06253 51.813 8.69781 52.4532 8.44174C53.0933 8.18566 53.8383 8.05762 54.6803 8.05762C55.27 8.05762 55.8326 8.12746 56.3719 8.26325C56.9112 8.40293 57.3924 8.61634 57.8114 8.90345C58.2304 9.19057 58.5641 9.56305 58.8085 10.017C59.053 10.471 59.1733 11.0103 59.1733 11.6388V18.7741H56.3913V17.3075H56.3098C56.1391 17.6373 55.9141 17.9283 55.627 18.1804C55.3437 18.4326 54.9984 18.6266 54.5988 18.7663C54.1992 18.906 53.7374 18.9758 53.2136 18.9758V18.9797ZM54.0556 16.9544C54.4863 16.9544 54.8704 16.869 55.2002 16.6944C55.53 16.5237 55.7899 16.2909 55.9801 15.996C56.1702 15.7012 56.2633 15.3675 56.2633 14.9989V13.8776C56.1702 13.9358 56.046 13.9901 55.8869 14.0405C55.7279 14.0871 55.5494 14.1336 55.3515 14.1724C55.1536 14.2112 54.9557 14.2462 54.7579 14.2772C54.56 14.3082 54.3815 14.3354 54.2224 14.3548C53.8771 14.4052 53.5784 14.4867 53.3184 14.5954C53.0623 14.704 52.8606 14.8553 52.7209 15.0416C52.5773 15.2278 52.5075 15.4567 52.5075 15.7322C52.5075 16.1318 52.6549 16.4345 52.9459 16.644C53.2369 16.8535 53.6094 16.9583 54.0595 16.9583L54.0556 16.9544Z" fill="white"/>
<path d="M63.2084 4.67065V18.7821H60.2751V4.67065H63.2084Z" fill="white"/>
<path d="M67.391 18.9797C66.7159 18.9797 66.1145 18.8633 65.5868 18.6266C65.0592 18.39 64.6401 18.0369 64.3375 17.5713C64.031 17.1057 63.8796 16.5237 63.8796 15.8253C63.8796 15.2356 63.9883 14.7428 64.2017 14.3432C64.4189 13.9435 64.7099 13.6215 65.0824 13.3771C65.4549 13.1326 65.8778 12.9503 66.3551 12.8261C66.8323 12.7019 67.3289 12.6166 67.8527 12.5661C68.4696 12.5002 68.9624 12.442 69.3426 12.3838C69.719 12.3256 69.9906 12.2402 70.1613 12.1238C70.332 12.0074 70.4174 11.8406 70.4174 11.6155V11.5729C70.4174 11.1383 70.2816 10.8008 70.0061 10.5602C69.7306 10.3196 69.3465 10.2032 68.846 10.2032C68.3183 10.2032 67.8993 10.3196 67.585 10.5524C67.2746 10.7852 67.0651 11.0762 66.9642 11.4254L64.2482 11.2043C64.3879 10.5602 64.6557 10.0054 65.063 9.53201C65.4666 9.06253 65.9903 8.69781 66.6305 8.44174C67.2707 8.18566 68.0157 8.05762 68.8576 8.05762C69.4474 8.05762 70.01 8.12746 70.5493 8.26325C71.0886 8.40293 71.5697 8.61634 71.9888 8.90345C72.4078 9.19057 72.7415 9.56305 72.9859 10.017C73.2303 10.471 73.3507 11.0103 73.3507 11.6388V18.7741H70.5687V17.3075H70.4872C70.3165 17.6373 70.0915 17.9283 69.8044 18.1804C69.5211 18.4326 69.1758 18.6266 68.7762 18.7663C68.3765 18.906 67.9148 18.9758 67.391 18.9758V18.9797ZM68.2329 16.9544C68.6636 16.9544 69.0478 16.869 69.3776 16.6944C69.7074 16.5237 69.9673 16.2909 70.1574 15.996C70.3476 15.7012 70.4407 15.3675 70.4407 14.9989V13.8776C70.3476 13.9358 70.2234 13.9901 70.0643 14.0405C69.9053 14.0871 69.7268 14.1336 69.5289 14.1724C69.331 14.2112 69.1331 14.2462 68.9352 14.2772C68.7374 14.3082 68.5589 14.3354 68.3998 14.3548C68.0545 14.4052 67.7558 14.4867 67.4958 14.5954C67.2397 14.704 67.0379 14.8553 66.8983 15.0416C66.7547 15.2278 66.6848 15.4567 66.6848 15.7322C66.6848 16.1318 66.8323 16.4345 67.1233 16.644C67.4143 16.8535 67.7868 16.9583 68.2368 16.9583L68.2329 16.9544Z" fill="white"/>
<path d="M74.4487 18.782V8.20137H77.2928V10.0482H77.4014C77.5954 9.39252 77.9174 8.89589 78.3714 8.55833C78.8253 8.22077 79.3491 8.05005 79.9428 8.05005C80.0902 8.05005 80.2493 8.05781 80.42 8.07721C80.5907 8.09661 80.7382 8.11989 80.8662 8.15481V10.7583C80.7265 10.7156 80.5364 10.6807 80.2959 10.6496C80.0514 10.6186 79.8302 10.6031 79.6285 10.6031C79.1978 10.6031 78.8137 10.6962 78.4761 10.8824C78.1386 11.0687 77.8709 11.3286 77.6769 11.6584C77.4829 11.9882 77.3859 12.3685 77.3859 12.803V18.7898H74.4526L74.4487 18.782Z" fill="white"/>
</g>
<defs>
<clipPath id="clip0_843_841">
<rect width="81" height="24" fill="white"/>
</clipPath>
</defs>
</svg>
