<svg width="84" height="19" viewBox="0 0 84 19" fill="none" xmlns="http://www.w3.org/2000/svg">
<g clip-path="url(#clip0_843_845)">
<path d="M21.6387 14.8801H24.7815L24.7427 12.7578L26.1705 11.1127L28.3161 14.8801H31.8547L28.2812 8.93214L31.6568 4.98234H28.2618L24.7311 9.19986L24.7854 2.375H21.6387V14.8801Z" fill="white"/>
<path d="M36.2157 15.1479C38.8929 15.1479 40.7203 13.6502 41.1821 11.1282H38.179C37.9112 12.4164 37.2322 13.0061 36.2506 13.0061C35.0168 13.0061 34.2485 12.1137 34.1593 10.2707H41.2713V10.0573C41.2713 6.62745 39.1102 4.71851 36.2351 4.71851C33.1777 4.71851 31.0709 6.71669 31.0709 9.93318C31.0709 13.1497 33.1428 15.1517 36.2157 15.1517V15.1479ZM36.2157 6.80205C37.1624 6.80205 37.8414 7.42673 38.144 8.67996H34.2641C34.5318 7.42673 35.2147 6.80205 36.2157 6.80205Z" fill="white"/>
<path d="M42.2569 18.1508H44.4723C46.0243 18.1508 47.0641 17.4369 47.6694 15.9547L51.8326 4.98218H48.6704L46.4899 11.3802L44.1852 4.98218H40.8445L44.8642 15.3456C44.6314 15.7762 44.2938 15.9702 43.7196 15.9702H42.2569V18.1469V18.1508Z" fill="white"/>
<path d="M55.7281 14.88C57.0162 14.88 58.0716 14.3446 58.7855 13.3435V14.717C58.7855 15.9276 57.9979 16.5057 56.7679 16.5057C55.6233 16.5057 55.0142 16.1255 54.7814 15.3495H51.6774C52.1042 17.2739 53.9782 18.3448 56.7679 18.3448C59.9999 18.3448 61.9671 16.9868 61.9671 14.2553V4.9822H58.7894V6.32079C58.0755 5.31975 57.0201 4.7688 55.732 4.7688C53.1207 4.7688 51.4097 6.73207 51.4097 9.83216C51.4097 12.9323 53.1052 14.88 55.732 14.88H55.7281ZM56.6554 12.7576C55.3478 12.7576 54.5447 11.7954 54.5447 9.83603C54.5447 7.87665 55.3478 6.91442 56.6554 6.91442C57.9629 6.91442 58.801 7.85725 58.801 9.83603C58.801 11.8148 57.9979 12.7576 56.6554 12.7576Z" fill="white"/>
<path d="M67.9151 15.1479C70.5961 15.1479 72.4197 13.6502 72.8853 11.1282H69.8822C69.6145 12.4164 68.9316 13.0061 67.9539 13.0061C66.72 13.0061 65.9518 12.1137 65.8626 10.2707H72.9746V10.0573C72.9746 6.62745 70.8134 4.71851 67.9345 4.71851C64.8809 4.71851 62.7741 6.71669 62.7741 9.93318C62.7741 13.1497 64.8421 15.1517 67.9189 15.1517L67.9151 15.1479ZM67.9151 6.80205C68.8618 6.80205 69.5408 7.42673 69.8434 8.67996H65.9673C66.2351 7.42673 66.914 6.80205 67.9151 6.80205Z" fill="white"/>
<path d="M73.7622 14.88H76.9399V7.76802C77.3162 7.2869 77.906 6.99978 78.6044 6.99978C79.5317 6.99978 80.1758 7.53522 80.1758 8.57117V14.88H83.3535V8.10946C83.3535 6.07247 81.9605 4.7688 79.8537 4.7688C78.6393 4.7688 77.6344 5.26932 76.936 6.07247V4.9822H73.7583V14.88H73.7622Z" fill="white"/>
<path d="M2.63071 16.3701C4.05571 16.3701 5.21089 15.2149 5.21089 13.7899C5.21089 12.3649 4.05571 11.2097 2.63071 11.2097C1.20572 11.2097 0.0505371 12.3649 0.0505371 13.7899C0.0505371 15.2149 1.20572 16.3701 2.63071 16.3701Z" fill="white"/>
<path d="M12.9515 6.04928C14.3764 6.04928 15.5316 4.89408 15.5316 3.46909C15.5316 2.0441 14.3764 0.888916 12.9515 0.888916C11.5265 0.888916 10.3713 2.0441 10.3713 3.46909C10.3713 4.89408 11.5265 6.04928 12.9515 6.04928Z" fill="white"/>
<path fill-rule="evenodd" clip-rule="evenodd" d="M7.79119 11.2094C6.36724 11.2094 5.211 10.0532 5.211 8.62925C5.211 7.2053 6.36724 6.04907 7.79119 6.04907C9.21513 6.04907 10.3714 7.2053 10.3714 8.62925C10.3714 10.0532 11.5276 11.2094 12.9515 11.2094C14.3755 11.2094 15.5317 12.3657 15.5317 13.7896C15.5317 15.2135 14.3755 16.3698 12.9515 16.3698C11.5276 16.3698 10.3714 15.2135 10.3714 13.7896C10.3714 12.3657 9.21513 11.2094 7.79119 11.2094Z" fill="white"/>
</g>
<defs>
<clipPath id="clip0_843_845">
<rect width="84" height="19" fill="white"/>
</clipPath>
</defs>
</svg>
