<svg xmlns="http://www.w3.org/2000/svg" width="4905.056" height="984.263" viewBox="0 0 1297.796 260.42"><g style="display:inline;fill:#fff;fill-opacity:1"><path d="M131.147 30.801a5.3 5.3 0 0 0-2.373 1.37l-45.57 45.571V56.996a4.15 4.15 0 0 0-4.148-4.148h-17.19a4.15 4.15 0 0 0-4.148 4.148v46.232L5.935 155.012a5.29 5.29 0 0 0 0 7.484l8.713 8.712a5.29 5.29 0 0 0 7.483 0l4.328-4.328v116.223a7.94 7.94 0 0 0 7.938 7.937l97.933.001h97.86a7.937 7.937 0 0 0 7.936-7.937V166.687c0-.14-.024-.294-.029-.437l5.057 5.057a5.29 5.29 0 0 0 7.484 0l8.713-8.714a5.29 5.29 0 0 0 0-7.483L136.51 32.27a5.3 5.3 0 0 0-2.454-1.37 5.3 5.3 0 0 0-2.91-.099m-41.503 103.84h45.862c2.922 0 7.674-.044 10.567.347a35.5 35.5 0 0 1 6.056 1.362c2.78.89 7.071 2.963 9.538 4.526a39 39 0 0 1 4.65 3.452c2.21 1.91 5.39 5.453 7.087 7.83a44 44 0 0 1 2.912 4.673c1.386 2.572 3.184 6.977 3.97 9.79q.705 2.53 1.064 5.078c.407 2.892.404 7.653.075 10.555a44 44 0 0 1-.735 4.448c-.623 2.853-2.21 7.34-3.526 9.948a42 42 0 0 1-1.893 3.362c-1.548 2.477-4.578 6.152-6.743 8.111a38 38 0 0 1-2.826 2.32c-2.342 1.745-3.238 4.906-1.752 7.422l22.133 37.456a3.02 3.02 0 0 1-2.6 4.555H162.14a9.3 9.3 0 0 1-7.993-4.55l-18.585-31.293a9.3 9.3 0 0 0-7.994-4.55h-8.996a5.29 5.29 0 0 0-5.291 5.292v29.81a5.29 5.29 0 0 1-5.292 5.291H89.644a5.29 5.29 0 0 1-5.291-5.291V139.932a5.29 5.29 0 0 1 5.291-5.292m28.928 25.4a5.29 5.29 0 0 0-5.291 5.29v23.637a5.29 5.29 0 0 0 5.291 5.292h15.875c2.923 0 7.864.138 10.344-1.34.648-.384 3.04-2.287 4.556-4.769.71-1.162 2.183-4.367 2.628-7.246.332-2.152.399-6.355-.363-9.168-.558-2.064-2.444-5.824-4.468-7.916-.98-1.014-3.916-3.25-6.78-3.67-.826-.123-3.876-.11-6.8-.11z" style="display:inline;fill:#fff;fill-opacity:1;fill-rule:nonzero;stroke:none;stroke-width:6.61458;stroke-linecap:round;stroke-linejoin:round;stroke-dasharray:none;stroke-opacity:1;paint-order:stroke markers fill" transform="translate(-4.384 -30.622)"/></g><g style="display:inline;fill:#fff"><path d="M483.826 152.83q0 38.938-30.828 50.297l41.026 57.947h-44.501L413.6 209.39h-25.032v51.684h-36.157V99.058h61.422q37.778 0 53.772 12.753 16.22 12.746 16.22 41.026zm-68.84 25.265q18.543 0 25.266-6.022 6.723-6.03 6.723-19.01 0-13.212-6.957-18.074-6.95-4.87-24.33-4.87h-27.12v47.976zm222.636-79.03v32.215h-80.658v33.376h72.547v30.82h-72.547v33.61h83.213v31.988h-119.37V99.058Zm109.237 130.02q26.652 0 43.573-21.096l23.178 23.878q-27.58 31.061-65.13 31.061-37.311 0-61.65-23.644-24.104-23.638-24.104-59.568 0-36.157 24.565-60.262 24.805-24.104 60.495-24.104 39.865 0 66.75 30.368l-22.483 25.491q-17.155-21.316-42.647-21.316-20.396 0-34.996 13.432-14.366 13.213-14.366 35.93 0 22.485 13.673 36.158t33.142 13.673m163.965-98.732v130.721h-36.157v-130.72h-45.895V99.057h127.94v31.295Zm191.646 48.903q0-21.79-13.906-37.084-13.907-15.3-34.303-15.3-20.162 0-34.069 15.3-13.907 15.293-13.907 37.084 0 21.557 13.907 36.85 13.907 15.067 34.07 15.067 20.395 0 34.309-15.067 13.9-15.293 13.9-36.85m12.286 59.568q-24.564 23.87-60.495 23.87-35.916 0-60.488-23.87-24.571-24.105-24.571-59.802t24.571-59.568q24.565-24.104 60.488-24.104 35.93 0 60.495 24.104 24.572 23.871 24.572 59.568t-24.572 59.802m186.617-85.994q0 38.938-30.82 50.297l41.025 57.947h-44.508l-35.916-51.684h-25.038v51.684h-36.157V99.058h61.422q37.777 0 53.771 12.753 16.22 12.746 16.22 41.026zm-68.84 25.265q18.543 0 25.266-6.022 6.724-6.03 6.724-19.01 0-13.212-6.95-18.074-6.957-4.87-24.338-4.87h-27.12v47.976z" font-family="Montserrat" font-size="31.75" font-weight="700" style="line-height:1.25;-inkscape-font-specification:&quot;Montserrat Bold&quot;;display:inline;fill:#fff;stroke-width:7.29999" transform="translate(-13.782 -36.514)"/></g></svg>